<svg width="48" height="48" viewBox="0 0 48 48" fill="none" xmlns="http://www.w3.org/2000/svg">
<path fill-rule="evenodd" clip-rule="evenodd" d="M1.08993 5.46009C0 7.59921 0 10.3995 0 16V32C0 37.6005 0 40.4008 1.08993 42.5399C2.04867 44.4215 3.57847 45.9513 5.46009 46.9101C7.59921 48 10.3995 48 16 48H32C37.6005 48 40.4008 48 42.5399 46.9101C44.4215 45.9513 45.9513 44.4215 46.9101 42.5399C48 40.4008 48 37.6005 48 32V16C48 10.3995 48 7.59921 46.9101 5.46009C45.9513 3.57847 44.4215 2.04867 42.5399 1.08993C40.4008 0 37.6005 0 32 0H16C10.3995 0 7.59921 0 5.46009 1.08993C3.57847 2.04867 2.04867 3.57847 1.08993 5.46009ZM11.7562 35.459L13.4875 28.9666H20.4127L22.144 35.5239C22.1851 35.5767 22.2376 35.6197 22.2975 35.6497C22.3574 35.6796 22.4233 35.6958 22.4902 35.697H26.0394C26.2125 35.697 26.2125 35.6105 26.2125 35.4373L19.2873 12.1731C19.2422 12.0828 19.2206 12.0396 19.1856 12.0189C19.1536 12 19.1104 12 19.0276 12H14.5263C14.4397 12 14.3532 12 14.3532 12.1731C14.3734 12.7554 14.3152 13.3377 14.18 13.9044L8.03396 35.3724C7.9474 35.6321 8.03396 35.7187 8.20709 35.7187H11.41C11.6697 35.7187 11.7562 35.6321 11.7562 35.459ZM18.7372 22.4206C19.0574 23.6198 19.3486 24.7104 19.547 25.5041H14.4397C14.5772 24.9809 14.722 24.435 14.8701 23.8764C15.6777 20.8304 16.5843 17.4108 16.9501 15.2894C17.2994 17.0361 18.0795 19.9574 18.7372 22.4206ZM35.8212 32.6023C32.6183 32.6023 31.1467 30.6114 31.1467 27.6682L36.795 27.6465C38.0095 27.6749 39.2244 27.617 40.4307 27.4734C40.4873 27.4708 40.5408 27.4471 40.5808 27.4071C40.6208 27.3671 40.6445 27.3135 40.6471 27.257C40.778 26.5142 40.836 25.7604 40.8203 25.0063C40.8203 21.8034 39.1755 17.8215 34.501 17.8215C29.9348 17.8215 27.2296 21.9766 27.2296 27.0839C27.2296 31.7583 29.3937 36 35.107 36C36.8383 36 38.3099 35.8269 39.4352 35.2209C39.5437 35.1025 39.6052 34.9486 39.6083 34.7881V32.083C39.6083 31.9098 39.5218 31.8233 39.3487 31.9098C38.2394 32.4015 37.034 32.6381 35.8212 32.6023ZM37.1845 24.725H35.5615L31.1467 24.7033C31.4064 22.7989 32.272 20.9811 34.3496 20.9811C36.6002 20.9811 37.1845 23.1452 37.1845 24.3787V24.725Z" fill="white"/>
</svg>
