<svg xmlns="http://www.w3.org/2000/svg" width="48" height="48" viewBox="0 0 48 48"><g transform="translate(0 0)"><path d="M0,0H48V48H0Z" fill="none"/><path d="M168.974,130.65a2.87,2.87,0,0,1,2.854,2.863v12.458a2.865,2.865,0,0,1-2.851,2.863h-.125A2.863,2.863,0,0,1,166,145.972V133.514a2.866,2.866,0,0,1,2.851-2.863Zm4.219,20.129v-19.67h26.414v19.67a2.63,2.63,0,0,1-2.621,2.626h-2.8v6.73A2.864,2.864,0,0,1,191.332,163h-.12a2.868,2.868,0,0,1-2.856-2.866V153.4h-3.914v6.73A2.865,2.865,0,0,1,181.586,163h-.122a2.865,2.865,0,0,1-2.851-2.866V153.4h-2.8A2.628,2.628,0,0,1,173.193,150.779Zm19.354-25.43a1.278,1.278,0,1,0-1.277-1.279A1.272,1.272,0,0,0,192.546,125.349Zm-12.293,0a1.278,1.278,0,1,0-1.277-1.279A1.277,1.277,0,0,0,180.254,125.349Zm12.725-6.17c4.01,1.975,6.72,5.7,6.72,9.962,0,.262-.014.521-.038.778H173.142c-.022-.257-.038-.516-.038-.778,0-4.267,2.707-7.987,6.72-9.962l-2.227-3.444a.478.478,0,0,1,.139-.658.472.472,0,0,1,.658.142l2.3,3.564a15.2,15.2,0,0,1,11.41,0l2.3-3.564a.47.47,0,0,1,.655-.142.478.478,0,0,1,.139.658Zm10.968,11.472a2.867,2.867,0,0,1,2.854,2.863v12.458a2.863,2.863,0,0,1-2.851,2.863h-.12a2.867,2.867,0,0,1-2.856-2.863V133.514a2.869,2.869,0,0,1,2.856-2.863Z" transform="translate(-162 -115)" fill="#fff" fill-rule="evenodd"/></g></svg>