<svg width="48" height="48" viewBox="0 0 48 48" fill="none" xmlns="http://www.w3.org/2000/svg">
<path fill-rule="evenodd" clip-rule="evenodd" d="M18.4337 4H29.5663C34.6185 4 37.1447 4 39.0744 4.98324C40.7718 5.84812 42.1519 7.22817 43.0168 8.9256C44 10.8553 44 13.3815 44 18.4337V29.5663C44 34.6185 44 37.1447 43.0168 39.0744C42.1519 40.7718 40.7718 42.1519 39.0744 43.0168C37.1447 44 34.6185 44 29.5663 44H18.4337C13.3815 44 10.8553 44 8.9256 43.0168C7.22817 42.1519 5.84812 40.7718 4.98324 39.0744C4 37.1447 4 34.6185 4 29.5663V18.4337C4 13.3815 4 10.8553 4.98324 8.9256C5.84812 7.22817 7.22817 5.84812 8.9256 4.98324C10.8553 4 13.3815 4 18.4337 4ZM24 24.6437C25.8457 24.6437 27.3402 23.1491 27.3402 21.3034C27.3402 19.4578 25.8457 17.9632 24 17.9632C22.1543 17.9632 20.6598 19.4578 20.6598 21.3034C20.6598 23.1491 22.1543 24.6437 24 24.6437ZM33.4819 22.4932C33.4819 25.8774 31.7069 28.847 29.0396 30.5244L29.0347 30.522C29.0567 30.2636 29.0786 29.9978 29.0981 29.7247C29.1445 29.1152 29.1298 28.5642 29.0664 28.0571C30.5781 26.6795 31.529 24.6949 31.529 22.4932C31.529 18.3411 28.1497 14.9618 23.9976 14.9618C19.8454 14.9618 16.4662 18.3411 16.4662 22.4932C16.4662 24.6949 17.417 26.6795 18.9287 28.0571C18.8653 28.5642 18.8507 29.1176 18.897 29.7272C18.9054 29.8319 18.9135 29.9355 18.9214 30.038C18.9342 30.2029 18.9468 30.3651 18.9604 30.5244C16.2931 28.847 14.5181 25.8774 14.5181 22.4932C14.5181 17.2561 18.7629 13.0113 24 13.0113C29.2371 13.0113 33.4819 17.2561 33.4819 22.4932ZM9.8954 22.4932C9.8954 14.7034 16.2102 8.38864 24 8.38864H24.0049C31.7947 8.38864 38.1095 14.7034 38.1095 22.4932C38.1095 28.7153 34.0792 33.9915 28.4886 35.8664C28.5837 35.1398 28.669 34.4255 28.7495 33.6818C33.0991 31.8288 36.1565 27.5109 36.1565 22.4932C36.1565 15.7908 30.7049 10.3391 24.0024 10.3391C17.3 10.3391 11.8483 15.7908 11.8483 22.4932C11.8483 27.5109 14.9058 31.8288 19.2554 33.6818C19.3334 34.4255 19.4212 35.1423 19.5163 35.8664C13.9256 33.9915 9.8954 28.7153 9.8954 22.4932ZM20.6012 29.6004C20.3891 26.7795 21.5375 25.8871 24 25.8871C26.465 25.8871 27.6133 26.7795 27.4012 29.6004C27.194 32.3409 26.9916 34.2475 26.7088 36.2809C26.3821 38.6142 25.7579 39.4066 24 39.4066C22.2421 39.4066 21.6204 38.6142 21.2937 36.2809C21.0108 34.2475 20.8085 32.3409 20.6012 29.6004Z" fill="black"/>
</svg>
