<svg width="48" height="48" viewBox="0 0 48 48" fill="none" xmlns="http://www.w3.org/2000/svg">
<path fill-rule="evenodd" clip-rule="evenodd" d="M13.7022 22.8455C13.5905 22.4943 13.5266 22.0154 13.5266 21.4247H13.4947V16.2523C13.4947 14.4962 13.0477 13.1871 12.1696 12.325C11.2756 11.463 9.88673 11.0319 7.98698 11.0319C7.10894 11.0319 6.27879 11.1277 5.49654 11.3353C4.71429 11.5268 4.04378 11.7663 3.48503 12.0536C3.26153 12.1654 3.11785 12.2771 3.03803 12.3889C2.95821 12.5006 2.92628 12.6922 2.92628 12.9477V13.7299C2.92628 14.0652 3.03803 14.2248 3.26153 14.2248C3.32539 14.2248 3.40521 14.2088 3.51696 14.1769C3.62871 14.145 3.82028 14.0811 4.07571 13.9694C4.63446 13.7459 5.20918 13.5703 5.79986 13.4266C6.39054 13.2829 6.96526 13.219 7.52401 13.219C8.75327 13.219 9.61534 13.4585 10.1262 13.9534C10.6211 14.4483 10.8765 15.2944 10.8765 16.5077V17.6731C10.2379 17.5294 9.6313 17.4017 9.04062 17.3219C8.44994 17.2421 7.89119 17.1942 7.3484 17.1942C5.70408 17.1942 4.41096 17.6092 3.43714 18.4394C2.46331 19.2695 1.98438 20.3711 1.98438 21.728C1.98438 23.0052 2.38349 24.0269 3.16575 24.7932C3.948 25.5595 5.01761 25.9426 6.35861 25.9426C8.24241 25.9426 9.80691 25.2083 11.0521 23.7395C11.2277 24.1067 11.3874 24.41 11.547 24.6814C11.7067 24.9369 11.8982 25.1923 12.1217 25.4318C12.2814 25.5754 12.441 25.6553 12.6007 25.6553C12.7284 25.6553 12.8721 25.6074 13.0157 25.5116L14.0215 24.8411C14.229 24.6814 14.3248 24.5218 14.3248 24.3622C14.3248 24.2504 14.2929 24.1227 14.2131 23.995C13.9896 23.5799 13.8299 23.1968 13.7022 22.8455ZM8.68941 23.5639C8.11469 23.7555 7.5719 23.8513 7.04508 23.8513C6.31072 23.8513 5.75197 23.6597 5.36882 23.2606C4.96972 22.8775 4.77814 22.3187 4.77814 21.5684C4.77814 20.7702 5.03357 20.1635 5.5604 19.7325C6.08722 19.3015 6.86947 19.0939 7.93908 19.0939C8.43398 19.0939 8.92887 19.1259 9.43973 19.1897C9.95059 19.2536 10.4455 19.3494 10.9085 19.4611V20.1316C10.9085 20.6744 10.8446 21.1374 10.7488 21.5205C10.653 21.9036 10.4615 22.2389 10.206 22.5422C9.77498 23.0212 9.26412 23.3724 8.68941 23.5639ZM19.2578 25.4158C19.3855 25.5276 19.5771 25.5754 19.8645 25.5754H21.2374C21.5247 25.5754 21.7482 25.5276 21.876 25.4158C22.0037 25.3041 22.0995 25.0965 22.1793 24.7772L24.6378 14.4962L27.1123 24.7932C27.1761 25.1125 27.2879 25.32 27.4156 25.4318C27.5433 25.5435 27.7508 25.5914 28.0542 25.5914H29.4271C29.6985 25.5914 29.906 25.5276 30.0337 25.4318C30.1615 25.336 30.2732 25.1284 30.369 24.8092L34.2164 12.4687C34.2803 12.2931 34.3122 12.1654 34.3281 12.0696C34.3305 12.0557 34.3328 12.042 34.3351 12.0287C34.3484 11.9506 34.3601 11.8824 34.3601 11.8142C34.3601 11.5428 34.2164 11.4151 33.961 11.4151H32.4763C32.1889 11.4151 31.9814 11.4789 31.8537 11.5747C31.7419 11.6705 31.6302 11.878 31.5344 12.1973L28.7726 22.8934L26.2502 12.1973C26.1863 11.894 26.0746 11.6705 25.9469 11.5747C25.8192 11.463 25.6116 11.4151 25.3083 11.4151H24.0311C23.7438 11.4151 23.5203 11.4789 23.3926 11.5747C23.2649 11.6705 23.1691 11.878 23.0893 12.1973L20.5988 22.7657L17.9168 12.1973C17.821 11.894 17.7252 11.6705 17.5975 11.5747C17.4858 11.463 17.2782 11.4151 16.9749 11.4151H15.4104C15.155 11.4151 15.0273 11.5588 15.0273 11.8142C15.0273 11.9259 15.0751 12.1335 15.1709 12.4528L18.9226 24.7932C19.0183 25.0965 19.1301 25.32 19.2578 25.4158ZM37.9201 25.7191C38.7183 25.9107 39.5485 26.0065 40.3786 26.0065C41.1928 26.0065 41.9431 25.8947 42.6615 25.6712C43.348 25.4637 43.9387 25.1763 44.4336 24.7772C44.9285 24.3941 45.3116 23.9152 45.599 23.3724C45.8704 22.8296 46.0141 22.207 46.0141 21.5205C46.0141 20.6904 45.7746 19.94 45.2797 19.2855C44.7848 18.631 43.9547 18.1201 42.8052 17.7529L40.5383 17.0345C39.6922 16.7631 39.1015 16.4598 38.7822 16.1565C38.4629 15.8532 38.3033 15.47 38.3033 15.023C38.3033 14.3685 38.5587 13.9055 39.0536 13.6022C39.5485 13.2989 40.2669 13.1552 41.1769 13.1552C42.3103 13.1552 43.332 13.3627 44.242 13.7778C44.5134 13.9055 44.7209 13.9694 44.8487 13.9694C45.0881 13.9694 45.2158 13.7938 45.2158 13.4585V12.7082C45.2158 12.4847 45.1679 12.3091 45.0722 12.1814C44.9764 12.0377 44.8167 11.91 44.5932 11.7823C44.4336 11.6865 44.2101 11.5907 43.9227 11.4949C43.6354 11.3991 43.332 11.3193 43.0128 11.2395C42.6775 11.1756 42.3423 11.1118 41.9751 11.0639C41.6239 11.016 41.2567 11 40.9055 11C40.203 11 39.5325 11.0798 38.894 11.2714C38.2554 11.463 37.7126 11.7344 37.2337 12.1015C36.7547 12.4528 36.3716 12.8998 36.0842 13.4106C35.7969 13.9215 35.6532 14.5122 35.6532 15.1827C35.6532 16.0128 35.9246 16.7951 36.4514 17.4975C36.9782 18.2159 37.8403 18.7587 39.0057 19.1259L41.3205 19.8442C42.1028 20.0997 42.6456 20.3711 42.9329 20.6744C43.2203 20.9777 43.364 21.3449 43.364 21.7919C43.364 22.4464 43.0766 22.9573 42.5338 23.3085C41.991 23.6597 41.2088 23.8353 40.203 23.8353C39.5645 23.8353 38.9418 23.7715 38.3033 23.6438C37.6807 23.516 37.09 23.3245 36.5472 23.085C36.4906 23.0624 36.4361 23.0398 36.385 23.0186C36.2918 22.9799 36.2099 22.946 36.1481 22.9254C36.0523 22.8934 35.9565 22.8775 35.8607 22.8775C35.6213 22.8775 35.4935 23.0371 35.4935 23.3724V24.1865C35.4935 24.3302 35.5255 24.4899 35.5893 24.6336C35.6532 24.7772 35.8288 24.9369 36.0842 25.0806C36.4993 25.32 37.1219 25.5276 37.9201 25.7191ZM23.9513 39.7039C30.5127 39.7039 38.1436 37.6445 43.3959 33.7652C44.258 33.1266 43.5076 32.1528 42.6296 32.5519C36.7388 35.0423 30.3371 36.2556 24.5101 36.2556C15.8734 36.2556 7.52401 33.8769 0.75513 29.9497C0.16445 29.5985 -0.282552 30.2051 0.212343 30.6521C6.47037 36.3035 14.7559 39.7039 23.9513 39.7039ZM39.4367 31.0672C41.1449 30.8596 44.9125 30.4126 45.583 31.2747C46.2535 32.1208 44.8327 35.6809 44.1941 37.2614C44.0025 37.7403 44.4176 37.9319 44.8487 37.5647C47.6584 35.2019 48.3927 30.269 47.818 29.5506C47.2433 28.8481 42.3103 28.2415 39.309 30.3488C38.8461 30.684 38.9259 31.131 39.4367 31.0672Z" fill="white"/>
</svg>
