<svg xmlns="http://www.w3.org/2000/svg" width="48" height="48" viewBox="0 0 48 48"><rect width="48" height="48" fill="none"/><path d="M238.006,239.432c1.5,5.359,2.455,8.546,4.162,10.721a7.128,7.128,0,0,0,.835.883,12.63,12.63,0,0,1-8.371-.125c-.029-.353-.046-.7-.046-1.03a9.856,9.856,0,0,1,.223-2.191,43.64,43.64,0,0,1,2.422-6.542C237.5,240.531,237.766,239.951,238.006,239.432Zm-6.3-10.8a8.4,8.4,0,0,1,1.894,1.454,19.377,19.377,0,0,1,3.026,5.467c.221.55.42,1.073.593,1.55-2.928,5.954-4.879,8.926-5.659,12.168a12.668,12.668,0,0,1,.146-20.64Zm18.346,24.926a16.885,16.885,0,0,0,2.035.115,27.853,27.853,0,0,0,6.54-.871A23.992,23.992,0,0,1,215,239a12.615,12.615,0,0,1,.139-2.58c1.966-6.686,6.689-9.163,11.162-9.206a11.247,11.247,0,0,1,2.647.326,15.244,15.244,0,0,0,16.819,25.121A20.6,20.6,0,0,0,250.054,253.554Zm-4.51-4.649a5.563,5.563,0,0,1-1.889-1.966,29.4,29.4,0,0,1-2.585-5.29c-.653-1.687-1.034-2.957-1.037-2.962a.008.008,0,0,1,0,0c-1.2-4.591-2.438-8.789-5.014-11.726A12.679,12.679,0,0,1,251.691,239h0a12.691,12.691,0,0,1-5.2,10.229A6.985,6.985,0,0,1,245.545,248.9ZM239,215a24,24,0,0,1,24,24,24.3,24.3,0,0,1-.2,3.06,10.152,10.152,0,0,1-3.233,5.513,11.839,11.839,0,0,1-7.685,2.4,19.019,19.019,0,0,1-2.167-.122A15.2,15.2,0,0,0,254.25,239h0a15.249,15.249,0,0,0-21.384-13.958c-.235-.161-.478-.319-.732-.466a12.892,12.892,0,0,0-6.034-1.464,12.161,12.161,0,0,0-6.6,1.913A23.959,23.959,0,0,1,239,215Z" transform="translate(-215 -215)" fill="#fff" fill-rule="evenodd"/></svg>