<svg xmlns="http://www.w3.org/2000/svg" width="49" height="48" viewBox="0 0 49 48"><rect width="48" height="48" fill="none"/><path d="M77.656,346.126a4.219,4.219,0,1,1-4.219-4.219A4.224,4.224,0,0,1,77.656,346.126Zm-1.406,4.219a5.63,5.63,0,0,1,5.625,5.623v5.626A1.405,1.405,0,0,1,80.469,363H66.406A1.405,1.405,0,0,1,65,361.594v-5.626a5.63,5.63,0,0,1,5.625-5.623H76.25Zm32.531-4.219a4.219,4.219,0,1,1-4.219-4.219A4.224,4.224,0,0,1,108.781,346.126Zm-1.406,4.219A5.63,5.63,0,0,1,113,355.968v5.626A1.405,1.405,0,0,1,111.594,363H97.531a1.405,1.405,0,0,1-1.406-1.406v-5.626a5.63,5.63,0,0,1,5.625-5.623h5.625ZM88.588,323.026a1.406,1.406,0,1,0-1.988-1.99l-4.631,4.632-1.818-1.819a1.406,1.406,0,0,0-1.988,1.99l2.812,2.813a1.41,1.41,0,0,0,1.989,0Zm7.443-.994v8.436A7.032,7.032,0,0,1,89,337.5H83.957l-5.213,5.213a1.406,1.406,0,0,1-2.4-.994v-4.361a7.044,7.044,0,0,1-5.625-6.89v-8.436A7.032,7.032,0,0,1,77.75,315H89A7.032,7.032,0,0,1,96.031,322.032Zm5.625,19.687a1.406,1.406,0,0,1-2.4.994l-4.388-4.387a9.809,9.809,0,0,0,3.976-7.858v-8.436a9.73,9.73,0,0,0-.987-4.219h2.394a7.032,7.032,0,0,1,7.031,7.032v5.623a7.044,7.044,0,0,1-5.625,6.89Z" transform="translate(-64 -315)" fill="#fff" fill-rule="evenodd"/></svg>