<svg xmlns="http://www.w3.org/2000/svg" width="48.999" height="48" viewBox="0 0 48.999 48"><g transform="translate(0.5)"><rect width="48" height="48" fill="none"/><path d="M10321.249,4449.041a6.466,6.466,0,0,1-1.763-.573v-3.062a5.872,5.872,0,0,0,1.807,1.047,5.81,5.81,0,0,0,1.971.35,4.384,4.384,0,0,0,1.019-.106,2.44,2.44,0,0,0,.726-.291,1.282,1.282,0,0,0,.436-.44,1.1,1.1,0,0,0,.143-.55,1.183,1.183,0,0,0-.229-.718,2.472,2.472,0,0,0-.627-.583,6.506,6.506,0,0,0-.941-.516c-.362-.166-.757-.337-1.177-.508a5.987,5.987,0,0,1-2.395-1.636,3.564,3.564,0,0,1-.791-2.333,3.736,3.736,0,0,1,.431-1.84,3.66,3.66,0,0,1,1.174-1.268,5.208,5.208,0,0,1,1.716-.731,8.845,8.845,0,0,1,2.066-.236,12.5,12.5,0,0,1,1.9.129,7.531,7.531,0,0,1,1.524.4v2.861a4.6,4.6,0,0,0-.749-.422,6.028,6.028,0,0,0-.838-.3,6.323,6.323,0,0,0-1.664-.233,4.372,4.372,0,0,0-.956.1,2.421,2.421,0,0,0-.727.283,1.4,1.4,0,0,0-.458.436,1.019,1.019,0,0,0-.164.567,1.077,1.077,0,0,0,.182.617,2.129,2.129,0,0,0,.516.519,5.635,5.635,0,0,0,.814.477q.478.237,1.081.482a12.253,12.253,0,0,1,1.478.733,5.222,5.222,0,0,1,1.122.874,3.4,3.4,0,0,1,.718,1.115,3.937,3.937,0,0,1,.249,1.459,3.892,3.892,0,0,1-.436,1.926,3.51,3.51,0,0,1-1.182,1.262,5.113,5.113,0,0,1-1.734.695,10.094,10.094,0,0,1-2.089.21A11.678,11.678,0,0,1,10321.249,4449.041Zm-27.49-5.843v-7.919h3.1v7.958q0,3.329,2.6,3.329,2.555,0,2.554-3.214v-8.072h3.09v7.774q0,6.182-5.758,6.18Q10293.758,4449.232,10293.759,4443.2Zm-11.112,4.179a6.777,6.777,0,0,1-1.807-4.943,7.24,7.24,0,0,1,2.032-5.337,7.112,7.112,0,0,1,5.272-2.048,9.9,9.9,0,0,1,3.388.508v2.974a6.015,6.015,0,0,0-3.137-.822,4.157,4.157,0,0,0-3.118,1.216,4.5,4.5,0,0,0-1.187,3.289,4.42,4.42,0,0,0,1.12,3.17,3.946,3.946,0,0,0,3.012,1.18,6.439,6.439,0,0,0,3.311-.879v2.82a9.049,9.049,0,0,1-3.922.729A6.612,6.612,0,0,1,10282.646,4447.376Zm25.439,1.617v-13.715h4.84q5.183,0,5.182,4.371a4.2,4.2,0,0,1-1.485,3.344,5.9,5.9,0,0,1-3.974,1.275h-1.473v4.726Zm3.09-7.069h1.213q2.47,0,2.468-2.162,0-2.112-2.468-2.113h-1.213Z" transform="translate(-10280.84 -4417.944)" fill="#fff" stroke="rgba(0,0,0,0)" stroke-miterlimit="10" stroke-width="1"/></g></svg>