<svg xmlns="http://www.w3.org/2000/svg" width="49.078" height="48" viewBox="0 0 49.078 48"><g transform="translate(0.496)"><rect width="48" height="48" fill="none"/><path d="M11140.094,1472.243a13.845,13.845,0,0,1-11.789-11.511,15.478,15.478,0,0,1-.205-4.726c.025-.188.06-.373.1-.595h.7q15.875,0,31.745.006a8.063,8.063,0,0,0,3.756-.791c-1.552-3.192-1-6.078.992-8.8,1.868.752,3.4,2.709,4.2,5.38,2.267-.2,4.521-.292,6.412,1.335a6.391,6.391,0,0,1-6.252,4.625,1.6,1.6,0,0,0-1.694,1.128c-3.506,7.525-9.449,11.977-17.533,13.617a31.39,31.39,0,0,1-6.24.65A27.362,27.362,0,0,1,11140.094,1472.243Zm9.253-18.021v-4.4h4.895v4.4Zm-17.592-.006v-4.4h4.9v4.4Zm23.439-.005v-4.4h4.923v4.4Zm-11.7,0V1449.8h4.872v4.406Zm-5.876,0v-4.4h4.883v4.4Zm.014-5.371v-4.44h4.883v4.44Zm11.7,0v-4.446h4.895v4.446Zm-5.845,0V1444.4h4.883v4.434Zm5.862-5.4v-4.5h4.877v4.5Z" transform="translate(-11128 -1431.848)" fill="#fff" stroke="rgba(0,0,0,0)" stroke-miterlimit="10" stroke-width="1"/></g></svg>