<?xml version="1.0" encoding="utf-8"?>
<!-- Generator: Adobe Illustrator 25.0.1, SVG Export Plug-In . SVG Version: 6.00 Build 0)  -->
<svg version="1.1" id="Layer_1" xmlns="http://www.w3.org/2000/svg" xmlns:xlink="http://www.w3.org/1999/xlink" x="0px" y="0px"
	 viewBox="0 0 48 48" style="enable-background:new 0 0 48 48;" xml:space="preserve">
<style type="text/css">
	.st0{fill-rule:evenodd;clip-rule:evenodd;fill:#FFFFFF;}
</style>
<g>
	<path class="st0" d="M45.2,8.59L45.2,8.59C40.83,3.34,34.24,0,26.88,0C17.51,0,9.4,5.4,5.49,13.26h31.12
		c2.23,0,4.41-0.77,6.11-2.21C43.61,10.31,44.44,9.5,45.2,8.59"/>
	<path class="st0" d="M3,23.88c0,2.14,0.29,4.22,0.82,6.19h29.25c3.42,0,6.19-2.77,6.19-6.19c0-3.42-2.77-6.19-6.19-6.19H3.82
		C3.29,19.66,3,21.74,3,23.88"/>
	<path class="st0" d="M45.2,39.17L45.2,39.17c-4.38,5.25-10.96,8.58-18.33,8.58c-9.37,0-17.48-5.4-21.39-13.26h31.12
		c2.23,0,4.41,0.77,6.11,2.21C43.61,37.44,44.44,38.26,45.2,39.17"/>
</g>
</svg>
