<svg xmlns="http://www.w3.org/2000/svg" width="48" height="48" viewBox="0 0 48 48"><rect width="48" height="48" fill="none"/><path d="M126.02,404.758l-.115.61a13.762,13.762,0,0,0,9.487,3.874,6.284,6.284,0,0,0,1.975-.653c-.5-.549-.91-1.433-1.512-1.589C132.6,406.153,129.3,405.486,126.02,404.758ZM134.35,413a46.145,46.145,0,0,1-5.309-1.214c-6.353-2.234-10.5-8.758-10-16.318.746-11.249,5.7-20.638,13.637-28.536a14.928,14.928,0,0,1,2.112-1.57,4.772,4.772,0,0,1,.864-.362c.192,1.985.331,3.84.562,5.683A18.274,18.274,0,0,0,141,380.917c1.944,2.136,3.886,4.279,5.839,6.408,7.051,7.687,2.7,24.118-10.094,25.392a4.208,4.208,0,0,0-.878.283Z" transform="translate(-110.032 -365)" fill="#fff" fill-rule="evenodd"/></svg>