<?xml version="1.0" encoding="utf-8"?>
<!-- Generator: Adobe Illustrator 25.0.1, SVG Export Plug-In . SVG Version: 6.00 Build 0)  -->
<svg version="1.1" id="Layer_1" xmlns="http://www.w3.org/2000/svg" xmlns:xlink="http://www.w3.org/1999/xlink" x="0px" y="0px"
	 viewBox="0 0 48 48" style="enable-background:new 0 0 48 48;" xml:space="preserve">
<style type="text/css">
	.st0{fill:#FFFFFF;}
</style>
<path class="st0" d="M46.26,13.36l1.5-3.89L47.7,9.22l-14.87,3.92C34.42,10.84,33.87,9,33.87,9s-4.75,3.03-8.35,2.95
	c-3.59-0.08-4.75-1.04-10.26,0.72s-7.07,7.15-8.66,8.31C5.01,22.14,0,25.91,0,25.91l0.01,0.07l4.52-1.44c0,0-1.24,1.16-3.87,4.72
	c0,0-0.05-0.04-0.12-0.11l0.01,0.02c0,0,2.12,3.24,4.19,2.63c0.21-0.06,0.44-0.16,0.7-0.29c0.83,0.47,1.92,0.92,3.13,1.05
	c0,0-0.82-0.95-1.5-2.03c0.19-0.12,0.37-0.24,0.56-0.37l-0.09,0.06l1.72,0.63l-0.19-1.62c0.01-0.01,0.01-0.01,0.02-0.01l1.69,0.62
	l-0.21-1.47c0.21-0.11,0.43-0.22,0.64-0.32l1.76-6.66l7.29-4.97l-0.58,1.46c-1.47,3.64-4.25,4.49-4.25,4.49l-1.16,0.44
	c-0.86,1.02-1.22,1.27-1.52,4.68c0.69-0.17,1.36-0.21,1.96-0.06c3.11,0.84,4.19,4.59,3.35,5.63c-0.21,0.26-0.71,0.7-1.34,1.23h-1.26
	l-0.02,1.02c-0.05,0.03-0.08,0.07-0.13,0.1h-1.28l-0.02,1c-0.11,0.08-0.23,0.17-0.34,0.25c-1.21,0.02-2.73-1.03-2.73-1.03
	c0,0.96,0.8,2.44,0.8,2.44s0.05-0.02,0.14-0.07c-0.08,0.06-0.12,0.09-0.12,0.09s3.24,2.16,5.27,1.36c1.81-0.71,6.49-4.41,10.54-6.16
	l12.24-3.22l1.62-4.18l-9.33,2.46V24.6l10.95-2.88l1.62-4.18l-12.56,3.31v-3.76L46.26,13.36z M24.05,21.32l2.9-0.77l0.04,0.15
	l-0.91,2.35l-3.01,0.79L24.05,21.32z M25.05,26.34l-3.01,0.79l0.97-2.52l2.9-0.77L25.95,24L25.05,26.34z M28.97,25.5l-3.01,0.79
	l0.97-2.52l2.9-0.77l0.04,0.15L28.97,25.5z"/>
</svg>
