<svg width="48" height="49" viewBox="0 0 48 49" fill="none" xmlns="http://www.w3.org/2000/svg">
<path d="M22.1101 11.2732V17.1508C22.1101 19.8905 19.8885 22.1122 17.1487 22.1122H11.0565C4.94994 22.1122 0 17.1622 0 11.0585C0 4.95485 4.83256 0.119427 10.8389 0.00204812C17.0371 -0.118193 22.1101 5.07223 22.1101 11.2732ZM27.5324 13.8899V19.2636C27.5324 21.8574 29.6338 23.9587 32.2276 23.9587H37.6012C43.0836 23.9587 47.8532 19.4812 47.9964 14.0016C48.151 8.1298 43.3613 3.34018 37.4896 3.49477C32.01 3.63792 27.5324 8.41036 27.5324 13.8899ZM18.9924 35.7996V32.2726C18.9924 29.5414 16.7794 27.3283 14.0482 27.3283H10.5211C5.87465 27.3283 1.81221 31.1245 1.70915 35.771C1.59749 40.7038 5.61985 44.7261 10.5526 44.6145C15.1991 44.5085 18.9953 40.449 18.9953 35.8025L18.9924 35.7996ZM33.2782 48.0557C38.7006 48.1788 43.1209 43.7585 42.9978 38.3362C42.8832 33.2288 38.4171 29.0575 33.3097 29.0575H29.1127C26.2871 29.0575 23.9996 31.3478 23.9996 34.1706V38.3676C23.9996 43.475 28.1708 47.9383 33.2782 48.0557Z" fill="white"/>
</svg>
