<svg width="409" height="52" viewBox="0 0 409 52" fill="none" xmlns="http://www.w3.org/2000/svg">
<path fill-rule="evenodd" clip-rule="evenodd" d="M11.1012 25.9995C11.1012 35.1642 18.5822 42.596 27.8076 42.596C37.0331 42.596 44.5117 35.1642 44.5117 25.9995C44.5117 16.8349 37.0331 9.40311 27.8076 9.40311C18.5822 9.40311 11.1012 16.8349 11.1012 25.9995ZM49.6012 17.0693L53.7152 19.4306C54.557 19.9139 55.1287 20.7502 55.2771 21.7024C55.4985 23.1042 55.6153 24.5374 55.6153 25.9995C55.6153 27.4617 55.4985 28.8949 55.2771 30.2943C55.1287 31.2489 54.557 32.0876 53.7152 32.5685L49.6012 34.9273C47.6744 36.0343 46.4872 38.0741 46.4872 40.2855V45.0007C46.4872 45.965 46.0444 46.8762 45.2902 47.4804C43.0544 49.2785 40.534 50.7383 37.8043 51.7824C36.8968 52.1304 35.8799 52.0603 35.0381 51.577L30.9193 49.2133C28.9924 48.1088 26.6204 48.1088 24.6936 49.2133L20.5772 51.577C19.733 52.0603 18.716 52.1304 17.8086 51.7824C15.0789 50.7383 12.5584 49.2785 10.3251 47.4804C9.56846 46.8762 9.12568 45.965 9.12568 45.0007V40.2855C9.12568 38.0741 7.93844 36.0343 6.01161 34.9273L1.90007 32.5685C1.0583 32.0876 0.486573 31.2489 0.335735 30.2943C0.114344 28.8949 0 27.4617 0 25.9995C0 24.5374 0.114344 23.1042 0.335735 21.7024C0.486573 20.7502 1.0583 19.9139 1.90007 19.4306L6.01161 17.0693C7.93844 15.9672 9.12568 13.9226 9.12568 11.7136V6.99836C9.12568 6.03162 9.56846 5.12289 10.3251 4.51868C12.5584 2.72055 15.0789 1.26078 17.8086 0.216705C18.716 -0.13132 19.733 -0.0588144 20.5772 0.424553L24.6936 2.78339C26.6204 3.8903 28.9924 3.8903 30.9193 2.78339L35.0381 0.424553C35.8799 -0.0588144 36.8968 -0.13132 37.8043 0.216705C40.534 1.26078 43.0544 2.72055 45.2902 4.51868C46.0444 5.12289 46.4872 6.03162 46.4872 6.99836V11.7136C46.4872 13.9226 47.6744 15.9672 49.6012 17.0693ZM87.6001 9.71972C84.2306 9.71972 82.7879 11.3922 82.7879 14.4398V17.3666H93.675V23.8196H82.7879V47.5964H75.0904V23.8196H66.731V17.3666H75.0904V12.9462C75.0904 7.0902 78.3382 3.62445 85.2549 3.62445H98.3656V9.71972H87.6001ZM105.832 17.3666V22.4444C106.613 20.7115 108.958 17.1878 115.695 17.1878H122.789V24.7742H114.671C108.177 24.7742 105.832 26.9252 105.832 31.7057V47.5964H98.1929V17.3666H105.832ZM141.405 41.564C136.236 41.564 132.866 37.6197 132.866 32.4815C132.866 27.3433 136.236 23.4014 141.405 23.4014C146.398 23.4014 149.706 27.3433 149.706 32.4815C149.706 37.6197 146.398 41.564 141.405 41.564ZM149.587 21.9078C148.923 20.6511 145.858 16.7092 139.423 16.7092C131.543 16.7092 125.049 22.6836 125.049 32.4815C125.049 42.4002 131.543 48.2538 139.362 48.2538C146.038 48.2538 149.045 44.0727 149.645 42.8183V47.5964H157.285V17.3666H149.587V21.9078ZM193.807 23.4594C195.191 20.7115 198.558 16.7092 204.993 16.7092C212.691 16.7092 217.622 22.2655 217.622 29.9728V47.5964H209.925V31.4664C209.925 26.6859 207.158 23.5199 202.709 23.5199C198.137 23.5199 195.191 26.8068 195.191 31.4664V47.5964H187.494V31.4664C187.494 26.6859 184.727 23.5199 180.275 23.5199C175.706 23.5199 172.758 26.8068 172.758 31.4664V47.5964H165.121V17.3666H172.758V22.4444C173.901 20.233 177.268 16.7092 182.742 16.7092C187.914 16.7092 191.882 19.3387 193.807 23.4594ZM230.906 28.4792C231.867 24.7742 234.754 22.5048 238.905 22.5048C242.812 22.5048 245.7 24.6558 246.78 28.4792H230.906ZM238.905 16.5908C229.582 16.5908 222.967 23.1018 222.967 32.4815C222.967 41.5616 229.582 48.3722 239.506 48.3722C249.848 48.3722 253.998 41.8613 254.48 38.7556H246.902C246.359 39.5918 244.376 42.0401 239.506 42.0401C234.453 42.0401 231.025 38.4559 230.665 33.7358H254.84V32.8996C254.84 22.9809 248.284 16.5908 238.905 16.5908ZM285.857 17.1273L293.313 37.5013L300.288 17.3666H307.748L296.622 47.8357H289.705L281.947 26.8068L274.249 47.8357H267.513L256.147 17.3666H264.506L271.544 37.6801L279.059 17.1273H285.857ZM325.471 41.564C320.299 41.564 316.813 37.5593 316.813 32.4815C316.813 27.4037 320.299 23.4014 325.471 23.4014C330.585 23.4014 334.071 27.3433 334.071 32.4815C334.071 37.6197 330.585 41.564 325.471 41.564ZM325.471 16.5908C316.09 16.5908 309.054 23.2806 309.054 32.4815C309.054 41.6824 316.09 48.3746 325.471 48.3746C334.733 48.3746 341.83 41.6824 341.83 32.4815C341.83 23.2806 334.733 16.5908 325.471 16.5908ZM354.811 17.3666V22.4444C355.592 20.7115 357.938 17.1878 364.674 17.1878H371.771V24.7742H363.65C357.157 24.7742 354.811 26.9252 354.811 31.7057V47.5964H347.172V17.3666H354.811ZM391.684 31.4664L407.86 17.3666H397.817L383.865 29.6731V3.62445H376.286V47.5964H383.865V33.8543L398.418 47.5964H408.702L391.684 31.4664Z" fill="black"/>
</svg>
