<svg xmlns="http://www.w3.org/2000/svg" width="48" height="48" viewBox="0 0 48 48"><rect width="48" height="48" fill="none"/><path d="M26.643,175.781c.093,0,.117.073.07.146l-.4.637a.349.349,0,0,1-.234.148l-8.46-.025c-.093,0-.117-.048-.07-.123l.491-.659a.331.331,0,0,1,.257-.123Zm-1.215,2.252a.122.122,0,0,1,.117.165l-.187.657a.207.207,0,0,1-.21.165l-11.054.027c-.093,0-.117-.054-.07-.138l.491-.739a.314.314,0,0,1,.257-.138Zm-.514,2.252c.093,0,.14.073.14.171l-.047.589a.179.179,0,0,1-.164.171l-5.095-.025c-.093,0-.117-.073-.07-.146l.327-.611a.3.3,0,0,1,.234-.148Zm29.423,4.285a5.372,5.372,0,0,0,2.968-4.677,7.278,7.278,0,0,0-.07-.806,3.857,3.857,0,0,0-4.767-3.256,5.227,5.227,0,0,0-4.09,4.257,4.042,4.042,0,0,0,5.959,4.481Zm7.572-6.438a9.72,9.72,0,0,1-2.688,8.3,10.554,10.554,0,0,1-5.609,3.133c-.631.123-1.262.148-1.87.221a8.522,8.522,0,0,1-5.7-2.154,7.751,7.751,0,0,1-2.336-3.815,10.463,10.463,0,0,1-.982,1.661,9.674,9.674,0,0,1-6.661,4.161,8.006,8.006,0,0,1-6.287-1.615,7.776,7.776,0,0,1-2.968-5.434,9.93,9.93,0,0,1,1.987-7.173,10.312,10.312,0,0,1,6.544-4.234,7.758,7.758,0,0,1,6.193,1.2,7.592,7.592,0,0,1,2.711,3.452c.14.219.047.342-.234.415-1.472.392-2.477.684-3.926,1.077-.35.1-.374.123-.678-.244a3.145,3.145,0,0,0-1.1-.931,3.909,3.909,0,0,0-4.23.367,5.271,5.271,0,0,0-2.384,4.65,3.786,3.786,0,0,0,3.155,3.844,4.219,4.219,0,0,0,3.973-1.615c.21-.269.4-.563.631-.906H34.94c-.491,0-.608-.319-.444-.735.3-.76.865-2.033,1.192-2.667a.631.631,0,0,1,.584-.392H43.8a10.567,10.567,0,0,1,1.614-3.183,9.735,9.735,0,0,1,6.544-4.088,8.346,8.346,0,0,1,6.661,1.25A7.661,7.661,0,0,1,61.909,178.131Z" transform="translate(-14 -155.696)" fill="#fff" fill-rule="evenodd"/></svg>