<svg xmlns="http://www.w3.org/2000/svg" width="48" height="48" viewBox="0 0 48 48"><rect width="48" height="48" fill="none"/><path d="M112,178.444v16.717c0,2.738,0,2.738-2.391,4.124h0l-.028.017L95.268,207.6a5.474,5.474,0,0,1-2.394,1.041h0a2.662,2.662,0,0,1-1.213-.38c-.324-.166-.7-.384-1.178-.659h0L76.2,199.318c-1.926-1.115-2.328-1.4-2.416-2.8H85.7l4.761,2.76a5.573,5.573,0,0,0,2.411,1.049h0a5.455,5.455,0,0,0,2.392-1.039l7.156-4.148.015-.007.2-.12c1.059-.615,1.6-.951,1.886-1.44l.005,0a5.294,5.294,0,0,0,.295-2.52v-8.391c0-2.771,0-2.771-2.391-4.156l-7.172,4.156-.149.087-2.241,1.3h0v5.542h0l2.39-1.385,4.782-2.771V188.2h0a14.326,14.326,0,0,1-.065,1.85c0,.022-.006.041-.009.061,0,0,0,.009,0,.015a1.955,1.955,0,0,1-.223.67h0c-.3.524-.91.875-2.128,1.582l-2.357,1.366a5.475,5.475,0,0,1-2.386,1.036h0a5.409,5.409,0,0,1-2.377-1.032l-2.449-1.418c-2.347-1.359-2.347-1.359-2.347-4.161v-2.745a5.494,5.494,0,0,1,.3-2.592v0a3.418,3.418,0,0,1,1.3-1.093c.229-.14.491-.29.79-.465h0l4.781-2.771,4.781-2.769-2.4-1.392c-.221-.129-.421-.244-.6-.349-1.8-1.017-2-.9-4.2.373l-2.358,1.368-.043.024L85.7,177.122H73.78c.086-1.4.477-1.682,2.353-2.769l14.35-8.315h0A5.479,5.479,0,0,1,92.874,165a2.042,2.042,0,0,1,.769.172,14.862,14.862,0,0,1,1.622.866l14.342,8.311C111.982,175.726,112,175.737,112,178.444Zm-29.885,12.53a1.385,1.385,0,1,1-1.38,1.385A1.383,1.383,0,0,1,82.115,190.975Zm-4.966,1.385a1.38,1.38,0,1,1,1.38,1.385A1.382,1.382,0,0,1,77.149,192.36Zm-2.206,1.385a1.385,1.385,0,1,1,1.38-1.385A1.384,1.384,0,0,1,74.943,193.745Zm-3.586-2.771a1.385,1.385,0,1,1-1.38,1.385A1.383,1.383,0,0,1,71.357,190.975ZM65.38,179.891A1.385,1.385,0,1,1,64,181.276,1.384,1.384,0,0,1,65.38,179.891Zm14.529,1.385a1.38,1.38,0,1,1-1.38-1.385A1.382,1.382,0,0,1,79.91,181.276Zm-3.586,0a1.383,1.383,0,0,1-1.38,1.385H68.966a1.385,1.385,0,0,1,0-2.771h5.977A1.384,1.384,0,0,1,76.324,181.276Zm5.792-1.385a1.385,1.385,0,1,1-1.38,1.385A1.384,1.384,0,0,1,82.115,179.891Zm-8.553,6.927a1.383,1.383,0,0,1,1.38-1.385H80.92a1.385,1.385,0,0,1,0,2.771H74.943A1.383,1.383,0,0,1,73.563,186.818Z" transform="translate(-64 -163)" fill="#fff" fill-rule="evenodd"/></svg>