<svg xmlns="http://www.w3.org/2000/svg" width="48" height="48" viewBox="0 0 48 48"><rect width="48" height="48" transform="translate(0)" fill="none"/><path d="M177.452,91.552V69.569h7.983V91.6c0,9.931-4.833,13.4-12.552,13.4a21.243,21.243,0,0,1-5.883-.828l.894-6.362a13.335,13.335,0,0,0,4.095.62C175.349,98.431,177.452,96.931,177.452,91.552Zm28.41-7.811C212.111,86.018,215,89.224,215,94.19c0,5.845-4.518,10.81-14.232,10.81a23.382,23.382,0,0,1-10.032-2.173l1.629-6.466a20.473,20.473,0,0,0,8.874,2.173c3.678,0,5.622-1.5,5.622-3.828,0-2.121-1.683-3.414-5.937-4.862-5.88-2.069-9.768-5.276-9.768-10.4C191.156,73.5,196.25,69,204.548,69a20.976,20.976,0,0,1,9.033,1.759L211.8,77.069a16.763,16.763,0,0,0-7.353-1.655c-3.465,0-5.145,1.6-5.145,3.362C199.3,81,201.239,81.983,205.862,83.741Z" transform="translate(-167 -62.891)" fill="#fff" fill-rule="evenodd"/></svg>