<svg xmlns="http://www.w3.org/2000/svg" width="48" height="48" viewBox="0 0 48 48"><rect width="48" height="48" fill="none"/><path d="M133.069,305.111a13.034,13.034,0,0,0,2.4.521c.007.108,0,.2.014.3l-.007-.134c-.007.425,0,.754,0,1.14A27.322,27.322,0,0,1,133.069,305.111Zm12.994-.48.562.012s-.007,0-.007.007h-.5Zm6.562-.991a2.115,2.115,0,0,1,1,.211,1.049,1.049,0,0,1,.646.922,13.028,13.028,0,0,1,.046,2.614,4.44,4.44,0,0,1-.259,1.159c-.115.278-.223.37-.264.389a5.344,5.344,0,0,1-2.8.29,9.668,9.668,0,0,1-1.632-.348l-.163-.05h-3.55l-.214.1s-1.044.5-2.45,1a15.064,15.064,0,0,1-4.426.984c-.348,0-.437-.055-.514-.127a1.2,1.2,0,0,1-.293-.626,21.429,21.429,0,0,1-.178-4.32l0-.074-.012-.065a1.626,1.626,0,0,1,.163-1.162.978.978,0,0,1,.679-.343,6.258,6.258,0,0,1,3.13.682l.017,0,4.106,1.858H147.3l.288-.233a27.442,27.442,0,0,1,2.6-1.762c.487-.293.967-.562,1.358-.756a6.266,6.266,0,0,1,.744-.314h0a2.262,2.262,0,0,1,.331-.034Zm-24.514-1.4a15.867,15.867,0,0,0,7.421,7.284,8.253,8.253,0,0,0,.18,1.13l.077.257H119.362l-1.157-2.863c.269-.185.684-.451,1.186-.761q1.865-1.134,3.756-2.222C125.449,303.738,127.162,302.776,128.11,302.241Zm26.222-.521c.552.314,1.428.816,2.5,1.471.768.473,1.543.96,2.09,1.361.24.173.413.312.54.42a33.353,33.353,0,0,1-.446,3.722c-.2,1.174-.3,1.711-.4,2.218h-4.152c.086-.038.173-.07.257-.11a2.726,2.726,0,0,0,1.26-1.454,6.393,6.393,0,0,0,.41-1.745,14.539,14.539,0,0,0-.053-3.074,3.316,3.316,0,0,0-1.752-2.53,2.919,2.919,0,0,0-.384-.156C154.256,301.8,154.287,301.761,154.333,301.72Zm-11.628-5.7-2.021.564a4.13,4.13,0,0,0,2.345,2.621,8.332,8.332,0,0,0,3.235.631,17.7,17.7,0,0,0,4.051-.432l-.49-2.028a16.112,16.112,0,0,1-3.516.374,6.562,6.562,0,0,1-2.422-.449,1.85,1.85,0,0,1-1.183-1.282Zm11.815-3.538a6.2,6.2,0,0,1-3.5,1.738l.2,2.078a7.913,7.913,0,0,0,4.874-2.436ZM143.4,292.36l-1.318,1.625a11.287,11.287,0,0,0,8.148,2.306l-.319-2.064a9.129,9.129,0,0,1-6.514-1.867Zm-19.109-6.269a4.575,4.575,0,0,0-1.428,4.142l2.062-.384a2.052,2.052,0,0,1,.667-2.117Zm25.778-6.518-2.093.067a10.761,10.761,0,0,0,3.485,7,11.911,11.911,0,0,1,2.239,2.4.164.164,0,0,0,.031.048c0-.017-.014.031-.173.175a10.2,10.2,0,0,1-2.441,1.186,10.64,10.64,0,0,1-3.113.636c-.257-.007-.238-.038-.209-.017a.383.383,0,0,1,0-.053,2.318,2.318,0,0,1,.1-.578l-1.932-.79a3.325,3.325,0,0,0-.264,1.471,2.117,2.117,0,0,0,.554,1.375,2.4,2.4,0,0,0,1.694.679,11.59,11.59,0,0,0,3.852-.751,9.455,9.455,0,0,0,3.158-1.6,2.6,2.6,0,0,0,.79-1.126,2.229,2.229,0,0,0-.146-1.546,11.065,11.065,0,0,0-2.734-3.053,8.462,8.462,0,0,1-2.8-5.522Zm-6.343-1.356-1.97.694s.319.917.727,1.968a24.576,24.576,0,0,0,1.08,2.438,5.022,5.022,0,0,1-2.5-.492l-.833,1.915a6.766,6.766,0,0,0,3.934.66,2.1,2.1,0,0,0,1.426-.857,1.8,1.8,0,0,0-.014-1.817,25.759,25.759,0,0,1-1.135-2.6C144.042,279.11,143.727,278.217,143.727,278.217ZM129.7,274.5a1.774,1.774,0,0,1,.492,1.781c-.122.658-.7,1.9-1.178,3.257a6.6,6.6,0,0,0-.343,4.471,4.009,4.009,0,0,1,.31,1.289l-.122.062a5.431,5.431,0,0,0-.554-1.615,3.49,3.49,0,0,0-2.242-1.706,4.473,4.473,0,0,0-2.479.269c-.617-3.058-.139-4.762.413-5.7a3.292,3.292,0,0,1,.866-1.008l.029.07A29.058,29.058,0,0,1,129.7,274.5Zm10.181-.317a5.666,5.666,0,0,0-4.092,1.625,5.761,5.761,0,0,0-1.4,2.542l2.052.432a3.533,3.533,0,0,1,.864-1.524c.682-.71,1.754-1.363,4.154-.809l.475-2.03A8.41,8.41,0,0,0,139.882,274.182Zm-5.875-6.134a14.483,14.483,0,0,0-1.67,1.416,15.161,15.161,0,0,0-2.225,2.839l-.031,0a22.628,22.628,0,0,0-3.672.706,7.487,7.487,0,0,1,3.4-3.4A17.074,17.074,0,0,1,134.007,268.048Zm9.434-.946a15.02,15.02,0,0,1,9.422,3.089,12.374,12.374,0,0,1,3.386,4.546,6.194,6.194,0,0,0-1.147-.329,8.044,8.044,0,0,0-1.2-.127,9,9,0,0,0-1.942.13l.408,2.045a7.235,7.235,0,0,1,2.357.007,2.952,2.952,0,0,1,2.707,2.354l.036-.007c.12.619.214,1.277.288,1.966-.161-.288-.312-.564-.485-.869-.535-.95-1.058-1.862-1.058-1.862l-1.817,1.044s.521.9,1.051,1.841c.238.42.468.83.66,1.181a9.417,9.417,0,0,1-2.606-.374l-.581,2.006a11.175,11.175,0,0,0,3.259.456,3.4,3.4,0,0,0,1.428-.283,1.7,1.7,0,0,0,.331-.2,29.377,29.377,0,0,1-2,11.69,17.636,17.636,0,0,1-2.124,3.934l-.07-.048a8.191,8.191,0,0,1-6.821,3.276c-4.922,0-9.331-2.345-10.752-3.85a7.639,7.639,0,0,1-1.824-3.61l-2.069.31a9.621,9.621,0,0,0,2.364,4.738,12.2,12.2,0,0,0,2.875,2.117,2.927,2.927,0,0,0-1.488,1.037,2.313,2.313,0,0,0-.151.269,8.548,8.548,0,0,1-4.954-1.711,4.783,4.783,0,0,1-1.31-1.411l-.142-.233a19.958,19.958,0,0,1-2.066-5.544,5.8,5.8,0,0,0,1.608-2.076l-1.874-.938a4.386,4.386,0,0,1-.83,1.214l-.326.058a2.623,2.623,0,0,1-.984-.065,4.574,4.574,0,0,1-2.441-1.452,4.722,4.722,0,0,1-1.058-3.706,3.8,3.8,0,0,1,1.812-3l.043-.014a3.424,3.424,0,0,1,2.256-.622,1.283,1.283,0,0,1,.874.718,5.732,5.732,0,0,1,.545,2.136l.022,1.663,4.188-2.088-.022-.667a9.8,9.8,0,0,0-.576-2.52,4.968,4.968,0,0,1,.338-3.084,26.207,26.207,0,0,0,1.27-3.559,4.213,4.213,0,0,0-.545-2.978,12.713,12.713,0,0,1,2.11-2.762A13.394,13.394,0,0,1,143.442,267.1Zm-.7-2.1c-6.43.041-10.918,1.1-13.946,2.791a8.857,8.857,0,0,0-4.644,5.863,4.532,4.532,0,0,0-1.954,1.894c-.9,1.529-1.3,4.1-.43,7.879a5.952,5.952,0,0,0-2.335,4.037,6.657,6.657,0,0,0,1.606,5.378,6.808,6.808,0,0,0,3.53,2.071,2.318,2.318,0,0,0,.768.029,22.088,22.088,0,0,0,1.944,5.371c-.8.454-2.765,1.55-5.182,2.95-1.392.8-2.765,1.613-3.8,2.254-.526.322-.958.6-1.284.828a4.01,4.01,0,0,0-.43.312,1.706,1.706,0,0,0-.2.2.764.764,0,0,0-.293.634l-.084.706L117.956,313h42.4l.163-.845s.29-1.462.564-3.118a23.5,23.5,0,0,0,.5-4.457,1.111,1.111,0,0,0-.29-.718,2.306,2.306,0,0,0-.329-.355,7.933,7.933,0,0,0-.821-.65q-1.087-.76-2.22-1.447c-1.08-.658-1.572-.924-2.148-1.255a19.318,19.318,0,0,0,2.1-3.97,32.558,32.558,0,0,0,2.064-14.621c-.439-6.115-2.578-10.349-5.748-12.979a16.971,16.971,0,0,0-10.414-3.562V265c-.12,0-.228.017-.343.017C143.209,265.012,142.971,265,142.738,265Z" transform="translate(-115 -265)" fill="#fff" fill-rule="evenodd"/></svg>