<svg xmlns="http://www.w3.org/2000/svg" width="48" height="48" viewBox="0 0 48 48"><rect width="48" height="48" fill="none"/><path d="M-1210.05,109.917c-9.085,8.121-10.786,20.616-.719,29.177C-1210.769,139.094-1209.114,139.785-1210.05,109.917Z" transform="translate(1233.347 -102.606)" fill="#fff"/><path d="M-1105.7,111.7s.835,12.507.737,17.917-.679,8.544-.611,8.932.635,1.851.89,1.91,6.862-3.6,6.574-13.442A21.087,21.087,0,0,0-1105.7,111.7Z" transform="translate(1129.461 -104.259)" fill="#fff"/><path d="M-1112.244,496.155a12.889,12.889,0,0,1-.792-1.485l-.028-.059.01.021a4.759,4.759,0,0,0-.334,2.11,18.144,18.144,0,0,1,.3,2.832c-.017.452.586.433.734.453a16.7,16.7,0,0,0,.024-2.911C-1112.351,496.816-1112,496.468-1112.244,496.155Z" transform="translate(1136.626 -458.937)" fill="#fff"/><path d="M-1364.941,16.219a5.245,5.245,0,0,0-3.005-3.792A42.445,42.445,0,0,0-1385.4,8.5h-.068a41.932,41.932,0,0,0-17.349,3.946,5.256,5.256,0,0,0-2.964,3.71,43.532,43.532,0,0,0-.825,13.268,30.448,30.448,0,0,0,3.294,11.064,31.707,31.707,0,0,0,7,8.834,46.52,46.52,0,0,0,10.134,6.737l.821.412.821-.411a52.89,52.89,0,0,0,9.288-5.757,30,30,0,0,0,7.206-8.027C-1363.913,35.441-1362.9,26.918-1364.941,16.219Zm-20.409,36.149c-14.666-7.681-20.178-19.294-16.847-35.473a1.582,1.582,0,0,1,.894-1.115,37.164,37.164,0,0,1,31.854-.012,1.58,1.58,0,0,1,.91,1.138C-1364.5,38.086-1374.094,46.567-1385.35,52.367Z" transform="translate(1408.945 -8.472)" fill="#fff"/></svg>