<?xml version="1.0" encoding="utf-8"?>
<!-- Generator: Adobe Illustrator 25.0.1, SVG Export Plug-In . SVG Version: 6.00 Build 0)  -->
<svg version="1.1" id="Layer_1" xmlns="http://www.w3.org/2000/svg" xmlns:xlink="http://www.w3.org/1999/xlink" x="0px" y="0px"
	 viewBox="0 0 48 48" style="enable-background:new 0 0 48 48;" xml:space="preserve">
<style type="text/css">
	.st0{fill:#FFFFFF;}
	.st1{fill-rule:evenodd;clip-rule:evenodd;fill:#FFFFFF;}
	.st2{fill-rule:evenodd;clip-rule:evenodd;fill:url(#XMLID_2_);}
	.st3{clip-path:url(#SVGID_2_);}
	.st4{fill:none;}
	.st5{opacity:0.66;fill:#4B4B4B;enable-background:new    ;}
	.st6{clip-path:url(#SVGID_4_);}
	.st7{fill:url(#SVGID_5_);}
</style>
<g>
	<g>
		<path class="st0" d="M23.65,38.33c-0.16,0-0.32-0.04-0.45-0.12l-1.44-0.86c-0.22-0.12-0.11-0.16-0.04-0.19
			c0.29-0.1,0.35-0.12,0.65-0.3c0.03-0.02,0.07-0.01,0.11,0.01l1.1,0.66c0.04,0.02,0.1,0.02,0.13,0l4.3-2.49
			c0.04-0.02,0.07-0.07,0.07-0.12v-4.99c0-0.05-0.03-0.09-0.07-0.12l-4.3-2.49c-0.04-0.02-0.09-0.02-0.13,0l-4.3,2.49
			c-0.04,0.02-0.07,0.07-0.07,0.12v4.99c0,0.05,0.03,0.09,0.07,0.12l1.18,0.69c0.64,0.32,1.03-0.06,1.03-0.44v-4.93
			c0-0.07,0.06-0.12,0.13-0.12h0.55c0.07,0,0.13,0.06,0.13,0.12v4.93c0,0.86-0.47,1.35-1.27,1.35c-0.25,0-0.45,0-0.99-0.27
			l-1.13-0.65c-0.28-0.16-0.45-0.47-0.45-0.79v-4.99c0-0.33,0.17-0.63,0.45-0.79l4.3-2.49c0.27-0.16,0.64-0.16,0.9,0l4.3,2.49
			c0.28,0.16,0.46,0.47,0.46,0.79v4.99c0,0.33-0.17,0.63-0.46,0.79l-4.3,2.49C23.97,38.28,23.82,38.33,23.65,38.33z"/>
		<path class="st0" d="M24.98,34.89c-1.89,0-2.28-0.87-2.28-1.6c0-0.07,0.06-0.12,0.13-0.12h0.56c0.06,0,0.11,0.05,0.12,0.11
			c0.08,0.57,0.34,0.86,1.47,0.86c0.9,0,1.29-0.21,1.29-0.69c0-0.28-0.11-0.49-1.52-0.63c-1.18-0.12-1.91-0.38-1.91-1.33
			c0-0.87,0.74-1.4,1.96-1.4c1.38,0,2.07,0.48,2.15,1.52c0,0.04-0.01,0.07-0.03,0.1c-0.02,0.02-0.06,0.04-0.09,0.04h-0.56
			c-0.06,0-0.11-0.04-0.12-0.1c-0.13-0.6-0.46-0.79-1.34-0.79c-0.99,0-1.1,0.35-1.1,0.61c0,0.32,0.14,0.41,1.47,0.59
			c1.32,0.18,1.95,0.43,1.95,1.36C27.13,34.35,26.35,34.89,24.98,34.89z"/>
	</g>
	<g>
		<path class="st0" d="M31.2,29.66c0,0.46-0.38,0.84-0.84,0.84c-0.46,0-0.84-0.37-0.84-0.84c0-0.47,0.39-0.84,0.84-0.84
			C30.82,28.83,31.2,29.19,31.2,29.66z M29.67,29.66c0,0.39,0.31,0.7,0.7,0.7c0.39,0,0.7-0.32,0.7-0.7c0-0.39-0.32-0.7-0.7-0.7
			C29.99,28.96,29.67,29.27,29.67,29.66z M30.05,29.19h0.32c0.11,0,0.33,0,0.33,0.25c0,0.17-0.11,0.21-0.18,0.23
			c0.13,0.01,0.14,0.09,0.15,0.21c0.01,0.08,0.02,0.2,0.05,0.25h-0.2c0-0.04-0.04-0.28-0.04-0.3c-0.01-0.05-0.03-0.08-0.1-0.08
			h-0.16v0.38h-0.18L30.05,29.19L30.05,29.19z M30.23,29.61h0.15c0.12,0,0.14-0.08,0.14-0.13c0-0.13-0.09-0.13-0.14-0.13h-0.15
			V29.61z"/>
	</g>
	<path class="st1" d="M10.31,18.8c0-0.2-0.11-0.38-0.28-0.48l-4.57-2.63c-0.08-0.05-0.16-0.07-0.25-0.07c-0.01,0-0.04,0-0.05,0
		c-0.09,0-0.17,0.03-0.25,0.07l-4.57,2.63c-0.16,0.1-0.27,0.28-0.27,0.48l0.01,7.1c0,0.1,0.05,0.19,0.14,0.24s0.19,0.05,0.28,0
		l2.71-1.56c0.17-0.1,0.28-0.28,0.28-0.48v-3.32c0-0.2,0.11-0.38,0.28-0.48l1.15-0.67c0.09-0.05,0.18-0.07,0.28-0.07
		c0.09,0,0.19,0.02,0.28,0.07l1.15,0.67c0.17,0.1,0.28,0.28,0.28,0.48v3.32c0,0.2,0.11,0.38,0.28,0.48l2.71,1.56
		c0.09,0.05,0.19,0.05,0.28,0c0.08-0.05,0.14-0.14,0.14-0.24L10.31,18.8z"/>
	<path class="st1" d="M32.29,9.04c-0.09-0.05-0.19-0.05-0.28,0c-0.08,0.06-0.13,0.15-0.13,0.25v7.03c0,0.07-0.04,0.13-0.1,0.17
		c-0.06,0.03-0.13,0.03-0.19,0l-1.14-0.66c-0.17-0.1-0.38-0.1-0.55,0l-4.57,2.64c-0.17,0.1-0.28,0.28-0.28,0.48v5.3
		c0,0.2,0.11,0.38,0.28,0.48l4.57,2.65c0.17,0.1,0.38,0.1,0.56,0l4.57-2.65c0.17-0.1,0.28-0.28,0.28-0.48v-13.2
		c0-0.2-0.11-0.39-0.28-0.48L32.29,9.04z M31.87,22.5c0,0.05-0.03,0.1-0.07,0.12l-1.57,0.91c-0.04,0.02-0.1,0.02-0.14,0l-1.57-0.91
		c-0.04-0.02-0.07-0.07-0.07-0.12v-1.82c0-0.05,0.03-0.1,0.07-0.12l1.57-0.91c0.04-0.02,0.1-0.02,0.14,0l1.57,0.91
		c0.04,0.02,0.07,0.07,0.07,0.12V22.5z"/>
	<g>
		<path class="st1" d="M47.51,20.64c0.17-0.1,0.28-0.28,0.28-0.48v-1.29c0-0.2-0.11-0.38-0.28-0.48l-4.54-2.64
			c-0.17-0.1-0.38-0.1-0.56,0l-4.56,2.65c-0.17,0.1-0.28,0.28-0.28,0.48v5.3c0,0.2,0.11,0.38,0.28,0.48l4.54,2.59
			c0.17,0.1,0.37,0.1,0.54,0l2.74-1.54c0.09-0.05,0.14-0.14,0.14-0.24c0-0.1-0.05-0.19-0.14-0.24l-4.6-2.64
			c-0.09-0.05-0.14-0.14-0.14-0.24V20.7c0-0.1,0.05-0.19,0.14-0.24l1.43-0.83c0.09-0.05,0.19-0.05,0.28,0l1.43,0.83
			c0.09,0.05,0.14,0.14,0.14,0.24v1.31c0,0.1,0.05,0.19,0.14,0.24c0.09,0.05,0.19,0.05,0.28,0L47.51,20.64z"/>
		<path class="st1" d="M42.63,20.39c0.03-0.02,0.07-0.02,0.11,0l0.87,0.51c0.03,0.02,0.05,0.05,0.05,0.09v1.02
			c0,0.04-0.02,0.07-0.05,0.09l-0.87,0.51c-0.03,0.02-0.07,0.02-0.11,0l-0.87-0.51c-0.03-0.02-0.05-0.05-0.05-0.09v-1.02
			c0-0.04,0.02-0.07,0.05-0.09L42.63,20.39z"/>
	</g>
	<g>
		
			<linearGradient id="XMLID_2_" gradientUnits="userSpaceOnUse" x1="12.5666" y1="20.4584" x2="22.7358" y2="20.4584" gradientTransform="matrix(1 0 0 -1 0 42)">
			<stop  offset="5.301339e-03" style="stop-color:#FFFFFF"/>
			<stop  offset="0.1938" style="stop-color:#E8E8E8"/>
			<stop  offset="0.5423" style="stop-color:#C2C2C2"/>
			<stop  offset="0.8235" style="stop-color:#ABABAB"/>
			<stop  offset="1" style="stop-color:#A3A3A3"/>
		</linearGradient>
		<path id="XMLID_67_" class="st2" d="M17.38,15.81c0.17-0.1,0.38-0.1,0.55,0l4.53,2.62c0.17,0.1,0.28,0.28,0.28,0.48v5.26
			c0,0.2-0.1,0.38-0.28,0.48l-4.53,2.62c-0.17,0.1-0.38,0.1-0.55,0l-4.53-2.62c-0.17-0.1-0.28-0.28-0.28-0.48v-5.26
			c0-0.2,0.1-0.38,0.28-0.48L17.38,15.81z"/>
		<g>
			<g>
				<defs>
					<path id="SVGID_1_" d="M17.92,15.81c-0.17-0.1-0.38-0.1-0.55,0l-4.53,2.62c-0.17,0.1-0.28,0.28-0.28,0.48v5.26
						c0,0.2,0.1,0.38,0.28,0.48l4.53,2.62c0.17,0.1,0.38,0.1,0.55,0l4.53-2.62c0.17-0.1,0.28-0.28,0.28-0.48v-5.26
						c0-0.2-0.1-0.38-0.28-0.48L17.92,15.81z"/>
				</defs>
				<clipPath id="SVGID_2_">
					<use xlink:href="#SVGID_1_"  style="overflow:visible;"/>
				</clipPath>
				<g class="st3">
					<path class="st4" d="M17.37,15.81l-4.53,2.62c-0.17,0.1-0.29,0.28-0.29,0.48v5.26c0,0.13,0.05,0.25,0.13,0.35l5.1-8.76
						C17.65,15.72,17.5,15.74,17.37,15.81z"/>
					<path class="st4" d="M17.81,27.31c0.04-0.01,0.07-0.03,0.11-0.05l4.52-2.62c0.17-0.1,0.25-0.28,0.25-0.48V18.9
						c0-0.13-0.04-0.26-0.12-0.35L17.81,27.31z"/>
					<path class="st5" d="M22.44,18.43l-4.51-2.62c-0.05-0.03-0.09-0.04-0.14-0.06l-5.1,8.76c0.04,0.05,0.1,0.1,0.15,0.13l4.54,2.62
						c0.14,0.08,0.29,0.09,0.44,0.05l4.76-8.76C22.54,18.5,22.49,18.46,22.44,18.43z"/>
				</g>
			</g>
			<g>
				<defs>
					<path id="SVGID_3_" d="M17.92,15.81c-0.17-0.1-0.38-0.1-0.55,0l-4.53,2.62c-0.17,0.1-0.28,0.28-0.28,0.48v5.26
						c0,0.2,0.1,0.38,0.28,0.48l4.53,2.62c0.17,0.1,0.38,0.1,0.55,0l4.53-2.62c0.17-0.1,0.28-0.28,0.28-0.48v-5.26
						c0-0.2-0.1-0.38-0.28-0.48L17.92,15.81z"/>
				</defs>
				<clipPath id="SVGID_4_">
					<use xlink:href="#SVGID_3_"  style="overflow:visible;"/>
				</clipPath>
				<g class="st6">
					<path class="st4" d="M12.88,18.4l-0.05,0.03c-0.17,0.1-0.29,0.28-0.29,0.48v5.26c0,0.2,0.11,0.38,0.28,0.48l4.54,2.62
						c0.12,0.07,0.26,0.09,0.4,0.06L12.88,18.4z"/>
					<path class="st4" d="M22.69,18.91c0-0.2-0.08-0.38-0.26-0.48l-4.51-2.62c-0.04-0.02-0.08-0.04-0.13-0.05l4.89,8.39L22.69,18.91
						L22.69,18.91z"/>
					
						<linearGradient id="SVGID_5_" gradientUnits="userSpaceOnUse" x1="12.5012" y1="20.4686" x2="22.9829" y2="20.4686" gradientTransform="matrix(1 0 0 -1 0 42)">
						<stop  offset="0" style="stop-color:#A3A3A3"/>
						<stop  offset="0.1765" style="stop-color:#ABABAB"/>
						<stop  offset="0.4577" style="stop-color:#C2C2C2"/>
						<stop  offset="0.8062" style="stop-color:#E8E8E8"/>
						<stop  offset="0.9947" style="stop-color:#FFFFFF"/>
					</linearGradient>
					<path class="st7" d="M17.91,27.27l4.52-2.62c0.17-0.1,0.25-0.28,0.25-0.48v-0.02l-4.89-8.39c-0.14-0.04-0.3-0.02-0.43,0.05
						l-4.48,2.59l4.88,8.92C17.82,27.31,17.86,27.29,17.91,27.27z"/>
				</g>
			</g>
		</g>
	</g>
</g>
</svg>
