<svg xmlns="http://www.w3.org/2000/svg" width="48" height="48.001" viewBox="0 0 48 48.001"><path d="M-5,96H-45a4,4,0,0,1-4-4V52a4,4,0,0,1,4-4H-5a4.005,4.005,0,0,1,4,4V92A4.005,4.005,0,0,1-5,96ZM-26.415,68.941a.6.6,0,0,0-.514.283l-3.353,5.542h1.109l1.012-1.675H-26l.568-.952h-2.162l1.177-1.918h0l2.757,4.545h1.108l-3.381-5.557A.547.547,0,0,0-26.415,68.941Zm11.042,0v5.83h4.3l.581-.953h-3.963V68.936Zm-21.534,0v5.832h1.025v-4.88h3.638a.73.73,0,0,1,.519.218.789.789,0,0,1,.229.563.77.77,0,0,1-.749.781h-2.917l3.29,3.311h1.324L-32.9,72.4l.658,0a1.7,1.7,0,0,0,1.632-1.761,1.689,1.689,0,0,0-1.632-1.7Zm33.409,0-4.441,0A2.663,2.663,0,0,0-10.5,71.851a2.663,2.663,0,0,0,2.561,2.912l3.756,0,.589-.945H-7.911a1.631,1.631,0,0,1-1.607-1.5h4.844l.581-.953H-9.518a1.634,1.634,0,0,1,1.607-1.473h3.846Zm-12.555,0-4.441,0a2.663,2.663,0,0,0-2.561,2.913,2.663,2.663,0,0,0,2.561,2.912l3.757,0,.588-.945h-4.316a1.748,1.748,0,0,1-1.651-1.964,1.748,1.748,0,0,1,1.651-1.965h3.846Zm-27.886,0A2.663,2.663,0,0,0-46.5,71.851a2.663,2.663,0,0,0,2.561,2.912h3.964a2.663,2.663,0,0,0,2.561-2.912,2.663,2.663,0,0,0-2.561-2.913Zm3.964,4.877H-43.94a1.748,1.748,0,0,1-1.651-1.964,1.748,1.748,0,0,1,1.651-1.965h3.964a1.748,1.748,0,0,1,1.651,1.965A1.748,1.748,0,0,1-39.976,73.815Z" transform="translate(49 -48)" fill="#fff"/></svg>