<svg xmlns="http://www.w3.org/2000/svg" width="48" height="48" viewBox="0 0 48 48"><rect width="48" height="48" fill="none"/><path d="M193.255,396.1l-.006-.025a.036.036,0,0,1-.006.008l.006-.008a.039.039,0,0,0-.017,0,.062.062,0,0,1,0,.019.082.082,0,0,0,.019.01m.052.029-.056-.031a.093.093,0,0,0,.013.033c0,.006.027,0,.044,0m13.667-10.255c0-.017,0-.033,0-.052l0,0,0,0a.116.116,0,0,0-.027,0l.017.013c0,.015.006.029.008.042M195.146,399.3c-1.271-2.406-3.406-2.951-5.873-2.788a6.493,6.493,0,0,1,2.035.966,9.94,9.94,0,0,1,1.534,1.43,4.114,4.114,0,0,0,3.391,1.44,2.9,2.9,0,0,1-1.087-1.048m14.394-11.174a3.784,3.784,0,0,0-5.18-.374,3.874,3.874,0,0,1,2.8,1.2,8.787,8.787,0,0,0,.808.77,3.457,3.457,0,0,0,4.03.108,4.9,4.9,0,0,1-2.461-1.707m-16.9-12.334a5.25,5.25,0,0,0,3.066-.737c-.309.027-.44.027-.566.052a4.523,4.523,0,0,1-3.917-.962c-.428-.342-.86-.676-1.292-1.012a8.833,8.833,0,0,0-5.821-1.741c.035.109.038.182.075.219,2.335,2.4,5.038,4.061,8.454,4.18m6.868,6.639a10.843,10.843,0,0,0-5.159,2.047,5.18,5.18,0,0,1-3.949.954c-.255-.046-.511-.079-.768-.119,0,.038-.006.073-.008.109a2.5,2.5,0,0,0,.278.144,5.242,5.242,0,0,0,.73.275,9.672,9.672,0,0,0,7.872-1.254,6.5,6.5,0,0,1,4.794-.929c.171.025.342.056.516.073s.328.177.545,0a6.836,6.836,0,0,0-4.85-1.3m5.983,3.249q.726.063,1.453.129a4.862,4.862,0,0,0-3.775-.977c-2.054.117-3.533,1.323-4.881,2.763-1.187,1.269-2.262,2.692-4.034,3.2.029.054.038.081.046.081.238,0,.476.015.714,0,2.575-.119,5-.672,6.933-2.573.607-.6,1.152-1.265,1.738-1.887a2.147,2.147,0,0,1,1.807-.743m-18.513-10.731c-.071-.052-.14-.184-.286-.048a10.528,10.528,0,0,0,4.566,3.613,12.33,12.33,0,0,0,9.087.355c2.4-.841,4.124-.019,5.019,2.352a4.651,4.651,0,0,0-3.992-5.148,9.241,9.241,0,0,0-4.076.653,11.167,11.167,0,0,1-10.318-1.776m6.248,21.11c-.058-.434-.424-.626-.712-.854a6.928,6.928,0,0,0-4.328-1.392,8.076,8.076,0,0,1-2.757-.424c-.4-.154-.86-.351-.849-.885s.474-.695.9-.824c.344-.1.7-.171,1.1-.265a3.208,3.208,0,0,0-3.274-.209,8.118,8.118,0,0,1-6.1-.013,23.739,23.739,0,0,1-3.237-1.674l-.029.021a.167.167,0,0,0,.027-.021c-.025-.081-.073-.083-.134-.038.027.025.054.05.083.075a12.94,12.94,0,0,0,3.418,3.667c2.594,1.947,5.426,3.11,8.74,2.594,1.069-.167,2.147-.3,3.226-.384a11.5,11.5,0,0,1,3.934.624M171.35,369.68a1.732,1.732,0,0,1-1.751-.67,12.6,12.6,0,0,1,2.663-.367,1.135,1.135,0,0,1-.912,1.037m10.675,20.609c-.211-.04-.294-.054-.378-.069a6.388,6.388,0,0,1-5.174-4.752,2.082,2.082,0,0,1,2.074-2.884,3.905,3.905,0,0,1,3.124,1.661c1.064,1.2,2.039,2.475,3.085,3.692,1.507,1.749,3.279,2.876,5.706,2.527a10.724,10.724,0,0,0,5.722-2.663c.248-.219.52-.411.781-.616-.054-.067-.109-.131-.165-.2a13.249,13.249,0,0,1-10.368-1.286,8.235,8.235,0,0,1-3.548-4.6,1.816,1.816,0,0,1,2.143-2.5,3.249,3.249,0,0,1,1.684.81c.4.342.781.705,1.187,1.039a5.632,5.632,0,0,0,7.016-.048c-3.992-.019-6.71-2.254-9.095-5.088-.935-1.108-1.847-2.237-2.8-3.329-1.843-2.112-3.89-3.971-6.691-4.606a15.723,15.723,0,0,0-10.351,1.265A8.415,8.415,0,0,0,164,369.886c.338,0,.522,0,.705,0a4.214,4.214,0,0,1,3.83,2.1,9.411,9.411,0,0,1,1.2,3.337c.351,1.751.169,3.533.371,5.29.52,4.518,2.788,7.672,7.012,9.285a8.174,8.174,0,0,0,4.9.386" transform="translate(-164 -360)" fill="#fff" fill-rule="evenodd"/></svg>