<svg width="48" height="48" viewBox="0 0 48 48" fill="none" xmlns="http://www.w3.org/2000/svg">
<path fill-rule="evenodd" clip-rule="evenodd" d="M1.08993 5.46009C0 7.59921 0 10.3995 0 16V32C0 37.6005 0 40.4008 1.08993 42.5399C2.04867 44.4215 3.57847 45.9513 5.46009 46.9101C7.59921 48 10.3995 48 16 48H32C37.6005 48 40.4008 48 42.5399 46.9101C44.4215 45.9513 45.9513 44.4215 46.9101 42.5399C48 40.4008 48 37.6005 48 32V16C48 10.3995 48 7.59921 46.9101 5.46009C45.9513 3.57847 44.4215 2.04867 42.5399 1.08993C40.4008 0 37.6005 0 32 0H16C10.3995 0 7.59921 0 5.46009 1.08993C3.57847 2.04867 2.04867 3.57847 1.08993 5.46009ZM10.6239 12.0857C10.4311 12.0857 10.0884 12.1714 10.0884 12.3427L10.0027 35.477C9.99723 35.512 10.0001 35.5478 10.0111 35.5815C10.022 35.6152 10.0408 35.6458 10.0659 35.6708C10.0909 35.6959 10.1216 35.7147 10.1553 35.7257C10.1889 35.7366 10.2248 35.7395 10.2598 35.734H13.6442C13.6792 35.7395 13.715 35.7366 13.7487 35.7257C13.7824 35.7147 13.813 35.6959 13.8381 35.6708C13.8632 35.6458 13.8819 35.6152 13.8929 35.5815C13.9039 35.5478 13.9068 35.512 13.9013 35.477V27.2515H15.5078C20.3917 27.2515 24.3331 24.938 24.3331 19.4544C24.3331 15.2559 21.9982 12 16.1076 12C14.0512 12 11.9948 12 10.6239 12.0857ZM15.5506 23.7385H13.837V15.4273C14.5192 15.3458 15.2067 15.3172 15.8934 15.3416C18.7209 15.3416 20.4345 16.7125 20.4345 19.4544C20.4345 22.8817 18.0569 23.7385 15.5506 23.7385ZM30.031 22.7103C30.031 22.0248 30.5451 21.168 32.2587 21.168H32.2801C33.5542 21.189 34.804 21.5199 35.9216 22.1319C36.1787 22.2176 36.2643 22.1319 36.2643 21.9606V19.0474C36.2835 19.0083 36.2943 18.9657 36.296 18.9222C36.2976 18.8788 36.2901 18.8354 36.274 18.795C36.2578 18.7547 36.2334 18.7181 36.2022 18.6878C36.171 18.6574 36.1338 18.634 36.093 18.619C34.8591 18.1699 33.5493 17.9662 32.2373 18.0192C28.4887 18.0192 26.3466 20.3326 26.3466 23.0744C26.3466 25.5592 27.6319 27.0158 30.6307 28.4724C32.7728 29.5863 33.3083 30.2718 33.3083 31.0429C33.3083 31.964 32.6229 32.6494 30.9092 32.6494C29.3848 32.6592 27.8924 32.2115 26.6251 31.3642C26.4537 31.2785 26.368 31.3642 26.368 31.5356V34.7058C26.368 34.8772 26.368 34.9629 26.5394 35.0485C27.9207 35.7351 29.4539 36.0594 30.9949 35.9911C34.5935 35.9911 37.164 34.106 37.164 30.6787C37.164 28.3653 36.0501 26.8016 32.7085 25.1951C30.4594 23.9955 30.031 23.3958 30.031 22.7103Z" fill="white"/>
</svg>
