<svg xmlns="http://www.w3.org/2000/svg" width="48" height="48" viewBox="0 0 48 48"><rect width="48" height="48" fill="none"/><path d="M28.9,242.926c.148.154.3.3.464.446-.807.871-2.335,2.558-3.966,4.534-1.16,1.406-1.943,1.142-2.2,1.056-.85-.286-1.8-1.366-2.763-3.122a39.3,39.3,0,0,1-2.84-7.207,68.292,68.292,0,0,1-2.565-11.868c-.228-4.6.874-7.8,3.275-9.521a9.767,9.767,0,0,1,5.717-1.548,24.4,24.4,0,0,1,7.114,1.236,12.709,12.709,0,0,0-2.481,3.72,18.948,18.948,0,0,0-1.243,3.926,22.527,22.527,0,0,0-.478,4.692c0,.175.014.42.033.758v.014a30.963,30.963,0,0,1-.155,6.209A8.014,8.014,0,0,0,28.9,242.926Zm28.041,3.137a17.322,17.322,0,0,0,3.239-.358,8.737,8.737,0,0,1-1.84,1.133,10.782,10.782,0,0,1-3.665.768,4.968,4.968,0,0,1-2.384-.278c-.068-1.651.518-1.817,1.2-2.009.09-.026.182-.053.273-.082.056.043.115.086.176.127A5.435,5.435,0,0,0,56.94,246.063Zm-4.168-2.316a2.981,2.981,0,0,0-1.4.847,3.92,3.92,0,0,0-.772,2.87c-.114,1.44-.911,8.121-1.313,10.469a5.922,5.922,0,0,1-1.413,3.35,6.281,6.281,0,0,1-3.315,1.534l-.081.017a4.246,4.246,0,0,1-3.519-.454,5.361,5.361,0,0,1-1.65-2.434c-.5-1.25-.74-6.922-.565-13.193a.859.859,0,0,0-.034-.264,3.352,3.352,0,0,0-.095-.451,3.165,3.165,0,0,0-1.708-2.059,2.489,2.489,0,0,0-1.425-.223c.145-.547.373-1.164.613-1.812l.112-.3c.124-.334.279-.682.443-1.051l.006-.012c.909-2.035,2.154-4.822.8-11.109a4.091,4.091,0,0,0-1.639-2.65,4.676,4.676,0,0,0-3.2-.65,10.917,10.917,0,0,0-3.654,1.147c-.087.043-.173.089-.259.134.217-2.4.98-6.626,3.634-9.324a8.892,8.892,0,0,1,6.772-2.549,14.364,14.364,0,0,1,11.009,5.3,17,17,0,0,1,2.965,5.064c-2.757-.257-4.646.322-5.615,1.718-2.138,3.077,1.136,8.99,2.709,11.832.273.492.53.958.607,1.145a10.546,10.546,0,0,0,1.664,2.7C52.565,243.478,52.677,243.62,52.772,243.747Zm-1.089-14.453a.963.963,0,0,0,.324-.662c-.052-.377-.716-.482-1.346-.4s-1.24.374-1.189.751a1.279,1.279,0,0,0,1.188.794,1.2,1.2,0,0,0,.159-.012A1.537,1.537,0,0,0,51.683,229.294Zm1.4.422a20,20,0,0,0-.269,2.522,19.259,19.259,0,0,0,.2,2.851l.1-.01-.1.012a10.383,10.383,0,0,1-.352,5.534q-.165-.313-.3-.641c-.114-.278-.357-.718-.694-1.325a39.684,39.684,0,0,1-2.467-5.09c-.873-2.335-.985-3.994-.333-4.932.355-.511,1.164-1.051,3-1.051a12.561,12.561,0,0,1,1.438.091A16.065,16.065,0,0,1,53.082,229.717Zm-20.658-.6a.933.933,0,0,0,.223.607,1.693,1.693,0,0,0,1.072.674,1.395,1.395,0,0,0,1.488-.89c.066-.48-.625-.8-1.3-.893v0a1.873,1.873,0,0,0-1.291.187A.471.471,0,0,0,32.423,229.119Zm-2.3,12.624-.027-.029a6.305,6.305,0,0,1-1.605-5.227,32.567,32.567,0,0,0,.168-6.547l0-.029c-.009-.149-.017-.281-.022-.391a8.775,8.775,0,0,1,2.193-1.164,6.084,6.084,0,0,1,3.285-.432,2.2,2.2,0,0,1,1.686,1.906c1.231,5.738.164,8.129-.693,10.049-.178.4-.347.775-.492,1.169l-.111.3,0,0a20.666,20.666,0,0,0-.689,2.071A5.224,5.224,0,0,1,30.124,241.743ZM49.8,215a12.551,12.551,0,0,1,10.149,4.833c.917,1.181.857,4.5-.156,8.671a46.361,46.361,0,0,1-2.266,6.811,48.953,48.953,0,0,1-3.654,7.073c-.032-.041-.064-.082-.1-.12l-.033-.043c1.518-2.57,1.215-5.1.948-7.341a17.638,17.638,0,0,1-.187-2.594,18.476,18.476,0,0,1,.25-2.316,15.07,15.07,0,0,0,.236-2.887,1.336,1.336,0,0,0,.024-.427,16.336,16.336,0,0,0-3.687-7,16.523,16.523,0,0,0-5.583-4.31A19.017,19.017,0,0,1,49.8,215ZM36.9,247.376c-1.884,2.657-4.633,2.621-6.608,2.122a3.387,3.387,0,0,1-.814-.322,5.991,5.991,0,0,1,.876-.242c2.752-.569,3.178-.974,4.112-2.17.208-.266.444-.566.773-.938l0,0c.446-.5.612-.432,1.015-.264a1.5,1.5,0,0,1,.726.95A1.045,1.045,0,0,1,36.9,247.376Z" transform="translate(-14 -215)" fill="#fff" fill-rule="evenodd"/></svg>