<svg xmlns="http://www.w3.org/2000/svg" width="48" height="48" viewBox="0 0 48 48"><rect width="48" height="48" fill="none"/><path d="M52.612,350.729a2.46,2.46,0,0,1-2.466,2.453H45.87a2.46,2.46,0,0,1-2.466-2.453v-4.258a2.46,2.46,0,0,1,2.466-2.453h4.276a2.46,2.46,0,0,1,2.466,2.453ZM59.719,334.2H44.562a1.375,1.375,0,0,1-1.378-1.37V317.11A2.113,2.113,0,0,0,41.067,315H35.656a2.113,2.113,0,0,0-2.118,2.11v15.624a1.477,1.477,0,0,1-1.473,1.474l-4.967.024a1.477,1.477,0,0,1-1.488-1.476l.031-15.643A2.112,2.112,0,0,0,23.524,315H18.118A2.113,2.113,0,0,0,16,317.11v44.018A1.876,1.876,0,0,0,17.88,363H59.719a1.876,1.876,0,0,0,1.881-1.872V336.072A1.876,1.876,0,0,0,59.719,334.2Z" transform="translate(-15 -315)" fill="#fff" fill-rule="evenodd"/></svg>