<svg xmlns="http://www.w3.org/2000/svg" width="48" height="48" viewBox="0 0 48 48"><rect width="48" height="48" fill="none"/><path d="M34.326,31.941c-2.074.923-3.767-9.785-1.133-9.23,4.141,2.214,3.391,7.384,1.133,9.23m-1.7,6.829c-2.45,3.324-5.65,3.324-6.775,2.4-1.324-1.111-.383-4.8,1.5-6.829,1.883-2.221,4.148-3.692,5.465-2.589a6.71,6.71,0,0,1-.191,7.016M21.33,27.694c-1.884-2.581-1.317-6.093.94-7.572s5.65-.548,7.349,2.221,1.317,6.086-.942,7.564c-2.265,1.291-5.649.369-7.347-2.214m3.39,7.016a5.23,5.23,0,0,1-5.458,4.983c-3.016,0-5.649-2.214-5.649-4.983a5.224,5.224,0,0,1,5.458-4.983c3.2,0,5.649,2.214,5.649,4.983M19.071,46.522c-2.825.188-5.458-2.213-5.458-2.949,0-1.11,3.384-2.033,5.649-2.033,2.259-.187,5.267.736,5.267,1.846,0,.735-2.825,3.136-5.458,3.136M9.465,30.095c-2.258-1.478-2.633-4.8-.942-7.572,1.883-2.581,5.091-3.691,7.349-2.213s2.634,4.8.941,7.571-5.082,3.692-7.348,2.214m2.449,11.257c-1.316.742-4.331.374-6.4-2.582C4.007,36.189,4.2,33.6,5.324,32.864c1.508-.923,3.958.368,5.649,2.4,1.508,1.658,2.258,4.982.941,6.086M3.258,32.121a5.728,5.728,0,0,1,1.124-9.23c2.45-.735.942,9.973-1.124,9.23m9.6-17.537c1.508.187-7.532,8.127-7.716,6.281-.191-4.435,3.383-7.016,7.716-6.281M7.583,12.37A.977.977,0,0,0,8.34,12a7.414,7.414,0,0,1-2.45-1.11,1.76,1.76,0,0,0,.942-.18,14.49,14.49,0,0,1-2.259-1.29,1.418,1.418,0,0,0,.942-.188c-.566-.368-1.133-.923-1.7-1.291h.942A13.406,13.406,0,0,1,3.258,6.1a1.234,1.234,0,0,0,1.124,0C4.2,5.728,3.258,5.541,2.875,4.619h.941a6.848,6.848,0,0,0-.75-1.659H5.324l-.566-.743A5.107,5.107,0,0,1,7.207,2.4c.376-.187,0-.555-.375-.742.751.187,1.508.374,2.074.555.376-.368-.191-.555-.566-.923a4.331,4.331,0,0,1,2.258.923c.375-.368,0-.555-.192-.923A8.166,8.166,0,0,1,12.29,2.4a.717.717,0,0,0,.191-.923A8.518,8.518,0,0,1,13.8,2.772c.375-.187.191-.555.191-.923A12.79,12.79,0,0,1,15.5,3.507c.183,0,.183-.367.183-.735,1.508,1.478,3.766,5.17.566,6.65A27.7,27.7,0,0,0,6.641,4.43c4.707,2.4,7.348,4.248,8.856,5.913-.759,2.949-4.709,3.137-6.216,2.949.375-.18.566-.368.566-.555-.191-.18-1.325,0-2.265-.368m11.488,1.111c2.259,0,5.082,1.659,5.082,3.323,0,1.473-2.066,2.582-5.082,2.582s-5.083-1.478-5.083-2.769,2.449-3.136,5.083-3.136M22.462,2.772c0,.369.183.556.183.735.567-.547.942-1.1,1.508-1.658,0,.368-.183.555.192.923a3.417,3.417,0,0,1,1.508-1.29c-.383.555,0,.735.184.923A8.308,8.308,0,0,1,27.92,1.293c-.183.369-.566.556-.183.923a6.655,6.655,0,0,1,2.257-.923c-.191.369-.757.556-.566.923.566-.18,1.317-.368,2.074-.555-.382.374-.757.555-.382.742a3.647,3.647,0,0,1,2.45-.187L33,2.772h2.266a4.669,4.669,0,0,0-.941,1.659h.941c-.383,1.111-1.132,1.3-1.324,1.666.192.18.566.18,1.133,0A6.407,6.407,0,0,1,33.57,7.755c.191.187.374.187.94,0-.566.556-1.125.923-1.691,1.478.183.188.566.188.942.188a9.168,9.168,0,0,1-2.259,1.29c.184.368.56.18.751.18a7.978,7.978,0,0,1-2.259.923.97.97,0,0,0,.751.375c-.942.548-2.259.18-2.634.548,0,.187.375.375.566.555-1.508,0-5.465,0-6.215-2.949C23.97,8.678,26.6,6.832,31.311,4.43A31.471,31.471,0,0,0,21.7,9.421c-3.008-1.479-.942-5.171.758-6.65m9.982,18.273c-.191,1.847-9.232-6.085-7.724-6.273,4.332-.735,7.908,1.659,7.724,6.273m2.441.744-.375-.556c0-4.428-2.066-6.093-4.332-7.384.758-.187,1.508-.368,1.7-1.291,1.317-.368,1.508-.923,1.693-1.478a2.141,2.141,0,0,0,1.315-1.846,1.484,1.484,0,0,0,.759-1.659c.566-.742.749-1.3.566-1.846A1.671,1.671,0,0,0,36.392,3.7c.567-1.111,0-2.214-1.508-2.033C34.326.738,32.819.926,32.628.926,32.444.558,32.062.371,31.12.558A2.364,2.364,0,0,0,28.677.371c-.94-.735-1.508-.18-2.074,0C25.47,0,25.287.558,24.72.738c-1.133-.18-1.508.375-2.075.923h-.558c-1.7.923-2.641,3.144-3.016,4.066a6.634,6.634,0,0,0-3.016-4.066H15.5c-.568-.548-.942-1.1-2.076-.923C12.855.558,12.672,0,11.539.371A2.8,2.8,0,0,0,10.223,0c-.191,0-.375.188-.758.369A1.706,1.706,0,0,0,7.4.558,1.463,1.463,0,0,0,5.89.926C5.7.926,4.2.738,3.632,1.662c-1.7-.18-2.258.923-1.7,2.033-.375.555-.559.923.191,2.033-.375.368-.191,1.1.566,1.659a1.579,1.579,0,0,0,.751,1.846c-.183.923.941,1.478,1.132,1.846.185.556.376,1.111,1.693,1.478.191.923.941,1.1,1.7,1.291-2.45,1.291-4.333,3.137-4.333,7.384l-.374.556A7.407,7.407,0,0,0,1.933,32.864a17.519,17.519,0,0,0,.942,3.324,8.065,8.065,0,0,0,5.09,6.461,15.472,15.472,0,0,0,4.891,2.769,8.33,8.33,0,0,0,12.056,0A15.483,15.483,0,0,0,29.8,42.65a8.046,8.046,0,0,0,5.082-6.461c.383-1.11.759-2.033,1.134-3.324a7.037,7.037,0,0,0-1.134-11.076" transform="translate(5)" fill="#fff" fill-rule="evenodd"/></svg>