<svg xmlns="http://www.w3.org/2000/svg" width="48" height="48" viewBox="0 0 48 48"><rect width="48" height="48" fill="none"/><path d="M52.277,91.526c-.263.086-.533.168-.809.249a45.936,45.936,0,0,0-2.428-5.94,46.761,46.761,0,0,0,2.337-5.861q.737.208,1.43.439a17.731,17.731,0,0,1,5.417,2.772,3.879,3.879,0,0,1,1.734,2.639c0,1.545-2.41,3.991-7.681,5.7M50.312,95.35c1.042,5.143.034,8.324-1.341,9.1-1.324.752-4.383.05-8.236-3.19q-.6-.5-1.21-1.078a47,47,0,0,0,4.027-4.995,49.109,49.109,0,0,0,6.5-.981q.148.582.262,1.142m-22.035,9.36A2.578,2.578,0,0,1,27,104.426c-1.316-.743-2.23-3.682-1.282-8.567.1-.5.214-1.024.349-1.555a48.776,48.776,0,0,0,6.463.914,48.481,48.481,0,0,0,4.124,4.979q-.459.432-.914.821c-3.093,2.639-5.767,3.691-7.467,3.691M23.45,91.517c-5.075-1.695-7.391-4.141-7.391-5.694,0-1.495,2.153-3.732,6.955-5.369.525-.179,1.076-.347,1.648-.505A47.244,47.244,0,0,0,27,85.88a47.6,47.6,0,0,0-2.365,6q-.614-.173-1.189-.364m2.324-15.438a16.7,16.7,0,0,1-.265-5.97,3.871,3.871,0,0,1,1.47-2.789c1.376-.777,4.742.033,8.894,3.64q.36.312.722.651a48.213,48.213,0,0,0-4.079,4.937,50.851,50.851,0,0,0-6.413.975q-.187-.735-.329-1.445m20.694,4.993q-.712-1.2-1.459-2.345c1.531.189,3,.44,4.385.748a42.3,42.3,0,0,1-1.539,4.049q-.654-1.212-1.387-2.452m-8.434-8.026a43.232,43.232,0,0,1,2.818,3.325Q39.44,76.305,38,76.3q-1.417,0-2.809.063c.928-1.2,1.881-2.31,2.842-3.322m-8.491,8.043q-.715,1.211-1.36,2.432c-.6-1.382-1.107-2.744-1.525-4.063,1.372-.3,2.836-.543,4.356-.729q-.756,1.152-1.47,2.36m1.5,11.977a44.153,44.153,0,0,1-4.42-.7c.425-1.338.948-2.728,1.555-4.137q.645,1.216,1.36,2.424.73,1.233,1.5,2.409m7.046,5.686c-.973-1.026-1.943-2.162-2.889-3.38q1.372.052,2.805.052,1.471,0,2.905-.064a42.393,42.393,0,0,1-2.822,3.391m9.783-10.6a41.622,41.622,0,0,1,1.613,4.128,44.237,44.237,0,0,1-4.478.747q.745-1.154,1.474-2.387t1.391-2.488m-3.168,1.494q-1.131,1.913-2.3,3.623c-1.426.1-2.9.151-4.4.151s-2.953-.045-4.344-.132c-.818-1.166-1.606-2.384-2.346-3.634s-1.428-2.521-2.049-3.782c.622-1.267,1.3-2.534,2.037-3.777l0,0c.742-1.257,1.524-2.471,2.333-3.628,1.434-.107,2.9-.163,4.366-.163s2.946.055,4.374.161c.795,1.146,1.571,2.355,2.316,3.613Q45.835,84,46.771,85.847c-.623,1.257-1.314,2.529-2.064,3.8M45.732,67.42a4.08,4.08,0,0,1,3.2-.15c1.376.777,2.341,4.033,1.222,9.352q-.1.455-.214.925a49.936,49.936,0,0,0-6.425-.993,47.612,47.612,0,0,0-4.049-4.94q.552-.518,1.1-.987a17.51,17.51,0,0,1,5.161-3.206m13.8,14.228C61.146,82.967,62,84.412,62,85.823c0,2.881-3.477,5.795-9.082,7.607q-.436.142-.893.273.162.64.287,1.255a18.66,18.66,0,0,1,.239,6.947,5.915,5.915,0,0,1-2.563,4.283,4.47,4.47,0,0,1-2.247.551c-2.324,0-5.272-1.369-8.347-3.958q-.649-.546-1.3-1.158-.5.472-1,.9a19.449,19.449,0,0,1-6.041,3.666,8.5,8.5,0,0,1-2.777.526,4.59,4.59,0,0,1-2.29-.551c-2.452-1.386-3.306-5.377-2.273-10.679q.159-.818.375-1.67-.675-.19-1.306-.4a19.49,19.49,0,0,1-6.271-3.281C14.872,88.762,14,87.267,14,85.823c0-2.772,3.11-5.486,8.33-7.256q.857-.291,1.782-.548-.2-.792-.355-1.557a18.728,18.728,0,0,1-.273-6.7,5.661,5.661,0,0,1,2.461-4.183c2.546-1.444,6.878.042,11.287,3.874.266.231.533.472.8.723q.6-.564,1.2-1.074a19.583,19.583,0,0,1,5.8-3.574,5.946,5.946,0,0,1,4.93-.008c2.555,1.436,3.4,5.845,2.2,11.489q-.107.509-.24,1.035.793.224,1.539.476A19.814,19.814,0,0,1,59.531,81.648Zm-21.5.451A4.286,4.286,0,1,0,42.4,86.384,4.328,4.328,0,0,0,38.03,82.1Z" transform="translate(-14 -62.307)" fill="#fff" fill-rule="evenodd"/></svg>