<svg width="217" height="50" viewBox="0 0 217 50" fill="none" xmlns="http://www.w3.org/2000/svg">
<path d="M92.2098 33.834C92.2098 38.3401 88.6202 41.3697 83.6558 41.3697C79.3025 41.1914 77.9786 37.3982 77.9786 33.7831V14.1548H68.7882C68.7882 18.4063 68.7882 32.0265 68.7882 35.947C68.7882 43.0499 74.8473 49.9491 83.1466 49.9491C90.1986 49.9491 92.7444 46.1049 92.7444 46.1049V49.9236H101.68V14.1548H92.2352V33.834H92.2098ZM43.7882 40.7841C38.7475 40.7841 34.6487 36.7108 34.6487 31.6955C34.6487 26.6802 38.7475 22.6069 43.7882 22.6069C48.8289 22.6069 52.9277 26.6802 52.9277 31.6955C52.9277 36.7108 48.8289 40.7841 43.7882 40.7841ZM43.7882 13.442C33.6813 13.442 25.4328 21.6141 25.4328 31.6955C25.4328 41.777 33.6558 49.9491 43.7882 49.9491C53.9206 49.9491 62.1181 41.777 62.1181 31.6955C62.1181 21.6141 53.8951 13.442 43.7882 13.442V13.442ZM9.24135 17.8208V13.9511H0V49.9491H9.24135V35.947C9.24135 31.0591 10.0051 28.1314 11.8381 26.222C13.9511 23.6507 16.8534 22.3014 20.2393 22.3014C20.8248 22.3014 21.3849 22.3523 21.8432 22.4033V14.053C21.4358 14.002 21.0031 13.9766 20.5448 13.9766C12.9837 13.9766 9.24135 17.8462 9.24135 17.8462V17.8208ZM215.173 13.9766C207.612 13.9766 203.87 17.8462 203.87 17.8462V13.9766H194.628V49.9745H203.87V35.9725C203.87 31.0845 204.659 28.1568 206.466 26.2475C208.579 23.6762 211.482 22.3269 214.868 22.3269C215.453 22.3269 216.013 22.3778 216.471 22.4287V14.0784C216.064 14.0275 215.606 14.002 215.173 14.002V13.9766ZM173.651 13.9766C166.548 13.9766 164.002 17.8462 164.002 17.8462V14.002H155.041V50H164.537V30.2189C164.537 25.6874 168.152 22.6324 173.142 22.6324C177.52 22.8106 178.87 26.6293 178.87 30.2699V50H188.111C188.111 45.723 188.111 32.0265 188.111 28.0804C188.111 20.9521 182.026 13.9766 173.676 13.9766H173.651ZM143.788 0C142.464 0 141.344 0.43279 140.377 1.34929C139.435 2.24033 138.977 3.33503 138.977 4.73523C138.977 6.13544 139.435 7.33198 140.377 8.19756C141.344 9.11405 142.464 9.54684 143.788 9.54684C145.112 9.54684 146.207 9.11405 147.149 8.22301C148.065 7.33198 148.523 6.21181 148.523 4.76069C148.523 3.30957 148.065 2.24033 147.149 1.34929C146.207 0.458248 145.112 0.0254582 143.788 0.0254582V0ZM139.155 49.9491H148.447V13.9257H139.155V49.9491V49.9491ZM127.597 41.4715C126.273 41.4715 125.178 41.0387 124.364 40.1731C123.523 39.3075 123.142 37.831 123.142 35.5143V22.5306H132.816V13.9257H123.142V0H113.849V13.9257H108.248V22.5306H113.849V36.0998C113.849 38.7729 114.155 41.0132 114.766 42.7953C115.351 44.5265 116.166 45.9267 117.184 46.9959C118.203 48.0397 119.374 48.778 120.799 49.2108C122.301 49.669 123.956 49.8982 125.713 49.8982C128.284 49.8982 130.346 49.5418 131.797 48.8798C132.867 48.3961 132.357 48.6507 132.841 48.3961V39.2566C131.848 40.0967 130.932 40.6314 130.754 40.7332C129.863 41.2424 128.793 41.4969 127.546 41.4969" fill="url(#paint0_linear_1259_564)"/>
<defs>
<linearGradient id="paint0_linear_1259_564" x1="1.64435" y1="29.3412" x2="140.521" y2="-76.677" gradientUnits="userSpaceOnUse">
<stop stop-color="#FF0051"/>
<stop offset="0.5" stop-color="#7D2BE9"/>
<stop offset="1" stop-color="#264CF2"/>
</linearGradient>
</defs>
</svg>
