<svg width="48" height="48" viewBox="0 0 48 48" fill="none" xmlns="http://www.w3.org/2000/svg">
<path opacity="0.4" d="M10 18.4615C10 18.4615 37.6923 21.2308 37.6923 25.8461V14.7692C37.6923 14.7692 37.6923 10.1538 10 7.38461V18.4615Z" fill="white"/>
<path opacity="0.4" d="M10 33.2308C10 33.2308 37.6923 36 37.6923 40.6154V29.5385C37.6923 29.5385 37.6923 24.9231 10 22.1538V33.2308Z" fill="white"/>
<path d="M37.6923 0V11.0769C37.6923 11.0769 37.6923 15.6923 10 18.4615V7.38461C10 7.38461 37.6923 4.61538 37.6923 0Z" fill="white"/>
<path d="M10 22.1538C10 22.1538 37.6923 19.3846 37.6923 14.7692V25.8461C37.6923 25.8461 37.6923 30.4615 10 33.2308V22.1538Z" fill="white"/>
<path d="M10 48V36.9231C10 36.9231 37.6923 34.1538 37.6923 29.5385V40.6154C37.6923 40.6154 37.6923 45.2308 10 48Z" fill="white"/>
</svg>
