<svg width="48" height="48" viewBox="0 0 48 48" fill="none" xmlns="http://www.w3.org/2000/svg">
<path fill-rule="evenodd" clip-rule="evenodd" d="M5.00158 4.61249L6.4922 44.2312C6.53908 45.4875 7.5422 46.4906 8.79845 46.5469L41.011 48H41.1235C42.4547 48 43.5328 46.9219 43.5328 45.5906V2.41874C43.5328 2.39531 43.5305 2.36952 43.5281 2.34374C43.5258 2.31796 43.5235 2.29218 43.5235 2.26874C43.4391 0.937494 42.2953 -0.0750064 40.9641 0.00936856L38.3203 0.174096L38.5077 5.70001C38.517 5.89689 38.3577 6.06564 38.1608 6.07501H38.1514C38.067 6.07501 37.992 6.04689 37.9264 6.00001L36.1452 4.59376L34.0358 6.19689C33.9702 6.24376 33.8952 6.27189 33.8202 6.27189C33.7077 6.27189 33.6045 6.22501 33.5295 6.13126C33.4733 6.06564 33.4545 5.98126 33.4545 5.89689L33.6794 0.463269L7.26095 2.10937C5.95783 2.19374 4.9547 3.29999 5.00158 4.61249ZM15.192 16.6969C15.192 11.5781 18.717 8.16564 24.9983 8.16564C31.2795 8.16564 34.7108 11.5313 34.692 17.9344C34.1858 18.3188 31.7764 18.6375 29.8827 18.6375C28.5795 18.6375 27.5202 18.4875 27.5202 18.1031C27.6514 14.5219 26.0483 14.3625 25.1577 14.3625C24.3139 14.3625 22.8889 14.6156 22.8889 16.5375C22.8889 18.4935 24.9723 19.5981 27.4176 20.8947C30.8912 22.7365 35.0952 24.9655 35.0952 30.5719C35.0952 35.9438 30.7452 38.9063 25.1858 38.9156H25.1389C19.7108 38.9063 14.9295 36.8156 14.9202 29.7563V29.7094C14.9202 29.325 14.9389 28.9313 14.967 28.5188C15.0702 28.0781 16.7202 27.8906 18.4452 27.8906C20.4139 27.8906 22.4952 28.1344 22.4952 28.5188C22.4108 31.8469 23.1702 32.8219 25.0827 32.8219C26.5545 32.8219 27.2202 32.0156 27.2202 30.6469C27.2202 28.5796 25.0489 27.3602 22.5514 25.9576C19.1706 24.0589 15.192 21.8245 15.192 16.6969Z" fill="white"/>
</svg>
