<?xml version="1.0" encoding="UTF-8"?>
<svg xmlns="http://www.w3.org/2000/svg" xmlns:xlink="http://www.w3.org/1999/xlink" width="48px" height="29px" viewBox="0 0 47 29" version="1.1">
<defs>
<clipPath id="clip1">
  <path d="M 0.519531 0 L 46.480469 0 L 46.480469 28.472656 L 0.519531 28.472656 Z M 0.519531 0 "/>
</clipPath>
</defs>
<g id="surface1">
<g clip-path="url(#clip1)" clip-rule="nonzero">
<path style=" stroke:none;fill-rule:evenodd;fill:rgb(21.960784%,74.117649%,97.254902%);fill-opacity:1;" d="M 23.5 0 C 17.371094 0 13.539062 3.164062 12.011719 9.488281 C 14.304688 6.328125 16.988281 5.140625 20.054688 5.929688 C 21.800781 6.382812 23.050781 7.691406 24.433594 9.144531 C 26.6875 11.503906 29.296875 14.234375 34.988281 14.234375 C 41.121094 14.234375 44.949219 11.074219 46.480469 4.746094 C 44.183594 7.910156 41.503906 9.09375 38.4375 8.304688 C 36.6875 7.855469 35.441406 6.542969 34.058594 5.09375 C 31.804688 2.734375 29.195312 0 23.5 0 Z M 12.011719 14.234375 C 5.878906 14.234375 2.050781 17.402344 0.519531 23.726562 C 2.816406 20.5625 5.496094 19.375 8.5625 20.167969 C 10.3125 20.621094 11.558594 21.929688 12.941406 23.378906 C 15.195312 25.742188 17.804688 28.472656 23.5 28.472656 C 29.628906 28.472656 33.460938 25.308594 34.988281 18.980469 C 32.695312 22.144531 30.011719 23.332031 26.945312 22.539062 C 25.199219 22.089844 23.949219 20.78125 22.566406 19.332031 C 20.3125 16.96875 17.703125 14.234375 12.011719 14.234375 Z M 12.011719 14.234375 "/>
</g>
</g>
</svg>
