<svg width="216" height="20" viewBox="0 0 216 20" fill="none" xmlns="http://www.w3.org/2000/svg">
<path d="M1.40909 16V4.36364H2.81818V14.75H8.22727V16H1.40909ZM12.7955 16.2045C12.2424 16.2045 11.7405 16.1004 11.2898 15.892C10.839 15.6799 10.4811 15.375 10.2159 14.9773C9.95076 14.5758 9.81818 14.0909 9.81818 13.5227C9.81818 13.0227 9.91667 12.6174 10.1136 12.3068C10.3106 11.9924 10.5739 11.7462 10.9034 11.5682C11.233 11.3902 11.5966 11.2576 11.9943 11.1705C12.3958 11.0795 12.7992 11.0076 13.2045 10.9545C13.7348 10.8864 14.1648 10.8352 14.4943 10.8011C14.8277 10.7633 15.0701 10.7008 15.2216 10.6136C15.3769 10.5265 15.4545 10.375 15.4545 10.1591V10.1136C15.4545 9.55303 15.3011 9.11742 14.9943 8.80682C14.6913 8.49621 14.2311 8.34091 13.6136 8.34091C12.9735 8.34091 12.4716 8.48106 12.108 8.76136C11.7443 9.04167 11.4886 9.34091 11.3409 9.65909L10.0682 9.20455C10.2955 8.67424 10.5985 8.26136 10.9773 7.96591C11.3598 7.66667 11.7765 7.45833 12.2273 7.34091C12.6818 7.2197 13.1288 7.15909 13.5682 7.15909C13.8485 7.15909 14.1705 7.19318 14.5341 7.26136C14.9015 7.32576 15.2557 7.46023 15.5966 7.66477C15.9413 7.86932 16.2273 8.17803 16.4545 8.59091C16.6818 9.00379 16.7955 9.55682 16.7955 10.25V16H15.4545V14.8182H15.3864C15.2955 15.0076 15.1439 15.2102 14.9318 15.4261C14.7197 15.642 14.4375 15.8258 14.0852 15.9773C13.733 16.1288 13.303 16.2045 12.7955 16.2045ZM13 15C13.5303 15 13.9773 14.8958 14.3409 14.6875C14.7083 14.4792 14.9848 14.2102 15.1705 13.8807C15.3598 13.5511 15.4545 13.2045 15.4545 12.8409V11.6136C15.3977 11.6818 15.2727 11.7443 15.0795 11.8011C14.8902 11.8542 14.6705 11.9015 14.4205 11.9432C14.1742 11.9811 13.9337 12.0152 13.6989 12.0455C13.4678 12.072 13.2803 12.0947 13.1364 12.1136C12.7879 12.1591 12.4621 12.233 12.1591 12.3352C11.8598 12.4337 11.6174 12.5833 11.4318 12.7841C11.25 12.9811 11.1591 13.25 11.1591 13.5909C11.1591 14.0568 11.3314 14.4091 11.6761 14.6477C12.0246 14.8826 12.4659 15 13 15ZM19.4247 16V4.36364H20.7656V8.65909H20.8793C20.9777 8.50758 21.1141 8.31439 21.2884 8.07955C21.4664 7.84091 21.7202 7.62879 22.0497 7.44318C22.383 7.25379 22.8338 7.15909 23.402 7.15909C24.1368 7.15909 24.7846 7.3428 25.3452 7.71023C25.9058 8.07765 26.3433 8.59848 26.6577 9.27273C26.9721 9.94697 27.1293 10.7424 27.1293 11.6591C27.1293 12.5833 26.9721 13.3845 26.6577 14.0625C26.3433 14.7367 25.9077 15.2595 25.3509 15.6307C24.794 15.9981 24.152 16.1818 23.4247 16.1818C22.8641 16.1818 22.4152 16.089 22.0781 15.9034C21.741 15.714 21.4815 15.5 21.2997 15.2614C21.1179 15.0189 20.9777 14.8182 20.8793 14.6591H20.7202V16H19.4247ZM20.7429 11.6364C20.7429 12.2955 20.8395 12.8769 21.0327 13.3807C21.2259 13.8807 21.508 14.2727 21.8793 14.5568C22.2505 14.8371 22.705 14.9773 23.2429 14.9773C23.8035 14.9773 24.2713 14.8295 24.6463 14.5341C25.0251 14.2348 25.3092 13.8333 25.4986 13.3295C25.6918 12.822 25.7884 12.2576 25.7884 11.6364C25.7884 11.0227 25.6937 10.4697 25.5043 9.97727C25.3187 9.48106 25.0365 9.08902 24.6577 8.80114C24.2827 8.50947 23.8111 8.36364 23.2429 8.36364C22.6974 8.36364 22.2391 8.50189 21.8679 8.77841C21.4967 9.05114 21.2164 9.43371 21.027 9.92614C20.8376 10.4148 20.7429 10.9848 20.7429 11.6364ZM32.8395 16.1818C31.9986 16.1818 31.2732 15.9962 30.6634 15.625C30.0573 15.25 29.5895 14.7273 29.2599 14.0568C28.9342 13.3826 28.7713 12.5985 28.7713 11.7045C28.7713 10.8106 28.9342 10.0227 29.2599 9.34091C29.5895 8.6553 30.0478 8.12121 30.6349 7.73864C31.2259 7.35227 31.9152 7.15909 32.7031 7.15909C33.1577 7.15909 33.6065 7.23485 34.0497 7.38636C34.4929 7.53788 34.8963 7.78409 35.2599 8.125C35.6236 8.46212 35.9134 8.90909 36.1293 9.46591C36.3452 10.0227 36.4531 10.7083 36.4531 11.5227V12.0909H29.7259V10.9318H35.0895C35.0895 10.4394 34.991 10 34.794 9.61364C34.6009 9.22727 34.3243 8.92235 33.9645 8.69886C33.6084 8.47538 33.188 8.36364 32.7031 8.36364C32.169 8.36364 31.7069 8.49621 31.3168 8.76136C30.9304 9.02273 30.633 9.36364 30.4247 9.78409C30.2164 10.2045 30.1122 10.6553 30.1122 11.1364V11.9091C30.1122 12.5682 30.2259 13.1269 30.4531 13.5852C30.6842 14.0398 31.0043 14.3864 31.4134 14.625C31.8224 14.8598 32.2978 14.9773 32.8395 14.9773C33.1918 14.9773 33.5099 14.928 33.794 14.8295C34.0819 14.7273 34.33 14.5758 34.5384 14.375C34.7467 14.1705 34.9077 13.9167 35.0213 13.6136L36.3168 13.9773C36.1804 14.4167 35.9512 14.803 35.6293 15.1364C35.3073 15.4659 34.9096 15.7235 34.4361 15.9091C33.9626 16.0909 33.4304 16.1818 32.8395 16.1818ZM39.8338 4.36364V16H38.4929V4.36364H39.8338Z" fill="#1A1B1F" fill-opacity="0.7"/>
<path d="M51.3409 3.81818L47.5909 17.75H46.3636L50.1136 3.81818H51.3409Z" fill="#878B92"/>
<path d="M59.4091 16V4.36364H60.8182V14.75H66.2273V16H59.4091ZM70.7955 16.2045C70.2424 16.2045 69.7405 16.1004 69.2898 15.892C68.839 15.6799 68.4811 15.375 68.2159 14.9773C67.9508 14.5758 67.8182 14.0909 67.8182 13.5227C67.8182 13.0227 67.9167 12.6174 68.1136 12.3068C68.3106 11.9924 68.5739 11.7462 68.9034 11.5682C69.233 11.3902 69.5966 11.2576 69.9943 11.1705C70.3958 11.0795 70.7992 11.0076 71.2045 10.9545C71.7348 10.8864 72.1648 10.8352 72.4943 10.8011C72.8277 10.7633 73.0701 10.7008 73.2216 10.6136C73.3769 10.5265 73.4545 10.375 73.4545 10.1591V10.1136C73.4545 9.55303 73.3011 9.11742 72.9943 8.80682C72.6913 8.49621 72.2311 8.34091 71.6136 8.34091C70.9735 8.34091 70.4716 8.48106 70.108 8.76136C69.7443 9.04167 69.4886 9.34091 69.3409 9.65909L68.0682 9.20455C68.2955 8.67424 68.5985 8.26136 68.9773 7.96591C69.3598 7.66667 69.7765 7.45833 70.2273 7.34091C70.6818 7.2197 71.1288 7.15909 71.5682 7.15909C71.8485 7.15909 72.1705 7.19318 72.5341 7.26136C72.9015 7.32576 73.2557 7.46023 73.5966 7.66477C73.9413 7.86932 74.2273 8.17803 74.4545 8.59091C74.6818 9.00379 74.7955 9.55682 74.7955 10.25V16H73.4545V14.8182H73.3864C73.2955 15.0076 73.1439 15.2102 72.9318 15.4261C72.7197 15.642 72.4375 15.8258 72.0852 15.9773C71.733 16.1288 71.303 16.2045 70.7955 16.2045ZM71 15C71.5303 15 71.9773 14.8958 72.3409 14.6875C72.7083 14.4792 72.9848 14.2102 73.1705 13.8807C73.3598 13.5511 73.4545 13.2045 73.4545 12.8409V11.6136C73.3977 11.6818 73.2727 11.7443 73.0795 11.8011C72.8902 11.8542 72.6705 11.9015 72.4205 11.9432C72.1742 11.9811 71.9337 12.0152 71.6989 12.0455C71.4678 12.072 71.2803 12.0947 71.1364 12.1136C70.7879 12.1591 70.4621 12.233 70.1591 12.3352C69.8598 12.4337 69.6174 12.5833 69.4318 12.7841C69.25 12.9811 69.1591 13.25 69.1591 13.5909C69.1591 14.0568 69.3314 14.4091 69.6761 14.6477C70.0246 14.8826 70.4659 15 71 15ZM77.4247 16V4.36364H78.7656V8.65909H78.8793C78.9777 8.50758 79.1141 8.31439 79.2884 8.07955C79.4664 7.84091 79.7202 7.62879 80.0497 7.44318C80.383 7.25379 80.8338 7.15909 81.402 7.15909C82.1368 7.15909 82.7846 7.3428 83.3452 7.71023C83.9058 8.07765 84.3433 8.59848 84.6577 9.27273C84.9721 9.94697 85.1293 10.7424 85.1293 11.6591C85.1293 12.5833 84.9721 13.3845 84.6577 14.0625C84.3433 14.7367 83.9077 15.2595 83.3509 15.6307C82.794 15.9981 82.152 16.1818 81.4247 16.1818C80.8641 16.1818 80.4152 16.089 80.0781 15.9034C79.741 15.714 79.4815 15.5 79.2997 15.2614C79.1179 15.0189 78.9777 14.8182 78.8793 14.6591H78.7202V16H77.4247ZM78.7429 11.6364C78.7429 12.2955 78.8395 12.8769 79.0327 13.3807C79.2259 13.8807 79.508 14.2727 79.8793 14.5568C80.2505 14.8371 80.705 14.9773 81.2429 14.9773C81.8035 14.9773 82.2713 14.8295 82.6463 14.5341C83.0251 14.2348 83.3092 13.8333 83.4986 13.3295C83.6918 12.822 83.7884 12.2576 83.7884 11.6364C83.7884 11.0227 83.6937 10.4697 83.5043 9.97727C83.3187 9.48106 83.0365 9.08902 82.6577 8.80114C82.2827 8.50947 81.8111 8.36364 81.2429 8.36364C80.6974 8.36364 80.2391 8.50189 79.8679 8.77841C79.4967 9.05114 79.2164 9.43371 79.027 9.92614C78.8376 10.4148 78.7429 10.9848 78.7429 11.6364ZM90.8395 16.1818C89.9986 16.1818 89.2732 15.9962 88.6634 15.625C88.0573 15.25 87.5895 14.7273 87.2599 14.0568C86.9342 13.3826 86.7713 12.5985 86.7713 11.7045C86.7713 10.8106 86.9342 10.0227 87.2599 9.34091C87.5895 8.6553 88.0478 8.12121 88.6349 7.73864C89.2259 7.35227 89.9152 7.15909 90.7031 7.15909C91.1577 7.15909 91.6065 7.23485 92.0497 7.38636C92.4929 7.53788 92.8963 7.78409 93.2599 8.125C93.6236 8.46212 93.9134 8.90909 94.1293 9.46591C94.3452 10.0227 94.4531 10.7083 94.4531 11.5227V12.0909H87.7259V10.9318H93.0895C93.0895 10.4394 92.991 10 92.794 9.61364C92.6009 9.22727 92.3243 8.92235 91.9645 8.69886C91.6084 8.47538 91.188 8.36364 90.7031 8.36364C90.169 8.36364 89.7069 8.49621 89.3168 8.76136C88.9304 9.02273 88.633 9.36364 88.4247 9.78409C88.2164 10.2045 88.1122 10.6553 88.1122 11.1364V11.9091C88.1122 12.5682 88.2259 13.1269 88.4531 13.5852C88.6842 14.0398 89.0043 14.3864 89.4134 14.625C89.8224 14.8598 90.2978 14.9773 90.8395 14.9773C91.1918 14.9773 91.5099 14.928 91.794 14.8295C92.0819 14.7273 92.33 14.5758 92.5384 14.375C92.7467 14.1705 92.9077 13.9167 93.0213 13.6136L94.3168 13.9773C94.1804 14.4167 93.9512 14.803 93.6293 15.1364C93.3073 15.4659 92.9096 15.7235 92.4361 15.9091C91.9626 16.0909 91.4304 16.1818 90.8395 16.1818ZM97.8338 4.36364V16H96.4929V4.36364H97.8338Z" fill="#1A1B1F" fill-opacity="0.7"/>
<path d="M109.341 3.81818L105.591 17.75H104.364L108.114 3.81818H109.341Z" fill="#878B92"/>
<path d="M117.409 16V4.36364H118.818V14.75H124.227V16H117.409ZM128.795 16.2045C128.242 16.2045 127.741 16.1004 127.29 15.892C126.839 15.6799 126.481 15.375 126.216 14.9773C125.951 14.5758 125.818 14.0909 125.818 13.5227C125.818 13.0227 125.917 12.6174 126.114 12.3068C126.311 11.9924 126.574 11.7462 126.903 11.5682C127.233 11.3902 127.597 11.2576 127.994 11.1705C128.396 11.0795 128.799 11.0076 129.205 10.9545C129.735 10.8864 130.165 10.8352 130.494 10.8011C130.828 10.7633 131.07 10.7008 131.222 10.6136C131.377 10.5265 131.455 10.375 131.455 10.1591V10.1136C131.455 9.55303 131.301 9.11742 130.994 8.80682C130.691 8.49621 130.231 8.34091 129.614 8.34091C128.973 8.34091 128.472 8.48106 128.108 8.76136C127.744 9.04167 127.489 9.34091 127.341 9.65909L126.068 9.20455C126.295 8.67424 126.598 8.26136 126.977 7.96591C127.36 7.66667 127.777 7.45833 128.227 7.34091C128.682 7.2197 129.129 7.15909 129.568 7.15909C129.848 7.15909 130.17 7.19318 130.534 7.26136C130.902 7.32576 131.256 7.46023 131.597 7.66477C131.941 7.86932 132.227 8.17803 132.455 8.59091C132.682 9.00379 132.795 9.55682 132.795 10.25V16H131.455V14.8182H131.386C131.295 15.0076 131.144 15.2102 130.932 15.4261C130.72 15.642 130.438 15.8258 130.085 15.9773C129.733 16.1288 129.303 16.2045 128.795 16.2045ZM129 15C129.53 15 129.977 14.8958 130.341 14.6875C130.708 14.4792 130.985 14.2102 131.17 13.8807C131.36 13.5511 131.455 13.2045 131.455 12.8409V11.6136C131.398 11.6818 131.273 11.7443 131.08 11.8011C130.89 11.8542 130.67 11.9015 130.42 11.9432C130.174 11.9811 129.934 12.0152 129.699 12.0455C129.468 12.072 129.28 12.0947 129.136 12.1136C128.788 12.1591 128.462 12.233 128.159 12.3352C127.86 12.4337 127.617 12.5833 127.432 12.7841C127.25 12.9811 127.159 13.25 127.159 13.5909C127.159 14.0568 127.331 14.4091 127.676 14.6477C128.025 14.8826 128.466 15 129 15ZM135.425 16V4.36364H136.766V8.65909H136.879C136.978 8.50758 137.114 8.31439 137.288 8.07955C137.466 7.84091 137.72 7.62879 138.05 7.44318C138.383 7.25379 138.834 7.15909 139.402 7.15909C140.137 7.15909 140.785 7.3428 141.345 7.71023C141.906 8.07765 142.343 8.59848 142.658 9.27273C142.972 9.94697 143.129 10.7424 143.129 11.6591C143.129 12.5833 142.972 13.3845 142.658 14.0625C142.343 14.7367 141.908 15.2595 141.351 15.6307C140.794 15.9981 140.152 16.1818 139.425 16.1818C138.864 16.1818 138.415 16.089 138.078 15.9034C137.741 15.714 137.482 15.5 137.3 15.2614C137.118 15.0189 136.978 14.8182 136.879 14.6591H136.72V16H135.425ZM136.743 11.6364C136.743 12.2955 136.839 12.8769 137.033 13.3807C137.226 13.8807 137.508 14.2727 137.879 14.5568C138.25 14.8371 138.705 14.9773 139.243 14.9773C139.804 14.9773 140.271 14.8295 140.646 14.5341C141.025 14.2348 141.309 13.8333 141.499 13.3295C141.692 12.822 141.788 12.2576 141.788 11.6364C141.788 11.0227 141.694 10.4697 141.504 9.97727C141.319 9.48106 141.036 9.08902 140.658 8.80114C140.283 8.50947 139.811 8.36364 139.243 8.36364C138.697 8.36364 138.239 8.50189 137.868 8.77841C137.497 9.05114 137.216 9.43371 137.027 9.92614C136.838 10.4148 136.743 10.9848 136.743 11.6364ZM148.839 16.1818C147.999 16.1818 147.273 15.9962 146.663 15.625C146.057 15.25 145.589 14.7273 145.26 14.0568C144.934 13.3826 144.771 12.5985 144.771 11.7045C144.771 10.8106 144.934 10.0227 145.26 9.34091C145.589 8.6553 146.048 8.12121 146.635 7.73864C147.226 7.35227 147.915 7.15909 148.703 7.15909C149.158 7.15909 149.607 7.23485 150.05 7.38636C150.493 7.53788 150.896 7.78409 151.26 8.125C151.624 8.46212 151.913 8.90909 152.129 9.46591C152.345 10.0227 152.453 10.7083 152.453 11.5227V12.0909H145.726V10.9318H151.089C151.089 10.4394 150.991 10 150.794 9.61364C150.601 9.22727 150.324 8.92235 149.964 8.69886C149.608 8.47538 149.188 8.36364 148.703 8.36364C148.169 8.36364 147.707 8.49621 147.317 8.76136C146.93 9.02273 146.633 9.36364 146.425 9.78409C146.216 10.2045 146.112 10.6553 146.112 11.1364V11.9091C146.112 12.5682 146.226 13.1269 146.453 13.5852C146.684 14.0398 147.004 14.3864 147.413 14.625C147.822 14.8598 148.298 14.9773 148.839 14.9773C149.192 14.9773 149.51 14.928 149.794 14.8295C150.082 14.7273 150.33 14.5758 150.538 14.375C150.747 14.1705 150.908 13.9167 151.021 13.6136L152.317 13.9773C152.18 14.4167 151.951 14.803 151.629 15.1364C151.307 15.4659 150.91 15.7235 150.436 15.9091C149.963 16.0909 149.43 16.1818 148.839 16.1818ZM155.834 4.36364V16H154.493V4.36364H155.834Z" fill="#1A1B1F" fill-opacity="0.7"/>
<path d="M167.341 3.81818L163.591 17.75H162.364L166.114 3.81818H167.341Z" fill="#878B92"/>
<path d="M175.409 16V4.36364H176.818V14.75H182.227V16H175.409ZM186.795 16.2045C186.242 16.2045 185.741 16.1004 185.29 15.892C184.839 15.6799 184.481 15.375 184.216 14.9773C183.951 14.5758 183.818 14.0909 183.818 13.5227C183.818 13.0227 183.917 12.6174 184.114 12.3068C184.311 11.9924 184.574 11.7462 184.903 11.5682C185.233 11.3902 185.597 11.2576 185.994 11.1705C186.396 11.0795 186.799 11.0076 187.205 10.9545C187.735 10.8864 188.165 10.8352 188.494 10.8011C188.828 10.7633 189.07 10.7008 189.222 10.6136C189.377 10.5265 189.455 10.375 189.455 10.1591V10.1136C189.455 9.55303 189.301 9.11742 188.994 8.80682C188.691 8.49621 188.231 8.34091 187.614 8.34091C186.973 8.34091 186.472 8.48106 186.108 8.76136C185.744 9.04167 185.489 9.34091 185.341 9.65909L184.068 9.20455C184.295 8.67424 184.598 8.26136 184.977 7.96591C185.36 7.66667 185.777 7.45833 186.227 7.34091C186.682 7.2197 187.129 7.15909 187.568 7.15909C187.848 7.15909 188.17 7.19318 188.534 7.26136C188.902 7.32576 189.256 7.46023 189.597 7.66477C189.941 7.86932 190.227 8.17803 190.455 8.59091C190.682 9.00379 190.795 9.55682 190.795 10.25V16H189.455V14.8182H189.386C189.295 15.0076 189.144 15.2102 188.932 15.4261C188.72 15.642 188.438 15.8258 188.085 15.9773C187.733 16.1288 187.303 16.2045 186.795 16.2045ZM187 15C187.53 15 187.977 14.8958 188.341 14.6875C188.708 14.4792 188.985 14.2102 189.17 13.8807C189.36 13.5511 189.455 13.2045 189.455 12.8409V11.6136C189.398 11.6818 189.273 11.7443 189.08 11.8011C188.89 11.8542 188.67 11.9015 188.42 11.9432C188.174 11.9811 187.934 12.0152 187.699 12.0455C187.468 12.072 187.28 12.0947 187.136 12.1136C186.788 12.1591 186.462 12.233 186.159 12.3352C185.86 12.4337 185.617 12.5833 185.432 12.7841C185.25 12.9811 185.159 13.25 185.159 13.5909C185.159 14.0568 185.331 14.4091 185.676 14.6477C186.025 14.8826 186.466 15 187 15ZM193.425 16V4.36364H194.766V8.65909H194.879C194.978 8.50758 195.114 8.31439 195.288 8.07955C195.466 7.84091 195.72 7.62879 196.05 7.44318C196.383 7.25379 196.834 7.15909 197.402 7.15909C198.137 7.15909 198.785 7.3428 199.345 7.71023C199.906 8.07765 200.343 8.59848 200.658 9.27273C200.972 9.94697 201.129 10.7424 201.129 11.6591C201.129 12.5833 200.972 13.3845 200.658 14.0625C200.343 14.7367 199.908 15.2595 199.351 15.6307C198.794 15.9981 198.152 16.1818 197.425 16.1818C196.864 16.1818 196.415 16.089 196.078 15.9034C195.741 15.714 195.482 15.5 195.3 15.2614C195.118 15.0189 194.978 14.8182 194.879 14.6591H194.72V16H193.425ZM194.743 11.6364C194.743 12.2955 194.839 12.8769 195.033 13.3807C195.226 13.8807 195.508 14.2727 195.879 14.5568C196.25 14.8371 196.705 14.9773 197.243 14.9773C197.804 14.9773 198.271 14.8295 198.646 14.5341C199.025 14.2348 199.309 13.8333 199.499 13.3295C199.692 12.822 199.788 12.2576 199.788 11.6364C199.788 11.0227 199.694 10.4697 199.504 9.97727C199.319 9.48106 199.036 9.08902 198.658 8.80114C198.283 8.50947 197.811 8.36364 197.243 8.36364C196.697 8.36364 196.239 8.50189 195.868 8.77841C195.497 9.05114 195.216 9.43371 195.027 9.92614C194.838 10.4148 194.743 10.9848 194.743 11.6364ZM206.839 16.1818C205.999 16.1818 205.273 15.9962 204.663 15.625C204.057 15.25 203.589 14.7273 203.26 14.0568C202.934 13.3826 202.771 12.5985 202.771 11.7045C202.771 10.8106 202.934 10.0227 203.26 9.34091C203.589 8.6553 204.048 8.12121 204.635 7.73864C205.226 7.35227 205.915 7.15909 206.703 7.15909C207.158 7.15909 207.607 7.23485 208.05 7.38636C208.493 7.53788 208.896 7.78409 209.26 8.125C209.624 8.46212 209.913 8.90909 210.129 9.46591C210.345 10.0227 210.453 10.7083 210.453 11.5227V12.0909H203.726V10.9318H209.089C209.089 10.4394 208.991 10 208.794 9.61364C208.601 9.22727 208.324 8.92235 207.964 8.69886C207.608 8.47538 207.188 8.36364 206.703 8.36364C206.169 8.36364 205.707 8.49621 205.317 8.76136C204.93 9.02273 204.633 9.36364 204.425 9.78409C204.216 10.2045 204.112 10.6553 204.112 11.1364V11.9091C204.112 12.5682 204.226 13.1269 204.453 13.5852C204.684 14.0398 205.004 14.3864 205.413 14.625C205.822 14.8598 206.298 14.9773 206.839 14.9773C207.192 14.9773 207.51 14.928 207.794 14.8295C208.082 14.7273 208.33 14.5758 208.538 14.375C208.747 14.1705 208.908 13.9167 209.021 13.6136L210.317 13.9773C210.18 14.4167 209.951 14.803 209.629 15.1364C209.307 15.4659 208.91 15.7235 208.436 15.9091C207.963 16.0909 207.43 16.1818 206.839 16.1818ZM213.834 4.36364V16H212.493V4.36364H213.834Z" fill="#1A1B1F"/>
</svg>
