<svg width="408" height="228" viewBox="0 0 408 228" fill="none" xmlns="http://www.w3.org/2000/svg">
<rect x="9.75" y="9.75" width="20.5" height="20.5" rx="5.25" fill="#F9FAFB" stroke="#878B92" stroke-width="1.5"/>
<path d="M48.5568 16.3643V14.8182H56.6804V16.3643H53.5334V25H51.7038V16.3643H48.5568ZM58.3069 25V17.3636H60.1066V25H58.3069ZM59.2117 16.2798C58.9267 16.2798 58.6814 16.1854 58.4759 15.9964C58.2704 15.8042 58.1677 15.5739 58.1677 15.3054C58.1677 15.0336 58.2704 14.8033 58.4759 14.6143C58.6814 14.4221 58.9267 14.326 59.2117 14.326C59.5001 14.326 59.7454 14.4221 59.9475 14.6143C60.153 14.8033 60.2558 15.0336 60.2558 15.3054C60.2558 15.5739 60.153 15.8042 59.9475 15.9964C59.7454 16.1854 59.5001 16.2798 59.2117 16.2798ZM65.9105 17.3636V18.7557H61.5206V17.3636H65.9105ZM62.6044 15.5341H64.4041V22.7031C64.4041 22.9451 64.4406 23.1307 64.5135 23.2599C64.5897 23.3859 64.6891 23.4721 64.8118 23.5185C64.9344 23.5649 65.0703 23.5881 65.2195 23.5881C65.3321 23.5881 65.4349 23.5798 65.5277 23.5632C65.6238 23.5466 65.6967 23.5317 65.7464 23.5185L66.0497 24.9254C65.9536 24.9586 65.816 24.995 65.6371 25.0348C65.4614 25.0746 65.246 25.0978 64.9908 25.1044C64.54 25.1177 64.134 25.0497 63.7727 24.9006C63.4115 24.7481 63.1248 24.5128 62.9126 24.1946C62.7038 23.8764 62.6011 23.4787 62.6044 23.0014V15.5341ZM69.5194 14.8182V25H67.7197V14.8182H69.5194ZM74.8908 25.1491C74.1252 25.1491 73.4639 24.9901 72.9071 24.6719C72.3536 24.3504 71.9277 23.8963 71.6294 23.3097C71.3311 22.7197 71.182 22.0253 71.182 21.2266C71.182 20.4411 71.3311 19.7517 71.6294 19.1584C71.931 18.5618 72.352 18.0978 72.8922 17.7663C73.4325 17.4316 74.0672 17.2642 74.7963 17.2642C75.267 17.2642 75.7111 17.3404 76.1287 17.4929C76.5496 17.642 76.9209 17.8741 77.2424 18.1889C77.5672 18.5038 77.8224 18.9048 78.008 19.392C78.1936 19.8759 78.2864 20.4527 78.2864 21.1222V21.674H72.0272V20.4609H76.5612C76.5579 20.1162 76.4834 19.8097 76.3375 19.5412C76.1917 19.2694 75.9879 19.0556 75.726 18.8999C75.4675 18.7441 75.1659 18.6662 74.8212 18.6662C74.4533 18.6662 74.1301 18.7557 73.8517 18.9347C73.5733 19.1103 73.3562 19.3423 73.2004 19.6307C73.048 19.9157 72.9701 20.2289 72.9668 20.5703V21.6293C72.9668 22.0734 73.048 22.4545 73.2104 22.7727C73.3728 23.0876 73.5998 23.3295 73.8915 23.4986C74.1832 23.6643 74.5245 23.7472 74.9156 23.7472C75.1775 23.7472 75.4145 23.7107 75.6266 23.6378C75.8387 23.5616 76.0227 23.4505 76.1784 23.3047C76.3342 23.1589 76.4519 22.9782 76.5314 22.7628L78.2118 22.9517C78.1057 23.3958 77.9036 23.7836 77.6053 24.1151C77.3103 24.4432 76.9325 24.6984 76.4718 24.8807C76.0111 25.0597 75.4841 25.1491 74.8908 25.1491Z" fill="#1A1B1F"/>
<rect x="9.75" y="61.75" width="20.5" height="20.5" rx="5.25" fill="#F9FAFB" stroke="#878B92" stroke-width="1.5"/>
<path d="M48.5568 65.3643V63.8182H56.6804V65.3643H53.5334V74H51.7038V65.3643H48.5568ZM58.3069 74V66.3636H60.1066V74H58.3069ZM59.2117 65.2798C58.9267 65.2798 58.6814 65.1854 58.4759 64.9964C58.2704 64.8042 58.1677 64.5739 58.1677 64.3054C58.1677 64.0336 58.2704 63.8033 58.4759 63.6143C58.6814 63.4221 58.9267 63.326 59.2117 63.326C59.5001 63.326 59.7454 63.4221 59.9475 63.6143C60.153 63.8033 60.2558 64.0336 60.2558 64.3054C60.2558 64.5739 60.153 64.8042 59.9475 64.9964C59.7454 65.1854 59.5001 65.2798 59.2117 65.2798ZM65.9105 66.3636V67.7557H61.5206V66.3636H65.9105ZM62.6044 64.5341H64.4041V71.7031C64.4041 71.9451 64.4406 72.1307 64.5135 72.2599C64.5897 72.3859 64.6891 72.4721 64.8118 72.5185C64.9344 72.5649 65.0703 72.5881 65.2195 72.5881C65.3321 72.5881 65.4349 72.5798 65.5277 72.5632C65.6238 72.5466 65.6967 72.5317 65.7464 72.5185L66.0497 73.9254C65.9536 73.9586 65.816 73.995 65.6371 74.0348C65.4614 74.0746 65.246 74.0978 64.9908 74.1044C64.54 74.1177 64.134 74.0497 63.7727 73.9006C63.4115 73.7481 63.1248 73.5128 62.9126 73.1946C62.7038 72.8764 62.6011 72.4787 62.6044 72.0014V64.5341ZM69.5194 63.8182V74H67.7197V63.8182H69.5194ZM74.8908 74.1491C74.1252 74.1491 73.4639 73.9901 72.9071 73.6719C72.3536 73.3504 71.9277 72.8963 71.6294 72.3097C71.3311 71.7197 71.182 71.0253 71.182 70.2266C71.182 69.4411 71.3311 68.7517 71.6294 68.1584C71.931 67.5618 72.352 67.0978 72.8922 66.7663C73.4325 66.4316 74.0672 66.2642 74.7963 66.2642C75.267 66.2642 75.7111 66.3404 76.1287 66.4929C76.5496 66.642 76.9209 66.8741 77.2424 67.1889C77.5672 67.5038 77.8224 67.9048 78.008 68.392C78.1936 68.8759 78.2864 69.4527 78.2864 70.1222V70.674H72.0272V69.4609H76.5612C76.5579 69.1162 76.4834 68.8097 76.3375 68.5412C76.1917 68.2694 75.9879 68.0556 75.726 67.8999C75.4675 67.7441 75.1659 67.6662 74.8212 67.6662C74.4533 67.6662 74.1301 67.7557 73.8517 67.9347C73.5733 68.1103 73.3562 68.3423 73.2004 68.6307C73.048 68.9157 72.9701 69.2289 72.9668 69.5703V70.6293C72.9668 71.0734 73.048 71.4545 73.2104 71.7727C73.3728 72.0876 73.5998 72.3295 73.8915 72.4986C74.1832 72.6643 74.5245 72.7472 74.9156 72.7472C75.1775 72.7472 75.4145 72.7107 75.6266 72.6378C75.8387 72.5616 76.0227 72.4505 76.1784 72.3047C76.3342 72.1589 76.4519 71.9782 76.5314 71.7628L78.2118 71.9517C78.1057 72.3958 77.9036 72.7836 77.6053 73.1151C77.3103 73.4432 76.9325 73.6984 76.4718 73.8807C76.0111 74.0597 75.4841 74.1491 74.8908 74.1491Z" fill="#1A1B1F"/>
<path d="M52.375 96H49.233V85.8182H52.5142C53.5019 85.8182 54.3471 86.022 55.0497 86.4297C55.7524 86.834 56.291 87.4157 56.6655 88.1747C57.04 88.9304 57.2273 89.8352 57.2273 90.8892C57.2273 91.9498 57.0384 92.8629 56.6605 93.6286C56.2827 94.3909 55.7325 94.9775 55.0099 95.3885C54.2874 95.7962 53.4091 96 52.375 96ZM50.4659 94.9062H52.2955C53.1373 94.9062 53.835 94.7438 54.3885 94.419C54.942 94.0942 55.3546 93.6319 55.6264 93.032C55.8982 92.4321 56.0341 91.7178 56.0341 90.8892C56.0341 90.0672 55.8999 89.3596 55.6314 88.7663C55.3629 88.1697 54.9619 87.7124 54.4283 87.3942C53.8946 87.0727 53.2301 86.9119 52.4347 86.9119H50.4659V94.9062ZM62.4781 96.1591C61.7423 96.1591 61.1076 95.9967 60.5739 95.6719C60.0436 95.3438 59.6343 94.8864 59.346 94.2997C59.0609 93.7098 58.9184 93.0237 58.9184 92.2415C58.9184 91.4593 59.0609 90.7699 59.346 90.1733C59.6343 89.5734 60.0354 89.1061 60.5491 88.7713C61.0661 88.4332 61.6694 88.2642 62.3588 88.2642C62.7565 88.2642 63.1492 88.3305 63.537 88.4631C63.9248 88.5956 64.2778 88.8111 64.596 89.1094C64.9141 89.4044 65.1677 89.7955 65.3566 90.2827C65.5455 90.7699 65.64 91.3698 65.64 92.0824V92.5795H59.7536V91.5653H64.4468C64.4468 91.1345 64.3606 90.75 64.1883 90.4119C64.0193 90.0739 63.7773 89.8071 63.4624 89.6115C63.1509 89.416 62.783 89.3182 62.3588 89.3182C61.8914 89.3182 61.4871 89.4342 61.1457 89.6662C60.8076 89.8949 60.5474 90.1932 60.3651 90.5611C60.1829 90.929 60.0917 91.3234 60.0917 91.7443V92.4205C60.0917 92.9972 60.1911 93.486 60.39 93.8871C60.5922 94.2848 60.8722 94.5881 61.2302 94.7969C61.5882 95.0024 62.0041 95.1051 62.4781 95.1051C62.7863 95.1051 63.0647 95.062 63.3133 94.9759C63.5652 94.8864 63.7823 94.7538 63.9646 94.5781C64.1469 94.3991 64.2877 94.1771 64.3872 93.9119L65.5207 94.2301C65.4014 94.6146 65.2008 94.9527 64.9191 95.2443C64.6374 95.5327 64.2894 95.758 63.8751 95.9205C63.4608 96.0795 62.9951 96.1591 62.4781 96.1591ZM72.9739 90.0739L71.9199 90.3722C71.8536 90.1965 71.7559 90.0258 71.6266 89.8601C71.5006 89.6911 71.3283 89.5518 71.1095 89.4425C70.8908 89.3331 70.6107 89.2784 70.2693 89.2784C69.802 89.2784 69.4126 89.3861 69.101 89.6016C68.7928 89.8137 68.6387 90.0838 68.6387 90.4119C68.6387 90.7036 68.7447 90.9339 68.9568 91.103C69.169 91.272 69.5004 91.4129 69.9512 91.5256L71.0847 91.804C71.7675 91.9697 72.2762 92.2232 72.611 92.5646C72.9457 92.9027 73.1131 93.3385 73.1131 93.8722C73.1131 94.3097 72.9872 94.7008 72.7353 95.0455C72.4867 95.3902 72.1387 95.6619 71.6912 95.8608C71.2438 96.0597 70.7234 96.1591 70.1301 96.1591C69.3513 96.1591 68.7066 95.9901 68.1962 95.652C67.6858 95.3139 67.3626 94.8201 67.2267 94.1705L68.3404 93.892C68.4464 94.303 68.647 94.6113 68.9419 94.8168C69.2402 95.0223 69.6297 95.125 70.1103 95.125C70.6571 95.125 71.0913 95.009 71.4128 94.777C71.7376 94.5417 71.9 94.2599 71.9 93.9318C71.9 93.6667 71.8072 93.4446 71.6216 93.2656C71.436 93.0833 71.151 92.9474 70.7665 92.858L69.4938 92.5597C68.7944 92.3939 68.2807 92.1371 67.9526 91.7891C67.6278 91.4377 67.4654 90.9986 67.4654 90.4716C67.4654 90.0407 67.5863 89.6596 67.8283 89.3281C68.0736 88.9967 68.4067 88.7365 68.8276 88.5476C69.2518 88.3587 69.7324 88.2642 70.2693 88.2642C71.025 88.2642 71.6183 88.4299 72.0492 88.7614C72.4834 89.0928 72.7916 89.5303 72.9739 90.0739ZM78.1215 96.1591C77.4056 96.1591 76.7891 95.9901 76.2721 95.652C75.755 95.3139 75.3573 94.8482 75.0789 94.255C74.8005 93.6617 74.6613 92.9839 74.6613 92.2216C74.6613 91.446 74.8038 90.7616 75.0889 90.1683C75.3772 89.5717 75.7783 89.1061 76.292 88.7713C76.809 88.4332 77.4122 88.2642 78.1016 88.2642C78.6386 88.2642 79.1225 88.3636 79.5533 88.5625C79.9842 88.7614 80.3372 89.0398 80.6123 89.3977C80.8874 89.7557 81.0581 90.1733 81.1244 90.6506H79.9511C79.8616 90.3026 79.6627 89.9943 79.3545 89.7259C79.0496 89.4541 78.6386 89.3182 78.1215 89.3182C77.6641 89.3182 77.2631 89.4375 76.9184 89.6761C76.577 89.9115 76.3102 90.2446 76.118 90.6754C75.9291 91.103 75.8346 91.6051 75.8346 92.1818C75.8346 92.7718 75.9274 93.2855 76.113 93.723C76.3019 94.1605 76.5671 94.5002 76.9085 94.7422C77.2532 94.9841 77.6575 95.1051 78.1215 95.1051C78.4265 95.1051 78.7032 95.0521 78.9518 94.946C79.2004 94.84 79.4108 94.6875 79.5832 94.4886C79.7555 94.2898 79.8782 94.0511 79.9511 93.7727H81.1244C81.0581 94.2235 80.894 94.6295 80.6322 94.9908C80.3737 95.3487 80.0306 95.6338 79.6031 95.8459C79.1788 96.0547 78.685 96.1591 78.1215 96.1591ZM82.9796 96V88.3636H84.1131V89.517H84.1926C84.3318 89.1392 84.5837 88.8326 84.9483 88.5973C85.3129 88.362 85.7239 88.2443 86.1813 88.2443C86.2674 88.2443 86.3752 88.246 86.5044 88.2493C86.6337 88.2526 86.7315 88.2576 86.7978 88.2642V89.4574C86.758 89.4474 86.6668 89.4325 86.5243 89.4126C86.3851 89.3894 86.2376 89.3778 86.0818 89.3778C85.7106 89.3778 85.3792 89.4557 85.0875 89.6115C84.7992 89.764 84.5705 89.9761 84.4014 90.2479C84.2357 90.5163 84.1529 90.8229 84.1529 91.1676V96H82.9796ZM88.3286 96V88.3636H89.5018V96H88.3286ZM88.9251 87.0909C88.6964 87.0909 88.4992 87.013 88.3335 86.8572C88.1711 86.7015 88.0899 86.5142 88.0899 86.2955C88.0899 86.0767 88.1711 85.8894 88.3335 85.7337C88.4992 85.5779 88.6964 85.5 88.9251 85.5C89.1538 85.5 89.3494 85.5779 89.5118 85.7337C89.6775 85.8894 89.7604 86.0767 89.7604 86.2955C89.7604 86.5142 89.6775 86.7015 89.5118 86.8572C89.3494 87.013 89.1538 87.0909 88.9251 87.0909ZM91.7908 98.8636V88.3636H92.9243V89.5767H93.0635C93.1497 89.4441 93.269 89.2751 93.4215 89.0696C93.5773 88.8608 93.7993 88.6752 94.0877 88.5128C94.3794 88.3471 94.7738 88.2642 95.2709 88.2642C95.9139 88.2642 96.4807 88.425 96.9712 88.7464C97.4617 89.0679 97.8446 89.5237 98.1197 90.1136C98.3947 90.7036 98.5323 91.3996 98.5323 92.2017C98.5323 93.0104 98.3947 93.7114 98.1197 94.3047C97.8446 94.8946 97.4634 95.352 96.9762 95.6768C96.489 95.9983 95.9272 96.1591 95.2908 96.1591C94.8003 96.1591 94.4075 96.0779 94.1126 95.9155C93.8176 95.7498 93.5905 95.5625 93.4314 95.3537C93.2724 95.1416 93.1497 94.9659 93.0635 94.8267H92.9641V98.8636H91.7908ZM92.9442 92.1818C92.9442 92.7585 93.0287 93.2673 93.1978 93.7081C93.3668 94.1456 93.6137 94.4886 93.9385 94.7372C94.2634 94.9825 94.6611 95.1051 95.1317 95.1051C95.6223 95.1051 96.0316 94.9759 96.3597 94.7173C96.6911 94.4555 96.9397 94.1042 97.1054 93.6634C97.2745 93.2192 97.359 92.7254 97.359 92.1818C97.359 91.6449 97.2761 91.161 97.1104 90.7301C96.948 90.2959 96.7011 89.9529 96.3697 89.701C96.0415 89.4458 95.6289 89.3182 95.1317 89.3182C94.6545 89.3182 94.2534 89.4392 93.9286 89.6811C93.6038 89.9197 93.3585 90.2545 93.1928 90.6854C93.0271 91.1129 92.9442 91.6117 92.9442 92.1818ZM103.783 88.3636V89.358H99.8257V88.3636H103.783ZM100.979 86.5341H102.152V93.8125C102.152 94.1439 102.2 94.3925 102.297 94.5582C102.396 94.7206 102.522 94.83 102.674 94.8864C102.83 94.9394 102.994 94.9659 103.167 94.9659C103.296 94.9659 103.402 94.9593 103.485 94.946C103.568 94.9295 103.634 94.9162 103.684 94.9062L103.922 95.9602C103.843 95.9901 103.732 96.0199 103.589 96.0497C103.447 96.0829 103.266 96.0994 103.047 96.0994C102.716 96.0994 102.391 96.0282 102.073 95.8857C101.758 95.7431 101.496 95.526 101.287 95.2344C101.082 94.9427 100.979 94.5748 100.979 94.1307V86.5341ZM105.688 96V88.3636H106.861V96H105.688ZM106.285 87.0909C106.056 87.0909 105.859 87.013 105.693 86.8572C105.531 86.7015 105.449 86.5142 105.449 86.2955C105.449 86.0767 105.531 85.8894 105.693 85.7337C105.859 85.5779 106.056 85.5 106.285 85.5C106.513 85.5 106.709 85.5779 106.871 85.7337C107.037 85.8894 107.12 86.0767 107.12 86.2955C107.12 86.5142 107.037 86.7015 106.871 86.8572C106.709 87.013 106.513 87.0909 106.285 87.0909ZM112.253 96.1591C111.563 96.1591 110.958 95.995 110.438 95.6669C109.921 95.3388 109.517 94.8797 109.225 94.2898C108.936 93.6998 108.792 93.0104 108.792 92.2216C108.792 91.4261 108.936 90.7318 109.225 90.1385C109.517 89.5452 109.921 89.0845 110.438 88.7564C110.958 88.4283 111.563 88.2642 112.253 88.2642C112.942 88.2642 113.545 88.4283 114.062 88.7564C114.583 89.0845 114.987 89.5452 115.275 90.1385C115.567 90.7318 115.713 91.4261 115.713 92.2216C115.713 93.0104 115.567 93.6998 115.275 94.2898C114.987 94.8797 114.583 95.3388 114.062 95.6669C113.545 95.995 112.942 96.1591 112.253 96.1591ZM112.253 95.1051C112.776 95.1051 113.207 94.9709 113.545 94.7024C113.883 94.4339 114.133 94.081 114.296 93.6435C114.458 93.206 114.539 92.732 114.539 92.2216C114.539 91.7112 114.458 91.2356 114.296 90.7947C114.133 90.3539 113.883 89.9976 113.545 89.7259C113.207 89.4541 112.776 89.3182 112.253 89.3182C111.729 89.3182 111.298 89.4541 110.96 89.7259C110.622 89.9976 110.372 90.3539 110.209 90.7947C110.047 91.2356 109.966 91.7112 109.966 92.2216C109.966 92.732 110.047 93.206 110.209 93.6435C110.372 94.081 110.622 94.4339 110.96 94.7024C111.298 94.9709 111.729 95.1051 112.253 95.1051ZM118.817 91.4062V96H117.644V88.3636H118.777V89.5568H118.877C119.056 89.169 119.327 88.8575 119.692 88.6222C120.057 88.3835 120.527 88.2642 121.104 88.2642C121.621 88.2642 122.073 88.3703 122.461 88.5824C122.849 88.7912 123.151 89.1094 123.366 89.5369C123.582 89.9612 123.689 90.4981 123.689 91.1477V96H122.516V91.2273C122.516 90.6274 122.36 90.16 122.049 89.8253C121.737 89.4872 121.31 89.3182 120.766 89.3182C120.391 89.3182 120.057 89.3994 119.762 89.5618C119.47 89.7242 119.24 89.9612 119.071 90.2727C118.902 90.5843 118.817 90.9621 118.817 91.4062Z" fill="#1A1B1F" fill-opacity="0.7"/>
<rect x="9" y="129" width="22" height="22" rx="6" fill="#0052D6"/>
<path d="M24.4697 135.97L18 142.439L15.5303 139.97L15.4462 139.897C15.1526 139.679 14.7359 139.703 14.4697 139.97C14.1768 140.263 14.1768 140.737 14.4697 141.03L17.4697 144.03L17.5538 144.103C17.8474 144.321 18.2641 144.297 18.5303 144.03L25.5303 137.03L25.6029 136.946C25.8208 136.653 25.7966 136.236 25.5303 135.97C25.2374 135.677 24.7626 135.677 24.4697 135.97Z" fill="#F5F9FF"/>
<path d="M48.5568 136.364V134.818H56.6804V136.364H53.5334V145H51.7038V136.364H48.5568ZM58.3069 145V137.364H60.1066V145H58.3069ZM59.2117 136.28C58.9267 136.28 58.6814 136.185 58.4759 135.996C58.2704 135.804 58.1677 135.574 58.1677 135.305C58.1677 135.034 58.2704 134.803 58.4759 134.614C58.6814 134.422 58.9267 134.326 59.2117 134.326C59.5001 134.326 59.7454 134.422 59.9475 134.614C60.153 134.803 60.2558 135.034 60.2558 135.305C60.2558 135.574 60.153 135.804 59.9475 135.996C59.7454 136.185 59.5001 136.28 59.2117 136.28ZM65.9105 137.364V138.756H61.5206V137.364H65.9105ZM62.6044 135.534H64.4041V142.703C64.4041 142.945 64.4406 143.131 64.5135 143.26C64.5897 143.386 64.6891 143.472 64.8118 143.518C64.9344 143.565 65.0703 143.588 65.2195 143.588C65.3321 143.588 65.4349 143.58 65.5277 143.563C65.6238 143.547 65.6967 143.532 65.7464 143.518L66.0497 144.925C65.9536 144.959 65.816 144.995 65.6371 145.035C65.4614 145.075 65.246 145.098 64.9908 145.104C64.54 145.118 64.134 145.05 63.7727 144.901C63.4115 144.748 63.1248 144.513 62.9126 144.195C62.7038 143.876 62.6011 143.479 62.6044 143.001V135.534ZM69.5194 134.818V145H67.7197V134.818H69.5194ZM74.8908 145.149C74.1252 145.149 73.4639 144.99 72.9071 144.672C72.3536 144.35 71.9277 143.896 71.6294 143.31C71.3311 142.72 71.182 142.025 71.182 141.227C71.182 140.441 71.3311 139.752 71.6294 139.158C71.931 138.562 72.352 138.098 72.8922 137.766C73.4325 137.432 74.0672 137.264 74.7963 137.264C75.267 137.264 75.7111 137.34 76.1287 137.493C76.5496 137.642 76.9209 137.874 77.2424 138.189C77.5672 138.504 77.8224 138.905 78.008 139.392C78.1936 139.876 78.2864 140.453 78.2864 141.122V141.674H72.0272V140.461H76.5612C76.5579 140.116 76.4834 139.81 76.3375 139.541C76.1917 139.269 75.9879 139.056 75.726 138.9C75.4675 138.744 75.1659 138.666 74.8212 138.666C74.4533 138.666 74.1301 138.756 73.8517 138.935C73.5733 139.11 73.3562 139.342 73.2004 139.631C73.048 139.916 72.9701 140.229 72.9668 140.57V141.629C72.9668 142.073 73.048 142.455 73.2104 142.773C73.3728 143.088 73.5998 143.33 73.8915 143.499C74.1832 143.664 74.5245 143.747 74.9156 143.747C75.1775 143.747 75.4145 143.711 75.6266 143.638C75.8387 143.562 76.0227 143.451 76.1784 143.305C76.3342 143.159 76.4519 142.978 76.5314 142.763L78.2118 142.952C78.1057 143.396 77.9036 143.784 77.6053 144.115C77.3103 144.443 76.9325 144.698 76.4718 144.881C76.0111 145.06 75.4841 145.149 74.8908 145.149Z" fill="#1A1B1F"/>
<rect x="9" y="181" width="22" height="22" rx="6" fill="#0052D6"/>
<path d="M24.4697 187.97L18 194.439L15.5303 191.97L15.4462 191.897C15.1526 191.679 14.7359 191.703 14.4697 191.97C14.1768 192.263 14.1768 192.737 14.4697 193.03L17.4697 196.03L17.5538 196.103C17.8474 196.321 18.2641 196.297 18.5303 196.03L25.5303 189.03L25.6029 188.946C25.8208 188.653 25.7966 188.236 25.5303 187.97C25.2374 187.677 24.7626 187.677 24.4697 187.97Z" fill="#F5F9FF"/>
<path d="M48.5568 185.364V183.818H56.6804V185.364H53.5334V194H51.7038V185.364H48.5568ZM58.3069 194V186.364H60.1066V194H58.3069ZM59.2117 185.28C58.9267 185.28 58.6814 185.185 58.4759 184.996C58.2704 184.804 58.1677 184.574 58.1677 184.305C58.1677 184.034 58.2704 183.803 58.4759 183.614C58.6814 183.422 58.9267 183.326 59.2117 183.326C59.5001 183.326 59.7454 183.422 59.9475 183.614C60.153 183.803 60.2558 184.034 60.2558 184.305C60.2558 184.574 60.153 184.804 59.9475 184.996C59.7454 185.185 59.5001 185.28 59.2117 185.28ZM65.9105 186.364V187.756H61.5206V186.364H65.9105ZM62.6044 184.534H64.4041V191.703C64.4041 191.945 64.4406 192.131 64.5135 192.26C64.5897 192.386 64.6891 192.472 64.8118 192.518C64.9344 192.565 65.0703 192.588 65.2195 192.588C65.3321 192.588 65.4349 192.58 65.5277 192.563C65.6238 192.547 65.6967 192.532 65.7464 192.518L66.0497 193.925C65.9536 193.959 65.816 193.995 65.6371 194.035C65.4614 194.075 65.246 194.098 64.9908 194.104C64.54 194.118 64.134 194.05 63.7727 193.901C63.4115 193.748 63.1248 193.513 62.9126 193.195C62.7038 192.876 62.6011 192.479 62.6044 192.001V184.534ZM69.5194 183.818V194H67.7197V183.818H69.5194ZM74.8908 194.149C74.1252 194.149 73.4639 193.99 72.9071 193.672C72.3536 193.35 71.9277 192.896 71.6294 192.31C71.3311 191.72 71.182 191.025 71.182 190.227C71.182 189.441 71.3311 188.752 71.6294 188.158C71.931 187.562 72.352 187.098 72.8922 186.766C73.4325 186.432 74.0672 186.264 74.7963 186.264C75.267 186.264 75.7111 186.34 76.1287 186.493C76.5496 186.642 76.9209 186.874 77.2424 187.189C77.5672 187.504 77.8224 187.905 78.008 188.392C78.1936 188.876 78.2864 189.453 78.2864 190.122V190.674H72.0272V189.461H76.5612C76.5579 189.116 76.4834 188.81 76.3375 188.541C76.1917 188.269 75.9879 188.056 75.726 187.9C75.4675 187.744 75.1659 187.666 74.8212 187.666C74.4533 187.666 74.1301 187.756 73.8517 187.935C73.5733 188.11 73.3562 188.342 73.2004 188.631C73.048 188.916 72.9701 189.229 72.9668 189.57V190.629C72.9668 191.073 73.048 191.455 73.2104 191.773C73.3728 192.088 73.5998 192.33 73.8915 192.499C74.1832 192.664 74.5245 192.747 74.9156 192.747C75.1775 192.747 75.4145 192.711 75.6266 192.638C75.8387 192.562 76.0227 192.451 76.1784 192.305C76.3342 192.159 76.4519 191.978 76.5314 191.763L78.2118 191.952C78.1057 192.396 77.9036 192.784 77.6053 193.115C77.3103 193.443 76.9325 193.698 76.4718 193.881C76.0111 194.06 75.4841 194.149 74.8908 194.149Z" fill="#1A1B1F"/>
<path d="M52.375 216H49.233V205.818H52.5142C53.5019 205.818 54.3471 206.022 55.0497 206.43C55.7524 206.834 56.291 207.416 56.6655 208.175C57.04 208.93 57.2273 209.835 57.2273 210.889C57.2273 211.95 57.0384 212.863 56.6605 213.629C56.2827 214.391 55.7325 214.978 55.0099 215.388C54.2874 215.796 53.4091 216 52.375 216ZM50.4659 214.906H52.2955C53.1373 214.906 53.835 214.744 54.3885 214.419C54.942 214.094 55.3546 213.632 55.6264 213.032C55.8982 212.432 56.0341 211.718 56.0341 210.889C56.0341 210.067 55.8999 209.36 55.6314 208.766C55.3629 208.17 54.9619 207.712 54.4283 207.394C53.8946 207.073 53.2301 206.912 52.4347 206.912H50.4659V214.906ZM62.4781 216.159C61.7423 216.159 61.1076 215.997 60.5739 215.672C60.0436 215.344 59.6343 214.886 59.346 214.3C59.0609 213.71 58.9184 213.024 58.9184 212.241C58.9184 211.459 59.0609 210.77 59.346 210.173C59.6343 209.573 60.0354 209.106 60.5491 208.771C61.0661 208.433 61.6694 208.264 62.3588 208.264C62.7565 208.264 63.1492 208.33 63.537 208.463C63.9248 208.596 64.2778 208.811 64.596 209.109C64.9141 209.404 65.1677 209.795 65.3566 210.283C65.5455 210.77 65.64 211.37 65.64 212.082V212.58H59.7536V211.565H64.4468C64.4468 211.134 64.3606 210.75 64.1883 210.412C64.0193 210.074 63.7773 209.807 63.4624 209.612C63.1509 209.416 62.783 209.318 62.3588 209.318C61.8914 209.318 61.4871 209.434 61.1457 209.666C60.8076 209.895 60.5474 210.193 60.3651 210.561C60.1829 210.929 60.0917 211.323 60.0917 211.744V212.42C60.0917 212.997 60.1911 213.486 60.39 213.887C60.5922 214.285 60.8722 214.588 61.2302 214.797C61.5882 215.002 62.0041 215.105 62.4781 215.105C62.7863 215.105 63.0647 215.062 63.3133 214.976C63.5652 214.886 63.7823 214.754 63.9646 214.578C64.1469 214.399 64.2877 214.177 64.3872 213.912L65.5207 214.23C65.4014 214.615 65.2008 214.953 64.9191 215.244C64.6374 215.533 64.2894 215.758 63.8751 215.92C63.4608 216.08 62.9951 216.159 62.4781 216.159ZM72.9739 210.074L71.9199 210.372C71.8536 210.196 71.7559 210.026 71.6266 209.86C71.5006 209.691 71.3283 209.552 71.1095 209.442C70.8908 209.333 70.6107 209.278 70.2693 209.278C69.802 209.278 69.4126 209.386 69.101 209.602C68.7928 209.814 68.6387 210.084 68.6387 210.412C68.6387 210.704 68.7447 210.934 68.9568 211.103C69.169 211.272 69.5004 211.413 69.9512 211.526L71.0847 211.804C71.7675 211.97 72.2762 212.223 72.611 212.565C72.9457 212.903 73.1131 213.339 73.1131 213.872C73.1131 214.31 72.9872 214.701 72.7353 215.045C72.4867 215.39 72.1387 215.662 71.6912 215.861C71.2438 216.06 70.7234 216.159 70.1301 216.159C69.3513 216.159 68.7066 215.99 68.1962 215.652C67.6858 215.314 67.3626 214.82 67.2267 214.17L68.3404 213.892C68.4464 214.303 68.647 214.611 68.9419 214.817C69.2402 215.022 69.6297 215.125 70.1103 215.125C70.6571 215.125 71.0913 215.009 71.4128 214.777C71.7376 214.542 71.9 214.26 71.9 213.932C71.9 213.667 71.8072 213.445 71.6216 213.266C71.436 213.083 71.151 212.947 70.7665 212.858L69.4938 212.56C68.7944 212.394 68.2807 212.137 67.9526 211.789C67.6278 211.438 67.4654 210.999 67.4654 210.472C67.4654 210.041 67.5863 209.66 67.8283 209.328C68.0736 208.997 68.4067 208.737 68.8276 208.548C69.2518 208.359 69.7324 208.264 70.2693 208.264C71.025 208.264 71.6183 208.43 72.0492 208.761C72.4834 209.093 72.7916 209.53 72.9739 210.074ZM78.1215 216.159C77.4056 216.159 76.7891 215.99 76.2721 215.652C75.755 215.314 75.3573 214.848 75.0789 214.255C74.8005 213.662 74.6613 212.984 74.6613 212.222C74.6613 211.446 74.8038 210.762 75.0889 210.168C75.3772 209.572 75.7783 209.106 76.292 208.771C76.809 208.433 77.4122 208.264 78.1016 208.264C78.6386 208.264 79.1225 208.364 79.5533 208.562C79.9842 208.761 80.3372 209.04 80.6123 209.398C80.8874 209.756 81.0581 210.173 81.1244 210.651H79.9511C79.8616 210.303 79.6627 209.994 79.3545 209.726C79.0496 209.454 78.6386 209.318 78.1215 209.318C77.6641 209.318 77.2631 209.437 76.9184 209.676C76.577 209.911 76.3102 210.245 76.118 210.675C75.9291 211.103 75.8346 211.605 75.8346 212.182C75.8346 212.772 75.9274 213.286 76.113 213.723C76.3019 214.161 76.5671 214.5 76.9085 214.742C77.2532 214.984 77.6575 215.105 78.1215 215.105C78.4265 215.105 78.7032 215.052 78.9518 214.946C79.2004 214.84 79.4108 214.688 79.5832 214.489C79.7555 214.29 79.8782 214.051 79.9511 213.773H81.1244C81.0581 214.223 80.894 214.629 80.6322 214.991C80.3737 215.349 80.0306 215.634 79.6031 215.846C79.1788 216.055 78.685 216.159 78.1215 216.159ZM82.9796 216V208.364H84.1131V209.517H84.1926C84.3318 209.139 84.5837 208.833 84.9483 208.597C85.3129 208.362 85.7239 208.244 86.1813 208.244C86.2674 208.244 86.3752 208.246 86.5044 208.249C86.6337 208.253 86.7315 208.258 86.7978 208.264V209.457C86.758 209.447 86.6668 209.433 86.5243 209.413C86.3851 209.389 86.2376 209.378 86.0818 209.378C85.7106 209.378 85.3792 209.456 85.0875 209.612C84.7992 209.764 84.5705 209.976 84.4014 210.248C84.2357 210.516 84.1529 210.823 84.1529 211.168V216H82.9796ZM88.3286 216V208.364H89.5018V216H88.3286ZM88.9251 207.091C88.6964 207.091 88.4992 207.013 88.3335 206.857C88.1711 206.701 88.0899 206.514 88.0899 206.295C88.0899 206.077 88.1711 205.889 88.3335 205.734C88.4992 205.578 88.6964 205.5 88.9251 205.5C89.1538 205.5 89.3494 205.578 89.5118 205.734C89.6775 205.889 89.7604 206.077 89.7604 206.295C89.7604 206.514 89.6775 206.701 89.5118 206.857C89.3494 207.013 89.1538 207.091 88.9251 207.091ZM91.7908 218.864V208.364H92.9243V209.577H93.0635C93.1497 209.444 93.269 209.275 93.4215 209.07C93.5773 208.861 93.7993 208.675 94.0877 208.513C94.3794 208.347 94.7738 208.264 95.2709 208.264C95.9139 208.264 96.4807 208.425 96.9712 208.746C97.4617 209.068 97.8446 209.524 98.1197 210.114C98.3947 210.704 98.5323 211.4 98.5323 212.202C98.5323 213.01 98.3947 213.711 98.1197 214.305C97.8446 214.895 97.4634 215.352 96.9762 215.677C96.489 215.998 95.9272 216.159 95.2908 216.159C94.8003 216.159 94.4075 216.078 94.1126 215.915C93.8176 215.75 93.5905 215.562 93.4314 215.354C93.2724 215.142 93.1497 214.966 93.0635 214.827H92.9641V218.864H91.7908ZM92.9442 212.182C92.9442 212.759 93.0287 213.267 93.1978 213.708C93.3668 214.146 93.6137 214.489 93.9385 214.737C94.2634 214.982 94.6611 215.105 95.1317 215.105C95.6223 215.105 96.0316 214.976 96.3597 214.717C96.6911 214.455 96.9397 214.104 97.1054 213.663C97.2745 213.219 97.359 212.725 97.359 212.182C97.359 211.645 97.2761 211.161 97.1104 210.73C96.948 210.296 96.7011 209.953 96.3697 209.701C96.0415 209.446 95.6289 209.318 95.1317 209.318C94.6545 209.318 94.2534 209.439 93.9286 209.681C93.6038 209.92 93.3585 210.254 93.1928 210.685C93.0271 211.113 92.9442 211.612 92.9442 212.182ZM103.783 208.364V209.358H99.8257V208.364H103.783ZM100.979 206.534H102.152V213.812C102.152 214.144 102.2 214.393 102.297 214.558C102.396 214.721 102.522 214.83 102.674 214.886C102.83 214.939 102.994 214.966 103.167 214.966C103.296 214.966 103.402 214.959 103.485 214.946C103.568 214.929 103.634 214.916 103.684 214.906L103.922 215.96C103.843 215.99 103.732 216.02 103.589 216.05C103.447 216.083 103.266 216.099 103.047 216.099C102.716 216.099 102.391 216.028 102.073 215.886C101.758 215.743 101.496 215.526 101.287 215.234C101.082 214.943 100.979 214.575 100.979 214.131V206.534ZM105.688 216V208.364H106.861V216H105.688ZM106.285 207.091C106.056 207.091 105.859 207.013 105.693 206.857C105.531 206.701 105.449 206.514 105.449 206.295C105.449 206.077 105.531 205.889 105.693 205.734C105.859 205.578 106.056 205.5 106.285 205.5C106.513 205.5 106.709 205.578 106.871 205.734C107.037 205.889 107.12 206.077 107.12 206.295C107.12 206.514 107.037 206.701 106.871 206.857C106.709 207.013 106.513 207.091 106.285 207.091ZM112.253 216.159C111.563 216.159 110.958 215.995 110.438 215.667C109.921 215.339 109.517 214.88 109.225 214.29C108.936 213.7 108.792 213.01 108.792 212.222C108.792 211.426 108.936 210.732 109.225 210.138C109.517 209.545 109.921 209.085 110.438 208.756C110.958 208.428 111.563 208.264 112.253 208.264C112.942 208.264 113.545 208.428 114.062 208.756C114.583 209.085 114.987 209.545 115.275 210.138C115.567 210.732 115.713 211.426 115.713 212.222C115.713 213.01 115.567 213.7 115.275 214.29C114.987 214.88 114.583 215.339 114.062 215.667C113.545 215.995 112.942 216.159 112.253 216.159ZM112.253 215.105C112.776 215.105 113.207 214.971 113.545 214.702C113.883 214.434 114.133 214.081 114.296 213.643C114.458 213.206 114.539 212.732 114.539 212.222C114.539 211.711 114.458 211.236 114.296 210.795C114.133 210.354 113.883 209.998 113.545 209.726C113.207 209.454 112.776 209.318 112.253 209.318C111.729 209.318 111.298 209.454 110.96 209.726C110.622 209.998 110.372 210.354 110.209 210.795C110.047 211.236 109.966 211.711 109.966 212.222C109.966 212.732 110.047 213.206 110.209 213.643C110.372 214.081 110.622 214.434 110.96 214.702C111.298 214.971 111.729 215.105 112.253 215.105ZM118.817 211.406V216H117.644V208.364H118.777V209.557H118.877C119.056 209.169 119.327 208.857 119.692 208.622C120.057 208.384 120.527 208.264 121.104 208.264C121.621 208.264 122.073 208.37 122.461 208.582C122.849 208.791 123.151 209.109 123.366 209.537C123.582 209.961 123.689 210.498 123.689 211.148V216H122.516V211.227C122.516 210.627 122.36 210.16 122.049 209.825C121.737 209.487 121.31 209.318 120.766 209.318C120.391 209.318 120.057 209.399 119.762 209.562C119.47 209.724 119.24 209.961 119.071 210.273C118.902 210.584 118.817 210.962 118.817 211.406Z" fill="#1A1B1F" fill-opacity="0.7"/>
</svg>
