<svg width="472" height="64" viewBox="0 0 472 64" fill="none" xmlns="http://www.w3.org/2000/svg">
<rect width="472" height="64" rx="16" fill="#F9FAFB"/>
<path d="M35.5 37C36.3284 37 37 37.6716 37 38.5C37 39.3284 36.3284 40 35.5 40C34.6716 40 34 39.3284 34 38.5C34 37.6716 34.6716 37 35.5 37ZM28.5 37C29.3284 37 30 37.6716 30 38.5C30 39.3284 29.3284 40 28.5 40C27.6716 40 27 39.3284 27 38.5C27 37.6716 27.6716 37 28.5 37ZM35.5 30C36.3284 30 37 30.6716 37 31.5C37 32.3284 36.3284 33 35.5 33C34.6716 33 34 32.3284 34 31.5C34 30.6716 34.6716 30 35.5 30ZM28.5 30C29.3284 30 30 30.6716 30 31.5C30 32.3284 29.3284 33 28.5 33C27.6716 33 27 32.3284 27 31.5C27 30.6716 27.6716 30 28.5 30ZM35.5 23C36.3284 23 37 23.6716 37 24.5C37 25.3284 36.3284 26 35.5 26C34.6716 26 34 25.3284 34 24.5C34 23.6716 34.6716 23 35.5 23ZM28.5 23C29.3284 23 30 23.6716 30 24.5C30 25.3284 29.3284 26 28.5 26C27.6716 26 27 25.3284 27 24.5C27 23.6716 27.6716 23 28.5 23Z" fill="#212121"/>
<path d="M77.0909 38H73.1477V26.3636H77.1705C78.3258 26.3636 79.3182 26.5966 80.1477 27.0625C80.9811 27.5246 81.6212 28.1894 82.0682 29.0568C82.5152 29.9242 82.7386 30.9621 82.7386 32.1705C82.7386 33.3826 82.5133 34.4242 82.0625 35.2955C81.6155 36.1667 80.9697 36.8352 80.125 37.3011C79.2841 37.767 78.2727 38 77.0909 38ZM75.2557 36.1761H76.9886C77.7992 36.1761 78.4754 36.0284 79.017 35.733C79.5587 35.4337 79.9659 34.9886 80.2386 34.3977C80.5114 33.803 80.6477 33.0606 80.6477 32.1705C80.6477 31.2803 80.5114 30.5417 80.2386 29.9545C79.9659 29.3636 79.5625 28.9223 79.0284 28.6307C78.4981 28.3352 77.839 28.1875 77.0511 28.1875H75.2557V36.1761ZM88.5142 38.1705C87.6392 38.1705 86.8835 37.9886 86.2472 37.625C85.6146 37.2576 85.1278 36.7386 84.7869 36.0682C84.446 35.3939 84.2756 34.6004 84.2756 33.6875C84.2756 32.7898 84.446 32.0019 84.7869 31.3239C85.1316 30.642 85.6127 30.1117 86.2301 29.733C86.8475 29.3504 87.5729 29.1591 88.4062 29.1591C88.9441 29.1591 89.4517 29.2462 89.929 29.4205C90.41 29.5909 90.8343 29.8561 91.2017 30.2159C91.5729 30.5758 91.8646 31.0341 92.0767 31.5909C92.2888 32.1439 92.3949 32.803 92.3949 33.5682V34.1989H85.2415V32.8125H90.4233C90.4195 32.4186 90.3343 32.0682 90.1676 31.7614C90.0009 31.4508 89.768 31.2064 89.4688 31.0284C89.1733 30.8504 88.8286 30.7614 88.4347 30.7614C88.0142 30.7614 87.6449 30.8636 87.3267 31.0682C87.0085 31.2689 86.7604 31.5341 86.5824 31.8636C86.4081 32.1894 86.3191 32.5473 86.3153 32.9375V34.1477C86.3153 34.6553 86.4081 35.0909 86.5938 35.4545C86.7794 35.8144 87.0388 36.0909 87.3722 36.2841C87.7055 36.4735 88.0956 36.5682 88.5426 36.5682C88.8419 36.5682 89.1127 36.5265 89.3551 36.4432C89.5975 36.3561 89.8078 36.2292 89.9858 36.0625C90.1638 35.8958 90.2983 35.6894 90.3892 35.4432L92.3097 35.6591C92.1884 36.1667 91.9574 36.6098 91.6165 36.9886C91.2794 37.3636 90.8475 37.6553 90.321 37.8636C89.7945 38.0682 89.1922 38.1705 88.5142 38.1705ZM101.033 31.5795L99.1577 31.7841C99.1046 31.5947 99.0118 31.4167 98.8793 31.25C98.7505 31.0833 98.5762 30.9489 98.3565 30.8466C98.1368 30.7443 97.8679 30.6932 97.5497 30.6932C97.1217 30.6932 96.7618 30.786 96.4702 30.9716C96.1823 31.1572 96.0402 31.3977 96.044 31.6932C96.0402 31.947 96.133 32.1534 96.3224 32.3125C96.5156 32.4716 96.8338 32.6023 97.277 32.7045L98.7656 33.0227C99.5914 33.2008 100.205 33.483 100.607 33.8693C101.012 34.2557 101.216 34.7614 101.22 35.3864C101.216 35.9356 101.055 36.4205 100.737 36.8409C100.423 37.2576 99.9853 37.5833 99.4247 37.8182C98.8641 38.053 98.2202 38.1705 97.4929 38.1705C96.4247 38.1705 95.5649 37.947 94.9134 37.5C94.2618 37.0492 93.8736 36.4223 93.7486 35.6193L95.7543 35.4261C95.8452 35.8201 96.0384 36.1174 96.3338 36.3182C96.6293 36.5189 97.0137 36.6193 97.4872 36.6193C97.9759 36.6193 98.3679 36.5189 98.6634 36.3182C98.9626 36.1174 99.1122 35.8693 99.1122 35.5739C99.1122 35.3239 99.0156 35.1174 98.8224 34.9545C98.633 34.7917 98.3376 34.6667 97.9361 34.5795L96.4474 34.267C95.6103 34.0928 94.991 33.7992 94.5895 33.3864C94.188 32.9697 93.9891 32.4432 93.9929 31.8068C93.9891 31.2689 94.1349 30.803 94.4304 30.4091C94.7296 30.0114 95.1444 29.7045 95.6747 29.4886C96.2088 29.2689 96.8243 29.1591 97.5213 29.1591C98.544 29.1591 99.349 29.3769 99.9361 29.8125C100.527 30.2481 100.893 30.8371 101.033 31.5795ZM106.723 38.1705C105.852 38.1705 105.104 37.9792 104.479 37.5966C103.857 37.214 103.378 36.6856 103.041 36.0114C102.708 35.3333 102.541 34.553 102.541 33.6705C102.541 32.7841 102.712 32.0019 103.053 31.3239C103.393 30.642 103.875 30.1117 104.496 29.733C105.121 29.3504 105.859 29.1591 106.712 29.1591C107.42 29.1591 108.047 29.2898 108.592 29.5511C109.142 29.8087 109.579 30.1742 109.905 30.6477C110.231 31.1174 110.416 31.6667 110.462 32.2955H108.496C108.416 31.875 108.227 31.5246 107.928 31.2443C107.632 30.9602 107.236 30.8182 106.74 30.8182C106.32 30.8182 105.95 30.9318 105.632 31.1591C105.314 31.3826 105.066 31.7045 104.888 32.125C104.714 32.5455 104.626 33.0492 104.626 33.6364C104.626 34.2311 104.714 34.7424 104.888 35.1705C105.062 35.5947 105.306 35.9223 105.621 36.1534C105.939 36.3807 106.312 36.4943 106.74 36.4943C107.043 36.4943 107.314 36.4375 107.553 36.3239C107.795 36.2064 107.998 36.0379 108.161 35.8182C108.323 35.5985 108.435 35.3314 108.496 35.017H110.462C110.412 35.6345 110.231 36.1818 109.916 36.6591C109.602 37.1326 109.174 37.5038 108.632 37.7727C108.09 38.0379 107.454 38.1705 106.723 38.1705ZM112.151 38V29.2727H114.145V30.7273H114.236C114.395 30.2235 114.668 29.8352 115.054 29.5625C115.444 29.286 115.889 29.1477 116.389 29.1477C116.503 29.1477 116.63 29.1534 116.77 29.1648C116.914 29.1723 117.033 29.1856 117.128 29.2045V31.0966C117.041 31.0663 116.902 31.0398 116.713 31.017C116.527 30.9905 116.348 30.9773 116.173 30.9773C115.798 30.9773 115.461 31.0587 115.162 31.2216C114.866 31.3807 114.634 31.6023 114.463 31.8864C114.293 32.1705 114.207 32.4981 114.207 32.8693V38H112.151ZM118.494 38V29.2727H120.551V38H118.494ZM119.528 28.0341C119.203 28.0341 118.922 27.9261 118.688 27.7102C118.453 27.4905 118.335 27.2273 118.335 26.9205C118.335 26.6098 118.453 26.3466 118.688 26.1307C118.922 25.911 119.203 25.8011 119.528 25.8011C119.858 25.8011 120.138 25.911 120.369 26.1307C120.604 26.3466 120.722 26.6098 120.722 26.9205C120.722 27.2273 120.604 27.4905 120.369 27.7102C120.138 27.9261 119.858 28.0341 119.528 28.0341ZM122.666 41.2727V29.2727H124.689V30.7159H124.808C124.914 30.5038 125.064 30.2784 125.257 30.0398C125.45 29.7973 125.712 29.5909 126.041 29.4205C126.371 29.2462 126.791 29.1591 127.303 29.1591C127.977 29.1591 128.585 29.3314 129.126 29.6761C129.672 30.017 130.104 30.5227 130.422 31.1932C130.744 31.8598 130.905 32.678 130.905 33.6477C130.905 34.6061 130.748 35.4205 130.433 36.0909C130.119 36.7614 129.691 37.2727 129.149 37.625C128.607 37.9773 127.994 38.1534 127.308 38.1534C126.808 38.1534 126.393 38.0701 126.064 37.9034C125.734 37.7367 125.469 37.536 125.268 37.3011C125.071 37.0625 124.918 36.8371 124.808 36.625H124.723V41.2727H122.666ZM124.683 33.6364C124.683 34.2008 124.763 34.6951 124.922 35.1193C125.085 35.5436 125.318 35.875 125.621 36.1136C125.928 36.3485 126.299 36.4659 126.734 36.4659C127.189 36.4659 127.57 36.3447 127.876 36.1023C128.183 35.8561 128.414 35.5208 128.57 35.0966C128.729 34.6686 128.808 34.1818 128.808 33.6364C128.808 33.0947 128.731 32.6136 128.575 32.1932C128.42 31.7727 128.189 31.4432 127.882 31.2045C127.575 30.9659 127.193 30.8466 126.734 30.8466C126.295 30.8466 125.922 30.9621 125.615 31.1932C125.308 31.4242 125.075 31.7481 124.916 32.1648C124.761 32.5814 124.683 33.072 124.683 33.6364ZM137.024 29.2727V30.8636H132.007V29.2727H137.024ZM133.246 27.1818H135.303V35.375C135.303 35.6515 135.344 35.8636 135.428 36.0114C135.515 36.1553 135.628 36.2538 135.768 36.3068C135.909 36.3598 136.064 36.3864 136.234 36.3864C136.363 36.3864 136.481 36.3769 136.587 36.358C136.696 36.339 136.78 36.322 136.837 36.3068L137.183 37.9148C137.073 37.9527 136.916 37.9943 136.712 38.0398C136.511 38.0852 136.265 38.1117 135.973 38.1193C135.458 38.1345 134.994 38.0568 134.581 37.8864C134.168 37.7121 133.84 37.4432 133.598 37.0795C133.359 36.7159 133.242 36.2614 133.246 35.7159V27.1818ZM138.744 38V29.2727H140.801V38H138.744ZM139.778 28.0341C139.453 28.0341 139.172 27.9261 138.938 27.7102C138.703 27.4905 138.585 27.2273 138.585 26.9205C138.585 26.6098 138.703 26.3466 138.938 26.1307C139.172 25.911 139.453 25.8011 139.778 25.8011C140.108 25.8011 140.388 25.911 140.619 26.1307C140.854 26.3466 140.972 26.6098 140.972 26.9205C140.972 27.2273 140.854 27.4905 140.619 27.7102C140.388 27.9261 140.108 28.0341 139.778 28.0341ZM146.723 38.1705C145.871 38.1705 145.132 37.983 144.507 37.608C143.882 37.233 143.397 36.7083 143.053 36.0341C142.712 35.3598 142.541 34.572 142.541 33.6705C142.541 32.7689 142.712 31.9792 143.053 31.3011C143.397 30.6231 143.882 30.0966 144.507 29.7216C145.132 29.3466 145.871 29.1591 146.723 29.1591C147.575 29.1591 148.314 29.3466 148.939 29.7216C149.564 30.0966 150.047 30.6231 150.388 31.3011C150.732 31.9792 150.905 32.7689 150.905 33.6705C150.905 34.572 150.732 35.3598 150.388 36.0341C150.047 36.7083 149.564 37.233 148.939 37.608C148.314 37.983 147.575 38.1705 146.723 38.1705ZM146.734 36.5227C147.196 36.5227 147.583 36.3958 147.893 36.142C148.204 35.8845 148.435 35.5398 148.587 35.108C148.742 34.6761 148.82 34.1951 148.82 33.6648C148.82 33.1307 148.742 32.6477 148.587 32.2159C148.435 31.7803 148.204 31.4337 147.893 31.1761C147.583 30.9186 147.196 30.7898 146.734 30.7898C146.261 30.7898 145.867 30.9186 145.553 31.1761C145.242 31.4337 145.009 31.7803 144.854 32.2159C144.702 32.6477 144.626 33.1307 144.626 33.6648C144.626 34.1951 144.702 34.6761 144.854 35.108C145.009 35.5398 145.242 35.8845 145.553 36.142C145.867 36.3958 146.261 36.5227 146.734 36.5227ZM154.707 32.8864V38H152.651V29.2727H154.616V30.7557H154.719C154.92 30.267 155.24 29.8788 155.679 29.5909C156.122 29.303 156.67 29.1591 157.321 29.1591C157.923 29.1591 158.448 29.2879 158.895 29.5455C159.346 29.803 159.694 30.1761 159.94 30.6648C160.19 31.1534 160.313 31.7462 160.31 32.4432V38H158.253V32.7614C158.253 32.178 158.101 31.7216 157.798 31.392C157.499 31.0625 157.084 30.8977 156.554 30.8977C156.194 30.8977 155.874 30.9773 155.594 31.1364C155.317 31.2917 155.099 31.517 154.94 31.8125C154.785 32.108 154.707 32.4659 154.707 32.8864ZM171.08 26.3636V38H168.972V28.4148H168.903L166.182 30.1534V28.2216L169.074 26.3636H171.08Z" fill="#1A1B1F"/>
<rect x="416" y="20" width="40" height="24" rx="12" fill="#0052D6"/>
<rect x="434" y="22" width="20" height="20" rx="10" fill="white"/>
<path d="M450.046 27.4856C450.33 27.787 450.316 28.2617 450.014 28.5458L442.085 36.0197C441.748 36.3366 441.22 36.3269 440.896 35.9977L438.216 33.2774C437.925 32.9823 437.929 32.5075 438.224 32.2167C438.519 31.926 438.994 31.9295 439.284 32.2246L441.518 34.4921L448.986 27.4542C449.287 27.1701 449.762 27.1842 450.046 27.4856Z" fill="#0052D6"/>
</svg>
