<svg width="327" height="73" viewBox="0 0 327 73" fill="none" xmlns="http://www.w3.org/2000/svg">
<mask id="path-1-inside-1_9271_7770" fill="white">
<path d="M0 0H327V73H0V0Z"/>
</mask>
<path d="M327 71H0V75H327V71Z" fill="#0052D6" mask="url(#path-1-inside-1_9271_7770)"/>
<path d="M24.6761 19.9119V18.8182H32.3125V19.9119H29.1108V29H27.8778V19.9119H24.6761ZM36.1911 29.1591C35.5017 29.1591 34.8969 28.995 34.3765 28.6669C33.8595 28.3388 33.4551 27.8797 33.1634 27.2898C32.8751 26.6998 32.7309 26.0104 32.7309 25.2216C32.7309 24.4261 32.8751 23.7318 33.1634 23.1385C33.4551 22.5452 33.8595 22.0845 34.3765 21.7564C34.8969 21.4283 35.5017 21.2642 36.1911 21.2642C36.8805 21.2642 37.4838 21.4283 38.0008 21.7564C38.5212 22.0845 38.9255 22.5452 39.2139 23.1385C39.5055 23.7318 39.6514 24.4261 39.6514 25.2216C39.6514 26.0104 39.5055 26.6998 39.2139 27.2898C38.9255 27.8797 38.5212 28.3388 38.0008 28.6669C37.4838 28.995 36.8805 29.1591 36.1911 29.1591ZM36.1911 28.1051C36.7148 28.1051 37.1457 27.9709 37.4838 27.7024C37.8218 27.4339 38.0721 27.081 38.2345 26.6435C38.3969 26.206 38.4781 25.732 38.4781 25.2216C38.4781 24.7112 38.3969 24.2356 38.2345 23.7947C38.0721 23.3539 37.8218 22.9976 37.4838 22.7259C37.1457 22.4541 36.7148 22.3182 36.1911 22.3182C35.6675 22.3182 35.2366 22.4541 34.8985 22.7259C34.5605 22.9976 34.3102 23.3539 34.1478 23.7947C33.9854 24.2356 33.9042 24.7112 33.9042 25.2216C33.9042 25.732 33.9854 26.206 34.1478 26.6435C34.3102 27.081 34.5605 27.4339 34.8985 27.7024C35.2366 27.9709 35.6675 28.1051 36.1911 28.1051Z" fill="#878B92"/>
<rect x="49" y="7" width="170" height="32" rx="8" fill="#EBEFF4"/>
<path d="M61.9247 28V20.3636H63.6449V21.6612H63.7344C63.8935 21.2237 64.157 20.8823 64.5249 20.6371C64.8928 20.3885 65.3319 20.2642 65.8423 20.2642C66.3594 20.2642 66.7952 20.3902 67.1499 20.642C67.5078 20.8906 67.7597 21.2304 67.9055 21.6612H67.9851C68.1541 21.237 68.4392 20.8989 68.8402 20.647C69.2446 20.3918 69.7235 20.2642 70.277 20.2642C70.9796 20.2642 71.553 20.4863 71.9972 20.9304C72.4413 21.3745 72.6634 22.0225 72.6634 22.8743V28H70.8587V23.1527C70.8587 22.6787 70.7327 22.3324 70.4808 22.1136C70.2289 21.8916 69.9207 21.7805 69.5561 21.7805C69.1219 21.7805 68.7822 21.9164 68.5369 22.1882C68.295 22.4567 68.174 22.8063 68.174 23.2372V28H66.4091V23.0781C66.4091 22.6837 66.2898 22.3688 66.0511 22.1335C65.8158 21.8982 65.5076 21.7805 65.1264 21.7805C64.8679 21.7805 64.6326 21.8468 64.4205 21.9794C64.2083 22.1087 64.0393 22.2926 63.9134 22.5312C63.7874 22.7666 63.7244 23.0417 63.7244 23.3565V28H61.9247ZM74.6292 28V20.3636H76.4289V28H74.6292ZM75.534 19.2798C75.249 19.2798 75.0037 19.1854 74.7982 18.9964C74.5927 18.8042 74.49 18.5739 74.49 18.3054C74.49 18.0336 74.5927 17.8033 74.7982 17.6143C75.0037 17.4221 75.249 17.326 75.534 17.326C75.8224 17.326 76.0676 17.4221 76.2698 17.6143C76.4753 17.8033 76.578 18.0336 76.578 18.3054C76.578 18.5739 76.4753 18.8042 76.2698 18.9964C76.0676 19.1854 75.8224 19.2798 75.534 19.2798ZM80.0602 25.6037L80.0552 23.4311H80.3436L83.0879 20.3636H85.1909L81.8152 24.1222H81.4423L80.0602 25.6037ZM78.4196 28V17.8182H80.2193V28H78.4196ZM83.2122 28L80.7264 24.5249L81.9394 23.2571L85.3649 28H83.2122ZM89.5965 28.1491C88.8309 28.1491 88.1696 27.9901 87.6128 27.6719C87.0593 27.3504 86.6334 26.8963 86.3351 26.3097C86.0368 25.7197 85.8877 25.0253 85.8877 24.2266C85.8877 23.4411 86.0368 22.7517 86.3351 22.1584C86.6367 21.5618 87.0577 21.0978 87.5979 20.7663C88.1382 20.4316 88.7729 20.2642 89.502 20.2642C89.9727 20.2642 90.4168 20.3404 90.8344 20.4929C91.2553 20.642 91.6266 20.8741 91.9481 21.1889C92.2729 21.5038 92.5281 21.9048 92.7137 22.392C92.8993 22.8759 92.9921 23.4527 92.9921 24.1222V24.674H86.7329V23.4609H91.2669C91.2636 23.1162 91.1891 22.8097 91.0432 22.5412C90.8974 22.2694 90.6936 22.0556 90.4317 21.8999C90.1732 21.7441 89.8716 21.6662 89.5269 21.6662C89.159 21.6662 88.8358 21.7557 88.5574 21.9347C88.279 22.1103 88.0619 22.3423 87.9062 22.6307C87.7537 22.9157 87.6758 23.2289 87.6725 23.5703V24.6293C87.6725 25.0734 87.7537 25.4545 87.9161 25.7727C88.0785 26.0876 88.3055 26.3295 88.5972 26.4986C88.8889 26.6643 89.2303 26.7472 89.6213 26.7472C89.8832 26.7472 90.1202 26.7107 90.3323 26.6378C90.5444 26.5616 90.7284 26.4505 90.8841 26.3047C91.0399 26.1589 91.1576 25.9782 91.2371 25.7628L92.9175 25.9517C92.8115 26.3958 92.6093 26.7836 92.311 27.1151C92.016 27.4432 91.6382 27.6984 91.1775 27.8807C90.7168 28.0597 90.1898 28.1491 89.5965 28.1491ZM98.2889 28.1392C97.573 28.1392 96.9366 28.0166 96.3798 27.7713C95.8263 27.526 95.3888 27.1847 95.0673 26.7472C94.7458 26.3097 94.5751 25.8042 94.5552 25.2308H96.4245C96.4411 25.5059 96.5322 25.7462 96.698 25.9517C96.8637 26.1539 97.0841 26.3113 97.3592 26.424C97.6343 26.5367 97.9425 26.593 98.2839 26.593C98.6485 26.593 98.9716 26.5301 99.2534 26.4041C99.5351 26.2749 99.7555 26.0959 99.9146 25.8672C100.074 25.6385 100.152 25.375 100.148 25.0767C100.152 24.7685 100.072 24.4967 99.9096 24.2614C99.7472 24.026 99.5119 23.8421 99.2036 23.7095C98.8987 23.5769 98.5308 23.5107 98.1 23.5107H97.2001V22.0888H98.1C98.4546 22.0888 98.7645 22.0275 99.0296 21.9048C99.2981 21.7822 99.5086 21.6098 99.661 21.3878C99.8135 21.1624 99.8881 20.9022 99.8848 20.6072C99.8881 20.3189 99.8234 20.0687 99.6909 19.8565C99.5616 19.6411 99.3777 19.4737 99.139 19.3544C98.9037 19.2351 98.6269 19.1754 98.3088 19.1754C97.9972 19.1754 97.7089 19.2318 97.4437 19.3445C97.1786 19.4571 96.9648 19.6179 96.8024 19.8267C96.64 20.0322 96.5538 20.2775 96.5438 20.5625H94.769C94.7822 19.9924 94.9463 19.492 95.2612 19.0611C95.5794 18.6269 96.0036 18.2888 96.5339 18.0469C97.0642 17.8016 97.6591 17.679 98.3187 17.679C98.9982 17.679 99.5881 17.8066 100.089 18.0618C100.592 18.3137 100.982 18.6534 101.257 19.081C101.532 19.5085 101.67 19.9808 101.67 20.4979C101.673 21.0713 101.504 21.5518 101.162 21.9396C100.824 22.3274 100.38 22.581 99.8301 22.7003V22.7798C100.546 22.8793 101.095 23.1444 101.476 23.5753C101.86 24.0028 102.051 24.5348 102.047 25.1712C102.047 25.7412 101.885 26.2517 101.56 26.7024C101.239 27.1499 100.795 27.5012 100.228 27.7564C99.6643 28.0116 99.018 28.1392 98.2889 28.1392ZM103.894 28V26.6676L107.429 23.2024C107.767 22.861 108.048 22.5578 108.274 22.2926C108.499 22.0275 108.668 21.7706 108.781 21.522C108.894 21.2734 108.95 21.0083 108.95 20.7266C108.95 20.4051 108.877 20.13 108.731 19.9013C108.585 19.6693 108.385 19.4903 108.13 19.3643C107.874 19.2384 107.584 19.1754 107.26 19.1754C106.925 19.1754 106.632 19.245 106.38 19.3842C106.128 19.5201 105.932 19.714 105.793 19.9659C105.657 20.2178 105.589 20.5178 105.589 20.8658H103.834C103.834 20.2195 103.982 19.6577 104.277 19.1804C104.572 18.7031 104.978 18.3336 105.495 18.0717C106.015 17.8099 106.612 17.679 107.285 17.679C107.967 17.679 108.567 17.8066 109.084 18.0618C109.601 18.317 110.002 18.6667 110.287 19.1108C110.576 19.5549 110.72 20.062 110.72 20.6321C110.72 21.0133 110.647 21.3878 110.501 21.7557C110.355 22.1236 110.098 22.5312 109.731 22.9787C109.366 23.4261 108.854 23.968 108.194 24.6044L106.439 26.3892V26.4588H110.874V28H103.894ZM119.148 30.8537C118.103 30.8537 117.175 30.7112 116.363 30.4261C115.555 30.1444 114.872 29.7285 114.315 29.1783C113.758 28.6314 113.336 27.9635 113.047 27.1747C112.759 26.3859 112.613 25.4844 112.61 24.4702C112.613 23.4792 112.761 22.5859 113.052 21.7905C113.344 20.9917 113.77 20.3089 114.33 19.7422C114.89 19.1721 115.575 18.7346 116.383 18.4297C117.192 18.1248 118.112 17.9723 119.143 17.9723C120.114 17.9723 120.974 18.1198 121.723 18.4148C122.475 18.7098 123.11 19.1207 123.627 19.6477C124.147 20.1714 124.54 20.7846 124.805 21.4872C125.074 22.1866 125.208 22.9455 125.208 23.7642C125.208 24.331 125.165 24.8679 125.079 25.375C124.992 25.8788 124.845 26.3262 124.636 26.7173C124.431 27.1084 124.151 27.42 123.796 27.652C123.441 27.8807 122.997 28.005 122.464 28.0249C122.129 28.0414 121.836 28.0099 121.584 27.9304C121.332 27.8509 121.128 27.7266 120.972 27.5575C120.82 27.3852 120.724 27.1747 120.684 26.9261H120.624C120.548 27.125 120.404 27.3073 120.192 27.473C119.983 27.6354 119.724 27.763 119.416 27.8558C119.108 27.9453 118.765 27.9818 118.387 27.9652C117.983 27.9453 117.608 27.8525 117.263 27.6868C116.922 27.5178 116.624 27.2824 116.368 26.9808C116.117 26.6759 115.921 26.308 115.782 25.8771C115.643 25.4463 115.573 24.9574 115.573 24.4105C115.573 23.8769 115.649 23.4062 115.802 22.9986C115.954 22.5909 116.158 22.2429 116.413 21.9545C116.672 21.6662 116.963 21.4408 117.288 21.2784C117.613 21.1127 117.948 21.0066 118.292 20.9602C118.65 20.9105 118.987 20.9155 119.302 20.9751C119.617 21.0348 119.878 21.1259 120.087 21.2486C120.299 21.3712 120.432 21.5054 120.485 21.6513H120.554V21.0945H121.942V25.8274C121.945 26.076 122.005 26.2765 122.121 26.429C122.24 26.5814 122.406 26.6577 122.618 26.6577C122.883 26.6577 123.097 26.5533 123.259 26.3445C123.425 26.1323 123.544 25.8075 123.617 25.37C123.693 24.9292 123.73 24.3658 123.726 23.6797C123.73 23.1162 123.655 22.6058 123.503 22.1484C123.353 21.6877 123.141 21.2834 122.866 20.9354C122.591 20.5874 122.261 20.2973 121.877 20.0653C121.496 19.83 121.072 19.6527 120.604 19.5334C120.137 19.4141 119.638 19.3544 119.108 19.3544C118.296 19.3544 117.581 19.4787 116.965 19.7273C116.349 19.9725 115.831 20.3222 115.414 20.7763C115 21.2304 114.686 21.7689 114.474 22.392C114.265 23.0118 114.161 23.6979 114.161 24.4503C114.161 25.2557 114.27 25.9699 114.489 26.593C114.711 27.2128 115.036 27.7348 115.464 28.1591C115.891 28.5833 116.42 28.9048 117.05 29.1236C117.683 29.3423 118.41 29.4517 119.232 29.4517C119.61 29.4517 119.979 29.4219 120.341 29.3622C120.702 29.3026 121.027 29.233 121.315 29.1534C121.603 29.0739 121.826 29.0043 121.981 28.9446L122.404 30.2074C122.198 30.3134 121.92 30.4162 121.569 30.5156C121.221 30.6151 120.836 30.6963 120.415 30.7592C119.998 30.8222 119.575 30.8537 119.148 30.8537ZM118.8 26.5384C119.22 26.5384 119.557 26.4571 119.809 26.2947C120.061 26.129 120.241 25.8838 120.351 25.5589C120.46 25.2341 120.513 24.8298 120.51 24.3459C120.51 23.8951 120.453 23.5256 120.341 23.2372C120.228 22.9489 120.047 22.7351 119.799 22.5959C119.55 22.4567 119.22 22.3871 118.809 22.3871C118.438 22.3871 118.122 22.4716 117.86 22.6406C117.601 22.8097 117.403 23.0433 117.263 23.3416C117.127 23.6366 117.059 23.973 117.059 24.3509C117.059 24.7287 117.114 25.085 117.224 25.4197C117.336 25.7512 117.519 26.0213 117.77 26.2301C118.026 26.4356 118.369 26.5384 118.8 26.5384ZM132.911 22.3821L131.27 22.5611C131.224 22.3954 131.143 22.2396 131.027 22.0938C130.914 21.9479 130.762 21.8303 130.569 21.7408C130.377 21.6513 130.142 21.6065 129.863 21.6065C129.489 21.6065 129.174 21.6877 128.919 21.8501C128.667 22.0125 128.543 22.223 128.546 22.4815C128.543 22.7036 128.624 22.8842 128.789 23.0234C128.959 23.1626 129.237 23.277 129.625 23.3665L130.927 23.6449C131.65 23.8007 132.187 24.0476 132.538 24.3857C132.893 24.7237 133.072 25.1662 133.075 25.7131C133.072 26.1937 132.931 26.6179 132.652 26.9858C132.377 27.3504 131.995 27.6354 131.504 27.8409C131.013 28.0464 130.45 28.1491 129.814 28.1491C128.879 28.1491 128.127 27.9536 127.557 27.5625C126.986 27.1681 126.647 26.6196 126.537 25.9169L128.292 25.7479C128.372 26.0926 128.541 26.3527 128.799 26.5284C129.058 26.7041 129.394 26.7919 129.809 26.7919C130.236 26.7919 130.579 26.7041 130.838 26.5284C131.1 26.3527 131.231 26.1357 131.231 25.8771C131.231 25.6584 131.146 25.4777 130.977 25.3352C130.811 25.1927 130.553 25.0833 130.201 25.0071L128.899 24.7337C128.166 24.5812 127.624 24.3243 127.273 23.9631C126.922 23.5985 126.748 23.1378 126.751 22.581C126.748 22.1103 126.875 21.7027 127.134 21.358C127.396 21.0099 127.759 20.7415 128.223 20.5526C128.69 20.3603 129.229 20.2642 129.838 20.2642C130.733 20.2642 131.438 20.4548 131.951 20.8359C132.468 21.2171 132.788 21.7325 132.911 22.3821ZM138.03 28.1491C137.284 28.1491 136.638 27.9851 136.091 27.657C135.544 27.3288 135.12 26.8698 134.818 26.2798C134.52 25.6899 134.371 25.0005 134.371 24.2116C134.371 23.4228 134.52 22.7318 134.818 22.1385C135.12 21.5452 135.544 21.0845 136.091 20.7564C136.638 20.4283 137.284 20.2642 138.03 20.2642C138.776 20.2642 139.422 20.4283 139.969 20.7564C140.516 21.0845 140.938 21.5452 141.237 22.1385C141.538 22.7318 141.689 23.4228 141.689 24.2116C141.689 25.0005 141.538 25.6899 141.237 26.2798C140.938 26.8698 140.516 27.3288 139.969 27.657C139.422 27.9851 138.776 28.1491 138.03 28.1491ZM138.04 26.7074C138.444 26.7074 138.782 26.5964 139.054 26.3743C139.326 26.1489 139.528 25.8473 139.661 25.4695C139.797 25.0916 139.864 24.6707 139.864 24.2067C139.864 23.7393 139.797 23.3168 139.661 22.9389C139.528 22.5578 139.326 22.2545 139.054 22.0291C138.782 21.8037 138.444 21.6911 138.04 21.6911C137.626 21.6911 137.281 21.8037 137.006 22.0291C136.734 22.2545 136.53 22.5578 136.394 22.9389C136.262 23.3168 136.195 23.7393 136.195 24.2067C136.195 24.6707 136.262 25.0916 136.394 25.4695C136.53 25.8473 136.734 26.1489 137.006 26.3743C137.281 26.5964 137.626 26.7074 138.04 26.7074ZM147.224 20.3636V21.7557H142.71V20.3636H147.224ZM143.839 28V19.6428C143.839 19.129 143.945 18.7015 144.157 18.3601C144.372 18.0187 144.661 17.7635 145.022 17.5945C145.383 17.4254 145.784 17.3409 146.225 17.3409C146.537 17.3409 146.814 17.3658 147.055 17.4155C147.297 17.4652 147.476 17.5099 147.592 17.5497L147.234 18.9418C147.158 18.9186 147.062 18.8954 146.946 18.8722C146.83 18.8456 146.701 18.8324 146.558 18.8324C146.224 18.8324 145.987 18.9136 145.847 19.076C145.711 19.2351 145.644 19.4638 145.644 19.7621V28H143.839ZM152.587 20.3636V21.7557H148.197V20.3636H152.587ZM149.281 18.5341H151.081V25.7031C151.081 25.9451 151.117 26.1307 151.19 26.2599C151.266 26.3859 151.366 26.4721 151.488 26.5185C151.611 26.5649 151.747 26.5881 151.896 26.5881C152.009 26.5881 152.112 26.5798 152.204 26.5632C152.3 26.5466 152.373 26.5317 152.423 26.5185L152.726 27.9254C152.63 27.9586 152.493 27.995 152.314 28.0348C152.138 28.0746 151.923 28.0978 151.667 28.1044C151.217 28.1177 150.811 28.0497 150.449 27.9006C150.088 27.7481 149.801 27.5128 149.589 27.1946C149.38 26.8764 149.278 26.4787 149.281 26.0014V18.5341ZM155.341 28.1094C155.039 28.1094 154.781 28.0033 154.565 27.7912C154.35 27.5791 154.244 27.3205 154.247 27.0156C154.244 26.7173 154.35 26.4621 154.565 26.25C154.781 26.0379 155.039 25.9318 155.341 25.9318C155.633 25.9318 155.886 26.0379 156.102 26.25C156.32 26.4621 156.431 26.7173 156.435 27.0156C156.431 27.2178 156.378 27.4018 156.276 27.5675C156.176 27.7332 156.044 27.8658 155.878 27.9652C155.715 28.0613 155.537 28.1094 155.341 28.1094ZM161.764 28.1491C161.001 28.1491 160.347 27.9818 159.8 27.647C159.256 27.3123 158.837 26.8499 158.542 26.2599C158.251 25.6667 158.105 24.9839 158.105 24.2116C158.105 23.4361 158.254 22.7517 158.552 22.1584C158.85 21.5618 159.271 21.0978 159.815 20.7663C160.362 20.4316 161.008 20.2642 161.754 20.2642C162.374 20.2642 162.922 20.3786 163.399 20.6072C163.88 20.8326 164.263 21.1525 164.548 21.5668C164.833 21.9777 164.995 22.4583 165.035 23.0085H163.315C163.245 22.6406 163.08 22.334 162.818 22.0888C162.559 21.8402 162.213 21.7159 161.779 21.7159C161.411 21.7159 161.088 21.8153 160.809 22.0142C160.531 22.2098 160.314 22.4915 160.158 22.8594C160.006 23.2273 159.929 23.6681 159.929 24.1818C159.929 24.7022 160.006 25.1496 160.158 25.5241C160.31 25.8954 160.524 26.1821 160.799 26.3842C161.078 26.5831 161.404 26.6825 161.779 26.6825C162.044 26.6825 162.281 26.6328 162.49 26.5334C162.702 26.4306 162.879 26.2831 163.022 26.0909C163.164 25.8987 163.262 25.665 163.315 25.3899H165.035C164.992 25.9302 164.833 26.4091 164.558 26.8267C164.283 27.241 163.908 27.5658 163.434 27.8011C162.96 28.0331 162.403 28.1491 161.764 28.1491ZM169.984 28.1491C169.238 28.1491 168.592 27.9851 168.045 27.657C167.498 27.3288 167.074 26.8698 166.772 26.2798C166.474 25.6899 166.325 25.0005 166.325 24.2116C166.325 23.4228 166.474 22.7318 166.772 22.1385C167.074 21.5452 167.498 21.0845 168.045 20.7564C168.592 20.4283 169.238 20.2642 169.984 20.2642C170.73 20.2642 171.376 20.4283 171.923 20.7564C172.47 21.0845 172.892 21.5452 173.191 22.1385C173.492 22.7318 173.643 23.4228 173.643 24.2116C173.643 25.0005 173.492 25.6899 173.191 26.2798C172.892 26.8698 172.47 27.3288 171.923 27.657C171.376 27.9851 170.73 28.1491 169.984 28.1491ZM169.994 26.7074C170.398 26.7074 170.736 26.5964 171.008 26.3743C171.28 26.1489 171.482 25.8473 171.615 25.4695C171.75 25.0916 171.818 24.6707 171.818 24.2067C171.818 23.7393 171.75 23.3168 171.615 22.9389C171.482 22.5578 171.28 22.2545 171.008 22.0291C170.736 21.8037 170.398 21.6911 169.994 21.6911C169.58 21.6911 169.235 21.8037 168.96 22.0291C168.688 22.2545 168.484 22.5578 168.348 22.9389C168.216 23.3168 168.149 23.7393 168.149 24.2067C168.149 24.6707 168.216 25.0916 168.348 25.4695C168.484 25.8473 168.688 26.1489 168.96 26.3743C169.235 26.5964 169.58 26.7074 169.994 26.7074ZM175.31 28V20.3636H177.031V21.6612H177.12C177.279 21.2237 177.543 20.8823 177.911 20.6371C178.279 20.3885 178.718 20.2642 179.228 20.2642C179.745 20.2642 180.181 20.3902 180.536 20.642C180.894 20.8906 181.145 21.2304 181.291 21.6612H181.371C181.54 21.237 181.825 20.8989 182.226 20.647C182.63 20.3918 183.109 20.2642 183.663 20.2642C184.365 20.2642 184.939 20.4863 185.383 20.9304C185.827 21.3745 186.049 22.0225 186.049 22.8743V28H184.244V23.1527C184.244 22.6787 184.118 22.3324 183.867 22.1136C183.615 21.8916 183.306 21.7805 182.942 21.7805C182.508 21.7805 182.168 21.9164 181.923 22.1882C181.681 22.4567 181.56 22.8063 181.56 23.2372V28H179.795V23.0781C179.795 22.6837 179.676 22.3688 179.437 22.1335C179.202 21.8982 178.893 21.7805 178.512 21.7805C178.254 21.7805 178.018 21.8468 177.806 21.9794C177.594 22.1087 177.425 22.2926 177.299 22.5312C177.173 22.7666 177.11 23.0417 177.11 23.3565V28H175.31Z" fill="#1A1B1F"/>
<path d="M197.397 17.5538L197.47 17.4697C197.736 17.2034 198.153 17.1792 198.446 17.3971L198.53 17.4697L203 21.939L207.47 17.4697C207.763 17.1768 208.237 17.1768 208.53 17.4697C208.823 17.7626 208.823 18.2374 208.53 18.5303L204.061 23L208.53 27.4697C208.797 27.7359 208.821 28.1526 208.603 28.4462L208.53 28.5303C208.264 28.7966 207.847 28.8208 207.554 28.6029L207.47 28.5303L203 24.061L198.53 28.5303C198.237 28.8232 197.763 28.8232 197.47 28.5303C197.177 28.2374 197.177 27.7626 197.47 27.4697L201.939 23L197.47 18.5303C197.203 18.2641 197.179 17.8474 197.397 17.5538L197.47 17.4697L197.397 17.5538Z" fill="#1A1B1F"/>
<path d="M50.0739 61V53.3636H51.2074V54.5568H51.3068C51.4659 54.1491 51.7228 53.8326 52.0774 53.6072C52.4321 53.3786 52.858 53.2642 53.3551 53.2642C53.8589 53.2642 54.2782 53.3786 54.6129 53.6072C54.951 53.8326 55.2145 54.1491 55.4034 54.5568H55.483C55.6785 54.1624 55.9718 53.8492 56.3629 53.6172C56.754 53.3819 57.223 53.2642 57.7699 53.2642C58.4527 53.2642 59.0111 53.478 59.4453 53.9055C59.8795 54.3298 60.0966 54.991 60.0966 55.8892V61H58.9233V55.8892C58.9233 55.3258 58.7692 54.9231 58.4609 54.6811C58.1527 54.4392 57.7898 54.3182 57.3722 54.3182C56.8352 54.3182 56.4193 54.4806 56.1243 54.8054C55.8293 55.1269 55.6818 55.5346 55.6818 56.0284V61H54.4886V55.7699C54.4886 55.3357 54.3478 54.986 54.0661 54.7209C53.7843 54.4524 53.4214 54.3182 52.9773 54.3182C52.6723 54.3182 52.3873 54.3994 52.1222 54.5618C51.8603 54.7242 51.6482 54.9496 51.4858 55.2379C51.3267 55.523 51.2472 55.8527 51.2472 56.2273V61H50.0739ZM62.3818 61V53.3636H63.5551V61H62.3818ZM62.9784 52.0909C62.7497 52.0909 62.5525 52.013 62.3868 51.8572C62.2244 51.7015 62.1432 51.5142 62.1432 51.2955C62.1432 51.0767 62.2244 50.8894 62.3868 50.7337C62.5525 50.5779 62.7497 50.5 62.9784 50.5C63.2071 50.5 63.4027 50.5779 63.5651 50.7337C63.7308 50.8894 63.8137 51.0767 63.8137 51.2955C63.8137 51.5142 63.7308 51.7015 63.5651 51.8572C63.4027 52.013 63.2071 52.0909 62.9784 52.0909ZM66.9378 58.2159L66.918 56.7642H67.1566L70.4975 53.3636H71.9492L68.3896 56.9631H68.2901L66.9378 58.2159ZM65.8441 61V50.8182H67.0174V61H65.8441ZM70.6964 61L67.7134 57.2216L68.5486 56.4062L72.1878 61H70.6964ZM76.4866 61.1591C75.7508 61.1591 75.1161 60.9967 74.5825 60.6719C74.0522 60.3438 73.6428 59.8864 73.3545 59.2997C73.0694 58.7098 72.9269 58.0237 72.9269 57.2415C72.9269 56.4593 73.0694 55.7699 73.3545 55.1733C73.6428 54.5734 74.0439 54.1061 74.5576 53.7713C75.0747 53.4332 75.6779 53.2642 76.3673 53.2642C76.765 53.2642 77.1577 53.3305 77.5455 53.4631C77.9333 53.5956 78.2863 53.8111 78.6045 54.1094C78.9227 54.4044 79.1762 54.7955 79.3651 55.2827C79.5541 55.7699 79.6485 56.3698 79.6485 57.0824V57.5795H73.7622V56.5653H78.4553C78.4553 56.1345 78.3692 55.75 78.1968 55.4119C78.0278 55.0739 77.7858 54.8071 77.471 54.6115C77.1594 54.416 76.7915 54.3182 76.3673 54.3182C75.8999 54.3182 75.4956 54.4342 75.1542 54.6662C74.8161 54.8949 74.5559 55.1932 74.3737 55.5611C74.1914 55.929 74.1002 56.3234 74.1002 56.7443V57.4205C74.1002 57.9972 74.1997 58.486 74.3985 58.8871C74.6007 59.2848 74.8808 59.5881 75.2387 59.7969C75.5967 60.0024 76.0126 60.1051 76.4866 60.1051C76.7948 60.1051 77.0732 60.062 77.3218 59.9759C77.5737 59.8864 77.7908 59.7538 77.9731 59.5781C78.1554 59.3991 78.2962 59.1771 78.3957 58.9119L79.5292 59.2301C79.4099 59.6146 79.2094 59.9527 78.9276 60.2443C78.6459 60.5327 78.2979 60.758 77.8836 60.9205C77.4693 61.0795 77.0036 61.1591 76.4866 61.1591ZM82.4284 61.0795C82.1832 61.0795 81.9727 60.9917 81.797 60.8161C81.6214 60.6404 81.5335 60.4299 81.5335 60.1847C81.5335 59.9394 81.6214 59.7289 81.797 59.5533C81.9727 59.3776 82.1832 59.2898 82.4284 59.2898C82.6737 59.2898 82.8842 59.3776 83.0598 59.5533C83.2355 59.7289 83.3233 59.9394 83.3233 60.1847C83.3233 60.3471 83.2819 60.4962 83.199 60.6321C83.1195 60.768 83.0118 60.8774 82.8759 60.9602C82.7433 61.0398 82.5941 61.0795 82.4284 61.0795ZM85.5688 61V53.3636H86.7023V54.517H86.7819C86.9211 54.1392 87.173 53.8326 87.5375 53.5973C87.9021 53.362 88.3131 53.2443 88.7705 53.2443C88.8567 53.2443 88.9644 53.246 89.0936 53.2493C89.2229 53.2526 89.3207 53.2576 89.387 53.2642V54.4574C89.3472 54.4474 89.256 54.4325 89.1135 54.4126C88.9743 54.3894 88.8268 54.3778 88.6711 54.3778C88.2998 54.3778 87.9684 54.4557 87.6767 54.6115C87.3884 54.764 87.1597 54.9761 86.9907 55.2479C86.8249 55.5163 86.7421 55.8229 86.7421 56.1676V61H85.5688ZM93.7876 61.1591C93.0982 61.1591 92.4934 60.995 91.973 60.6669C91.4559 60.3388 91.0516 59.8797 90.7599 59.2898C90.4716 58.6998 90.3274 58.0104 90.3274 57.2216C90.3274 56.4261 90.4716 55.7318 90.7599 55.1385C91.0516 54.5452 91.4559 54.0845 91.973 53.7564C92.4934 53.4283 93.0982 53.2642 93.7876 53.2642C94.477 53.2642 95.0802 53.4283 95.5973 53.7564C96.1176 54.0845 96.522 54.5452 96.8103 55.1385C97.102 55.7318 97.2478 56.4261 97.2478 57.2216C97.2478 58.0104 97.102 58.6998 96.8103 59.2898C96.522 59.8797 96.1176 60.3388 95.5973 60.6669C95.0802 60.995 94.477 61.1591 93.7876 61.1591ZM93.7876 60.1051C94.3113 60.1051 94.7422 59.9709 95.0802 59.7024C95.4183 59.4339 95.6685 59.081 95.8309 58.6435C95.9934 58.206 96.0746 57.732 96.0746 57.2216C96.0746 56.7112 95.9934 56.2356 95.8309 55.7947C95.6685 55.3539 95.4183 54.9976 95.0802 54.7259C94.7422 54.4541 94.3113 54.3182 93.7876 54.3182C93.2639 54.3182 92.8331 54.4541 92.495 54.7259C92.1569 54.9976 91.9067 55.3539 91.7443 55.7947C91.5819 56.2356 91.5007 56.7112 91.5007 57.2216C91.5007 57.732 91.5819 58.206 91.7443 58.6435C91.9067 59.081 92.1569 59.4339 92.495 59.7024C92.8331 59.9709 93.2639 60.1051 93.7876 60.1051ZM100.649 61L98.3225 53.3636H99.5555L101.206 59.2102H101.286L102.916 53.3636H104.169L105.78 59.1903H105.859L107.51 53.3636H108.743L106.416 61H105.263L103.592 55.1335H103.473L101.803 61H100.649ZM116.301 63.6847C115.286 63.6847 114.39 63.5455 113.611 63.267C112.832 62.992 112.177 62.5859 111.647 62.049C111.117 61.5121 110.716 60.8542 110.444 60.0753C110.172 59.2964 110.036 58.4048 110.036 57.4006C110.036 56.4295 110.174 55.5611 110.449 54.7955C110.727 54.0298 111.13 53.3802 111.657 52.8466C112.187 52.3097 112.83 51.9003 113.586 51.6186C114.345 51.3369 115.204 51.196 116.161 51.196C117.093 51.196 117.908 51.3485 118.607 51.6534C119.31 51.955 119.897 52.3643 120.367 52.8814C120.841 53.3951 121.196 53.9735 121.431 54.6165C121.67 55.2595 121.789 55.9223 121.789 56.6051C121.789 57.0857 121.766 57.5729 121.72 58.0668C121.673 58.5606 121.575 59.0147 121.426 59.429C121.277 59.84 121.047 60.1714 120.735 60.4233C120.427 60.6752 120.009 60.8011 119.482 60.8011C119.25 60.8011 118.995 60.7647 118.717 60.6918C118.438 60.6188 118.191 60.4979 117.976 60.3288C117.761 60.1598 117.633 59.9328 117.593 59.6477H117.534C117.454 59.84 117.331 60.0223 117.166 60.1946C117.003 60.367 116.789 60.5045 116.524 60.6072C116.262 60.71 115.943 60.7547 115.565 60.7415C115.134 60.7249 114.754 60.6288 114.426 60.4531C114.098 60.2741 113.823 60.0322 113.601 59.7273C113.382 59.419 113.217 59.0627 113.104 58.6584C112.994 58.2507 112.94 57.8116 112.94 57.3409C112.94 56.8935 113.006 56.4841 113.139 56.1129C113.271 55.7417 113.455 55.4169 113.69 55.1385C113.929 54.8601 114.208 54.638 114.526 54.4723C114.847 54.3033 115.194 54.1989 115.565 54.1591C115.896 54.1259 116.198 54.1409 116.47 54.2038C116.741 54.2635 116.965 54.3546 117.141 54.4773C117.316 54.5966 117.427 54.7292 117.474 54.875H117.534V54.3182H118.588V58.8125C118.588 59.0909 118.665 59.3362 118.821 59.5483C118.977 59.7604 119.204 59.8665 119.502 59.8665C119.84 59.8665 120.099 59.7505 120.278 59.5185C120.46 59.2865 120.584 58.9285 120.651 58.4446C120.72 57.9607 120.755 57.3409 120.755 56.5852C120.755 56.1411 120.694 55.7036 120.571 55.2727C120.452 54.8385 120.27 54.4325 120.024 54.0547C119.782 53.6768 119.476 53.3437 119.105 53.0554C118.733 52.767 118.297 52.5417 117.797 52.3793C117.3 52.2135 116.735 52.1307 116.102 52.1307C115.323 52.1307 114.625 52.2517 114.009 52.4936C113.396 52.7322 112.873 53.0819 112.443 53.5426C112.015 54 111.689 54.5568 111.463 55.2131C111.241 55.866 111.13 56.6084 111.13 57.4403C111.13 58.2855 111.241 59.0362 111.463 59.6925C111.689 60.3487 112.02 60.9022 112.458 61.353C112.898 61.8037 113.444 62.1451 114.093 62.3771C114.743 62.6125 115.492 62.7301 116.34 62.7301C116.705 62.7301 117.065 62.6953 117.419 62.6257C117.774 62.5561 118.087 62.4799 118.359 62.397C118.631 62.3142 118.826 62.2528 118.945 62.2131L119.224 63.1278C119.018 63.214 118.75 63.3002 118.418 63.3864C118.09 63.4725 117.739 63.5438 117.364 63.6001C116.993 63.6565 116.639 63.6847 116.301 63.6847ZM115.724 59.7273C116.168 59.7273 116.528 59.6378 116.803 59.4588C117.078 59.2798 117.278 59.0097 117.404 58.6484C117.53 58.2872 117.593 57.8314 117.593 57.2812C117.593 56.7244 117.524 56.2902 117.384 55.9787C117.245 55.6671 117.04 55.4484 116.768 55.3224C116.496 55.1965 116.161 55.1335 115.764 55.1335C115.386 55.1335 115.063 55.233 114.794 55.4318C114.529 55.6274 114.325 55.8892 114.183 56.2173C114.043 56.5421 113.974 56.8968 113.974 57.2812C113.974 57.7055 114.03 58.1049 114.143 58.4794C114.256 58.8506 114.44 59.1522 114.695 59.3842C114.95 59.6129 115.293 59.7273 115.724 59.7273ZM129.095 55.0739L128.041 55.3722C127.974 55.1965 127.876 55.0258 127.747 54.8601C127.621 54.6911 127.449 54.5518 127.23 54.4425C127.011 54.3331 126.731 54.2784 126.39 54.2784C125.923 54.2784 125.533 54.3861 125.222 54.6016C124.913 54.8137 124.759 55.0838 124.759 55.4119C124.759 55.7036 124.865 55.9339 125.077 56.103C125.29 56.272 125.621 56.4129 126.072 56.5256L127.205 56.804C127.888 56.9697 128.397 57.2232 128.732 57.5646C129.066 57.9027 129.234 58.3385 129.234 58.8722C129.234 59.3097 129.108 59.7008 128.856 60.0455C128.607 60.3902 128.259 60.6619 127.812 60.8608C127.364 61.0597 126.844 61.1591 126.251 61.1591C125.472 61.1591 124.827 60.9901 124.317 60.652C123.806 60.3139 123.483 59.8201 123.347 59.1705L124.461 58.892C124.567 59.303 124.768 59.6113 125.063 59.8168C125.361 60.0223 125.75 60.125 126.231 60.125C126.778 60.125 127.212 60.009 127.533 59.777C127.858 59.5417 128.021 59.2599 128.021 58.9318C128.021 58.6667 127.928 58.4446 127.742 58.2656C127.557 58.0833 127.272 57.9474 126.887 57.858L125.614 57.5597C124.915 57.3939 124.401 57.1371 124.073 56.7891C123.748 56.4377 123.586 55.9986 123.586 55.4716C123.586 55.0407 123.707 54.6596 123.949 54.3281C124.194 53.9967 124.527 53.7365 124.948 53.5476C125.372 53.3587 125.853 53.2642 126.39 53.2642C127.146 53.2642 127.739 53.4299 128.17 53.7614C128.604 54.0928 128.912 54.5303 129.095 55.0739ZM134.242 61.1591C133.553 61.1591 132.948 60.995 132.428 60.6669C131.91 60.3388 131.506 59.8797 131.214 59.2898C130.926 58.6998 130.782 58.0104 130.782 57.2216C130.782 56.4261 130.926 55.7318 131.214 55.1385C131.506 54.5452 131.91 54.0845 132.428 53.7564C132.948 53.4283 133.553 53.2642 134.242 53.2642C134.932 53.2642 135.535 53.4283 136.052 53.7564C136.572 54.0845 136.977 54.5452 137.265 55.1385C137.557 55.7318 137.702 56.4261 137.702 57.2216C137.702 58.0104 137.557 58.6998 137.265 59.2898C136.977 59.8797 136.572 60.3388 136.052 60.6669C135.535 60.995 134.932 61.1591 134.242 61.1591ZM134.242 60.1051C134.766 60.1051 135.197 59.9709 135.535 59.7024C135.873 59.4339 136.123 59.081 136.285 58.6435C136.448 58.206 136.529 57.732 136.529 57.2216C136.529 56.7112 136.448 56.2356 136.285 55.7947C136.123 55.3539 135.873 54.9976 135.535 54.7259C135.197 54.4541 134.766 54.3182 134.242 54.3182C133.718 54.3182 133.288 54.4541 132.95 54.7259C132.611 54.9976 132.361 55.3539 132.199 55.7947C132.036 56.2356 131.955 56.7112 131.955 57.2216C131.955 57.732 132.036 58.206 132.199 58.6435C132.361 59.081 132.611 59.4339 132.95 59.7024C133.288 59.9709 133.718 60.1051 134.242 60.1051ZM143.034 53.3636V54.358H138.917V53.3636H143.034ZM140.15 61V52.3097C140.15 51.8722 140.253 51.5076 140.459 51.2159C140.664 50.9242 140.931 50.7055 141.259 50.5597C141.587 50.4138 141.934 50.3409 142.298 50.3409C142.587 50.3409 142.822 50.3641 143.004 50.4105C143.186 50.4569 143.322 50.5 143.412 50.5398L143.074 51.554C143.014 51.5341 142.931 51.5092 142.825 51.4794C142.722 51.4496 142.587 51.4347 142.417 51.4347C142.03 51.4347 141.75 51.5324 141.577 51.728C141.408 51.9235 141.324 52.2102 141.324 52.5881V61H140.15ZM148.139 53.3636V54.358H144.182V53.3636H148.139ZM145.335 51.5341H146.509V58.8125C146.509 59.1439 146.557 59.3925 146.653 59.5582C146.752 59.7206 146.878 59.83 147.031 59.8864C147.186 59.9394 147.351 59.9659 147.523 59.9659C147.652 59.9659 147.758 59.9593 147.841 59.946C147.924 59.9295 147.99 59.9162 148.04 59.9062L148.279 60.9602C148.199 60.9901 148.088 61.0199 147.945 61.0497C147.803 61.0829 147.622 61.0994 147.404 61.0994C147.072 61.0994 146.747 61.0282 146.429 60.8857C146.114 60.7431 145.852 60.526 145.644 60.2344C145.438 59.9427 145.335 59.5748 145.335 59.1307V51.5341ZM150.899 61.0795C150.654 61.0795 150.444 60.9917 150.268 60.8161C150.092 60.6404 150.004 60.4299 150.004 60.1847C150.004 59.9394 150.092 59.7289 150.268 59.5533C150.444 59.3776 150.654 59.2898 150.899 59.2898C151.145 59.2898 151.355 59.3776 151.531 59.5533C151.706 59.7289 151.794 59.9394 151.794 60.1847C151.794 60.3471 151.753 60.4962 151.67 60.6321C151.59 60.768 151.483 60.8774 151.347 60.9602C151.214 61.0398 151.065 61.0795 150.899 61.0795ZM157.142 61.1591C156.426 61.1591 155.81 60.9901 155.293 60.652C154.776 60.3139 154.378 59.8482 154.099 59.255C153.821 58.6617 153.682 57.9839 153.682 57.2216C153.682 56.446 153.824 55.7616 154.109 55.1683C154.398 54.5717 154.799 54.1061 155.312 53.7713C155.829 53.4332 156.433 53.2642 157.122 53.2642C157.659 53.2642 158.143 53.3636 158.574 53.5625C159.005 53.7614 159.358 54.0398 159.633 54.3977C159.908 54.7557 160.079 55.1733 160.145 55.6506H158.972C158.882 55.3026 158.683 54.9943 158.375 54.7259C158.07 54.4541 157.659 54.3182 157.142 54.3182C156.685 54.3182 156.284 54.4375 155.939 54.6761C155.597 54.9115 155.331 55.2446 155.138 55.6754C154.95 56.103 154.855 56.6051 154.855 57.1818C154.855 57.7718 154.948 58.2855 155.133 58.723C155.322 59.1605 155.588 59.5002 155.929 59.7422C156.274 59.9841 156.678 60.1051 157.142 60.1051C157.447 60.1051 157.724 60.0521 157.972 59.946C158.221 59.84 158.431 59.6875 158.604 59.4886C158.776 59.2898 158.899 59.0511 158.972 58.7727H160.145C160.079 59.2235 159.914 59.6295 159.653 59.9908C159.394 60.3487 159.051 60.6338 158.624 60.8459C158.199 61.0547 157.705 61.1591 157.142 61.1591ZM165.102 61.1591C164.413 61.1591 163.808 60.995 163.288 60.6669C162.771 60.3388 162.366 59.8797 162.075 59.2898C161.786 58.6998 161.642 58.0104 161.642 57.2216C161.642 56.4261 161.786 55.7318 162.075 55.1385C162.366 54.5452 162.771 54.0845 163.288 53.7564C163.808 53.4283 164.413 53.2642 165.102 53.2642C165.792 53.2642 166.395 53.4283 166.912 53.7564C167.432 54.0845 167.837 54.5452 168.125 55.1385C168.417 55.7318 168.563 56.4261 168.563 57.2216C168.563 58.0104 168.417 58.6998 168.125 59.2898C167.837 59.8797 167.432 60.3388 166.912 60.6669C166.395 60.995 165.792 61.1591 165.102 61.1591ZM165.102 60.1051C165.626 60.1051 166.057 59.9709 166.395 59.7024C166.733 59.4339 166.983 59.081 167.146 58.6435C167.308 58.206 167.389 57.732 167.389 57.2216C167.389 56.7112 167.308 56.2356 167.146 55.7947C166.983 55.3539 166.733 54.9976 166.395 54.7259C166.057 54.4541 165.626 54.3182 165.102 54.3182C164.579 54.3182 164.148 54.4541 163.81 54.7259C163.472 54.9976 163.221 55.3539 163.059 55.7947C162.897 56.2356 162.815 56.7112 162.815 57.2216C162.815 57.732 162.897 58.206 163.059 58.6435C163.221 59.081 163.472 59.4339 163.81 59.7024C164.148 59.9709 164.579 60.1051 165.102 60.1051Z" fill="#1A1B1F"/>
<rect x="171" y="47" width="1" height="18" fill="#1A1B1F"/>
</svg>
