<svg width="56" height="56" viewBox="0 0 56 56" fill="none" xmlns="http://www.w3.org/2000/svg">
<rect width="56" height="56" rx="28" fill="#0052D6"/>
<path d="M27.9976 19.25C28.3773 19.25 28.6912 19.532 28.7409 19.8981L28.7478 19.9998L28.749 27.25H36.0021C36.4163 27.25 36.7521 27.5858 36.7521 28C36.7521 28.3797 36.4699 28.6935 36.1039 28.7432L36.0021 28.75H28.749L28.751 35.9991C28.7511 36.4133 28.4154 36.7493 28.0012 36.7493C27.6215 36.7493 27.3076 36.4673 27.2579 36.1012L27.251 35.9994L27.249 28.75H20C19.5858 28.75 19.25 28.4142 19.25 28C19.25 27.6203 19.5322 27.3065 19.8982 27.2568L20 27.25H27.249L27.2478 20.0002C27.2477 19.5859 27.5834 19.25 27.9976 19.25Z" fill="#F5F9FF"/>
</svg>
