<svg width="376" height="56" viewBox="0 0 376 56" fill="none" xmlns="http://www.w3.org/2000/svg">
<g filter="url(#filter0_b_4730_20799)">
<rect x="81.5" y="0.5" width="149" height="55" rx="27.5" stroke="#C4D7F3"/>
<g opacity="0.3">
<rect x="81" width="150" height="56" rx="28" fill="#C4D7F3"/>
</g>
<path d="M113.001 18C116.315 18 119.001 20.6863 119.001 24C119.001 25.5373 118.419 26.9843 117.397 28.0835L117.207 28.2784L108.48 37.0053L108.427 37.0548L108.371 37.0997C107.702 37.6759 106.847 38 105.944 38C103.889 38 102.223 36.334 102.223 34.2789C102.223 33.3775 102.546 32.5248 103.118 31.8574L103.267 31.6945L103.282 31.6826L110.573 24.3788C110.963 23.9879 111.596 23.9874 111.987 24.3776C112.378 24.7677 112.378 25.4009 111.988 25.7918L104.697 33.0956L104.686 33.1039C104.39 33.4208 104.223 33.8354 104.223 34.2789C104.223 35.2294 104.993 36 105.944 36C106.323 36 106.681 35.8781 106.975 35.6571L107.097 35.5564L107.098 35.558L115.8 26.8571L115.959 26.6927C116.624 25.963 117.001 25.0125 117.001 24C117.001 21.7909 115.21 20 113.001 20C111.939 20 110.946 20.4146 110.206 21.1386L110.051 21.2984L110.033 21.3114L100.707 30.6403C100.317 31.0309 99.6837 31.031 99.2931 30.6406C98.9024 30.2501 98.9023 29.617 99.2927 29.2264L108.602 19.9132L108.648 19.8702C109.772 18.6858 111.333 18 113.001 18Z" fill="#0056D6"/>
<path d="M131.642 34H129.392L133.489 22.3636H136.091L140.193 34H137.943L134.835 24.75H134.744L131.642 34ZM131.716 29.4375H137.852V31.1307H131.716V29.4375ZM148.392 27.5795L146.517 27.7841C146.464 27.5947 146.371 27.4167 146.239 27.25C146.11 27.0833 145.936 26.9489 145.716 26.8466C145.496 26.7443 145.227 26.6932 144.909 26.6932C144.481 26.6932 144.121 26.786 143.83 26.9716C143.542 27.1572 143.4 27.3977 143.403 27.6932C143.4 27.947 143.492 28.1534 143.682 28.3125C143.875 28.4716 144.193 28.6023 144.636 28.7045L146.125 29.0227C146.951 29.2008 147.564 29.483 147.966 29.8693C148.371 30.2557 148.576 30.7614 148.58 31.3864C148.576 31.9356 148.415 32.4205 148.097 32.8409C147.782 33.2576 147.345 33.5833 146.784 33.8182C146.223 34.053 145.58 34.1705 144.852 34.1705C143.784 34.1705 142.924 33.947 142.273 33.5C141.621 33.0492 141.233 32.4223 141.108 31.6193L143.114 31.4261C143.205 31.8201 143.398 32.1174 143.693 32.3182C143.989 32.5189 144.373 32.6193 144.847 32.6193C145.335 32.6193 145.727 32.5189 146.023 32.3182C146.322 32.1174 146.472 31.8693 146.472 31.5739C146.472 31.3239 146.375 31.1174 146.182 30.9545C145.992 30.7917 145.697 30.6667 145.295 30.5795L143.807 30.267C142.97 30.0928 142.35 29.7992 141.949 29.3864C141.547 28.9697 141.348 28.4432 141.352 27.8068C141.348 27.2689 141.494 26.803 141.79 26.4091C142.089 26.0114 142.504 25.7045 143.034 25.4886C143.568 25.2689 144.184 25.1591 144.881 25.1591C145.903 25.1591 146.708 25.3769 147.295 25.8125C147.886 26.2481 148.252 26.8371 148.392 27.5795ZM157.173 27.5795L155.298 27.7841C155.245 27.5947 155.152 27.4167 155.02 27.25C154.891 27.0833 154.717 26.9489 154.497 26.8466C154.277 26.7443 154.009 26.6932 153.69 26.6932C153.262 26.6932 152.902 26.786 152.611 26.9716C152.323 27.1572 152.181 27.3977 152.185 27.6932C152.181 27.947 152.274 28.1534 152.463 28.3125C152.656 28.4716 152.974 28.6023 153.418 28.7045L154.906 29.0227C155.732 29.2008 156.346 29.483 156.747 29.8693C157.152 30.2557 157.357 30.7614 157.361 31.3864C157.357 31.9356 157.196 32.4205 156.878 32.8409C156.563 33.2576 156.126 33.5833 155.565 33.8182C155.005 34.053 154.361 34.1705 153.634 34.1705C152.565 34.1705 151.705 33.947 151.054 33.5C150.402 33.0492 150.014 32.4223 149.889 31.6193L151.895 31.4261C151.986 31.8201 152.179 32.1174 152.474 32.3182C152.77 32.5189 153.154 32.6193 153.628 32.6193C154.116 32.6193 154.509 32.5189 154.804 32.3182C155.103 32.1174 155.253 31.8693 155.253 31.5739C155.253 31.3239 155.156 31.1174 154.963 30.9545C154.774 30.7917 154.478 30.6667 154.077 30.5795L152.588 30.267C151.751 30.0928 151.132 29.7992 150.73 29.3864C150.329 28.9697 150.13 28.4432 150.134 27.8068C150.13 27.2689 150.276 26.803 150.571 26.4091C150.87 26.0114 151.285 25.7045 151.815 25.4886C152.349 25.2689 152.965 25.1591 153.662 25.1591C154.685 25.1591 155.49 25.3769 156.077 25.8125C156.668 26.2481 157.033 26.8371 157.173 27.5795ZM162.92 34.1705C162.045 34.1705 161.29 33.9886 160.653 33.625C160.021 33.2576 159.534 32.7386 159.193 32.0682C158.852 31.3939 158.682 30.6004 158.682 29.6875C158.682 28.7898 158.852 28.0019 159.193 27.3239C159.538 26.642 160.019 26.1117 160.636 25.733C161.254 25.3504 161.979 25.1591 162.812 25.1591C163.35 25.1591 163.858 25.2462 164.335 25.4205C164.816 25.5909 165.241 25.8561 165.608 26.2159C165.979 26.5758 166.271 27.0341 166.483 27.5909C166.695 28.1439 166.801 28.803 166.801 29.5682V30.1989H159.648V28.8125H164.83C164.826 28.4186 164.741 28.0682 164.574 27.7614C164.407 27.4508 164.174 27.2064 163.875 27.0284C163.58 26.8504 163.235 26.7614 162.841 26.7614C162.42 26.7614 162.051 26.8636 161.733 27.0682C161.415 27.2689 161.167 27.5341 160.989 27.8636C160.814 28.1894 160.725 28.5473 160.722 28.9375V30.1477C160.722 30.6553 160.814 31.0909 161 31.4545C161.186 31.8144 161.445 32.0909 161.778 32.2841C162.112 32.4735 162.502 32.5682 162.949 32.5682C163.248 32.5682 163.519 32.5265 163.761 32.4432C164.004 32.3561 164.214 32.2292 164.392 32.0625C164.57 31.8958 164.705 31.6894 164.795 31.4432L166.716 31.6591C166.595 32.1667 166.364 32.6098 166.023 32.9886C165.686 33.3636 165.254 33.6553 164.727 33.8636C164.201 34.0682 163.598 34.1705 162.92 34.1705ZM172.899 25.2727V26.8636H167.882V25.2727H172.899ZM169.121 23.1818H171.178V31.375C171.178 31.6515 171.219 31.8636 171.303 32.0114C171.39 32.1553 171.503 32.2538 171.643 32.3068C171.784 32.3598 171.939 32.3864 172.109 32.3864C172.238 32.3864 172.356 32.3769 172.462 32.358C172.571 32.339 172.655 32.322 172.712 32.3068L173.058 33.9148C172.948 33.9527 172.791 33.9943 172.587 34.0398C172.386 34.0852 172.14 34.1117 171.848 34.1193C171.333 34.1345 170.869 34.0568 170.456 33.8864C170.043 33.7121 169.715 33.4432 169.473 33.0795C169.234 32.7159 169.117 32.2614 169.121 31.7159V23.1818ZM181.392 27.5795L179.517 27.7841C179.464 27.5947 179.371 27.4167 179.239 27.25C179.11 27.0833 178.936 26.9489 178.716 26.8466C178.496 26.7443 178.227 26.6932 177.909 26.6932C177.481 26.6932 177.121 26.786 176.83 26.9716C176.542 27.1572 176.4 27.3977 176.403 27.6932C176.4 27.947 176.492 28.1534 176.682 28.3125C176.875 28.4716 177.193 28.6023 177.636 28.7045L179.125 29.0227C179.951 29.2008 180.564 29.483 180.966 29.8693C181.371 30.2557 181.576 30.7614 181.58 31.3864C181.576 31.9356 181.415 32.4205 181.097 32.8409C180.782 33.2576 180.345 33.5833 179.784 33.8182C179.223 34.053 178.58 34.1705 177.852 34.1705C176.784 34.1705 175.924 33.947 175.273 33.5C174.621 33.0492 174.233 32.4223 174.108 31.6193L176.114 31.4261C176.205 31.8201 176.398 32.1174 176.693 32.3182C176.989 32.5189 177.373 32.6193 177.847 32.6193C178.335 32.6193 178.727 32.5189 179.023 32.3182C179.322 32.1174 179.472 31.8693 179.472 31.5739C179.472 31.3239 179.375 31.1174 179.182 30.9545C178.992 30.7917 178.697 30.6667 178.295 30.5795L176.807 30.267C175.97 30.0928 175.35 29.7992 174.949 29.3864C174.547 28.9697 174.348 28.4432 174.352 27.8068C174.348 27.2689 174.494 26.803 174.79 26.4091C175.089 26.0114 175.504 25.7045 176.034 25.4886C176.568 25.2689 177.184 25.1591 177.881 25.1591C178.903 25.1591 179.708 25.3769 180.295 25.8125C180.886 26.2481 181.252 26.8371 181.392 27.5795Z" fill="#0056D6"/>
<path d="M195.22 31.5303C195.513 31.8232 195.987 31.8232 196.28 31.5303L203 24.8107L209.72 31.5303C210.013 31.8232 210.487 31.8232 210.78 31.5303C211.073 31.2374 211.073 30.7626 210.78 30.4697L203.53 23.2197C203.237 22.9268 202.763 22.9268 202.47 23.2197L195.22 30.4697C194.927 30.7626 194.927 31.2374 195.22 31.5303Z" fill="#0056D6"/>
</g>
<rect x="239" width="56" height="56" rx="28" fill="#0056D6"/>
<path d="M266.998 19.25C267.377 19.25 267.691 19.532 267.741 19.8981L267.748 19.9998L267.749 27.25H275.002C275.416 27.25 275.752 27.5858 275.752 28C275.752 28.3797 275.47 28.6935 275.104 28.7432L275.002 28.75H267.749L267.751 35.9991C267.751 36.4133 267.415 36.7493 267.001 36.7493C266.622 36.7493 266.308 36.4673 266.258 36.1012L266.251 35.9994L266.249 28.75H259C258.586 28.75 258.25 28.4142 258.25 28C258.25 27.6203 258.532 27.3065 258.898 27.2568L259 27.25H266.249L266.248 20.0002C266.248 19.5859 266.583 19.25 266.998 19.25Z" fill="#F5F9FF"/>
<defs>
<filter id="filter0_b_4730_20799" x="65" y="-16" width="182" height="88" filterUnits="userSpaceOnUse" color-interpolation-filters="sRGB">
<feFlood flood-opacity="0" result="BackgroundImageFix"/>
<feGaussianBlur in="BackgroundImageFix" stdDeviation="8"/>
<feComposite in2="SourceAlpha" operator="in" result="effect1_backgroundBlur_4730_20799"/>
<feBlend mode="normal" in="SourceGraphic" in2="effect1_backgroundBlur_4730_20799" result="shape"/>
</filter>
</defs>
</svg>
