<svg width="240" height="48" viewBox="0 0 240 48" fill="none" xmlns="http://www.w3.org/2000/svg">
<path d="M32.9519 15.0481C31.5543 13.6506 29.2885 13.6506 27.8911 15.0482L15.941 26.9997C15.5347 27.4061 15.2491 27.9172 15.116 28.4762L14.0204 33.0777C13.9601 33.3311 14.0355 33.5976 14.2197 33.7817C14.4038 33.9659 14.6704 34.0413 14.9237 33.981L19.525 32.8855C20.0842 32.7523 20.5955 32.4666 21.0019 32.0601L32.952 20.1086C34.3493 18.7111 34.3493 16.4455 32.9519 15.0481ZM28.9518 16.1088C29.7634 15.2971 31.0795 15.297 31.8912 16.1088C32.7028 16.9204 32.7029 18.2363 31.8913 19.048L31 19.9395L28.0606 17.0001L28.9518 16.1088ZM27 18.0608L29.9394 21.0002L19.9412 30.9995C19.731 31.2097 19.4667 31.3574 19.1775 31.4263L15.7619 32.2395L16.5752 28.8237C16.644 28.5346 16.7917 28.2704 17.0018 28.0603L27 18.0608Z" fill="#1A1B1F"/>
<rect x="64" width="48" height="48" rx="24" fill="#0052D6"/>
<path d="M96.9519 15.0481C95.5543 13.6506 93.2885 13.6506 91.8911 15.0482L79.941 26.9997C79.5347 27.4061 79.2491 27.9172 79.116 28.4762L78.0204 33.0777C77.9601 33.3311 78.0355 33.5976 78.2197 33.7817C78.4038 33.9659 78.6704 34.0413 78.9237 33.981L83.525 32.8855C84.0842 32.7523 84.5955 32.4666 85.0019 32.0601L96.952 20.1086C98.3493 18.7111 98.3493 16.4455 96.9519 15.0481ZM92.9518 16.1088C93.7634 15.2971 95.0795 15.297 95.8912 16.1088C96.7028 16.9204 96.7029 18.2363 95.8913 19.048L95 19.9395L92.0606 17.0001L92.9518 16.1088ZM91 18.0608L93.9394 21.0002L83.9412 30.9995C83.731 31.2097 83.4667 31.3574 83.1775 31.4263L79.7619 32.2395L80.5752 28.8237C80.644 28.5346 80.7917 28.2704 81.0018 28.0603L91 18.0608Z" fill="#F5F9FF"/>
<rect x="128" width="48" height="48" rx="24" fill="#4D80B3"/>
<path d="M160.952 15.0481C159.554 13.6506 157.288 13.6506 155.891 15.0482L143.941 26.9997C143.535 27.4061 143.249 27.9172 143.116 28.4762L142.02 33.0777C141.96 33.3311 142.036 33.5976 142.22 33.7817C142.404 33.9659 142.67 34.0413 142.924 33.981L147.525 32.8855C148.084 32.7523 148.595 32.4666 149.002 32.0601L160.952 20.1086C162.349 18.7111 162.349 16.4455 160.952 15.0481ZM156.952 16.1088C157.763 15.2971 159.079 15.297 159.891 16.1088C160.703 16.9204 160.703 18.2363 159.891 19.048L159 19.9395L156.061 17.0001L156.952 16.1088ZM155 18.0608L157.939 21.0002L147.941 30.9995C147.731 31.2097 147.467 31.3574 147.178 31.4263L143.762 32.2395L144.575 28.8237C144.644 28.5346 144.792 28.2704 145.002 28.0603L155 18.0608Z" fill="#F0F7FF"/>
<rect x="192.75" y="0.75" width="46.5" height="46.5" rx="23.25" stroke="#878B92" stroke-width="1.5"/>
<path d="M224.952 15.0481C223.554 13.6506 221.288 13.6506 219.891 15.0482L207.941 26.9997C207.535 27.4061 207.249 27.9172 207.116 28.4762L206.02 33.0777C205.96 33.3311 206.036 33.5976 206.22 33.7817C206.404 33.9659 206.67 34.0413 206.924 33.981L211.525 32.8855C212.084 32.7523 212.595 32.4666 213.002 32.0601L224.952 20.1086C226.349 18.7111 226.349 16.4455 224.952 15.0481ZM220.952 16.1088C221.763 15.2971 223.079 15.297 223.891 16.1088C224.703 16.9204 224.703 18.2363 223.891 19.048L223 19.9395L220.061 17.0001L220.952 16.1088ZM219 18.0608L221.939 21.0002L211.941 30.9995C211.731 31.2097 211.467 31.3574 211.178 31.4263L207.762 32.2395L208.575 28.8237C208.644 28.5346 208.792 28.2704 209.002 28.0603L219 18.0608Z" fill="#1A1B1F"/>
</svg>
