<svg width="376" height="431" viewBox="0 0 376 431" fill="none" xmlns="http://www.w3.org/2000/svg">
<rect width="375" height="431" transform="translate(0.5)" fill="#F9FAFB"/>
<rect width="375" height="64" transform="translate(0.5)" fill="#F9FAFB"/>
<path d="M145.636 24.9091H148.538L152.424 34.3949H152.578L156.464 24.9091H159.366V38H157.09V29.0064H156.969L153.351 37.9616H151.651L148.033 28.9872H147.911V38H145.636V24.9091ZM166.193 38.1918C165.208 38.1918 164.358 37.9872 163.642 37.5781C162.931 37.1648 162.383 36.581 162 35.8267C161.616 35.0682 161.424 34.1754 161.424 33.1484C161.424 32.1385 161.616 31.2521 162 30.4893C162.387 29.7223 162.929 29.1257 163.623 28.6996C164.318 28.2692 165.134 28.054 166.071 28.054C166.676 28.054 167.247 28.152 167.784 28.348C168.326 28.5398 168.803 28.8381 169.216 29.2429C169.634 29.6477 169.962 30.1634 170.201 30.7898C170.439 31.4119 170.559 32.1534 170.559 33.0142V33.7237H162.511V32.1641H168.34C168.336 31.7209 168.24 31.3267 168.053 30.9815C167.865 30.6321 167.603 30.3572 167.267 30.157C166.934 29.9567 166.546 29.8565 166.103 29.8565C165.63 29.8565 165.215 29.9716 164.857 30.2017C164.499 30.4276 164.22 30.7259 164.019 31.0966C163.823 31.4631 163.723 31.8658 163.719 32.3047V33.6662C163.719 34.2372 163.823 34.7273 164.032 35.1364C164.241 35.5412 164.533 35.8523 164.908 36.0696C165.283 36.2827 165.722 36.3892 166.225 36.3892C166.561 36.3892 166.866 36.3423 167.139 36.2486C167.411 36.1506 167.648 36.0078 167.848 35.8203C168.049 35.6328 168.2 35.4006 168.302 35.1236L170.463 35.3665C170.326 35.9375 170.066 36.4361 169.683 36.8622C169.304 37.2841 168.818 37.6122 168.225 37.8466C167.633 38.0767 166.956 38.1918 166.193 38.1918ZM174.83 32.2472V38H172.516V28.1818H174.728V29.8501H174.843C175.069 29.3004 175.429 28.8636 175.923 28.5398C176.422 28.2159 177.037 28.054 177.77 28.054C178.448 28.054 179.038 28.1989 179.541 28.4886C180.048 28.7784 180.44 29.1982 180.717 29.7479C180.998 30.2976 181.137 30.9645 181.133 31.7486V38H178.819V32.1065C178.819 31.4503 178.648 30.9368 178.307 30.5661C177.971 30.1953 177.504 30.0099 176.907 30.0099C176.503 30.0099 176.142 30.0994 175.827 30.2784C175.516 30.4531 175.271 30.7067 175.092 31.0391C174.917 31.3714 174.83 31.7741 174.83 32.2472ZM189.743 33.8707V28.1818H192.057V38H189.813V36.255H189.711C189.489 36.8047 189.125 37.2543 188.618 37.6037C188.115 37.9531 187.495 38.1278 186.758 38.1278C186.114 38.1278 185.545 37.9851 185.051 37.6996C184.561 37.4098 184.177 36.9901 183.9 36.4403C183.623 35.8864 183.485 35.2173 183.485 34.4332V28.1818H185.799V34.0753C185.799 34.6974 185.969 35.1918 186.31 35.5582C186.651 35.9247 187.098 36.108 187.652 36.108C187.993 36.108 188.324 36.0249 188.643 35.8587C188.963 35.6925 189.225 35.4453 189.429 35.1172C189.638 34.7848 189.743 34.3693 189.743 33.8707ZM203.804 28.1818V29.9716H198.159V28.1818H203.804ZM199.553 25.8295H201.867V35.0469C201.867 35.358 201.914 35.5966 202.007 35.7628C202.105 35.9247 202.233 36.0355 202.391 36.0952C202.549 36.1548 202.723 36.1847 202.915 36.1847C203.06 36.1847 203.192 36.174 203.311 36.1527C203.435 36.1314 203.529 36.1122 203.593 36.0952L203.983 37.9041C203.859 37.9467 203.682 37.9936 203.452 38.0447C203.226 38.0959 202.949 38.1257 202.621 38.1342C202.041 38.1513 201.519 38.0639 201.055 37.8722C200.59 37.6761 200.222 37.3736 199.949 36.9645C199.681 36.5554 199.549 36.044 199.553 35.4304V25.8295ZM205.739 38V28.1818H208.053V38H205.739ZM206.902 26.7884C206.536 26.7884 206.22 26.6669 205.956 26.424C205.692 26.1768 205.56 25.8807 205.56 25.5355C205.56 25.1861 205.692 24.8899 205.956 24.647C206.22 24.3999 206.536 24.2763 206.902 24.2763C207.273 24.2763 207.588 24.3999 207.848 24.647C208.112 24.8899 208.244 25.1861 208.244 25.5355C208.244 25.8807 208.112 26.1768 207.848 26.424C207.588 26.6669 207.273 26.7884 206.902 26.7884ZM215.335 28.1818V29.9716H209.691V28.1818H215.335ZM211.084 25.8295H213.398V35.0469C213.398 35.358 213.445 35.5966 213.539 35.7628C213.637 35.9247 213.764 36.0355 213.922 36.0952C214.08 36.1548 214.255 36.1847 214.446 36.1847C214.591 36.1847 214.723 36.174 214.843 36.1527C214.966 36.1314 215.06 36.1122 215.124 36.0952L215.514 37.9041C215.39 37.9467 215.213 37.9936 214.983 38.0447C214.757 38.0959 214.48 38.1257 214.152 38.1342C213.573 38.1513 213.051 38.0639 212.586 37.8722C212.122 37.6761 211.753 37.3736 211.48 36.9645C211.212 36.5554 211.08 36.044 211.084 35.4304V25.8295ZM219.795 24.9091V38H217.481V24.9091H219.795ZM226.521 38.1918C225.536 38.1918 224.686 37.9872 223.97 37.5781C223.259 37.1648 222.711 36.581 222.328 35.8267C221.944 35.0682 221.752 34.1754 221.752 33.1484C221.752 32.1385 221.944 31.2521 222.328 30.4893C222.715 29.7223 223.257 29.1257 223.951 28.6996C224.646 28.2692 225.462 28.054 226.399 28.054C227.005 28.054 227.576 28.152 228.112 28.348C228.654 28.5398 229.131 28.8381 229.544 29.2429C229.962 29.6477 230.29 30.1634 230.529 30.7898C230.767 31.4119 230.887 32.1534 230.887 33.0142V33.7237H222.839V32.1641H228.669C228.664 31.7209 228.568 31.3267 228.381 30.9815C228.193 30.6321 227.931 30.3572 227.595 30.157C227.262 29.9567 226.875 29.8565 226.431 29.8565C225.958 29.8565 225.543 29.9716 225.185 30.2017C224.827 30.4276 224.548 30.7259 224.348 31.0966C224.152 31.4631 224.051 31.8658 224.047 32.3047V33.6662C224.047 34.2372 224.152 34.7273 224.36 35.1364C224.569 35.5412 224.861 35.8523 225.236 36.0696C225.611 36.2827 226.05 36.3892 226.553 36.3892C226.889 36.3892 227.194 36.3423 227.467 36.2486C227.74 36.1506 227.976 36.0078 228.176 35.8203C228.377 35.6328 228.528 35.4006 228.63 35.1236L230.791 35.3665C230.654 35.9375 230.394 36.4361 230.011 36.8622C229.632 37.2841 229.146 37.6122 228.554 37.8466C227.961 38.0767 227.284 38.1918 226.521 38.1918Z" fill="#1A1B1F"/>
<rect x="0.5" y="63" width="375" height="1" fill="#E1E6EF"/>
<rect x="154.5" y="8" width="68" height="4" rx="2" fill="#EBEFF4"/>
<path d="M58 108C61.0376 108 63.5 110.462 63.5 113.5C63.5 116.538 61.0376 119 58 119C54.9624 119 52.5 116.538 52.5 113.5C52.5 110.462 54.9624 108 58 108ZM58.25 99C60.0449 99 61.5 100.455 61.5 102.25L61.5012 108.023C61.0378 107.726 60.5342 107.486 60.0004 107.314L60 104.5H45V113.75C45 114.716 45.7835 115.5 46.75 115.5L51.8136 115.5C51.9861 116.034 52.2257 116.538 52.5226 117.001L46.75 117C44.9551 117 43.5 115.545 43.5 113.75V102.25C43.5 100.455 44.9551 99 46.75 99H58.25ZM58 110L57.9101 110.008C57.706 110.045 57.5451 110.206 57.5081 110.41L57.5 110.5V113H55L54.9101 113.008C54.706 113.045 54.5451 113.206 54.5081 113.41L54.5 113.5L54.5081 113.59C54.5451 113.794 54.706 113.955 54.9101 113.992L55 114H57.5V116.5L57.5081 116.59C57.5451 116.794 57.706 116.955 57.9101 116.992L58 117L58.0899 116.992C58.294 116.955 58.4549 116.794 58.4919 116.59L58.5 116.5V114H61L61.0899 113.992C61.294 113.955 61.4549 113.794 61.4919 113.59L61.5 113.5L61.4919 113.41C61.4549 113.206 61.294 113.045 61.0899 113.008L61 113H58.5V110.5L58.4919 110.41C58.4549 110.206 58.294 110.045 58.0899 110.008L58 110ZM58.25 100.5H46.75C45.7835 100.5 45 101.284 45 102.25V103H60V102.25C60 101.284 59.2165 100.5 58.25 100.5Z" fill="#1A1B1F"/>
<path d="M74.1506 113H72.858L76.5966 102.818H77.8693L81.608 113H80.3153L77.2727 104.429H77.1932L74.1506 113ZM74.6278 109.023H79.8381V110.116H74.6278V109.023ZM86.0583 113.159C85.422 113.159 84.8602 112.998 84.373 112.677C83.8857 112.352 83.5046 111.895 83.2295 111.305C82.9544 110.711 82.8168 110.01 82.8168 109.202C82.8168 108.4 82.9544 107.704 83.2295 107.114C83.5046 106.524 83.8874 106.068 84.3779 105.746C84.8685 105.425 85.4352 105.264 86.0782 105.264C86.5754 105.264 86.9681 105.347 87.2565 105.513C87.5481 105.675 87.7702 105.861 87.9227 106.07C88.0784 106.275 88.1994 106.444 88.2856 106.577H88.385V102.818H89.5583V113H88.4248V111.827H88.2856C88.1994 111.966 88.0768 112.142 87.9177 112.354C87.7586 112.562 87.5316 112.75 87.2366 112.915C86.9416 113.078 86.5489 113.159 86.0583 113.159ZM86.2174 112.105C86.6881 112.105 87.0858 111.982 87.4106 111.737C87.7354 111.489 87.9823 111.146 88.1514 110.708C88.3204 110.267 88.4049 109.759 88.4049 109.182C88.4049 108.612 88.3221 108.113 88.1563 107.685C87.9906 107.254 87.7454 106.92 87.4205 106.681C87.0957 106.439 86.6947 106.318 86.2174 106.318C85.7203 106.318 85.306 106.446 84.9745 106.701C84.6464 106.953 84.3995 107.296 84.2338 107.73C84.0713 108.161 83.9901 108.645 83.9901 109.182C83.9901 109.725 84.073 110.219 84.2387 110.663C84.4078 111.104 84.6563 111.455 84.9845 111.717C85.3159 111.976 85.7269 112.105 86.2174 112.105ZM94.8936 113.159C94.2573 113.159 93.6955 112.998 93.2083 112.677C92.7211 112.352 92.3399 111.895 92.0648 111.305C91.7897 110.711 91.6522 110.01 91.6522 109.202C91.6522 108.4 91.7897 107.704 92.0648 107.114C92.3399 106.524 92.7227 106.068 93.2132 105.746C93.7038 105.425 94.2705 105.264 94.9135 105.264C95.4107 105.264 95.8034 105.347 96.0918 105.513C96.3835 105.675 96.6055 105.861 96.758 106.07C96.9138 106.275 97.0347 106.444 97.1209 106.577H97.2203V102.818H98.3936V113H97.2601V111.827H97.1209C97.0347 111.966 96.9121 112.142 96.753 112.354C96.5939 112.562 96.3669 112.75 96.0719 112.915C95.7769 113.078 95.3842 113.159 94.8936 113.159ZM95.0527 112.105C95.5234 112.105 95.9211 111.982 96.2459 111.737C96.5707 111.489 96.8176 111.146 96.9867 110.708C97.1557 110.267 97.2402 109.759 97.2402 109.182C97.2402 108.612 97.1574 108.113 96.9916 107.685C96.8259 107.254 96.5807 106.92 96.2559 106.681C95.931 106.439 95.53 106.318 95.0527 106.318C94.5556 106.318 94.1413 106.446 93.8098 106.701C93.4817 106.953 93.2348 107.296 93.0691 107.73C92.9067 108.161 92.8255 108.645 92.8255 109.182C92.8255 109.725 92.9083 110.219 93.074 110.663C93.2431 111.104 93.4916 111.455 93.8198 111.717C94.1512 111.976 94.5622 112.105 95.0527 112.105ZM108.244 105.364V106.358H104.287V105.364H108.244ZM105.44 103.534H106.613V110.812C106.613 111.144 106.661 111.393 106.757 111.558C106.857 111.721 106.983 111.83 107.135 111.886C107.291 111.939 107.455 111.966 107.627 111.966C107.757 111.966 107.863 111.959 107.946 111.946C108.029 111.929 108.095 111.916 108.145 111.906L108.383 112.96C108.304 112.99 108.193 113.02 108.05 113.05C107.908 113.083 107.727 113.099 107.508 113.099C107.177 113.099 106.852 113.028 106.534 112.886C106.219 112.743 105.957 112.526 105.748 112.234C105.543 111.943 105.44 111.575 105.44 111.131V103.534ZM113.169 113.159C112.48 113.159 111.875 112.995 111.354 112.667C110.837 112.339 110.433 111.88 110.141 111.29C109.853 110.7 109.709 110.01 109.709 109.222C109.709 108.426 109.853 107.732 110.141 107.138C110.433 106.545 110.837 106.085 111.354 105.756C111.875 105.428 112.48 105.264 113.169 105.264C113.858 105.264 114.462 105.428 114.979 105.756C115.499 106.085 115.903 106.545 116.192 107.138C116.484 107.732 116.629 108.426 116.629 109.222C116.629 110.01 116.484 110.7 116.192 111.29C115.903 111.88 115.499 112.339 114.979 112.667C114.462 112.995 113.858 113.159 113.169 113.159ZM113.169 112.105C113.693 112.105 114.124 111.971 114.462 111.702C114.8 111.434 115.05 111.081 115.212 110.643C115.375 110.206 115.456 109.732 115.456 109.222C115.456 108.711 115.375 108.236 115.212 107.795C115.05 107.354 114.8 106.998 114.462 106.726C114.124 106.454 113.693 106.318 113.169 106.318C112.645 106.318 112.215 106.454 111.876 106.726C111.538 106.998 111.288 107.354 111.126 107.795C110.963 108.236 110.882 108.711 110.882 109.222C110.882 109.732 110.963 110.206 111.126 110.643C111.288 111.081 111.538 111.434 111.876 111.702C112.215 111.971 112.645 112.105 113.169 112.105ZM125.74 113.159C125.024 113.159 124.408 112.99 123.891 112.652C123.374 112.314 122.976 111.848 122.698 111.255C122.419 110.662 122.28 109.984 122.28 109.222C122.28 108.446 122.422 107.762 122.707 107.168C122.996 106.572 123.397 106.106 123.911 105.771C124.428 105.433 125.031 105.264 125.72 105.264C126.257 105.264 126.741 105.364 127.172 105.562C127.603 105.761 127.956 106.04 128.231 106.398C128.506 106.756 128.677 107.173 128.743 107.651H127.57C127.48 107.303 127.281 106.994 126.973 106.726C126.668 106.454 126.257 106.318 125.74 106.318C125.283 106.318 124.882 106.437 124.537 106.676C124.196 106.911 123.929 107.245 123.737 107.675C123.548 108.103 123.453 108.605 123.453 109.182C123.453 109.772 123.546 110.286 123.732 110.723C123.921 111.161 124.186 111.5 124.527 111.742C124.872 111.984 125.276 112.105 125.74 112.105C126.045 112.105 126.322 112.052 126.57 111.946C126.819 111.84 127.029 111.688 127.202 111.489C127.374 111.29 127.497 111.051 127.57 110.773H128.743C128.677 111.223 128.513 111.629 128.251 111.991C127.992 112.349 127.649 112.634 127.222 112.846C126.797 113.055 126.304 113.159 125.74 113.159ZM132.845 113.179C132.361 113.179 131.922 113.088 131.528 112.906C131.133 112.72 130.82 112.453 130.588 112.105C130.356 111.754 130.24 111.33 130.24 110.832C130.24 110.395 130.326 110.04 130.499 109.768C130.671 109.493 130.901 109.278 131.19 109.122C131.478 108.966 131.796 108.85 132.144 108.774C132.496 108.695 132.849 108.632 133.203 108.585C133.667 108.526 134.043 108.481 134.332 108.451C134.623 108.418 134.836 108.363 134.968 108.287C135.104 108.211 135.172 108.078 135.172 107.889V107.849C135.172 107.359 135.038 106.978 134.769 106.706C134.504 106.434 134.101 106.298 133.561 106.298C133.001 106.298 132.562 106.421 132.244 106.666C131.926 106.911 131.702 107.173 131.573 107.452L130.459 107.054C130.658 106.59 130.923 106.229 131.254 105.97C131.589 105.708 131.954 105.526 132.348 105.423C132.746 105.317 133.137 105.264 133.521 105.264C133.767 105.264 134.048 105.294 134.367 105.354C134.688 105.41 134.998 105.528 135.296 105.707C135.598 105.886 135.848 106.156 136.047 106.517C136.246 106.878 136.345 107.362 136.345 107.969V113H135.172V111.966H135.112C135.033 112.132 134.9 112.309 134.715 112.498C134.529 112.687 134.282 112.848 133.974 112.98C133.666 113.113 133.289 113.179 132.845 113.179ZM133.024 112.125C133.488 112.125 133.879 112.034 134.198 111.852C134.519 111.669 134.761 111.434 134.923 111.146C135.089 110.857 135.172 110.554 135.172 110.236V109.162C135.122 109.222 135.013 109.276 134.844 109.326C134.678 109.372 134.486 109.414 134.267 109.45C134.052 109.483 133.841 109.513 133.636 109.54C133.434 109.563 133.27 109.583 133.144 109.599C132.839 109.639 132.554 109.704 132.289 109.793C132.027 109.879 131.815 110.01 131.652 110.186C131.493 110.358 131.414 110.594 131.414 110.892C131.414 111.3 131.564 111.608 131.866 111.817C132.171 112.022 132.557 112.125 133.024 112.125ZM139.8 102.818V113H138.627V102.818H139.8ZM145.291 113.159C144.555 113.159 143.92 112.997 143.387 112.672C142.856 112.344 142.447 111.886 142.159 111.3C141.874 110.71 141.731 110.024 141.731 109.241C141.731 108.459 141.874 107.77 142.159 107.173C142.447 106.573 142.848 106.106 143.362 105.771C143.879 105.433 144.482 105.264 145.171 105.264C145.569 105.264 145.962 105.33 146.35 105.463C146.738 105.596 147.091 105.811 147.409 106.109C147.727 106.404 147.98 106.795 148.169 107.283C148.358 107.77 148.453 108.37 148.453 109.082V109.58H142.566V108.565H147.26C147.26 108.134 147.173 107.75 147.001 107.412C146.832 107.074 146.59 106.807 146.275 106.612C145.964 106.416 145.596 106.318 145.171 106.318C144.704 106.318 144.3 106.434 143.958 106.666C143.62 106.895 143.36 107.193 143.178 107.561C142.996 107.929 142.904 108.323 142.904 108.744V109.42C142.904 109.997 143.004 110.486 143.203 110.887C143.405 111.285 143.685 111.588 144.043 111.797C144.401 112.002 144.817 112.105 145.291 112.105C145.599 112.105 145.877 112.062 146.126 111.976C146.378 111.886 146.595 111.754 146.777 111.578C146.96 111.399 147.1 111.177 147.2 110.912L148.333 111.23C148.214 111.615 148.014 111.953 147.732 112.244C147.45 112.533 147.102 112.758 146.688 112.92C146.274 113.08 145.808 113.159 145.291 113.159ZM151.551 108.406V113H150.378V105.364H151.511V106.557H151.61C151.789 106.169 152.061 105.857 152.426 105.622C152.79 105.384 153.261 105.264 153.838 105.264C154.355 105.264 154.807 105.37 155.195 105.582C155.583 105.791 155.884 106.109 156.1 106.537C156.315 106.961 156.423 107.498 156.423 108.148V113H155.25V108.227C155.25 107.627 155.094 107.16 154.782 106.825C154.471 106.487 154.043 106.318 153.5 106.318C153.125 106.318 152.79 106.399 152.495 106.562C152.204 106.724 151.973 106.961 151.804 107.273C151.635 107.584 151.551 107.962 151.551 108.406ZM161.591 113.159C160.954 113.159 160.392 112.998 159.905 112.677C159.418 112.352 159.037 111.895 158.762 111.305C158.487 110.711 158.349 110.01 158.349 109.202C158.349 108.4 158.487 107.704 158.762 107.114C159.037 106.524 159.42 106.068 159.91 105.746C160.401 105.425 160.967 105.264 161.61 105.264C162.108 105.264 162.5 105.347 162.789 105.513C163.08 105.675 163.302 105.861 163.455 106.07C163.611 106.275 163.732 106.444 163.818 106.577H163.917V102.818H165.091V113H163.957V111.827H163.818C163.732 111.966 163.609 112.142 163.45 112.354C163.291 112.562 163.064 112.75 162.769 112.915C162.474 113.078 162.081 113.159 161.591 113.159ZM161.75 112.105C162.22 112.105 162.618 111.982 162.943 111.737C163.268 111.489 163.515 111.146 163.684 110.708C163.853 110.267 163.937 109.759 163.937 109.182C163.937 108.612 163.854 108.113 163.689 107.685C163.523 107.254 163.278 106.92 162.953 106.681C162.628 106.439 162.227 106.318 161.75 106.318C161.252 106.318 160.838 106.446 160.507 106.701C160.179 106.953 159.932 107.296 159.766 107.73C159.604 108.161 159.522 108.645 159.522 109.182C159.522 109.725 159.605 110.219 159.771 110.663C159.94 111.104 160.189 111.455 160.517 111.717C160.848 111.976 161.259 112.105 161.75 112.105ZM169.789 113.179C169.306 113.179 168.866 113.088 168.472 112.906C168.078 112.72 167.764 112.453 167.532 112.105C167.3 111.754 167.184 111.33 167.184 110.832C167.184 110.395 167.271 110.04 167.443 109.768C167.615 109.493 167.846 109.278 168.134 109.122C168.422 108.966 168.74 108.85 169.088 108.774C169.44 108.695 169.793 108.632 170.147 108.585C170.611 108.526 170.988 108.481 171.276 108.451C171.568 108.418 171.78 108.363 171.912 108.287C172.048 108.211 172.116 108.078 172.116 107.889V107.849C172.116 107.359 171.982 106.978 171.713 106.706C171.448 106.434 171.046 106.298 170.505 106.298C169.945 106.298 169.506 106.421 169.188 106.666C168.87 106.911 168.646 107.173 168.517 107.452L167.403 107.054C167.602 106.59 167.867 106.229 168.199 105.97C168.533 105.708 168.898 105.526 169.292 105.423C169.69 105.317 170.081 105.264 170.466 105.264C170.711 105.264 170.993 105.294 171.311 105.354C171.632 105.41 171.942 105.528 172.24 105.707C172.542 105.886 172.792 106.156 172.991 106.517C173.19 106.878 173.289 107.362 173.289 107.969V113H172.116V111.966H172.057C171.977 112.132 171.844 112.309 171.659 112.498C171.473 112.687 171.226 112.848 170.918 112.98C170.61 113.113 170.234 113.179 169.789 113.179ZM169.968 112.125C170.432 112.125 170.824 112.034 171.142 111.852C171.463 111.669 171.705 111.434 171.868 111.146C172.033 110.857 172.116 110.554 172.116 110.236V109.162C172.066 109.222 171.957 109.276 171.788 109.326C171.622 109.372 171.43 109.414 171.211 109.45C170.996 109.483 170.785 109.513 170.58 109.54C170.378 109.563 170.214 109.583 170.088 109.599C169.783 109.639 169.498 109.704 169.233 109.793C168.971 109.879 168.759 110.01 168.596 110.186C168.437 110.358 168.358 110.594 168.358 110.892C168.358 111.3 168.508 111.608 168.81 111.817C169.115 112.022 169.501 112.125 169.968 112.125ZM175.571 113V105.364H176.704V106.517H176.784C176.923 106.139 177.175 105.833 177.54 105.597C177.904 105.362 178.315 105.244 178.773 105.244C178.859 105.244 178.967 105.246 179.096 105.249C179.225 105.253 179.323 105.258 179.389 105.264V106.457C179.349 106.447 179.258 106.433 179.116 106.413C178.977 106.389 178.829 106.378 178.673 106.378C178.302 106.378 177.971 106.456 177.679 106.612C177.391 106.764 177.162 106.976 176.993 107.248C176.827 107.516 176.744 107.823 176.744 108.168V113H175.571Z" fill="#1A1B1F"/>
<path d="M47.25 164H50.7142C51.1284 164 51.4642 164.336 51.4642 164.75C51.4642 165.13 51.1821 165.444 50.816 165.493L50.7142 165.5H47.25C46.0591 165.5 45.0844 166.425 45.0052 167.596L45 167.75V177.25C45 178.441 45.9252 179.416 47.096 179.495L47.25 179.5H56.7507C57.9416 179.5 58.9164 178.575 58.9955 177.404L59.0007 177.25V176.752C59.0007 176.338 59.3365 176.002 59.7507 176.002C60.1304 176.002 60.4442 176.284 60.4939 176.65L60.5007 176.752V177.25C60.5007 179.254 58.9284 180.891 56.9499 180.995L56.7507 181H47.25C45.2457 181 43.6087 179.428 43.5052 177.449L43.5 177.25V167.75C43.5 165.746 45.0724 164.109 47.0508 164.005L47.25 164H50.7142H47.25ZM55.004 166.52V163.75C55.004 163.126 55.7108 162.79 56.191 163.14L56.2732 163.209L62.2678 168.959C62.5475 169.227 62.573 169.658 62.3441 169.956L62.2679 170.041L56.2733 175.793C55.823 176.225 55.0911 175.948 55.0111 175.359L55.004 175.252V172.527L54.6605 172.557C52.2608 172.807 49.9608 173.888 47.7459 175.817C47.2268 176.27 46.4237 175.842 46.5091 175.159C47.1739 169.839 49.9557 166.907 54.7046 166.54L55.004 166.52V163.75V166.52ZM56.504 165.509V167.25C56.504 167.664 56.1682 168 55.754 168C51.8806 168 49.48 169.676 48.4427 173.157L48.3637 173.436L48.7159 173.199C50.9523 171.737 53.3018 171 55.754 171C56.1337 171 56.4475 171.282 56.4971 171.648L56.504 171.75V173.493L60.6652 169.5L56.504 165.509Z" fill="#1A1B1F"/>
<path d="M79.3011 169.364C79.2415 168.86 78.9995 168.469 78.5753 168.19C78.151 167.912 77.6307 167.773 77.0142 167.773C76.5634 167.773 76.169 167.846 75.831 167.991C75.4962 168.137 75.2344 168.338 75.0455 168.593C74.8598 168.848 74.767 169.138 74.767 169.463C74.767 169.735 74.8317 169.969 74.9609 170.164C75.0935 170.356 75.2625 170.517 75.468 170.646C75.6735 170.772 75.889 170.877 76.1143 170.96C76.3397 171.039 76.5469 171.104 76.7358 171.153L77.7699 171.432C78.035 171.501 78.33 171.598 78.6548 171.72C78.983 171.843 79.2962 172.01 79.5945 172.222C79.8961 172.431 80.1446 172.7 80.3402 173.028C80.5357 173.356 80.6335 173.759 80.6335 174.236C80.6335 174.786 80.4893 175.283 80.201 175.727C79.916 176.171 79.4983 176.524 78.9482 176.786C78.4013 177.048 77.7367 177.179 76.9545 177.179C76.2254 177.179 75.594 177.061 75.0604 176.826C74.5301 176.591 74.1125 176.263 73.8075 175.842C73.5059 175.421 73.3352 174.932 73.2955 174.375H74.5682C74.6013 174.759 74.7306 175.078 74.956 175.33C75.1847 175.578 75.473 175.764 75.821 175.886C76.1723 176.006 76.5502 176.065 76.9545 176.065C77.4252 176.065 77.8478 175.989 78.2223 175.837C78.5968 175.681 78.8935 175.465 79.1122 175.19C79.331 174.912 79.4403 174.587 79.4403 174.216C79.4403 173.878 79.3459 173.603 79.157 173.391C78.968 173.179 78.7195 173.006 78.4112 172.874C78.103 172.741 77.7699 172.625 77.4119 172.526L76.1591 172.168C75.3636 171.939 74.7339 171.612 74.2699 171.188C73.8059 170.764 73.5739 170.209 73.5739 169.523C73.5739 168.953 73.728 168.455 74.0362 168.031C74.3478 167.604 74.7654 167.272 75.2891 167.037C75.8161 166.798 76.4044 166.679 77.054 166.679C77.7102 166.679 78.2936 166.797 78.804 167.032C79.3144 167.264 79.7188 167.582 80.017 167.987C80.3187 168.391 80.4777 168.85 80.4943 169.364H79.3011ZM83.8149 172.406V177H82.6416V166.818H83.8149V170.557H83.9143C84.0933 170.162 84.3618 169.849 84.7197 169.617C85.081 169.382 85.5616 169.264 86.1615 169.264C86.6818 169.264 87.1376 169.369 87.5287 169.577C87.9198 169.783 88.223 170.099 88.4385 170.527C88.6572 170.951 88.7666 171.491 88.7666 172.148V177H87.5933V172.227C87.5933 171.621 87.4359 171.152 87.121 170.82C86.8094 170.486 86.3769 170.318 85.8234 170.318C85.4389 170.318 85.0942 170.399 84.7893 170.562C84.4877 170.724 84.2491 170.961 84.0734 171.273C83.9011 171.584 83.8149 171.962 83.8149 172.406ZM93.3002 177.179C92.8163 177.179 92.3772 177.088 91.9828 176.906C91.5884 176.72 91.2751 176.453 91.0431 176.105C90.8111 175.754 90.6951 175.33 90.6951 174.832C90.6951 174.395 90.7813 174.04 90.9537 173.768C91.126 173.493 91.3564 173.278 91.6447 173.122C91.9331 172.966 92.2512 172.85 92.5992 172.774C92.9506 172.695 93.3036 172.632 93.6582 172.585C94.1222 172.526 94.4984 172.481 94.7867 172.451C95.0784 172.418 95.2905 172.363 95.4231 172.287C95.559 172.211 95.6269 172.078 95.6269 171.889V171.849C95.6269 171.359 95.4927 170.978 95.2242 170.706C94.9591 170.434 94.5564 170.298 94.0162 170.298C93.456 170.298 93.0169 170.421 92.6987 170.666C92.3805 170.911 92.1568 171.173 92.0275 171.452L90.9139 171.054C91.1127 170.59 91.3779 170.229 91.7093 169.97C92.0441 169.708 92.4087 169.526 92.8031 169.423C93.2008 169.317 93.5919 169.264 93.9764 169.264C94.2216 169.264 94.5034 169.294 94.8215 169.354C95.143 169.41 95.4529 169.528 95.7512 169.707C96.0528 169.886 96.3031 170.156 96.5019 170.517C96.7008 170.878 96.8002 171.362 96.8002 171.969V177H95.6269V175.966H95.5673C95.4877 176.132 95.3552 176.309 95.1696 176.498C94.984 176.687 94.737 176.848 94.4288 176.98C94.1206 177.113 93.7444 177.179 93.3002 177.179ZM93.4792 176.125C93.9432 176.125 94.3343 176.034 94.6525 175.852C94.974 175.669 95.216 175.434 95.3784 175.146C95.5441 174.857 95.6269 174.554 95.6269 174.236V173.162C95.5772 173.222 95.4679 173.276 95.2988 173.326C95.1331 173.372 94.9409 173.414 94.7221 173.45C94.5067 173.483 94.2962 173.513 94.0907 173.54C93.8885 173.563 93.7245 173.583 93.5985 173.599C93.2936 173.639 93.0086 173.704 92.7434 173.793C92.4816 173.879 92.2695 174.01 92.1071 174.186C91.948 174.358 91.8684 174.594 91.8684 174.892C91.8684 175.3 92.0192 175.608 92.3208 175.817C92.6258 176.022 93.0119 176.125 93.4792 176.125ZM99.0818 177V169.364H100.215V170.517H100.295C100.434 170.139 100.686 169.833 101.051 169.597C101.415 169.362 101.826 169.244 102.283 169.244C102.37 169.244 102.477 169.246 102.607 169.249C102.736 169.253 102.834 169.258 102.9 169.264V170.457C102.86 170.447 102.769 170.433 102.626 170.413C102.487 170.389 102.34 170.378 102.184 170.378C101.813 170.378 101.481 170.456 101.19 170.612C100.901 170.764 100.673 170.976 100.504 171.248C100.338 171.516 100.255 171.823 100.255 172.168V177H99.0818ZM107.4 177.159C106.664 177.159 106.03 176.997 105.496 176.672C104.966 176.344 104.556 175.886 104.268 175.3C103.983 174.71 103.84 174.024 103.84 173.241C103.84 172.459 103.983 171.77 104.268 171.173C104.556 170.573 104.957 170.106 105.471 169.771C105.988 169.433 106.591 169.264 107.281 169.264C107.678 169.264 108.071 169.33 108.459 169.463C108.847 169.596 109.2 169.811 109.518 170.109C109.836 170.404 110.09 170.795 110.279 171.283C110.467 171.77 110.562 172.37 110.562 173.082V173.58H104.676V172.565H109.369C109.369 172.134 109.283 171.75 109.11 171.412C108.941 171.074 108.699 170.807 108.384 170.612C108.073 170.416 107.705 170.318 107.281 170.318C106.813 170.318 106.409 170.434 106.068 170.666C105.73 170.895 105.469 171.193 105.287 171.561C105.105 171.929 105.014 172.323 105.014 172.744V173.42C105.014 173.997 105.113 174.486 105.312 174.887C105.514 175.285 105.794 175.588 106.152 175.797C106.51 176.002 106.926 176.105 107.4 176.105C107.708 176.105 107.987 176.062 108.235 175.976C108.487 175.886 108.704 175.754 108.887 175.578C109.069 175.399 109.21 175.177 109.309 174.912L110.443 175.23C110.323 175.615 110.123 175.953 109.841 176.244C109.559 176.533 109.211 176.758 108.797 176.92C108.383 177.08 107.917 177.159 107.4 177.159Z" fill="#1A1B1F"/>
<path d="M331.233 166.207C331.533 165.921 332.007 165.933 332.293 166.233L337.294 171.483C337.57 171.773 337.57 172.228 337.294 172.518L332.293 177.768C332.007 178.068 331.533 178.08 331.233 177.794C330.933 177.508 330.921 177.034 331.207 176.734L335.716 172L331.207 167.267C330.921 166.967 330.933 166.493 331.233 166.207Z" fill="#878B92"/>
<path d="M74.1506 229.818L77.1733 238.389H77.2926L80.3153 229.818H81.608L77.8693 240H76.5966L72.858 229.818H74.1506ZM83.1748 240V232.364H84.3481V240H83.1748ZM83.7714 231.091C83.5427 231.091 83.3455 231.013 83.1798 230.857C83.0174 230.701 82.9362 230.514 82.9362 230.295C82.9362 230.077 83.0174 229.889 83.1798 229.734C83.3455 229.578 83.5427 229.5 83.7714 229.5C84.0001 229.5 84.1956 229.578 84.358 229.734C84.5238 229.889 84.6066 230.077 84.6066 230.295C84.6066 230.514 84.5238 230.701 84.358 230.857C84.1956 231.013 84.0001 231.091 83.7714 231.091ZM89.8388 240.159C89.103 240.159 88.4683 239.997 87.9347 239.672C87.4043 239.344 86.995 238.886 86.7067 238.3C86.4216 237.71 86.2791 237.024 86.2791 236.241C86.2791 235.459 86.4216 234.77 86.7067 234.173C86.995 233.573 87.3961 233.106 87.9098 232.771C88.4268 232.433 89.0301 232.264 89.7195 232.264C90.1172 232.264 90.5099 232.33 90.8977 232.463C91.2855 232.596 91.6385 232.811 91.9567 233.109C92.2749 233.404 92.5284 233.795 92.7173 234.283C92.9062 234.77 93.0007 235.37 93.0007 236.082V236.58H87.1143V235.565H91.8075C91.8075 235.134 91.7213 234.75 91.549 234.412C91.38 234.074 91.138 233.807 90.8231 233.612C90.5116 233.416 90.1437 233.318 89.7195 233.318C89.2521 233.318 88.8478 233.434 88.5064 233.666C88.1683 233.895 87.9081 234.193 87.7258 234.561C87.5436 234.929 87.4524 235.323 87.4524 235.744V236.42C87.4524 236.997 87.5518 237.486 87.7507 237.887C87.9529 238.285 88.2329 238.588 88.5909 238.797C88.9489 239.002 89.3648 239.105 89.8388 239.105C90.147 239.105 90.4254 239.062 90.674 238.976C90.9259 238.886 91.143 238.754 91.3253 238.578C91.5076 238.399 91.6484 238.177 91.7479 237.912L92.8814 238.23C92.7621 238.615 92.5615 238.953 92.2798 239.244C91.9981 239.533 91.6501 239.758 91.2358 239.92C90.8215 240.08 90.3558 240.159 89.8388 240.159ZM96.6556 240L94.3289 232.364H95.5619L97.2124 238.21H97.292L98.9227 232.364H100.176L101.786 238.19H101.866L103.516 232.364H104.749L102.423 240H101.269L99.5988 234.134H99.4795L97.809 240H96.6556ZM113.402 240.159C112.765 240.159 112.203 239.998 111.716 239.677C111.229 239.352 110.848 238.895 110.573 238.305C110.298 237.711 110.16 237.01 110.16 236.202C110.16 235.4 110.298 234.704 110.573 234.114C110.848 233.524 111.231 233.068 111.721 232.746C112.212 232.425 112.778 232.264 113.421 232.264C113.919 232.264 114.311 232.347 114.6 232.513C114.891 232.675 115.113 232.861 115.266 233.07C115.422 233.275 115.543 233.444 115.629 233.577H115.728V229.818H116.902V240H115.768V238.827H115.629C115.543 238.966 115.42 239.142 115.261 239.354C115.102 239.562 114.875 239.75 114.58 239.915C114.285 240.078 113.892 240.159 113.402 240.159ZM113.561 239.105C114.031 239.105 114.429 238.982 114.754 238.737C115.079 238.489 115.326 238.146 115.495 237.708C115.664 237.267 115.748 236.759 115.748 236.182C115.748 235.612 115.665 235.113 115.5 234.685C115.334 234.254 115.089 233.92 114.764 233.681C114.439 233.439 114.038 233.318 113.561 233.318C113.063 233.318 112.649 233.446 112.318 233.701C111.99 233.953 111.743 234.296 111.577 234.73C111.415 235.161 111.333 235.645 111.333 236.182C111.333 236.725 111.416 237.219 111.582 237.663C111.751 238.104 112 238.455 112.328 238.717C112.659 238.976 113.07 239.105 113.561 239.105ZM122.555 240.159C121.819 240.159 121.185 239.997 120.651 239.672C120.121 239.344 119.711 238.886 119.423 238.3C119.138 237.71 118.995 237.024 118.995 236.241C118.995 235.459 119.138 234.77 119.423 234.173C119.711 233.573 120.112 233.106 120.626 232.771C121.143 232.433 121.746 232.264 122.436 232.264C122.833 232.264 123.226 232.33 123.614 232.463C124.002 232.596 124.355 232.811 124.673 233.109C124.991 233.404 125.245 233.795 125.434 234.283C125.622 234.77 125.717 235.37 125.717 236.082V236.58H119.831V235.565H124.524C124.524 235.134 124.438 234.75 124.265 234.412C124.096 234.074 123.854 233.807 123.539 233.612C123.228 233.416 122.86 233.318 122.436 233.318C121.968 233.318 121.564 233.434 121.223 233.666C120.885 233.895 120.624 234.193 120.442 234.561C120.26 234.929 120.169 235.323 120.169 235.744V236.42C120.169 236.997 120.268 237.486 120.467 237.887C120.669 238.285 120.949 238.588 121.307 238.797C121.665 239.002 122.081 239.105 122.555 239.105C122.863 239.105 123.142 239.062 123.39 238.976C123.642 238.886 123.859 238.754 124.042 238.578C124.224 238.399 124.365 238.177 124.464 237.912L125.598 238.23C125.478 238.615 125.278 238.953 124.996 239.244C124.714 239.533 124.366 239.758 123.952 239.92C123.538 240.08 123.072 240.159 122.555 240.159ZM130.963 232.364V233.358H127.005V232.364H130.963ZM128.159 230.534H129.332V237.812C129.332 238.144 129.38 238.393 129.476 238.558C129.576 238.721 129.702 238.83 129.854 238.886C130.01 238.939 130.174 238.966 130.346 238.966C130.476 238.966 130.582 238.959 130.664 238.946C130.747 238.929 130.814 238.916 130.863 238.906L131.102 239.96C131.022 239.99 130.911 240.02 130.769 240.05C130.626 240.083 130.446 240.099 130.227 240.099C129.896 240.099 129.571 240.028 129.253 239.886C128.938 239.743 128.676 239.526 128.467 239.234C128.262 238.943 128.159 238.575 128.159 238.131V230.534ZM135.115 240.179C134.631 240.179 134.192 240.088 133.797 239.906C133.403 239.72 133.09 239.453 132.858 239.105C132.626 238.754 132.51 238.33 132.51 237.832C132.51 237.395 132.596 237.04 132.768 236.768C132.941 236.493 133.171 236.278 133.459 236.122C133.748 235.966 134.066 235.85 134.414 235.774C134.765 235.695 135.118 235.632 135.473 235.585C135.937 235.526 136.313 235.481 136.601 235.451C136.893 235.418 137.105 235.363 137.238 235.287C137.374 235.211 137.442 235.078 137.442 234.889V234.849C137.442 234.359 137.307 233.978 137.039 233.706C136.774 233.434 136.371 233.298 135.831 233.298C135.271 233.298 134.831 233.421 134.513 233.666C134.195 233.911 133.971 234.173 133.842 234.452L132.728 234.054C132.927 233.59 133.193 233.229 133.524 232.97C133.859 232.708 134.223 232.526 134.618 232.423C135.015 232.317 135.407 232.264 135.791 232.264C136.036 232.264 136.318 232.294 136.636 232.354C136.958 232.41 137.268 232.528 137.566 232.707C137.867 232.886 138.118 233.156 138.317 233.517C138.515 233.878 138.615 234.362 138.615 234.969V240H137.442V238.966H137.382C137.302 239.132 137.17 239.309 136.984 239.498C136.799 239.687 136.552 239.848 136.243 239.98C135.935 240.113 135.559 240.179 135.115 240.179ZM135.294 239.125C135.758 239.125 136.149 239.034 136.467 238.852C136.789 238.669 137.031 238.434 137.193 238.146C137.359 237.857 137.442 237.554 137.442 237.236V236.162C137.392 236.222 137.282 236.276 137.113 236.326C136.948 236.372 136.755 236.414 136.537 236.45C136.321 236.483 136.111 236.513 135.905 236.54C135.703 236.563 135.539 236.583 135.413 236.599C135.108 236.639 134.823 236.704 134.558 236.793C134.296 236.879 134.084 237.01 133.922 237.186C133.763 237.358 133.683 237.594 133.683 237.892C133.683 238.3 133.834 238.608 134.135 238.817C134.44 239.022 134.826 239.125 135.294 239.125ZM140.896 240V232.364H142.07V240H140.896ZM141.493 231.091C141.264 231.091 141.067 231.013 140.901 230.857C140.739 230.701 140.658 230.514 140.658 230.295C140.658 230.077 140.739 229.889 140.901 229.734C141.067 229.578 141.264 229.5 141.493 229.5C141.722 229.5 141.917 229.578 142.08 229.734C142.245 229.889 142.328 230.077 142.328 230.295C142.328 230.514 142.245 230.701 142.08 230.857C141.917 231.013 141.722 231.091 141.493 231.091ZM145.532 229.818V240H144.359V229.818H145.532ZM153.23 234.074L152.176 234.372C152.11 234.196 152.012 234.026 151.883 233.86C151.757 233.691 151.584 233.552 151.366 233.442C151.147 233.333 150.867 233.278 150.525 233.278C150.058 233.278 149.669 233.386 149.357 233.602C149.049 233.814 148.895 234.084 148.895 234.412C148.895 234.704 149.001 234.934 149.213 235.103C149.425 235.272 149.757 235.413 150.207 235.526L151.341 235.804C152.024 235.97 152.532 236.223 152.867 236.565C153.202 236.903 153.369 237.339 153.369 237.872C153.369 238.31 153.243 238.701 152.991 239.045C152.743 239.39 152.395 239.662 151.947 239.861C151.5 240.06 150.98 240.159 150.386 240.159C149.607 240.159 148.963 239.99 148.452 239.652C147.942 239.314 147.619 238.82 147.483 238.17L148.596 237.892C148.703 238.303 148.903 238.611 149.198 238.817C149.496 239.022 149.886 239.125 150.366 239.125C150.913 239.125 151.347 239.009 151.669 238.777C151.994 238.542 152.156 238.26 152.156 237.932C152.156 237.667 152.063 237.445 151.878 237.266C151.692 237.083 151.407 236.947 151.023 236.858L149.75 236.56C149.051 236.394 148.537 236.137 148.209 235.789C147.884 235.438 147.721 234.999 147.721 234.472C147.721 234.041 147.842 233.66 148.084 233.328C148.33 232.997 148.663 232.737 149.084 232.548C149.508 232.359 149.989 232.264 150.525 232.264C151.281 232.264 151.874 232.43 152.305 232.761C152.739 233.093 153.048 233.53 153.23 234.074Z" fill="#1A1B1F"/>
<rect x="0.5" y="278" width="375" height="1" fill="#E1E6EF"/>
<path d="M52.5 312.75C54.233 312.75 55.6492 314.106 55.7449 315.816L55.75 316H61C61.4142 316 61.75 316.336 61.75 316.75C61.75 317.13 61.4678 317.443 61.1018 317.493L61 317.5H60.204L58.9239 330.519C58.7912 331.868 57.6984 332.91 56.3626 332.994L56.1871 333H48.8129C47.4573 333 46.3137 332.014 46.0988 330.693L46.0761 330.519L44.795 317.5H44C43.6203 317.5 43.3065 317.218 43.2568 316.852L43.25 316.75C43.25 316.37 43.5322 316.057 43.8982 316.007L44 316H49.25C49.25 314.205 50.7051 312.75 52.5 312.75ZM58.697 317.5H46.302L47.5689 330.372C47.6277 330.97 48.1003 331.434 48.6858 331.494L48.8129 331.5H56.1871C56.7872 331.5 57.2959 331.075 57.4123 330.498L57.4311 330.372L58.697 317.5ZM54.25 320.25C54.6297 320.25 54.9435 320.532 54.9932 320.898L55 321V328C55 328.414 54.6642 328.75 54.25 328.75C53.8703 328.75 53.5565 328.468 53.5068 328.102L53.5 328V321C53.5 320.586 53.8358 320.25 54.25 320.25ZM50.75 320.25C51.1297 320.25 51.4435 320.532 51.4932 320.898L51.5 321V328C51.5 328.414 51.1642 328.75 50.75 328.75C50.3703 328.75 50.0565 328.468 50.0068 328.102L50 328V321C50 320.586 50.3358 320.25 50.75 320.25ZM52.5 314.25C51.5818 314.25 50.8288 314.957 50.7558 315.856L50.75 316H54.25C54.25 315.034 53.4665 314.25 52.5 314.25Z" fill="#1A1B1F"/>
<path d="M76.875 328H73.733V317.818H77.0142C78.0019 317.818 78.8471 318.022 79.5497 318.43C80.2524 318.834 80.791 319.416 81.1655 320.175C81.54 320.93 81.7273 321.835 81.7273 322.889C81.7273 323.95 81.5384 324.863 81.1605 325.629C80.7827 326.391 80.2325 326.978 79.5099 327.388C78.7874 327.796 77.9091 328 76.875 328ZM74.9659 326.906H76.7955C77.6373 326.906 78.335 326.744 78.8885 326.419C79.442 326.094 79.8546 325.632 80.1264 325.032C80.3982 324.432 80.5341 323.718 80.5341 322.889C80.5341 322.067 80.3999 321.36 80.1314 320.766C79.8629 320.17 79.4619 319.712 78.9283 319.394C78.3946 319.073 77.7301 318.912 76.9347 318.912H74.9659V326.906ZM86.9781 328.159C86.2423 328.159 85.6076 327.997 85.0739 327.672C84.5436 327.344 84.1343 326.886 83.846 326.3C83.5609 325.71 83.4184 325.024 83.4184 324.241C83.4184 323.459 83.5609 322.77 83.846 322.173C84.1343 321.573 84.5354 321.106 85.0491 320.771C85.5661 320.433 86.1694 320.264 86.8588 320.264C87.2565 320.264 87.6492 320.33 88.037 320.463C88.4248 320.596 88.7778 320.811 89.096 321.109C89.4141 321.404 89.6677 321.795 89.8566 322.283C90.0455 322.77 90.14 323.37 90.14 324.082V324.58H84.2536V323.565H88.9468C88.9468 323.134 88.8606 322.75 88.6883 322.412C88.5193 322.074 88.2773 321.807 87.9624 321.612C87.6509 321.416 87.283 321.318 86.8588 321.318C86.3914 321.318 85.9871 321.434 85.6457 321.666C85.3076 321.895 85.0474 322.193 84.8651 322.561C84.6829 322.929 84.5917 323.323 84.5917 323.744V324.42C84.5917 324.997 84.6911 325.486 84.89 325.887C85.0922 326.285 85.3722 326.588 85.7302 326.797C86.0882 327.002 86.5041 327.105 86.9781 327.105C87.2863 327.105 87.5647 327.062 87.8133 326.976C88.0652 326.886 88.2823 326.754 88.4646 326.578C88.6469 326.399 88.7877 326.177 88.8872 325.912L90.0207 326.23C89.9014 326.615 89.7008 326.953 89.4191 327.244C89.1374 327.533 88.7894 327.758 88.3751 327.92C87.9608 328.08 87.4951 328.159 86.9781 328.159ZM93.2381 317.818V328H92.0648V317.818H93.2381ZM98.7288 328.159C97.993 328.159 97.3583 327.997 96.8247 327.672C96.2943 327.344 95.885 326.886 95.5967 326.3C95.3116 325.71 95.1691 325.024 95.1691 324.241C95.1691 323.459 95.3116 322.77 95.5967 322.173C95.885 321.573 96.2861 321.106 96.7998 320.771C97.3168 320.433 97.9201 320.264 98.6095 320.264C99.0072 320.264 99.3999 320.33 99.7877 320.463C100.176 320.596 100.528 320.811 100.847 321.109C101.165 321.404 101.418 321.795 101.607 322.283C101.796 322.77 101.891 323.37 101.891 324.082V324.58H96.0043V323.565H100.698C100.698 323.134 100.611 322.75 100.439 322.412C100.27 322.074 100.028 321.807 99.7131 321.612C99.4016 321.416 99.0337 321.318 98.6095 321.318C98.1421 321.318 97.7378 321.434 97.3964 321.666C97.0583 321.895 96.7981 322.193 96.6158 322.561C96.4336 322.929 96.3424 323.323 96.3424 323.744V324.42C96.3424 324.997 96.4418 325.486 96.6407 325.887C96.8429 326.285 97.1229 326.588 97.4809 326.797C97.8389 327.002 98.2548 327.105 98.7288 327.105C99.037 327.105 99.3154 327.062 99.564 326.976C99.8159 326.886 100.033 326.754 100.215 326.578C100.398 326.399 100.538 326.177 100.638 325.912L101.771 326.23C101.652 326.615 101.452 326.953 101.17 327.244C100.888 327.533 100.54 327.758 100.126 327.92C99.7115 328.08 99.2458 328.159 98.7288 328.159ZM107.137 320.364V321.358H103.179V320.364H107.137ZM104.333 318.534H105.506V325.812C105.506 326.144 105.554 326.393 105.65 326.558C105.749 326.721 105.875 326.83 106.028 326.886C106.184 326.939 106.348 326.966 106.52 326.966C106.649 326.966 106.755 326.959 106.838 326.946C106.921 326.929 106.987 326.916 107.037 326.906L107.276 327.96C107.196 327.99 107.085 328.02 106.943 328.05C106.8 328.083 106.619 328.099 106.401 328.099C106.069 328.099 105.744 328.028 105.426 327.886C105.111 327.743 104.85 327.526 104.641 327.234C104.435 326.943 104.333 326.575 104.333 326.131V318.534ZM112.161 328.159C111.425 328.159 110.791 327.997 110.257 327.672C109.727 327.344 109.317 326.886 109.029 326.3C108.744 325.71 108.601 325.024 108.601 324.241C108.601 323.459 108.744 322.77 109.029 322.173C109.317 321.573 109.718 321.106 110.232 320.771C110.749 320.433 111.352 320.264 112.042 320.264C112.44 320.264 112.832 320.33 113.22 320.463C113.608 320.596 113.961 320.811 114.279 321.109C114.597 321.404 114.851 321.795 115.04 322.283C115.229 322.77 115.323 323.37 115.323 324.082V324.58H109.437V323.565H114.13C114.13 323.134 114.044 322.75 113.871 322.412C113.702 322.074 113.46 321.807 113.145 321.612C112.834 321.416 112.466 321.318 112.042 321.318C111.574 321.318 111.17 321.434 110.829 321.666C110.491 321.895 110.23 322.193 110.048 322.561C109.866 322.929 109.775 323.323 109.775 323.744V324.42C109.775 324.997 109.874 325.486 110.073 325.887C110.275 326.285 110.555 326.588 110.913 326.797C111.271 327.002 111.687 327.105 112.161 327.105C112.469 327.105 112.748 327.062 112.996 326.976C113.248 326.886 113.465 326.754 113.648 326.578C113.83 326.399 113.971 326.177 114.07 325.912L115.204 326.23C115.084 326.615 114.884 326.953 114.602 327.244C114.32 327.533 113.972 327.758 113.558 327.92C113.144 328.08 112.678 328.159 112.161 328.159Z" fill="#1A1B1F"/>
<g filter="url(#filter0_b_4730_20735)">
<rect width="375" height="64" transform="translate(0.5 367)" fill="#F9FAFB" fill-opacity="0.5"/>
<path d="M180.397 391.554L180.47 391.47C180.736 391.203 181.153 391.179 181.446 391.397L181.53 391.47L188 397.939L194.47 391.47C194.763 391.177 195.237 391.177 195.53 391.47C195.823 391.763 195.823 392.237 195.53 392.53L189.061 399L195.53 405.47C195.797 405.736 195.821 406.153 195.603 406.446L195.53 406.53C195.264 406.797 194.847 406.821 194.554 406.603L194.47 406.53L188 400.061L181.53 406.53C181.237 406.823 180.763 406.823 180.47 406.53C180.177 406.237 180.177 405.763 180.47 405.47L186.939 399L180.47 392.53C180.203 392.264 180.179 391.847 180.397 391.554L180.47 391.47L180.397 391.554Z" fill="#1A1B1F"/>
<rect x="0.5" y="367" width="375" height="1" fill="#E1E6EF"/>
</g>
<defs>
<filter id="filter0_b_4730_20735" x="-15.5" y="351" width="407" height="96" filterUnits="userSpaceOnUse" color-interpolation-filters="sRGB">
<feFlood flood-opacity="0" result="BackgroundImageFix"/>
<feGaussianBlur in="BackgroundImageFix" stdDeviation="8"/>
<feComposite in2="SourceAlpha" operator="in" result="effect1_backgroundBlur_4730_20735"/>
<feBlend mode="normal" in="SourceGraphic" in2="effect1_backgroundBlur_4730_20735" result="shape"/>
</filter>
</defs>
</svg>
