<svg width="203" height="358" viewBox="0 0 203 358" fill="none" xmlns="http://www.w3.org/2000/svg">
<path d="M58.8182 13.3636V25H57.4091V13.3636H58.8182ZM65.2571 16.2727V17.4091H60.7344V16.2727H65.2571ZM62.0526 14.1818H63.3935V22.5C63.3935 22.8788 63.4484 23.1629 63.5582 23.3523C63.6719 23.5379 63.8158 23.6629 63.9901 23.7273C64.1681 23.7879 64.3556 23.8182 64.5526 23.8182C64.7003 23.8182 64.8215 23.8106 64.9162 23.7955C65.0109 23.7765 65.0866 23.7614 65.1435 23.75L65.4162 24.9545C65.3253 24.9886 65.1984 25.0227 65.0355 25.0568C64.8726 25.0947 64.6662 25.1136 64.4162 25.1136C64.0374 25.1136 63.6662 25.0322 63.3026 24.8693C62.9427 24.7064 62.6435 24.4583 62.4048 24.125C62.17 23.7917 62.0526 23.3712 62.0526 22.8636V14.1818ZM70.8395 25.1818C69.9986 25.1818 69.2732 24.9962 68.6634 24.625C68.0573 24.25 67.5895 23.7273 67.2599 23.0568C66.9342 22.3826 66.7713 21.5985 66.7713 20.7045C66.7713 19.8106 66.9342 19.0227 67.2599 18.3409C67.5895 17.6553 68.0478 17.1212 68.6349 16.7386C69.2259 16.3523 69.9152 16.1591 70.7031 16.1591C71.1577 16.1591 71.6065 16.2348 72.0497 16.3864C72.4929 16.5379 72.8963 16.7841 73.2599 17.125C73.6236 17.4621 73.9134 17.9091 74.1293 18.4659C74.3452 19.0227 74.4531 19.7083 74.4531 20.5227V21.0909H67.7259V19.9318H73.0895C73.0895 19.4394 72.991 19 72.794 18.6136C72.6009 18.2273 72.3243 17.9223 71.9645 17.6989C71.6084 17.4754 71.188 17.3636 70.7031 17.3636C70.169 17.3636 69.7069 17.4962 69.3168 17.7614C68.9304 18.0227 68.633 18.3636 68.4247 18.7841C68.2164 19.2045 68.1122 19.6553 68.1122 20.1364V20.9091C68.1122 21.5682 68.2259 22.1269 68.4531 22.5852C68.6842 23.0398 69.0043 23.3864 69.4134 23.625C69.8224 23.8598 70.2978 23.9773 70.8395 23.9773C71.1918 23.9773 71.5099 23.928 71.794 23.8295C72.0819 23.7273 72.33 23.5758 72.5384 23.375C72.7467 23.1705 72.9077 22.9167 73.0213 22.6136L74.3168 22.9773C74.1804 23.4167 73.9512 23.803 73.6293 24.1364C73.3073 24.4659 72.9096 24.7235 72.4361 24.9091C71.9626 25.0909 71.4304 25.1818 70.8395 25.1818ZM76.4929 25V16.2727H77.7884V17.6364H77.902C78.0838 17.1705 78.3774 16.8087 78.7827 16.5511C79.188 16.2898 79.6747 16.1591 80.2429 16.1591C80.8187 16.1591 81.2978 16.2898 81.6804 16.5511C82.0668 16.8087 82.3679 17.1705 82.5838 17.6364H82.6747C82.8982 17.1856 83.2334 16.8277 83.6804 16.5625C84.1274 16.2936 84.6634 16.1591 85.2884 16.1591C86.0687 16.1591 86.7069 16.4034 87.2031 16.892C87.6993 17.3769 87.9474 18.1326 87.9474 19.1591V25H86.6065V19.1591C86.6065 18.5152 86.4304 18.0549 86.0781 17.7784C85.7259 17.5019 85.3111 17.3636 84.8338 17.3636C84.2202 17.3636 83.7448 17.5492 83.4077 17.9205C83.0705 18.2879 82.902 18.7538 82.902 19.3182V25H81.5384V19.0227C81.5384 18.5265 81.3774 18.1269 81.0554 17.8239C80.7334 17.517 80.3187 17.3636 79.8111 17.3636C79.4626 17.3636 79.1368 17.4564 78.8338 17.642C78.5346 17.8277 78.2921 18.0852 78.1065 18.4148C77.9247 18.7405 77.8338 19.1174 77.8338 19.5455V25H76.4929Z" fill="#1A1B1F"/>
<path d="M42.8182 76.3636V88H41.4091V76.3636H42.8182ZM49.2571 79.2727V80.4091H44.7344V79.2727H49.2571ZM46.0526 77.1818H47.3935V85.5C47.3935 85.8788 47.4484 86.1629 47.5582 86.3523C47.6719 86.5379 47.8158 86.6629 47.9901 86.7273C48.1681 86.7879 48.3556 86.8182 48.5526 86.8182C48.7003 86.8182 48.8215 86.8106 48.9162 86.7955C49.0109 86.7765 49.0866 86.7614 49.1435 86.75L49.4162 87.9545C49.3253 87.9886 49.1984 88.0227 49.0355 88.0568C48.8726 88.0947 48.6662 88.1136 48.4162 88.1136C48.0374 88.1136 47.6662 88.0322 47.3026 87.8693C46.9427 87.7064 46.6435 87.4583 46.4048 87.125C46.17 86.7917 46.0526 86.3712 46.0526 85.8636V77.1818ZM54.8395 88.1818C53.9986 88.1818 53.2732 87.9962 52.6634 87.625C52.0573 87.25 51.5895 86.7273 51.2599 86.0568C50.9342 85.3826 50.7713 84.5985 50.7713 83.7045C50.7713 82.8106 50.9342 82.0227 51.2599 81.3409C51.5895 80.6553 52.0478 80.1212 52.6349 79.7386C53.2259 79.3523 53.9152 79.1591 54.7031 79.1591C55.1577 79.1591 55.6065 79.2348 56.0497 79.3864C56.4929 79.5379 56.8963 79.7841 57.2599 80.125C57.6236 80.4621 57.9134 80.9091 58.1293 81.4659C58.3452 82.0227 58.4531 82.7083 58.4531 83.5227V84.0909H51.7259V82.9318H57.0895C57.0895 82.4394 56.991 82 56.794 81.6136C56.6009 81.2273 56.3243 80.9223 55.9645 80.6989C55.6084 80.4754 55.188 80.3636 54.7031 80.3636C54.169 80.3636 53.7069 80.4962 53.3168 80.7614C52.9304 81.0227 52.633 81.3636 52.4247 81.7841C52.2164 82.2045 52.1122 82.6553 52.1122 83.1364V83.9091C52.1122 84.5682 52.2259 85.1269 52.4531 85.5852C52.6842 86.0398 53.0043 86.3864 53.4134 86.625C53.8224 86.8598 54.2978 86.9773 54.8395 86.9773C55.1918 86.9773 55.5099 86.928 55.794 86.8295C56.0819 86.7273 56.33 86.5758 56.5384 86.375C56.7467 86.1705 56.9077 85.9167 57.0213 85.6136L58.3168 85.9773C58.1804 86.4167 57.9512 86.803 57.6293 87.1364C57.3073 87.4659 56.9096 87.7235 56.4361 87.9091C55.9626 88.0909 55.4304 88.1818 54.8395 88.1818ZM60.4929 88V79.2727H61.7884V80.6364H61.902C62.0838 80.1705 62.3774 79.8087 62.7827 79.5511C63.188 79.2898 63.6747 79.1591 64.2429 79.1591C64.8187 79.1591 65.2978 79.2898 65.6804 79.5511C66.0668 79.8087 66.3679 80.1705 66.5838 80.6364H66.6747C66.8982 80.1856 67.2334 79.8277 67.6804 79.5625C68.1274 79.2936 68.6634 79.1591 69.2884 79.1591C70.0687 79.1591 70.7069 79.4034 71.2031 79.892C71.6993 80.3769 71.9474 81.1326 71.9474 82.1591V88H70.6065V82.1591C70.6065 81.5152 70.4304 81.0549 70.0781 80.7784C69.7259 80.5019 69.3111 80.3636 68.8338 80.3636C68.2202 80.3636 67.7448 80.5492 67.4077 80.9205C67.0705 81.2879 66.902 81.7538 66.902 82.3182V88H65.5384V82.0227C65.5384 81.5265 65.3774 81.1269 65.0554 80.8239C64.7334 80.517 64.3187 80.3636 63.8111 80.3636C63.4626 80.3636 63.1368 80.4564 62.8338 80.642C62.5346 80.8277 62.2921 81.0852 62.1065 81.4148C61.9247 81.7405 61.8338 82.1174 61.8338 82.5455V88H60.4929Z" fill="#1A1B1F"/>
<path d="M175 73.5C170.306 73.5 166.5 77.3056 166.5 82C166.5 86.6944 170.306 90.5 175 90.5C179.694 90.5 183.5 86.6944 183.5 82C183.5 77.3056 179.694 73.5 175 73.5ZM165 82C165 76.4772 169.477 72 175 72C180.523 72 185 76.4772 185 82C185 87.5228 180.523 92 175 92C169.477 92 165 87.5228 165 82Z" fill="#1A1B1F"/>
<rect width="203" height="40" transform="translate(0 126)" fill="#F0F2F5"/>
<path d="M42.8182 140.364V152H41.4091V140.364H42.8182ZM49.2571 143.273V144.409H44.7344V143.273H49.2571ZM46.0526 141.182H47.3935V149.5C47.3935 149.879 47.4484 150.163 47.5582 150.352C47.6719 150.538 47.8158 150.663 47.9901 150.727C48.1681 150.788 48.3556 150.818 48.5526 150.818C48.7003 150.818 48.8215 150.811 48.9162 150.795C49.0109 150.777 49.0866 150.761 49.1435 150.75L49.4162 151.955C49.3253 151.989 49.1984 152.023 49.0355 152.057C48.8726 152.095 48.6662 152.114 48.4162 152.114C48.0374 152.114 47.6662 152.032 47.3026 151.869C46.9427 151.706 46.6435 151.458 46.4048 151.125C46.17 150.792 46.0526 150.371 46.0526 149.864V141.182ZM54.8395 152.182C53.9986 152.182 53.2732 151.996 52.6634 151.625C52.0573 151.25 51.5895 150.727 51.2599 150.057C50.9342 149.383 50.7713 148.598 50.7713 147.705C50.7713 146.811 50.9342 146.023 51.2599 145.341C51.5895 144.655 52.0478 144.121 52.6349 143.739C53.2259 143.352 53.9152 143.159 54.7031 143.159C55.1577 143.159 55.6065 143.235 56.0497 143.386C56.4929 143.538 56.8963 143.784 57.2599 144.125C57.6236 144.462 57.9134 144.909 58.1293 145.466C58.3452 146.023 58.4531 146.708 58.4531 147.523V148.091H51.7259V146.932H57.0895C57.0895 146.439 56.991 146 56.794 145.614C56.6009 145.227 56.3243 144.922 55.9645 144.699C55.6084 144.475 55.188 144.364 54.7031 144.364C54.169 144.364 53.7069 144.496 53.3168 144.761C52.9304 145.023 52.633 145.364 52.4247 145.784C52.2164 146.205 52.1122 146.655 52.1122 147.136V147.909C52.1122 148.568 52.2259 149.127 52.4531 149.585C52.6842 150.04 53.0043 150.386 53.4134 150.625C53.8224 150.86 54.2978 150.977 54.8395 150.977C55.1918 150.977 55.5099 150.928 55.794 150.83C56.0819 150.727 56.33 150.576 56.5384 150.375C56.7467 150.17 56.9077 149.917 57.0213 149.614L58.3168 149.977C58.1804 150.417 57.9512 150.803 57.6293 151.136C57.3073 151.466 56.9096 151.723 56.4361 151.909C55.9626 152.091 55.4304 152.182 54.8395 152.182ZM60.4929 152V143.273H61.7884V144.636H61.902C62.0838 144.17 62.3774 143.809 62.7827 143.551C63.188 143.29 63.6747 143.159 64.2429 143.159C64.8187 143.159 65.2978 143.29 65.6804 143.551C66.0668 143.809 66.3679 144.17 66.5838 144.636H66.6747C66.8982 144.186 67.2334 143.828 67.6804 143.562C68.1274 143.294 68.6634 143.159 69.2884 143.159C70.0687 143.159 70.7069 143.403 71.2031 143.892C71.6993 144.377 71.9474 145.133 71.9474 146.159V152H70.6065V146.159C70.6065 145.515 70.4304 145.055 70.0781 144.778C69.7259 144.502 69.3111 144.364 68.8338 144.364C68.2202 144.364 67.7448 144.549 67.4077 144.92C67.0705 145.288 66.902 145.754 66.902 146.318V152H65.5384V146.023C65.5384 145.527 65.3774 145.127 65.0554 144.824C64.7334 144.517 64.3187 144.364 63.8111 144.364C63.4626 144.364 63.1368 144.456 62.8338 144.642C62.5346 144.828 62.2921 145.085 62.1065 145.415C61.9247 145.741 61.8338 146.117 61.8338 146.545V152H60.4929Z" fill="#1A1B1F"/>
<path d="M175 137.5C170.306 137.5 166.5 141.306 166.5 146C166.5 150.694 170.306 154.5 175 154.5C179.694 154.5 183.5 150.694 183.5 146C183.5 141.306 179.694 137.5 175 137.5ZM165 146C165 140.477 169.477 136 175 136C180.523 136 185 140.477 185 146C185 151.523 180.523 156 175 156C169.477 156 165 151.523 165 146Z" fill="#1A1B1F"/>
<path d="M28 201.5C23.3056 201.5 19.5 205.306 19.5 210C19.5 214.694 23.3056 218.5 28 218.5C32.6944 218.5 36.5 214.694 36.5 210C36.5 205.306 32.6944 201.5 28 201.5ZM18 210C18 204.477 22.4772 200 28 200C33.5228 200 38 204.477 38 210C38 215.523 33.5228 220 28 220C22.4772 220 18 215.523 18 210Z" fill="#1A1B1F"/>
<path d="M58.8182 204.364V216H57.4091V204.364H58.8182ZM65.2571 207.273V208.409H60.7344V207.273H65.2571ZM62.0526 205.182H63.3935V213.5C63.3935 213.879 63.4484 214.163 63.5582 214.352C63.6719 214.538 63.8158 214.663 63.9901 214.727C64.1681 214.788 64.3556 214.818 64.5526 214.818C64.7003 214.818 64.8215 214.811 64.9162 214.795C65.0109 214.777 65.0866 214.761 65.1435 214.75L65.4162 215.955C65.3253 215.989 65.1984 216.023 65.0355 216.057C64.8726 216.095 64.6662 216.114 64.4162 216.114C64.0374 216.114 63.6662 216.032 63.3026 215.869C62.9427 215.706 62.6435 215.458 62.4048 215.125C62.17 214.792 62.0526 214.371 62.0526 213.864V205.182ZM70.8395 216.182C69.9986 216.182 69.2732 215.996 68.6634 215.625C68.0573 215.25 67.5895 214.727 67.2599 214.057C66.9342 213.383 66.7713 212.598 66.7713 211.705C66.7713 210.811 66.9342 210.023 67.2599 209.341C67.5895 208.655 68.0478 208.121 68.6349 207.739C69.2259 207.352 69.9152 207.159 70.7031 207.159C71.1577 207.159 71.6065 207.235 72.0497 207.386C72.4929 207.538 72.8963 207.784 73.2599 208.125C73.6236 208.462 73.9134 208.909 74.1293 209.466C74.3452 210.023 74.4531 210.708 74.4531 211.523V212.091H67.7259V210.932H73.0895C73.0895 210.439 72.991 210 72.794 209.614C72.6009 209.227 72.3243 208.922 71.9645 208.699C71.6084 208.475 71.188 208.364 70.7031 208.364C70.169 208.364 69.7069 208.496 69.3168 208.761C68.9304 209.023 68.633 209.364 68.4247 209.784C68.2164 210.205 68.1122 210.655 68.1122 211.136V211.909C68.1122 212.568 68.2259 213.127 68.4531 213.585C68.6842 214.04 69.0043 214.386 69.4134 214.625C69.8224 214.86 70.2978 214.977 70.8395 214.977C71.1918 214.977 71.5099 214.928 71.794 214.83C72.0819 214.727 72.33 214.576 72.5384 214.375C72.7467 214.17 72.9077 213.917 73.0213 213.614L74.3168 213.977C74.1804 214.417 73.9512 214.803 73.6293 215.136C73.3073 215.466 72.9096 215.723 72.4361 215.909C71.9626 216.091 71.4304 216.182 70.8395 216.182ZM76.4929 216V207.273H77.7884V208.636H77.902C78.0838 208.17 78.3774 207.809 78.7827 207.551C79.188 207.29 79.6747 207.159 80.2429 207.159C80.8187 207.159 81.2978 207.29 81.6804 207.551C82.0668 207.809 82.3679 208.17 82.5838 208.636H82.6747C82.8982 208.186 83.2334 207.828 83.6804 207.562C84.1274 207.294 84.6634 207.159 85.2884 207.159C86.0687 207.159 86.7069 207.403 87.2031 207.892C87.6993 208.377 87.9474 209.133 87.9474 210.159V216H86.6065V210.159C86.6065 209.515 86.4304 209.055 86.0781 208.778C85.7259 208.502 85.3111 208.364 84.8338 208.364C84.2202 208.364 83.7448 208.549 83.4077 208.92C83.0705 209.288 82.902 209.754 82.902 210.318V216H81.5384V210.023C81.5384 209.527 81.3774 209.127 81.0554 208.824C80.7334 208.517 80.3187 208.364 79.8111 208.364C79.4626 208.364 79.1368 208.456 78.8338 208.642C78.5346 208.828 78.2921 209.085 78.1065 209.415C77.9247 209.741 77.8338 210.117 77.8338 210.545V216H76.4929Z" fill="#1A1B1F"/>
<path d="M28 265.5C23.3056 265.5 19.5 269.306 19.5 274C19.5 278.694 23.3056 282.5 28 282.5C32.6944 282.5 36.5 278.694 36.5 274C36.5 269.306 32.6944 265.5 28 265.5ZM18 274C18 268.477 22.4772 264 28 264C33.5228 264 38 268.477 38 274C38 279.523 33.5228 284 28 284C22.4772 284 18 279.523 18 274Z" fill="#1A1B1F"/>
<path d="M58.8182 268.364V280H57.4091V268.364H58.8182ZM65.2571 271.273V272.409H60.7344V271.273H65.2571ZM62.0526 269.182H63.3935V277.5C63.3935 277.879 63.4484 278.163 63.5582 278.352C63.6719 278.538 63.8158 278.663 63.9901 278.727C64.1681 278.788 64.3556 278.818 64.5526 278.818C64.7003 278.818 64.8215 278.811 64.9162 278.795C65.0109 278.777 65.0866 278.761 65.1435 278.75L65.4162 279.955C65.3253 279.989 65.1984 280.023 65.0355 280.057C64.8726 280.095 64.6662 280.114 64.4162 280.114C64.0374 280.114 63.6662 280.032 63.3026 279.869C62.9427 279.706 62.6435 279.458 62.4048 279.125C62.17 278.792 62.0526 278.371 62.0526 277.864V269.182ZM70.8395 280.182C69.9986 280.182 69.2732 279.996 68.6634 279.625C68.0573 279.25 67.5895 278.727 67.2599 278.057C66.9342 277.383 66.7713 276.598 66.7713 275.705C66.7713 274.811 66.9342 274.023 67.2599 273.341C67.5895 272.655 68.0478 272.121 68.6349 271.739C69.2259 271.352 69.9152 271.159 70.7031 271.159C71.1577 271.159 71.6065 271.235 72.0497 271.386C72.4929 271.538 72.8963 271.784 73.2599 272.125C73.6236 272.462 73.9134 272.909 74.1293 273.466C74.3452 274.023 74.4531 274.708 74.4531 275.523V276.091H67.7259V274.932H73.0895C73.0895 274.439 72.991 274 72.794 273.614C72.6009 273.227 72.3243 272.922 71.9645 272.699C71.6084 272.475 71.188 272.364 70.7031 272.364C70.169 272.364 69.7069 272.496 69.3168 272.761C68.9304 273.023 68.633 273.364 68.4247 273.784C68.2164 274.205 68.1122 274.655 68.1122 275.136V275.909C68.1122 276.568 68.2259 277.127 68.4531 277.585C68.6842 278.04 69.0043 278.386 69.4134 278.625C69.8224 278.86 70.2978 278.977 70.8395 278.977C71.1918 278.977 71.5099 278.928 71.794 278.83C72.0819 278.727 72.33 278.576 72.5384 278.375C72.7467 278.17 72.9077 277.917 73.0213 277.614L74.3168 277.977C74.1804 278.417 73.9512 278.803 73.6293 279.136C73.3073 279.466 72.9096 279.723 72.4361 279.909C71.9626 280.091 71.4304 280.182 70.8395 280.182ZM76.4929 280V271.273H77.7884V272.636H77.902C78.0838 272.17 78.3774 271.809 78.7827 271.551C79.188 271.29 79.6747 271.159 80.2429 271.159C80.8187 271.159 81.2978 271.29 81.6804 271.551C82.0668 271.809 82.3679 272.17 82.5838 272.636H82.6747C82.8982 272.186 83.2334 271.828 83.6804 271.562C84.1274 271.294 84.6634 271.159 85.2884 271.159C86.0687 271.159 86.7069 271.403 87.2031 271.892C87.6993 272.377 87.9474 273.133 87.9474 274.159V280H86.6065V274.159C86.6065 273.515 86.4304 273.055 86.0781 272.778C85.7259 272.502 85.3111 272.364 84.8338 272.364C84.2202 272.364 83.7448 272.549 83.4077 272.92C83.0705 273.288 82.902 273.754 82.902 274.318V280H81.5384V274.023C81.5384 273.527 81.3774 273.127 81.0554 272.824C80.7334 272.517 80.3187 272.364 79.8111 272.364C79.4626 272.364 79.1368 272.456 78.8338 272.642C78.5346 272.828 78.2921 273.085 78.1065 273.415C77.9247 273.741 77.8338 274.117 77.8338 274.545V280H76.4929Z" fill="#1A1B1F"/>
<path d="M175 265.5C170.306 265.5 166.5 269.306 166.5 274C166.5 278.694 170.306 282.5 175 282.5C179.694 282.5 183.5 278.694 183.5 274C183.5 269.306 179.694 265.5 175 265.5ZM165 274C165 268.477 169.477 264 175 264C180.523 264 185 268.477 185 274C185 279.523 180.523 284 175 284C169.477 284 165 279.523 165 274Z" fill="#1A1B1F"/>
<rect width="203" height="40" transform="translate(0 318)" fill="#148F47" fill-opacity="0.1"/>
<path d="M20.5303 338.97C20.2374 338.677 19.7626 338.677 19.4697 338.97C19.1768 339.263 19.1768 339.737 19.4697 340.03L23.9697 344.53C24.2626 344.823 24.7374 344.823 25.0303 344.53L36.0303 333.53C36.3232 333.237 36.3232 332.763 36.0303 332.47C35.7374 332.177 35.2626 332.177 34.9697 332.47L24.5 342.939L20.5303 338.97Z" fill="#148F47"/>
<path d="M58.8182 332.364V344H57.4091V332.364H58.8182ZM65.2571 335.273V336.409H60.7344V335.273H65.2571ZM62.0526 333.182H63.3935V341.5C63.3935 341.879 63.4484 342.163 63.5582 342.352C63.6719 342.538 63.8158 342.663 63.9901 342.727C64.1681 342.788 64.3556 342.818 64.5526 342.818C64.7003 342.818 64.8215 342.811 64.9162 342.795C65.0109 342.777 65.0866 342.761 65.1435 342.75L65.4162 343.955C65.3253 343.989 65.1984 344.023 65.0355 344.057C64.8726 344.095 64.6662 344.114 64.4162 344.114C64.0374 344.114 63.6662 344.032 63.3026 343.869C62.9427 343.706 62.6435 343.458 62.4048 343.125C62.17 342.792 62.0526 342.371 62.0526 341.864V333.182ZM70.8395 344.182C69.9986 344.182 69.2732 343.996 68.6634 343.625C68.0573 343.25 67.5895 342.727 67.2599 342.057C66.9342 341.383 66.7713 340.598 66.7713 339.705C66.7713 338.811 66.9342 338.023 67.2599 337.341C67.5895 336.655 68.0478 336.121 68.6349 335.739C69.2259 335.352 69.9152 335.159 70.7031 335.159C71.1577 335.159 71.6065 335.235 72.0497 335.386C72.4929 335.538 72.8963 335.784 73.2599 336.125C73.6236 336.462 73.9134 336.909 74.1293 337.466C74.3452 338.023 74.4531 338.708 74.4531 339.523V340.091H67.7259V338.932H73.0895C73.0895 338.439 72.991 338 72.794 337.614C72.6009 337.227 72.3243 336.922 71.9645 336.699C71.6084 336.475 71.188 336.364 70.7031 336.364C70.169 336.364 69.7069 336.496 69.3168 336.761C68.9304 337.023 68.633 337.364 68.4247 337.784C68.2164 338.205 68.1122 338.655 68.1122 339.136V339.909C68.1122 340.568 68.2259 341.127 68.4531 341.585C68.6842 342.04 69.0043 342.386 69.4134 342.625C69.8224 342.86 70.2978 342.977 70.8395 342.977C71.1918 342.977 71.5099 342.928 71.794 342.83C72.0819 342.727 72.33 342.576 72.5384 342.375C72.7467 342.17 72.9077 341.917 73.0213 341.614L74.3168 341.977C74.1804 342.417 73.9512 342.803 73.6293 343.136C73.3073 343.466 72.9096 343.723 72.4361 343.909C71.9626 344.091 71.4304 344.182 70.8395 344.182ZM76.4929 344V335.273H77.7884V336.636H77.902C78.0838 336.17 78.3774 335.809 78.7827 335.551C79.188 335.29 79.6747 335.159 80.2429 335.159C80.8187 335.159 81.2978 335.29 81.6804 335.551C82.0668 335.809 82.3679 336.17 82.5838 336.636H82.6747C82.8982 336.186 83.2334 335.828 83.6804 335.562C84.1274 335.294 84.6634 335.159 85.2884 335.159C86.0687 335.159 86.7069 335.403 87.2031 335.892C87.6993 336.377 87.9474 337.133 87.9474 338.159V344H86.6065V338.159C86.6065 337.515 86.4304 337.055 86.0781 336.778C85.7259 336.502 85.3111 336.364 84.8338 336.364C84.2202 336.364 83.7448 336.549 83.4077 336.92C83.0705 337.288 82.902 337.754 82.902 338.318V344H81.5384V338.023C81.5384 337.527 81.3774 337.127 81.0554 336.824C80.7334 336.517 80.3187 336.364 79.8111 336.364C79.4626 336.364 79.1368 336.456 78.8338 336.642C78.5346 336.828 78.2921 337.085 78.1065 337.415C77.9247 337.741 77.8338 338.117 77.8338 338.545V344H76.4929Z" fill="#1A1B1F"/>
<path d="M175 329.5C170.306 329.5 166.5 333.306 166.5 338C166.5 342.694 170.306 346.5 175 346.5C179.694 346.5 183.5 342.694 183.5 338C183.5 333.306 179.694 329.5 175 329.5ZM165 338C165 332.477 169.477 328 175 328C180.523 328 185 332.477 185 338C185 343.523 180.523 348 175 348C169.477 348 165 343.523 165 338Z" fill="#1A1B1F"/>
</svg>
