<svg width="390" height="88" viewBox="0 0 390 88" fill="none" xmlns="http://www.w3.org/2000/svg">
<g filter="url(#filter0_b_4730_20723)">
<rect width="390" height="88" fill="#F9FAFB" fill-opacity="0.5"/>
<rect width="390" height="1" fill="#E1E6EF"/>
<rect x="24.75" y="16.75" width="88.5" height="54.5" rx="27.25" stroke="#1A1B1F" stroke-width="1.5"/>
<path d="M49.1555 50V38.3636H51.2635V48.233H56.3885V50H49.1555ZM60.6385 50.1761C60.0855 50.1761 59.5874 50.0777 59.1442 49.8807C58.7048 49.6799 58.3563 49.3845 58.0987 48.9943C57.8449 48.6042 57.718 48.1231 57.718 47.5511C57.718 47.0587 57.8089 46.6515 57.9908 46.3295C58.1726 46.0076 58.4207 45.75 58.7351 45.5568C59.0495 45.3636 59.4036 45.2178 59.7976 45.1193C60.1953 45.017 60.6063 44.9432 61.0305 44.8977C61.5419 44.8447 61.9567 44.7973 62.2749 44.7557C62.593 44.7102 62.8241 44.642 62.968 44.5511C63.1158 44.4564 63.1896 44.3106 63.1896 44.1136V44.0795C63.1896 43.6515 63.0627 43.3201 62.8089 43.0852C62.5552 42.8504 62.1896 42.733 61.7124 42.733C61.2086 42.733 60.8089 42.8428 60.5135 43.0625C60.2218 43.2822 60.0249 43.5417 59.9226 43.8409L58.0021 43.5682C58.1536 43.0379 58.4036 42.5947 58.7521 42.2386C59.1006 41.8788 59.5268 41.6098 60.0305 41.4318C60.5343 41.25 61.0911 41.1591 61.701 41.1591C62.1214 41.1591 62.54 41.2083 62.9567 41.3068C63.3733 41.4053 63.754 41.5682 64.0987 41.7955C64.4434 42.0189 64.7199 42.3239 64.9283 42.7102C65.1404 43.0966 65.2464 43.5795 65.2464 44.1591V50H63.2692V48.8011H63.201C63.076 49.0436 62.8999 49.2708 62.6726 49.483C62.4491 49.6913 62.1669 49.8598 61.826 49.9886C61.4889 50.1136 61.093 50.1761 60.6385 50.1761ZM61.1726 48.6648C61.5855 48.6648 61.9434 48.5833 62.2464 48.4205C62.5495 48.2538 62.7824 48.0341 62.9453 47.7614C63.112 47.4886 63.1953 47.1913 63.1953 46.8693V45.8409C63.1309 45.8939 63.0211 45.9432 62.8658 45.9886C62.7143 46.0341 62.5438 46.0739 62.3544 46.108C62.165 46.142 61.9775 46.1723 61.7919 46.1989C61.6063 46.2254 61.4453 46.2481 61.3089 46.267C61.0021 46.3087 60.7275 46.3769 60.4851 46.4716C60.2427 46.5663 60.0514 46.6989 59.9112 46.8693C59.7711 47.036 59.701 47.2519 59.701 47.517C59.701 47.8958 59.8393 48.1818 60.1158 48.375C60.3923 48.5682 60.7446 48.6648 61.1726 48.6648ZM67.4055 50V38.3636H69.4624V42.7159H69.5476C69.6536 42.5038 69.8033 42.2784 69.9964 42.0398C70.1896 41.7973 70.451 41.5909 70.7805 41.4205C71.1101 41.2462 71.5305 41.1591 72.0419 41.1591C72.7161 41.1591 73.3241 41.3314 73.8658 41.6761C74.4112 42.017 74.843 42.5227 75.1612 43.1932C75.4832 43.8598 75.6442 44.678 75.6442 45.6477C75.6442 46.6061 75.487 47.4205 75.1726 48.0909C74.8582 48.7614 74.4302 49.2727 73.8885 49.625C73.3468 49.9773 72.7332 50.1534 72.0476 50.1534C71.5476 50.1534 71.1328 50.0701 70.8033 49.9034C70.4737 49.7367 70.2086 49.536 70.0078 49.3011C69.8108 49.0625 69.6574 48.8371 69.5476 48.625H69.4283V50H67.4055ZM69.4226 45.6364C69.4226 46.2008 69.5021 46.6951 69.6612 47.1193C69.8241 47.5436 70.0571 47.875 70.3601 48.1136C70.6669 48.3485 71.0381 48.4659 71.4737 48.4659C71.9283 48.4659 72.3089 48.3447 72.6158 48.1023C72.9226 47.8561 73.1536 47.5208 73.3089 47.0966C73.468 46.6686 73.5476 46.1818 73.5476 45.6364C73.5476 45.0947 73.4699 44.6136 73.3146 44.1932C73.1593 43.7727 72.9283 43.4432 72.6214 43.2045C72.3146 42.9659 71.9321 42.8466 71.4737 42.8466C71.0343 42.8466 70.6612 42.9621 70.3544 43.1932C70.0476 43.4242 69.8146 43.7481 69.6555 44.1648C69.5002 44.5814 69.4226 45.072 69.4226 45.6364ZM81.2564 50.1705C80.3814 50.1705 79.6257 49.9886 78.9893 49.625C78.3568 49.2576 77.87 48.7386 77.5291 48.0682C77.1882 47.3939 77.0178 46.6004 77.0178 45.6875C77.0178 44.7898 77.1882 44.0019 77.5291 43.3239C77.8738 42.642 78.3549 42.1117 78.9723 41.733C79.5897 41.3504 80.3151 41.1591 81.1484 41.1591C81.6863 41.1591 82.1939 41.2462 82.6712 41.4205C83.1522 41.5909 83.5765 41.8561 83.9439 42.2159C84.3151 42.5758 84.6068 43.0341 84.8189 43.5909C85.031 44.1439 85.1371 44.803 85.1371 45.5682V46.1989H77.9837V44.8125H83.1655C83.1617 44.4186 83.0765 44.0682 82.9098 43.7614C82.7431 43.4508 82.5102 43.2064 82.2109 43.0284C81.9155 42.8504 81.5708 42.7614 81.1768 42.7614C80.7564 42.7614 80.3871 42.8636 80.0689 43.0682C79.7507 43.2689 79.5026 43.5341 79.3246 43.8636C79.1503 44.1894 79.0613 44.5473 79.0575 44.9375V46.1477C79.0575 46.6553 79.1503 47.0909 79.3359 47.4545C79.5215 47.8144 79.781 48.0909 80.1143 48.2841C80.4477 48.4735 80.8378 48.5682 81.2848 48.5682C81.584 48.5682 81.8549 48.5265 82.0973 48.4432C82.3397 48.3561 82.55 48.2292 82.728 48.0625C82.906 47.8958 83.0405 47.6894 83.1314 47.4432L85.0518 47.6591C84.9306 48.1667 84.6996 48.6098 84.3587 48.9886C84.0215 49.3636 83.5897 49.6553 83.0632 49.8636C82.5367 50.0682 81.9344 50.1705 81.2564 50.1705ZM88.9339 38.3636V50H86.8771V38.3636H88.9339Z" fill="#1A1B1F"/>
<rect x="122" y="16" width="244" height="56" rx="28" fill="#0052D6"/>
<path d="M224.156 50V38.3636H226.263V48.233H231.388V50H224.156ZM235.638 50.1761C235.085 50.1761 234.587 50.0777 234.144 49.8807C233.705 49.6799 233.356 49.3845 233.099 48.9943C232.845 48.6042 232.718 48.1231 232.718 47.5511C232.718 47.0587 232.809 46.6515 232.991 46.3295C233.173 46.0076 233.421 45.75 233.735 45.5568C234.049 45.3636 234.404 45.2178 234.798 45.1193C235.195 45.017 235.606 44.9432 236.031 44.8977C236.542 44.8447 236.957 44.7973 237.275 44.7557C237.593 44.7102 237.824 44.642 237.968 44.5511C238.116 44.4564 238.19 44.3106 238.19 44.1136V44.0795C238.19 43.6515 238.063 43.3201 237.809 43.0852C237.555 42.8504 237.19 42.733 236.712 42.733C236.209 42.733 235.809 42.8428 235.513 43.0625C235.222 43.2822 235.025 43.5417 234.923 43.8409L233.002 43.5682C233.154 43.0379 233.404 42.5947 233.752 42.2386C234.101 41.8788 234.527 41.6098 235.031 41.4318C235.534 41.25 236.091 41.1591 236.701 41.1591C237.121 41.1591 237.54 41.2083 237.957 41.3068C238.373 41.4053 238.754 41.5682 239.099 41.7955C239.443 42.0189 239.72 42.3239 239.928 42.7102C240.14 43.0966 240.246 43.5795 240.246 44.1591V50H238.269V48.8011H238.201C238.076 49.0436 237.9 49.2708 237.673 49.483C237.449 49.6913 237.167 49.8598 236.826 49.9886C236.489 50.1136 236.093 50.1761 235.638 50.1761ZM236.173 48.6648C236.585 48.6648 236.943 48.5833 237.246 48.4205C237.549 48.2538 237.782 48.0341 237.945 47.7614C238.112 47.4886 238.195 47.1913 238.195 46.8693V45.8409C238.131 45.8939 238.021 45.9432 237.866 45.9886C237.714 46.0341 237.544 46.0739 237.354 46.108C237.165 46.142 236.978 46.1723 236.792 46.1989C236.606 46.2254 236.445 46.2481 236.309 46.267C236.002 46.3087 235.728 46.3769 235.485 46.4716C235.243 46.5663 235.051 46.6989 234.911 46.8693C234.771 47.036 234.701 47.2519 234.701 47.517C234.701 47.8958 234.839 48.1818 235.116 48.375C235.392 48.5682 235.745 48.6648 236.173 48.6648ZM242.406 50V38.3636H244.462V42.7159H244.548C244.654 42.5038 244.803 42.2784 244.996 42.0398C245.19 41.7973 245.451 41.5909 245.781 41.4205C246.11 41.2462 246.531 41.1591 247.042 41.1591C247.716 41.1591 248.324 41.3314 248.866 41.6761C249.411 42.017 249.843 42.5227 250.161 43.1932C250.483 43.8598 250.644 44.678 250.644 45.6477C250.644 46.6061 250.487 47.4205 250.173 48.0909C249.858 48.7614 249.43 49.2727 248.888 49.625C248.347 49.9773 247.733 50.1534 247.048 50.1534C246.548 50.1534 246.133 50.0701 245.803 49.9034C245.474 49.7367 245.209 49.536 245.008 49.3011C244.811 49.0625 244.657 48.8371 244.548 48.625H244.428V50H242.406ZM244.423 45.6364C244.423 46.2008 244.502 46.6951 244.661 47.1193C244.824 47.5436 245.057 47.875 245.36 48.1136C245.667 48.3485 246.038 48.4659 246.474 48.4659C246.928 48.4659 247.309 48.3447 247.616 48.1023C247.923 47.8561 248.154 47.5208 248.309 47.0966C248.468 46.6686 248.548 46.1818 248.548 45.6364C248.548 45.0947 248.47 44.6136 248.315 44.1932C248.159 43.7727 247.928 43.4432 247.621 43.2045C247.315 42.9659 246.932 42.8466 246.474 42.8466C246.034 42.8466 245.661 42.9621 245.354 43.1932C245.048 43.4242 244.815 43.7481 244.656 44.1648C244.5 44.5814 244.423 45.072 244.423 45.6364ZM256.256 50.1705C255.381 50.1705 254.626 49.9886 253.989 49.625C253.357 49.2576 252.87 48.7386 252.529 48.0682C252.188 47.3939 252.018 46.6004 252.018 45.6875C252.018 44.7898 252.188 44.0019 252.529 43.3239C252.874 42.642 253.355 42.1117 253.972 41.733C254.59 41.3504 255.315 41.1591 256.148 41.1591C256.686 41.1591 257.194 41.2462 257.671 41.4205C258.152 41.5909 258.576 41.8561 258.944 42.2159C259.315 42.5758 259.607 43.0341 259.819 43.5909C260.031 44.1439 260.137 44.803 260.137 45.5682V46.1989H252.984V44.8125H258.165C258.162 44.4186 258.076 44.0682 257.91 43.7614C257.743 43.4508 257.51 43.2064 257.211 43.0284C256.915 42.8504 256.571 42.7614 256.177 42.7614C255.756 42.7614 255.387 42.8636 255.069 43.0682C254.751 43.2689 254.503 43.5341 254.325 43.8636C254.15 44.1894 254.061 44.5473 254.058 44.9375V46.1477C254.058 46.6553 254.15 47.0909 254.336 47.4545C254.522 47.8144 254.781 48.0909 255.114 48.2841C255.448 48.4735 255.838 48.5682 256.285 48.5682C256.584 48.5682 256.855 48.5265 257.097 48.4432C257.34 48.3561 257.55 48.2292 257.728 48.0625C257.906 47.8958 258.04 47.6894 258.131 47.4432L260.052 47.6591C259.931 48.1667 259.7 48.6098 259.359 48.9886C259.022 49.3636 258.59 49.6553 258.063 49.8636C257.537 50.0682 256.934 50.1705 256.256 50.1705ZM263.934 38.3636V50H261.877V38.3636H263.934Z" fill="#F5F9FF"/>
</g>
<defs>
<filter id="filter0_b_4730_20723" x="-16" y="-16" width="422" height="120" filterUnits="userSpaceOnUse" color-interpolation-filters="sRGB">
<feFlood flood-opacity="0" result="BackgroundImageFix"/>
<feGaussianBlur in="BackgroundImageFix" stdDeviation="8"/>
<feComposite in2="SourceAlpha" operator="in" result="effect1_backgroundBlur_4730_20723"/>
<feBlend mode="normal" in="SourceGraphic" in2="effect1_backgroundBlur_4730_20723" result="shape"/>
</filter>
</defs>
</svg>
