<svg width="376" height="64" viewBox="0 0 376 64" fill="none" xmlns="http://www.w3.org/2000/svg">
<rect width="375" height="64" transform="translate(0.5)" fill="#F9FAFB"/>
<path d="M169.222 26.897V24.9091H179.666V26.897H175.62V38H173.268V26.897H169.222ZM181.578 38V28.1818H183.892V38H181.578ZM182.741 26.7884C182.374 26.7884 182.059 26.6669 181.795 26.424C181.531 26.1768 181.399 25.8807 181.399 25.5355C181.399 25.1861 181.531 24.8899 181.795 24.647C182.059 24.3999 182.374 24.2763 182.741 24.2763C183.112 24.2763 183.427 24.3999 183.687 24.647C183.951 24.8899 184.083 25.1861 184.083 25.5355C184.083 25.8807 183.951 26.1768 183.687 26.424C183.427 26.6669 183.112 26.7884 182.741 26.7884ZM191.174 28.1818V29.9716H185.529V28.1818H191.174ZM186.923 25.8295H189.237V35.0469C189.237 35.358 189.284 35.5966 189.377 35.7628C189.475 35.9247 189.603 36.0355 189.761 36.0952C189.919 36.1548 190.093 36.1847 190.285 36.1847C190.43 36.1847 190.562 36.174 190.681 36.1527C190.805 36.1314 190.899 36.1122 190.963 36.0952L191.353 37.9041C191.229 37.9467 191.052 37.9936 190.822 38.0447C190.596 38.0959 190.319 38.1257 189.991 38.1342C189.412 38.1513 188.89 38.0639 188.425 37.8722C187.961 37.6761 187.592 37.3736 187.319 36.9645C187.051 36.5554 186.919 36.044 186.923 35.4304V25.8295ZM195.634 24.9091V38H193.32V24.9091H195.634ZM202.36 38.1918C201.375 38.1918 200.525 37.9872 199.809 37.5781C199.098 37.1648 198.55 36.581 198.167 35.8267C197.783 35.0682 197.591 34.1754 197.591 33.1484C197.591 32.1385 197.783 31.2521 198.167 30.4893C198.554 29.7223 199.096 29.1257 199.79 28.6996C200.485 28.2692 201.301 28.054 202.238 28.054C202.843 28.054 203.414 28.152 203.951 28.348C204.493 28.5398 204.97 28.8381 205.383 29.2429C205.801 29.6477 206.129 30.1634 206.368 30.7898C206.606 31.4119 206.725 32.1534 206.725 33.0142V33.7237H198.678V32.1641H204.507C204.503 31.7209 204.407 31.3267 204.22 30.9815C204.032 30.6321 203.77 30.3572 203.434 30.157C203.101 29.9567 202.713 29.8565 202.27 29.8565C201.797 29.8565 201.382 29.9716 201.024 30.2017C200.666 30.4276 200.387 30.7259 200.186 31.0966C199.99 31.4631 199.89 31.8658 199.886 32.3047V33.6662C199.886 34.2372 199.99 34.7273 200.199 35.1364C200.408 35.5412 200.7 35.8523 201.075 36.0696C201.45 36.2827 201.889 36.3892 202.392 36.3892C202.728 36.3892 203.033 36.3423 203.306 36.2486C203.578 36.1506 203.815 36.0078 204.015 35.8203C204.216 35.6328 204.367 35.4006 204.469 35.1236L206.63 35.3665C206.493 35.9375 206.233 36.4361 205.85 36.8622C205.471 37.2841 204.985 37.6122 204.392 37.8466C203.8 38.0767 203.123 38.1918 202.36 38.1918Z" fill="#1A1B1F"/>
<rect x="0.5" y="63" width="375" height="1" fill="#E1E6EF"/>
<rect x="154.5" y="8" width="68" height="4" rx="2" fill="#EBEFF4"/>
</svg>
