<svg width="472" height="128" viewBox="0 0 472 128" fill="none" xmlns="http://www.w3.org/2000/svg">
<rect x="9.75" y="9.75" width="20.5" height="20.5" rx="10.25" fill="#F9FAFB" stroke="#878B92" stroke-width="1.5"/>
<path d="M48.5568 13.3643V11.8182H56.6804V13.3643H53.5334V22H51.7038V13.3643H48.5568ZM58.3069 22V14.3636H60.1066V22H58.3069ZM59.2117 13.2798C58.9267 13.2798 58.6814 13.1854 58.4759 12.9964C58.2704 12.8042 58.1677 12.5739 58.1677 12.3054C58.1677 12.0336 58.2704 11.8033 58.4759 11.6143C58.6814 11.4221 58.9267 11.326 59.2117 11.326C59.5001 11.326 59.7454 11.4221 59.9475 11.6143C60.153 11.8033 60.2558 12.0336 60.2558 12.3054C60.2558 12.5739 60.153 12.8042 59.9475 12.9964C59.7454 13.1854 59.5001 13.2798 59.2117 13.2798ZM65.9105 14.3636V15.7557H61.5206V14.3636H65.9105ZM62.6044 12.5341H64.4041V19.7031C64.4041 19.9451 64.4406 20.1307 64.5135 20.2599C64.5897 20.3859 64.6891 20.4721 64.8118 20.5185C64.9344 20.5649 65.0703 20.5881 65.2195 20.5881C65.3321 20.5881 65.4349 20.5798 65.5277 20.5632C65.6238 20.5466 65.6967 20.5317 65.7464 20.5185L66.0497 21.9254C65.9536 21.9586 65.816 21.995 65.6371 22.0348C65.4614 22.0746 65.246 22.0978 64.9908 22.1044C64.54 22.1177 64.134 22.0497 63.7727 21.9006C63.4115 21.7481 63.1248 21.5128 62.9126 21.1946C62.7038 20.8764 62.6011 20.4787 62.6044 20.0014V12.5341ZM69.5194 11.8182V22H67.7197V11.8182H69.5194ZM74.8908 22.1491C74.1252 22.1491 73.4639 21.9901 72.9071 21.6719C72.3536 21.3504 71.9277 20.8963 71.6294 20.3097C71.3311 19.7197 71.182 19.0253 71.182 18.2266C71.182 17.4411 71.3311 16.7517 71.6294 16.1584C71.931 15.5618 72.352 15.0978 72.8922 14.7663C73.4325 14.4316 74.0672 14.2642 74.7963 14.2642C75.267 14.2642 75.7111 14.3404 76.1287 14.4929C76.5496 14.642 76.9209 14.8741 77.2424 15.1889C77.5672 15.5038 77.8224 15.9048 78.008 16.392C78.1936 16.8759 78.2864 17.4527 78.2864 18.1222V18.674H72.0272V17.4609H76.5612C76.5579 17.1162 76.4834 16.8097 76.3375 16.5412C76.1917 16.2694 75.9879 16.0556 75.726 15.8999C75.4675 15.7441 75.1659 15.6662 74.8212 15.6662C74.4533 15.6662 74.1301 15.7557 73.8517 15.9347C73.5733 16.1103 73.3562 16.3423 73.2004 16.6307C73.048 16.9157 72.9701 17.2289 72.9668 17.5703V18.6293C72.9668 19.0734 73.048 19.4545 73.2104 19.7727C73.3728 20.0876 73.5998 20.3295 73.8915 20.4986C74.1832 20.6643 74.5245 20.7472 74.9156 20.7472C75.1775 20.7472 75.4145 20.7107 75.6266 20.6378C75.8387 20.5616 76.0227 20.4505 76.1784 20.3047C76.3342 20.1589 76.4519 19.9782 76.5314 19.7628L78.2118 19.9517C78.1057 20.3958 77.9036 20.7836 77.6053 21.1151C77.3103 21.4432 76.9325 21.6984 76.4718 21.8807C76.0111 22.0597 75.4841 22.1491 74.8908 22.1491Z" fill="#1A1B1F"/>
<path d="M52.375 44H49.233V33.8182H52.5142C53.5019 33.8182 54.3471 34.022 55.0497 34.4297C55.7524 34.834 56.291 35.4157 56.6655 36.1747C57.04 36.9304 57.2273 37.8352 57.2273 38.8892C57.2273 39.9498 57.0384 40.8629 56.6605 41.6286C56.2827 42.3909 55.7325 42.9775 55.0099 43.3885C54.2874 43.7962 53.4091 44 52.375 44ZM50.4659 42.9062H52.2955C53.1373 42.9062 53.835 42.7438 54.3885 42.419C54.942 42.0942 55.3546 41.6319 55.6264 41.032C55.8982 40.4321 56.0341 39.7178 56.0341 38.8892C56.0341 38.0672 55.8999 37.3596 55.6314 36.7663C55.3629 36.1697 54.9619 35.7124 54.4283 35.3942C53.8946 35.0727 53.2301 34.9119 52.4347 34.9119H50.4659V42.9062ZM62.4781 44.1591C61.7423 44.1591 61.1076 43.9967 60.5739 43.6719C60.0436 43.3438 59.6343 42.8864 59.346 42.2997C59.0609 41.7098 58.9184 41.0237 58.9184 40.2415C58.9184 39.4593 59.0609 38.7699 59.346 38.1733C59.6343 37.5734 60.0354 37.1061 60.5491 36.7713C61.0661 36.4332 61.6694 36.2642 62.3588 36.2642C62.7565 36.2642 63.1492 36.3305 63.537 36.4631C63.9248 36.5956 64.2778 36.8111 64.596 37.1094C64.9141 37.4044 65.1677 37.7955 65.3566 38.2827C65.5455 38.7699 65.64 39.3698 65.64 40.0824V40.5795H59.7536V39.5653H64.4468C64.4468 39.1345 64.3606 38.75 64.1883 38.4119C64.0193 38.0739 63.7773 37.8071 63.4624 37.6115C63.1509 37.416 62.783 37.3182 62.3588 37.3182C61.8914 37.3182 61.4871 37.4342 61.1457 37.6662C60.8076 37.8949 60.5474 38.1932 60.3651 38.5611C60.1829 38.929 60.0917 39.3234 60.0917 39.7443V40.4205C60.0917 40.9972 60.1911 41.486 60.39 41.8871C60.5922 42.2848 60.8722 42.5881 61.2302 42.7969C61.5882 43.0024 62.0041 43.1051 62.4781 43.1051C62.7863 43.1051 63.0647 43.062 63.3133 42.9759C63.5652 42.8864 63.7823 42.7538 63.9646 42.5781C64.1469 42.3991 64.2877 42.1771 64.3872 41.9119L65.5207 42.2301C65.4014 42.6146 65.2008 42.9527 64.9191 43.2443C64.6374 43.5327 64.2894 43.758 63.8751 43.9205C63.4608 44.0795 62.9951 44.1591 62.4781 44.1591ZM72.9739 38.0739L71.9199 38.3722C71.8536 38.1965 71.7559 38.0258 71.6266 37.8601C71.5006 37.6911 71.3283 37.5518 71.1095 37.4425C70.8908 37.3331 70.6107 37.2784 70.2693 37.2784C69.802 37.2784 69.4126 37.3861 69.101 37.6016C68.7928 37.8137 68.6387 38.0838 68.6387 38.4119C68.6387 38.7036 68.7447 38.9339 68.9568 39.103C69.169 39.272 69.5004 39.4129 69.9512 39.5256L71.0847 39.804C71.7675 39.9697 72.2762 40.2232 72.611 40.5646C72.9457 40.9027 73.1131 41.3385 73.1131 41.8722C73.1131 42.3097 72.9872 42.7008 72.7353 43.0455C72.4867 43.3902 72.1387 43.6619 71.6912 43.8608C71.2438 44.0597 70.7234 44.1591 70.1301 44.1591C69.3513 44.1591 68.7066 43.9901 68.1962 43.652C67.6858 43.3139 67.3626 42.8201 67.2267 42.1705L68.3404 41.892C68.4464 42.303 68.647 42.6113 68.9419 42.8168C69.2402 43.0223 69.6297 43.125 70.1103 43.125C70.6571 43.125 71.0913 43.009 71.4128 42.777C71.7376 42.5417 71.9 42.2599 71.9 41.9318C71.9 41.6667 71.8072 41.4446 71.6216 41.2656C71.436 41.0833 71.151 40.9474 70.7665 40.858L69.4938 40.5597C68.7944 40.3939 68.2807 40.1371 67.9526 39.7891C67.6278 39.4377 67.4654 38.9986 67.4654 38.4716C67.4654 38.0407 67.5863 37.6596 67.8283 37.3281C68.0736 36.9967 68.4067 36.7365 68.8276 36.5476C69.2518 36.3587 69.7324 36.2642 70.2693 36.2642C71.025 36.2642 71.6183 36.4299 72.0492 36.7614C72.4834 37.0928 72.7916 37.5303 72.9739 38.0739ZM78.1215 44.1591C77.4056 44.1591 76.7891 43.9901 76.2721 43.652C75.755 43.3139 75.3573 42.8482 75.0789 42.255C74.8005 41.6617 74.6613 40.9839 74.6613 40.2216C74.6613 39.446 74.8038 38.7616 75.0889 38.1683C75.3772 37.5717 75.7783 37.1061 76.292 36.7713C76.809 36.4332 77.4122 36.2642 78.1016 36.2642C78.6386 36.2642 79.1225 36.3636 79.5533 36.5625C79.9842 36.7614 80.3372 37.0398 80.6123 37.3977C80.8874 37.7557 81.0581 38.1733 81.1244 38.6506H79.9511C79.8616 38.3026 79.6627 37.9943 79.3545 37.7259C79.0496 37.4541 78.6386 37.3182 78.1215 37.3182C77.6641 37.3182 77.2631 37.4375 76.9184 37.6761C76.577 37.9115 76.3102 38.2446 76.118 38.6754C75.9291 39.103 75.8346 39.6051 75.8346 40.1818C75.8346 40.7718 75.9274 41.2855 76.113 41.723C76.3019 42.1605 76.5671 42.5002 76.9085 42.7422C77.2532 42.9841 77.6575 43.1051 78.1215 43.1051C78.4265 43.1051 78.7032 43.0521 78.9518 42.946C79.2004 42.84 79.4108 42.6875 79.5832 42.4886C79.7555 42.2898 79.8782 42.0511 79.9511 41.7727H81.1244C81.0581 42.2235 80.894 42.6295 80.6322 42.9908C80.3737 43.3487 80.0306 43.6338 79.6031 43.8459C79.1788 44.0547 78.685 44.1591 78.1215 44.1591ZM82.9796 44V36.3636H84.1131V37.517H84.1926C84.3318 37.1392 84.5837 36.8326 84.9483 36.5973C85.3129 36.362 85.7239 36.2443 86.1813 36.2443C86.2674 36.2443 86.3752 36.246 86.5044 36.2493C86.6337 36.2526 86.7315 36.2576 86.7978 36.2642V37.4574C86.758 37.4474 86.6668 37.4325 86.5243 37.4126C86.3851 37.3894 86.2376 37.3778 86.0818 37.3778C85.7106 37.3778 85.3792 37.4557 85.0875 37.6115C84.7992 37.764 84.5705 37.9761 84.4014 38.2479C84.2357 38.5163 84.1529 38.8229 84.1529 39.1676V44H82.9796ZM88.3286 44V36.3636H89.5018V44H88.3286ZM88.9251 35.0909C88.6964 35.0909 88.4992 35.013 88.3335 34.8572C88.1711 34.7015 88.0899 34.5142 88.0899 34.2955C88.0899 34.0767 88.1711 33.8894 88.3335 33.7337C88.4992 33.5779 88.6964 33.5 88.9251 33.5C89.1538 33.5 89.3494 33.5779 89.5118 33.7337C89.6775 33.8894 89.7604 34.0767 89.7604 34.2955C89.7604 34.5142 89.6775 34.7015 89.5118 34.8572C89.3494 35.013 89.1538 35.0909 88.9251 35.0909ZM91.7908 46.8636V36.3636H92.9243V37.5767H93.0635C93.1497 37.4441 93.269 37.2751 93.4215 37.0696C93.5773 36.8608 93.7993 36.6752 94.0877 36.5128C94.3794 36.3471 94.7738 36.2642 95.2709 36.2642C95.9139 36.2642 96.4807 36.425 96.9712 36.7464C97.4617 37.0679 97.8446 37.5237 98.1197 38.1136C98.3947 38.7036 98.5323 39.3996 98.5323 40.2017C98.5323 41.0104 98.3947 41.7114 98.1197 42.3047C97.8446 42.8946 97.4634 43.352 96.9762 43.6768C96.489 43.9983 95.9272 44.1591 95.2908 44.1591C94.8003 44.1591 94.4075 44.0779 94.1126 43.9155C93.8176 43.7498 93.5905 43.5625 93.4314 43.3537C93.2724 43.1416 93.1497 42.9659 93.0635 42.8267H92.9641V46.8636H91.7908ZM92.9442 40.1818C92.9442 40.7585 93.0287 41.2673 93.1978 41.7081C93.3668 42.1456 93.6137 42.4886 93.9385 42.7372C94.2634 42.9825 94.6611 43.1051 95.1317 43.1051C95.6223 43.1051 96.0316 42.9759 96.3597 42.7173C96.6911 42.4555 96.9397 42.1042 97.1054 41.6634C97.2745 41.2192 97.359 40.7254 97.359 40.1818C97.359 39.6449 97.2761 39.161 97.1104 38.7301C96.948 38.2959 96.7011 37.9529 96.3697 37.701C96.0415 37.4458 95.6289 37.3182 95.1317 37.3182C94.6545 37.3182 94.2534 37.4392 93.9286 37.6811C93.6038 37.9197 93.3585 38.2545 93.1928 38.6854C93.0271 39.1129 92.9442 39.6117 92.9442 40.1818ZM103.783 36.3636V37.358H99.8257V36.3636H103.783ZM100.979 34.5341H102.152V41.8125C102.152 42.1439 102.2 42.3925 102.297 42.5582C102.396 42.7206 102.522 42.83 102.674 42.8864C102.83 42.9394 102.994 42.9659 103.167 42.9659C103.296 42.9659 103.402 42.9593 103.485 42.946C103.568 42.9295 103.634 42.9162 103.684 42.9062L103.922 43.9602C103.843 43.9901 103.732 44.0199 103.589 44.0497C103.447 44.0829 103.266 44.0994 103.047 44.0994C102.716 44.0994 102.391 44.0282 102.073 43.8857C101.758 43.7431 101.496 43.526 101.287 43.2344C101.082 42.9427 100.979 42.5748 100.979 42.1307V34.5341ZM105.688 44V36.3636H106.861V44H105.688ZM106.285 35.0909C106.056 35.0909 105.859 35.013 105.693 34.8572C105.531 34.7015 105.449 34.5142 105.449 34.2955C105.449 34.0767 105.531 33.8894 105.693 33.7337C105.859 33.5779 106.056 33.5 106.285 33.5C106.513 33.5 106.709 33.5779 106.871 33.7337C107.037 33.8894 107.12 34.0767 107.12 34.2955C107.12 34.5142 107.037 34.7015 106.871 34.8572C106.709 35.013 106.513 35.0909 106.285 35.0909ZM112.253 44.1591C111.563 44.1591 110.958 43.995 110.438 43.6669C109.921 43.3388 109.517 42.8797 109.225 42.2898C108.936 41.6998 108.792 41.0104 108.792 40.2216C108.792 39.4261 108.936 38.7318 109.225 38.1385C109.517 37.5452 109.921 37.0845 110.438 36.7564C110.958 36.4283 111.563 36.2642 112.253 36.2642C112.942 36.2642 113.545 36.4283 114.062 36.7564C114.583 37.0845 114.987 37.5452 115.275 38.1385C115.567 38.7318 115.713 39.4261 115.713 40.2216C115.713 41.0104 115.567 41.6998 115.275 42.2898C114.987 42.8797 114.583 43.3388 114.062 43.6669C113.545 43.995 112.942 44.1591 112.253 44.1591ZM112.253 43.1051C112.776 43.1051 113.207 42.9709 113.545 42.7024C113.883 42.4339 114.133 42.081 114.296 41.6435C114.458 41.206 114.539 40.732 114.539 40.2216C114.539 39.7112 114.458 39.2356 114.296 38.7947C114.133 38.3539 113.883 37.9976 113.545 37.7259C113.207 37.4541 112.776 37.3182 112.253 37.3182C111.729 37.3182 111.298 37.4541 110.96 37.7259C110.622 37.9976 110.372 38.3539 110.209 38.7947C110.047 39.2356 109.966 39.7112 109.966 40.2216C109.966 40.732 110.047 41.206 110.209 41.6435C110.372 42.081 110.622 42.4339 110.96 42.7024C111.298 42.9709 111.729 43.1051 112.253 43.1051ZM118.817 39.4062V44H117.644V36.3636H118.777V37.5568H118.877C119.056 37.169 119.327 36.8575 119.692 36.6222C120.057 36.3835 120.527 36.2642 121.104 36.2642C121.621 36.2642 122.073 36.3703 122.461 36.5824C122.849 36.7912 123.151 37.1094 123.366 37.5369C123.582 37.9612 123.689 38.4981 123.689 39.1477V44H122.516V39.2273C122.516 38.6274 122.36 38.16 122.049 37.8253C121.737 37.4872 121.31 37.3182 120.766 37.3182C120.391 37.3182 120.057 37.3994 119.762 37.5618C119.47 37.7242 119.24 37.9612 119.071 38.2727C118.902 38.5843 118.817 38.9621 118.817 39.4062Z" fill="#1A1B1F" fill-opacity="0.7"/>
<rect x="9" y="81" width="22" height="22" rx="11" fill="#0052D6"/>
<path d="M24 92C24 89.7909 22.2091 88 20 88C17.7909 88 16 89.7909 16 92C16 94.2091 17.7909 96 20 96C22.2091 96 24 94.2091 24 92Z" fill="#F5F9FF"/>
<path d="M48.5568 85.3643V83.8182H56.6804V85.3643H53.5334V94H51.7038V85.3643H48.5568ZM58.3069 94V86.3636H60.1066V94H58.3069ZM59.2117 85.2798C58.9267 85.2798 58.6814 85.1854 58.4759 84.9964C58.2704 84.8042 58.1677 84.5739 58.1677 84.3054C58.1677 84.0336 58.2704 83.8033 58.4759 83.6143C58.6814 83.4221 58.9267 83.326 59.2117 83.326C59.5001 83.326 59.7454 83.4221 59.9475 83.6143C60.153 83.8033 60.2558 84.0336 60.2558 84.3054C60.2558 84.5739 60.153 84.8042 59.9475 84.9964C59.7454 85.1854 59.5001 85.2798 59.2117 85.2798ZM65.9105 86.3636V87.7557H61.5206V86.3636H65.9105ZM62.6044 84.5341H64.4041V91.7031C64.4041 91.9451 64.4406 92.1307 64.5135 92.2599C64.5897 92.3859 64.6891 92.4721 64.8118 92.5185C64.9344 92.5649 65.0703 92.5881 65.2195 92.5881C65.3321 92.5881 65.4349 92.5798 65.5277 92.5632C65.6238 92.5466 65.6967 92.5317 65.7464 92.5185L66.0497 93.9254C65.9536 93.9586 65.816 93.995 65.6371 94.0348C65.4614 94.0746 65.246 94.0978 64.9908 94.1044C64.54 94.1177 64.134 94.0497 63.7727 93.9006C63.4115 93.7481 63.1248 93.5128 62.9126 93.1946C62.7038 92.8764 62.6011 92.4787 62.6044 92.0014V84.5341ZM69.5194 83.8182V94H67.7197V83.8182H69.5194ZM74.8908 94.1491C74.1252 94.1491 73.4639 93.9901 72.9071 93.6719C72.3536 93.3504 71.9277 92.8963 71.6294 92.3097C71.3311 91.7197 71.182 91.0253 71.182 90.2266C71.182 89.4411 71.3311 88.7517 71.6294 88.1584C71.931 87.5618 72.352 87.0978 72.8922 86.7663C73.4325 86.4316 74.0672 86.2642 74.7963 86.2642C75.267 86.2642 75.7111 86.3404 76.1287 86.4929C76.5496 86.642 76.9209 86.8741 77.2424 87.1889C77.5672 87.5038 77.8224 87.9048 78.008 88.392C78.1936 88.8759 78.2864 89.4527 78.2864 90.1222V90.674H72.0272V89.4609H76.5612C76.5579 89.1162 76.4834 88.8097 76.3375 88.5412C76.1917 88.2694 75.9879 88.0556 75.726 87.8999C75.4675 87.7441 75.1659 87.6662 74.8212 87.6662C74.4533 87.6662 74.1301 87.7557 73.8517 87.9347C73.5733 88.1103 73.3562 88.3423 73.2004 88.6307C73.048 88.9157 72.9701 89.2289 72.9668 89.5703V90.6293C72.9668 91.0734 73.048 91.4545 73.2104 91.7727C73.3728 92.0876 73.5998 92.3295 73.8915 92.4986C74.1832 92.6643 74.5245 92.7472 74.9156 92.7472C75.1775 92.7472 75.4145 92.7107 75.6266 92.6378C75.8387 92.5616 76.0227 92.4505 76.1784 92.3047C76.3342 92.1589 76.4519 91.9782 76.5314 91.7628L78.2118 91.9517C78.1057 92.3958 77.9036 92.7836 77.6053 93.1151C77.3103 93.4432 76.9325 93.6984 76.4718 93.8807C76.0111 94.0597 75.4841 94.1491 74.8908 94.1491Z" fill="#1A1B1F"/>
<path d="M52.375 116H49.233V105.818H52.5142C53.5019 105.818 54.3471 106.022 55.0497 106.43C55.7524 106.834 56.291 107.416 56.6655 108.175C57.04 108.93 57.2273 109.835 57.2273 110.889C57.2273 111.95 57.0384 112.863 56.6605 113.629C56.2827 114.391 55.7325 114.978 55.0099 115.388C54.2874 115.796 53.4091 116 52.375 116ZM50.4659 114.906H52.2955C53.1373 114.906 53.835 114.744 54.3885 114.419C54.942 114.094 55.3546 113.632 55.6264 113.032C55.8982 112.432 56.0341 111.718 56.0341 110.889C56.0341 110.067 55.8999 109.36 55.6314 108.766C55.3629 108.17 54.9619 107.712 54.4283 107.394C53.8946 107.073 53.2301 106.912 52.4347 106.912H50.4659V114.906ZM62.4781 116.159C61.7423 116.159 61.1076 115.997 60.5739 115.672C60.0436 115.344 59.6343 114.886 59.346 114.3C59.0609 113.71 58.9184 113.024 58.9184 112.241C58.9184 111.459 59.0609 110.77 59.346 110.173C59.6343 109.573 60.0354 109.106 60.5491 108.771C61.0661 108.433 61.6694 108.264 62.3588 108.264C62.7565 108.264 63.1492 108.33 63.537 108.463C63.9248 108.596 64.2778 108.811 64.596 109.109C64.9141 109.404 65.1677 109.795 65.3566 110.283C65.5455 110.77 65.64 111.37 65.64 112.082V112.58H59.7536V111.565H64.4468C64.4468 111.134 64.3606 110.75 64.1883 110.412C64.0193 110.074 63.7773 109.807 63.4624 109.612C63.1509 109.416 62.783 109.318 62.3588 109.318C61.8914 109.318 61.4871 109.434 61.1457 109.666C60.8076 109.895 60.5474 110.193 60.3651 110.561C60.1829 110.929 60.0917 111.323 60.0917 111.744V112.42C60.0917 112.997 60.1911 113.486 60.39 113.887C60.5922 114.285 60.8722 114.588 61.2302 114.797C61.5882 115.002 62.0041 115.105 62.4781 115.105C62.7863 115.105 63.0647 115.062 63.3133 114.976C63.5652 114.886 63.7823 114.754 63.9646 114.578C64.1469 114.399 64.2877 114.177 64.3872 113.912L65.5207 114.23C65.4014 114.615 65.2008 114.953 64.9191 115.244C64.6374 115.533 64.2894 115.758 63.8751 115.92C63.4608 116.08 62.9951 116.159 62.4781 116.159ZM72.9739 110.074L71.9199 110.372C71.8536 110.196 71.7559 110.026 71.6266 109.86C71.5006 109.691 71.3283 109.552 71.1095 109.442C70.8908 109.333 70.6107 109.278 70.2693 109.278C69.802 109.278 69.4126 109.386 69.101 109.602C68.7928 109.814 68.6387 110.084 68.6387 110.412C68.6387 110.704 68.7447 110.934 68.9568 111.103C69.169 111.272 69.5004 111.413 69.9512 111.526L71.0847 111.804C71.7675 111.97 72.2762 112.223 72.611 112.565C72.9457 112.903 73.1131 113.339 73.1131 113.872C73.1131 114.31 72.9872 114.701 72.7353 115.045C72.4867 115.39 72.1387 115.662 71.6912 115.861C71.2438 116.06 70.7234 116.159 70.1301 116.159C69.3513 116.159 68.7066 115.99 68.1962 115.652C67.6858 115.314 67.3626 114.82 67.2267 114.17L68.3404 113.892C68.4464 114.303 68.647 114.611 68.9419 114.817C69.2402 115.022 69.6297 115.125 70.1103 115.125C70.6571 115.125 71.0913 115.009 71.4128 114.777C71.7376 114.542 71.9 114.26 71.9 113.932C71.9 113.667 71.8072 113.445 71.6216 113.266C71.436 113.083 71.151 112.947 70.7665 112.858L69.4938 112.56C68.7944 112.394 68.2807 112.137 67.9526 111.789C67.6278 111.438 67.4654 110.999 67.4654 110.472C67.4654 110.041 67.5863 109.66 67.8283 109.328C68.0736 108.997 68.4067 108.737 68.8276 108.548C69.2518 108.359 69.7324 108.264 70.2693 108.264C71.025 108.264 71.6183 108.43 72.0492 108.761C72.4834 109.093 72.7916 109.53 72.9739 110.074ZM78.1215 116.159C77.4056 116.159 76.7891 115.99 76.2721 115.652C75.755 115.314 75.3573 114.848 75.0789 114.255C74.8005 113.662 74.6613 112.984 74.6613 112.222C74.6613 111.446 74.8038 110.762 75.0889 110.168C75.3772 109.572 75.7783 109.106 76.292 108.771C76.809 108.433 77.4122 108.264 78.1016 108.264C78.6386 108.264 79.1225 108.364 79.5533 108.562C79.9842 108.761 80.3372 109.04 80.6123 109.398C80.8874 109.756 81.0581 110.173 81.1244 110.651H79.9511C79.8616 110.303 79.6627 109.994 79.3545 109.726C79.0496 109.454 78.6386 109.318 78.1215 109.318C77.6641 109.318 77.2631 109.437 76.9184 109.676C76.577 109.911 76.3102 110.245 76.118 110.675C75.9291 111.103 75.8346 111.605 75.8346 112.182C75.8346 112.772 75.9274 113.286 76.113 113.723C76.3019 114.161 76.5671 114.5 76.9085 114.742C77.2532 114.984 77.6575 115.105 78.1215 115.105C78.4265 115.105 78.7032 115.052 78.9518 114.946C79.2004 114.84 79.4108 114.688 79.5832 114.489C79.7555 114.29 79.8782 114.051 79.9511 113.773H81.1244C81.0581 114.223 80.894 114.629 80.6322 114.991C80.3737 115.349 80.0306 115.634 79.6031 115.846C79.1788 116.055 78.685 116.159 78.1215 116.159ZM82.9796 116V108.364H84.1131V109.517H84.1926C84.3318 109.139 84.5837 108.833 84.9483 108.597C85.3129 108.362 85.7239 108.244 86.1813 108.244C86.2674 108.244 86.3752 108.246 86.5044 108.249C86.6337 108.253 86.7315 108.258 86.7978 108.264V109.457C86.758 109.447 86.6668 109.433 86.5243 109.413C86.3851 109.389 86.2376 109.378 86.0818 109.378C85.7106 109.378 85.3792 109.456 85.0875 109.612C84.7992 109.764 84.5705 109.976 84.4014 110.248C84.2357 110.516 84.1529 110.823 84.1529 111.168V116H82.9796ZM88.3286 116V108.364H89.5018V116H88.3286ZM88.9251 107.091C88.6964 107.091 88.4992 107.013 88.3335 106.857C88.1711 106.701 88.0899 106.514 88.0899 106.295C88.0899 106.077 88.1711 105.889 88.3335 105.734C88.4992 105.578 88.6964 105.5 88.9251 105.5C89.1538 105.5 89.3494 105.578 89.5118 105.734C89.6775 105.889 89.7604 106.077 89.7604 106.295C89.7604 106.514 89.6775 106.701 89.5118 106.857C89.3494 107.013 89.1538 107.091 88.9251 107.091ZM91.7908 118.864V108.364H92.9243V109.577H93.0635C93.1497 109.444 93.269 109.275 93.4215 109.07C93.5773 108.861 93.7993 108.675 94.0877 108.513C94.3794 108.347 94.7738 108.264 95.2709 108.264C95.9139 108.264 96.4807 108.425 96.9712 108.746C97.4617 109.068 97.8446 109.524 98.1197 110.114C98.3947 110.704 98.5323 111.4 98.5323 112.202C98.5323 113.01 98.3947 113.711 98.1197 114.305C97.8446 114.895 97.4634 115.352 96.9762 115.677C96.489 115.998 95.9272 116.159 95.2908 116.159C94.8003 116.159 94.4075 116.078 94.1126 115.915C93.8176 115.75 93.5905 115.562 93.4314 115.354C93.2724 115.142 93.1497 114.966 93.0635 114.827H92.9641V118.864H91.7908ZM92.9442 112.182C92.9442 112.759 93.0287 113.267 93.1978 113.708C93.3668 114.146 93.6137 114.489 93.9385 114.737C94.2634 114.982 94.6611 115.105 95.1317 115.105C95.6223 115.105 96.0316 114.976 96.3597 114.717C96.6911 114.455 96.9397 114.104 97.1054 113.663C97.2745 113.219 97.359 112.725 97.359 112.182C97.359 111.645 97.2761 111.161 97.1104 110.73C96.948 110.296 96.7011 109.953 96.3697 109.701C96.0415 109.446 95.6289 109.318 95.1317 109.318C94.6545 109.318 94.2534 109.439 93.9286 109.681C93.6038 109.92 93.3585 110.254 93.1928 110.685C93.0271 111.113 92.9442 111.612 92.9442 112.182ZM103.783 108.364V109.358H99.8257V108.364H103.783ZM100.979 106.534H102.152V113.812C102.152 114.144 102.2 114.393 102.297 114.558C102.396 114.721 102.522 114.83 102.674 114.886C102.83 114.939 102.994 114.966 103.167 114.966C103.296 114.966 103.402 114.959 103.485 114.946C103.568 114.929 103.634 114.916 103.684 114.906L103.922 115.96C103.843 115.99 103.732 116.02 103.589 116.05C103.447 116.083 103.266 116.099 103.047 116.099C102.716 116.099 102.391 116.028 102.073 115.886C101.758 115.743 101.496 115.526 101.287 115.234C101.082 114.943 100.979 114.575 100.979 114.131V106.534ZM105.688 116V108.364H106.861V116H105.688ZM106.285 107.091C106.056 107.091 105.859 107.013 105.693 106.857C105.531 106.701 105.449 106.514 105.449 106.295C105.449 106.077 105.531 105.889 105.693 105.734C105.859 105.578 106.056 105.5 106.285 105.5C106.513 105.5 106.709 105.578 106.871 105.734C107.037 105.889 107.12 106.077 107.12 106.295C107.12 106.514 107.037 106.701 106.871 106.857C106.709 107.013 106.513 107.091 106.285 107.091ZM112.253 116.159C111.563 116.159 110.958 115.995 110.438 115.667C109.921 115.339 109.517 114.88 109.225 114.29C108.936 113.7 108.792 113.01 108.792 112.222C108.792 111.426 108.936 110.732 109.225 110.138C109.517 109.545 109.921 109.085 110.438 108.756C110.958 108.428 111.563 108.264 112.253 108.264C112.942 108.264 113.545 108.428 114.062 108.756C114.583 109.085 114.987 109.545 115.275 110.138C115.567 110.732 115.713 111.426 115.713 112.222C115.713 113.01 115.567 113.7 115.275 114.29C114.987 114.88 114.583 115.339 114.062 115.667C113.545 115.995 112.942 116.159 112.253 116.159ZM112.253 115.105C112.776 115.105 113.207 114.971 113.545 114.702C113.883 114.434 114.133 114.081 114.296 113.643C114.458 113.206 114.539 112.732 114.539 112.222C114.539 111.711 114.458 111.236 114.296 110.795C114.133 110.354 113.883 109.998 113.545 109.726C113.207 109.454 112.776 109.318 112.253 109.318C111.729 109.318 111.298 109.454 110.96 109.726C110.622 109.998 110.372 110.354 110.209 110.795C110.047 111.236 109.966 111.711 109.966 112.222C109.966 112.732 110.047 113.206 110.209 113.643C110.372 114.081 110.622 114.434 110.96 114.702C111.298 114.971 111.729 115.105 112.253 115.105ZM118.817 111.406V116H117.644V108.364H118.777V109.557H118.877C119.056 109.169 119.327 108.857 119.692 108.622C120.057 108.384 120.527 108.264 121.104 108.264C121.621 108.264 122.073 108.37 122.461 108.582C122.849 108.791 123.151 109.109 123.366 109.537C123.582 109.961 123.689 110.498 123.689 111.148V116H122.516V111.227C122.516 110.627 122.36 110.16 122.049 109.825C121.737 109.487 121.31 109.318 120.766 109.318C120.391 109.318 120.057 109.399 119.762 109.562C119.47 109.724 119.24 109.961 119.071 110.273C118.902 110.584 118.817 110.962 118.817 111.406Z" fill="#1A1B1F" fill-opacity="0.7"/>
</svg>
