<svg width="472" height="64" viewBox="0 0 472 64" fill="none" xmlns="http://www.w3.org/2000/svg">
<rect width="472" height="64" rx="32" fill="#148F47"/>
<path d="M31.5 22C37.0228 22 41.5 26.4772 41.5 32C41.5 37.5228 37.0228 42 31.5 42C25.9772 42 21.5 37.5228 21.5 32C21.5 26.4772 25.9772 22 31.5 22ZM34.7197 28.9697L30.25 33.4393L28.2803 31.4697C27.9874 31.1768 27.5126 31.1768 27.2197 31.4697C26.9268 31.7626 26.9268 32.2374 27.2197 32.5303L29.7197 35.0303C30.0126 35.3232 30.4874 35.3232 30.7803 35.0303L35.7803 30.0303C36.0732 29.7374 36.0732 29.2626 35.7803 28.9697C35.4874 28.6768 35.0126 28.6768 34.7197 28.9697Z" fill="#F2FDF6"/>
<path d="M52.2727 27.6136V26.3636H61V27.6136H57.3409V38H55.9318V27.6136H52.2727ZM64.3338 32.75V38H62.9929V26.3636H64.3338V30.6364H64.4474C64.652 30.1856 64.9588 29.8277 65.3679 29.5625C65.7808 29.2936 66.33 29.1591 67.0156 29.1591C67.6103 29.1591 68.1312 29.2784 68.5781 29.517C69.0251 29.7519 69.3717 30.1136 69.6179 30.6023C69.8679 31.0871 69.9929 31.7045 69.9929 32.4545V38H68.652V32.5455C68.652 31.8523 68.4721 31.3163 68.1122 30.9375C67.7562 30.5549 67.2618 30.3636 66.6293 30.3636C66.1899 30.3636 65.7959 30.4564 65.4474 30.642C65.1027 30.8277 64.83 31.0985 64.6293 31.4545C64.4323 31.8106 64.3338 32.2424 64.3338 32.75ZM72.446 38V29.2727H73.7869V38H72.446ZM73.1278 27.8182C72.8665 27.8182 72.6411 27.7292 72.4517 27.5511C72.2661 27.3731 72.1733 27.1591 72.1733 26.9091C72.1733 26.6591 72.2661 26.4451 72.4517 26.267C72.6411 26.089 72.8665 26 73.1278 26C73.3892 26 73.6127 26.089 73.7983 26.267C73.9877 26.4451 74.0824 26.6591 74.0824 26.9091C74.0824 27.1591 73.9877 27.3731 73.7983 27.5511C73.6127 27.7292 73.3892 27.8182 73.1278 27.8182ZM82.4247 31.2273L81.2202 31.5682C81.1444 31.3674 81.0327 31.1723 80.8849 30.983C80.741 30.7898 80.544 30.6307 80.294 30.5057C80.044 30.3807 79.724 30.3182 79.3338 30.3182C78.7997 30.3182 78.3546 30.4413 77.9986 30.6875C77.6463 30.9299 77.4702 31.2386 77.4702 31.6136C77.4702 31.947 77.5914 32.2102 77.8338 32.4034C78.0762 32.5966 78.455 32.7576 78.9702 32.8864L80.2656 33.2045C81.0459 33.3939 81.6274 33.6837 82.0099 34.0739C82.3925 34.4602 82.5838 34.9583 82.5838 35.5682C82.5838 36.0682 82.4399 36.5152 82.152 36.9091C81.8679 37.303 81.4702 37.6136 80.9588 37.8409C80.4474 38.0682 79.8527 38.1818 79.1747 38.1818C78.2846 38.1818 77.5478 37.9886 76.9645 37.6023C76.3812 37.2159 76.0118 36.6515 75.8565 35.9091L77.1293 35.5909C77.2505 36.0606 77.4796 36.4129 77.8168 36.6477C78.1577 36.8826 78.6027 37 79.152 37C79.777 37 80.2732 36.8674 80.6406 36.6023C81.0118 36.3333 81.1974 36.0114 81.1974 35.6364C81.1974 35.3333 81.0914 35.0795 80.8793 34.875C80.6671 34.6667 80.3414 34.5114 79.902 34.4091L78.4474 34.0682C77.6482 33.8788 77.0611 33.5852 76.6861 33.1875C76.3149 32.786 76.1293 32.2841 76.1293 31.6818C76.1293 31.1894 76.2675 30.7538 76.544 30.375C76.8243 29.9962 77.205 29.6989 77.6861 29.483C78.1709 29.267 78.7202 29.1591 79.3338 29.1591C80.1974 29.1591 80.8755 29.3485 81.3679 29.7273C81.8641 30.1061 82.2164 30.6061 82.4247 31.2273ZM89.1023 38V29.2727H90.4432V38H89.1023ZM89.7841 27.8182C89.5227 27.8182 89.2973 27.7292 89.108 27.5511C88.9223 27.3731 88.8295 27.1591 88.8295 26.9091C88.8295 26.6591 88.9223 26.4451 89.108 26.267C89.2973 26.089 89.5227 26 89.7841 26C90.0455 26 90.2689 26.089 90.4545 26.267C90.6439 26.4451 90.7386 26.6591 90.7386 26.9091C90.7386 27.1591 90.6439 27.3731 90.4545 27.5511C90.2689 27.7292 90.0455 27.8182 89.7841 27.8182ZM99.081 31.2273L97.8764 31.5682C97.8007 31.3674 97.6889 31.1723 97.5412 30.983C97.3973 30.7898 97.2003 30.6307 96.9503 30.5057C96.7003 30.3807 96.3802 30.3182 95.9901 30.3182C95.456 30.3182 95.0109 30.4413 94.6548 30.6875C94.3026 30.9299 94.1264 31.2386 94.1264 31.6136C94.1264 31.947 94.2476 32.2102 94.4901 32.4034C94.7325 32.5966 95.1113 32.7576 95.6264 32.8864L96.9219 33.2045C97.7022 33.3939 98.2836 33.6837 98.6662 34.0739C99.0488 34.4602 99.2401 34.9583 99.2401 35.5682C99.2401 36.0682 99.0961 36.5152 98.8082 36.9091C98.5241 37.303 98.1264 37.6136 97.6151 37.8409C97.1037 38.0682 96.509 38.1818 95.831 38.1818C94.9408 38.1818 94.2041 37.9886 93.6207 37.6023C93.0374 37.2159 92.6681 36.6515 92.5128 35.9091L93.7855 35.5909C93.9067 36.0606 94.1359 36.4129 94.473 36.6477C94.8139 36.8826 95.259 37 95.8082 37C96.4332 37 96.9295 36.8674 97.2969 36.6023C97.6681 36.3333 97.8537 36.0114 97.8537 35.6364C97.8537 35.3333 97.7476 35.0795 97.5355 34.875C97.3234 34.6667 96.9976 34.5114 96.5582 34.4091L95.1037 34.0682C94.3045 33.8788 93.7173 33.5852 93.3423 33.1875C92.9711 32.786 92.7855 32.2841 92.7855 31.6818C92.7855 31.1894 92.9238 30.7538 93.2003 30.375C93.4806 29.9962 93.8613 29.6989 94.3423 29.483C94.8272 29.267 95.3764 29.1591 95.9901 29.1591C96.8537 29.1591 97.5317 29.3485 98.0241 29.7273C98.5204 30.1061 98.8726 30.6061 99.081 31.2273ZM108.327 38.2045C107.774 38.2045 107.272 38.1004 106.821 37.892C106.37 37.6799 106.012 37.375 105.747 36.9773C105.482 36.5758 105.349 36.0909 105.349 35.5227C105.349 35.0227 105.448 34.6174 105.645 34.3068C105.842 33.9924 106.105 33.7462 106.435 33.5682C106.764 33.3902 107.128 33.2576 107.526 33.1705C107.927 33.0795 108.33 33.0076 108.736 32.9545C109.266 32.8864 109.696 32.8352 110.026 32.8011C110.359 32.7633 110.601 32.7008 110.753 32.6136C110.908 32.5265 110.986 32.375 110.986 32.1591V32.1136C110.986 31.553 110.832 31.1174 110.526 30.8068C110.223 30.4962 109.762 30.3409 109.145 30.3409C108.505 30.3409 108.003 30.4811 107.639 30.7614C107.276 31.0417 107.02 31.3409 106.872 31.6591L105.599 31.2045C105.827 30.6742 106.13 30.2614 106.509 29.9659C106.891 29.6667 107.308 29.4583 107.759 29.3409C108.213 29.2197 108.66 29.1591 109.099 29.1591C109.38 29.1591 109.702 29.1932 110.065 29.2614C110.433 29.3258 110.787 29.4602 111.128 29.6648C111.473 29.8693 111.759 30.178 111.986 30.5909C112.213 31.0038 112.327 31.5568 112.327 32.25V38H110.986V36.8182H110.918C110.827 37.0076 110.675 37.2102 110.463 37.4261C110.251 37.642 109.969 37.8258 109.616 37.9773C109.264 38.1288 108.834 38.2045 108.327 38.2045ZM108.531 37C109.062 37 109.509 36.8958 109.872 36.6875C110.24 36.4792 110.516 36.2102 110.702 35.8807C110.891 35.5511 110.986 35.2045 110.986 34.8409V33.6136C110.929 33.6818 110.804 33.7443 110.611 33.8011C110.421 33.8542 110.202 33.9015 109.952 33.9432C109.705 33.9811 109.465 34.0152 109.23 34.0455C108.999 34.072 108.812 34.0947 108.668 34.1136C108.319 34.1591 107.993 34.233 107.69 34.3352C107.391 34.4337 107.149 34.5833 106.963 34.7841C106.781 34.9811 106.69 35.25 106.69 35.5909C106.69 36.0568 106.863 36.4091 107.207 36.6477C107.556 36.8826 107.997 37 108.531 37ZM125.456 31.2273L124.251 31.5682C124.176 31.3674 124.064 31.1723 123.916 30.983C123.772 30.7898 123.575 30.6307 123.325 30.5057C123.075 30.3807 122.755 30.3182 122.365 30.3182C121.831 30.3182 121.386 30.4413 121.03 30.6875C120.678 30.9299 120.501 31.2386 120.501 31.6136C120.501 31.947 120.623 32.2102 120.865 32.4034C121.107 32.5966 121.486 32.7576 122.001 32.8864L123.297 33.2045C124.077 33.3939 124.659 33.6837 125.041 34.0739C125.424 34.4602 125.615 34.9583 125.615 35.5682C125.615 36.0682 125.471 36.5152 125.183 36.9091C124.899 37.303 124.501 37.6136 123.99 37.8409C123.479 38.0682 122.884 38.1818 122.206 38.1818C121.316 38.1818 120.579 37.9886 119.996 37.6023C119.412 37.2159 119.043 36.6515 118.888 35.9091L120.161 35.5909C120.282 36.0606 120.511 36.4129 120.848 36.6477C121.189 36.8826 121.634 37 122.183 37C122.808 37 123.304 36.8674 123.672 36.6023C124.043 36.3333 124.229 36.0114 124.229 35.6364C124.229 35.3333 124.123 35.0795 123.911 34.875C123.698 34.6667 123.373 34.5114 122.933 34.4091L121.479 34.0682C120.679 33.8788 120.092 33.5852 119.717 33.1875C119.346 32.786 119.161 32.2841 119.161 31.6818C119.161 31.1894 119.299 30.7538 119.575 30.375C119.856 29.9962 120.236 29.6989 120.717 29.483C121.202 29.267 121.751 29.1591 122.365 29.1591C123.229 29.1591 123.907 29.3485 124.399 29.7273C124.895 30.1061 125.248 30.6061 125.456 31.2273ZM133.134 34.4318V29.2727H134.474V38H133.134V36.5227H133.043C132.838 36.9659 132.52 37.3428 132.088 37.6534C131.656 37.9602 131.111 38.1136 130.452 38.1136C129.906 38.1136 129.421 37.9943 128.997 37.7557C128.573 37.5133 128.24 37.1496 127.997 36.6648C127.755 36.1761 127.634 35.5606 127.634 34.8182V29.2727H128.974V34.7273C128.974 35.3636 129.152 35.8712 129.509 36.25C129.868 36.6288 130.327 36.8182 130.884 36.8182C131.217 36.8182 131.556 36.733 131.901 36.5625C132.249 36.392 132.541 36.1307 132.776 35.7784C133.014 35.4261 133.134 34.9773 133.134 34.4318ZM140.476 38.1818C139.658 38.1818 138.953 37.9886 138.362 37.6023C137.771 37.2159 137.317 36.6837 136.999 36.0057C136.68 35.3277 136.521 34.553 136.521 33.6818C136.521 32.7955 136.684 32.0133 137.01 31.3352C137.339 30.6534 137.798 30.1212 138.385 29.7386C138.976 29.3523 139.665 29.1591 140.453 29.1591C141.067 29.1591 141.62 29.2727 142.112 29.5C142.605 29.7273 143.008 30.0455 143.322 30.4545C143.637 30.8636 143.832 31.3409 143.908 31.8864H142.567C142.464 31.4886 142.237 31.1364 141.885 30.8295C141.536 30.5189 141.067 30.3636 140.476 30.3636C139.953 30.3636 139.495 30.5 139.101 30.7727C138.711 31.0417 138.406 31.4223 138.186 31.9148C137.97 32.4034 137.862 32.9773 137.862 33.6364C137.862 34.3106 137.968 34.8977 138.18 35.3977C138.396 35.8977 138.699 36.286 139.089 36.5625C139.483 36.839 139.946 36.9773 140.476 36.9773C140.824 36.9773 141.141 36.9167 141.425 36.7955C141.709 36.6742 141.949 36.5 142.146 36.2727C142.343 36.0455 142.483 35.7727 142.567 35.4545H143.908C143.832 35.9697 143.644 36.4337 143.345 36.8466C143.05 37.2557 142.658 37.5814 142.169 37.8239C141.684 38.0625 141.12 38.1818 140.476 38.1818ZM149.413 38.1818C148.595 38.1818 147.891 37.9886 147.3 37.6023C146.709 37.2159 146.254 36.6837 145.936 36.0057C145.618 35.3277 145.459 34.553 145.459 33.6818C145.459 32.7955 145.622 32.0133 145.947 31.3352C146.277 30.6534 146.735 30.1212 147.322 29.7386C147.913 29.3523 148.603 29.1591 149.391 29.1591C150.004 29.1591 150.557 29.2727 151.05 29.5C151.542 29.7273 151.946 30.0455 152.26 30.4545C152.574 30.8636 152.769 31.3409 152.845 31.8864H151.504C151.402 31.4886 151.175 31.1364 150.822 30.8295C150.474 30.5189 150.004 30.3636 149.413 30.3636C148.891 30.3636 148.432 30.5 148.038 30.7727C147.648 31.0417 147.343 31.4223 147.124 31.9148C146.908 32.4034 146.8 32.9773 146.8 33.6364C146.8 34.3106 146.906 34.8977 147.118 35.3977C147.334 35.8977 147.637 36.286 148.027 36.5625C148.421 36.839 148.883 36.9773 149.413 36.9773C149.762 36.9773 150.078 36.9167 150.362 36.7955C150.646 36.6742 150.887 36.5 151.084 36.2727C151.281 36.0455 151.421 35.7727 151.504 35.4545H152.845C152.769 35.9697 152.582 36.4337 152.283 36.8466C151.987 37.2557 151.595 37.5814 151.107 37.8239C150.622 38.0625 150.057 38.1818 149.413 38.1818ZM158.464 38.1818C157.624 38.1818 156.898 37.9962 156.288 37.625C155.682 37.25 155.214 36.7273 154.885 36.0568C154.559 35.3826 154.396 34.5985 154.396 33.7045C154.396 32.8106 154.559 32.0227 154.885 31.3409C155.214 30.6553 155.673 30.1212 156.26 29.7386C156.851 29.3523 157.54 29.1591 158.328 29.1591C158.783 29.1591 159.232 29.2348 159.675 29.3864C160.118 29.5379 160.521 29.7841 160.885 30.125C161.249 30.4621 161.538 30.9091 161.754 31.4659C161.97 32.0227 162.078 32.7083 162.078 33.5227V34.0909H155.351V32.9318H160.714C160.714 32.4394 160.616 32 160.419 31.6136C160.226 31.2273 159.949 30.9223 159.589 30.6989C159.233 30.4754 158.813 30.3636 158.328 30.3636C157.794 30.3636 157.332 30.4962 156.942 30.7614C156.555 31.0227 156.258 31.3636 156.05 31.7841C155.841 32.2045 155.737 32.6553 155.737 33.1364V33.9091C155.737 34.5682 155.851 35.1269 156.078 35.5852C156.309 36.0398 156.629 36.3864 157.038 36.625C157.447 36.8598 157.923 36.9773 158.464 36.9773C158.817 36.9773 159.135 36.928 159.419 36.8295C159.707 36.7273 159.955 36.5758 160.163 36.375C160.372 36.1705 160.533 35.9167 160.646 35.6136L161.942 35.9773C161.805 36.4167 161.576 36.803 161.254 37.1364C160.932 37.4659 160.535 37.7235 160.061 37.9091C159.588 38.0909 159.055 38.1818 158.464 38.1818ZM170.3 31.2273L169.095 31.5682C169.019 31.3674 168.908 31.1723 168.76 30.983C168.616 30.7898 168.419 30.6307 168.169 30.5057C167.919 30.3807 167.599 30.3182 167.209 30.3182C166.675 30.3182 166.23 30.4413 165.874 30.6875C165.521 30.9299 165.345 31.2386 165.345 31.6136C165.345 31.947 165.466 32.2102 165.709 32.4034C165.951 32.5966 166.33 32.7576 166.845 32.8864L168.141 33.2045C168.921 33.3939 169.502 33.6837 169.885 34.0739C170.268 34.4602 170.459 34.9583 170.459 35.5682C170.459 36.0682 170.315 36.5152 170.027 36.9091C169.743 37.303 169.345 37.6136 168.834 37.8409C168.322 38.0682 167.728 38.1818 167.05 38.1818C166.16 38.1818 165.423 37.9886 164.839 37.6023C164.256 37.2159 163.887 36.6515 163.732 35.9091L165.004 35.5909C165.125 36.0606 165.355 36.4129 165.692 36.6477C166.033 36.8826 166.478 37 167.027 37C167.652 37 168.148 36.8674 168.516 36.6023C168.887 36.3333 169.072 36.0114 169.072 35.6364C169.072 35.3333 168.966 35.0795 168.754 34.875C168.542 34.6667 168.216 34.5114 167.777 34.4091L166.322 34.0682C165.523 33.8788 164.936 33.5852 164.561 33.1875C164.19 32.786 164.004 32.2841 164.004 31.6818C164.004 31.1894 164.143 30.7538 164.419 30.375C164.699 29.9962 165.08 29.6989 165.561 29.483C166.046 29.267 166.595 29.1591 167.209 29.1591C168.072 29.1591 168.75 29.3485 169.243 29.7273C169.739 30.1061 170.091 30.6061 170.3 31.2273ZM178.659 31.2273L177.455 31.5682C177.379 31.3674 177.267 31.1723 177.119 30.983C176.975 30.7898 176.778 30.6307 176.528 30.5057C176.278 30.3807 175.958 30.3182 175.568 30.3182C175.034 30.3182 174.589 30.4413 174.233 30.6875C173.881 30.9299 173.705 31.2386 173.705 31.6136C173.705 31.947 173.826 32.2102 174.068 32.4034C174.311 32.5966 174.689 32.7576 175.205 32.8864L176.5 33.2045C177.28 33.3939 177.862 33.6837 178.244 34.0739C178.627 34.4602 178.818 34.9583 178.818 35.5682C178.818 36.0682 178.674 36.5152 178.386 36.9091C178.102 37.303 177.705 37.6136 177.193 37.8409C176.682 38.0682 176.087 38.1818 175.409 38.1818C174.519 38.1818 173.782 37.9886 173.199 37.6023C172.616 37.2159 172.246 36.6515 172.091 35.9091L173.364 35.5909C173.485 36.0606 173.714 36.4129 174.051 36.6477C174.392 36.8826 174.837 37 175.386 37C176.011 37 176.508 36.8674 176.875 36.6023C177.246 36.3333 177.432 36.0114 177.432 35.6364C177.432 35.3333 177.326 35.0795 177.114 34.875C176.902 34.6667 176.576 34.5114 176.136 34.4091L174.682 34.0682C173.883 33.8788 173.295 33.5852 172.92 33.1875C172.549 32.786 172.364 32.2841 172.364 31.6818C172.364 31.1894 172.502 30.7538 172.778 30.375C173.059 29.9962 173.439 29.6989 173.92 29.483C174.405 29.267 174.955 29.1591 175.568 29.1591C176.432 29.1591 177.11 29.3485 177.602 29.7273C178.098 30.1061 178.451 30.6061 178.659 31.2273ZM191.518 31.2273L190.314 31.5682C190.238 31.3674 190.126 31.1723 189.979 30.983C189.835 30.7898 189.638 30.6307 189.388 30.5057C189.138 30.3807 188.818 30.3182 188.428 30.3182C187.893 30.3182 187.448 30.4413 187.092 30.6875C186.74 30.9299 186.564 31.2386 186.564 31.6136C186.564 31.947 186.685 32.2102 186.928 32.4034C187.17 32.5966 187.549 32.7576 188.064 32.8864L189.359 33.2045C190.14 33.3939 190.721 33.6837 191.104 34.0739C191.486 34.4602 191.678 34.9583 191.678 35.5682C191.678 36.0682 191.534 36.5152 191.246 36.9091C190.962 37.303 190.564 37.6136 190.053 37.8409C189.541 38.0682 188.946 38.1818 188.268 38.1818C187.378 38.1818 186.642 37.9886 186.058 37.6023C185.475 37.2159 185.106 36.6515 184.95 35.9091L186.223 35.5909C186.344 36.0606 186.573 36.4129 186.911 36.6477C187.251 36.8826 187.696 37 188.246 37C188.871 37 189.367 36.8674 189.734 36.6023C190.106 36.3333 190.291 36.0114 190.291 35.6364C190.291 35.3333 190.185 35.0795 189.973 34.875C189.761 34.6667 189.435 34.5114 188.996 34.4091L187.541 34.0682C186.742 33.8788 186.155 33.5852 185.78 33.1875C185.409 32.786 185.223 32.2841 185.223 31.6818C185.223 31.1894 185.361 30.7538 185.638 30.375C185.918 29.9962 186.299 29.6989 186.78 29.483C187.265 29.267 187.814 29.1591 188.428 29.1591C189.291 29.1591 189.969 29.3485 190.462 29.7273C190.958 30.1061 191.31 30.6061 191.518 31.2273ZM195.037 32.75V38H193.696V29.2727H194.991V30.6364H195.105C195.31 30.1932 195.62 29.8371 196.037 29.5682C196.454 29.2955 196.991 29.1591 197.651 29.1591C198.241 29.1591 198.759 29.2803 199.202 29.5227C199.645 29.7614 199.99 30.125 200.236 30.6136C200.482 31.0985 200.605 31.7121 200.605 32.4545V38H199.264V32.5455C199.264 31.8598 199.086 31.3258 198.73 30.9432C198.374 30.5568 197.885 30.3636 197.264 30.3636C196.836 30.3636 196.454 30.4564 196.116 30.642C195.783 30.8277 195.52 31.0985 195.327 31.4545C195.134 31.8106 195.037 32.2424 195.037 32.75ZM205.624 38.2045C205.071 38.2045 204.569 38.1004 204.118 37.892C203.667 37.6799 203.309 37.375 203.044 36.9773C202.779 36.5758 202.646 36.0909 202.646 35.5227C202.646 35.0227 202.745 34.6174 202.942 34.3068C203.139 33.9924 203.402 33.7462 203.732 33.5682C204.061 33.3902 204.425 33.2576 204.822 33.1705C205.224 33.0795 205.627 33.0076 206.033 32.9545C206.563 32.8864 206.993 32.8352 207.322 32.8011C207.656 32.7633 207.898 32.7008 208.05 32.6136C208.205 32.5265 208.283 32.375 208.283 32.1591V32.1136C208.283 31.553 208.129 31.1174 207.822 30.8068C207.519 30.4962 207.059 30.3409 206.442 30.3409C205.802 30.3409 205.3 30.4811 204.936 30.7614C204.572 31.0417 204.317 31.3409 204.169 31.6591L202.896 31.2045C203.124 30.6742 203.427 30.2614 203.805 29.9659C204.188 29.6667 204.605 29.4583 205.055 29.3409C205.51 29.2197 205.957 29.1591 206.396 29.1591C206.677 29.1591 206.999 29.1932 207.362 29.2614C207.73 29.3258 208.084 29.4602 208.425 29.6648C208.769 29.8693 209.055 30.178 209.283 30.5909C209.51 31.0038 209.624 31.5568 209.624 32.25V38H208.283V36.8182H208.214C208.124 37.0076 207.972 37.2102 207.76 37.4261C207.548 37.642 207.266 37.8258 206.913 37.9773C206.561 38.1288 206.131 38.2045 205.624 38.2045ZM205.828 37C206.358 37 206.805 36.8958 207.169 36.6875C207.536 36.4792 207.813 36.2102 207.999 35.8807C208.188 35.5511 208.283 35.2045 208.283 34.8409V33.6136C208.226 33.6818 208.101 33.7443 207.908 33.8011C207.718 33.8542 207.499 33.9015 207.249 33.9432C207.002 33.9811 206.762 34.0152 206.527 34.0455C206.296 34.072 206.108 34.0947 205.964 34.1136C205.616 34.1591 205.29 34.233 204.987 34.3352C204.688 34.4337 204.446 34.5833 204.26 34.7841C204.078 34.9811 203.987 35.25 203.987 35.5909C203.987 36.0568 204.16 36.4091 204.504 36.6477C204.853 36.8826 205.294 37 205.828 37ZM215.616 38.1818C214.798 38.1818 214.094 37.9886 213.503 37.6023C212.912 37.2159 212.457 36.6837 212.139 36.0057C211.821 35.3277 211.662 34.553 211.662 33.6818C211.662 32.7955 211.825 32.0133 212.151 31.3352C212.48 30.6534 212.938 30.1212 213.526 29.7386C214.116 29.3523 214.806 29.1591 215.594 29.1591C216.207 29.1591 216.76 29.2727 217.253 29.5C217.745 29.7273 218.149 30.0455 218.463 30.4545C218.777 30.8636 218.973 31.3409 219.048 31.8864H217.707C217.605 31.4886 217.378 31.1364 217.026 30.8295C216.677 30.5189 216.207 30.3636 215.616 30.3636C215.094 30.3636 214.635 30.5 214.241 30.7727C213.851 31.0417 213.546 31.4223 213.327 31.9148C213.111 32.4034 213.003 32.9773 213.003 33.6364C213.003 34.3106 213.109 34.8977 213.321 35.3977C213.537 35.8977 213.84 36.286 214.23 36.5625C214.624 36.839 215.086 36.9773 215.616 36.9773C215.965 36.9773 216.281 36.9167 216.565 36.7955C216.849 36.6742 217.09 36.5 217.287 36.2727C217.484 36.0455 217.624 35.7727 217.707 35.4545H219.048C218.973 35.9697 218.785 36.4337 218.486 36.8466C218.19 37.2557 217.798 37.5814 217.31 37.8239C216.825 38.0625 216.26 38.1818 215.616 38.1818ZM222.259 34.8182L222.236 33.1591H222.509L226.327 29.2727H227.986L223.918 33.3864H223.804L222.259 34.8182ZM221.009 38V26.3636H222.349V38H221.009ZM226.554 38L223.145 33.6818L224.099 32.75L228.259 38H226.554ZM229.893 38V26.3636H231.234V30.6591H231.348C231.446 30.5076 231.583 30.3144 231.757 30.0795C231.935 29.8409 232.189 29.6288 232.518 29.4432C232.852 29.2538 233.303 29.1591 233.871 29.1591C234.606 29.1591 235.253 29.3428 235.814 29.7102C236.375 30.0777 236.812 30.5985 237.126 31.2727C237.441 31.947 237.598 32.7424 237.598 33.6591C237.598 34.5833 237.441 35.3845 237.126 36.0625C236.812 36.7367 236.376 37.2595 235.82 37.6307C235.263 37.9981 234.621 38.1818 233.893 38.1818C233.333 38.1818 232.884 38.089 232.547 37.9034C232.21 37.714 231.95 37.5 231.768 37.2614C231.587 37.0189 231.446 36.8182 231.348 36.6591H231.189V38H229.893ZM231.212 33.6364C231.212 34.2955 231.308 34.8769 231.501 35.3807C231.695 35.8807 231.977 36.2727 232.348 36.5568C232.719 36.8371 233.174 36.9773 233.712 36.9773C234.272 36.9773 234.74 36.8295 235.115 36.5341C235.494 36.2348 235.778 35.8333 235.967 35.3295C236.161 34.822 236.257 34.2576 236.257 33.6364C236.257 33.0227 236.162 32.4697 235.973 31.9773C235.787 31.4811 235.505 31.089 235.126 30.8011C234.751 30.5095 234.28 30.3636 233.712 30.3636C233.166 30.3636 232.708 30.5019 232.337 30.7784C231.965 31.0511 231.685 31.4337 231.496 31.9261C231.306 32.4148 231.212 32.9848 231.212 33.6364ZM242.217 38.2045C241.664 38.2045 241.162 38.1004 240.712 37.892C240.261 37.6799 239.903 37.375 239.638 36.9773C239.373 36.5758 239.24 36.0909 239.24 35.5227C239.24 35.0227 239.339 34.6174 239.536 34.3068C239.732 33.9924 239.996 33.7462 240.325 33.5682C240.655 33.3902 241.018 33.2576 241.416 33.1705C241.818 33.0795 242.221 33.0076 242.626 32.9545C243.157 32.8864 243.587 32.8352 243.916 32.8011C244.25 32.7633 244.492 32.7008 244.643 32.6136C244.799 32.5265 244.876 32.375 244.876 32.1591V32.1136C244.876 31.553 244.723 31.1174 244.416 30.8068C244.113 30.4962 243.653 30.3409 243.036 30.3409C242.395 30.3409 241.893 30.4811 241.53 30.7614C241.166 31.0417 240.911 31.3409 240.763 31.6591L239.49 31.2045C239.717 30.6742 240.02 30.2614 240.399 29.9659C240.782 29.6667 241.198 29.4583 241.649 29.3409C242.104 29.2197 242.551 29.1591 242.99 29.1591C243.27 29.1591 243.592 29.1932 243.956 29.2614C244.323 29.3258 244.678 29.4602 245.018 29.6648C245.363 29.8693 245.649 30.178 245.876 30.5909C246.104 31.0038 246.217 31.5568 246.217 32.25V38H244.876V36.8182H244.808C244.717 37.0076 244.566 37.2102 244.354 37.4261C244.142 37.642 243.859 37.8258 243.507 37.9773C243.155 38.1288 242.725 38.2045 242.217 38.2045ZM242.422 37C242.952 37 243.399 36.8958 243.763 36.6875C244.13 36.4792 244.407 36.2102 244.592 35.8807C244.782 35.5511 244.876 35.2045 244.876 34.8409V33.6136C244.82 33.6818 244.695 33.7443 244.501 33.8011C244.312 33.8542 244.092 33.9015 243.842 33.9432C243.596 33.9811 243.356 34.0152 243.121 34.0455C242.89 34.072 242.702 34.0947 242.558 34.1136C242.21 34.1591 241.884 34.233 241.581 34.3352C241.282 34.4337 241.039 34.5833 240.854 34.7841C240.672 34.9811 240.581 35.25 240.581 35.5909C240.581 36.0568 240.753 36.4091 241.098 36.6477C241.446 36.8826 241.888 37 242.422 37ZM248.665 38V29.2727H249.96V30.5909H250.051C250.21 30.1591 250.498 29.8087 250.915 29.5398C251.331 29.2708 251.801 29.1364 252.324 29.1364C252.422 29.1364 252.545 29.1383 252.693 29.142C252.841 29.1458 252.953 29.1515 253.028 29.1591V30.5227C252.983 30.5114 252.879 30.4943 252.716 30.4716C252.557 30.4451 252.388 30.4318 252.21 30.4318C251.786 30.4318 251.407 30.5208 251.074 30.6989C250.744 30.8731 250.483 31.1155 250.29 31.4261C250.1 31.733 250.006 32.0833 250.006 32.4773V38H248.665ZM261.095 38L258.436 29.2727H259.845L261.732 35.9545H261.822L263.686 29.2727H265.118L266.959 35.9318H267.05L268.936 29.2727H270.345L267.686 38H266.368L264.459 31.2955H264.322L262.413 38H261.095ZM272.118 38V29.2727H273.459V38H272.118ZM272.8 27.8182C272.538 27.8182 272.313 27.7292 272.124 27.5511C271.938 27.3731 271.845 27.1591 271.845 26.9091C271.845 26.6591 271.938 26.4451 272.124 26.267C272.313 26.089 272.538 26 272.8 26C273.061 26 273.285 26.089 273.47 26.267C273.66 26.4451 273.754 26.6591 273.754 26.9091C273.754 27.1591 273.66 27.3731 273.47 27.5511C273.285 27.7292 273.061 27.8182 272.8 27.8182ZM279.71 29.2727V30.4091H275.188V29.2727H279.71ZM276.506 27.1818H277.847V35.5C277.847 35.8788 277.902 36.1629 278.011 36.3523C278.125 36.5379 278.269 36.6629 278.443 36.7273C278.621 36.7879 278.809 36.8182 279.006 36.8182C279.153 36.8182 279.275 36.8106 279.369 36.7955C279.464 36.7765 279.54 36.7614 279.597 36.75L279.869 37.9545C279.778 37.9886 279.652 38.0227 279.489 38.0568C279.326 38.0947 279.119 38.1136 278.869 38.1136C278.491 38.1136 278.119 38.0322 277.756 37.8693C277.396 37.7064 277.097 37.4583 276.858 37.125C276.623 36.7917 276.506 36.3712 276.506 35.8636V27.1818ZM283.256 32.75V38H281.915V26.3636H283.256V30.6364H283.369C283.574 30.1856 283.881 29.8277 284.29 29.5625C284.703 29.2936 285.252 29.1591 285.938 29.1591C286.532 29.1591 287.053 29.2784 287.5 29.517C287.947 29.7519 288.294 30.1136 288.54 30.6023C288.79 31.0871 288.915 31.7045 288.915 32.4545V38H287.574V32.5455C287.574 31.8523 287.394 31.3163 287.034 30.9375C286.678 30.5549 286.184 30.3636 285.551 30.3636C285.112 30.3636 284.718 30.4564 284.369 30.642C284.025 30.8277 283.752 31.0985 283.551 31.4545C283.354 31.8106 283.256 32.2424 283.256 32.75ZM298.436 38.2045C297.883 38.2045 297.381 38.1004 296.93 37.892C296.48 37.6799 296.122 37.375 295.857 36.9773C295.591 36.5758 295.459 36.0909 295.459 35.5227C295.459 35.0227 295.557 34.6174 295.754 34.3068C295.951 33.9924 296.214 33.7462 296.544 33.5682C296.874 33.3902 297.237 33.2576 297.635 33.1705C298.036 33.0795 298.44 33.0076 298.845 32.9545C299.375 32.8864 299.805 32.8352 300.135 32.8011C300.468 32.7633 300.711 32.7008 300.862 32.6136C301.018 32.5265 301.095 32.375 301.095 32.1591V32.1136C301.095 31.553 300.942 31.1174 300.635 30.8068C300.332 30.4962 299.872 30.3409 299.254 30.3409C298.614 30.3409 298.112 30.4811 297.749 30.7614C297.385 31.0417 297.129 31.3409 296.982 31.6591L295.709 31.2045C295.936 30.6742 296.239 30.2614 296.618 29.9659C297 29.6667 297.417 29.4583 297.868 29.3409C298.322 29.2197 298.769 29.1591 299.209 29.1591C299.489 29.1591 299.811 29.1932 300.175 29.2614C300.542 29.3258 300.896 29.4602 301.237 29.6648C301.582 29.8693 301.868 30.178 302.095 30.5909C302.322 31.0038 302.436 31.5568 302.436 32.25V38H301.095V36.8182H301.027C300.936 37.0076 300.785 37.2102 300.572 37.4261C300.36 37.642 300.078 37.8258 299.726 37.9773C299.374 38.1288 298.944 38.2045 298.436 38.2045ZM298.641 37C299.171 37 299.618 36.8958 299.982 36.6875C300.349 36.4792 300.625 36.2102 300.811 35.8807C301 35.5511 301.095 35.2045 301.095 34.8409V33.6136C301.038 33.6818 300.913 33.7443 300.72 33.8011C300.531 33.8542 300.311 33.9015 300.061 33.9432C299.815 33.9811 299.574 34.0152 299.339 34.0455C299.108 34.072 298.921 34.0947 298.777 34.1136C298.429 34.1591 298.103 34.233 297.8 34.3352C297.5 34.4337 297.258 34.5833 297.072 34.7841C296.891 34.9811 296.8 35.25 296.8 35.5909C296.8 36.0568 296.972 36.4091 297.317 36.6477C297.665 36.8826 298.107 37 298.641 37ZM308.429 38.1818C307.611 38.1818 306.906 37.9886 306.315 37.6023C305.724 37.2159 305.27 36.6837 304.952 36.0057C304.634 35.3277 304.474 34.553 304.474 33.6818C304.474 32.7955 304.637 32.0133 304.963 31.3352C305.293 30.6534 305.751 30.1212 306.338 29.7386C306.929 29.3523 307.618 29.1591 308.406 29.1591C309.02 29.1591 309.573 29.2727 310.065 29.5C310.558 29.7273 310.961 30.0455 311.276 30.4545C311.59 30.8636 311.785 31.3409 311.861 31.8864H310.52C310.418 31.4886 310.19 31.1364 309.838 30.8295C309.49 30.5189 309.02 30.3636 308.429 30.3636C307.906 30.3636 307.448 30.5 307.054 30.7727C306.664 31.0417 306.359 31.4223 306.139 31.9148C305.923 32.4034 305.815 32.9773 305.815 33.6364C305.815 34.3106 305.921 34.8977 306.134 35.3977C306.349 35.8977 306.652 36.286 307.043 36.5625C307.437 36.839 307.899 36.9773 308.429 36.9773C308.777 36.9773 309.094 36.9167 309.378 36.7955C309.662 36.6742 309.902 36.5 310.099 36.2727C310.296 36.0455 310.437 35.7727 310.52 35.4545H311.861C311.785 35.9697 311.598 36.4337 311.298 36.8466C311.003 37.2557 310.611 37.5814 310.122 37.8239C309.637 38.0625 309.073 38.1818 308.429 38.1818ZM317.616 29.2727V30.4091H313.094V29.2727H317.616ZM314.412 27.1818H315.753V35.5C315.753 35.8788 315.808 36.1629 315.918 36.3523C316.031 36.5379 316.175 36.6629 316.349 36.7273C316.527 36.7879 316.715 36.8182 316.912 36.8182C317.06 36.8182 317.181 36.8106 317.276 36.7955C317.37 36.7765 317.446 36.7614 317.503 36.75L317.776 37.9545C317.685 37.9886 317.558 38.0227 317.395 38.0568C317.232 38.0947 317.026 38.1136 316.776 38.1136C316.397 38.1136 316.026 38.0322 315.662 37.8693C315.302 37.7064 315.003 37.4583 314.764 37.125C314.529 36.7917 314.412 36.3712 314.412 35.8636V27.1818ZM319.634 38V29.2727H320.974V38H319.634ZM320.315 27.8182C320.054 27.8182 319.829 27.7292 319.639 27.5511C319.454 27.3731 319.361 27.1591 319.361 26.9091C319.361 26.6591 319.454 26.4451 319.639 26.267C319.829 26.089 320.054 26 320.315 26C320.577 26 320.8 26.089 320.986 26.267C321.175 26.4451 321.27 26.6591 321.27 26.9091C321.27 27.1591 321.175 27.3731 320.986 27.5511C320.8 27.7292 320.577 27.8182 320.315 27.8182ZM326.976 38.1818C326.188 38.1818 325.497 37.9943 324.902 37.6193C324.311 37.2443 323.849 36.7197 323.516 36.0455C323.186 35.3712 323.021 34.5833 323.021 33.6818C323.021 32.7727 323.186 31.9792 323.516 31.3011C323.849 30.6231 324.311 30.0966 324.902 29.7216C325.497 29.3466 326.188 29.1591 326.976 29.1591C327.764 29.1591 328.453 29.3466 329.044 29.7216C329.639 30.0966 330.101 30.6231 330.43 31.3011C330.764 31.9792 330.93 32.7727 330.93 33.6818C330.93 34.5833 330.764 35.3712 330.43 36.0455C330.101 36.7197 329.639 37.2443 329.044 37.6193C328.453 37.9943 327.764 38.1818 326.976 38.1818ZM326.976 36.9773C327.574 36.9773 328.067 36.8239 328.453 36.517C328.839 36.2102 329.125 35.8068 329.311 35.3068C329.497 34.8068 329.589 34.2652 329.589 33.6818C329.589 33.0985 329.497 32.5549 329.311 32.0511C329.125 31.5473 328.839 31.1402 328.453 30.8295C328.067 30.5189 327.574 30.3636 326.976 30.3636C326.377 30.3636 325.885 30.5189 325.499 30.8295C325.112 31.1402 324.826 31.5473 324.641 32.0511C324.455 32.5549 324.362 33.0985 324.362 33.6818C324.362 34.2652 324.455 34.8068 324.641 35.3068C324.826 35.8068 325.112 36.2102 325.499 36.517C325.885 36.8239 326.377 36.9773 326.976 36.9773ZM334.318 32.75V38H332.977V29.2727H334.273V30.6364H334.386C334.591 30.1932 334.902 29.8371 335.318 29.5682C335.735 29.2955 336.273 29.1591 336.932 29.1591C337.523 29.1591 338.04 29.2803 338.483 29.5227C338.926 29.7614 339.271 30.125 339.517 30.6136C339.763 31.0985 339.886 31.7121 339.886 32.4545V38H338.545V32.5455C338.545 31.8598 338.367 31.3258 338.011 30.9432C337.655 30.5568 337.167 30.3636 336.545 30.3636C336.117 30.3636 335.735 30.4564 335.398 30.642C335.064 30.8277 334.801 31.0985 334.608 31.4545C334.415 31.8106 334.318 32.2424 334.318 32.75ZM343.314 38.0909C343.034 38.0909 342.793 37.9905 342.592 37.7898C342.392 37.589 342.291 37.3485 342.291 37.0682C342.291 36.7879 342.392 36.5473 342.592 36.3466C342.793 36.1458 343.034 36.0455 343.314 36.0455C343.594 36.0455 343.835 36.1458 344.036 36.3466C344.236 36.5473 344.337 36.7879 344.337 37.0682C344.337 37.2538 344.289 37.4242 344.195 37.5795C344.104 37.7348 343.981 37.8598 343.825 37.9545C343.674 38.0455 343.503 38.0909 343.314 38.0909Z" fill="#F2FDF6"/>
<rect x="370.5" y="16" width="86" height="32" rx="16" fill="#F2FDF6"/>
<path d="M391.004 37H387.554V26.8182H391.074C392.085 26.8182 392.953 27.022 393.679 27.4297C394.408 27.834 394.968 28.4157 395.359 29.1747C395.75 29.9337 395.946 30.8419 395.946 31.8991C395.946 32.9598 395.749 33.8712 395.354 34.6335C394.963 35.3958 394.398 35.9808 393.659 36.3885C392.923 36.7962 392.038 37 391.004 37ZM389.398 35.4041H390.915C391.624 35.4041 392.216 35.2749 392.69 35.0163C393.164 34.7545 393.52 34.3651 393.759 33.848C393.997 33.3277 394.116 32.678 394.116 31.8991C394.116 31.1203 393.997 30.474 393.759 29.9602C393.52 29.4432 393.167 29.0571 392.7 28.8018C392.236 28.5433 391.659 28.4141 390.969 28.4141H389.398V35.4041ZM397.759 37V29.3636H399.559V37H397.759ZM398.664 28.2798C398.379 28.2798 398.134 28.1854 397.928 27.9964C397.723 27.8042 397.62 27.5739 397.62 27.3054C397.62 27.0336 397.723 26.8033 397.928 26.6143C398.134 26.4221 398.379 26.326 398.664 26.326C398.952 26.326 399.197 26.4221 399.4 26.6143C399.605 26.8033 399.708 27.0336 399.708 27.3054C399.708 27.5739 399.605 27.8042 399.4 27.9964C399.197 28.1854 398.952 28.2798 398.664 28.2798ZM407.585 31.3821L405.944 31.5611C405.898 31.3954 405.817 31.2396 405.701 31.0938C405.588 30.9479 405.435 30.8303 405.243 30.7408C405.051 30.6513 404.816 30.6065 404.537 30.6065C404.163 30.6065 403.848 30.6877 403.593 30.8501C403.341 31.0125 403.217 31.223 403.22 31.4815C403.217 31.7036 403.298 31.8842 403.463 32.0234C403.632 32.1626 403.911 32.277 404.299 32.3665L405.601 32.6449C406.324 32.8007 406.861 33.0476 407.212 33.3857C407.567 33.7237 407.746 34.1662 407.749 34.7131C407.746 35.1937 407.605 35.6179 407.326 35.9858C407.051 36.3504 406.668 36.6354 406.178 36.8409C405.687 37.0464 405.124 37.1491 404.488 37.1491C403.553 37.1491 402.801 36.9536 402.23 36.5625C401.66 36.1681 401.321 35.6196 401.211 34.9169L402.966 34.7479C403.046 35.0926 403.215 35.3527 403.473 35.5284C403.732 35.7041 404.068 35.7919 404.483 35.7919C404.91 35.7919 405.253 35.7041 405.512 35.5284C405.774 35.3527 405.904 35.1357 405.904 34.8771C405.904 34.6584 405.82 34.4777 405.651 34.3352C405.485 34.1927 405.227 34.0833 404.875 34.0071L403.573 33.7337C402.84 33.5812 402.298 33.3243 401.947 32.9631C401.596 32.5985 401.422 32.1378 401.425 31.581C401.422 31.1103 401.549 30.7027 401.808 30.358C402.07 30.0099 402.433 29.7415 402.897 29.5526C403.364 29.3603 403.903 29.2642 404.512 29.2642C405.407 29.2642 406.112 29.4548 406.625 29.8359C407.142 30.2171 407.462 30.7325 407.585 31.3821ZM409.373 37V29.3636H411.093V30.6612H411.183C411.342 30.2237 411.605 29.8823 411.973 29.6371C412.341 29.3885 412.78 29.2642 413.291 29.2642C413.808 29.2642 414.243 29.3902 414.598 29.642C414.956 29.8906 415.208 30.2304 415.354 30.6612H415.433C415.602 30.237 415.887 29.8989 416.288 29.647C416.693 29.3918 417.172 29.2642 417.725 29.2642C418.428 29.2642 419.001 29.4863 419.445 29.9304C419.89 30.3745 420.112 31.0225 420.112 31.8743V37H418.307V32.1527C418.307 31.6787 418.181 31.3324 417.929 31.1136C417.677 30.8916 417.369 30.7805 417.004 30.7805C416.57 30.7805 416.23 30.9164 415.985 31.1882C415.743 31.4567 415.622 31.8063 415.622 32.2372V37H413.857V32.0781C413.857 31.6837 413.738 31.3688 413.499 31.1335C413.264 30.8982 412.956 30.7805 412.575 30.7805C412.316 30.7805 412.081 30.8468 411.869 30.9794C411.657 31.1087 411.488 31.2926 411.362 31.5312C411.236 31.7666 411.173 32.0417 411.173 32.3565V37H409.373ZM422.077 37V29.3636H423.877V37H422.077ZM422.982 28.2798C422.697 28.2798 422.452 28.1854 422.246 27.9964C422.041 27.8042 421.938 27.5739 421.938 27.3054C421.938 27.0336 422.041 26.8033 422.246 26.6143C422.452 26.4221 422.697 26.326 422.982 26.326C423.271 26.326 423.516 26.4221 423.718 26.6143C423.924 26.8033 424.026 27.0336 424.026 27.3054C424.026 27.5739 423.924 27.8042 423.718 27.9964C423.516 28.1854 423.271 28.2798 422.982 28.2798ZM431.903 31.3821L430.263 31.5611C430.216 31.3954 430.135 31.2396 430.019 31.0938C429.906 30.9479 429.754 30.8303 429.562 30.7408C429.369 30.6513 429.134 30.6065 428.856 30.6065C428.481 30.6065 428.166 30.6877 427.911 30.8501C427.659 31.0125 427.535 31.223 427.538 31.4815C427.535 31.7036 427.616 31.8842 427.782 32.0234C427.951 32.1626 428.229 32.277 428.617 32.3665L429.92 32.6449C430.642 32.8007 431.179 33.0476 431.53 33.3857C431.885 33.7237 432.064 34.1662 432.067 34.7131C432.064 35.1937 431.923 35.6179 431.645 35.9858C431.37 36.3504 430.987 36.6354 430.496 36.8409C430.006 37.0464 429.442 37.1491 428.806 37.1491C427.871 37.1491 427.119 36.9536 426.549 36.5625C425.979 36.1681 425.639 35.6196 425.53 34.9169L427.285 34.7479C427.364 35.0926 427.533 35.3527 427.792 35.5284C428.05 35.7041 428.387 35.7919 428.801 35.7919C429.229 35.7919 429.572 35.7041 429.83 35.5284C430.092 35.3527 430.223 35.1357 430.223 34.8771C430.223 34.6584 430.138 34.4777 429.969 34.3352C429.804 34.1927 429.545 34.0833 429.194 34.0071L427.891 33.7337C427.159 33.5812 426.617 33.3243 426.266 32.9631C425.914 32.5985 425.74 32.1378 425.744 31.581C425.74 31.1103 425.868 30.7027 426.126 30.358C426.388 30.0099 426.751 29.7415 427.215 29.5526C427.682 29.3603 428.221 29.2642 428.831 29.2642C429.726 29.2642 430.43 29.4548 430.944 29.8359C431.461 30.2171 431.781 30.7325 431.903 31.3821ZM439.727 31.3821L438.086 31.5611C438.04 31.3954 437.959 31.2396 437.843 31.0938C437.73 30.9479 437.578 30.8303 437.385 30.7408C437.193 30.6513 436.958 30.6065 436.679 30.6065C436.305 30.6065 435.99 30.6877 435.735 30.8501C435.483 31.0125 435.359 31.223 435.362 31.4815C435.359 31.7036 435.44 31.8842 435.605 32.0234C435.774 32.1626 436.053 32.277 436.441 32.3665L437.743 32.6449C438.466 32.8007 439.003 33.0476 439.354 33.3857C439.709 33.7237 439.888 34.1662 439.891 34.7131C439.888 35.1937 439.747 35.6179 439.468 35.9858C439.193 36.3504 438.81 36.6354 438.32 36.8409C437.829 37.0464 437.266 37.1491 436.63 37.1491C435.695 37.1491 434.943 36.9536 434.373 36.5625C433.802 36.1681 433.463 35.6196 433.353 34.9169L435.108 34.7479C435.188 35.0926 435.357 35.3527 435.615 35.5284C435.874 35.7041 436.21 35.7919 436.625 35.7919C437.052 35.7919 437.395 35.7041 437.654 35.5284C437.916 35.3527 438.047 35.1357 438.047 34.8771C438.047 34.6584 437.962 34.4777 437.793 34.3352C437.627 34.1927 437.369 34.0833 437.017 34.0071L435.715 33.7337C434.982 33.5812 434.44 33.3243 434.089 32.9631C433.738 32.5985 433.564 32.1378 433.567 31.581C433.564 31.1103 433.691 30.7027 433.95 30.358C434.212 30.0099 434.575 29.7415 435.039 29.5526C435.506 29.3603 436.045 29.2642 436.654 29.2642C437.549 29.2642 438.254 29.4548 438.767 29.8359C439.284 30.2171 439.604 30.7325 439.727 31.3821Z" fill="#148F47"/>
</svg>
