<svg width="472" height="112" viewBox="0 0 472 112" fill="none" xmlns="http://www.w3.org/2000/svg">
<rect width="472" height="112" rx="16" fill="#F9FAFB"/>
<path d="M33.7506 25.9997C34.9927 25.9997 35.9995 27.0065 35.9995 28.2486V28.824C35.9995 29.7183 35.6799 30.5831 35.0984 31.2625C33.529 33.096 31.1418 34.0008 27.9965 34.0008C24.8506 34.0008 22.4646 33.0957 20.8983 31.2614C20.3185 30.5825 20 29.719 20 28.8262V28.2486C20 27.0065 21.0069 25.9997 22.2489 25.9997H33.7506ZM33.7506 27.4997H22.2489C21.8353 27.4997 21.5 27.835 21.5 28.2486V28.8262C21.5 29.3619 21.6911 29.88 22.039 30.2874C23.2923 31.755 25.2582 32.5008 27.9965 32.5008C30.7348 32.5008 32.7024 31.755 33.9588 30.2871C34.3078 29.8795 34.4995 29.3605 34.4995 28.824V28.2486C34.4995 27.835 34.1642 27.4997 33.7506 27.4997ZM27.9965 14.0044C30.7579 14.0044 32.9965 16.243 32.9965 19.0044C32.9965 21.7658 30.7579 24.0044 27.9965 24.0044C25.235 24.0044 22.9965 21.7658 22.9965 19.0044C22.9965 16.243 25.235 14.0044 27.9965 14.0044ZM27.9965 15.5044C26.0635 15.5044 24.4965 17.0714 24.4965 19.0044C24.4965 20.9374 26.0635 22.5044 27.9965 22.5044C29.9295 22.5044 31.4965 20.9374 31.4965 19.0044C31.4965 17.0714 29.9295 15.5044 27.9965 15.5044Z" fill="#4D80B3"/>
<path d="M57.233 26V15.8182H58.4659V24.9062H63.1989V26H57.233ZM67.336 26.179C66.8521 26.179 66.413 26.0878 66.0186 25.9055C65.6241 25.7199 65.3109 25.4531 65.0789 25.1051C64.8469 24.7538 64.7309 24.3295 64.7309 23.8324C64.7309 23.3949 64.8171 23.0402 64.9894 22.7685C65.1618 22.4934 65.3921 22.2779 65.6805 22.1222C65.9688 21.9664 66.287 21.8504 66.635 21.7741C66.9864 21.6946 67.3393 21.6316 67.694 21.5852C68.158 21.5256 68.5342 21.4808 68.8225 21.451C69.1142 21.4179 69.3263 21.3632 69.4589 21.2869C69.5948 21.2107 69.6627 21.0781 69.6627 20.8892V20.8494C69.6627 20.3589 69.5285 19.9777 69.26 19.706C68.9949 19.4342 68.5922 19.2983 68.0519 19.2983C67.4918 19.2983 67.0526 19.4209 66.7345 19.6662C66.4163 19.9115 66.1926 20.1733 66.0633 20.4517L64.9497 20.054C65.1485 19.59 65.4137 19.2287 65.7451 18.9702C66.0799 18.7083 66.4445 18.526 66.8389 18.4233C67.2366 18.3172 67.6277 18.2642 68.0122 18.2642C68.2574 18.2642 68.5391 18.294 68.8573 18.3537C69.1788 18.41 69.4887 18.5277 69.787 18.7067C70.0886 18.8857 70.3389 19.1558 70.5377 19.517C70.7366 19.8783 70.836 20.3622 70.836 20.9688V26H69.6627V24.9659H69.6031C69.5235 25.1316 69.3909 25.3089 69.2053 25.4979C69.0197 25.6868 68.7728 25.8475 68.4646 25.9801C68.1563 26.1127 67.7802 26.179 67.336 26.179ZM67.515 25.125C67.979 25.125 68.3701 25.0339 68.6883 24.8516C69.0098 24.6693 69.2517 24.4339 69.4141 24.1456C69.5799 23.8572 69.6627 23.554 69.6627 23.2358V22.1619C69.613 22.2216 69.5036 22.2763 69.3346 22.326C69.1689 22.3724 68.9766 22.4138 68.7579 22.4503C68.5425 22.4834 68.332 22.5133 68.1265 22.5398C67.9243 22.563 67.7603 22.5829 67.6343 22.5994C67.3294 22.6392 67.0444 22.7038 66.7792 22.7933C66.5174 22.8795 66.3052 23.0104 66.1428 23.1861C65.9838 23.3584 65.9042 23.5937 65.9042 23.892C65.9042 24.2997 66.055 24.608 66.3566 24.8168C66.6615 25.0223 67.0477 25.125 67.515 25.125ZM73.2766 26V15.8182H74.4499V19.5767H74.5494C74.6355 19.4441 74.7548 19.2751 74.9073 19.0696C75.0631 18.8608 75.2851 18.6752 75.5735 18.5128C75.8652 18.3471 76.2596 18.2642 76.7567 18.2642C77.3997 18.2642 77.9665 18.425 78.457 18.7464C78.9476 19.0679 79.3304 19.5237 79.6055 20.1136C79.8806 20.7036 80.0181 21.3996 80.0181 22.2017C80.0181 23.0104 79.8806 23.7114 79.6055 24.3047C79.3304 24.8946 78.9492 25.352 78.462 25.6768C77.9748 25.9983 77.413 26.1591 76.7766 26.1591C76.2861 26.1591 75.8933 26.0779 75.5984 25.9155C75.3034 25.7498 75.0763 25.5625 74.9173 25.3537C74.7582 25.1416 74.6355 24.9659 74.5494 24.8267H74.4101V26H73.2766ZM74.43 22.1818C74.43 22.7585 74.5146 23.2673 74.6836 23.7081C74.8526 24.1456 75.0995 24.4886 75.4244 24.7372C75.7492 24.9825 76.1469 25.1051 76.6175 25.1051C77.1081 25.1051 77.5174 24.9759 77.8455 24.7173C78.177 24.4555 78.4255 24.1042 78.5913 23.6634C78.7603 23.2192 78.8448 22.7254 78.8448 22.1818C78.8448 21.6449 78.7619 21.161 78.5962 20.7301C78.4338 20.2959 78.1869 19.9529 77.8555 19.701C77.5273 19.4458 77.1147 19.3182 76.6175 19.3182C76.1403 19.3182 75.7392 19.4392 75.4144 19.6811C75.0896 19.9197 74.8443 20.2545 74.6786 20.6854C74.5129 21.1129 74.43 21.6117 74.43 22.1818ZM85.1546 26.1591C84.4188 26.1591 83.7841 25.9967 83.2504 25.6719C82.7201 25.3438 82.3108 24.8864 82.0225 24.2997C81.7374 23.7098 81.5949 23.0237 81.5949 22.2415C81.5949 21.4593 81.7374 20.7699 82.0225 20.1733C82.3108 19.5734 82.7118 19.1061 83.2256 18.7713C83.7426 18.4332 84.3458 18.2642 85.0352 18.2642C85.433 18.2642 85.8257 18.3305 86.2135 18.4631C86.6013 18.5956 86.9543 18.8111 87.2725 19.1094C87.5906 19.4044 87.8442 19.7955 88.0331 20.2827C88.222 20.7699 88.3165 21.3698 88.3165 22.0824V22.5795H82.4301V21.5653H87.1233C87.1233 21.1345 87.0371 20.75 86.8648 20.4119C86.6957 20.0739 86.4538 19.8071 86.1389 19.6115C85.8274 19.416 85.4595 19.3182 85.0352 19.3182C84.5679 19.3182 84.1635 19.4342 83.8222 19.6662C83.4841 19.8949 83.2239 20.1932 83.0416 20.5611C82.8593 20.929 82.7682 21.3234 82.7682 21.7443V22.4205C82.7682 22.9972 82.8676 23.486 83.0665 23.8871C83.2687 24.2848 83.5487 24.5881 83.9067 24.7969C84.2646 25.0024 84.6806 25.1051 85.1546 25.1051C85.4628 25.1051 85.7412 25.062 85.9898 24.9759C86.2417 24.8864 86.4588 24.7538 86.6411 24.5781C86.8234 24.3991 86.9642 24.1771 87.0636 23.9119L88.1972 24.2301C88.0778 24.6146 87.8773 24.9527 87.5956 25.2443C87.3139 25.5327 86.9659 25.758 86.5516 25.9205C86.1373 26.0795 85.6716 26.1591 85.1546 26.1591ZM91.4146 15.8182V26H90.2413V15.8182H91.4146Z" fill="#1A1B1F" fill-opacity="0.7"/>
<path d="M61.0909 50H57.1477V38.3636H61.1705C62.3258 38.3636 63.3182 38.5966 64.1477 39.0625C64.9811 39.5246 65.6212 40.1894 66.0682 41.0568C66.5152 41.9242 66.7386 42.9621 66.7386 44.1705C66.7386 45.3826 66.5133 46.4242 66.0625 47.2955C65.6155 48.1667 64.9697 48.8352 64.125 49.3011C63.2841 49.767 62.2727 50 61.0909 50ZM59.2557 48.1761H60.9886C61.7992 48.1761 62.4754 48.0284 63.017 47.733C63.5587 47.4337 63.9659 46.9886 64.2386 46.3977C64.5114 45.803 64.6477 45.0606 64.6477 44.1705C64.6477 43.2803 64.5114 42.5417 64.2386 41.9545C63.9659 41.3636 63.5625 40.9223 63.0284 40.6307C62.4981 40.3352 61.839 40.1875 61.0511 40.1875H59.2557V48.1761ZM72.5142 50.1705C71.6392 50.1705 70.8835 49.9886 70.2472 49.625C69.6146 49.2576 69.1278 48.7386 68.7869 48.0682C68.446 47.3939 68.2756 46.6004 68.2756 45.6875C68.2756 44.7898 68.446 44.0019 68.7869 43.3239C69.1316 42.642 69.6127 42.1117 70.2301 41.733C70.8475 41.3504 71.5729 41.1591 72.4062 41.1591C72.9441 41.1591 73.4517 41.2462 73.929 41.4205C74.41 41.5909 74.8343 41.8561 75.2017 42.2159C75.5729 42.5758 75.8646 43.0341 76.0767 43.5909C76.2888 44.1439 76.3949 44.803 76.3949 45.5682V46.1989H69.2415V44.8125H74.4233C74.4195 44.4186 74.3343 44.0682 74.1676 43.7614C74.0009 43.4508 73.768 43.2064 73.4688 43.0284C73.1733 42.8504 72.8286 42.7614 72.4347 42.7614C72.0142 42.7614 71.6449 42.8636 71.3267 43.0682C71.0085 43.2689 70.7604 43.5341 70.5824 43.8636C70.4081 44.1894 70.3191 44.5473 70.3153 44.9375V46.1477C70.3153 46.6553 70.4081 47.0909 70.5938 47.4545C70.7794 47.8144 71.0388 48.0909 71.3722 48.2841C71.7055 48.4735 72.0956 48.5682 72.5426 48.5682C72.8419 48.5682 73.1127 48.5265 73.3551 48.4432C73.5975 48.3561 73.8078 48.2292 73.9858 48.0625C74.1638 47.8958 74.2983 47.6894 74.3892 47.4432L76.3097 47.6591C76.1884 48.1667 75.9574 48.6098 75.6165 48.9886C75.2794 49.3636 74.8475 49.6553 74.321 49.8636C73.7945 50.0682 73.1922 50.1705 72.5142 50.1705ZM85.0327 43.5795L83.1577 43.7841C83.1046 43.5947 83.0118 43.4167 82.8793 43.25C82.7505 43.0833 82.5762 42.9489 82.3565 42.8466C82.1368 42.7443 81.8679 42.6932 81.5497 42.6932C81.1217 42.6932 80.7618 42.786 80.4702 42.9716C80.1823 43.1572 80.0402 43.3977 80.044 43.6932C80.0402 43.947 80.133 44.1534 80.3224 44.3125C80.5156 44.4716 80.8338 44.6023 81.277 44.7045L82.7656 45.0227C83.5914 45.2008 84.205 45.483 84.6065 45.8693C85.0118 46.2557 85.2164 46.7614 85.2202 47.3864C85.2164 47.9356 85.0554 48.4205 84.7372 48.8409C84.4228 49.2576 83.9853 49.5833 83.4247 49.8182C82.8641 50.053 82.2202 50.1705 81.4929 50.1705C80.4247 50.1705 79.5649 49.947 78.9134 49.5C78.2618 49.0492 77.8736 48.4223 77.7486 47.6193L79.7543 47.4261C79.8452 47.8201 80.0384 48.1174 80.3338 48.3182C80.6293 48.5189 81.0137 48.6193 81.4872 48.6193C81.9759 48.6193 82.3679 48.5189 82.6634 48.3182C82.9626 48.1174 83.1122 47.8693 83.1122 47.5739C83.1122 47.3239 83.0156 47.1174 82.8224 46.9545C82.633 46.7917 82.3376 46.6667 81.9361 46.5795L80.4474 46.267C79.6103 46.0928 78.991 45.7992 78.5895 45.3864C78.188 44.9697 77.9891 44.4432 77.9929 43.8068C77.9891 43.2689 78.1349 42.803 78.4304 42.4091C78.7296 42.0114 79.1444 41.7045 79.6747 41.4886C80.2088 41.2689 80.8243 41.1591 81.5213 41.1591C82.544 41.1591 83.349 41.3769 83.9361 41.8125C84.527 42.2481 84.8925 42.8371 85.0327 43.5795ZM90.723 50.1705C89.8518 50.1705 89.1037 49.9792 88.4787 49.5966C87.8575 49.214 87.3783 48.6856 87.0412 48.0114C86.7079 47.3333 86.5412 46.553 86.5412 45.6705C86.5412 44.7841 86.7116 44.0019 87.0526 43.3239C87.3935 42.642 87.8745 42.1117 88.4957 41.733C89.1207 41.3504 89.8594 41.1591 90.7116 41.1591C91.42 41.1591 92.0469 41.2898 92.5923 41.5511C93.1416 41.8087 93.5791 42.1742 93.9048 42.6477C94.2306 43.1174 94.4162 43.6667 94.4616 44.2955H92.4957C92.4162 43.875 92.2268 43.5246 91.9276 43.2443C91.6321 42.9602 91.2363 42.8182 90.7401 42.8182C90.3196 42.8182 89.9503 42.9318 89.6321 43.1591C89.3139 43.3826 89.0658 43.7045 88.8878 44.125C88.7135 44.5455 88.6264 45.0492 88.6264 45.6364C88.6264 46.2311 88.7135 46.7424 88.8878 47.1705C89.062 47.5947 89.3063 47.9223 89.6207 48.1534C89.9389 48.3807 90.312 48.4943 90.7401 48.4943C91.0431 48.4943 91.3139 48.4375 91.5526 48.3239C91.795 48.2064 91.9976 48.0379 92.1605 47.8182C92.3234 47.5985 92.4351 47.3314 92.4957 47.017H94.4616C94.4124 47.6345 94.2306 48.1818 93.9162 48.6591C93.6018 49.1326 93.1738 49.5038 92.6321 49.7727C92.0904 50.0379 91.4541 50.1705 90.723 50.1705ZM96.1506 50V41.2727H98.1449V42.7273H98.2358C98.3949 42.2235 98.6676 41.8352 99.054 41.5625C99.4441 41.286 99.8892 41.1477 100.389 41.1477C100.503 41.1477 100.63 41.1534 100.77 41.1648C100.914 41.1723 101.033 41.1856 101.128 41.2045V43.0966C101.041 43.0663 100.902 43.0398 100.713 43.017C100.527 42.9905 100.348 42.9773 100.173 42.9773C99.7983 42.9773 99.4612 43.0587 99.1619 43.2216C98.8665 43.3807 98.6335 43.6023 98.4631 43.8864C98.2926 44.1705 98.2074 44.4981 98.2074 44.8693V50H96.1506ZM102.494 50V41.2727H104.551V50H102.494ZM103.528 40.0341C103.203 40.0341 102.922 39.9261 102.688 39.7102C102.453 39.4905 102.335 39.2273 102.335 38.9205C102.335 38.6098 102.453 38.3466 102.688 38.1307C102.922 37.911 103.203 37.8011 103.528 37.8011C103.858 37.8011 104.138 37.911 104.369 38.1307C104.604 38.3466 104.722 38.6098 104.722 38.9205C104.722 39.2273 104.604 39.4905 104.369 39.7102C104.138 39.9261 103.858 40.0341 103.528 40.0341ZM106.666 53.2727V41.2727H108.689V42.7159H108.808C108.914 42.5038 109.064 42.2784 109.257 42.0398C109.45 41.7973 109.712 41.5909 110.041 41.4205C110.371 41.2462 110.791 41.1591 111.303 41.1591C111.977 41.1591 112.585 41.3314 113.126 41.6761C113.672 42.017 114.104 42.5227 114.422 43.1932C114.744 43.8598 114.905 44.678 114.905 45.6477C114.905 46.6061 114.748 47.4205 114.433 48.0909C114.119 48.7614 113.691 49.2727 113.149 49.625C112.607 49.9773 111.994 50.1534 111.308 50.1534C110.808 50.1534 110.393 50.0701 110.064 49.9034C109.734 49.7367 109.469 49.536 109.268 49.3011C109.071 49.0625 108.918 48.8371 108.808 48.625H108.723V53.2727H106.666ZM108.683 45.6364C108.683 46.2008 108.763 46.6951 108.922 47.1193C109.085 47.5436 109.318 47.875 109.621 48.1136C109.928 48.3485 110.299 48.4659 110.734 48.4659C111.189 48.4659 111.57 48.3447 111.876 48.1023C112.183 47.8561 112.414 47.5208 112.57 47.0966C112.729 46.6686 112.808 46.1818 112.808 45.6364C112.808 45.0947 112.731 44.6136 112.575 44.1932C112.42 43.7727 112.189 43.4432 111.882 43.2045C111.575 42.9659 111.193 42.8466 110.734 42.8466C110.295 42.8466 109.922 42.9621 109.615 43.1932C109.308 43.4242 109.075 43.7481 108.916 44.1648C108.761 44.5814 108.683 45.072 108.683 45.6364ZM121.024 41.2727V42.8636H116.007V41.2727H121.024ZM117.246 39.1818H119.303V47.375C119.303 47.6515 119.344 47.8636 119.428 48.0114C119.515 48.1553 119.628 48.2538 119.768 48.3068C119.909 48.3598 120.064 48.3864 120.234 48.3864C120.363 48.3864 120.481 48.3769 120.587 48.358C120.696 48.339 120.78 48.322 120.837 48.3068L121.183 49.9148C121.073 49.9527 120.916 49.9943 120.712 50.0398C120.511 50.0852 120.265 50.1117 119.973 50.1193C119.458 50.1345 118.994 50.0568 118.581 49.8864C118.168 49.7121 117.84 49.4432 117.598 49.0795C117.359 48.7159 117.242 48.2614 117.246 47.7159V39.1818ZM122.744 50V41.2727H124.801V50H122.744ZM123.778 40.0341C123.453 40.0341 123.172 39.9261 122.938 39.7102C122.703 39.4905 122.585 39.2273 122.585 38.9205C122.585 38.6098 122.703 38.3466 122.938 38.1307C123.172 37.911 123.453 37.8011 123.778 37.8011C124.108 37.8011 124.388 37.911 124.619 38.1307C124.854 38.3466 124.972 38.6098 124.972 38.9205C124.972 39.2273 124.854 39.4905 124.619 39.7102C124.388 39.9261 124.108 40.0341 123.778 40.0341ZM130.723 50.1705C129.871 50.1705 129.132 49.983 128.507 49.608C127.882 49.233 127.397 48.7083 127.053 48.0341C126.712 47.3598 126.541 46.572 126.541 45.6705C126.541 44.7689 126.712 43.9792 127.053 43.3011C127.397 42.6231 127.882 42.0966 128.507 41.7216C129.132 41.3466 129.871 41.1591 130.723 41.1591C131.575 41.1591 132.314 41.3466 132.939 41.7216C133.564 42.0966 134.047 42.6231 134.388 43.3011C134.732 43.9792 134.905 44.7689 134.905 45.6705C134.905 46.572 134.732 47.3598 134.388 48.0341C134.047 48.7083 133.564 49.233 132.939 49.608C132.314 49.983 131.575 50.1705 130.723 50.1705ZM130.734 48.5227C131.196 48.5227 131.583 48.3958 131.893 48.142C132.204 47.8845 132.435 47.5398 132.587 47.108C132.742 46.6761 132.82 46.1951 132.82 45.6648C132.82 45.1307 132.742 44.6477 132.587 44.2159C132.435 43.7803 132.204 43.4337 131.893 43.1761C131.583 42.9186 131.196 42.7898 130.734 42.7898C130.261 42.7898 129.867 42.9186 129.553 43.1761C129.242 43.4337 129.009 43.7803 128.854 44.2159C128.702 44.6477 128.626 45.1307 128.626 45.6648C128.626 46.1951 128.702 46.6761 128.854 47.108C129.009 47.5398 129.242 47.8845 129.553 48.142C129.867 48.3958 130.261 48.5227 130.734 48.5227ZM138.707 44.8864V50H136.651V41.2727H138.616V42.7557H138.719C138.92 42.267 139.24 41.8788 139.679 41.5909C140.122 41.303 140.67 41.1591 141.321 41.1591C141.923 41.1591 142.448 41.2879 142.895 41.5455C143.346 41.803 143.694 42.1761 143.94 42.6648C144.19 43.1534 144.313 43.7462 144.31 44.4432V50H142.253V44.7614C142.253 44.178 142.101 43.7216 141.798 43.392C141.499 43.0625 141.084 42.8977 140.554 42.8977C140.194 42.8977 139.874 42.9773 139.594 43.1364C139.317 43.2917 139.099 43.517 138.94 43.8125C138.785 44.108 138.707 44.4659 138.707 44.8864ZM155.08 38.3636V50H152.972V40.4148H152.903L150.182 42.1534V40.2216L153.074 38.3636H155.08Z" fill="#1A1B1F"/>
<path d="M61.0909 74H57.1477V62.3636H61.1705C62.3258 62.3636 63.3182 62.5966 64.1477 63.0625C64.9811 63.5246 65.6212 64.1894 66.0682 65.0568C66.5152 65.9242 66.7386 66.9621 66.7386 68.1705C66.7386 69.3826 66.5133 70.4242 66.0625 71.2955C65.6155 72.1667 64.9697 72.8352 64.125 73.3011C63.2841 73.767 62.2727 74 61.0909 74ZM59.2557 72.1761H60.9886C61.7992 72.1761 62.4754 72.0284 63.017 71.733C63.5587 71.4337 63.9659 70.9886 64.2386 70.3977C64.5114 69.803 64.6477 69.0606 64.6477 68.1705C64.6477 67.2803 64.5114 66.5417 64.2386 65.9545C63.9659 65.3636 63.5625 64.9223 63.0284 64.6307C62.4981 64.3352 61.839 64.1875 61.0511 64.1875H59.2557V72.1761ZM72.5142 74.1705C71.6392 74.1705 70.8835 73.9886 70.2472 73.625C69.6146 73.2576 69.1278 72.7386 68.7869 72.0682C68.446 71.3939 68.2756 70.6004 68.2756 69.6875C68.2756 68.7898 68.446 68.0019 68.7869 67.3239C69.1316 66.642 69.6127 66.1117 70.2301 65.733C70.8475 65.3504 71.5729 65.1591 72.4062 65.1591C72.9441 65.1591 73.4517 65.2462 73.929 65.4205C74.41 65.5909 74.8343 65.8561 75.2017 66.2159C75.5729 66.5758 75.8646 67.0341 76.0767 67.5909C76.2888 68.1439 76.3949 68.803 76.3949 69.5682V70.1989H69.2415V68.8125H74.4233C74.4195 68.4186 74.3343 68.0682 74.1676 67.7614C74.0009 67.4508 73.768 67.2064 73.4688 67.0284C73.1733 66.8504 72.8286 66.7614 72.4347 66.7614C72.0142 66.7614 71.6449 66.8636 71.3267 67.0682C71.0085 67.2689 70.7604 67.5341 70.5824 67.8636C70.4081 68.1894 70.3191 68.5473 70.3153 68.9375V70.1477C70.3153 70.6553 70.4081 71.0909 70.5938 71.4545C70.7794 71.8144 71.0388 72.0909 71.3722 72.2841C71.7055 72.4735 72.0956 72.5682 72.5426 72.5682C72.8419 72.5682 73.1127 72.5265 73.3551 72.4432C73.5975 72.3561 73.8078 72.2292 73.9858 72.0625C74.1638 71.8958 74.2983 71.6894 74.3892 71.4432L76.3097 71.6591C76.1884 72.1667 75.9574 72.6098 75.6165 72.9886C75.2794 73.3636 74.8475 73.6553 74.321 73.8636C73.7945 74.0682 73.1922 74.1705 72.5142 74.1705ZM85.0327 67.5795L83.1577 67.7841C83.1046 67.5947 83.0118 67.4167 82.8793 67.25C82.7505 67.0833 82.5762 66.9489 82.3565 66.8466C82.1368 66.7443 81.8679 66.6932 81.5497 66.6932C81.1217 66.6932 80.7618 66.786 80.4702 66.9716C80.1823 67.1572 80.0402 67.3977 80.044 67.6932C80.0402 67.947 80.133 68.1534 80.3224 68.3125C80.5156 68.4716 80.8338 68.6023 81.277 68.7045L82.7656 69.0227C83.5914 69.2008 84.205 69.483 84.6065 69.8693C85.0118 70.2557 85.2164 70.7614 85.2202 71.3864C85.2164 71.9356 85.0554 72.4205 84.7372 72.8409C84.4228 73.2576 83.9853 73.5833 83.4247 73.8182C82.8641 74.053 82.2202 74.1705 81.4929 74.1705C80.4247 74.1705 79.5649 73.947 78.9134 73.5C78.2618 73.0492 77.8736 72.4223 77.7486 71.6193L79.7543 71.4261C79.8452 71.8201 80.0384 72.1174 80.3338 72.3182C80.6293 72.5189 81.0137 72.6193 81.4872 72.6193C81.9759 72.6193 82.3679 72.5189 82.6634 72.3182C82.9626 72.1174 83.1122 71.8693 83.1122 71.5739C83.1122 71.3239 83.0156 71.1174 82.8224 70.9545C82.633 70.7917 82.3376 70.6667 81.9361 70.5795L80.4474 70.267C79.6103 70.0928 78.991 69.7992 78.5895 69.3864C78.188 68.9697 77.9891 68.4432 77.9929 67.8068C77.9891 67.2689 78.1349 66.803 78.4304 66.4091C78.7296 66.0114 79.1444 65.7045 79.6747 65.4886C80.2088 65.2689 80.8243 65.1591 81.5213 65.1591C82.544 65.1591 83.349 65.3769 83.9361 65.8125C84.527 66.2481 84.8925 66.8371 85.0327 67.5795ZM90.723 74.1705C89.8518 74.1705 89.1037 73.9792 88.4787 73.5966C87.8575 73.214 87.3783 72.6856 87.0412 72.0114C86.7079 71.3333 86.5412 70.553 86.5412 69.6705C86.5412 68.7841 86.7116 68.0019 87.0526 67.3239C87.3935 66.642 87.8745 66.1117 88.4957 65.733C89.1207 65.3504 89.8594 65.1591 90.7116 65.1591C91.42 65.1591 92.0469 65.2898 92.5923 65.5511C93.1416 65.8087 93.5791 66.1742 93.9048 66.6477C94.2306 67.1174 94.4162 67.6667 94.4616 68.2955H92.4957C92.4162 67.875 92.2268 67.5246 91.9276 67.2443C91.6321 66.9602 91.2363 66.8182 90.7401 66.8182C90.3196 66.8182 89.9503 66.9318 89.6321 67.1591C89.3139 67.3826 89.0658 67.7045 88.8878 68.125C88.7135 68.5455 88.6264 69.0492 88.6264 69.6364C88.6264 70.2311 88.7135 70.7424 88.8878 71.1705C89.062 71.5947 89.3063 71.9223 89.6207 72.1534C89.9389 72.3807 90.312 72.4943 90.7401 72.4943C91.0431 72.4943 91.3139 72.4375 91.5526 72.3239C91.795 72.2064 91.9976 72.0379 92.1605 71.8182C92.3234 71.5985 92.4351 71.3314 92.4957 71.017H94.4616C94.4124 71.6345 94.2306 72.1818 93.9162 72.6591C93.6018 73.1326 93.1738 73.5038 92.6321 73.7727C92.0904 74.0379 91.4541 74.1705 90.723 74.1705ZM96.1506 74V65.2727H98.1449V66.7273H98.2358C98.3949 66.2235 98.6676 65.8352 99.054 65.5625C99.4441 65.286 99.8892 65.1477 100.389 65.1477C100.503 65.1477 100.63 65.1534 100.77 65.1648C100.914 65.1723 101.033 65.1856 101.128 65.2045V67.0966C101.041 67.0663 100.902 67.0398 100.713 67.017C100.527 66.9905 100.348 66.9773 100.173 66.9773C99.7983 66.9773 99.4612 67.0587 99.1619 67.2216C98.8665 67.3807 98.6335 67.6023 98.4631 67.8864C98.2926 68.1705 98.2074 68.4981 98.2074 68.8693V74H96.1506ZM102.494 74V65.2727H104.551V74H102.494ZM103.528 64.0341C103.203 64.0341 102.922 63.9261 102.688 63.7102C102.453 63.4905 102.335 63.2273 102.335 62.9205C102.335 62.6098 102.453 62.3466 102.688 62.1307C102.922 61.911 103.203 61.8011 103.528 61.8011C103.858 61.8011 104.138 61.911 104.369 62.1307C104.604 62.3466 104.722 62.6098 104.722 62.9205C104.722 63.2273 104.604 63.4905 104.369 63.7102C104.138 63.9261 103.858 64.0341 103.528 64.0341ZM106.666 77.2727V65.2727H108.689V66.7159H108.808C108.914 66.5038 109.064 66.2784 109.257 66.0398C109.45 65.7973 109.712 65.5909 110.041 65.4205C110.371 65.2462 110.791 65.1591 111.303 65.1591C111.977 65.1591 112.585 65.3314 113.126 65.6761C113.672 66.017 114.104 66.5227 114.422 67.1932C114.744 67.8598 114.905 68.678 114.905 69.6477C114.905 70.6061 114.748 71.4205 114.433 72.0909C114.119 72.7614 113.691 73.2727 113.149 73.625C112.607 73.9773 111.994 74.1534 111.308 74.1534C110.808 74.1534 110.393 74.0701 110.064 73.9034C109.734 73.7367 109.469 73.536 109.268 73.3011C109.071 73.0625 108.918 72.8371 108.808 72.625H108.723V77.2727H106.666ZM108.683 69.6364C108.683 70.2008 108.763 70.6951 108.922 71.1193C109.085 71.5436 109.318 71.875 109.621 72.1136C109.928 72.3485 110.299 72.4659 110.734 72.4659C111.189 72.4659 111.57 72.3447 111.876 72.1023C112.183 71.8561 112.414 71.5208 112.57 71.0966C112.729 70.6686 112.808 70.1818 112.808 69.6364C112.808 69.0947 112.731 68.6136 112.575 68.1932C112.42 67.7727 112.189 67.4432 111.882 67.2045C111.575 66.9659 111.193 66.8466 110.734 66.8466C110.295 66.8466 109.922 66.9621 109.615 67.1932C109.308 67.4242 109.075 67.7481 108.916 68.1648C108.761 68.5814 108.683 69.072 108.683 69.6364ZM121.024 65.2727V66.8636H116.007V65.2727H121.024ZM117.246 63.1818H119.303V71.375C119.303 71.6515 119.344 71.8636 119.428 72.0114C119.515 72.1553 119.628 72.2538 119.768 72.3068C119.909 72.3598 120.064 72.3864 120.234 72.3864C120.363 72.3864 120.481 72.3769 120.587 72.358C120.696 72.339 120.78 72.322 120.837 72.3068L121.183 73.9148C121.073 73.9527 120.916 73.9943 120.712 74.0398C120.511 74.0852 120.265 74.1117 119.973 74.1193C119.458 74.1345 118.994 74.0568 118.581 73.8864C118.168 73.7121 117.84 73.4432 117.598 73.0795C117.359 72.7159 117.242 72.2614 117.246 71.7159V63.1818ZM122.744 74V65.2727H124.801V74H122.744ZM123.778 64.0341C123.453 64.0341 123.172 63.9261 122.938 63.7102C122.703 63.4905 122.585 63.2273 122.585 62.9205C122.585 62.6098 122.703 62.3466 122.938 62.1307C123.172 61.911 123.453 61.8011 123.778 61.8011C124.108 61.8011 124.388 61.911 124.619 62.1307C124.854 62.3466 124.972 62.6098 124.972 62.9205C124.972 63.2273 124.854 63.4905 124.619 63.7102C124.388 63.9261 124.108 64.0341 123.778 64.0341ZM130.723 74.1705C129.871 74.1705 129.132 73.983 128.507 73.608C127.882 73.233 127.397 72.7083 127.053 72.0341C126.712 71.3598 126.541 70.572 126.541 69.6705C126.541 68.7689 126.712 67.9792 127.053 67.3011C127.397 66.6231 127.882 66.0966 128.507 65.7216C129.132 65.3466 129.871 65.1591 130.723 65.1591C131.575 65.1591 132.314 65.3466 132.939 65.7216C133.564 66.0966 134.047 66.6231 134.388 67.3011C134.732 67.9792 134.905 68.7689 134.905 69.6705C134.905 70.572 134.732 71.3598 134.388 72.0341C134.047 72.7083 133.564 73.233 132.939 73.608C132.314 73.983 131.575 74.1705 130.723 74.1705ZM130.734 72.5227C131.196 72.5227 131.583 72.3958 131.893 72.142C132.204 71.8845 132.435 71.5398 132.587 71.108C132.742 70.6761 132.82 70.1951 132.82 69.6648C132.82 69.1307 132.742 68.6477 132.587 68.2159C132.435 67.7803 132.204 67.4337 131.893 67.1761C131.583 66.9186 131.196 66.7898 130.734 66.7898C130.261 66.7898 129.867 66.9186 129.553 67.1761C129.242 67.4337 129.009 67.7803 128.854 68.2159C128.702 68.6477 128.626 69.1307 128.626 69.6648C128.626 70.1951 128.702 70.6761 128.854 71.108C129.009 71.5398 129.242 71.8845 129.553 72.142C129.867 72.3958 130.261 72.5227 130.734 72.5227ZM138.707 68.8864V74H136.651V65.2727H138.616V66.7557H138.719C138.92 66.267 139.24 65.8788 139.679 65.5909C140.122 65.303 140.67 65.1591 141.321 65.1591C141.923 65.1591 142.448 65.2879 142.895 65.5455C143.346 65.803 143.694 66.1761 143.94 66.6648C144.19 67.1534 144.313 67.7462 144.31 68.4432V74H142.253V68.7614C142.253 68.178 142.101 67.7216 141.798 67.392C141.499 67.0625 141.084 66.8977 140.554 66.8977C140.194 66.8977 139.874 66.9773 139.594 67.1364C139.317 67.2917 139.099 67.517 138.94 67.8125C138.785 68.108 138.707 68.4659 138.707 68.8864ZM150.347 74V72.4773L154.386 68.517C154.773 68.1269 155.095 67.7803 155.352 67.4773C155.61 67.1742 155.803 66.8807 155.932 66.5966C156.061 66.3125 156.125 66.0095 156.125 65.6875C156.125 65.3201 156.042 65.0057 155.875 64.7443C155.708 64.4792 155.479 64.2746 155.188 64.1307C154.896 63.9867 154.564 63.9148 154.193 63.9148C153.811 63.9148 153.475 63.9943 153.188 64.1534C152.9 64.3087 152.676 64.5303 152.517 64.8182C152.362 65.1061 152.284 65.4489 152.284 65.8466H150.278C150.278 65.108 150.447 64.4659 150.784 63.9205C151.121 63.375 151.585 62.9527 152.176 62.6534C152.771 62.3542 153.453 62.2045 154.222 62.2045C155.002 62.2045 155.688 62.3504 156.278 62.642C156.869 62.9337 157.328 63.3333 157.653 63.8409C157.983 64.3485 158.148 64.928 158.148 65.5795C158.148 66.0152 158.064 66.4432 157.898 66.8636C157.731 67.2841 157.438 67.75 157.017 68.2614C156.6 68.7727 156.015 69.392 155.261 70.1193L153.256 72.1591V72.2386H158.324V74H150.347Z" fill="#1A1B1F"/>
<path d="M57.233 96V85.8182H58.4659V94.9062H63.1989V96H57.233ZM67.336 96.179C66.8521 96.179 66.413 96.0878 66.0186 95.9055C65.6241 95.7199 65.3109 95.4531 65.0789 95.1051C64.8469 94.7538 64.7309 94.3295 64.7309 93.8324C64.7309 93.3949 64.8171 93.0402 64.9894 92.7685C65.1618 92.4934 65.3921 92.2779 65.6805 92.1222C65.9688 91.9664 66.287 91.8504 66.635 91.7741C66.9864 91.6946 67.3393 91.6316 67.694 91.5852C68.158 91.5256 68.5342 91.4808 68.8225 91.451C69.1142 91.4179 69.3263 91.3632 69.4589 91.2869C69.5948 91.2107 69.6627 91.0781 69.6627 90.8892V90.8494C69.6627 90.3589 69.5285 89.9777 69.26 89.706C68.9949 89.4342 68.5922 89.2983 68.0519 89.2983C67.4918 89.2983 67.0526 89.4209 66.7345 89.6662C66.4163 89.9115 66.1926 90.1733 66.0633 90.4517L64.9497 90.054C65.1485 89.59 65.4137 89.2287 65.7451 88.9702C66.0799 88.7083 66.4445 88.526 66.8389 88.4233C67.2366 88.3172 67.6277 88.2642 68.0122 88.2642C68.2574 88.2642 68.5391 88.294 68.8573 88.3537C69.1788 88.41 69.4887 88.5277 69.787 88.7067C70.0886 88.8857 70.3389 89.1558 70.5377 89.517C70.7366 89.8783 70.836 90.3622 70.836 90.9688V96H69.6627V94.9659H69.6031C69.5235 95.1316 69.3909 95.3089 69.2053 95.4979C69.0197 95.6868 68.7728 95.8475 68.4646 95.9801C68.1563 96.1127 67.7802 96.179 67.336 96.179ZM67.515 95.125C67.979 95.125 68.3701 95.0339 68.6883 94.8516C69.0098 94.6693 69.2517 94.4339 69.4141 94.1456C69.5799 93.8572 69.6627 93.554 69.6627 93.2358V92.1619C69.613 92.2216 69.5036 92.2763 69.3346 92.326C69.1689 92.3724 68.9766 92.4138 68.7579 92.4503C68.5425 92.4834 68.332 92.5133 68.1265 92.5398C67.9243 92.563 67.7603 92.5829 67.6343 92.5994C67.3294 92.6392 67.0444 92.7038 66.7792 92.7933C66.5174 92.8795 66.3052 93.0104 66.1428 93.1861C65.9838 93.3584 65.9042 93.5937 65.9042 93.892C65.9042 94.2997 66.055 94.608 66.3566 94.8168C66.6615 95.0223 67.0477 95.125 67.515 95.125ZM73.2766 96V85.8182H74.4499V89.5767H74.5494C74.6355 89.4441 74.7548 89.2751 74.9073 89.0696C75.0631 88.8608 75.2851 88.6752 75.5735 88.5128C75.8652 88.3471 76.2596 88.2642 76.7567 88.2642C77.3997 88.2642 77.9665 88.425 78.457 88.7464C78.9476 89.0679 79.3304 89.5237 79.6055 90.1136C79.8806 90.7036 80.0181 91.3996 80.0181 92.2017C80.0181 93.0104 79.8806 93.7114 79.6055 94.3047C79.3304 94.8946 78.9492 95.352 78.462 95.6768C77.9748 95.9983 77.413 96.1591 76.7766 96.1591C76.2861 96.1591 75.8933 96.0779 75.5984 95.9155C75.3034 95.7498 75.0763 95.5625 74.9173 95.3537C74.7582 95.1416 74.6355 94.9659 74.5494 94.8267H74.4101V96H73.2766ZM74.43 92.1818C74.43 92.7585 74.5146 93.2673 74.6836 93.7081C74.8526 94.1456 75.0995 94.4886 75.4244 94.7372C75.7492 94.9825 76.1469 95.1051 76.6175 95.1051C77.1081 95.1051 77.5174 94.9759 77.8455 94.7173C78.177 94.4555 78.4255 94.1042 78.5913 93.6634C78.7603 93.2192 78.8448 92.7254 78.8448 92.1818C78.8448 91.6449 78.7619 91.161 78.5962 90.7301C78.4338 90.2959 78.1869 89.9529 77.8555 89.701C77.5273 89.4458 77.1147 89.3182 76.6175 89.3182C76.1403 89.3182 75.7392 89.4392 75.4144 89.6811C75.0896 89.9197 74.8443 90.2545 74.6786 90.6854C74.5129 91.1129 74.43 91.6117 74.43 92.1818ZM85.1546 96.1591C84.4188 96.1591 83.7841 95.9967 83.2504 95.6719C82.7201 95.3438 82.3108 94.8864 82.0225 94.2997C81.7374 93.7098 81.5949 93.0237 81.5949 92.2415C81.5949 91.4593 81.7374 90.7699 82.0225 90.1733C82.3108 89.5734 82.7118 89.1061 83.2256 88.7713C83.7426 88.4332 84.3458 88.2642 85.0352 88.2642C85.433 88.2642 85.8257 88.3305 86.2135 88.4631C86.6013 88.5956 86.9543 88.8111 87.2725 89.1094C87.5906 89.4044 87.8442 89.7955 88.0331 90.2827C88.222 90.7699 88.3165 91.3698 88.3165 92.0824V92.5795H82.4301V91.5653H87.1233C87.1233 91.1345 87.0371 90.75 86.8648 90.4119C86.6957 90.0739 86.4538 89.8071 86.1389 89.6115C85.8274 89.416 85.4595 89.3182 85.0352 89.3182C84.5679 89.3182 84.1635 89.4342 83.8222 89.6662C83.4841 89.8949 83.2239 90.1932 83.0416 90.5611C82.8593 90.929 82.7682 91.3234 82.7682 91.7443V92.4205C82.7682 92.9972 82.8676 93.486 83.0665 93.8871C83.2687 94.2848 83.5487 94.5881 83.9067 94.7969C84.2646 95.0024 84.6806 95.1051 85.1546 95.1051C85.4628 95.1051 85.7412 95.062 85.9898 94.9759C86.2417 94.8864 86.4588 94.7538 86.6411 94.5781C86.8234 94.3991 86.9642 94.1771 87.0636 93.9119L88.1972 94.2301C88.0778 94.6146 87.8773 94.9527 87.5956 95.2443C87.3139 95.5327 86.9659 95.758 86.5516 95.9205C86.1373 96.0795 85.6716 96.1591 85.1546 96.1591ZM91.4146 85.8182V96H90.2413V85.8182H91.4146Z" fill="#1A1B1F" fill-opacity="0.7"/>
<rect x="412" y="48" width="16" height="16" rx="8" fill="#924F92"/>
<path d="M416.622 58.3807V57.1236L420.325 51.2727H421.373V53.0625H420.734L418.241 57.0128V57.081H423.41V58.3807H416.622ZM420.785 60V57.9972L420.802 57.4347V51.2727H422.294V60H420.785Z" fill="#FFF5FF"/>
<path d="M440.47 48.2197C440.177 48.5126 440.177 48.9874 440.47 49.2803L447.189 56L440.47 62.7197C440.177 63.0126 440.177 63.4874 440.47 63.7803C440.763 64.0732 441.237 64.0732 441.53 63.7803L448.78 56.5303C449.073 56.2374 449.073 55.7626 448.78 55.4697L441.53 48.2197C441.237 47.9268 440.763 47.9268 440.47 48.2197Z" fill="#878B92"/>
</svg>
