<svg width="208" height="24" viewBox="0 0 208 24" fill="none" xmlns="http://www.w3.org/2000/svg">
<rect width="40" height="24" rx="12" fill="white"/>
<rect x="2" y="2" width="20" height="20" rx="10" fill="#1A1B1F"/>
<path d="M6.39705 6.55379L6.46967 6.46967C6.73594 6.2034 7.1526 6.1792 7.44621 6.39705L7.53033 6.46967L12 10.939L16.4697 6.46967C16.7626 6.17678 17.2374 6.17678 17.5303 6.46967C17.8232 6.76256 17.8232 7.23744 17.5303 7.53033L13.061 12L17.5303 16.4697C17.7966 16.7359 17.8208 17.1526 17.6029 17.4462L17.5303 17.5303C17.2641 17.7966 16.8474 17.8208 16.5538 17.6029L16.4697 17.5303L12 13.061L7.53033 17.5303C7.23744 17.8232 6.76256 17.8232 6.46967 17.5303C6.17678 17.2374 6.17678 16.7626 6.46967 16.4697L10.939 12L6.46967 7.53033C6.2034 7.26406 6.1792 6.8474 6.39705 6.55379L6.46967 6.46967L6.39705 6.55379Z" fill="#EBEFF4"/>
<rect x="56" width="40" height="24" rx="12" fill="#0052D6"/>
<rect x="74" y="2" width="20" height="20" rx="10" fill="white"/>
<path d="M90.0458 7.4856C90.3299 7.78703 90.3158 8.26169 90.0144 8.54579L82.0846 16.0197C81.7483 16.3366 81.2204 16.3269 80.8961 15.9977L78.2158 13.2774C77.925 12.9823 77.9286 12.5075 78.2236 12.2167C78.5187 11.926 78.9935 11.9295 79.2842 12.2246L81.5184 14.4921L88.9856 7.45421C89.287 7.17011 89.7617 7.18416 90.0458 7.4856Z" fill="#0052D6"/>
<rect x="112" width="40" height="24" rx="12" fill="#1A1B1F" fill-opacity="0.06"/>
<rect x="114" y="2" width="20" height="20" rx="10" fill="#1A1B1F" fill-opacity="0.38"/>
<path d="M118.397 6.55379L118.47 6.46967C118.736 6.2034 119.153 6.1792 119.446 6.39705L119.53 6.46967L124 10.939L128.47 6.46967C128.763 6.17678 129.237 6.17678 129.53 6.46967C129.823 6.76256 129.823 7.23744 129.53 7.53033L125.061 12L129.53 16.4697C129.797 16.7359 129.821 17.1526 129.603 17.4462L129.53 17.5303C129.264 17.7966 128.847 17.8208 128.554 17.6029L128.47 17.5303L124 13.061L119.53 17.5303C119.237 17.8232 118.763 17.8232 118.47 17.5303C118.177 17.2374 118.177 16.7626 118.47 16.4697L122.939 12L118.47 7.53033C118.203 7.26406 118.179 6.8474 118.397 6.55379L118.47 6.46967L118.397 6.55379Z" fill="#EAECF0" fill-opacity="0.85"/>
<rect x="168" width="40" height="24" rx="12" fill="#1A1B1F" fill-opacity="0.06"/>
<rect x="186" y="2" width="20" height="20" rx="10" fill="#1A1B1F" fill-opacity="0.38"/>
<path d="M202.046 7.4856C202.33 7.78703 202.316 8.26169 202.014 8.54579L194.085 16.0197C193.748 16.3366 193.22 16.3269 192.896 15.9977L190.216 13.2774C189.925 12.9823 189.929 12.5075 190.224 12.2167C190.519 11.926 190.994 11.9295 191.284 12.2246L193.518 14.4921L200.986 7.45421C201.287 7.17011 201.762 7.18416 202.046 7.4856Z" fill="#EAECF0" fill-opacity="0.85"/>
</svg>
