<svg width="215" height="32" viewBox="0 0 215 32" fill="none" xmlns="http://www.w3.org/2000/svg">
<path d="M16.6364 12.1307V10.3636H25.9205V12.1307H22.3239V22H20.233V12.1307H16.6364ZM28.9432 22.1761C28.3902 22.1761 27.892 22.0777 27.4489 21.8807C27.0095 21.6799 26.661 21.3845 26.4034 20.9943C26.1496 20.6042 26.0227 20.1231 26.0227 19.5511C26.0227 19.0587 26.1136 18.6515 26.2955 18.3295C26.4773 18.0076 26.7254 17.75 27.0398 17.5568C27.3542 17.3636 27.7083 17.2178 28.1023 17.1193C28.5 17.017 28.911 16.9432 29.3352 16.8977C29.8466 16.8447 30.2614 16.7973 30.5795 16.7557C30.8977 16.7102 31.1288 16.642 31.2727 16.5511C31.4205 16.4564 31.4943 16.3106 31.4943 16.1136V16.0795C31.4943 15.6515 31.3674 15.3201 31.1136 15.0852C30.8598 14.8504 30.4943 14.733 30.017 14.733C29.5133 14.733 29.1136 14.8428 28.8182 15.0625C28.5265 15.2822 28.3295 15.5417 28.2273 15.8409L26.3068 15.5682C26.4583 15.0379 26.7083 14.5947 27.0568 14.2386C27.4053 13.8788 27.8314 13.6098 28.3352 13.4318C28.839 13.25 29.3958 13.1591 30.0057 13.1591C30.4261 13.1591 30.8447 13.2083 31.2614 13.3068C31.678 13.4053 32.0587 13.5682 32.4034 13.7955C32.7481 14.0189 33.0246 14.3239 33.233 14.7102C33.4451 15.0966 33.5511 15.5795 33.5511 16.1591V22H31.5739V20.8011H31.5057C31.3807 21.0436 31.2045 21.2708 30.9773 21.483C30.7538 21.6913 30.4716 21.8598 30.1307 21.9886C29.7936 22.1136 29.3977 22.1761 28.9432 22.1761ZM29.4773 20.6648C29.8902 20.6648 30.2481 20.5833 30.5511 20.4205C30.8542 20.2538 31.0871 20.0341 31.25 19.7614C31.4167 19.4886 31.5 19.1913 31.5 18.8693V17.8409C31.4356 17.8939 31.3258 17.9432 31.1705 17.9886C31.0189 18.0341 30.8485 18.0739 30.6591 18.108C30.4697 18.142 30.2822 18.1723 30.0966 18.1989C29.911 18.2254 29.75 18.2481 29.6136 18.267C29.3068 18.3087 29.0322 18.3769 28.7898 18.4716C28.5473 18.5663 28.3561 18.6989 28.2159 18.8693C28.0758 19.036 28.0057 19.2519 28.0057 19.517C28.0057 19.8958 28.1439 20.1818 28.4205 20.375C28.697 20.5682 29.0492 20.6648 29.4773 20.6648ZM35.7102 22V10.3636H37.767V14.7159H37.8523C37.9583 14.5038 38.108 14.2784 38.3011 14.0398C38.4943 13.7973 38.7557 13.5909 39.0852 13.4205C39.4148 13.2462 39.8352 13.1591 40.3466 13.1591C41.0208 13.1591 41.6288 13.3314 42.1705 13.6761C42.7159 14.017 43.1477 14.5227 43.4659 15.1932C43.7879 15.8598 43.9489 16.678 43.9489 17.6477C43.9489 18.6061 43.7917 19.4205 43.4773 20.0909C43.1629 20.7614 42.7348 21.2727 42.1932 21.625C41.6515 21.9773 41.0379 22.1534 40.3523 22.1534C39.8523 22.1534 39.4375 22.0701 39.108 21.9034C38.7784 21.7367 38.5133 21.536 38.3125 21.3011C38.1155 21.0625 37.9621 20.8371 37.8523 20.625H37.733V22H35.7102ZM37.7273 17.6364C37.7273 18.2008 37.8068 18.6951 37.9659 19.1193C38.1288 19.5436 38.3617 19.875 38.6648 20.1136C38.9716 20.3485 39.3428 20.4659 39.7784 20.4659C40.233 20.4659 40.6136 20.3447 40.9205 20.1023C41.2273 19.8561 41.4583 19.5208 41.6136 19.0966C41.7727 18.6686 41.8523 18.1818 41.8523 17.6364C41.8523 17.0947 41.7746 16.6136 41.6193 16.1932C41.464 15.7727 41.233 15.4432 40.9261 15.2045C40.6193 14.9659 40.2367 14.8466 39.7784 14.8466C39.339 14.8466 38.9659 14.9621 38.6591 15.1932C38.3523 15.4242 38.1193 15.7481 37.9602 16.1648C37.8049 16.5814 37.7273 17.072 37.7273 17.6364Z" fill="#1A1B1F"/>
<rect x="77" width="61" height="32" rx="16" fill="#F0F2F5"/>
<path d="M93.6364 12.1307V10.3636H102.92V12.1307H99.3239V22H97.233V12.1307H93.6364ZM105.943 22.1761C105.39 22.1761 104.892 22.0777 104.449 21.8807C104.009 21.6799 103.661 21.3845 103.403 20.9943C103.15 20.6042 103.023 20.1231 103.023 19.5511C103.023 19.0587 103.114 18.6515 103.295 18.3295C103.477 18.0076 103.725 17.75 104.04 17.5568C104.354 17.3636 104.708 17.2178 105.102 17.1193C105.5 17.017 105.911 16.9432 106.335 16.8977C106.847 16.8447 107.261 16.7973 107.58 16.7557C107.898 16.7102 108.129 16.642 108.273 16.5511C108.42 16.4564 108.494 16.3106 108.494 16.1136V16.0795C108.494 15.6515 108.367 15.3201 108.114 15.0852C107.86 14.8504 107.494 14.733 107.017 14.733C106.513 14.733 106.114 14.8428 105.818 15.0625C105.527 15.2822 105.33 15.5417 105.227 15.8409L103.307 15.5682C103.458 15.0379 103.708 14.5947 104.057 14.2386C104.405 13.8788 104.831 13.6098 105.335 13.4318C105.839 13.25 106.396 13.1591 107.006 13.1591C107.426 13.1591 107.845 13.2083 108.261 13.3068C108.678 13.4053 109.059 13.5682 109.403 13.7955C109.748 14.0189 110.025 14.3239 110.233 14.7102C110.445 15.0966 110.551 15.5795 110.551 16.1591V22H108.574V20.8011H108.506C108.381 21.0436 108.205 21.2708 107.977 21.483C107.754 21.6913 107.472 21.8598 107.131 21.9886C106.794 22.1136 106.398 22.1761 105.943 22.1761ZM106.477 20.6648C106.89 20.6648 107.248 20.5833 107.551 20.4205C107.854 20.2538 108.087 20.0341 108.25 19.7614C108.417 19.4886 108.5 19.1913 108.5 18.8693V17.8409C108.436 17.8939 108.326 17.9432 108.17 17.9886C108.019 18.0341 107.848 18.0739 107.659 18.108C107.47 18.142 107.282 18.1723 107.097 18.1989C106.911 18.2254 106.75 18.2481 106.614 18.267C106.307 18.3087 106.032 18.3769 105.79 18.4716C105.547 18.5663 105.356 18.6989 105.216 18.8693C105.076 19.036 105.006 19.2519 105.006 19.517C105.006 19.8958 105.144 20.1818 105.42 20.375C105.697 20.5682 106.049 20.6648 106.477 20.6648ZM112.71 22V10.3636H114.767V14.7159H114.852C114.958 14.5038 115.108 14.2784 115.301 14.0398C115.494 13.7973 115.756 13.5909 116.085 13.4205C116.415 13.2462 116.835 13.1591 117.347 13.1591C118.021 13.1591 118.629 13.3314 119.17 13.6761C119.716 14.017 120.148 14.5227 120.466 15.1932C120.788 15.8598 120.949 16.678 120.949 17.6477C120.949 18.6061 120.792 19.4205 120.477 20.0909C120.163 20.7614 119.735 21.2727 119.193 21.625C118.652 21.9773 118.038 22.1534 117.352 22.1534C116.852 22.1534 116.438 22.0701 116.108 21.9034C115.778 21.7367 115.513 21.536 115.312 21.3011C115.116 21.0625 114.962 20.8371 114.852 20.625H114.733V22H112.71ZM114.727 17.6364C114.727 18.2008 114.807 18.6951 114.966 19.1193C115.129 19.5436 115.362 19.875 115.665 20.1136C115.972 20.3485 116.343 20.4659 116.778 20.4659C117.233 20.4659 117.614 20.3447 117.92 20.1023C118.227 19.8561 118.458 19.5208 118.614 19.0966C118.773 18.6686 118.852 18.1818 118.852 17.6364C118.852 17.0947 118.775 16.6136 118.619 16.1932C118.464 15.7727 118.233 15.4432 117.926 15.2045C117.619 14.9659 117.237 14.8466 116.778 14.8466C116.339 14.8466 115.966 14.9621 115.659 15.1932C115.352 15.4242 115.119 15.7481 114.96 16.1648C114.805 16.5814 114.727 17.072 114.727 17.6364Z" fill="#1A1B1F"/>
<rect x="154" width="61" height="32" rx="16" fill="#4D80B3"/>
<path d="M170.636 12.1307V10.3636H179.92V12.1307H176.324V22H174.233V12.1307H170.636ZM182.943 22.1761C182.39 22.1761 181.892 22.0777 181.449 21.8807C181.009 21.6799 180.661 21.3845 180.403 20.9943C180.15 20.6042 180.023 20.1231 180.023 19.5511C180.023 19.0587 180.114 18.6515 180.295 18.3295C180.477 18.0076 180.725 17.75 181.04 17.5568C181.354 17.3636 181.708 17.2178 182.102 17.1193C182.5 17.017 182.911 16.9432 183.335 16.8977C183.847 16.8447 184.261 16.7973 184.58 16.7557C184.898 16.7102 185.129 16.642 185.273 16.5511C185.42 16.4564 185.494 16.3106 185.494 16.1136V16.0795C185.494 15.6515 185.367 15.3201 185.114 15.0852C184.86 14.8504 184.494 14.733 184.017 14.733C183.513 14.733 183.114 14.8428 182.818 15.0625C182.527 15.2822 182.33 15.5417 182.227 15.8409L180.307 15.5682C180.458 15.0379 180.708 14.5947 181.057 14.2386C181.405 13.8788 181.831 13.6098 182.335 13.4318C182.839 13.25 183.396 13.1591 184.006 13.1591C184.426 13.1591 184.845 13.2083 185.261 13.3068C185.678 13.4053 186.059 13.5682 186.403 13.7955C186.748 14.0189 187.025 14.3239 187.233 14.7102C187.445 15.0966 187.551 15.5795 187.551 16.1591V22H185.574V20.8011H185.506C185.381 21.0436 185.205 21.2708 184.977 21.483C184.754 21.6913 184.472 21.8598 184.131 21.9886C183.794 22.1136 183.398 22.1761 182.943 22.1761ZM183.477 20.6648C183.89 20.6648 184.248 20.5833 184.551 20.4205C184.854 20.2538 185.087 20.0341 185.25 19.7614C185.417 19.4886 185.5 19.1913 185.5 18.8693V17.8409C185.436 17.8939 185.326 17.9432 185.17 17.9886C185.019 18.0341 184.848 18.0739 184.659 18.108C184.47 18.142 184.282 18.1723 184.097 18.1989C183.911 18.2254 183.75 18.2481 183.614 18.267C183.307 18.3087 183.032 18.3769 182.79 18.4716C182.547 18.5663 182.356 18.6989 182.216 18.8693C182.076 19.036 182.006 19.2519 182.006 19.517C182.006 19.8958 182.144 20.1818 182.42 20.375C182.697 20.5682 183.049 20.6648 183.477 20.6648ZM189.71 22V10.3636H191.767V14.7159H191.852C191.958 14.5038 192.108 14.2784 192.301 14.0398C192.494 13.7973 192.756 13.5909 193.085 13.4205C193.415 13.2462 193.835 13.1591 194.347 13.1591C195.021 13.1591 195.629 13.3314 196.17 13.6761C196.716 14.017 197.148 14.5227 197.466 15.1932C197.788 15.8598 197.949 16.678 197.949 17.6477C197.949 18.6061 197.792 19.4205 197.477 20.0909C197.163 20.7614 196.735 21.2727 196.193 21.625C195.652 21.9773 195.038 22.1534 194.352 22.1534C193.852 22.1534 193.438 22.0701 193.108 21.9034C192.778 21.7367 192.513 21.536 192.312 21.3011C192.116 21.0625 191.962 20.8371 191.852 20.625H191.733V22H189.71ZM191.727 17.6364C191.727 18.2008 191.807 18.6951 191.966 19.1193C192.129 19.5436 192.362 19.875 192.665 20.1136C192.972 20.3485 193.343 20.4659 193.778 20.4659C194.233 20.4659 194.614 20.3447 194.92 20.1023C195.227 19.8561 195.458 19.5208 195.614 19.0966C195.773 18.6686 195.852 18.1818 195.852 17.6364C195.852 17.0947 195.775 16.6136 195.619 16.1932C195.464 15.7727 195.233 15.4432 194.926 15.2045C194.619 14.9659 194.237 14.8466 193.778 14.8466C193.339 14.8466 192.966 14.9621 192.659 15.1932C192.352 15.4242 192.119 15.7481 191.96 16.1648C191.805 16.5814 191.727 17.072 191.727 17.6364Z" fill="#F0F7FF"/>
</svg>
