<svg width="608" height="58" viewBox="0 0 608 58" fill="none" xmlns="http://www.w3.org/2000/svg">
<path d="M0.579545 3.21023V2.27273H7.125V3.21023H4.38068V11H3.32386V3.21023H0.579545ZM8.73967 11V4.45455H9.74536V11H8.73967ZM9.25104 3.36364C9.05501 3.36364 8.88598 3.29687 8.74393 3.16335C8.60473 3.02983 8.53513 2.86932 8.53513 2.68182C8.53513 2.49432 8.60473 2.33381 8.74393 2.20028C8.88598 2.06676 9.05501 2 9.25104 2C9.44706 2 9.61467 2.06676 9.75388 2.20028C9.89592 2.33381 9.96695 2.49432 9.96695 2.68182C9.96695 2.86932 9.89592 3.02983 9.75388 3.16335C9.61467 3.29687 9.44706 3.36364 9.25104 3.36364ZM14.5539 4.45455V5.30682H11.1619V4.45455H14.5539ZM12.1505 2.88636H13.1562V9.125C13.1562 9.40909 13.1974 9.62216 13.2798 9.7642C13.365 9.90341 13.473 9.99716 13.6036 10.0455C13.7372 10.0909 13.8778 10.1136 14.0255 10.1136C14.1363 10.1136 14.2272 10.108 14.2982 10.0966C14.3693 10.0824 14.4261 10.071 14.4687 10.0625L14.6732 10.9659C14.6051 10.9915 14.5099 11.017 14.3877 11.0426C14.2656 11.071 14.1107 11.0852 13.9232 11.0852C13.6391 11.0852 13.3607 11.0241 13.088 10.902C12.8181 10.7798 12.5937 10.5938 12.4147 10.3438C12.2386 10.0938 12.1505 9.77841 12.1505 9.39773V2.88636ZM17.333 2.27273V11H16.3273V2.27273H17.333ZM22.0393 11.1364C21.4086 11.1364 20.8646 10.9972 20.4072 10.7188C19.9527 10.4375 19.6018 10.0455 19.3546 9.54261C19.1103 9.03693 18.9882 8.44886 18.9882 7.77841C18.9882 7.10795 19.1103 6.51705 19.3546 6.00568C19.6018 5.49148 19.9456 5.09091 20.3859 4.80398C20.8291 4.5142 21.3461 4.36932 21.937 4.36932C22.2779 4.36932 22.6146 4.42614 22.947 4.53977C23.2794 4.65341 23.5819 4.83807 23.8546 5.09375C24.1274 5.34659 24.3447 5.68182 24.5066 6.09943C24.6686 6.51705 24.7495 7.03125 24.7495 7.64205V8.06818H19.7041V7.19886H23.7268C23.7268 6.82955 23.6529 6.5 23.5052 6.21023C23.3603 5.92045 23.1529 5.69176 22.8831 5.52415C22.616 5.35653 22.3007 5.27273 21.937 5.27273C21.5365 5.27273 21.1899 5.37216 20.8973 5.57102C20.6075 5.76705 20.3845 6.02273 20.2282 6.33807C20.072 6.65341 19.9938 6.99148 19.9938 7.35227V7.93182C19.9938 8.42614 20.0791 8.84517 20.2495 9.18892C20.4228 9.52983 20.6629 9.78977 20.9697 9.96875C21.2765 10.1449 21.6331 10.233 22.0393 10.233C22.3035 10.233 22.5421 10.196 22.7552 10.1222C22.9711 10.0455 23.1572 9.93182 23.3135 9.78125C23.4697 9.62784 23.5904 9.4375 23.6757 9.21023L24.6473 9.48295C24.545 9.8125 24.3731 10.1023 24.1316 10.3523C23.8902 10.5994 23.5919 10.7926 23.2367 10.9318C22.8816 11.0682 22.4825 11.1364 22.0393 11.1364Z" fill="#1A1B1F" fill-opacity="0.7"/>
<path d="M6 23C3.79086 23 2 24.7909 2 27C2 29.2091 3.79086 31 6 31C8.20914 31 10 29.2091 10 27C10 24.7909 8.20914 23 6 23ZM1 27C1 24.2386 3.23858 22 6 22C8.76142 22 11 24.2386 11 27C11 29.7614 8.76142 32 6 32C3.23858 32 1 29.7614 1 27Z" fill="#878B92"/>
<path d="M17.233 32V21.8182H23.3381V22.9119H18.4659V26.3523H22.8807V27.446H18.4659V32H17.233ZM25.3486 32V24.3636H26.4822V25.517H26.5617C26.7009 25.1392 26.9528 24.8326 27.3174 24.5973C27.682 24.362 28.0929 24.2443 28.5503 24.2443C28.6365 24.2443 28.7442 24.246 28.8735 24.2493C29.0027 24.2526 29.1005 24.2576 29.1668 24.2642V25.4574C29.127 25.4474 29.0359 25.4325 28.8934 25.4126C28.7542 25.3894 28.6067 25.3778 28.4509 25.3778C28.0797 25.3778 27.7483 25.4557 27.4566 25.6115C27.1682 25.764 26.9395 25.9761 26.7705 26.2479C26.6048 26.5163 26.5219 26.8229 26.5219 27.1676V32H25.3486ZM30.6976 32V24.3636H31.8709V32H30.6976ZM31.2942 23.0909C31.0655 23.0909 30.8683 23.013 30.7026 22.8572C30.5402 22.7015 30.459 22.5142 30.459 22.2955C30.459 22.0767 30.5402 21.8894 30.7026 21.7337C30.8683 21.5779 31.0655 21.5 31.2942 21.5C31.5229 21.5 31.7184 21.5779 31.8809 21.7337C32.0466 21.8894 32.1294 22.0767 32.1294 22.2955C32.1294 22.5142 32.0466 22.7015 31.8809 22.8572C31.7184 23.013 31.5229 23.0909 31.2942 23.0909ZM37.0434 32.1591C36.407 32.1591 35.8452 31.9983 35.358 31.6768C34.8708 31.352 34.4897 30.8946 34.2146 30.3047C33.9395 29.7114 33.8019 29.0104 33.8019 28.2017C33.8019 27.3996 33.9395 26.7036 34.2146 26.1136C34.4897 25.5237 34.8725 25.0679 35.363 24.7464C35.8535 24.425 36.4203 24.2642 37.0633 24.2642C37.5604 24.2642 37.9532 24.3471 38.2416 24.5128C38.5332 24.6752 38.7553 24.8608 38.9077 25.0696C39.0635 25.2751 39.1845 25.4441 39.2707 25.5767H39.3701V21.8182H40.5434V32H39.4099V30.8267H39.2707C39.1845 30.9659 39.0619 31.1416 38.9028 31.3537C38.7437 31.5625 38.5167 31.7498 38.2217 31.9155C37.9267 32.0779 37.5339 32.1591 37.0434 32.1591ZM37.2025 31.1051C37.6731 31.1051 38.0709 30.9825 38.3957 30.7372C38.7205 30.4886 38.9674 30.1456 39.1364 29.7081C39.3055 29.2673 39.39 28.7585 39.39 28.1818C39.39 27.6117 39.3071 27.1129 39.1414 26.6854C38.9757 26.2545 38.7304 25.9197 38.4056 25.6811C38.0808 25.4392 37.6798 25.3182 37.2025 25.3182C36.7053 25.3182 36.291 25.4458 35.9596 25.701C35.6315 25.9529 35.3845 26.2959 35.2188 26.7301C35.0564 27.161 34.9752 27.6449 34.9752 28.1818C34.9752 28.7254 35.0581 29.2192 35.2238 29.6634C35.3928 30.1042 35.6414 30.4555 35.9695 30.7173C36.301 30.9759 36.712 31.1051 37.2025 31.1051ZM45.2424 32.179C44.7584 32.179 44.3193 32.0878 43.9249 31.9055C43.5305 31.7199 43.2173 31.4531 42.9852 31.1051C42.7532 30.7538 42.6372 30.3295 42.6372 29.8324C42.6372 29.3949 42.7234 29.0402 42.8958 28.7685C43.0681 28.4934 43.2985 28.2779 43.5868 28.1222C43.8752 27.9664 44.1933 27.8504 44.5414 27.7741C44.8927 27.6946 45.2457 27.6316 45.6003 27.5852C46.0643 27.5256 46.4405 27.4808 46.7289 27.451C47.0205 27.4179 47.2326 27.3632 47.3652 27.2869C47.5011 27.2107 47.5691 27.0781 47.5691 26.8892V26.8494C47.5691 26.3589 47.4348 25.9777 47.1664 25.706C46.9012 25.4342 46.4985 25.2983 45.9583 25.2983C45.3981 25.2983 44.959 25.4209 44.6408 25.6662C44.3226 25.9115 44.0989 26.1733 43.9696 26.4517L42.856 26.054C43.0549 25.59 43.32 25.2287 43.6514 24.9702C43.9862 24.7083 44.3508 24.526 44.7452 24.4233C45.1429 24.3172 45.534 24.2642 45.9185 24.2642C46.1638 24.2642 46.4455 24.294 46.7637 24.3537C47.0852 24.41 47.395 24.5277 47.6933 24.7067C47.995 24.8857 48.2452 25.1558 48.4441 25.517C48.6429 25.8783 48.7424 26.3622 48.7424 26.9688V32H47.5691V30.9659H47.5094C47.4299 31.1316 47.2973 31.3089 47.1117 31.4979C46.9261 31.6868 46.6791 31.8475 46.3709 31.9801C46.0627 32.1127 45.6865 32.179 45.2424 32.179ZM45.4213 31.125C45.8853 31.125 46.2764 31.0339 46.5946 30.8516C46.9161 30.6693 47.1581 30.4339 47.3205 30.1456C47.4862 29.8572 47.5691 29.554 47.5691 29.2358V28.1619C47.5193 28.2216 47.41 28.2763 47.2409 28.326C47.0752 28.3724 46.883 28.4138 46.6642 28.4503C46.4488 28.4834 46.2383 28.5133 46.0328 28.5398C45.8307 28.563 45.6666 28.5829 45.5406 28.5994C45.2357 28.6392 44.9507 28.7038 44.6855 28.7933C44.4237 28.8795 44.2116 29.0104 44.0492 29.1861C43.8901 29.3584 43.8105 29.5937 43.8105 29.892C43.8105 30.2997 43.9613 30.608 44.2629 30.8168C44.5679 31.0223 44.954 31.125 45.4213 31.125ZM51.5061 34.8636C51.3072 34.8636 51.1299 34.8471 50.9741 34.8139C50.8184 34.7841 50.7107 34.7543 50.651 34.7244L50.9493 33.6903C51.2343 33.7633 51.4862 33.7898 51.705 33.7699C51.9237 33.75 52.1176 33.6522 52.2866 33.4766C52.459 33.3042 52.6164 33.0241 52.7589 32.6364L52.9777 32.0398L50.1538 24.3636H51.4266L53.5345 30.4489H53.6141L55.722 24.3636H56.9947L53.7533 33.1136C53.6074 33.508 53.4268 33.8345 53.2114 34.093C52.9959 34.3549 52.7457 34.5488 52.4607 34.6747C52.1789 34.8007 51.8607 34.8636 51.5061 34.8636ZM59.9549 30.608L59.8753 31.1449C59.819 31.5227 59.7328 31.9271 59.6168 32.358C59.5041 32.7888 59.3865 33.1948 59.2638 33.576C59.1412 33.9571 59.0401 34.2604 58.9606 34.4858H58.0657C58.1088 34.2737 58.1651 33.9936 58.2347 33.6456C58.3043 33.2976 58.3739 32.9081 58.4435 32.4773C58.5164 32.0497 58.5761 31.6122 58.6225 31.1648L58.6822 30.608H59.9549ZM69.707 32.1392C69.2894 32.1326 68.8718 32.053 68.4542 31.9006C68.0365 31.7481 67.6554 31.4912 67.3107 31.13C66.966 30.7654 66.6892 30.2732 66.4804 29.6534C66.2716 29.0303 66.1672 28.2481 66.1672 27.3068C66.1672 26.4053 66.2517 25.6065 66.4208 24.9105C66.5898 24.2112 66.8351 23.6229 67.1566 23.1456C67.4781 22.665 67.8659 22.3004 68.3199 22.0518C68.7773 21.8033 69.2927 21.679 69.8661 21.679C70.4362 21.679 70.9433 21.7933 71.3874 22.022C71.8348 22.2474 72.1994 22.5623 72.4812 22.9666C72.7629 23.371 72.9452 23.8366 73.028 24.3636H71.815C71.7023 23.9062 71.4835 23.5268 71.1587 23.2251C70.8339 22.9235 70.403 22.7727 69.8661 22.7727C69.0773 22.7727 68.4558 23.1158 68.0017 23.8018C67.551 24.4879 67.324 25.4508 67.3206 26.6903H67.4002C67.5858 26.4086 67.8062 26.1683 68.0614 25.9695C68.3199 25.7673 68.605 25.6115 68.9165 25.5021C69.2281 25.3928 69.5579 25.3381 69.9059 25.3381C70.4892 25.3381 71.0228 25.4839 71.5067 25.7756C71.9906 26.0639 72.3784 26.4633 72.6701 26.9737C72.9617 27.4808 73.1076 28.0625 73.1076 28.7188C73.1076 29.3485 72.9667 29.9252 72.685 30.4489C72.4033 30.9692 72.0072 31.3835 71.4968 31.6918C70.9897 31.9967 70.3931 32.1458 69.707 32.1392ZM69.707 31.0455C70.1246 31.0455 70.4991 30.9411 70.8306 30.7322C71.1653 30.5234 71.4288 30.2434 71.6211 29.892C71.8166 29.5407 71.9144 29.1496 71.9144 28.7188C71.9144 28.2978 71.8199 27.915 71.631 27.5703C71.4454 27.2223 71.1885 26.9455 70.8604 26.7401C70.5356 26.5346 70.1644 26.4318 69.7468 26.4318C69.4319 26.4318 69.1386 26.4948 68.8668 26.6207C68.595 26.7434 68.3564 26.9124 68.1509 27.1278C67.9487 27.3433 67.7896 27.5902 67.6736 27.8686C67.5576 28.1437 67.4996 28.4337 67.4996 28.7386C67.4996 29.143 67.5941 29.5208 67.783 29.8722C67.9752 30.2235 68.2371 30.5069 68.5685 30.7223C68.9033 30.9377 69.2828 31.0455 69.707 31.0455ZM79.8767 32H78.5841L82.3228 21.8182H83.5955L87.3341 32H86.0415L82.9989 23.429H82.9194L79.8767 32ZM80.354 28.0227H85.5642V29.1165H80.354V28.0227ZM93.7135 28.8778V24.3636H94.8868V32H93.7135V30.7074H93.6339C93.455 31.0952 93.1765 31.425 92.7987 31.6967C92.4209 31.9652 91.9436 32.0994 91.3669 32.0994C90.8896 32.0994 90.4654 31.995 90.0942 31.7862C89.7229 31.5741 89.4313 31.2559 89.2192 30.8317C89.007 30.4041 88.901 29.8655 88.901 29.2159V24.3636H90.0743V29.1364C90.0743 29.6932 90.23 30.1373 90.5416 30.4688C90.8565 30.8002 91.2575 30.9659 91.7447 30.9659C92.0364 30.9659 92.333 30.8913 92.6346 30.7422C92.9396 30.593 93.1948 30.3643 93.4003 30.0561C93.6091 29.7479 93.7135 29.3551 93.7135 28.8778ZM100.258 35.0227C99.6914 35.0227 99.2041 34.9498 98.7965 34.804C98.3888 34.6615 98.0491 34.4725 97.7773 34.2372C97.5088 34.0052 97.2951 33.7566 97.136 33.4915L98.0706 32.8352C98.1767 32.9744 98.3109 33.1335 98.4733 33.3125C98.6357 33.4948 98.8578 33.6522 99.1395 33.7848C99.4246 33.9207 99.7974 33.9886 100.258 33.9886C100.875 33.9886 101.383 33.8395 101.784 33.5412C102.185 33.2429 102.386 32.7756 102.386 32.1392V30.5881H102.287C102.2 30.7273 102.078 30.8996 101.919 31.1051C101.763 31.3073 101.537 31.4879 101.243 31.647C100.951 31.8028 100.556 31.8807 100.059 31.8807C99.4428 31.8807 98.8893 31.7348 98.3988 31.4432C97.9115 31.1515 97.5254 30.7273 97.2404 30.1705C96.9586 29.6136 96.8178 28.9375 96.8178 28.142C96.8178 27.3598 96.9553 26.6787 97.2304 26.0987C97.5055 25.5154 97.8883 25.0646 98.3789 24.7464C98.8694 24.425 99.4362 24.2642 100.079 24.2642C100.576 24.2642 100.971 24.3471 101.262 24.5128C101.557 24.6752 101.783 24.8608 101.939 25.0696C102.098 25.2751 102.22 25.4441 102.306 25.5767H102.426V24.3636H103.559V32.2188C103.559 32.875 103.41 33.4086 103.112 33.8196C102.817 34.2339 102.419 34.5372 101.919 34.7294C101.421 34.925 100.868 35.0227 100.258 35.0227ZM100.218 30.8267C100.689 30.8267 101.087 30.719 101.412 30.5036C101.736 30.2881 101.983 29.9782 102.152 29.5739C102.321 29.1695 102.406 28.6856 102.406 28.1222C102.406 27.572 102.323 27.0864 102.157 26.6655C101.992 26.2446 101.746 25.9148 101.421 25.6761C101.097 25.4375 100.696 25.3182 100.218 25.3182C99.7212 25.3182 99.3069 25.4441 98.9755 25.696C98.6473 25.9479 98.4004 26.286 98.2347 26.7102C98.0723 27.1345 97.9911 27.6051 97.9911 28.1222C97.9911 28.6525 98.0739 29.1214 98.2397 29.5291C98.4087 29.9335 98.6573 30.2517 98.9854 30.4837C99.3168 30.7124 99.7278 30.8267 100.218 30.8267ZM109.905 32V31.1051L113.265 27.4261C113.66 26.9953 113.985 26.6207 114.24 26.3026C114.495 25.9811 114.684 25.6795 114.807 25.3977C114.933 25.1127 114.996 24.8144 114.996 24.5028C114.996 24.1449 114.909 23.835 114.737 23.5732C114.568 23.3113 114.336 23.1091 114.041 22.9666C113.746 22.8241 113.415 22.7528 113.047 22.7528C112.656 22.7528 112.314 22.834 112.022 22.9964C111.734 23.1555 111.51 23.3793 111.351 23.6676C111.196 23.956 111.118 24.294 111.118 24.6818H109.944C109.944 24.0852 110.082 23.5616 110.357 23.1108C110.632 22.66 111.007 22.3087 111.481 22.0568C111.958 21.8049 112.493 21.679 113.086 21.679C113.683 21.679 114.212 21.8049 114.672 22.0568C115.133 22.3087 115.494 22.6484 115.756 23.076C116.018 23.5036 116.149 23.9792 116.149 24.5028C116.149 24.8774 116.081 25.2436 115.945 25.6016C115.813 25.9562 115.581 26.3523 115.249 26.7898C114.921 27.224 114.465 27.7543 113.882 28.3807L111.595 30.8267V30.9062H116.328V32H109.905ZM121.842 32.1392C121.093 32.1392 120.455 31.9354 119.928 31.5277C119.401 31.1167 118.998 30.5218 118.72 29.7429C118.442 28.9607 118.302 28.0161 118.302 26.9091C118.302 25.8087 118.442 24.8691 118.72 24.0902C119.002 23.308 119.406 22.7114 119.933 22.3004C120.463 21.8861 121.1 21.679 121.842 21.679C122.585 21.679 123.219 21.8861 123.746 22.3004C124.277 22.7114 124.681 23.308 124.959 24.0902C125.241 24.8691 125.382 25.8087 125.382 26.9091C125.382 28.0161 125.243 28.9607 124.964 29.7429C124.686 30.5218 124.283 31.1167 123.756 31.5277C123.229 31.9354 122.591 32.1392 121.842 32.1392ZM121.842 31.0455C122.585 31.0455 123.161 30.6875 123.572 29.9716C123.983 29.2557 124.189 28.2348 124.189 26.9091C124.189 26.0275 124.094 25.2768 123.905 24.657C123.72 24.0372 123.451 23.5649 123.1 23.2401C122.752 22.9152 122.333 22.7528 121.842 22.7528C121.106 22.7528 120.531 23.1158 120.117 23.8416C119.703 24.5642 119.496 25.5866 119.496 26.9091C119.496 27.7907 119.588 28.5398 119.774 29.1562C119.96 29.7727 120.226 30.2417 120.574 30.5632C120.926 30.8847 121.348 31.0455 121.842 31.0455ZM127.411 32V31.1051L130.772 27.4261C131.166 26.9953 131.491 26.6207 131.746 26.3026C132.002 25.9811 132.191 25.6795 132.313 25.3977C132.439 25.1127 132.502 24.8144 132.502 24.5028C132.502 24.1449 132.416 23.835 132.244 23.5732C132.075 23.3113 131.843 23.1091 131.548 22.9666C131.253 22.8241 130.921 22.7528 130.553 22.7528C130.162 22.7528 129.821 22.834 129.529 22.9964C129.241 23.1555 129.017 23.3793 128.858 23.6676C128.702 23.956 128.624 24.294 128.624 24.6818H127.451C127.451 24.0852 127.588 23.5616 127.864 23.1108C128.139 22.66 128.513 22.3087 128.987 22.0568C129.464 21.8049 130 21.679 130.593 21.679C131.19 21.679 131.718 21.8049 132.179 22.0568C132.64 22.3087 133.001 22.6484 133.263 23.076C133.525 23.5036 133.655 23.9792 133.655 24.5028C133.655 24.8774 133.588 25.2436 133.452 25.6016C133.319 25.9562 133.087 26.3523 132.756 26.7898C132.427 27.224 131.972 27.7543 131.388 28.3807L129.102 30.8267V30.9062H133.834V32H127.411ZM136.028 32V31.1051L139.389 27.4261C139.783 26.9953 140.108 26.6207 140.363 26.3026C140.618 25.9811 140.807 25.6795 140.93 25.3977C141.056 25.1127 141.119 24.8144 141.119 24.5028C141.119 24.1449 141.032 23.835 140.86 23.5732C140.691 23.3113 140.459 23.1091 140.164 22.9666C139.869 22.8241 139.538 22.7528 139.17 22.7528C138.779 22.7528 138.437 22.834 138.146 22.9964C137.857 23.1555 137.634 23.3793 137.474 23.6676C137.319 23.956 137.241 24.294 137.241 24.6818H136.067C136.067 24.0852 136.205 23.5616 136.48 23.1108C136.755 22.66 137.13 22.3087 137.604 22.0568C138.081 21.8049 138.616 21.679 139.21 21.679C139.806 21.679 140.335 21.8049 140.795 22.0568C141.256 22.3087 141.617 22.6484 141.879 23.076C142.141 23.5036 142.272 23.9792 142.272 24.5028C142.272 24.8774 142.204 25.2436 142.068 25.6016C141.936 25.9562 141.704 26.3523 141.372 26.7898C141.044 27.224 140.588 27.7543 140.005 28.3807L137.718 30.8267V30.9062H142.451V32H136.028ZM161.668 26.3622V27.456H147.668V26.3622H161.668ZM170.26 32.1392C169.511 32.1392 168.873 31.9354 168.346 31.5277C167.819 31.1167 167.417 30.5218 167.138 29.7429C166.86 28.9607 166.721 28.0161 166.721 26.9091C166.721 25.8087 166.86 24.8691 167.138 24.0902C167.42 23.308 167.824 22.7114 168.351 22.3004C168.882 21.8861 169.518 21.679 170.26 21.679C171.003 21.679 171.637 21.8861 172.164 22.3004C172.695 22.7114 173.099 23.308 173.378 24.0902C173.659 24.8691 173.8 25.8087 173.8 26.9091C173.8 28.0161 173.661 28.9607 173.382 29.7429C173.104 30.5218 172.701 31.1167 172.174 31.5277C171.647 31.9354 171.009 32.1392 170.26 32.1392ZM170.26 31.0455C171.003 31.0455 171.579 30.6875 171.99 29.9716C172.401 29.2557 172.607 28.2348 172.607 26.9091C172.607 26.0275 172.512 25.2768 172.324 24.657C172.138 24.0372 171.869 23.5649 171.518 23.2401C171.17 22.9152 170.751 22.7528 170.26 22.7528C169.525 22.7528 168.949 23.1158 168.535 23.8416C168.121 24.5642 167.914 25.5866 167.914 26.9091C167.914 27.7907 168.007 28.5398 168.192 29.1562C168.378 29.7727 168.645 30.2417 168.993 30.5632C169.344 30.8847 169.766 31.0455 170.26 31.0455ZM179.091 32.1392C178.408 32.1392 177.805 32.0182 177.281 31.7763C176.761 31.531 176.355 31.1946 176.063 30.767C175.771 30.3362 175.627 29.8456 175.63 29.2955C175.627 28.8646 175.712 28.4669 175.884 28.1023C176.056 27.7344 176.292 27.4278 176.59 27.1825C176.892 26.9339 177.228 26.7765 177.599 26.7102V26.6506C177.112 26.5246 176.724 26.2512 176.436 25.8303C176.147 25.406 176.005 24.9238 176.008 24.3835C176.005 23.8665 176.136 23.4041 176.401 22.9964C176.666 22.5888 177.031 22.2673 177.495 22.032C177.962 21.7966 178.494 21.679 179.091 21.679C179.681 21.679 180.208 21.7966 180.672 22.032C181.136 22.2673 181.5 22.5888 181.765 22.9964C182.034 23.4041 182.17 23.8665 182.173 24.3835C182.17 24.9238 182.022 25.406 181.731 25.8303C181.442 26.2512 181.059 26.5246 180.582 26.6506V26.7102C180.95 26.7765 181.281 26.9339 181.576 27.1825C181.871 27.4278 182.107 27.7344 182.282 28.1023C182.458 28.4669 182.548 28.8646 182.551 29.2955C182.548 29.8456 182.398 30.3362 182.103 30.767C181.812 31.1946 181.406 31.531 180.885 31.7763C180.368 32.0182 179.77 32.1392 179.091 32.1392ZM179.091 31.0455C179.551 31.0455 179.949 30.9709 180.284 30.8217C180.619 30.6726 180.877 30.4621 181.059 30.1903C181.242 29.9186 181.335 29.6004 181.338 29.2358C181.335 28.8513 181.235 28.5116 181.04 28.2166C180.844 27.9216 180.577 27.6896 180.239 27.5206C179.904 27.3516 179.522 27.267 179.091 27.267C178.656 27.267 178.269 27.3516 177.927 27.5206C177.589 27.6896 177.322 27.9216 177.127 28.2166C176.935 28.5116 176.84 28.8513 176.843 29.2358C176.84 29.6004 176.928 29.9186 177.107 30.1903C177.289 30.4621 177.549 30.6726 177.888 30.8217C178.226 30.9709 178.627 31.0455 179.091 31.0455ZM179.091 26.2131C179.455 26.2131 179.778 26.1402 180.06 25.9943C180.345 25.8485 180.569 25.6446 180.731 25.3828C180.894 25.121 180.977 24.8144 180.98 24.4631C180.977 24.1184 180.895 23.8184 180.736 23.5632C180.577 23.3047 180.357 23.1058 180.075 22.9666C179.793 22.8241 179.465 22.7528 179.091 22.7528C178.709 22.7528 178.376 22.8241 178.091 22.9666C177.806 23.1058 177.586 23.3047 177.43 23.5632C177.274 23.8184 177.198 24.1184 177.201 24.4631C177.198 24.8144 177.276 25.121 177.435 25.3828C177.598 25.6446 177.821 25.8485 178.106 25.9943C178.391 26.1402 178.719 26.2131 179.091 26.2131ZM185.471 30.6974C185.226 30.6974 185.016 30.6096 184.84 30.4339C184.664 30.2583 184.576 30.0478 184.576 29.8026C184.576 29.5573 184.664 29.3468 184.84 29.1712C185.016 28.9955 185.226 28.9077 185.471 28.9077C185.717 28.9077 185.927 28.9955 186.103 29.1712C186.278 29.3468 186.366 29.5573 186.366 29.8026C186.366 29.965 186.325 30.1141 186.242 30.25C186.162 30.3859 186.055 30.4953 185.919 30.5781C185.786 30.6577 185.637 30.6974 185.471 30.6974ZM185.471 25.5469C185.226 25.5469 185.016 25.459 184.84 25.2834C184.664 25.1077 184.576 24.8973 184.576 24.652C184.576 24.4067 184.664 24.1963 184.84 24.0206C185.016 23.8449 185.226 23.7571 185.471 23.7571C185.717 23.7571 185.927 23.8449 186.103 24.0206C186.278 24.1963 186.366 24.4067 186.366 24.652C186.366 24.8144 186.325 24.9635 186.242 25.0994C186.162 25.2353 186.055 25.3447 185.919 25.4276C185.786 25.5071 185.637 25.5469 185.471 25.5469ZM191.913 32.1392C191.164 32.1392 190.526 31.9354 189.999 31.5277C189.472 31.1167 189.069 30.5218 188.791 29.7429C188.512 28.9607 188.373 28.0161 188.373 26.9091C188.373 25.8087 188.512 24.8691 188.791 24.0902C189.072 23.308 189.477 22.7114 190.004 22.3004C190.534 21.8861 191.17 21.679 191.913 21.679C192.655 21.679 193.29 21.8861 193.817 22.3004C194.347 22.7114 194.752 23.308 195.03 24.0902C195.312 24.8691 195.453 25.8087 195.453 26.9091C195.453 28.0161 195.313 28.9607 195.035 29.7429C194.756 30.5218 194.354 31.1167 193.827 31.5277C193.3 31.9354 192.662 32.1392 191.913 32.1392ZM191.913 31.0455C192.655 31.0455 193.232 30.6875 193.643 29.9716C194.054 29.2557 194.259 28.2348 194.259 26.9091C194.259 26.0275 194.165 25.2768 193.976 24.657C193.79 24.0372 193.522 23.5649 193.171 23.2401C192.823 22.9152 192.403 22.7528 191.913 22.7528C191.177 22.7528 190.602 23.1158 190.188 23.8416C189.773 24.5642 189.566 25.5866 189.566 26.9091C189.566 27.7907 189.659 28.5398 189.845 29.1562C190.03 29.7727 190.297 30.2417 190.645 30.5632C190.996 30.8847 191.419 31.0455 191.913 31.0455ZM200.803 32.1392C200.054 32.1392 199.416 31.9354 198.889 31.5277C198.362 31.1167 197.959 30.5218 197.681 29.7429C197.402 28.9607 197.263 28.0161 197.263 26.9091C197.263 25.8087 197.402 24.8691 197.681 24.0902C197.962 23.308 198.367 22.7114 198.894 22.3004C199.424 21.8861 200.06 21.679 200.803 21.679C201.545 21.679 202.18 21.8861 202.707 22.3004C203.237 22.7114 203.642 23.308 203.92 24.0902C204.202 24.8691 204.343 25.8087 204.343 26.9091C204.343 28.0161 204.203 28.9607 203.925 29.7429C203.646 30.5218 203.244 31.1167 202.717 31.5277C202.19 31.9354 201.552 32.1392 200.803 32.1392ZM200.803 31.0455C201.545 31.0455 202.122 30.6875 202.533 29.9716C202.944 29.2557 203.149 28.2348 203.149 26.9091C203.149 26.0275 203.055 25.2768 202.866 24.657C202.68 24.0372 202.412 23.5649 202.061 23.2401C201.713 22.9152 201.293 22.7528 200.803 22.7528C200.067 22.7528 199.492 23.1158 199.078 23.8416C198.663 24.5642 198.456 25.5866 198.456 26.9091C198.456 27.7907 198.549 28.5398 198.735 29.1562C198.92 29.7727 199.187 30.2417 199.535 30.5632C199.886 30.8847 200.309 31.0455 200.803 31.0455ZM211.046 32H209.753L213.492 21.8182H214.765L218.503 32H217.211L214.168 23.429H214.088L211.046 32ZM211.523 28.0227H216.733V29.1165H211.523V28.0227ZM220.229 21.8182H221.701L225.161 30.2699H225.28L228.74 21.8182H230.212V32H229.059V24.2642H228.959L225.777 32H224.664L221.482 24.2642H221.383V32H220.229V21.8182Z" fill="#1A1B1F"/>
<path d="M6 45C3.79086 45 2 46.7909 2 49C2 51.2091 3.79086 53 6 53C8.20914 53 10 51.2091 10 49C10 46.7909 8.20914 45 6 45ZM1 49C1 46.2386 3.23858 44 6 44C8.76142 44 11 46.2386 11 49C11 51.7614 8.76142 54 6 54C3.23858 54 1 51.7614 1 49Z" fill="#878B92"/>
<path d="M17.233 54V43.8182H23.3381V44.9119H18.4659V48.3523H22.8807V49.446H18.4659V54H17.233ZM25.3486 54V46.3636H26.4822V47.517H26.5617C26.7009 47.1392 26.9528 46.8326 27.3174 46.5973C27.682 46.362 28.0929 46.2443 28.5503 46.2443C28.6365 46.2443 28.7442 46.246 28.8735 46.2493C29.0027 46.2526 29.1005 46.2576 29.1668 46.2642V47.4574C29.127 47.4474 29.0359 47.4325 28.8934 47.4126C28.7542 47.3894 28.6067 47.3778 28.4509 47.3778C28.0797 47.3778 27.7483 47.4557 27.4566 47.6115C27.1682 47.764 26.9395 47.9761 26.7705 48.2479C26.6048 48.5163 26.5219 48.8229 26.5219 49.1676V54H25.3486ZM30.6976 54V46.3636H31.8709V54H30.6976ZM31.2942 45.0909C31.0655 45.0909 30.8683 45.013 30.7026 44.8572C30.5402 44.7015 30.459 44.5142 30.459 44.2955C30.459 44.0767 30.5402 43.8894 30.7026 43.7337C30.8683 43.5779 31.0655 43.5 31.2942 43.5C31.5229 43.5 31.7184 43.5779 31.8809 43.7337C32.0466 43.8894 32.1294 44.0767 32.1294 44.2955C32.1294 44.5142 32.0466 44.7015 31.8809 44.8572C31.7184 45.013 31.5229 45.0909 31.2942 45.0909ZM37.0434 54.1591C36.407 54.1591 35.8452 53.9983 35.358 53.6768C34.8708 53.352 34.4897 52.8946 34.2146 52.3047C33.9395 51.7114 33.8019 51.0104 33.8019 50.2017C33.8019 49.3996 33.9395 48.7036 34.2146 48.1136C34.4897 47.5237 34.8725 47.0679 35.363 46.7464C35.8535 46.425 36.4203 46.2642 37.0633 46.2642C37.5604 46.2642 37.9532 46.3471 38.2416 46.5128C38.5332 46.6752 38.7553 46.8608 38.9077 47.0696C39.0635 47.2751 39.1845 47.4441 39.2707 47.5767H39.3701V43.8182H40.5434V54H39.4099V52.8267H39.2707C39.1845 52.9659 39.0619 53.1416 38.9028 53.3537C38.7437 53.5625 38.5167 53.7498 38.2217 53.9155C37.9267 54.0779 37.5339 54.1591 37.0434 54.1591ZM37.2025 53.1051C37.6731 53.1051 38.0709 52.9825 38.3957 52.7372C38.7205 52.4886 38.9674 52.1456 39.1364 51.7081C39.3055 51.2673 39.39 50.7585 39.39 50.1818C39.39 49.6117 39.3071 49.1129 39.1414 48.6854C38.9757 48.2545 38.7304 47.9197 38.4056 47.6811C38.0808 47.4392 37.6798 47.3182 37.2025 47.3182C36.7053 47.3182 36.291 47.4458 35.9596 47.701C35.6315 47.9529 35.3845 48.2959 35.2188 48.7301C35.0564 49.161 34.9752 49.6449 34.9752 50.1818C34.9752 50.7254 35.0581 51.2192 35.2238 51.6634C35.3928 52.1042 35.6414 52.4555 35.9695 52.7173C36.301 52.9759 36.712 53.1051 37.2025 53.1051ZM45.2424 54.179C44.7584 54.179 44.3193 54.0878 43.9249 53.9055C43.5305 53.7199 43.2173 53.4531 42.9852 53.1051C42.7532 52.7538 42.6372 52.3295 42.6372 51.8324C42.6372 51.3949 42.7234 51.0402 42.8958 50.7685C43.0681 50.4934 43.2985 50.2779 43.5868 50.1222C43.8752 49.9664 44.1933 49.8504 44.5414 49.7741C44.8927 49.6946 45.2457 49.6316 45.6003 49.5852C46.0643 49.5256 46.4405 49.4808 46.7289 49.451C47.0205 49.4179 47.2326 49.3632 47.3652 49.2869C47.5011 49.2107 47.5691 49.0781 47.5691 48.8892V48.8494C47.5691 48.3589 47.4348 47.9777 47.1664 47.706C46.9012 47.4342 46.4985 47.2983 45.9583 47.2983C45.3981 47.2983 44.959 47.4209 44.6408 47.6662C44.3226 47.9115 44.0989 48.1733 43.9696 48.4517L42.856 48.054C43.0549 47.59 43.32 47.2287 43.6514 46.9702C43.9862 46.7083 44.3508 46.526 44.7452 46.4233C45.1429 46.3172 45.534 46.2642 45.9185 46.2642C46.1638 46.2642 46.4455 46.294 46.7637 46.3537C47.0852 46.41 47.395 46.5277 47.6933 46.7067C47.995 46.8857 48.2452 47.1558 48.4441 47.517C48.6429 47.8783 48.7424 48.3622 48.7424 48.9688V54H47.5691V52.9659H47.5094C47.4299 53.1316 47.2973 53.3089 47.1117 53.4979C46.9261 53.6868 46.6791 53.8475 46.3709 53.9801C46.0627 54.1127 45.6865 54.179 45.2424 54.179ZM45.4213 53.125C45.8853 53.125 46.2764 53.0339 46.5946 52.8516C46.9161 52.6693 47.1581 52.4339 47.3205 52.1456C47.4862 51.8572 47.5691 51.554 47.5691 51.2358V50.1619C47.5193 50.2216 47.41 50.2763 47.2409 50.326C47.0752 50.3724 46.883 50.4138 46.6642 50.4503C46.4488 50.4834 46.2383 50.5133 46.0328 50.5398C45.8307 50.563 45.6666 50.5829 45.5406 50.5994C45.2357 50.6392 44.9507 50.7038 44.6855 50.7933C44.4237 50.8795 44.2116 51.0104 44.0492 51.1861C43.8901 51.3584 43.8105 51.5937 43.8105 51.892C43.8105 52.2997 43.9613 52.608 44.2629 52.8168C44.5679 53.0223 44.954 53.125 45.4213 53.125ZM51.5061 56.8636C51.3072 56.8636 51.1299 56.8471 50.9741 56.8139C50.8184 56.7841 50.7107 56.7543 50.651 56.7244L50.9493 55.6903C51.2343 55.7633 51.4862 55.7898 51.705 55.7699C51.9237 55.75 52.1176 55.6522 52.2866 55.4766C52.459 55.3042 52.6164 55.0241 52.7589 54.6364L52.9777 54.0398L50.1538 46.3636H51.4266L53.5345 52.4489H53.6141L55.722 46.3636H56.9947L53.7533 55.1136C53.6074 55.508 53.4268 55.8345 53.2114 56.093C52.9959 56.3549 52.7457 56.5488 52.4607 56.6747C52.1789 56.8007 51.8607 56.8636 51.5061 56.8636ZM59.9549 52.608L59.8753 53.1449C59.819 53.5227 59.7328 53.9271 59.6168 54.358C59.5041 54.7888 59.3865 55.1948 59.2638 55.576C59.1412 55.9571 59.0401 56.2604 58.9606 56.4858H58.0657C58.1088 56.2737 58.1651 55.9936 58.2347 55.6456C58.3043 55.2976 58.3739 54.9081 58.4435 54.4773C58.5164 54.0497 58.5761 53.6122 58.6225 53.1648L58.6822 52.608H59.9549ZM69.707 54.1392C69.2894 54.1326 68.8718 54.053 68.4542 53.9006C68.0365 53.7481 67.6554 53.4912 67.3107 53.13C66.966 52.7654 66.6892 52.2732 66.4804 51.6534C66.2716 51.0303 66.1672 50.2481 66.1672 49.3068C66.1672 48.4053 66.2517 47.6065 66.4208 46.9105C66.5898 46.2112 66.8351 45.6229 67.1566 45.1456C67.4781 44.665 67.8659 44.3004 68.3199 44.0518C68.7773 43.8033 69.2927 43.679 69.8661 43.679C70.4362 43.679 70.9433 43.7933 71.3874 44.022C71.8348 44.2474 72.1994 44.5623 72.4812 44.9666C72.7629 45.371 72.9452 45.8366 73.028 46.3636H71.815C71.7023 45.9062 71.4835 45.5268 71.1587 45.2251C70.8339 44.9235 70.403 44.7727 69.8661 44.7727C69.0773 44.7727 68.4558 45.1158 68.0017 45.8018C67.551 46.4879 67.324 47.4508 67.3206 48.6903H67.4002C67.5858 48.4086 67.8062 48.1683 68.0614 47.9695C68.3199 47.7673 68.605 47.6115 68.9165 47.5021C69.2281 47.3928 69.5579 47.3381 69.9059 47.3381C70.4892 47.3381 71.0228 47.4839 71.5067 47.7756C71.9906 48.0639 72.3784 48.4633 72.6701 48.9737C72.9617 49.4808 73.1076 50.0625 73.1076 50.7188C73.1076 51.3485 72.9667 51.9252 72.685 52.4489C72.4033 52.9692 72.0072 53.3835 71.4968 53.6918C70.9897 53.9967 70.3931 54.1458 69.707 54.1392ZM69.707 53.0455C70.1246 53.0455 70.4991 52.9411 70.8306 52.7322C71.1653 52.5234 71.4288 52.2434 71.6211 51.892C71.8166 51.5407 71.9144 51.1496 71.9144 50.7188C71.9144 50.2978 71.8199 49.915 71.631 49.5703C71.4454 49.2223 71.1885 48.9455 70.8604 48.7401C70.5356 48.5346 70.1644 48.4318 69.7468 48.4318C69.4319 48.4318 69.1386 48.4948 68.8668 48.6207C68.595 48.7434 68.3564 48.9124 68.1509 49.1278C67.9487 49.3433 67.7896 49.5902 67.6736 49.8686C67.5576 50.1437 67.4996 50.4337 67.4996 50.7386C67.4996 51.143 67.5941 51.5208 67.783 51.8722C67.9752 52.2235 68.2371 52.5069 68.5685 52.7223C68.9033 52.9377 69.2828 53.0455 69.707 53.0455ZM79.8767 54H78.5841L82.3228 43.8182H83.5955L87.3341 54H86.0415L82.9989 45.429H82.9194L79.8767 54ZM80.354 50.0227H85.5642V51.1165H80.354V50.0227ZM93.7135 50.8778V46.3636H94.8868V54H93.7135V52.7074H93.6339C93.455 53.0952 93.1765 53.425 92.7987 53.6967C92.4209 53.9652 91.9436 54.0994 91.3669 54.0994C90.8896 54.0994 90.4654 53.995 90.0942 53.7862C89.7229 53.5741 89.4313 53.2559 89.2192 52.8317C89.007 52.4041 88.901 51.8655 88.901 51.2159V46.3636H90.0743V51.1364C90.0743 51.6932 90.23 52.1373 90.5416 52.4688C90.8565 52.8002 91.2575 52.9659 91.7447 52.9659C92.0364 52.9659 92.333 52.8913 92.6346 52.7422C92.9396 52.593 93.1948 52.3643 93.4003 52.0561C93.6091 51.7479 93.7135 51.3551 93.7135 50.8778ZM100.258 57.0227C99.6914 57.0227 99.2041 56.9498 98.7965 56.804C98.3888 56.6615 98.0491 56.4725 97.7773 56.2372C97.5088 56.0052 97.2951 55.7566 97.136 55.4915L98.0706 54.8352C98.1767 54.9744 98.3109 55.1335 98.4733 55.3125C98.6357 55.4948 98.8578 55.6522 99.1395 55.7848C99.4246 55.9207 99.7974 55.9886 100.258 55.9886C100.875 55.9886 101.383 55.8395 101.784 55.5412C102.185 55.2429 102.386 54.7756 102.386 54.1392V52.5881H102.287C102.2 52.7273 102.078 52.8996 101.919 53.1051C101.763 53.3073 101.537 53.4879 101.243 53.647C100.951 53.8028 100.556 53.8807 100.059 53.8807C99.4428 53.8807 98.8893 53.7348 98.3988 53.4432C97.9115 53.1515 97.5254 52.7273 97.2404 52.1705C96.9586 51.6136 96.8178 50.9375 96.8178 50.142C96.8178 49.3598 96.9553 48.6787 97.2304 48.0987C97.5055 47.5154 97.8883 47.0646 98.3789 46.7464C98.8694 46.425 99.4362 46.2642 100.079 46.2642C100.576 46.2642 100.971 46.3471 101.262 46.5128C101.557 46.6752 101.783 46.8608 101.939 47.0696C102.098 47.2751 102.22 47.4441 102.306 47.5767H102.426V46.3636H103.559V54.2188C103.559 54.875 103.41 55.4086 103.112 55.8196C102.817 56.2339 102.419 56.5372 101.919 56.7294C101.421 56.925 100.868 57.0227 100.258 57.0227ZM100.218 52.8267C100.689 52.8267 101.087 52.719 101.412 52.5036C101.736 52.2881 101.983 51.9782 102.152 51.5739C102.321 51.1695 102.406 50.6856 102.406 50.1222C102.406 49.572 102.323 49.0864 102.157 48.6655C101.992 48.2446 101.746 47.9148 101.421 47.6761C101.097 47.4375 100.696 47.3182 100.218 47.3182C99.7212 47.3182 99.3069 47.4441 98.9755 47.696C98.6473 47.9479 98.4004 48.286 98.2347 48.7102C98.0723 49.1345 97.9911 49.6051 97.9911 50.1222C97.9911 50.6525 98.0739 51.1214 98.2397 51.5291C98.4087 51.9335 98.6573 52.2517 98.9854 52.4837C99.3168 52.7124 99.7278 52.8267 100.218 52.8267ZM109.905 54V53.1051L113.265 49.4261C113.66 48.9953 113.985 48.6207 114.24 48.3026C114.495 47.9811 114.684 47.6795 114.807 47.3977C114.933 47.1127 114.996 46.8144 114.996 46.5028C114.996 46.1449 114.909 45.835 114.737 45.5732C114.568 45.3113 114.336 45.1091 114.041 44.9666C113.746 44.8241 113.415 44.7528 113.047 44.7528C112.656 44.7528 112.314 44.834 112.022 44.9964C111.734 45.1555 111.51 45.3793 111.351 45.6676C111.196 45.956 111.118 46.294 111.118 46.6818H109.944C109.944 46.0852 110.082 45.5616 110.357 45.1108C110.632 44.66 111.007 44.3087 111.481 44.0568C111.958 43.8049 112.493 43.679 113.086 43.679C113.683 43.679 114.212 43.8049 114.672 44.0568C115.133 44.3087 115.494 44.6484 115.756 45.076C116.018 45.5036 116.149 45.9792 116.149 46.5028C116.149 46.8774 116.081 47.2436 115.945 47.6016C115.813 47.9562 115.581 48.3523 115.249 48.7898C114.921 49.224 114.465 49.7543 113.882 50.3807L111.595 52.8267V52.9062H116.328V54H109.905ZM121.842 54.1392C121.093 54.1392 120.455 53.9354 119.928 53.5277C119.401 53.1167 118.998 52.5218 118.72 51.7429C118.442 50.9607 118.302 50.0161 118.302 48.9091C118.302 47.8087 118.442 46.8691 118.72 46.0902C119.002 45.308 119.406 44.7114 119.933 44.3004C120.463 43.8861 121.1 43.679 121.842 43.679C122.585 43.679 123.219 43.8861 123.746 44.3004C124.277 44.7114 124.681 45.308 124.959 46.0902C125.241 46.8691 125.382 47.8087 125.382 48.9091C125.382 50.0161 125.243 50.9607 124.964 51.7429C124.686 52.5218 124.283 53.1167 123.756 53.5277C123.229 53.9354 122.591 54.1392 121.842 54.1392ZM121.842 53.0455C122.585 53.0455 123.161 52.6875 123.572 51.9716C123.983 51.2557 124.189 50.2348 124.189 48.9091C124.189 48.0275 124.094 47.2768 123.905 46.657C123.72 46.0372 123.451 45.5649 123.1 45.2401C122.752 44.9152 122.333 44.7528 121.842 44.7528C121.106 44.7528 120.531 45.1158 120.117 45.8416C119.703 46.5642 119.496 47.5866 119.496 48.9091C119.496 49.7907 119.588 50.5398 119.774 51.1562C119.96 51.7727 120.226 52.2417 120.574 52.5632C120.926 52.8847 121.348 53.0455 121.842 53.0455ZM127.411 54V53.1051L130.772 49.4261C131.166 48.9953 131.491 48.6207 131.746 48.3026C132.002 47.9811 132.191 47.6795 132.313 47.3977C132.439 47.1127 132.502 46.8144 132.502 46.5028C132.502 46.1449 132.416 45.835 132.244 45.5732C132.075 45.3113 131.843 45.1091 131.548 44.9666C131.253 44.8241 130.921 44.7528 130.553 44.7528C130.162 44.7528 129.821 44.834 129.529 44.9964C129.241 45.1555 129.017 45.3793 128.858 45.6676C128.702 45.956 128.624 46.294 128.624 46.6818H127.451C127.451 46.0852 127.588 45.5616 127.864 45.1108C128.139 44.66 128.513 44.3087 128.987 44.0568C129.464 43.8049 130 43.679 130.593 43.679C131.19 43.679 131.718 43.8049 132.179 44.0568C132.64 44.3087 133.001 44.6484 133.263 45.076C133.525 45.5036 133.655 45.9792 133.655 46.5028C133.655 46.8774 133.588 47.2436 133.452 47.6016C133.319 47.9562 133.087 48.3523 132.756 48.7898C132.427 49.224 131.972 49.7543 131.388 50.3807L129.102 52.8267V52.9062H133.834V54H127.411ZM136.028 54V53.1051L139.389 49.4261C139.783 48.9953 140.108 48.6207 140.363 48.3026C140.618 47.9811 140.807 47.6795 140.93 47.3977C141.056 47.1127 141.119 46.8144 141.119 46.5028C141.119 46.1449 141.032 45.835 140.86 45.5732C140.691 45.3113 140.459 45.1091 140.164 44.9666C139.869 44.8241 139.538 44.7528 139.17 44.7528C138.779 44.7528 138.437 44.834 138.146 44.9964C137.857 45.1555 137.634 45.3793 137.474 45.6676C137.319 45.956 137.241 46.294 137.241 46.6818H136.067C136.067 46.0852 136.205 45.5616 136.48 45.1108C136.755 44.66 137.13 44.3087 137.604 44.0568C138.081 43.8049 138.616 43.679 139.21 43.679C139.806 43.679 140.335 43.8049 140.795 44.0568C141.256 44.3087 141.617 44.6484 141.879 45.076C142.141 45.5036 142.272 45.9792 142.272 46.5028C142.272 46.8774 142.204 47.2436 142.068 47.6016C141.936 47.9562 141.704 48.3523 141.372 48.7898C141.044 49.224 140.588 49.7543 140.005 50.3807L137.718 52.8267V52.9062H142.451V54H136.028ZM161.668 48.3622V49.456H147.668V48.3622H161.668ZM170.26 54.1392C169.511 54.1392 168.873 53.9354 168.346 53.5277C167.819 53.1167 167.417 52.5218 167.138 51.7429C166.86 50.9607 166.721 50.0161 166.721 48.9091C166.721 47.8087 166.86 46.8691 167.138 46.0902C167.42 45.308 167.824 44.7114 168.351 44.3004C168.882 43.8861 169.518 43.679 170.26 43.679C171.003 43.679 171.637 43.8861 172.164 44.3004C172.695 44.7114 173.099 45.308 173.378 46.0902C173.659 46.8691 173.8 47.8087 173.8 48.9091C173.8 50.0161 173.661 50.9607 173.382 51.7429C173.104 52.5218 172.701 53.1167 172.174 53.5277C171.647 53.9354 171.009 54.1392 170.26 54.1392ZM170.26 53.0455C171.003 53.0455 171.579 52.6875 171.99 51.9716C172.401 51.2557 172.607 50.2348 172.607 48.9091C172.607 48.0275 172.512 47.2768 172.324 46.657C172.138 46.0372 171.869 45.5649 171.518 45.2401C171.17 44.9152 170.751 44.7528 170.26 44.7528C169.525 44.7528 168.949 45.1158 168.535 45.8416C168.121 46.5642 167.914 47.5866 167.914 48.9091C167.914 49.7907 168.007 50.5398 168.192 51.1562C168.378 51.7727 168.645 52.2417 168.993 52.5632C169.344 52.8847 169.766 53.0455 170.26 53.0455ZM179.091 54.1392C178.408 54.1392 177.805 54.0182 177.281 53.7763C176.761 53.531 176.355 53.1946 176.063 52.767C175.771 52.3362 175.627 51.8456 175.63 51.2955C175.627 50.8646 175.712 50.4669 175.884 50.1023C176.056 49.7344 176.292 49.4278 176.59 49.1825C176.892 48.9339 177.228 48.7765 177.599 48.7102V48.6506C177.112 48.5246 176.724 48.2512 176.436 47.8303C176.147 47.406 176.005 46.9238 176.008 46.3835C176.005 45.8665 176.136 45.4041 176.401 44.9964C176.666 44.5888 177.031 44.2673 177.495 44.032C177.962 43.7966 178.494 43.679 179.091 43.679C179.681 43.679 180.208 43.7966 180.672 44.032C181.136 44.2673 181.5 44.5888 181.765 44.9964C182.034 45.4041 182.17 45.8665 182.173 46.3835C182.17 46.9238 182.022 47.406 181.731 47.8303C181.442 48.2512 181.059 48.5246 180.582 48.6506V48.7102C180.95 48.7765 181.281 48.9339 181.576 49.1825C181.871 49.4278 182.107 49.7344 182.282 50.1023C182.458 50.4669 182.548 50.8646 182.551 51.2955C182.548 51.8456 182.398 52.3362 182.103 52.767C181.812 53.1946 181.406 53.531 180.885 53.7763C180.368 54.0182 179.77 54.1392 179.091 54.1392ZM179.091 53.0455C179.551 53.0455 179.949 52.9709 180.284 52.8217C180.619 52.6726 180.877 52.4621 181.059 52.1903C181.242 51.9186 181.335 51.6004 181.338 51.2358C181.335 50.8513 181.235 50.5116 181.04 50.2166C180.844 49.9216 180.577 49.6896 180.239 49.5206C179.904 49.3516 179.522 49.267 179.091 49.267C178.656 49.267 178.269 49.3516 177.927 49.5206C177.589 49.6896 177.322 49.9216 177.127 50.2166C176.935 50.5116 176.84 50.8513 176.843 51.2358C176.84 51.6004 176.928 51.9186 177.107 52.1903C177.289 52.4621 177.549 52.6726 177.888 52.8217C178.226 52.9709 178.627 53.0455 179.091 53.0455ZM179.091 48.2131C179.455 48.2131 179.778 48.1402 180.06 47.9943C180.345 47.8485 180.569 47.6446 180.731 47.3828C180.894 47.121 180.977 46.8144 180.98 46.4631C180.977 46.1184 180.895 45.8184 180.736 45.5632C180.577 45.3047 180.357 45.1058 180.075 44.9666C179.793 44.8241 179.465 44.7528 179.091 44.7528C178.709 44.7528 178.376 44.8241 178.091 44.9666C177.806 45.1058 177.586 45.3047 177.43 45.5632C177.274 45.8184 177.198 46.1184 177.201 46.4631C177.198 46.8144 177.276 47.121 177.435 47.3828C177.598 47.6446 177.821 47.8485 178.106 47.9943C178.391 48.1402 178.719 48.2131 179.091 48.2131ZM185.471 52.6974C185.226 52.6974 185.016 52.6096 184.84 52.4339C184.664 52.2583 184.576 52.0478 184.576 51.8026C184.576 51.5573 184.664 51.3468 184.84 51.1712C185.016 50.9955 185.226 50.9077 185.471 50.9077C185.717 50.9077 185.927 50.9955 186.103 51.1712C186.278 51.3468 186.366 51.5573 186.366 51.8026C186.366 51.965 186.325 52.1141 186.242 52.25C186.162 52.3859 186.055 52.4953 185.919 52.5781C185.786 52.6577 185.637 52.6974 185.471 52.6974ZM185.471 47.5469C185.226 47.5469 185.016 47.459 184.84 47.2834C184.664 47.1077 184.576 46.8973 184.576 46.652C184.576 46.4067 184.664 46.1963 184.84 46.0206C185.016 45.8449 185.226 45.7571 185.471 45.7571C185.717 45.7571 185.927 45.8449 186.103 46.0206C186.278 46.1963 186.366 46.4067 186.366 46.652C186.366 46.8144 186.325 46.9635 186.242 47.0994C186.162 47.2353 186.055 47.3447 185.919 47.4276C185.786 47.5071 185.637 47.5469 185.471 47.5469ZM191.913 54.1392C191.164 54.1392 190.526 53.9354 189.999 53.5277C189.472 53.1167 189.069 52.5218 188.791 51.7429C188.512 50.9607 188.373 50.0161 188.373 48.9091C188.373 47.8087 188.512 46.8691 188.791 46.0902C189.072 45.308 189.477 44.7114 190.004 44.3004C190.534 43.8861 191.17 43.679 191.913 43.679C192.655 43.679 193.29 43.8861 193.817 44.3004C194.347 44.7114 194.752 45.308 195.03 46.0902C195.312 46.8691 195.453 47.8087 195.453 48.9091C195.453 50.0161 195.313 50.9607 195.035 51.7429C194.756 52.5218 194.354 53.1167 193.827 53.5277C193.3 53.9354 192.662 54.1392 191.913 54.1392ZM191.913 53.0455C192.655 53.0455 193.232 52.6875 193.643 51.9716C194.054 51.2557 194.259 50.2348 194.259 48.9091C194.259 48.0275 194.165 47.2768 193.976 46.657C193.79 46.0372 193.522 45.5649 193.171 45.2401C192.823 44.9152 192.403 44.7528 191.913 44.7528C191.177 44.7528 190.602 45.1158 190.188 45.8416C189.773 46.5642 189.566 47.5866 189.566 48.9091C189.566 49.7907 189.659 50.5398 189.845 51.1562C190.03 51.7727 190.297 52.2417 190.645 52.5632C190.996 52.8847 191.419 53.0455 191.913 53.0455ZM200.803 54.1392C200.054 54.1392 199.416 53.9354 198.889 53.5277C198.362 53.1167 197.959 52.5218 197.681 51.7429C197.402 50.9607 197.263 50.0161 197.263 48.9091C197.263 47.8087 197.402 46.8691 197.681 46.0902C197.962 45.308 198.367 44.7114 198.894 44.3004C199.424 43.8861 200.06 43.679 200.803 43.679C201.545 43.679 202.18 43.8861 202.707 44.3004C203.237 44.7114 203.642 45.308 203.92 46.0902C204.202 46.8691 204.343 47.8087 204.343 48.9091C204.343 50.0161 204.203 50.9607 203.925 51.7429C203.646 52.5218 203.244 53.1167 202.717 53.5277C202.19 53.9354 201.552 54.1392 200.803 54.1392ZM200.803 53.0455C201.545 53.0455 202.122 52.6875 202.533 51.9716C202.944 51.2557 203.149 50.2348 203.149 48.9091C203.149 48.0275 203.055 47.2768 202.866 46.657C202.68 46.0372 202.412 45.5649 202.061 45.2401C201.713 44.9152 201.293 44.7528 200.803 44.7528C200.067 44.7528 199.492 45.1158 199.078 45.8416C198.663 46.5642 198.456 47.5866 198.456 48.9091C198.456 49.7907 198.549 50.5398 198.735 51.1562C198.92 51.7727 199.187 52.2417 199.535 52.5632C199.886 52.8847 200.309 53.0455 200.803 53.0455ZM211.046 54H209.753L213.492 43.8182H214.765L218.503 54H217.211L214.168 45.429H214.088L211.046 54ZM211.523 50.0227H216.733V51.1165H211.523V50.0227ZM220.229 43.8182H221.701L225.161 52.2699H225.28L228.74 43.8182H230.212V54H229.059V46.2642H228.959L225.777 54H224.664L221.482 46.2642H221.383V54H220.229V43.8182Z" fill="#1A1B1F"/>
<line x1="6" y1="31" x2="6" y2="45" stroke="#878B92" stroke-dasharray="2 2"/>
<path d="M366.952 20.0481C365.554 18.6506 363.288 18.6506 361.891 20.0482L349.941 31.9997C349.535 32.4061 349.249 32.9172 349.116 33.4762L348.02 38.0777C347.96 38.3311 348.036 38.5976 348.22 38.7817C348.404 38.9659 348.67 39.0413 348.924 38.981L353.525 37.8855C354.084 37.7523 354.595 37.4666 355.002 37.0601L366.952 25.1086C368.349 23.7111 368.349 21.4455 366.952 20.0481ZM362.952 21.1088C363.763 20.2971 365.079 20.297 365.891 21.1088C366.703 21.9204 366.703 23.2363 365.891 24.048L365 24.9395L362.061 22.0001L362.952 21.1088ZM361 23.0608L363.939 26.0002L353.941 35.9995C353.731 36.2097 353.467 36.3574 353.178 36.4263L349.762 37.2395L350.575 33.8237C350.644 33.5346 350.792 33.2704 351.002 33.0603L361 23.0608Z" fill="#1A1B1F"/>
<rect x="382.75" y="9.75" width="88.5" height="38.5" rx="19.25" stroke="#1A1B1F" stroke-width="1.5"/>
<path d="M407.156 35V23.3636H409.263V33.233H414.388V35H407.156ZM418.638 35.1761C418.085 35.1761 417.587 35.0777 417.144 34.8807C416.705 34.6799 416.356 34.3845 416.099 33.9943C415.845 33.6042 415.718 33.1231 415.718 32.5511C415.718 32.0587 415.809 31.6515 415.991 31.3295C416.173 31.0076 416.421 30.75 416.735 30.5568C417.049 30.3636 417.404 30.2178 417.798 30.1193C418.195 30.017 418.606 29.9432 419.031 29.8977C419.542 29.8447 419.957 29.7973 420.275 29.7557C420.593 29.7102 420.824 29.642 420.968 29.5511C421.116 29.4564 421.19 29.3106 421.19 29.1136V29.0795C421.19 28.6515 421.063 28.3201 420.809 28.0852C420.555 27.8504 420.19 27.733 419.712 27.733C419.209 27.733 418.809 27.8428 418.513 28.0625C418.222 28.2822 418.025 28.5417 417.923 28.8409L416.002 28.5682C416.154 28.0379 416.404 27.5947 416.752 27.2386C417.101 26.8788 417.527 26.6098 418.031 26.4318C418.534 26.25 419.091 26.1591 419.701 26.1591C420.121 26.1591 420.54 26.2083 420.957 26.3068C421.373 26.4053 421.754 26.5682 422.099 26.7955C422.443 27.0189 422.72 27.3239 422.928 27.7102C423.14 28.0966 423.246 28.5795 423.246 29.1591V35H421.269V33.8011H421.201C421.076 34.0436 420.9 34.2708 420.673 34.483C420.449 34.6913 420.167 34.8598 419.826 34.9886C419.489 35.1136 419.093 35.1761 418.638 35.1761ZM419.173 33.6648C419.585 33.6648 419.943 33.5833 420.246 33.4205C420.549 33.2538 420.782 33.0341 420.945 32.7614C421.112 32.4886 421.195 32.1913 421.195 31.8693V30.8409C421.131 30.8939 421.021 30.9432 420.866 30.9886C420.714 31.0341 420.544 31.0739 420.354 31.108C420.165 31.142 419.978 31.1723 419.792 31.1989C419.606 31.2254 419.445 31.2481 419.309 31.267C419.002 31.3087 418.728 31.3769 418.485 31.4716C418.243 31.5663 418.051 31.6989 417.911 31.8693C417.771 32.036 417.701 32.2519 417.701 32.517C417.701 32.8958 417.839 33.1818 418.116 33.375C418.392 33.5682 418.745 33.6648 419.173 33.6648ZM425.406 35V23.3636H427.462V27.7159H427.548C427.654 27.5038 427.803 27.2784 427.996 27.0398C428.19 26.7973 428.451 26.5909 428.781 26.4205C429.11 26.2462 429.531 26.1591 430.042 26.1591C430.716 26.1591 431.324 26.3314 431.866 26.6761C432.411 27.017 432.843 27.5227 433.161 28.1932C433.483 28.8598 433.644 29.678 433.644 30.6477C433.644 31.6061 433.487 32.4205 433.173 33.0909C432.858 33.7614 432.43 34.2727 431.888 34.625C431.347 34.9773 430.733 35.1534 430.048 35.1534C429.548 35.1534 429.133 35.0701 428.803 34.9034C428.474 34.7367 428.209 34.536 428.008 34.3011C427.811 34.0625 427.657 33.8371 427.548 33.625H427.428V35H425.406ZM427.423 30.6364C427.423 31.2008 427.502 31.6951 427.661 32.1193C427.824 32.5436 428.057 32.875 428.36 33.1136C428.667 33.3485 429.038 33.4659 429.474 33.4659C429.928 33.4659 430.309 33.3447 430.616 33.1023C430.923 32.8561 431.154 32.5208 431.309 32.0966C431.468 31.6686 431.548 31.1818 431.548 30.6364C431.548 30.0947 431.47 29.6136 431.315 29.1932C431.159 28.7727 430.928 28.4432 430.621 28.2045C430.315 27.9659 429.932 27.8466 429.474 27.8466C429.034 27.8466 428.661 27.9621 428.354 28.1932C428.048 28.4242 427.815 28.7481 427.656 29.1648C427.5 29.5814 427.423 30.072 427.423 30.6364ZM439.256 35.1705C438.381 35.1705 437.626 34.9886 436.989 34.625C436.357 34.2576 435.87 33.7386 435.529 33.0682C435.188 32.3939 435.018 31.6004 435.018 30.6875C435.018 29.7898 435.188 29.0019 435.529 28.3239C435.874 27.642 436.355 27.1117 436.972 26.733C437.59 26.3504 438.315 26.1591 439.148 26.1591C439.686 26.1591 440.194 26.2462 440.671 26.4205C441.152 26.5909 441.576 26.8561 441.944 27.2159C442.315 27.5758 442.607 28.0341 442.819 28.5909C443.031 29.1439 443.137 29.803 443.137 30.5682V31.1989H435.984V29.8125H441.165C441.162 29.4186 441.076 29.0682 440.91 28.7614C440.743 28.4508 440.51 28.2064 440.211 28.0284C439.915 27.8504 439.571 27.7614 439.177 27.7614C438.756 27.7614 438.387 27.8636 438.069 28.0682C437.751 28.2689 437.503 28.5341 437.325 28.8636C437.15 29.1894 437.061 29.5473 437.058 29.9375V31.1477C437.058 31.6553 437.15 32.0909 437.336 32.4545C437.522 32.8144 437.781 33.0909 438.114 33.2841C438.448 33.4735 438.838 33.5682 439.285 33.5682C439.584 33.5682 439.855 33.5265 440.097 33.4432C440.34 33.3561 440.55 33.2292 440.728 33.0625C440.906 32.8958 441.04 32.6894 441.131 32.4432L443.052 32.6591C442.931 33.1667 442.7 33.6098 442.359 33.9886C442.022 34.3636 441.59 34.6553 441.063 34.8636C440.537 35.0682 439.934 35.1705 439.256 35.1705ZM446.934 23.3636V35H444.877V23.3636H446.934Z" fill="#1A1B1F"/>
</svg>
