<svg role="img" viewBox="0 0 48 48" xmlns="http://www.w3.org/2000/svg" id="Turborepo--Streamline-Simple-Icons" height="48" width="48">
  <desc>
    Turborepo Streamline Icon: https://streamlinehq.com
  </desc>
  <title>Turborepo</title>
  <path d="M12.31 24.116c0 1.006 0.19 1.934 0.57 2.784 0.38 0.848 0.894 1.586 1.542 2.212 0.648 0.626 1.398 1.12 2.246 1.476 0.874 0.336 1.79 0.504 2.75 0.504 0.962 0 1.868 -0.168 2.718 -0.504a7.156 7.156 0 0 0 2.28 -1.476 6.74 6.74 0 0 0 2.146 -4.996 6.742 6.742 0 0 0 -2.146 -4.996 6.712 6.712 0 0 0 -2.28 -1.442 6.926 6.926 0 0 0 -2.718 -0.538c-0.96 0 -1.876 0.18 -2.748 0.538 -0.85 0.334 -1.6 0.816 -2.248 1.44a7.04 7.04 0 0 0 -1.542 2.214 6.74 6.74 0 0 0 -0.57 2.784Zm-6.874 0c0 -1.878 0.346 -3.62 1.04 -5.232a13.048 13.048 0 0 1 2.882 -4.26 13.006 13.006 0 0 1 4.394 -2.816c1.72 -0.692 3.61 -1.04 5.666 -1.04 2.036 0 3.914 0.348 5.634 1.04a12.94 12.94 0 0 1 4.426 2.818 13.084 13.084 0 0 1 3.958 9.49c0 1.878 -0.346 3.632 -1.04 5.264a12.9 12.9 0 0 1 -2.918 4.226 13.356 13.356 0 0 1 -4.426 2.85c-1.72 0.67 -3.6 1.006 -5.634 1.006 -2.056 0 -3.946 -0.336 -5.666 -1.006a13.434 13.434 0 0 1 -4.394 -2.85 13.144 13.144 0 0 1 -2.884 -4.226 13.326 13.326 0 0 1 -1.04 -5.264ZM20.288 0.016c-5.52 -0.192 -11.04 1.52 -15.61 5.138l3.046 1.714C11.34 4.2 15.91 3.06 20.288 3.25V0.014Zm16.18 7.232C32.662 3.25 27.712 0.776 22.382 0.204V3.44a21.45 21.45 0 0 1 11.802 6.092l2.284 -2.284Zm6.854 15.61c-0.19 -4.95 -2.094 -9.9 -5.33 -14.086l-2.284 2.284c2.664 3.616 4.188 7.614 4.378 11.8h3.236Zm-5.33 16.37c3.236 -4.188 5.14 -9.136 5.33 -14.086h-3.236c-0.19 4.188 -1.714 8.186 -4.38 11.802l2.286 2.284Zm-15.61 8.568c5.14 -0.572 10.28 -3.046 14.086 -7.044l-2.284 -2.284c-3.236 3.426 -7.424 5.52 -11.802 6.092v3.236Zm-17.704 -4.95a23.734 23.734 0 0 0 15.61 5.14v-3.236c-4.38 0.19 -8.756 -0.952 -12.564 -3.618l-3.046 1.714Z" fill="#dddde6" stroke-width="2"></path>
</svg>