<svg xmlns="http://www.w3.org/2000/svg" width="48" height="48" viewBox="0 0 48 48"><rect width="48" height="48" fill="none"/><path d="M67.33,251.994l7.313-4.234,12.1,6.67V263Zm-1.33-1.2V227.778l7.1,4.114v14.791ZM86.747,215v8.282l-12.76,7.032-.1.058-7.051-4.087Zm1.705,0,19.914,11.285-7.051,4.082-.1-.058-12.76-7.027Zm0,39.43,12.1-6.67,7.319,4.234L88.453,263ZM102.1,231.891l7.1-4.114v23.011l-7.1-4.106Zm-14.5-7.123,11.984,6.6L87.6,238.3l-11.984-6.931ZM74.808,245.9V232.873l11.939,6.9v12.7Zm25.584-13.027V245.9l-11.939,6.574v-12.7Z" transform="translate(-64 -215)" fill="#fff" fill-rule="evenodd"/></svg>