<?xml version="1.0" encoding="UTF-8"?>
<svg xmlns="http://www.w3.org/2000/svg" xmlns:xlink="http://www.w3.org/1999/xlink" width="132px" height="22px" viewBox="0 0 129 22" version="1.1">
<g id="surface1">
<path style=" stroke:none;fill-rule:nonzero;fill:rgb(100%,54.509807%,0%);fill-opacity:1;" d="M 112.914062 14.113281 L 112.914062 9.742188 L 105.507812 9.742188 L 101.160156 14.113281 Z M 112.914062 14.113281 "/>
<path style=" stroke:none;fill-rule:nonzero;fill:rgb(33.333334%,69.803923%,77.64706%);fill-opacity:1;" d="M 121.261719 3.273438 L 111.976562 3.273438 L 107.59375 7.644531 L 121.261719 7.644531 Z M 121.261719 3.273438 "/>
<path style=" stroke:none;fill-rule:nonzero;fill:rgb(100%,0%,0%);fill-opacity:1;" d="M 96.847656 18.484375 L 99.074219 16.246094 L 106.585938 16.246094 L 106.585938 20.613281 L 96.847656 20.613281 Z M 96.847656 18.484375 "/>
<path style=" stroke:none;fill-rule:nonzero;fill:rgb(70.588237%,73.333335%,74.901962%);fill-opacity:1;" d="M 98.480469 11.980469 L 103.28125 11.980469 L 107.664062 7.609375 L 98.480469 7.609375 Z M 98.480469 11.980469 "/>
<path style=" stroke:none;fill-rule:nonzero;fill:rgb(70.588237%,73.333335%,74.901962%);fill-opacity:1;" d="M 93.230469 18.484375 L 96.847656 18.484375 L 101.160156 14.113281 L 93.230469 14.113281 Z M 93.230469 18.484375 "/>
<path style=" stroke:none;fill-rule:nonzero;fill:rgb(70.588237%,73.333335%,74.901962%);fill-opacity:1;" d="M 111.976562 3.273438 L 109.75 5.511719 L 95.558594 5.511719 L 95.558594 1.140625 L 111.976562 1.140625 Z M 111.976562 3.273438 "/>
<path style=" stroke:none;fill-rule:nonzero;fill:rgb(100%,100%,100%);fill-opacity:1;" d="M 18.730469 17.714844 L 11.914062 17.714844 L 10.726562 20.648438 L 7.738281 20.648438 L 14.035156 5.824219 L 16.640625 5.824219 L 22.9375 20.648438 L 19.910156 20.648438 Z M 17.789062 15.371094 L 15.320312 9.320312 L 12.851562 15.371094 Z M 17.789062 15.371094 "/>
<path style=" stroke:none;fill-rule:nonzero;fill:rgb(100%,100%,100%);fill-opacity:1;" d="M 64.464844 11.28125 C 65.335938 9.984375 67.527344 9.847656 68.429688 9.847656 L 68.429688 12.363281 C 67.316406 12.363281 66.203125 12.398438 65.542969 12.890625 C 64.882812 13.378906 64.535156 14.042969 64.535156 14.847656 L 64.535156 20.648438 L 61.824219 20.648438 L 61.824219 9.847656 L 64.429688 9.847656 Z M 64.464844 11.28125 "/>
<path style=" stroke:none;fill-rule:evenodd;fill:rgb(100%,100%,100%);fill-opacity:1;" d="M 69.925781 9.847656 L 72.636719 9.847656 L 72.636719 20.648438 L 69.925781 20.648438 Z M 69.925781 9.847656 "/>
<path style=" stroke:none;fill-rule:evenodd;fill:rgb(100%,100%,100%);fill-opacity:1;" d="M 69.925781 5.019531 L 72.636719 5.019531 L 72.636719 8.238281 L 69.925781 8.238281 Z M 69.925781 5.019531 "/>
<path style=" stroke:none;fill-rule:nonzero;fill:rgb(100%,100%,100%);fill-opacity:1;" d="M 86.097656 5.019531 L 86.097656 20.648438 L 83.492188 20.648438 L 83.421875 19.007812 C 83.039062 19.566406 82.550781 20.023438 81.960938 20.371094 C 81.367188 20.6875 80.636719 20.859375 79.804688 20.859375 C 79.074219 20.859375 78.378906 20.722656 77.785156 20.476562 C 77.160156 20.195312 76.605469 19.847656 76.152344 19.355469 C 75.699219 18.867188 75.316406 18.273438 75.074219 17.609375 C 74.792969 16.945312 74.691406 16.175781 74.691406 15.335938 C 74.691406 14.496094 74.832031 13.726562 75.074219 13.027344 C 75.351562 12.328125 75.699219 11.734375 76.152344 11.246094 C 76.605469 10.753906 77.160156 10.371094 77.785156 10.089844 C 78.414062 9.8125 79.074219 9.671875 79.804688 9.671875 C 80.636719 9.671875 81.332031 9.8125 81.925781 10.125 C 82.515625 10.441406 83.003906 10.859375 83.386719 11.453125 L 83.386719 5.058594 L 86.097656 5.058594 Z M 80.394531 18.515625 C 81.296875 18.515625 81.996094 18.203125 82.550781 17.609375 C 83.109375 17.015625 83.386719 16.210938 83.386719 15.230469 C 83.386719 14.253906 83.109375 13.480469 82.550781 12.855469 C 81.996094 12.257812 81.296875 11.945312 80.394531 11.945312 C 79.523438 11.945312 78.796875 12.257812 78.273438 12.855469 C 77.71875 13.449219 77.4375 14.253906 77.4375 15.230469 C 77.4375 16.210938 77.71875 16.980469 78.273438 17.574219 C 78.828125 18.203125 79.523438 18.515625 80.394531 18.515625 "/>
<path style=" stroke:none;fill-rule:nonzero;fill:rgb(100%,100%,100%);fill-opacity:1;" d="M 38.621094 12.292969 L 31.910156 12.292969 L 31.910156 14.636719 L 35.738281 14.636719 C 35.632812 15.824219 35.179688 16.734375 34.414062 17.46875 C 33.648438 18.167969 32.675781 18.515625 31.421875 18.515625 C 30.726562 18.515625 30.066406 18.378906 29.511719 18.132812 C 28.917969 17.886719 28.433594 17.539062 28.015625 17.050781 C 27.597656 16.59375 27.285156 16.035156 27.042969 15.371094 C 26.796875 14.707031 26.695312 14.007812 26.695312 13.203125 C 26.695312 12.398438 26.796875 11.699219 27.042969 11.035156 C 27.25 10.371094 27.597656 9.847656 28.015625 9.355469 C 28.433594 8.902344 28.917969 8.554688 29.511719 8.273438 C 30.101562 8.027344 30.726562 7.886719 31.457031 7.886719 C 32.917969 7.886719 34.03125 8.238281 34.796875 8.9375 L 36.605469 7.121094 C 35.25 6.070312 33.511719 5.511719 31.457031 5.511719 C 30.308594 5.511719 29.265625 5.683594 28.328125 6.070312 C 27.390625 6.457031 26.589844 6.945312 25.925781 7.609375 C 25.265625 8.273438 24.746094 9.078125 24.398438 10.019531 C 24.050781 10.964844 23.875 12.015625 23.875 13.132812 C 23.875 14.253906 24.050781 15.300781 24.433594 16.246094 C 24.816406 17.1875 25.304688 17.992188 25.964844 18.65625 C 26.621094 19.324219 27.425781 19.847656 28.363281 20.195312 C 29.300781 20.582031 30.34375 20.753906 31.457031 20.753906 C 32.570312 20.753906 33.582031 20.582031 34.484375 20.195312 C 35.390625 19.8125 36.152344 19.324219 36.78125 18.65625 C 37.40625 17.992188 37.890625 17.1875 38.242188 16.246094 C 38.589844 15.300781 38.761719 14.253906 38.761719 13.132812 L 38.761719 12.679688 C 38.65625 12.609375 38.621094 12.433594 38.621094 12.292969 "/>
<path style=" stroke:none;fill-rule:nonzero;fill:rgb(100%,100%,100%);fill-opacity:1;" d="M 59.839844 12.292969 L 53.125 12.292969 L 53.125 14.636719 L 56.953125 14.636719 C 56.847656 15.824219 56.394531 16.734375 55.632812 17.46875 C 54.867188 18.167969 53.894531 18.515625 52.640625 18.515625 C 51.945312 18.515625 51.285156 18.378906 50.726562 18.132812 C 50.136719 17.886719 49.648438 17.539062 49.230469 17.050781 C 48.8125 16.59375 48.5 16.035156 48.257812 15.371094 C 48.015625 14.707031 47.910156 14.007812 47.910156 13.203125 C 47.910156 12.398438 48.015625 11.699219 48.257812 11.035156 C 48.464844 10.371094 48.8125 9.847656 49.230469 9.355469 C 49.648438 8.902344 50.136719 8.554688 50.726562 8.273438 C 51.316406 8.027344 51.945312 7.886719 52.675781 7.886719 C 54.132812 7.886719 55.25 8.238281 56.015625 8.9375 L 57.820312 7.121094 C 56.464844 6.070312 54.726562 5.511719 52.675781 5.511719 C 51.527344 5.511719 50.484375 5.683594 49.542969 6.070312 C 48.605469 6.457031 47.804688 6.945312 47.144531 7.609375 C 46.484375 8.273438 45.960938 9.078125 45.613281 10.019531 C 45.265625 10.964844 45.09375 12.015625 45.09375 13.132812 C 45.09375 14.253906 45.265625 15.300781 45.648438 16.246094 C 46.03125 17.1875 46.519531 17.992188 47.179688 18.65625 C 47.839844 19.324219 48.640625 19.847656 49.578125 20.195312 C 50.519531 20.582031 51.5625 20.753906 52.675781 20.753906 C 53.785156 20.753906 54.796875 20.582031 55.699219 20.195312 C 56.605469 19.8125 57.371094 19.324219 57.996094 18.65625 C 58.621094 17.992188 59.109375 17.1875 59.457031 16.246094 C 59.804688 15.300781 59.976562 14.253906 59.976562 13.132812 L 59.976562 12.679688 C 59.875 12.609375 59.839844 12.433594 59.839844 12.292969 "/>
</g>
</svg>
