<svg xmlns="http://www.w3.org/2000/svg" width="48" height="49.005" viewBox="0 0 48 49.005"><g transform="translate(0 0.505)"><rect width="48" height="48" transform="translate(0 0)" fill="none"/><path d="M10905.544,1446.841q-9.051-5.061-18.116-10.091a.818.818,0,0,1-.354-.532c-.5-4.166-.971-8.336-1.456-12.5q-.671-5.776-1.347-11.556c-.187-1.613-.37-3.223-.56-4.9-.2-.414.192-.422.461-.518q10.812-3.855,21.622-7.7a.931.931,0,0,1,.573,0q11.121,3.777,22.238,7.562c.371.126.488.266.437.656-.362,2.74-.705,5.483-1.051,8.226q-.584,4.641-1.16,9.282c-.444,3.546-.924,7.087-1.311,10.639a1.853,1.853,0,0,1-1.133,1.6q-8.9,4.871-17.755,9.811a1.15,1.15,0,0,1-.562.175A1.08,1.08,0,0,1,10905.544,1446.841Zm6.862-18.273a.543.543,0,0,1,.4.271c.884,2,1.775,4,2.6,6.031.247.6.217.8.828.8,1.363-.06,3.105-.016,4.49-.016l-14.608-31.1c-4.671,10.4-9.312,20.722-13.972,31.093.194,0,.329,0,.464,0,1.459-.025,2.918-.06,4.377-.066a.492.492,0,0,0,.541-.381q1.238-3.164,2.521-6.309a.585.585,0,0,1,.408-.318q2.854-.012,5.707-.011Q10909.283,1428.557,10912.406,1428.568Zm-10.367-4.257c1.365-3.25,2.726-6.49,4.108-9.786l4.668,9.786Z" transform="translate(-10882.309 -1399)" fill="#fff" stroke="rgba(0,0,0,0)" stroke-miterlimit="10" stroke-width="1"/></g></svg>