<svg width="270" height="50" viewBox="0 0 270 50" fill="none" xmlns="http://www.w3.org/2000/svg">
<path d="M35.5227 5.10429C36.9866 7.14016 37.7192 9.57654 37.7192 12.4134C37.7192 15.3368 36.9799 17.6867 35.5027 19.4631C34.6771 20.4598 33.4605 21.3686 31.853 22.1922C34.2941 23.0811 36.137 24.4876 37.3801 26.4156C38.6233 28.3437 39.2442 30.683 39.2442 33.4321C39.2442 36.269 38.5342 38.8144 37.1142 41.0659C36.2101 42.5602 35.0813 43.8163 33.7251 44.8342C32.1974 46.0038 30.3958 46.8049 28.319 47.2387C26.2421 47.6724 23.9885 47.888 21.558 47.888H0V0.00399189H23.1229C28.9572 0.0904828 33.0909 1.79103 35.5227 5.10429ZM9.5438 8.32042V18.879H21.1724C23.2492 18.879 24.9365 18.4838 26.2328 17.6934C27.5278 16.903 28.1767 15.5005 28.1767 13.4859C28.1767 11.2558 27.3204 9.78278 25.6066 9.06824C24.1281 8.57058 22.2441 8.32042 19.9518 8.32042H9.5438ZM9.5438 26.8055V39.5729H21.1604C23.2346 39.5729 24.8501 39.2921 26.0055 38.728C28.1022 37.6887 29.1499 35.6955 29.1499 32.7508C29.1499 30.2612 28.1341 28.55 26.1012 27.6185C24.9671 27.0983 23.3729 26.8281 21.32 26.8069H9.5438V26.8055ZM68.5617 13.1958C71.0294 14.3029 73.0677 16.0487 74.6765 18.4345C76.1257 20.5383 77.0657 22.9786 77.4952 25.7557C77.7438 27.383 77.8462 29.7249 77.7997 32.7827H52.0296C52.1731 36.3355 53.407 38.8251 55.7298 40.2542C57.1432 41.143 58.8424 41.5861 60.8301 41.5861C62.9375 41.5861 64.65 41.0446 65.9676 39.9615C66.6856 39.3773 67.3212 38.5643 67.8716 37.5251H77.317C77.0684 39.6261 75.925 41.7591 73.888 43.9254C70.7183 47.3691 66.2814 49.0909 60.5762 49.0909C55.8668 49.0909 51.7131 47.6392 48.1139 44.7344C44.5147 41.8297 42.7144 37.1046 42.7144 30.5579C42.7144 24.4237 44.3392 19.7199 47.5887 16.4479C50.8382 13.1746 55.0557 11.5379 60.2411 11.5379C63.3191 11.5366 66.0926 12.0901 68.5617 13.1958ZM54.7206 21.1943C53.4137 22.5435 52.592 24.3691 52.2556 26.6751H68.1947C68.0259 24.2174 67.2055 22.3519 65.7297 21.0798C64.2538 19.8077 62.4256 19.1704 60.2424 19.1704C57.8691 19.1704 56.029 19.845 54.7206 21.1943ZM97.8207 26.3504C99.5425 26.1349 100.774 25.8634 101.516 25.5388C102.845 24.9759 103.51 24.099 103.51 22.9068C103.51 21.4564 102.999 20.4544 101.98 19.9022C100.96 19.35 99.4627 19.0732 97.4883 19.0732C95.2732 19.0732 93.7043 19.6148 92.7828 20.6979C92.1247 21.499 91.6859 22.5821 91.4665 23.946H82.541C82.7364 20.8496 83.606 18.3041 85.1497 16.3122C87.6054 13.1932 91.8215 11.6337 97.7994 11.6337C101.69 11.6337 105.145 12.4028 108.166 13.9397C111.187 15.4779 112.697 18.38 112.697 22.646V38.889C112.697 40.0147 112.719 41.3799 112.763 42.982C112.828 44.1955 113.011 45.0178 113.314 45.4503C113.618 45.8841 114.072 46.2407 114.677 46.5228V47.8867H104.615C104.333 47.1721 104.139 46.5015 104.031 45.8721C103.922 45.244 103.837 44.5295 103.772 43.7285C102.488 45.115 101.008 46.2952 99.3311 47.2693C97.3287 48.4163 95.0644 48.9911 92.5395 48.9911C89.3179 48.9911 86.6574 48.0756 84.5567 46.246C82.4559 44.4164 81.4055 41.823 81.4055 38.4658C81.4055 34.1133 83.0954 30.9611 86.4739 29.013C88.3274 27.9525 91.053 27.1941 94.6496 26.739L97.8207 26.3504ZM103.478 30.671C102.885 31.0396 102.288 31.3363 101.684 31.5639C101.081 31.7914 100.252 32.003 99.2008 32.1972L97.0947 32.5871C95.1203 32.9344 93.7029 33.3562 92.8427 33.8539C91.3854 34.6988 90.6568 36.0095 90.6568 37.7845C90.6568 39.3653 91.1022 40.5083 91.9917 41.2122C92.8812 41.9161 93.9635 42.2674 95.2386 42.2674C97.2609 42.2674 99.1223 41.6833 100.826 40.5137C102.529 39.344 103.413 37.211 103.478 34.1133V30.671ZM117.145 19.3979V12.8033H122.079V2.92738H131.233V12.8033H136.978V19.3979H131.233V38.1092C131.233 39.5609 131.417 40.4644 131.785 40.8224C132.153 41.1803 133.278 41.3586 135.161 41.3586C135.441 41.3586 135.739 41.3533 136.053 41.3426C136.367 41.332 136.675 41.316 136.978 41.2934V48.2127L132.596 48.375C128.224 48.5267 125.238 47.7696 123.637 46.101C122.599 45.0405 122.079 43.4051 122.079 41.1949V19.3979H117.145ZM165.852 14.947C168.308 16.8524 169.785 20.1337 170.283 24.7896H164.603C164.256 22.646 163.468 20.8643 162.234 19.4458C161 18.0274 159.02 17.3181 156.293 17.3181C152.571 17.3181 149.909 19.1358 148.308 22.7697C147.269 25.1276 146.75 28.0377 146.75 31.4973C146.75 34.9796 147.485 37.911 148.957 40.2901C150.429 42.6693 152.743 43.8589 155.904 43.8589C158.328 43.8589 160.248 43.1204 161.665 41.642C163.082 40.165 164.061 38.1425 164.602 35.5744H170.282C169.633 40.1877 168.01 43.5608 165.413 45.6938C162.816 47.8268 159.494 48.894 155.448 48.894C150.903 48.894 147.279 47.232 144.573 43.9081C141.867 40.5842 140.515 36.4313 140.515 31.4494C140.515 25.3418 141.998 20.5888 144.963 17.1877C147.928 13.788 151.704 12.0874 156.292 12.0874C160.209 12.0888 163.396 13.0415 165.852 14.947ZM176.288 0.166329H182.131V47.888H176.288V0.166329ZM196.738 13.0961V36.1931C196.738 37.9695 197.012 39.4199 197.56 40.5456C198.572 42.624 200.457 43.6646 203.219 43.6646C207.181 43.6646 209.879 41.8456 211.312 38.2064C212.091 36.257 212.482 33.5824 212.482 30.1827V13.0961H218.325V47.888H212.808L212.873 42.7558C212.128 44.0771 211.204 45.1922 210.101 46.1023C207.913 47.9213 205.26 48.8314 202.138 48.8314C197.274 48.8314 193.962 47.1748 192.2 43.8615C191.244 42.0865 190.767 39.714 190.767 36.7467V13.0961H196.738ZM226.584 0.00399189H232.264V17.3195C233.545 15.6522 235.077 14.3801 236.859 13.5019C238.64 12.625 240.574 12.1859 242.66 12.1859C247.005 12.1859 250.529 13.6749 253.234 16.6528C255.938 19.6308 257.29 24.0218 257.29 29.8261C257.29 35.3269 255.954 39.8963 253.282 43.5355C250.609 47.1748 246.905 48.9938 242.17 48.9938C239.519 48.9938 237.283 48.3551 235.457 47.0777C234.371 46.3192 233.209 45.107 231.971 43.4397V47.8907H226.582V0.00399189H226.584ZM248.925 40.0586C250.499 37.5464 251.286 34.2331 251.286 30.1175C251.286 26.4582 250.499 23.4257 248.925 21.0213C247.35 18.6168 245.033 17.4153 241.971 17.4153C239.3 17.4153 236.961 18.4013 234.952 20.3719C232.943 22.3426 231.939 25.592 231.939 30.1175C231.939 33.3881 232.351 36.0414 233.177 38.0759C234.718 41.9095 237.595 43.8256 241.809 43.8256C244.978 43.8269 247.35 42.5721 248.925 40.0586ZM262.578 0V0.818337H260.265V6.87137H259.325V0.818337H257.01V0H262.578ZM263.409 0H264.741L266.716 5.80953L268.677 0H270V6.87137H269.112V2.81561C269.112 2.6759 269.115 2.44303 269.121 2.11836C269.128 1.79369 269.13 1.44639 269.13 1.07515L267.171 6.87137H266.249L264.269 1.07648V1.28672C264.269 1.45571 264.275 1.71119 264.284 2.05582C264.293 2.40045 264.299 2.65327 264.299 2.81561V6.87137H263.411V0H263.409Z" fill="black"/>
</svg>
