<svg width="48" height="49" viewBox="0 0 48 49" fill="none" xmlns="http://www.w3.org/2000/svg">
<path fill-rule="evenodd" clip-rule="evenodd" d="M15.2125 32.7117C14.9128 31.761 14.713 30.5435 14.702 29.917C14.691 29.2931 14.8282 28.2534 14.8282 28.2534L5.41875 35.9543C3.77545 37.2818 1.5649 37.2792 0.525246 35.9466C-0.499173 34.6361 0.0265704 32.5653 1.65294 31.3199C1.66925 31.307 1.68773 31.2935 1.70577 31.2804C1.71022 31.2772 1.71463 31.274 1.71898 31.2708L18.9597 18.0373L9.298 18.056L9.30053 18.05C7.66231 18.0441 6.59218 16.9401 6.90035 15.6092C7.20006 14.3029 8.71467 13.2692 10.2902 13.2675H10.3156L29.3775 13.2472L23.1234 8.16154L23.1276 8.15731C22.154 7.35895 22.2793 6.09327 23.3732 5.32793C24.4552 4.57106 26.1095 4.56851 27.0933 5.32369C27.1019 5.32932 27.1094 5.33556 27.1169 5.34185C27.1219 5.34598 27.1268 5.35013 27.1322 5.35416L42.1268 16.8673L42.1234 16.8698C43.6093 18.0221 44.8589 19.3911 45.8283 20.9548C46.8882 22.6565 47.5766 24.5232 47.8593 26.5128C48.0041 27.5338 48.0371 28.5557 47.9584 29.5759C47.878 30.6113 47.6773 31.6433 47.3598 32.6601C46.7282 34.6725 45.6615 36.5376 44.1756 38.1851C42.6526 39.8724 40.7756 41.2329 38.6057 42.204C36.3249 43.2216 33.8536 43.7465 31.2908 43.7499C28.7239 43.7542 26.2526 43.2394 23.9717 42.2294C21.8018 41.2676 19.9232 39.913 18.3975 38.2266C16.9109 36.5858 15.8424 34.7241 15.2125 32.7117ZM31.2908 36.4995C34.2278 36.4936 36.9421 35.3735 38.8808 33.3983C39.8282 32.4332 40.5216 31.3275 40.9517 30.1465C41.3725 28.9883 41.5359 27.7616 41.4292 26.5238C41.3225 25.3089 40.9644 24.1575 40.3862 23.1128C39.8206 22.0867 39.0425 21.1613 38.0825 20.3791C36.1962 18.8484 33.7985 18.0246 31.2866 18.028C28.7772 18.0314 26.3779 18.8628 24.4933 20.3985C23.5315 21.1842 22.7526 22.1129 22.187 23.1407C21.6113 24.1863 21.2507 25.3419 21.1482 26.5534C21.0399 27.7929 21.2033 29.0213 21.624 30.1787C22.0533 31.3563 22.7492 32.462 23.6966 33.4229C25.6354 35.3947 28.3496 36.5046 31.2908 36.4995ZM27.0788 22.6632C25.8961 23.6631 25.1121 25.0735 25.0223 26.6745C24.9317 28.3178 25.5913 29.8459 26.752 30.9787C27.9339 32.131 29.6195 32.854 31.5033 32.854C33.387 32.854 35.0693 32.131 36.252 30.9787C37.4119 29.8459 38.0731 28.3178 37.9833 26.6728C37.8928 25.0736 37.1088 23.6631 35.9269 22.6632C34.7662 21.6812 33.205 21.0809 31.5033 21.0809C29.7999 21.0809 28.2387 21.6812 27.0788 22.6632Z" fill="white"/>
</svg>
