<svg xmlns="http://www.w3.org/2000/svg" width="48" height="48" viewBox="0 0 48 48"><rect width="48" height="48" fill="none"/><path d="M234.441,195.876V183.288a8.217,8.217,0,0,0-2.731-.408c-4.1,0-6.463,2.446-6.463,6.727,0,4.178,2.261,6.473,6.41,6.473A19.32,19.32,0,0,0,234.441,195.876ZM242.531,165v36.329a54.876,54.876,0,0,1-10.507,1.07c-9.876,0-15.024-4.332-15.024-12.638,0-8,5.462-13.2,13.92-13.2a13.264,13.264,0,0,1,3.521.408V165Zm4.778,27.614V177.12h8.09v18.194c0,6.269-.473,9.276-1.891,11.875-1.313,2.5-3.048,4.078-6.619,5.81l-7.512-3.466c3.571-1.632,5.306-3.058,6.408-5.249C246.942,202.042,247.31,199.442,247.31,192.614Zm0-19.519v-8.054h8.09V173.1Z" transform="translate(-212 -165)" fill="#fff" fill-rule="evenodd"/></svg>