<svg width="225" height="50" viewBox="0 0 225 50" fill="none" xmlns="http://www.w3.org/2000/svg">
<g id="New logo (Proposal)">
<g id="360&#194;&#176;">
<path d="M128.185 42.8401C125.685 42.8401 123.385 42.4235 121.285 41.5902C119.185 40.7235 117.401 39.5068 115.935 37.9401L121.635 32.3402C122.235 33.2068 123.118 33.9235 124.285 34.4902C125.485 35.0235 126.735 35.2902 128.035 35.2902C129.135 35.2902 130.101 35.1068 130.935 34.7401C131.801 34.3401 132.468 33.7901 132.935 33.0901C133.435 32.3568 133.685 31.4901 133.685 30.4901C133.685 29.4902 133.435 28.6402 132.935 27.9402C132.435 27.2068 131.718 26.6568 130.785 26.2901C129.885 25.9235 128.801 25.7401 127.535 25.7401C126.868 25.7401 126.168 25.7901 125.435 25.8902C124.735 25.9568 124.168 26.0735 123.735 26.2401L127.635 21.3401C128.701 21.0735 129.668 20.8568 130.535 20.6902C131.435 20.4901 132.235 20.3902 132.935 20.3902C134.735 20.3902 136.351 20.8235 137.785 21.6901C139.218 22.5235 140.351 23.7235 141.185 25.2901C142.018 26.8235 142.435 28.6402 142.435 30.7402C142.435 33.1402 141.851 35.2568 140.685 37.0901C139.518 38.8901 137.851 40.3068 135.685 41.3401C133.551 42.3401 131.051 42.8401 128.185 42.8401ZM123.735 26.2401V21.3401L131.985 11.6901H141.685L133.185 21.3401L123.735 26.2401ZM118.385 14.2902V6.84015H141.685V11.6901L134.935 14.2902H118.385Z" fill="#0052D6"/>
<path d="M158.301 42.8401C155.768 42.8401 153.485 42.3068 151.451 41.2402C149.451 40.1402 147.851 38.6568 146.651 36.7901C145.485 34.8902 144.901 32.7735 144.901 30.4401C144.901 27.5401 145.901 24.6235 147.901 21.6901L158.051 6.84015H168.051L156.501 22.7901L153.201 22.4902C153.701 21.6902 154.201 21.0068 154.701 20.4402C155.235 19.8401 155.885 19.3735 156.651 19.0401C157.418 18.7068 158.435 18.5401 159.701 18.5401C161.935 18.5401 163.951 19.0735 165.751 20.1402C167.585 21.1735 169.035 22.5901 170.101 24.3902C171.201 26.1568 171.751 28.1568 171.751 30.3902C171.751 32.7568 171.151 34.8735 169.951 36.7402C168.785 38.6068 167.185 40.0902 165.151 41.1902C163.151 42.2901 160.868 42.8401 158.301 42.8401ZM158.301 35.2902C159.268 35.2902 160.118 35.0735 160.851 34.6402C161.585 34.2068 162.151 33.6068 162.551 32.8402C162.985 32.0402 163.201 31.1568 163.201 30.1901C163.201 29.2235 162.985 28.3568 162.551 27.5902C162.151 26.7901 161.585 26.1735 160.851 25.7401C160.118 25.3068 159.268 25.0902 158.301 25.0902C157.368 25.0902 156.535 25.3235 155.801 25.7902C155.068 26.2235 154.485 26.8235 154.051 27.5902C153.651 28.3568 153.451 29.2235 153.451 30.1901C153.451 31.1568 153.651 32.0402 154.051 32.8402C154.485 33.6068 155.068 34.2068 155.801 34.6402C156.535 35.0735 157.368 35.2902 158.301 35.2902Z" fill="#0052D6"/>
<path d="M216.301 23.1901C214.601 23.1901 213.101 22.8235 211.801 22.0901C210.535 21.3235 209.535 20.3235 208.801 19.0902C208.068 17.8235 207.701 16.3902 207.701 14.7902C207.701 13.1901 208.068 11.7568 208.801 10.4901C209.535 9.22348 210.535 8.22348 211.801 7.49015C213.101 6.72348 214.601 6.34015 216.301 6.34015C218.001 6.34015 219.485 6.72348 220.751 7.49015C222.018 8.22348 223.018 9.22348 223.751 10.4901C224.485 11.7568 224.851 13.1901 224.851 14.7902C224.851 16.3902 224.485 17.8235 223.751 19.0902C223.018 20.3235 222.018 21.3235 220.751 22.0901C219.485 22.8235 218.001 23.1901 216.301 23.1901ZM216.301 17.2902C217.001 17.2902 217.585 17.0568 218.051 16.5901C218.518 16.0901 218.751 15.4901 218.751 14.7902C218.751 14.0568 218.518 13.4568 218.051 12.9901C217.585 12.5235 217.001 12.2902 216.301 12.2902C215.601 12.2902 215.018 12.5235 214.551 12.9901C214.085 13.4568 213.851 14.0568 213.851 14.7902C213.851 15.4901 214.068 16.0901 214.501 16.5901C214.968 17.0568 215.568 17.2902 216.301 17.2902Z" fill="#0052D6"/>
<path fill-rule="evenodd" clip-rule="evenodd" d="M190.5 42.9702C187.533 42.9702 184.883 42.2035 182.55 40.6702C180.217 39.1035 178.367 36.9369 177 34.1702C175.667 31.4035 175 28.2202 175 24.6202C175 23.4197 175.075 22.2664 175.227 21.1603L183.197 25.7622L183.218 25.727C183.32 28.3318 184.717 30.8285 187.141 32.2283C189.972 33.8625 193.396 33.5352 195.841 31.6681L190.7 28.7C189.781 28.1689 189.465 26.9928 189.996 26.073L191.095 24.1701C191.626 23.2503 192.802 22.9351 193.722 23.4662L198.863 26.4341C199.257 23.3835 197.828 20.2544 194.997 18.6204C192.573 17.2207 189.713 17.2599 187.406 18.4732L187.428 18.4349L178.169 13.0894C179.336 11.3012 180.763 9.84485 182.45 8.7202C184.783 7.15353 187.417 6.3702 190.35 6.3702C193.35 6.3702 196.017 7.15353 198.35 8.7202C200.683 10.2535 202.517 12.4035 203.85 15.1702C205.183 17.9035 205.85 21.0869 205.85 24.7202C205.85 28.3202 205.183 31.5035 203.85 34.2702C202.517 37.0035 200.683 39.1369 198.35 40.6702C196.05 42.2035 193.433 42.9702 190.5 42.9702Z" fill="#0052D6"/>
</g>
<g id="EAM">
<path d="M3.15039 42.3085V6.85846H12.1004V42.3085H3.15039ZM10.2504 42.3085V34.7585H29.4504V42.3085H10.2504ZM10.2504 27.9085V20.5585H27.6504V27.9085H10.2504ZM10.2504 14.4085V6.85846H29.1504V14.4085H10.2504Z" fill="black"/>
<path d="M31.898 42.3085L45.648 6.85846H54.298L67.898 42.3085H58.548L48.298 12.5085H51.548L41.048 42.3085H31.898ZM40.248 36.1085V29.0085H59.798V36.1085H40.248Z" fill="black"/>
<path d="M71.2168 42.3085V6.85846H77.6668L91.2668 27.4085H88.2168L101.767 6.85846H108.217V42.3085H99.3668V21.6585L100.767 22.0585L92.6168 34.3085H86.8168L78.7168 22.0585L80.1168 21.6585V42.3085H71.2168Z" fill="black"/>
</g>
</g>
</svg>
