<svg xmlns="http://www.w3.org/2000/svg" width="47.081" height="48.001" viewBox="0 0 47.081 48.001"><path d="M45.08,48H2a2,2,0,0,1-2-2V2A2,2,0,0,1,2,0H45.08a2,2,0,0,1,2,2V46A2,2,0,0,1,45.08,48Zm-29.5-25.686v7.672h1.311V27.813c0-.093-.02-.356-.076-.816h.076a2.34,2.34,0,0,0,1.825.725,2.33,2.33,0,0,0,1.817-.731,2.931,2.931,0,0,0,.659-2.029,2.945,2.945,0,0,0-.646-2.023,2.31,2.31,0,0,0-1.8-.719,2.2,2.2,0,0,0-1.851.8h-.063c-.091-.351-.157-.605-.186-.708Zm23.885,4.11V27.4a5.127,5.127,0,0,0,1.987.322,3.58,3.58,0,0,0,1.895-.416A1.339,1.339,0,0,0,44,26.111a1.252,1.252,0,0,0-.167-.66,1.5,1.5,0,0,0-.518-.486,5.675,5.675,0,0,0-1.111-.465,6.385,6.385,0,0,1-1.184-.476.5.5,0,0,1-.275-.424c0-.337.351-.508,1.043-.508a5.248,5.248,0,0,1,1.686.355L43.9,22.6a5.688,5.688,0,0,0-2.066-.38,3.444,3.444,0,0,0-1.744.378,1.176,1.176,0,0,0-.64,1.058,1.211,1.211,0,0,0,.375.92,4.177,4.177,0,0,0,1.449.712,8.36,8.36,0,0,1,.857.326,1.585,1.585,0,0,1,.44.28.45.45,0,0,1,.137.336c0,.417-.409.628-1.217.628A5.56,5.56,0,0,1,39.461,26.425Zm-5.58,0V27.4a5.129,5.129,0,0,0,1.988.322,3.576,3.576,0,0,0,1.891-.416,1.336,1.336,0,0,0,.661-1.194,1.252,1.252,0,0,0-.167-.66,1.5,1.5,0,0,0-.517-.486,5.576,5.576,0,0,0-1.113-.465,6.393,6.393,0,0,1-1.184-.476.5.5,0,0,1-.273-.424c0-.337.35-.508,1.041-.508a5.26,5.26,0,0,1,1.688.355l.422-.849a5.65,5.65,0,0,0-2.063-.38,3.39,3.39,0,0,0-1.743.378,1.174,1.174,0,0,0-.64,1.058,1.2,1.2,0,0,0,.375.92,4.181,4.181,0,0,0,1.449.712,8.163,8.163,0,0,1,.853.326,1.576,1.576,0,0,1,.442.28.447.447,0,0,1,.137.336c0,.417-.409.628-1.215.628A5.569,5.569,0,0,1,33.881,26.425Zm-3.76-4.207a2.847,2.847,0,0,0-2.078.745,2.756,2.756,0,0,0-.753,2.043A2.534,2.534,0,0,0,28.1,27a3.308,3.308,0,0,0,2.259.723,6.861,6.861,0,0,0,1.121-.082,4.493,4.493,0,0,0,.975-.28v-.916a6.2,6.2,0,0,1-1.014.3,5.735,5.735,0,0,1-1.021.087,1.85,1.85,0,0,1-1.292-.416,1.6,1.6,0,0,1-.49-1.187h4.127v-.61a2.25,2.25,0,0,0-.713-1.757A2.787,2.787,0,0,0,30.12,22.218Zm-7.4.1v5.31h1.315V24.848a1.483,1.483,0,0,1,.487-1.146A1.861,1.861,0,0,1,25.8,23.26a2.791,2.791,0,0,1,.581.059l.127-1.052a3.681,3.681,0,0,0-.653-.048,2.165,2.165,0,0,0-1.067.277,2.29,2.29,0,0,0-.8.756h-.068l-.173-.937ZM11.471,25.637h0L13,27.625h1.489L12.3,24.911l2.082-2.6h-1.49l-1.42,1.858L10.06,22.315h-1.5l2.077,2.6L8.461,27.625H9.947l1.524-1.986ZM3,20.6v7.02H7.63V26.65H4.34v-2.2H7.424v-.96H4.34V21.575H7.63V20.6ZM18.417,26.8a1.44,1.44,0,0,1-1.169-.434,2.2,2.2,0,0,1-.361-1.4v-.169a1.836,1.836,0,0,1,.365-1.258,1.493,1.493,0,0,1,1.144-.392,1.294,1.294,0,0,1,1.078.457,2.16,2.16,0,0,1,.364,1.353,2.226,2.226,0,0,1-.365,1.367A1.243,1.243,0,0,1,18.417,26.8Zm13.056-2.389H28.668a1.485,1.485,0,0,1,.449-.994,1.44,1.44,0,0,1,1-.342,1.382,1.382,0,0,1,.984.339,1.334,1.334,0,0,1,.369,1Z" transform="translate(0 0)" fill="#fff"/></svg>