<svg xmlns="http://www.w3.org/2000/svg" width="48" height="48" viewBox="0 0 48 48"><g transform="translate(0)"><rect width="48" height="48" fill="none"/><path d="M54.581,376.246a7.337,7.337,0,0,1,2.272,14.339l-.68-2.285a4.96,4.96,0,0,0-1.592-9.675A5.246,5.246,0,0,0,50,381.593L39.63,374.126a2.93,2.93,0,1,1,1.406-2.494,2.9,2.9,0,0,1-.084.68l8.468,6A7.429,7.429,0,0,1,54.581,376.246ZM22.9,380.75l8.321-6.156a7.236,7.236,0,0,1-.43-5.482,7.415,7.415,0,0,1,9.293-4.765,7.336,7.336,0,0,1,5.162,6.956l-2.4-.05a4.961,4.961,0,0,0-3.489-4.643,5.012,5.012,0,0,0-6.282,3.22,5.142,5.142,0,0,0,1.466,5.211l-10.3,7.5a2.889,2.889,0,0,1-.046,1.6,2.966,2.966,0,0,1-3.718,1.905,2.926,2.926,0,0,1-1.925-3.681,2.966,2.966,0,0,1,3.717-1.905A2.922,2.922,0,0,1,22.9,380.75Zm-.482,9.562a7.45,7.45,0,0,1-5.371-1.348A7.239,7.239,0,0,1,15.4,378.79a7.384,7.384,0,0,1,8.256-2.59l-.8,2.218a4.989,4.989,0,0,0-5.524,1.77,4.893,4.893,0,0,0,1.115,6.877,5.271,5.271,0,0,0,5.435.3l3.949,11.985a3,3,0,0,1,1.517.553,2.9,2.9,0,0,1,.66,4.07,2.962,2.962,0,0,1-4.116.62,2.873,2.873,0,0,1-.191-4.564ZM51.479,396.2a7.242,7.242,0,0,1-1.218,13.359A7.427,7.427,0,0,1,42,406.891l1.981-1.334a5.026,5.026,0,0,0,5.552,1.753,4.923,4.923,0,0,0,3.226-6.2,5.18,5.18,0,0,0-4.239-3.37l3.993-11.964a2.881,2.881,0,0,1-.9-1.323,2.914,2.914,0,0,1,1.909-3.671,2.956,2.956,0,0,1,3.717,1.872,2.915,2.915,0,0,1-1.909,3.671,2.988,2.988,0,0,1-.679.129Zm-5.826,7.874a2.883,2.883,0,0,1-.337-.595l-10.352.1a7.268,7.268,0,0,1-2.913,4.66,7.424,7.424,0,0,1-10.307-1.582,7.247,7.247,0,0,1-.017-8.6l1.9,1.438a4.9,4.9,0,0,0,.046,5.768,5.018,5.018,0,0,0,6.967,1.069,5.134,5.134,0,0,0,1.918-5.046l12.744-.031a2.894,2.894,0,0,1,.99-1.263,2.968,2.968,0,0,1,4.123.632,2.9,2.9,0,0,1-.639,4.08A2.967,2.967,0,0,1,45.653,404.069Z" transform="translate(-14 -363)" fill="#fff" fill-rule="evenodd"/></g></svg>