<svg width="48" height="48" viewBox="0 0 48 48" fill="none" xmlns="http://www.w3.org/2000/svg">
<path fill-rule="evenodd" clip-rule="evenodd" d="M11.1667 9.32608C11.1667 6.11029 13.777 3.5 16.9928 3.5H22.8189V15.1534H16.9928C13.7774 15.1534 11.1667 12.5422 11.1667 9.32608ZM16.9928 0.5C12.1202 0.5 8.16675 4.45344 8.16675 9.32608C8.16675 12.3765 9.71622 15.0673 12.0708 16.6532C9.71629 18.2386 8.16675 20.9289 8.16675 23.9795C8.16675 27.0303 9.7165 29.7206 12.0712 31.3063C9.71646 32.8917 8.16675 35.5821 8.16675 38.6328C8.16675 43.5055 12.1202 47.4589 16.9928 47.4589C21.8655 47.4589 25.8189 43.5055 25.8189 38.6328V32.8067V31.3067V31.3067V30.6123C26.6457 31.3393 27.6233 31.9227 28.7261 32.3093C33.3261 33.922 38.3625 31.5003 39.9752 26.9003C41.3341 23.0242 39.8286 18.8383 36.569 16.652C38.9232 15.0665 40.4725 12.3764 40.4725 9.32608C40.4725 4.45344 36.519 0.5 31.6464 0.5H25.8189H24.3203H24.3189H22.8203H16.9928ZM25.8189 24.0474V23.9133C25.8261 23.2954 25.9324 22.6681 26.1482 22.0527C27.2127 19.0163 30.5373 17.4177 33.5737 18.4823C36.6102 19.5468 38.2087 22.8713 37.1442 25.9078C36.0796 28.9442 32.7551 30.5428 29.7187 29.4782C27.3422 28.6451 25.8465 26.4276 25.8189 24.0474ZM31.7003 15.1519C34.8913 15.123 37.4725 12.5239 37.4725 9.32608C37.4725 6.11029 34.8622 3.5 31.6464 3.5H25.8203V15.1522H31.561C31.6074 15.1517 31.6538 15.1516 31.7003 15.1519ZM22.8189 23.8351V18.1534H16.9928C13.777 18.1534 11.1667 20.7637 11.1667 23.9795C11.1667 27.1911 13.7704 29.7991 16.981 29.8067H16.9928H22.8189V24.1257C22.8173 24.029 22.8173 23.9321 22.8189 23.8351ZM11.1667 38.6328C11.1667 35.421 13.7705 32.8133 16.9808 32.8067L16.9924 32.8067H16.9928L22.8189 32.8067V38.6328C22.8189 41.8486 20.2086 44.4589 16.9928 44.4589C13.777 44.4589 11.1667 41.8486 11.1667 38.6328Z" fill="white"/>
</svg>
