<svg version="1.2" xmlns="http://www.w3.org/2000/svg" viewBox="0 0 64 64" width="48" height="48">
	<title>google_cloud-icon-svg</title>
	<style>
		.s0 { fill: #ffffff } 
	</style>
	<path id="Layer" class="s0" d="m40.7 20.5h2.1l5.5-5.5 0.3-2.4c-4.4-3.9-10.2-6.3-16.6-6.3-11.5 0-21.3 7.8-24.2 18.4 0.6-0.4 1.9-0.1 1.9-0.1l11.2-1.8c0 0 0.5-0.9 0.8-0.9q1-1.1 2.2-1.9 1.2-0.9 2.5-1.4 1.3-0.6 2.7-0.9 1.4-0.3 2.9-0.3c3.3 0 6.3 1.1 8.7 3.1z"/>
	<path id="Layer" class="s0" d="m56.2 24.8c-1.3-4.8-4-9-7.6-12.2l-7.9 7.9c3.2 2.5 5.2 6.4 5.2 10.8v1.4c3.9 0 7 3.1 7 6.9 0 3.9-3.2 7-7 7h-13.9l-1.4 1.4v8.3l1.4 1.4h13.9c2.4 0 4.7-0.4 6.9-1.4 2.2-0.9 4.2-2.2 5.9-3.9 1.7-1.7 3-3.6 3.9-5.8 0.9-2.2 1.4-4.6 1.4-7 0-6.1-3.1-11.6-7.8-14.8z"/>
	<path id="Layer" class="s0" d="m18.1 57.7h13.9v-11.1h-13.9q-0.4 0-0.8 0-0.3-0.1-0.7-0.2-0.3 0-0.7-0.2-0.3-0.1-0.7-0.2l-2 0.6-5.6 5.6-0.4 1.8q1.1 0.9 2.4 1.6 1.3 0.7 2.7 1.2 1.4 0.5 2.9 0.7 1.4 0.2 2.9 0.2z"/>
	<path id="Layer" class="s0" d="m18.1 21.6c-2.4 0-4.7 0.4-6.9 1.4-2.2 0.9-4.2 2.2-5.9 3.9-1.7 1.7-3 3.6-3.9 5.8-0.9 2.2-1.4 4.6-1.4 7 0 5.8 2.8 11 7.2 14.4l8-8.1q-0.9-0.4-1.6-1.1-0.8-0.6-1.4-1.5-0.5-0.8-0.8-1.8-0.3-0.9-0.3-1.9c0-3.9 3.2-7 7-7 2.8 0 5.2 1.7 6.3 4.1l8.1-8.1c-3.3-4.3-8.5-7.1-14.4-7.1z"/>
</svg>