<svg width="48" height="48" viewBox="0 0 48 48" fill="none" xmlns="http://www.w3.org/2000/svg">
<path d="M24 11.7244C22.6222 11.7244 21.5022 10.6044 21.5022 9.22667V6.49778C21.5022 5.12 22.6222 4 24 4C25.3778 4 26.4978 5.12 26.4978 6.49778V9.22667C26.4978 10.6044 25.3778 11.7244 24 11.7244Z" fill="black"/>
<path d="M24 36.2756C22.6222 36.2756 21.5022 37.3956 21.5022 38.7733V41.5022C21.5022 42.88 22.6222 44 24 44C25.3778 44 26.4978 42.88 26.4978 41.5022V38.7733C26.4978 37.3956 25.3778 36.2756 24 36.2756Z" fill="black"/>
<path d="M17.6356 33.5467V30.8178C17.6356 29.44 16.5156 28.32 15.1378 28.32C13.76 28.32 12.64 29.44 12.64 30.8178V33.5467C12.64 34.9245 13.76 36.0445 15.1378 36.0445C16.5156 36.0445 17.6356 34.9245 17.6356 33.5467Z" fill="black"/>
<path d="M17.6356 23.3778V14.4533C17.6356 13.0756 16.5156 11.9556 15.1378 11.9556C13.76 11.9556 12.64 13.0756 12.64 14.4533V23.3778C12.6667 24.7378 13.7778 25.8222 15.1378 25.8222C16.4978 25.8222 17.6089 24.7289 17.6356 23.3778Z" fill="black"/>
<path d="M8.99556 22.64V25.3689C8.99556 26.7466 7.87556 27.8666 6.49778 27.8666C5.12 27.8666 4 26.7466 4 25.36V22.6311C4 21.2533 5.12 20.1333 6.49778 20.1333C7.87556 20.1333 8.99556 21.2533 8.99556 22.64Z" fill="black"/>
<path d="M39.0044 22.6401C39.0044 21.2623 40.1244 20.1423 41.5022 20.1423C42.88 20.1423 44 21.2623 44 22.6401V25.4401C43.9644 26.7912 42.8622 27.8668 41.5022 27.8668C40.1422 27.8668 39.04 26.7823 39.0044 25.4401V22.6401Z" fill="black"/>
<path d="M30.3644 17.1822C30.3644 18.56 31.4844 19.68 32.8622 19.68C34.2399 19.68 35.3599 18.56 35.3599 17.1822V14.4533C35.3599 13.0756 34.2399 11.9556 32.8622 11.9556C31.4844 11.9556 30.3644 13.0756 30.3644 14.4533V17.1822Z" fill="black"/>
<path d="M30.3644 24.6845C30.3644 23.3068 31.4844 22.1868 32.8622 22.1868C34.2399 22.1868 35.3599 23.3068 35.3599 24.6845V33.5468C35.3599 34.9245 34.2399 36.0445 32.8622 36.0445C31.4844 36.0445 30.3644 34.9245 30.3644 33.5468V24.6845Z" fill="black"/>
<path d="M26.4978 31.271V16.7287C26.4978 15.3421 25.3778 14.231 24 14.231C22.6222 14.231 21.5022 15.351 21.5022 16.7287V31.271C21.5022 32.6487 22.6222 33.7687 24 33.7687C25.3778 33.7687 26.4978 32.6487 26.4978 31.271Z" fill="black"/>
</svg>
