<svg width="52" height="42" viewBox="0 0 52 42" fill="none" xmlns="http://www.w3.org/2000/svg">
<path d="M48.75 6.46154V3.23077H45.5V0H42.25H39H35.75H32.5V3.23077H27.95V6.46154H24.05V3.23077H20.15V0H16.9H13.65H10.4H7.15V3.23077H3.25V6.46154H0V9.69231V12.9231V16.1538V19.3846H3.25V22.6154H6.5V25.8462H7.15H9.75V29.0769H10.4H13V32.3077H16.25V35.5385H19.5V38.7692H22.75V39.4154V42H26H29.25V39.4154V38.7692H32.5V35.5385H33.8H35.75V32.3077H38.35H39V29.0769H42.25V25.8462H45.5V22.6154H46.15H48.75V19.3846H52V16.1538V12.9231V9.69231V6.46154H48.75Z" fill="black"/>
</svg>
