<svg width="48" height="48" viewBox="0 0 48 48" fill="none" xmlns="http://www.w3.org/2000/svg">
<path fill-rule="evenodd" clip-rule="evenodd" d="M1.08993 5.46009C0 7.59921 0 10.3995 0 16V32C0 37.6005 0 40.4008 1.08993 42.5399C2.04867 44.4215 3.57847 45.9513 5.46009 46.9101C7.59921 48 10.3995 48 16 48H32C37.6005 48 40.4008 48 42.5399 46.9101C44.4215 45.9513 45.9513 44.4215 46.9101 42.5399C48 40.4008 48 37.6005 48 32V16C48 10.3995 48 7.59921 46.9101 5.46009C45.9513 3.57847 44.4215 2.04867 42.5399 1.08993C40.4008 0 37.6005 0 32 0H16C10.3995 0 7.59921 0 5.46009 1.08993C3.57847 2.04867 2.04867 3.57847 1.08993 5.46009ZM14.6795 35.7429L16.3754 29.3832H23.0743L24.855 35.7429C24.9398 35.9125 25.0246 35.9125 25.1942 35.9125H28.6709C28.8405 35.9125 28.8405 35.8277 28.8405 35.6581L22.0568 12.7632C22.0125 12.6747 21.9914 12.6323 21.9571 12.6121C21.9258 12.5936 21.8835 12.5936 21.8024 12.5936H17.393C17.3082 12.5936 17.2234 12.5936 17.2234 12.7632C17.2474 13.3617 17.1904 13.9607 17.0538 14.5439L11.0333 35.6581C10.9485 35.9125 11.0333 35.9973 11.2029 35.9973H14.3403C14.5947 35.9973 14.6795 35.9125 14.6795 35.7429ZM21.5179 22.9709C21.8315 24.1456 22.1168 25.2139 22.3112 25.9914H17.3082C17.4429 25.4789 17.5847 24.9441 17.7297 24.397C18.5209 21.4131 19.409 18.0635 19.7673 15.9854C20.1095 17.6963 20.8736 20.558 21.5179 22.9709ZM31.9761 13.361C31.8653 13.6285 31.8083 13.9152 31.8083 14.2047C31.8083 15.5614 32.7411 16.3246 34.013 16.4094C34.3086 16.4334 34.6059 16.3929 34.8843 16.2906C35.1627 16.1883 35.4156 16.0267 35.6253 15.8169C35.835 15.6072 35.9966 15.3544 36.0989 15.076C36.2012 14.7976 36.2417 14.5003 36.2177 14.2047C36.2177 13.9152 36.1607 13.6285 36.0499 13.361C35.9391 13.0935 35.7767 12.8505 35.572 12.6457C35.3673 12.441 35.1242 12.2786 34.8567 12.1678C34.5892 12.057 34.3025 12 34.013 12C33.7235 12 33.4368 12.057 33.1693 12.1678C32.9018 12.2786 32.6588 12.441 32.4541 12.6457C32.2493 12.8505 32.0869 13.0935 31.9761 13.361ZM32.071 18.9347C32.0601 18.968 32.0573 19.0034 32.0627 19.0381V35.7429C32.0573 35.7776 32.0601 35.813 32.071 35.8464C32.0818 35.8797 32.1004 35.91 32.1252 35.9348C32.15 35.9596 32.1803 35.9782 32.2137 35.9891C32.247 35.9999 32.2825 36.0027 32.3171 35.9973H35.6241C35.8785 35.9973 35.8785 35.9125 35.8785 35.7429V19.0381C35.884 19.0034 35.8811 18.968 35.8703 18.9347C35.8594 18.9013 35.8408 18.871 35.816 18.8462C35.7912 18.8214 35.7609 18.8028 35.7276 18.792C35.6942 18.7811 35.6588 18.7783 35.6241 18.7837H32.3171C32.2825 18.7783 32.247 18.7811 32.2137 18.792C32.1803 18.8028 32.15 18.8214 32.1252 18.8462C32.1004 18.871 32.0818 18.9013 32.071 18.9347Z" fill="white"/>
</svg>
