<svg xmlns="http://www.w3.org/2000/svg" width="48" height="48" viewBox="0 0 48 48"><rect width="48" height="48" fill="none"/><path d="M167.393,180.377l.163-.61,2.9.785-.161.61Zm2.662-3.29a.288.288,0,0,0-.257.2.346.346,0,0,0,.046.391.658.658,0,0,0,.214.146l1.21.545-.24.54-1.207-.545a.766.766,0,0,0-.278-.079.283.283,0,0,0-.264.2.351.351,0,0,0,.01.374.645.645,0,0,0,.23.156l1.222.55-.24.545-2.026-.914.23-.521.3.134a1.019,1.019,0,0,1-.142-.29.823.823,0,0,1,.329-.792.637.637,0,0,1,.322-.067.771.771,0,0,1-.146-.379.884.884,0,0,1,.079-.408.8.8,0,0,1,.17-.245.667.667,0,0,1,.288-.156.625.625,0,0,1,.312,0,1.667,1.667,0,0,1,.307.115l1.277.581-.242.55-1.291-.583A.482.482,0,0,0,170.054,177.086Zm1.639-1.19a.271.271,0,0,0,.11.264.258.258,0,0,0,.221.065.317.317,0,0,0,.178-.122.616.616,0,0,0,.127-.348.473.473,0,0,0-.214-.382l-.173-.134a.5.5,0,0,1-.024.125.873.873,0,0,1-.065.149l-.06.122A.822.822,0,0,0,171.694,175.9Zm-.912-1.111a1.424,1.424,0,0,1,.514-.432.551.551,0,0,1,.607.113l.8.631c.055.043.125.1.206.156a.3.3,0,0,0,.144.067.208.208,0,0,0,.106-.026l.067.053-.389.506a.721.721,0,0,1-.122-.05c-.034-.019-.072-.043-.115-.07a1.206,1.206,0,0,1,0,.36.89.89,0,0,1-.175.408.742.742,0,0,1-.444.293.6.6,0,0,1-.506-.144.641.641,0,0,1-.274-.622,1.383,1.383,0,0,1,.2-.5l.1-.173a.93.93,0,0,0,.1-.218.177.177,0,0,0-.053-.2.2.2,0,0,0-.209-.041.6.6,0,0,0-.214.194.368.368,0,0,0-.1.3.407.407,0,0,0,.11.192l-.343.449a.854.854,0,0,1-.278-.427A.97.97,0,0,1,170.782,174.785Zm3-.559a.447.447,0,0,0,.166-.343.72.72,0,0,0-.206-.47.756.756,0,0,0-.41-.288.437.437,0,0,0-.379.1.429.429,0,0,0-.139.494,1.1,1.1,0,0,0,.2.334.839.839,0,0,0,.269.226A.42.42,0,0,0,173.786,174.225Zm1.042-.4a1.2,1.2,0,0,1,.3.6,1.077,1.077,0,0,1-.492.907,1.306,1.306,0,0,1-.641.322.62.62,0,0,1-.55-.194l.487-.41a.25.25,0,0,0,.154.062.486.486,0,0,0,.293-.142.438.438,0,0,0,.19-.437,1.079,1.079,0,0,0-.238-.4l-.091-.11a.7.7,0,0,1,0,.283.747.747,0,0,1-.262.394.843.843,0,0,1-.718.209,1.2,1.2,0,0,1-.718-.466,1.392,1.392,0,0,1-.343-.806.822.822,0,0,1,.319-.713.759.759,0,0,1,.257-.151.692.692,0,0,1,.468.029l-.2-.247.434-.367Zm.206-1.906a.6.6,0,0,0,.017.382l.917-.461a.5.5,0,0,0-.3-.245.513.513,0,0,0-.372.05A.46.46,0,0,0,175.034,171.919Zm1.762.737a1.092,1.092,0,0,1-.612.677,1.256,1.256,0,0,1-.842.115,1.1,1.1,0,0,1-.722-.65,1.215,1.215,0,0,1-.134-.941,1.1,1.1,0,0,1,.583-.646,1.336,1.336,0,0,1,.526-.146.943.943,0,0,1,.5.12,1.113,1.113,0,0,1,.377.336,2.944,2.944,0,0,1,.221.389l-1.478.746a.551.551,0,0,0,.432.317.612.612,0,0,0,.331-.072.511.511,0,0,0,.247-.24.529.529,0,0,0,.038-.194l.542-.274A.733.733,0,0,1,176.8,172.656Zm2.052-.4-.578.089-.451-3,.9-.137.9,2.278.182-2.443.893-.137.451,3-.578.089-.3-2.03c-.01-.06-.022-.142-.036-.247s-.026-.187-.034-.242l-.185,2.606-.6.091-.936-2.434c.007.058.022.137.038.242s.029.187.038.245Zm4.171-1.116.01-.223a.781.781,0,0,1-.134.053.982.982,0,0,1-.18.036l-.154.022a1.067,1.067,0,0,0-.312.074.267.267,0,0,0-.168.25.246.246,0,0,0,.089.223.386.386,0,0,0,.233.077.791.791,0,0,0,.41-.1A.461.461,0,0,0,183.019,171.144Zm-.122-.562q.148-.05.151-.166a.2.2,0,0,0-.1-.2.754.754,0,0,0-.326-.062.466.466,0,0,0-.346.094.428.428,0,0,0-.1.209l-.648-.019a.844.844,0,0,1,.206-.49,1.193,1.193,0,0,1,.931-.276,1.792,1.792,0,0,1,.749.17.558.558,0,0,1,.31.574l-.038,1.051c0,.074,0,.163,0,.266a.327.327,0,0,0,.034.161.244.244,0,0,0,.1.072l0,.089-.73-.022a.6.6,0,0,1-.038-.13,1.166,1.166,0,0,1-.014-.142,1.329,1.329,0,0,1-.331.221,1.089,1.089,0,0,1-.5.1.916.916,0,0,1-.574-.194.6.6,0,0,1-.211-.511.647.647,0,0,1,.389-.6,1.824,1.824,0,0,1,.6-.13l.233-.019A1.025,1.025,0,0,0,182.9,170.582Zm1.462.43a.919.919,0,0,0,.01.355.423.423,0,0,0,.372.348.436.436,0,0,0,.362-.1.738.738,0,0,0,.216-.468.773.773,0,0,0-.053-.5.435.435,0,0,0-.326-.223.422.422,0,0,0-.461.221A1.05,1.05,0,0,0,184.358,171.012Zm.154,1.166a.851.851,0,0,1-.626-.41,1.238,1.238,0,0,1-.122-.854,1.4,1.4,0,0,1,.377-.792.812.812,0,0,1,.744-.223.735.735,0,0,1,.278.1.7.7,0,0,1,.286.377l.05-.319.559.091-.336,2.1a1.181,1.181,0,0,1-.247.624,1.052,1.052,0,0,1-1,.221,1.3,1.3,0,0,1-.66-.278.632.632,0,0,1-.214-.547l.624.1a.267.267,0,0,0,.055.161.492.492,0,0,0,.3.13.419.419,0,0,0,.449-.142,1.069,1.069,0,0,0,.142-.439l.022-.144a.668.668,0,0,1-.211.185A.719.719,0,0,1,184.512,172.178Zm2.782-1.711-.554,2.177-.571-.149.554-2.174Zm-.5-.408.132-.523.571.149-.134.523Zm.641,2.518a1.3,1.3,0,0,1,.029-.871,1.317,1.317,0,0,1,.557-.756.955.955,0,0,1,.833-.048,1.145,1.145,0,0,1,.586.406.881.881,0,0,1,.079.737l-.562-.2a.549.549,0,0,0,0-.242.358.358,0,0,0-.245-.23.4.4,0,0,0-.475.146,1.3,1.3,0,0,0-.19.372,1.188,1.188,0,0,0-.074.4.392.392,0,0,0,.281.394.335.335,0,0,0,.31-.01.54.54,0,0,0,.192-.238l.562.2a1,1,0,0,1-.346.415.927.927,0,0,1-.89.1A.944.944,0,0,1,187.43,172.577Zm2.347,1.169-.516-.245,1.272-2.741.516.245-.689,1.483,1.02-.451.653.31-1.07.415.161,1.622-.641-.3-.084-1.1-.324.125ZM210.6,212c.017.444-.151.816-1.037.979a6.013,6.013,0,0,1-2.928-.926,13.54,13.54,0,0,1-7.67-.545,5.732,5.732,0,0,1-3.415.458c-1.022-.2-1.687-1.008-1.553-1.5.149-.535,1.186-.545,1.735-.514a4.875,4.875,0,0,1-.938-.818c-1.435-1.7-1.944-4.138-2.3-6.478-.329-2.162-.547-4.279-.89-4.74-.439-.588-1.154-1.447-4-2.99a1.8,1.8,0,0,1-1.536.065c-.991-.362-1.5-4.349-.677-6.473a1.1,1.1,0,0,1-.432-.516c-.149.014-.43.029-.487-.072a1.345,1.345,0,0,1-.077-.7.655.655,0,0,1-.85.019c-.322-.242,0-.977,0-.977s-.581.235-.658-.194a1.941,1.941,0,0,1,.533-1.442,23.2,23.2,0,0,1-1.776-3.122c-.53-1.094-1.757-3.792-1.651-5.17l.067-.01c.041.11.1.269.17.47.566,1.594,1.994,5.606,3.6,7.605.677-.17,2.369-.242,2.731.106a3.4,3.4,0,0,1,.562,1.608c.24-.4.67-.859,1.157-.71.346.106.413.708,1.063,2.755a8.9,8.9,0,0,0,2.532,3.108,6.584,6.584,0,0,0,1.068.679c.012-.4.038-.8.079-1.214a.983.983,0,0,1-.3-.346,1.382,1.382,0,0,1,.113-1.409,1.7,1.7,0,0,1,.024-.758,4.435,4.435,0,0,1,.89-1.584s-.036-.274-.043-.542c-.494.24-1.3-.468-1.277-.883.055-.919.744-1.322,1.31-1.738v-.11h.144a2.185,2.185,0,0,0,.358-.336c.406-.5.917-1.387,1.608-2.3v-1.058h.89a29.636,29.636,0,0,1,4.553-3.984v-.17h.242a28.246,28.246,0,0,1,6.984-3.569s0,0,.01,0c.235-.086,1.27-.449,1.483-.3.391.264-.943.907-.943.907s-4.651,8.326-4.97,9.732-.146,2.537-.319,3.065-.29.542-.29.542.986,1.582.463,2.2a.269.269,0,0,1-.125.089c.154.811-.938,2.489-1.435,2.474a.059.059,0,0,1-.022,0c-.074.161-.206.451-.312.72-.283.722.1,2.393.437,3.662a10.833,10.833,0,0,0,4.627,2.65c.77.23.259,3.67-.449,5.3a.307.307,0,0,1,.048,0,.334.334,0,0,1,.348.41s.42-.221.564.118a1.347,1.347,0,0,1-.84,1.944,14.639,14.639,0,0,0,2.743,2.246,1.638,1.638,0,0,1,.23,1.584,4.33,4.33,0,0,1-.564,1.054C209.589,210.681,210.583,211.6,210.6,212Zm-40.972-40.063.05-.653-.5-.413.631-.154.233-.612.338.559.648.036-.42.5.166.636-.6-.252Zm-3.425,6.072.648.034-.422.5.168.634-.6-.252-.545.358.053-.655-.5-.413.631-.154.233-.612Zm-.744-4.438.024-.283-.226-.178.283-.065.1-.264.151.24.29.017-.19.214.074.274-.266-.108Zm4.879-5.53.024-.283-.226-.178.283-.065.1-.264.151.24.29.017-.19.214.074.274-.266-.108Zm9.6-1.992.031-.377-.3-.238.377-.086.139-.353.2.322.386.019-.252.288.1.365-.358-.146Zm3.158.967.024-.283-.226-.178.283-.065.1-.264.151.24.29.014-.19.216.074.274-.266-.108Zm8.249,1.4.022-.281-.226-.18.283-.065.1-.264.151.242.29.014-.187.214.074.274-.269-.108Zm-12.036,10.2.288.014-.187.214.074.274-.269-.108-.242.154.024-.281-.226-.18.281-.065.106-.264Zm-5.314.634.29.014-.19.216.074.274-.266-.11-.245.154.024-.281-.226-.178.281-.067.106-.262Zm-.581-2.424.29.017-.19.214.077.274-.269-.108-.242.154.022-.283-.226-.178.283-.065.1-.264Zm3.662-3.062.022-.283-.226-.178.283-.065.1-.264.151.24.29.017-.187.214.074.274-.269-.108Zm13.305,5.525.29.017-.19.214.074.274-.266-.108-.245.154.024-.283-.226-.178.283-.065.1-.264Zm-.341-3.758-.245.154.024-.283-.226-.178.283-.065.1-.264.151.24.29.017-.19.214.074.274Zm4.858-2.426.024-.281-.226-.178.283-.067.1-.264.151.242.29.014-.19.214.074.274-.266-.108Zm-22.128,11.268.648.036-.422.5.168.634-.6-.25-.545.355.053-.653-.5-.415.631-.151.233-.612Zm5.256-9.477.648.036-.422.5.168.634-.6-.25-.545.355.053-.653-.5-.415.631-.151.233-.612Zm3.473.6-.648-.031.42-.5-.173-.634.6.25.542-.362-.048.655.506.41-.631.156-.228.614Zm2.3,2.438.648.034-.422.5.168.634-.6-.252-.545.358.053-.655-.5-.413.631-.154.233-.612Zm9.993-1.308.053-.653-.5-.415.631-.151.233-.612.338.559.648.034-.422.5.168.634-.6-.25Zm-7.087,1.272-.641.11.3-.581-.3-.581.638.11.454-.47.094.65.581.29-.581.29-.094.648Zm-9.552-.374.065.653.566.317-.593.264-.122.646-.432-.492-.643.082.326-.566-.274-.593.634.139Zm8.678-9.417.05-.653-.5-.415.631-.151.233-.612.341.559.646.034-.42.5.166.634-.6-.25Zm-10.788.274-.17-.631-.612-.218.542-.36.017-.655.5.413.622-.19-.23.614.37.54-.648-.034Z" transform="translate(-164 -165)" fill="#fff" fill-rule="evenodd"/></svg>