<svg width="48" height="48" viewBox="0 0 48 48" fill="none" xmlns="http://www.w3.org/2000/svg">
<path fill-rule="evenodd" clip-rule="evenodd" d="M1.08993 5.46009C0 7.59921 0 10.3995 0 16V32C0 37.6005 0 40.4008 1.08993 42.5399C2.04867 44.4215 3.57847 45.9513 5.46009 46.9101C7.59921 48 10.3995 48 16 48H32C37.6005 48 40.4008 48 42.5399 46.9101C44.4215 45.9513 45.9513 44.4215 46.9101 42.5399C48 40.4008 48 37.6005 48 32V16C48 10.3995 48 7.59921 46.9101 5.46009C45.9513 3.57847 44.4215 2.04867 42.5399 1.08993C40.4008 0 37.6005 0 32 0H16C10.3995 0 7.59921 0 5.46009 1.08993C3.57847 2.04867 2.04867 3.57847 1.08993 5.46009ZM34.6499 12.1752V32.3562C34.6283 33.0505 34.6862 33.7449 34.8223 34.4261C34.8223 34.5085 34.8223 34.5516 34.8035 34.5835C34.7829 34.6183 34.7399 34.6398 34.6499 34.6848C32.8665 35.5199 30.9267 35.9681 28.9578 36C24.2144 36 20.7647 33.0677 20.7647 27.0307C20.7647 21.9207 24.2144 17.8673 29.6477 17.8673H30.7689V12.1752C30.7715 12.1303 30.7905 12.0879 30.8223 12.0561C30.8541 12.0243 30.8965 12.0053 30.9414 12.0027H34.4774C34.6499 12.0027 34.6499 12.089 34.6499 12.1752ZM29.1303 32.6149C29.6589 32.6203 30.1844 32.5327 30.6827 32.3562V21.4033C30.2604 21.2919 29.8257 21.2339 29.389 21.2308C26.6292 21.2308 24.6456 23.3869 24.6456 26.9229C24.6456 30.9979 26.6292 32.6149 29.1303 32.6149ZM13.2615 12.0027H16.625C16.8621 12.0027 16.8621 12.089 16.7974 12.2615V35.3747C16.7974 35.5472 16.7974 35.6335 16.5387 35.6335H13.2615C13.2262 35.639 13.1902 35.6361 13.1563 35.6251C13.1224 35.614 13.0915 35.5951 13.0663 35.5699C13.0411 35.5447 13.0222 35.5138 13.0111 35.4799C13.0001 35.446 12.9972 35.41 13.0027 35.3747V12.2615C12.9972 12.2262 13.0001 12.1902 13.0111 12.1563C13.0222 12.1224 13.0411 12.0915 13.0663 12.0663C13.0915 12.0411 13.1224 12.0222 13.1563 12.0111C13.1902 12.0001 13.2262 11.9972 13.2615 12.0027Z" fill="white"/>
</svg>
