<svg xmlns="http://www.w3.org/2000/svg" width="48" height="48" viewBox="0 0 48 48"><rect width="48" height="48" fill="none"/><path d="M17.091,3A13.1,13.1,0,0,0,4,16.091V37.909A13.1,13.1,0,0,0,17.091,51H38.909A13.1,13.1,0,0,0,52,37.909V16.091A13.1,13.1,0,0,0,38.909,3ZM13.4,19.44a1.262,1.262,0,1,1,0,2.52,1.262,1.262,0,1,1,0-2.52Zm11.367.622c3.982,0,6.436,2.782,6.436,7.244s-2.433,7.255-6.436,7.255c-4.025,0-6.469-2.793-6.469-7.255S20.8,20.062,24.771,20.062Zm14.105,0c2.8,0,4.855,1.636,4.985,3.971H41.767c-.207-1.276-1.309-2.073-2.924-2.073-1.7,0-2.825.807-2.825,2.062,0,.982.72,1.549,2.531,1.975l1.516.371c2.847.665,4.015,1.811,4.015,3.895,0,2.651-2.051,4.309-5.335,4.309-3.065,0-5.127-1.582-5.28-4.058h2.127c.185,1.309,1.473,2.149,3.316,2.149,1.724,0,2.989-.895,2.989-2.127,0-1.047-.8-1.68-2.629-2.116l-1.789-.425c-2.5-.589-3.644-1.8-3.644-3.829,0-2.465,2.018-4.1,5.04-4.1Zm-14.105,2c-2.607,0-4.265,2.04-4.265,5.247s1.6,5.258,4.265,5.258c2.629,0,4.244-2.062,4.244-5.258S27.4,22.058,24.771,22.058ZM12.378,23.793h2.051v10.44H12.378Z" transform="translate(-4 -3)" fill="#fff"/></svg>