<svg width="48" height="48" viewBox="0 0 48 48" fill="none" xmlns="http://www.w3.org/2000/svg">
<path d="M17.4417 37.1085C17.4417 37.1085 15.5967 38.2305 18.7242 38.5515C22.4892 39.0315 24.4947 38.952 28.6617 38.151C29.4992 38.6639 30.3849 39.0934 31.3062 39.4335C21.9312 43.4415 10.0662 39.1935 17.4402 37.1085H17.4417ZM16.2417 31.899C16.2417 31.899 14.2377 33.4215 17.3637 33.744C21.4512 34.1445 24.6567 34.224 30.1887 33.1035C30.7267 33.6491 31.3854 34.0607 32.1117 34.305C20.8107 37.671 8.14767 34.626 16.2417 31.9005V31.899ZM38.3622 41.034C38.3622 41.034 39.7242 42.156 36.8397 43.038C31.4697 44.643 14.3187 45.123 9.50967 43.038C7.82667 42.318 11.0322 41.2755 12.0597 41.115C13.1022 40.875 13.6647 40.875 13.6647 40.875C11.8197 39.5925 1.40217 43.5195 8.37567 44.64C27.5307 47.766 43.3197 43.278 38.3502 41.034H38.3622ZM18.3087 26.448C18.3087 26.448 9.57267 28.533 15.1827 29.253C17.5872 29.574 22.3152 29.493 26.7237 29.1735C30.3297 28.8525 33.9387 28.2135 33.9387 28.2135C33.9387 28.2135 32.6562 28.7745 31.7742 29.3355C22.8792 31.6605 5.80617 30.618 10.6962 28.2135C14.8632 26.2095 18.3102 26.451 18.3102 26.451L18.3087 26.448ZM33.9387 35.184C42.9147 30.534 38.7477 26.049 35.8617 26.6085C35.1417 26.769 34.8192 26.9295 34.8192 26.9295C34.8192 26.9295 35.0592 26.4495 35.6202 26.289C41.3112 24.285 45.7992 32.2995 33.7752 35.424C33.7752 35.424 33.8547 35.3445 33.9357 35.184H33.9387ZM19.1937 47.847C27.8487 48.408 41.0742 47.526 41.3937 43.437C41.3937 43.437 40.7532 45.042 34.2612 46.242C26.8872 47.604 17.7507 47.442 12.3807 46.563C12.3807 46.563 13.5027 47.523 19.1937 47.8455V47.847Z" fill="white"/>
<path d="M28.5027 0C28.5027 0 33.4722 5.049 23.7747 12.663C16.0002 18.834 22.0122 22.3605 23.7747 26.3685C19.2057 22.281 15.9207 18.6735 18.1647 15.309C21.4497 10.338 30.5067 7.9485 28.5027 0ZM25.9527 23.0025C28.2777 25.647 25.3122 28.0515 25.3122 28.0515C25.3122 28.0515 31.2432 25.0065 28.5177 21.2385C26.0337 17.6325 24.1077 15.8685 34.5282 9.858C34.5282 9.858 18.0987 13.9455 25.9527 23.0025Z" fill="white"/>
</svg>
