<?xml version="1.0" encoding="UTF-8"?>
<svg xmlns="http://www.w3.org/2000/svg" xmlns:xlink="http://www.w3.org/1999/xlink" width="48px" height="38px" viewBox="0 0 47 38" version="1.1">
<g id="surface1">
<path style=" stroke:none;fill-rule:nonzero;fill:rgb(0%,69.01961%,100%);fill-opacity:1;" d="M 0 20.726562 L 0 0.00390625 L 17.625 10.363281 L 17.625 17.273438 L 5.875 10.363281 L 5.875 24.179688 Z M 0 20.726562 "/>
<path style=" stroke:none;fill-rule:nonzero;fill:rgb(0%,50.588238%,79.607844%);fill-opacity:1;" d="M 17.625 10.363281 L 35.25 0.00390625 L 35.25 20.726562 L 23.5 27.636719 L 17.625 24.179688 L 29.375 17.273438 L 29.375 10.363281 L 17.625 17.273438 Z M 17.625 10.363281 "/>
<path style=" stroke:none;fill-rule:nonzero;fill:rgb(0%,69.01961%,100%);fill-opacity:1;" d="M 17.625 24.179688 L 17.625 31.085938 L 29.375 37.996094 L 29.375 31.085938 Z M 17.625 24.179688 "/>
<path style=" stroke:none;fill-rule:nonzero;fill:rgb(0%,50.588238%,79.607844%);fill-opacity:1;" d="M 29.375 37.996094 L 47 27.636719 L 47 13.820312 L 41.125 17.273438 L 41.125 24.179688 L 29.375 31.085938 Z M 41.125 10.363281 L 41.125 3.457031 L 47 0.00390625 L 47 6.914062 Z M 41.125 10.363281 "/>
</g>
</svg>
