<svg xmlns="http://www.w3.org/2000/svg" width="48" height="48" viewBox="0 0 48 48"><g transform="translate(0)"><rect width="48" height="48" fill="none"/><path d="M139.091,212.976c-1.5,0-2.573.067-3.636-.022a5.116,5.116,0,0,1-1.987-.427,2.1,2.1,0,0,0-.624-.1.563.563,0,0,1-.17-.026c-.454-.242-1-.24-1.438-.518-.014-.01-.031-.029-.048-.029-.466-.012-.816-.343-1.253-.439a.824.824,0,0,1-.31-.149,1.128,1.128,0,0,0-.47-.2,3.475,3.475,0,0,1-.842-.413c-.4-.2-.787-.446-1.2-.636a4.5,4.5,0,0,1-.55-.36c-.564-.367-1.133-.73-1.673-1.14-.492-.374-.984-.754-1.445-1.162a18.6,18.6,0,0,1-2.5-2.566c-.334-.439-.749-.814-1.056-1.272a11.717,11.717,0,0,1-.955-1.409,3.31,3.31,0,0,0-.331-.5,11.805,11.805,0,0,1-.871-1.493c-.163-.307-.307-.655-.48-.96a7.054,7.054,0,0,0-.535-1.15.543.543,0,0,1-.082-.271.934.934,0,0,0-.23-.547c-.019-.019-.048-.043-.05-.067-.024-.475-.372-.85-.408-1.322a1.028,1.028,0,0,0-.2-.588.789.789,0,0,1-.142-.516,1.517,1.517,0,0,0-.214-.85,1.287,1.287,0,0,1-.134-.7.967.967,0,0,0-.182-.756c-.05-.05-.046-.163-.046-.247-.031-2.2-.026-4.4,0-6.6a.392.392,0,0,1,.12-.338.427.427,0,0,0,.108-.374,4.006,4.006,0,0,1,.226-1.2c.144-.518.336-1.022.446-1.548a7.237,7.237,0,0,1,.586-1.582c.012-.026.043-.048.043-.074-.012-.437.314-.746.444-1.133a6.44,6.44,0,0,1,.506-.982c.139-.257.269-.521.42-.775.276-.463.547-.931.85-1.378a6.672,6.672,0,0,1,.936-1.224,10.561,10.561,0,0,1,1.19-.972c.312-.214.7-.254.974-.528a.486.486,0,0,1,.3-.089,1.344,1.344,0,0,0,.658-.192.322.322,0,0,1,.132-.058,5.252,5.252,0,0,1,2.311.108,4.741,4.741,0,0,0,.9.173.651.651,0,0,1,.362.156.3.3,0,0,0,.144.091,3.471,3.471,0,0,1,.955.355,9.4,9.4,0,0,1,1.214.607c.228.132.466.245.691.4a11.224,11.224,0,0,1,.941.643c.058.048.139.115.2.062.084-.062-.014-.132-.038-.2a10.548,10.548,0,0,0-.526-1.128c-.245-.456-.161-1.008-.521-1.4a.36.36,0,0,1-.05-.221,19.524,19.524,0,0,1,0-2.95.587.587,0,0,1,.13-.343.954.954,0,0,0,.175-.389,3.467,3.467,0,0,1,.588-1.087,5.422,5.422,0,0,1,.734-.84,11.471,11.471,0,0,1,1.258-.919c.346-.238.787-.245,1.085-.55a.477.477,0,0,1,.242-.079.922.922,0,0,0,.554-.216.126.126,0,0,1,.074-.043c.506,0,.938-.326,1.447-.326l5.237,0a.467.467,0,0,1,.439.154c.077.1.211.082.326.079a1.829,1.829,0,0,1,1.082.233.053.053,0,0,0,.026.012,15.477,15.477,0,0,1,2.03.446c.019,0,.041,0,.058,0,.506.264,1.1.259,1.6.545a.369.369,0,0,0,.1.053,6.206,6.206,0,0,1,1.133.374c.49.178.965.377,1.435.6.281.134.574.247.857.382.4.192.792.4,1.178.619.24.137.485.269.727.389a12.077,12.077,0,0,1,1.354.84,15.19,15.19,0,0,1,1.574,1.178c.5.449,1.042.864,1.526,1.332.55.533,1.03,1.128,1.538,1.7a21.939,21.939,0,0,1,1.526,2.066,2.656,2.656,0,0,1,.5.886,2.462,2.462,0,0,0,.343.588,10,10,0,0,0,.506.984.59.59,0,0,1,.127.317.736.736,0,0,0,.221.485.326.326,0,0,1,.1.173c.022.276.228.5.269.737.1.554.492,1.018.466,1.6a.221.221,0,0,0,.026.139c.3.406.182.917.343,1.339.223.59.156,1.217.322,1.788a11.607,11.607,0,0,1,.182,2.918c.031.917-.007,1.836,0,2.755a2.233,2.233,0,0,1-.17.734,3.531,3.531,0,0,0-.07,1.056,1.1,1.1,0,0,1-.094.5,1.619,1.619,0,0,0-.214.852,4.444,4.444,0,0,1-.334,1.284,1.932,1.932,0,0,1-.278.974.7.7,0,0,0-.07.3,1.108,1.108,0,0,1-.25.713.438.438,0,0,0-.1.3.844.844,0,0,1-.218.578.132.132,0,0,0-.046.072c0,.449-.319.78-.456,1.181a8.907,8.907,0,0,1-.444.979c-.17.355-.4.682-.547,1.054a7.282,7.282,0,0,1-.454.782,6.332,6.332,0,0,1-.622.986c-.43.53-.77,1.128-1.243,1.63-.35.374-.66.787-1.022,1.154s-.763.749-1.154,1.111a.684.684,0,0,1-.756-.048.6.6,0,0,1,.082-.732,16.761,16.761,0,0,0,2.1-2.148,18.134,18.134,0,0,0,1.2-1.663c.278-.446.562-.9.845-1.349a5.233,5.233,0,0,0,.482-.9c.113-.3.3-.562.42-.866.185-.487.415-.96.614-1.445a7.236,7.236,0,0,1,.53-1.375.186.186,0,0,0,.036-.077c-.01-.658.487-1.2.422-1.872a.341.341,0,0,1,.041-.221,2.281,2.281,0,0,0,.3-1.322,1.014,1.014,0,0,1,.014-.257,15.718,15.718,0,0,0,.334-4.582c.034-1.006-.017-2.009-.058-3.012a1.713,1.713,0,0,0-.168-.722c-.185-.346-.089-.737-.17-1.1-.007-.026,0-.06-.007-.084-.259-.562-.228-1.21-.533-1.757-.01-.017-.026-.034-.026-.05a6.393,6.393,0,0,0-.418-1.346.992.992,0,0,0-.223-.516.311.311,0,0,1-.089-.146,6.656,6.656,0,0,0-.773-1.666,15.929,15.929,0,0,0-.852-1.4c-.271-.415-.581-.8-.857-1.214a13.63,13.63,0,0,0-1.032-1.183,26.7,26.7,0,0,0-2.311-2.232c-.326-.3-.73-.514-1.075-.794-.413-.334-.9-.552-1.313-.89a2.32,2.32,0,0,0-.61-.35,8.108,8.108,0,0,1-.9-.48,4.351,4.351,0,0,1-.977-.511c-.022-.019-.048-.046-.072-.048-.437-.014-.739-.379-1.162-.442-.257-.041-.439-.247-.7-.319a7.338,7.338,0,0,1-1.618-.574.566.566,0,0,0-.247-.072,6.828,6.828,0,0,1-.965-.24,14.446,14.446,0,0,0-1.8-.451,2.092,2.092,0,0,1-1.027-.223,1.066,1.066,0,0,0-.562-.12,7.466,7.466,0,0,1-1.627-.2,7.94,7.94,0,0,0-2.5-.072,11.734,11.734,0,0,1-1.963.283.588.588,0,0,0-.379.122,1.079,1.079,0,0,1-.679.206.413.413,0,0,0-.226.036c-.468.317-1.01.5-1.478.833a5.2,5.2,0,0,0-1.2,1.164,1.851,1.851,0,0,0-.518,1.022.508.508,0,0,1-.053.223,3.81,3.81,0,0,0-.19,2.33,4.588,4.588,0,0,0,.358,1.4,7.423,7.423,0,0,0,.49,1.138,4.416,4.416,0,0,1,.47.9c.094.269.317.49.439.761a.348.348,0,0,0,.29.156,2.675,2.675,0,0,0,1.006-.2,1.086,1.086,0,0,1,.247-.144,8.608,8.608,0,0,0,1.793-.967c.449-.238.914-.614,1.474-.41a8.3,8.3,0,0,1,1.411.516c.389.226.739.516,1.13.71a2.318,2.318,0,0,0,1.4.427.99.99,0,0,1,.84.218.11.11,0,0,0,.077.036c.734,0,1.356.542,2.114.425a.826.826,0,0,1,.626.173.312.312,0,0,0,.127.067,7.064,7.064,0,0,1,1.519.461,4.536,4.536,0,0,1,.96.42,7.344,7.344,0,0,1,1.363.881c.3.254.562.542.84.816.216.211.338.5.571.706a.421.421,0,0,1,.134.278.611.611,0,0,0,.175.355.3.3,0,0,1,.089.113,4.77,4.77,0,0,1,.427,1.747.573.573,0,0,0,.437.7,2.824,2.824,0,0,1,1.279,1.13,4.833,4.833,0,0,1,.514.917,3.819,3.819,0,0,1,.49,1.39,2.248,2.248,0,0,0,.132.614,2.156,2.156,0,0,1,0,1.406,1.706,1.706,0,0,0-.132.674c0,.074,0,.182.041.218.271.226.257.619.516.847.007.007.017.017.017.024.019.5.413.9.413,1.406,0,.307-.022.617.007.919a3.306,3.306,0,0,1-.586,1.946c-.23.418-.482.814-.737,1.212-.156.245-.374.434-.542.667a.7.7,0,0,0-.161.444c0,.221,0,.439-.01.66a.872.872,0,0,1-.192.562.6.6,0,0,0-.151.394.459.459,0,0,1-.137.307.707.707,0,0,0-.149.209,4.977,4.977,0,0,1-1.282,1.639,4.231,4.231,0,0,1-1.123.811,3.221,3.221,0,0,1-1.217.466,1.731,1.731,0,0,0-1.409.538,4.831,4.831,0,0,1-1.037,1.015,8.9,8.9,0,0,1-.8.487,10.48,10.48,0,0,0-1.1.523.378.378,0,0,1-.125.07,5.276,5.276,0,0,1-2.878.3c-.494-.166-1.073-.127-1.5-.514a.31.31,0,0,0-.214-.074,4.676,4.676,0,0,1-1.049-.247c-.562-.091-1.058-.367-1.615-.439a.9.9,0,0,1-.5-.194.524.524,0,0,0-.293-.113,1.18,1.18,0,0,1-.744-.264.47.47,0,0,0-.3-.084.959.959,0,0,1-.636-.233.423.423,0,0,0-.293-.106.783.783,0,0,1-.55-.221.343.343,0,0,0-.149-.086,6.218,6.218,0,0,1-1.726-.95c-.713-.466-1.38-.989-2.057-1.5a5.673,5.673,0,0,1-.691-.506.62.62,0,0,1-.2-.571,5.041,5.041,0,0,0,.046-1.058c-.022-.7.053-1.4.07-2.093,0-.24,0-.518.288-.641a.66.66,0,0,1,.77.149.277.277,0,0,0,.122.074,3.148,3.148,0,0,1,1.042.394c.077.031.192.091.24,0,.058-.106-.079-.132-.146-.17-.355-.2-.66-.482-1.042-.655-.19-.084-.319-.29-.5-.415a.22.22,0,0,1,.089-.386.529.529,0,0,1,.528.036,1.54,1.54,0,0,0,.955.257,1.722,1.722,0,0,1,.742.194,2.8,2.8,0,0,0,.962.156c.084.014.19,0,.254.036a2.686,2.686,0,0,0,1.246.307.813.813,0,0,1,.425.168c.038.029.084.072.122.07.47-.026.816.3,1.236.422a9.2,9.2,0,0,1,.953.444c.389.163.754.386,1.142.562a5.689,5.689,0,0,1,.821.434,6.4,6.4,0,0,1,.89.5c.2.182.538.072.775-.091a3.641,3.641,0,0,1,.96-.545,3.712,3.712,0,0,1,.924-.348c.175-.01.278-.24.36-.391a4.176,4.176,0,0,1,1.2-1.356.559.559,0,0,0,.266-.617.572.572,0,0,1,.029-.365c.228-.439.209-.97.547-1.368.13-.154.106-.41.314-.528a.063.063,0,0,0,.01-.1.089.089,0,0,0-.127.017c-.137.142-.334.2-.468.326a8.771,8.771,0,0,1-1.138.792c-.132.086-.281.134-.394.007s-.012-.247.1-.362a13.429,13.429,0,0,1,1.344-1.133c.118-.094.194-.226.326-.317s.024-.2-.055-.286c-.11-.125-.235-.218-.391-.074s-.3.283-.47.415c-.437.353-.845.737-1.265,1.106-.106.094-.228.13-.336.022a.219.219,0,0,1,.019-.314c.463-.5.922-1,1.4-1.488.146-.149.257-.326.418-.468.144-.122-.017-.547-.2-.61-.091-.031-.139.026-.194.084-.458.482-.9.984-1.385,1.433a7.681,7.681,0,0,1-1.044.95c-.086.055-.163.173-.274.079s-.079-.23,0-.338c.211-.269.43-.53.641-.8.3-.382.607-.761.886-1.157.118-.168.3-.266.406-.444.084-.137.058-.158-.084-.206a.88.88,0,0,0-1.049.446c-.149.209-.341.374-.492.581a8.16,8.16,0,0,1-1.085,1.2,4.643,4.643,0,0,0-.406.319.141.141,0,0,1-.209,0,.154.154,0,0,1-.007-.233c.384-.4.545-.958.919-1.361.326-.348.535-.78.862-1.126a.256.256,0,0,0,0-.4.241.241,0,0,0-.4.024c-.35.42-.708.833-1.027,1.282a4.475,4.475,0,0,1-.9.979.459.459,0,0,0-.149.17c-.065.127-.161.259-.31.158s-.13-.293-.024-.432c.086-.11.173-.226.264-.331.331-.377.468-.888.874-1.212a1.319,1.319,0,0,0,.262-.432c.168-.31.466-.535.562-.883.074-.274-.031-.434-.317-.444a4.275,4.275,0,0,1-1.138-.154c-.293-.091-.574.122-.806.293-.269.2-.581.319-.847.523s-.59.365-.883.55c-.25.161-.5.312-.761.454a3.032,3.032,0,0,0-.881.919,8.639,8.639,0,0,1-.574.838c-.18.19-.276.466-.48.66-.1.1-.17.276-.341.17a.282.282,0,0,1-.062-.41c.223-.252.25-.586.442-.857a3.326,3.326,0,0,0,.422-.828,1.752,1.752,0,0,1,.9-1.08c.233-.12.456-.3.686-.454.283-.185.566-.374.852-.559s.557-.36.835-.542c.048-.031.108-.067.091-.132-.022-.082-.1-.082-.168-.082a1.4,1.4,0,0,0-.917.245,4.457,4.457,0,0,1-.83.485c-.266.11-.511.312-.778.454a7.185,7.185,0,0,1-.953.545,1.143,1.143,0,0,0-.468.41c-.257.317-.47.665-.7,1-.262.384-.506.78-.785,1.15a1.661,1.661,0,0,1-.439.317.14.14,0,0,1-.182-.043.132.132,0,0,1,.022-.2.6.6,0,0,0,.19-.49c0-.048,0-.118.029-.137.286-.206.307-.559.454-.835a5.416,5.416,0,0,0,.506-1.032c.1-.365.434-.521.715-.708a10.234,10.234,0,0,0,1.027-.6,2.9,2.9,0,0,1,.629-.326c.312-.142.545-.422.9-.485a.379.379,0,0,0,.228-.166c.082-.106.046-.187-.079-.206a.824.824,0,0,0-.641.1,6.684,6.684,0,0,1-1.145.547q-.533.259-1.066.521c-.05.026-.094.089-.144.091a3.462,3.462,0,0,0-1.1.47,3.093,3.093,0,0,0-.982.492c-.014.014-.029.031-.046.034-.482.082-.569.542-.826.84-.35.413-.571.914-.938,1.32a2.32,2.32,0,0,0-.355.538c-.13.269-.367.379-.559.554-.058.053-.125.11-.2.031a.14.14,0,0,1,.012-.209.53.53,0,0,0,.173-.463c0-.065.007-.158.05-.19.276-.194.276-.552.485-.792a2.98,2.98,0,0,0,.336-.65,10.433,10.433,0,0,0,.487-.934,1.471,1.471,0,0,1,1.027-.881c.046-.012.11,0,.137-.031.29-.3.73-.3,1.066-.535a7.514,7.514,0,0,1,.9-.415,13.266,13.266,0,0,0,1.32-.629c.2-.127.475-.082.67-.245.067-.058.2-.082.158-.2-.038-.1-.156-.115-.25-.11a1.521,1.521,0,0,0-.881.223c-.036.031-.079.074-.12.077-.526.026-.953.384-1.471.437-.029,0-.062,0-.084.01-.43.283-.974.257-1.409.528a.654.654,0,0,1-.3.1,1.224,1.224,0,0,0-.751.259.291.291,0,0,1-.182.072c-.374,0-.518.259-.689.526-.185.288-.341.6-.533.878-.163.242-.29.511-.463.749-.221.3-.3.686-.593.946a.2.2,0,0,0-.07.122c0,.377-.4.523-.492.847-.007.029-.053.058-.086.07-.113.041-.209.2-.331.11-.106-.074-.014-.214,0-.324a.8.8,0,0,1,.221-.516.449.449,0,0,0,.11-.29.474.474,0,0,1,.17-.35c.038-.031.089-.07.091-.108a2.751,2.751,0,0,1,.463-1.027,4.364,4.364,0,0,1,.5-1.037.628.628,0,0,0,.137-.281,1.558,1.558,0,0,1,1.315-1.183,1.265,1.265,0,0,0,.715-.262c.067-.074.18-.058.274-.072a1.2,1.2,0,0,0,.751-.254.043.043,0,0,1,.024-.014c.514,0,.929-.336,1.418-.415a1.053,1.053,0,0,0,.583-.211.777.777,0,0,1,.521-.134c.058,0,.127,0,.146-.065s-.038-.1-.079-.139a1.408,1.408,0,0,0-1.562-.077c-.038.029-.072.084-.11.089a7.58,7.58,0,0,0-1.26.41,1.556,1.556,0,0,0-.665.242.149.149,0,0,1-.024.017c-.487.06-.9.362-1.378.439a.788.788,0,0,0-.425.154.7.7,0,0,1-.449.18.545.545,0,0,0-.521.35c-.206.514-.571.936-.818,1.428a7.206,7.206,0,0,1-.506.874,3.594,3.594,0,0,0-.5.816c-.079.233-.276.278-.458.353-.11.043-.139-.038-.1-.13.11-.293.022-.66.336-.886.058-.043.05-.178.074-.269.019-.074.012-.175.06-.216.178-.146.18-.367.276-.54.166-.3.269-.624.43-.919a2.006,2.006,0,0,0,.245-.542,2.886,2.886,0,0,1,.432-.768.244.244,0,0,1,.2-.106,1.058,1.058,0,0,0,.65-.278.479.479,0,0,1,.3-.074.83.83,0,0,0,.554-.209.137.137,0,0,1,.07-.05c.468-.031.84-.348,1.294-.42a.887.887,0,0,0,.526-.2c.022-.019.046-.046.072-.048a12.62,12.62,0,0,0,1.38-.439c.113-.022.247-.012.264-.166s-.089-.2-.206-.24a2.255,2.255,0,0,1-.626-.451c-.432-.341-.907-.626-1.32-.982-.482-.418-1.01-.77-1.5-1.178a10.834,10.834,0,0,0-1.087-.821c-.389-.247-.713-.593-1.1-.842a6.923,6.923,0,0,0-1.361-.874,1.251,1.251,0,0,1-.492-.461c-.118-.156.022-.346.257-.36.29-.014.578,0,.869-.01.074,0,.173.026.209-.055.048-.1-.062-.146-.115-.206a.931.931,0,0,0-.336-.221.349.349,0,0,1-.206-.449c.058-.2.187-.228.391-.242.869-.058,1.738-.043,2.6-.019.73.022,1.457-.024,2.186-.022.079,0,.163,0,.194-.089.041-.1-.038-.154-.113-.2-.533-.362-1.078-.708-1.632-1.042a7.439,7.439,0,0,0-.9-.485c-.394-.168-.739-.49-1.21-.48a.389.389,0,0,1-.223-.05c-.559-.422-1.226-.247-1.846-.329a11.993,11.993,0,0,0-1.759.058.588.588,0,0,0-.25.06,5.978,5.978,0,0,0-1.956,1.4,4.667,4.667,0,0,0-.864,1.238,2.187,2.187,0,0,1-.341.49,4.589,4.589,0,0,0-.492.828,4.71,4.71,0,0,0-.48.982c-.007.038-.007.089-.031.108-.312.247-.262.691-.538.958a.123.123,0,0,0-.041.072,3.162,3.162,0,0,1-.466,1.272c-.254.526-.192,1.126-.523,1.618a1.585,1.585,0,0,0-.12.787,1.1,1.1,0,0,1-.134.518,1.079,1.079,0,0,0-.156.518,18.177,18.177,0,0,1-.254,2.246,9.246,9.246,0,0,0,.046,3.2,9.9,9.9,0,0,1,.2,1.937,1.45,1.45,0,0,0,.187.77,2.35,2.35,0,0,1,.154.782c.007.038-.007.082.007.115a11.22,11.22,0,0,0,.569,1.774c.014.024.038.05.038.074a2.947,2.947,0,0,0,.353,1.13c.192.492.4.97.624,1.447a4.206,4.206,0,0,1,.454.97,1.994,1.994,0,0,0,.377.662c.278.449.516.924.823,1.361.293.42.6.828.886,1.258a9.807,9.807,0,0,0,1.046,1.274c.564.612,1.09,1.265,1.706,1.819.461.413.914.838,1.406,1.222.358.281.713.569,1.087.826.254.175.5.367.768.53a3.489,3.489,0,0,1,.756.5,2.469,2.469,0,0,0,.624.334c.288.17.6.324.893.49.348.2.744.293,1.073.518a.632.632,0,0,0,.312.137.784.784,0,0,1,.518.221.125.125,0,0,0,.074.046c.5.019.9.358,1.385.422a.152.152,0,0,1,.058.007c.624.334,1.361.262,2,.554a2.683,2.683,0,0,0,1.027.122,4.017,4.017,0,0,1,1.054.149,4.292,4.292,0,0,0,1.174.137,11.469,11.469,0,0,0,2.738-.07c.773-.161,1.543-.187,2.316-.271a.68.68,0,0,0,.271-.1,1.328,1.328,0,0,1,.744-.185,1.454,1.454,0,0,0,.9-.238.708.708,0,0,1,.358-.106,1.141,1.141,0,0,0,.7-.23.142.142,0,0,1,.077-.041c.509.017.9-.346,1.375-.427a.527.527,0,0,0,.293-.115.785.785,0,0,1,.545-.228.471.471,0,0,0,.307-.146.645.645,0,0,1,.384-.18.516.516,0,0,0,.374-.194.09.09,0,0,1,.041-.038c.59-.192,1.07-.61,1.656-.809.326-.108.744.026.816.242s-.18.528-.48.708c-.334.2-.682.382-1.027.554-.317.158-.636.334-.958.487a5.666,5.666,0,0,0-1.217.547.547.547,0,0,1-.3.1.628.628,0,0,0-.374.132c-.166.156-.391.144-.576.226-.514.228-1.087.266-1.586.523a1.7,1.7,0,0,1-.7.144,1.232,1.232,0,0,0-.6.161c-.257.163-.564.11-.84.185a17.082,17.082,0,0,1-3.754.185" transform="translate(-115 -165)" fill="#fff" fill-rule="evenodd"/></g></svg>