<svg xmlns="http://www.w3.org/2000/svg" width="48" height="48" viewBox="0 0 48 48"><rect width="48" height="48" transform="translate(0)" fill="none"/><path d="M231.84,123.446a2.77,2.77,0,1,0-2.743-2.768A2.754,2.754,0,0,0,231.84,123.446ZM245.618,136.3c-5.962,2.725-17.072-2.673-19.715,4.9a43.479,43.479,0,0,0-1.348,7.35c-13.326,0-13.535-22.111-3.434-22.111,0,0,5.857-.018,5.857-.036h13.155v-1.161h-13.16c-.023-2.482-.073-5.6.409-7.326,4.191-3.464,17.467-4.439,20.26.409C249.782,122.037,249.241,134.64,245.618,136.3ZM243.1,151.53a2.768,2.768,0,1,0,2.748,2.768A2.754,2.754,0,0,0,243.1,151.53Zm7.616-24.624c14.342,0,13.508,22.113,4.2,22.113,0,0-6.485.02-6.485.036H235.276v1.164h13.162c.023,2.482.073,5.6-.409,7.321-4.2,3.468-17.472,4.441-20.26-.409-2.141-3.712-1.6-16.315,2.025-17.972,5.964-2.723,17.072,2.671,19.715-4.9A38.6,38.6,0,0,0,250.716,126.905Z" transform="translate(-214 -114)" fill="#fff" fill-rule="evenodd"/></svg>