<svg xmlns="http://www.w3.org/2000/svg" width="48" height="48" viewBox="0 0 48 48"><rect width="48" height="48" fill="none"/><path d="M71.371,108.126h1.817v-1.46H71.371Zm4.469-.94c-.139,2.647-1.984,2.677-1.984,2.677l2.564,2.544H73.188l-1.917-1.9v2.135H69.164v-8.2h2.7C73.994,104.443,75.841,104.757,75.841,107.186Zm4.092,1.593h2.029v-2.245H79.932Zm1.014-4.3c1.124,0,3.221.073,3.221,1.947V112.4H81.995v-1.361H79.9v1.394H77.736v-5.7c0-2.157,1.6-2.263,2.754-2.256C80.655,104.477,80.806,104.476,80.947,104.476Zm5.388,7.846v-7.841h2.237v7.841Zm6.783-7.771v5.794H96.3v2.082H90.916v-7.841Zm8.251,2.844c.8,0,2.482-.035,2.482,2.464s-1.154,2.637-3.5,2.637H97.524v-1.908h3.251c.979,0,1.033-.317,1.033-.592s-.5-.4-1.518-.4-2.906-.5-2.906-2.439.979-2.672,2.937-2.672,3.112.035,3.112.035v2.116h-3.6v.763ZM92.593,67.22c6.993-.625,12.518,4.926,12.518,4.926l-.839,1.249a7.15,7.15,0,0,0-5.944-1.943c-3.846.416-10.629,4.3-11.678,12.837s3.077,17.833,3.077,17.833h-18.6s-.489-3.053.7-8.882,2.937-9.714,5.944-15.265S85.6,67.845,92.593,67.22ZM71.056,93.1l-.63,3.608L67,96.293l.419-3.469Zm3.077-10.616-.979,2.706-3.286-1.041,1.049-2.914Zm5.454-8.812L77.7,75.894l-2.517-1.665,1.958-2.151Zm7.062-5.69L84.342,69.3,82.664,67.29l2.308-1.18Zm7.483-1.04-2.867.07L90.846,65l3.007.139Zm8.741,1.873-.42.624L100.5,68.4l.07-1.249Zm-.839,4.094v.833l-1.888-.208V72.494Zm-7.9.486,1.958-.486.28,1.11-1.329,1.041Zm-1.469,4.233-.839,1.457L89.8,76.866l1.469-1.318Zm-5.1,5.481.909-1.8L90.5,82.833l-.559,2.29Zm-.21,6.939.14-2.428,2.657,1.387.14,2.29Zm5.384,8.882-3.706-.208-.7-2.5H91.4Z" transform="translate(-61.327 -65)" fill="#fff" fill-rule="evenodd"/></svg>