<svg xmlns="http://www.w3.org/2000/svg" width="48" height="48" viewBox="0 0 48 48"><g transform="translate(0 0)"><rect width="48" height="48" fill="none"/><path d="M253.322,353.316a21.546,21.546,0,0,1-23.6,4.679,22.168,22.168,0,0,1-4.168-2.281,24.059,24.059,0,0,0,2.607.257c.338.015.676.021,1.014.021a23.55,23.55,0,0,0,6.605-.943,45.74,45.74,0,0,0,4.6-1.713c.941-.39,1.914-.793,2.876-1.139a32.545,32.545,0,0,1,12.545-1.857,21.821,21.821,0,0,1-2.473,2.978m-35.574-7.661a17.2,17.2,0,0,1,9.946-1.69,34.814,34.814,0,0,1,7.889,2.4,45.974,45.974,0,0,0,6.789,2.252,23.966,23.966,0,0,0,3.087.461q-1.521.394-3,.922c-1.012.367-2.01.781-2.976,1.179a42.853,42.853,0,0,1-4.36,1.63,21.279,21.279,0,0,1-13.377-.482A21.965,21.965,0,0,1,218,346.281c-.086-.207-.169-.415-.248-.626m4.79-22.829a17.377,17.377,0,0,0,7.609.33,32.794,32.794,0,0,0,6.73-2.254,35.614,35.614,0,0,1,5.449-1.943,16.887,16.887,0,0,1,5.159-.415,21.721,21.721,0,0,1,5.839,4.141c.255.253.5.515.745.783a20.889,20.889,0,0,1-9.293,2.492,42.45,42.45,0,0,1-7.947-.812,49.782,49.782,0,0,0-7.553-.849,25.285,25.285,0,0,0-9.285,1.686,21.288,21.288,0,0,1,2.546-3.158M229.715,318A21.837,21.837,0,0,1,238,316.331h0a21.253,21.253,0,0,1,3.811.353l-.023,0a37.883,37.883,0,0,0-5.806,2.062,30.546,30.546,0,0,1-6.248,2.11,15.052,15.052,0,0,1-5.036.048A22.025,22.025,0,0,1,229.715,318m28.99,13.663a22.265,22.265,0,0,0-16.368-2.519,44.07,44.07,0,0,0-7.342,2.638q-.5.216-1,.428c-.843.359-1.828.768-2.84,1.137a21.408,21.408,0,0,0-2.982-.522,19.117,19.117,0,0,0-8.515,1.114,15.853,15.853,0,0,1-2.671-1.158A22.134,22.134,0,0,1,218,329.721c.048-.115.1-.232.15-.346a23.218,23.218,0,0,1,11.1-2.744,47.742,47.742,0,0,1,7.2.818,44.911,44.911,0,0,0,8.387.841,23.241,23.241,0,0,0,10.712-2.978A22.018,22.018,0,0,1,258,329.719c.265.637.5,1.288.7,1.947M248.5,336.877a26.529,26.529,0,0,0-4.07,1.567c-1.782-.607-3.558-1.386-5.28-2.139-.453-.2-.92-.4-1.384-.6-.973-.419-2-.849-3.082-1.25l.215-.092q.507-.213,1.01-.43a42.056,42.056,0,0,1,6.947-2.511,19.97,19.97,0,0,1,16.593,3.546q.138.936.19,1.87a20.977,20.977,0,0,0-11.14.042m6.849,10.9a23.447,23.447,0,0,0,2.469-1.062c-.2.47-.428.931-.664,1.382-.8-.067-1.592-.109-2.387-.119q.291-.1.582-.2m-14.275-4.913a38.022,38.022,0,0,1,8.062-3.74,18.651,18.651,0,0,1,10.493.14,21.676,21.676,0,0,1-.649,4.1,21,21,0,0,1-16.111,2.98,36.606,36.606,0,0,1-5.163-1.649c1.15-.586,2.271-1.212,3.368-1.828m-24.593-7.382c.013-.1.027-.2.04-.307l.263.127c-.1.058-.2.119-.3.179m-.15,2.913a16.277,16.277,0,0,1,2.709-1.655,16.762,16.762,0,0,1,8.9-1.588,30.856,30.856,0,0,1,8.905,2.7c.457.2.92.4,1.371.6,1.112.486,2.25.985,3.406,1.446-.568.309-1.129.624-1.686.935-1.693.95-3.441,1.928-5.22,2.707a30.835,30.835,0,0,0-6.71-1.876,19.5,19.5,0,0,0-10.977,1.757,21.618,21.618,0,0,1-.7-5.019m43.822-9.567A24.074,24.074,0,0,0,238,314h0a23.951,23.951,0,1,0,24,24v0a24.2,24.2,0,0,0-1.847-9.174" transform="translate(-214 -314)" fill="#fff" fill-rule="evenodd"/></g></svg>