<svg xmlns="http://www.w3.org/2000/svg" width="48.539" height="48.5" viewBox="0 0 48.539 48.5"><g transform="translate(0.5 0.5)"><rect width="48" height="48" transform="translate(0.001)" fill="none"/><path d="M10984.962,1475.4q-4.368-1.749-8.744-3.479-4.737-1.886-9.478-3.771-2.377-.949-4.76-1.89c-.346-.138-.432-.254-.432-.627v-6.244c0-.077.012-.152.017-.229.343.141.646.271.951.392q3.469,1.384,6.945,2.763l7.292,2.9q3.476,1.38,6.948,2.757c.437.174.873.343,1.307.522a.747.747,0,0,0,.6,0c.965-.387,1.935-.768,2.9-1.152q3.809-1.517,7.62-3.028,3.514-1.4,7.026-2.8,2.719-1.078,5.438-2.158c.146-.058.287-.13.461-.21.009.088.02.157.02.227q0,3.158,0,6.311a.5.5,0,0,1-.39.561q-2.363.941-4.722,1.876-3.46,1.376-6.924,2.755l-8.073,3.2c-1.094.434-2.191.868-3.285,1.312a.923.923,0,0,1-.355.076A.962.962,0,0,1,10984.962,1475.4Zm0-10.85c-1.5-.6-3-1.191-4.493-1.788l-8.866-3.523q-4.774-1.9-9.543-3.791c-.069-.028-.138-.055-.2-.086a.505.505,0,0,1-.3-.45,2.085,2.085,0,0,1,0-.221v-6.112c0-.086.009-.169.017-.257l2.279.912q3.328,1.326,6.659,2.65,4.422,1.761,8.847,3.52,2.818,1.119,5.637,2.244a.793.793,0,0,0,.635.005q3.246-1.3,6.493-2.589,3.4-1.351,6.808-2.7,4.053-1.612,8.109-3.23c.517-.2,1.033-.409,1.55-.619.149-.058.293-.13.47-.207.006.1.02.18.02.263v6.136c0,.072,0,.146,0,.218a.455.455,0,0,1-.287.431c-.187.083-.376.16-.569.235l-5.089,2.02q-3.419,1.359-6.841,2.724l-7.623,3.025c-.992.4-1.989.785-2.981,1.188a.95.95,0,0,1-.359.075A.964.964,0,0,1,10984.957,1464.547Zm-.136-10.717c-1.935-.785-3.876-1.55-5.818-2.321q-3.565-1.421-7.129-2.838-4.414-1.753-8.824-3.509c-.368-.146-.738-.287-1.105-.437a.532.532,0,0,1-.4-.6c0-2.089,0-4.177-.006-6.266a.608.608,0,0,1,.42-.622c1.547-.608,3.092-1.224,4.639-1.837l5.391-2.147c1.227-.489,2.454-.973,3.678-1.462s2.465-.984,3.7-1.473q2.562-1.02,5.128-2.034c.183-.075.37-.141.55-.224a.649.649,0,0,1,.55,0c.578.235,1.158.464,1.735.694l7.07,2.81,6.637,2.644,7.6,3.023c.362.144.434.243.434.644V1441h.006c0,1.042-.006,2.08.006,3.122a.576.576,0,0,1-.409.619c-1.412.555-2.821,1.119-4.23,1.68q-2.47.982-4.942,1.967l-5.658,2.246c-2.678,1.064-5.354,2.125-8.026,3.2a1.29,1.29,0,0,1-.485.1A1.338,1.338,0,0,1,10984.821,1453.83Zm3.732-12.875c-.1.011-.213.025-.323.036l-2.556.257-3.172.323c-.721.075-1.442.144-2.163.218l-1.769.182c-.24.025-.48.052-.721.08-.077.011-.166.036-.157.122a.26.26,0,0,0,.127.155,1.941,1.941,0,0,0,.281.122q3.441,1.4,6.88,2.807l1.119.453c.188.075.234.055.337-.122.033-.055.063-.116.094-.174q.568-1.078,1.133-2.161.527-1,1.05-2.006c.107-.2.066-.293-.141-.293Zm7.277-5.728c-.245.1-.488.2-.734.3q-2.408.957-4.818,1.912a.95.95,0,0,0-.122.052c-.138.08-.144.182-.011.265a1.173,1.173,0,0,0,.16.072l3.658,1.509c.887.365,1.773.724,2.66,1.094a.435.435,0,0,0,.379-.005c.124-.058.257-.105.384-.16q2.562-1.049,5.123-2.1c.1-.039.234-.05.24-.191s-.144-.169-.246-.21q-1.3-.526-2.608-1.05l-3.586-1.451c-.094-.036-.19-.066-.285-.1C10995.953,1435.183,10995.89,1435.2,10995.831,1435.227Zm-26.217,1.058a3.549,3.549,0,0,0-1.116.6,2.2,2.2,0,0,0-.423.47,1,1,0,0,0-.039,1.067,1.739,1.739,0,0,0,.515.591,3.8,3.8,0,0,0,.887.522,9.883,9.883,0,0,0,3.31.729,13.721,13.721,0,0,0,2.261-.044,7.977,7.977,0,0,0,2.544-.649,2.534,2.534,0,0,0,1.025-.768,1.055,1.055,0,0,0,.02-1.343,2.343,2.343,0,0,0-.713-.644,5.779,5.779,0,0,0-1.365-.6,11.886,11.886,0,0,0-3.486-.478A10.413,10.413,0,0,0,10969.614,1436.285Zm11.231-5.526c-.113.119.011.235.061.337.227.47.461.934.69,1.4.036.069.061.141.1.229-.08.025-.133.047-.187.058-.5.1-1.006.2-1.512.3-.826.16-1.655.315-2.481.478a.674.674,0,0,0-.207.066.124.124,0,0,0-.058.1.163.163,0,0,0,.088.108.566.566,0,0,0,.191.036c.19.017.381.025.571.039q1.293.1,2.586.2c.533.039,1.066.083,1.6.122a.291.291,0,0,1,.271.182c.1.213.207.423.313.633.185.365.364.732.555,1.1.094.18.169.191.329.069l.066-.058c.588-.495,1.183-.986,1.763-1.489a.646.646,0,0,1,.517-.174c.688.058,1.373.1,2.061.157l2.653.191a.394.394,0,0,0,.151-.005.168.168,0,0,0,.1-.1.16.16,0,0,0-.056-.127.809.809,0,0,0-.179-.086l-3.238-1.252c-.066-.025-.13-.058-.227-.1.077-.069.127-.119.182-.166.515-.434,1.031-.868,1.545-1.3a1.125,1.125,0,0,0,.177-.166c.083-.1.033-.207-.1-.21a1.2,1.2,0,0,0-.263.033q-1.985.381-3.97.765a.732.732,0,0,1-.429-.044q-1.67-.647-3.343-1.285a.713.713,0,0,0-.221-.084A.134.134,0,0,0,10980.846,1430.76Z" transform="translate(-10961.538 -1428)" fill="#fff" stroke="rgba(0,0,0,0)" stroke-miterlimit="10" stroke-width="1"/></g></svg>