<svg xmlns="http://www.w3.org/2000/svg" width="48" height="48" viewBox="0 0 48 48"><g transform="translate(0 0)"><rect width="48" height="48" transform="translate(0 0)" fill="none"/><path d="M109.157,370.072c-.236-.19-.377-.029-.377-.029-.09-.122-.284.038-.284.038-.052-.084-.2-.106-.2-.106-.155-.142-.425.118-.425.118-.125-.12-.432.281-.432.281-.14-.055-.3.214-.334.353s-.233.228-.233.228a14.071,14.071,0,0,0-1.563,1.032,2.5,2.5,0,0,1-.881.518,8.285,8.285,0,0,0-1.164.5c-.491-.715-1.433-1.135-1.622-.97s-1.127.694-1.426.912a11.849,11.849,0,0,1-2.768,1.034,32.753,32.753,0,0,0-4.594,2.539c-.46.288-1.548,1.087-2.042,1.428s-1.665.324-2,.494-1.357.811-1.58.9a8.005,8.005,0,0,1-1.427,0,2.141,2.141,0,0,0-1.007.442c-.124.1-.266.091-.23-.014s-1.911.485-2.047.329.09-.492,0-.43a.692.692,0,0,0-.256.554c.011.053-.043.067-.13.07,0,0-.55-.144-.793-.211l-.112-.043s0,.007,0,.012,0,0,0,0,0,0,0,0,0,0,0,0l-.171-.07c-.15-.06-.136.094-.256.046a5.188,5.188,0,0,1-.633-.785s.965-.446,1.793-.847a8.43,8.43,0,0,0,1.461-.787,6.657,6.657,0,0,0,1.16-2.172,24.064,24.064,0,0,0,.271-2.851A19.386,19.386,0,0,1,85,370.46c.075-.338-.558-.478-.919-.4a4.045,4.045,0,0,1-1.145-.077,9.184,9.184,0,0,1-.558-1.2,7.778,7.778,0,0,1-.151-1.08,1.4,1.4,0,0,0-.15-.631,1.223,1.223,0,0,1-.106-.432,2.568,2.568,0,0,0-.09-.463c-.046-.168-.2-.122-.362-.122s-.166.139-.166.062-.091-.139-.226-.2a.417.417,0,0,0-.3.017,1.128,1.128,0,0,1-.075-.2c-.015-.077-.091-.23-.166-.509s-.272-.216-.272-.216c-.166,0-.09.54-.09.54-.045-.154-.151-.108-.151-.108-.136.062-.181.708-.166.818s0,.415.03.646-.12.415-.151.631a.616.616,0,0,0,.2.6,6.844,6.844,0,0,1,.919,1.339c.06.185.135.463.21.509a.621.621,0,0,1,.153.178l-.1.122s.072.684.072.953a2.376,2.376,0,0,0,.12.881c.1.146.621.341.072,1.051s.191.83-.168,1.075.072.562-.12.562a7.406,7.406,0,0,0-1.362.221,5.976,5.976,0,0,1-1.745.1c-.287-.074-.55.048-.79-.048s-.6.146-.837.146a1.611,1.611,0,0,0-1.2.66c-.478.562-.574.317-.574.317a2.843,2.843,0,0,0-.239-1.392,3.9,3.9,0,0,1-.215-1.027,1.972,1.972,0,0,0-.192-.686,2.373,2.373,0,0,1,.024-.806c.048-.269-.311-.391-.407-.562s-.622-.391-.431-.415a1.688,1.688,0,0,1,.526.072c-.168-.194-.861-.17-.741-.221a1.1,1.1,0,0,1,.407,0c-.264-.194-.933-.048-1.124-.024a13.825,13.825,0,0,0-2.654.782c-1.172.49-1.124,1.884-1,2.765a5.394,5.394,0,0,0,1.841,2.592,1.928,1.928,0,0,1,.63.48,3.776,3.776,0,0,1-.494.262c-.207.082-.159.276-.127.49s.032.814.032.847a6.333,6.333,0,0,1-1.084,1.238.693.693,0,0,0-.287.718,1.922,1.922,0,0,1-.351.878,5.114,5.114,0,0,0-.7,1.207c-.112.36-.144.83-.223.994s-.032.458-.159.636-.048.588-.271.718-.526,1.061-.589,1.207a4.91,4.91,0,0,1-.558,1.272,1.856,1.856,0,0,0-.128,1.565c.064.163.366,1.19.526,1.793s.718.588,1.148.6.318.5.845.684.414-.262.287-.653a1.416,1.416,0,0,1,0-.766.834.834,0,0,1,.176-.425c.111-.13.079-.341.079-.473a2.12,2.12,0,0,1,.016-.636.383.383,0,0,0-.048-.31,9.467,9.467,0,0,0,1.8-1.678c.271-.326,1.02-1.126,1.211-1.387s.718-.293,1.132-.276a2.874,2.874,0,0,1,1.339.211c.367.228.765.017,1.164.31a2.88,2.88,0,0,0,1.467.408,2.588,2.588,0,0,1,.7.065.155.155,0,0,0,.153.077.125.125,0,0,1,.019.01l-.02.041a3.772,3.772,0,0,0-.03,1.327,3.361,3.361,0,0,1-.515,1.774l.7.377c.946-.559.54-2.237.54-2.237a2.131,2.131,0,0,1-.045-.859l.007.007.018-.036c.046.029.078.048.089.053a2.842,2.842,0,0,0,.766,1.286c.256.278.271.442.287.31s0-.487,0-.487c.1.341.781.83.813.96a4.785,4.785,0,0,1-.079,1.37,4.274,4.274,0,0,0-.1,1.3,3.727,3.727,0,0,1-.335,1.27,55.17,55.17,0,0,0-.341,7.639c.1.864-.064,2.119,0,2.882a4.592,4.592,0,0,1-.08,1.466,4.436,4.436,0,0,0-.053.749.232.232,0,0,0,.1.168,6.325,6.325,0,0,1-.608,2.441,7.629,7.629,0,0,0-.586,1.548,3.085,3.085,0,0,1-1.139,1.279c-.432.134-.288.463-.288.463.033.226.321.2.321.2.067.226.409.192.409.192a.365.365,0,0,0,.409.149.466.466,0,0,0,.5-.158c.022-.079.321-.271.487-.408a2.36,2.36,0,0,0,.808-.79,7.594,7.594,0,0,1,1.858-1.55c.807-.6.144-1.4-.044-1.591s-.08-1.282-.08-1.282.359,0,.455-.245.789-.221,1-.319.143-.365.072-1.1A5.887,5.887,0,0,1,84.126,403a2.86,2.86,0,0,0,.43-1.709,3.711,3.711,0,0,1,.144-1.735c.192-.684.987-7.005,1.011-7.639.028-.713.074-1.421.137-2.129a17.969,17.969,0,0,0,.959-2.59c.185-1.006.431-1.07,1.047-1.51.594-.425,2.33-2.05,2.453-2.162.079-.041.157-.082.241-.122a20.631,20.631,0,0,0,4.073-2.686,39.711,39.711,0,0,1,4.61-2.119,6.882,6.882,0,0,0,1.578-1.03,3.056,3.056,0,0,1,.732-.653c.262-.125.329-.286.642-.526s.553-.334.948-.586.683-.226.746-.314a1.977,1.977,0,0,0,.119-.468,2.684,2.684,0,0,1,2.023-.425c.735.187,1.033-.643,1.016-1.361a1.326,1.326,0,0,1,.818-1.265,2.4,2.4,0,0,0,.866-.974.814.814,0,0,1,.309-.365c.29-.365.132-.562.132-.562" transform="translate(-63 -365)" fill="#fff" fill-rule="evenodd"/></g></svg>