<?xml version="1.0" encoding="UTF-8"?>
<svg width="52px" height="48px" viewBox="0 0 52 48" version="1.1" xmlns="http://www.w3.org/2000/svg" xmlns:xlink="http://www.w3.org/1999/xlink">
    <!-- Generator: Sketch 58 (84663) - https://sketch.com -->
    <title>sketch</title>
    <desc>Created with Sketch.</desc>
    <g id="Page-1" stroke="none" stroke-width="1" fill="none" fill-rule="evenodd">
        <g id="Artboard" transform="translate(-143.000000, -42.000000)" fill="#FFFFFF" fill-rule="nonzero">
            <g id="sketch" transform="translate(143.000000, 42.000000)">
                <path d="M49.6024,14.3998 L1.6024,14.3998 C0.7192,14.3998 0.0024,15.1166 0.0024,15.9998 C0.0024,16.883 0.7192,17.5998 1.6024,17.5998 L49.6024,17.5998 C50.4856,17.5998 51.2024,16.883 51.2024,15.9998 C51.2024,15.1166 50.4856,14.3998 49.6024,14.3998 Z" id="Path"></path>
                <path d="M39.5992,14.9374 L26.7992,0.5374 C26.1912,-0.1474 25.0104,-0.1474 24.4056,0.5374 L11.6056,14.9374 C11.02,15.5966 11.0776,16.611 11.74,17.1966 C12.3992,17.7822 13.4104,17.7246 13.9992,17.0622 L25.6024,4.0062 L37.2056,17.0622 C37.5224,17.4174 37.9608,17.5998 38.4024,17.5998 C38.78,17.5998 39.1608,17.4654 39.4648,17.1966 C40.124,16.6078 40.188,15.5966 39.5992,14.9374 Z" id="Path"></path>
                <path d="M50.8024,14.947 L39.6024,2.147 C39.3464,1.8526 38.988,1.6606 38.6008,1.6126 L25.8008,0.0126 C25.676,-0.0002 25.5608,-0.0002 25.4424,0.0094 L9.4424,1.6094 C8.9496,1.6574 8.508,1.9326 8.2456,2.3518 L0.2456,15.1518 C-0.116,15.7246 -0.0744,16.4606 0.3448,16.9918 L24.3448,47.3918 C24.6488,47.7758 25.1128,47.9998 25.6024,47.9998 C26.092,47.9998 26.556,47.7758 26.8568,47.3918 L50.8568,16.9918 C51.3336,16.387 51.3112,15.5262 50.8024,14.947 Z M25.6024,43.8174 L3.5544,15.891 L10.5432,4.7102 L25.5832,3.2062 L37.5992,4.7102 L47.5224,16.051 L25.6024,43.8174 Z" id="Shape"></path>
                <path d="M27.0776,45.779 L14.2776,15.379 C13.932,14.563 12.988,14.1886 12.1816,14.5246 C11.3656,14.867 10.9848,15.8046 11.3272,16.6206 L24.1272,47.0206 C24.3864,47.6318 24.9784,47.9998 25.6024,47.9998 C25.8072,47.9998 26.0216,47.9582 26.2232,47.875 C27.036,47.5326 27.42,46.595 27.0776,45.779 Z" id="Path"></path>
                <path d="M39.0232,14.5246 C38.2008,14.179 37.2696,14.5662 36.9272,15.379 L24.1272,45.779 C23.7848,46.595 24.1656,47.5326 24.9816,47.875 C25.1832,47.9582 25.3944,47.9998 25.6024,47.9998 C26.2264,47.9998 26.8184,47.6318 27.0776,47.0206 L39.8776,16.6206 C40.22,15.8046 39.836,14.867 39.0232,14.5246 Z" id="Path"></path>
                <path d="M14.3544,15.6126 L11.1544,2.8126 C10.94,1.955 10.0664,1.4302 9.2152,1.6478 C8.3576,1.8622 7.836,2.7326 8.0536,3.587 L11.2536,16.387 C11.4328,17.1166 12.0856,17.5998 12.8024,17.5998 C12.9304,17.5998 13.0616,17.5838 13.1896,17.5518 C14.0472,17.3374 14.5688,16.4702 14.3544,15.6126 Z" id="Path"></path>
                <path d="M38.4024,1.5998 C37.5192,1.5998 36.8024,2.3166 36.8024,3.1998 L36.8024,15.9998 C36.8024,16.883 37.5192,17.5998 38.4024,17.5998 C39.2856,17.5998 40.0024,16.883 40.0024,15.9998 L40.0024,3.1998 C40.0024,2.3166 39.2856,1.5998 38.4024,1.5998 Z" id="Path"></path>
            </g>
        </g>
    </g>
</svg>