<svg width="48" height="48" viewBox="0 0 48 48" fill="none" xmlns="http://www.w3.org/2000/svg">
<path fill-rule="evenodd" clip-rule="evenodd" d="M24 4C12.95 4 4 12.95 4 24C4 35.05 12.95 44 24 44C35.05 44 44 35.05 44 24C44 12.95 35.05 4 24 4ZM33.14 32.79C32.83 33.32 32.16 33.53 31.59 33.28C31.48 33.23 31.37 33.16 31.26 33.1C29.14 31.85 26.86 31.07 24.43 30.7C22.94 30.47 21.44 30.39 19.94 30.45C17.99 30.53 16.07 30.8 14.17 31.22C13.98 31.26 13.78 31.3 13.59 31.3C13 31.31 12.5 30.89 12.4 30.32C12.29 29.72 12.59 29.16 13.14 28.94C13.26 28.89 13.38 28.86 13.5 28.84C15.05 28.49 16.62 28.23 18.21 28.09C19.1 28.01 19.99 27.99 20.88 27.94C23.51 27.97 26.08 28.32 28.58 29.17C29.96 29.63 31.27 30.24 32.52 30.98C32.63 31.04 32.74 31.11 32.84 31.18C33.33 31.56 33.46 32.25 33.14 32.79ZM35.58 27.35C35.14 28.08 34.22 28.3 33.46 27.87C33.03 27.63 32.6 27.37 32.16 27.15C30.14 26.12 28 25.45 25.78 25.03C24.07 24.71 22.34 24.55 20.51 24.54C18.23 24.55 15.89 24.83 13.6 25.51C13.23 25.62 12.85 25.63 12.49 25.48C11.9 25.24 11.51 24.64 11.53 24.01C11.55 23.35 11.95 22.78 12.59 22.59C13.23 22.39 13.89 22.22 14.55 22.08C16.17 21.72 17.81 21.53 19.47 21.47C23.04 21.33 26.52 21.8 29.92 22.89C31.64 23.44 33.28 24.16 34.84 25.09C34.92 25.14 34.99 25.18 35.07 25.23C35.87 25.72 35.97 26.72 35.58 27.35ZM35.82 21.7C34.96 21.21 34.07 20.77 33.16 20.4C31.33 19.67 29.44 19.17 27.5 18.83C26.15 18.59 24.8 18.44 23.43 18.35C22.01 18.26 20.59 18.25 19.17 18.33C17.54 18.41 15.93 18.59 14.33 18.94C13.74 19.07 13.16 19.23 12.58 19.38C12.22 19.48 11.87 19.49 11.52 19.38C10.74 19.15 10.21 18.46 10.18 17.64C10.16 16.85 10.65 16.11 11.41 15.86C11.97 15.67 12.55 15.53 13.13 15.4C14.56 15.07 16.01 14.87 17.47 14.73C19.02 14.59 20.58 14.54 22.13 14.59C25.96 14.7 29.72 15.26 33.36 16.52C34.84 17.03 36.27 17.67 37.63 18.46C38.11 18.74 38.44 19.14 38.56 19.69C38.59 19.82 38.6 19.96 38.61 20.09C38.61 21.53 37.09 22.42 35.82 21.7Z" fill="black"/>
</svg>
