<svg xmlns="http://www.w3.org/2000/svg" width="48" height="48" viewBox="0 0 48 48"><rect width="48" height="48" fill="none"/><path d="M46.25,433.411c1.4.538,1.92,1.778,1.276,3.4-1.136,2.863-2.337,5.7-3.526,8.549a2.541,2.541,0,0,1-2.562,1.67c-4.009-.01-8.018-.019-12.027,0a2.613,2.613,0,0,1-2.593-1.846c-.832-1.985-1.694-3.96-2.458-5.971a1.732,1.732,0,0,0-2.018-1.3,3.264,3.264,0,0,1-3.342-1.5v-1.759a3.732,3.732,0,0,1,3.4-1.5c.6.034,1.2,0,1.8,0,2.594.01,3.049.3,4.036,2.65.741,1.757,1.5,3.509,2.2,5.282a1.676,1.676,0,0,0,1.794,1.212c2.154-.046,4.31-.031,6.464-.007a1.584,1.584,0,0,0,1.7-1.118c.811-2.045,1.675-4.07,2.559-6.086C43.672,433.471,44.873,432.883,46.25,433.411ZM33.379,435q-3.239-3.06-6.4-6.2a2.311,2.311,0,0,1-.25-3.293,2.532,2.532,0,0,1,3.522-.2c.585.454,1.08,1.018,1.631,1.517.208.187.407.511.745.365s.244-.5.245-.782c.009-2.539,0-5.078.011-7.618.01-2.443.92-3.768,2.576-3.79,1.58-.019,2.512,1.39,2.515,3.816,0,2.861,0,5.722,0,8.782a11.877,11.877,0,0,0,2.214-1.853c1.224-1.265,2.778-1.375,3.851-.329,1.05,1.022.942,2.318-.354,3.588q-3.075,3.017-6.193,5.99A2.718,2.718,0,0,1,33.379,435Zm6.395,21.828a2.425,2.425,0,0,1,3.6,0c.845.984.658,2.3-.487,3.384A11.2,11.2,0,0,1,35.44,463a11.5,11.5,0,0,1-7.465-2.873,2.435,2.435,0,0,1-.439-3.29,2.379,2.379,0,0,1,3.375-.134,6.512,6.512,0,0,0,4.338,1.7A6.248,6.248,0,0,0,39.773,456.83Zm3.515-5.112a2.653,2.653,0,0,1-5.3.041,2.452,2.452,0,0,1,2.687-2.506A2.606,2.606,0,0,1,43.288,451.718Zm-12.949,2.568a2.661,2.661,0,0,1-2.66-2.467,2.616,2.616,0,0,1,5.227-.089A2.65,2.65,0,0,1,30.339,454.286Z" transform="translate(-10 -415)" fill="#fff" fill-rule="evenodd"/></svg>