<svg id="Layer_1" data-name="Layer 1" xmlns="http://www.w3.org/2000/svg" width="47.98" height="47.89" viewBox="0 0 47.98 47.89"><defs><style>.cls-1{fill:#fff;}</style></defs><path class="cls-1" d="M43.69,2.88a20.46,20.46,0,0,1-2.57,4.49A23.92,23.92,0,1,0,6.71,40.6a8.71,8.71,0,0,0,1,.94l.89.79A23.91,23.91,0,0,0,47.83,25.74C48.52,19.76,46.7,12.06,43.69,2.88ZM11.15,41.78a2,2,0,1,1-.3-2.86A2.08,2.08,0,0,1,11.15,41.78Zm32.39-7.15C37.66,42.48,25,39.81,17,40.21c0,0-1.44.09-2.87.29,0,0,.55-.25,1.24-.49,5.67-2,8.34-2.37,11.8-4.15,6.46-3.31,12.93-10.57,14.22-18.07-2.47,7.21-10,13.43-16.79,16a113.68,113.68,0,0,1-13.13,3.4L11.1,37c-5.73-2.82-5.92-15.26,4.54-19.26,4.59-1.78,8.94-.79,13.93-2C34.85,14.48,41,10.53,43.44,5.35,46.2,13.69,49.56,26.63,43.54,34.63Z" transform="translate(0 -0.06)"/></svg>