<svg xmlns="http://www.w3.org/2000/svg" width="48" height="48" viewBox="0 0 48 48"><rect width="48" height="48" fill="none"/><path d="M157.845,344.372S164.688,329,143.585,315c0,0,8.64,10.6,4.195,22.454,0,0-15.5-10.723-23.3-18.411,0,0,9.746,13.676,13.244,16.466,0,0-5.816-2.936-19.3-14.12,0,0,15.462,19.676,22.752,23.783,0,0-11.032,7.352-27.177-3.022,0,0,8.492,14.59,26.409,14.59,8.056,0,10.416-4.034,14.406-4.034,4.128,0,6.614,4.034,6.614,4.034,2.41-5.775-3.583-12.367-3.583-12.367" transform="translate(-114 -313)" fill="#fff" fill-rule="evenodd"/></svg>