<?xml version="1.0" encoding="UTF-8"?>
<svg xmlns="http://www.w3.org/2000/svg" xmlns:xlink="http://www.w3.org/1999/xlink" width="48px" height="48px" viewBox="0 0 48 48" version="1.1">
<g id="surface1">
<path style=" stroke:none;fill-rule:nonzero;fill:rgb(100%,100%,100%);fill-opacity:1;" d="M 22.160156 0.417969 C 22.792969 0.335938 23.457031 0.390625 24.09375 0.390625 C 26.453125 0.390625 28.761719 0.753906 31.019531 1.441406 C 33.894531 2.316406 36.578125 3.714844 38.941406 5.554688 C 41.839844 7.808594 44.246094 10.773438 45.785156 14.089844 C 48.667969 20.304688 48.648438 27.835938 45.695312 34.023438 C 43.785156 38.023438 40.714844 41.371094 37.007812 43.8125 C 33.980469 45.804688 30.441406 47.023438 26.839844 47.457031 C 22.253906 48.003906 17.300781 47.203125 13.175781 45.113281 C 5.441406 41.191406 0.179688 33.296875 0.0742188 24.644531 C 0.0546875 22.972656 0.0820312 21.300781 0.417969 19.644531 C 0.960938 16.953125 1.90625 14.355469 3.332031 11.996094 C 4.871094 9.441406 6.863281 7.1875 9.246094 5.371094 C 12.042969 3.238281 15.289062 1.707031 18.730469 0.929688 C 19.558594 0.738281 20.394531 0.636719 21.230469 0.535156 L 21.496094 0.5 C 21.71875 0.472656 21.941406 0.449219 22.160156 0.417969 Z M 14.15625 39.753906 C 13.089844 39.867188 11.96875 40.058594 11.054688 40.652344 C 11.257812 40.699219 11.492188 40.652344 11.710938 40.652344 C 12.226562 40.648438 12.746094 40.632812 13.261719 40.652344 C 14.550781 40.707031 15.894531 40.914062 17.140625 41.25 C 18.734375 41.683594 20.140625 42.535156 21.675781 43.105469 C 23.296875 43.714844 24.910156 43.902344 26.628906 43.902344 C 27.496094 43.902344 28.355469 43.898438 29.199219 43.667969 C 28.757812 43.433594 28.128906 43.480469 27.644531 43.382812 C 26.59375 43.175781 25.554688 42.917969 24.542969 42.558594 C 23.792969 42.300781 23.078125 41.972656 22.363281 41.640625 L 21.902344 41.429688 C 21.238281 41.117188 20.574219 40.8125 19.886719 40.558594 C 18.082031 39.886719 16.082031 39.550781 14.15625 39.753906 Z M 15.769531 35.273438 C 13.65625 35.273438 11.523438 35.640625 9.621094 36.585938 C 9.160156 36.816406 8.722656 37.089844 8.308594 37.394531 C 8.179688 37.484375 7.957031 37.605469 7.910156 37.761719 C 7.863281 37.925781 8.035156 38.066406 8.128906 38.167969 C 8.605469 37.917969 9.054688 37.652344 9.558594 37.460938 C 12.832031 36.234375 16.800781 36.492188 20.066406 37.617188 C 21.695312 38.179688 23.195312 39.019531 24.777344 39.679688 C 26.554688 40.417969 28.363281 40.894531 30.273438 41.140625 C 32.519531 41.429688 35.082031 41.195312 37.136719 40.191406 C 37.855469 39.839844 38.859375 39.304688 39.164062 38.523438 C 38.789062 38.554688 38.449219 38.714844 38.089844 38.824219 C 37.519531 39 36.945312 39.148438 36.359375 39.261719 C 34.378906 39.660156 32.269531 39.738281 30.273438 39.382812 C 28.386719 39.046875 26.644531 38.371094 24.902344 37.660156 L 24.679688 37.570312 C 24.53125 37.511719 24.382812 37.449219 24.234375 37.386719 L 24.011719 37.296875 C 23.125 36.933594 22.230469 36.574219 21.320312 36.257812 C 19.546875 35.648438 17.644531 35.273438 15.769531 35.273438 Z M 19.46875 3.199219 C 16.9375 3.753906 14.667969 4.828125 12.488281 6.1875 C 11.21875 6.976562 10.003906 7.78125 8.902344 8.792969 C 7.269531 10.304688 6.019531 12.136719 4.929688 14.050781 C 3.808594 16.023438 3.089844 18.324219 2.738281 20.554688 C 2.398438 22.742188 2.34375 25.042969 2.734375 27.234375 C 3.222656 29.972656 4.152344 32.539062 5.621094 34.917969 C 6.113281 34.691406 6.464844 34.167969 6.875 33.820312 C 7.703125 33.113281 8.570312 32.457031 9.5 31.894531 C 9.847656 31.683594 10.199219 31.519531 10.574219 31.371094 C 10.714844 31.316406 10.949219 31.261719 11.015625 31.109375 C 11.121094 30.867188 10.925781 30.441406 10.890625 30.1875 C 10.796875 29.464844 10.738281 28.730469 10.753906 28.003906 C 10.808594 25.878906 11.207031 23.722656 11.972656 21.734375 C 12.546875 20.238281 13.429688 18.878906 14.472656 17.65625 C 14.824219 17.246094 15.203125 16.855469 15.589844 16.472656 C 15.816406 16.246094 16.101562 16.054688 16.246094 15.765625 C 15.496094 15.765625 14.746094 15.980469 14.035156 16.195312 C 12.503906 16.664062 11.011719 17.355469 9.738281 18.332031 C 9.160156 18.777344 8.738281 19.363281 8.183594 19.832031 C 8.019531 19.972656 7.714844 20.167969 7.484375 20.058594 C 7.132812 19.894531 7.191406 19.214844 7.148438 18.898438 C 6.992188 17.691406 7.457031 16.164062 8.042969 15.113281 C 8.988281 13.433594 10.734375 12 12.78125 12.050781 C 13.667969 12.070312 14.441406 12.375 15.289062 12.574219 C 15.074219 12.273438 14.789062 12.050781 14.511719 11.804688 C 13.847656 11.199219 13.109375 10.644531 12.308594 10.226562 C 11.980469 10.058594 11.632812 9.957031 11.292969 9.835938 C 11.117188 9.769531 10.902344 9.683594 10.835938 9.496094 C 10.71875 9.144531 11.355469 8.824219 11.589844 8.675781 C 12.496094 8.105469 13.605469 7.636719 14.691406 7.609375 C 16.394531 7.566406 18.058594 8.503906 18.757812 10.089844 C 19.003906 10.648438 19.078125 11.242188 19.128906 11.835938 L 19.136719 11.949219 L 19.148438 12.117188 C 19.152344 12.136719 19.152344 12.152344 19.152344 12.171875 L 19.160156 12.285156 L 19.167969 12.394531 C 19.707031 11.964844 20.082031 11.332031 20.601562 10.871094 C 21.824219 9.792969 23.492188 9.308594 25.078125 9.796875 C 26.511719 10.238281 27.753906 11.214844 28.488281 12.515625 C 28.683594 12.855469 29.214844 13.6875 28.832031 14.023438 C 28.527344 14.292969 28.144531 14.082031 27.824219 13.972656 C 27.582031 13.890625 27.332031 13.835938 27.082031 13.789062 L 26.949219 13.761719 C 26.902344 13.753906 26.855469 13.746094 26.808594 13.738281 C 25.941406 13.566406 24.933594 13.582031 24.066406 13.734375 C 23.503906 13.832031 22.953125 14.027344 22.394531 14.109375 L 22.394531 14.230469 C 23.925781 14.242188 25.40625 15.105469 26.160156 16.414062 C 26.472656 16.960938 26.628906 17.582031 26.75 18.191406 C 26.898438 18.941406 26.792969 19.761719 26.585938 20.492188 C 26.515625 20.738281 26.390625 21.160156 26.089844 21.214844 C 25.882812 21.253906 25.707031 21.046875 25.585938 20.90625 C 25.269531 20.542969 24.96875 20.195312 24.601562 19.878906 C 23.667969 19.078125 22.683594 18.34375 21.675781 17.628906 C 21.144531 17.253906 20.558594 16.761719 19.945312 16.535156 C 20.117188 16.945312 20.289062 17.328125 20.347656 17.773438 C 20.519531 19.09375 19.964844 20.332031 19.125 21.324219 C 18.871094 21.625 18.597656 21.929688 18.277344 22.164062 C 18.140625 22.261719 17.972656 22.386719 17.796875 22.359375 C 17.246094 22.273438 17.175781 21.449219 17.089844 21.027344 C 16.804688 19.59375 16.921875 18.171875 17.320312 16.769531 C 16.964844 16.949219 16.707031 17.339844 16.484375 17.65625 C 15.996094 18.359375 15.570312 19.105469 15.265625 19.902344 C 14.050781 23.089844 14.0625 26.824219 15.636719 29.890625 C 15.8125 30.234375 16.078125 30.1875 16.425781 30.1875 C 16.476562 30.1875 16.527344 30.1875 16.582031 30.1875 L 16.738281 30.1875 C 17.054688 30.183594 17.367188 30.183594 17.675781 30.222656 C 17.839844 30.242188 18.066406 30.226562 18.191406 30.34375 C 18.34375 30.484375 18.261719 30.722656 18.226562 30.894531 C 18.128906 31.382812 18.097656 31.824219 18.097656 32.316406 C 18.75 32.21875 18.933594 31.179688 19.164062 30.660156 C 19.425781 30.074219 19.691406 29.484375 19.933594 28.886719 C 20.054688 28.59375 20.210938 28.269531 20.171875 27.941406 C 20.125 27.578125 19.855469 27.191406 19.667969 26.878906 C 19.316406 26.289062 18.917969 25.683594 18.660156 25.046875 C 18.453125 24.535156 18.644531 23.902344 19.230469 23.71875 C 19.550781 23.621094 19.894531 23.816406 20.105469 24.046875 C 20.546875 24.53125 20.832031 25.246094 21.148438 25.8125 L 23.640625 30.25 C 23.851562 30.625 24.0625 31 24.277344 31.371094 C 24.363281 31.519531 24.449219 31.738281 24.621094 31.800781 C 24.777344 31.855469 24.984375 31.777344 25.140625 31.75 C 25.535156 31.667969 25.933594 31.585938 26.332031 31.515625 C 26.808594 31.429688 27.539062 31.445312 27.886719 31.074219 C 27.378906 30.917969 26.796875 30.925781 26.273438 30.960938 C 25.957031 30.984375 25.609375 31.097656 25.316406 30.914062 C 24.886719 30.640625 24.601562 30.019531 24.335938 29.597656 C 23.6875 28.566406 23.074219 27.515625 22.453125 26.464844 L 22.355469 26.296875 L 22.152344 25.964844 C 22.050781 25.796875 21.953125 25.628906 21.859375 25.457031 C 21.78125 25.332031 21.675781 25.15625 21.777344 25.011719 C 21.890625 24.863281 22.132812 24.851562 22.355469 24.851562 L 22.398438 24.851562 C 22.484375 24.851562 22.566406 24.851562 22.632812 24.84375 C 23.519531 24.726562 24.421875 24.632812 25.316406 24.632812 C 25.246094 24.394531 25.050781 24.121094 25.113281 23.863281 C 25.253906 23.289062 26.089844 23.109375 26.480469 23.523438 C 26.742188 23.796875 26.894531 24.179688 27.066406 24.511719 C 27.285156 24.957031 27.542969 25.382812 27.78125 25.8125 C 28.203125 26.574219 28.664062 27.308594 29.09375 28.058594 C 29.128906 28.121094 29.167969 28.183594 29.203125 28.246094 L 29.257812 28.339844 C 29.445312 28.644531 29.632812 28.957031 29.734375 29.300781 C 28.234375 29.234375 27.105469 27.511719 26.453125 26.347656 C 26.398438 26.535156 26.484375 26.699219 26.550781 26.878906 C 26.691406 27.25 26.863281 27.605469 27.074219 27.941406 C 27.378906 28.425781 27.722656 28.921875 28.183594 29.269531 C 28.996094 29.890625 30.070312 29.894531 31.050781 29.832031 C 31.675781 29.785156 32.460938 29.503906 33.074219 29.695312 C 33.695312 29.886719 33.941406 30.558594 33.574219 31.074219 C 33.300781 31.460938 32.933594 31.609375 32.480469 31.667969 C 32.800781 32.347656 33.222656 32.980469 33.53125 33.675781 C 33.65625 33.964844 33.789062 34.410156 34.097656 34.5625 C 34.296875 34.660156 34.589844 34.566406 34.808594 34.5625 C 34.589844 33.988281 34.175781 33.496094 33.972656 32.90625 C 34.589844 32.933594 35.1875 33.253906 35.761719 33.457031 C 36.894531 33.859375 38.011719 34.292969 39.128906 34.738281 L 39.640625 34.941406 C 40.101562 35.125 40.566406 35.300781 41.015625 35.5 C 41.179688 35.574219 41.410156 35.742188 41.59375 35.636719 C 41.742188 35.550781 41.839844 35.347656 41.929688 35.210938 C 42.1875 34.828125 42.421875 34.429688 42.652344 34.03125 C 43.574219 32.429688 44.253906 30.675781 44.707031 28.886719 C 46.203125 22.996094 44.921875 16.492188 41.328125 11.570312 C 39.949219 9.675781 38.214844 8.042969 36.300781 6.6875 C 31.511719 3.300781 25.230469 1.941406 19.46875 3.199219 Z M 29.253906 32.589844 C 27.988281 32.917969 26.679688 33.214844 25.378906 33.378906 C 25.550781 33.957031 25.964844 34.519531 26.273438 35.035156 C 26.390625 35.234375 26.519531 35.503906 26.753906 35.589844 C 27.019531 35.691406 27.335938 35.527344 27.585938 35.449219 C 27.472656 35.136719 27.277344 34.855469 27.117188 34.5625 C 27.050781 34.441406 26.949219 34.296875 27.003906 34.152344 C 27.105469 33.886719 27.53125 33.898438 27.765625 33.851562 C 28.382812 33.730469 28.996094 33.574219 29.617188 33.449219 C 29.84375 33.40625 30.160156 33.285156 30.390625 33.359375 C 30.5625 33.417969 30.664062 33.558594 30.765625 33.703125 L 30.808594 33.769531 C 30.867188 33.855469 30.925781 33.941406 31.003906 34.007812 C 31.25 34.230469 31.625 34.265625 31.941406 34.328125 C 31.75 33.894531 31.425781 33.519531 31.222656 33.085938 C 31.097656 32.832031 31.003906 32.464844 30.738281 32.316406 C 30.375 32.117188 29.628906 32.496094 29.253906 32.589844 Z M 21.257812 29.714844 C 21.199219 30.464844 20.96875 31.074219 20.601562 31.726562 C 21.019531 31.777344 21.445312 31.796875 21.855469 31.894531 C 22.164062 31.972656 22.449219 32.113281 22.753906 32.199219 C 22.589844 31.757812 22.285156 31.363281 22.050781 30.957031 C 21.816406 30.542969 21.605469 30.046875 21.257812 29.714844 Z M 21.257812 29.714844 "/>
</g>
</svg>
