<?xml version="1.0" encoding="UTF-8"?>
<svg width="48px" height="48px" viewBox="0 0 48 48" version="1.1" xmlns="http://www.w3.org/2000/svg" xmlns:xlink="http://www.w3.org/1999/xlink">
    <!-- Generator: Sketch 58 (84663) - https://sketch.com -->
    <title>trello</title>
    <desc>Created with Sketch.</desc>
    <g id="Page-1" stroke="none" stroke-width="1" fill="none" fill-rule="evenodd">
        <g id="Artboard" transform="translate(-51.000000, -42.000000)" fill="#FFFFFF" fill-rule="nonzero">
            <g id="trello" transform="translate(51.000000, 42.000000)">
                <path d="M42,0 L6,0 C2.686,0 0,2.686 0,6 L0,42 C0,45.312 2.686,48 6,48 L42,48 C45.312,48 48,45.312 48,42 L48,6 C48,2.686 45.312,0 42,0 Z M20.88,36.36 C20.88,37.95 19.59,39.24 18,39.24 L9.12,39.24 C7.53,39.24 6.24,37.948 6.24,36.36 L6.24,9.12 C6.24,7.53 7.53,6.24 9.12,6.24 L18,6.24 C19.59,6.24 20.88,7.53 20.88,9.12 L20.88,36.36 Z M41.76,24.36 C41.76,25.948 40.47,27.24 38.88,27.24 L30,27.24 C28.41,27.24 27.12,25.948 27.12,24.36 L27.12,9.12 C27.12,7.53 28.412,6.24 30,6.24 L38.88,6.24 C40.47,6.24 41.76,7.53 41.76,9.12 L41.76,24.36 Z" id="Shape"></path>
            </g>
        </g>
    </g>
</svg>