<svg width="376" height="120" viewBox="0 0 376 120" fill="none" xmlns="http://www.w3.org/2000/svg">
<rect width="375" height="120" transform="translate(0.5)" fill="#F9FAFB"/>
<rect width="375" height="1" transform="matrix(-1 0 0 1 375.5 119)" fill="#E1E6EF"/>
<path d="M36.0303 24.2197C36.3232 24.5126 36.3232 24.9874 36.0303 25.2803L29.3107 32L36.0303 38.7197C36.3232 39.0126 36.3232 39.4874 36.0303 39.7803C35.7374 40.0732 35.2626 40.0732 34.9697 39.7803L27.7197 32.5303C27.4268 32.2374 27.4268 31.7626 27.7197 31.4697L34.9697 24.2197C35.2626 23.9268 35.7374 23.9268 36.0303 24.2197Z" fill="#1A1B1F"/>
<path d="M65.2159 27.897V25.9091H75.6605V27.897H71.6143V39H69.2621V27.897H65.2159ZM77.5717 39V29.1818H79.8857V39H77.5717ZM78.7351 27.7884C78.3686 27.7884 78.0533 27.6669 77.7891 27.424C77.5249 27.1768 77.3928 26.8807 77.3928 26.5355C77.3928 26.1861 77.5249 25.8899 77.7891 25.647C78.0533 25.3999 78.3686 25.2763 78.7351 25.2763C79.1058 25.2763 79.4212 25.3999 79.6811 25.647C79.9453 25.8899 80.0774 26.1861 80.0774 26.5355C80.0774 26.8807 79.9453 27.1768 79.6811 27.424C79.4212 27.6669 79.1058 27.7884 78.7351 27.7884ZM87.1678 29.1818V30.9716H81.5236V29.1818H87.1678ZM82.9171 26.8295H85.231V36.0469C85.231 36.358 85.2779 36.5966 85.3716 36.7628C85.4696 36.9247 85.5975 37.0355 85.7551 37.0952C85.9128 37.1548 86.0875 37.1847 86.2793 37.1847C86.4242 37.1847 86.5563 37.174 86.6756 37.1527C86.7992 37.1314 86.8929 37.1122 86.9569 37.0952L87.3468 38.9041C87.2232 38.9467 87.0463 38.9936 86.8162 39.0447C86.5904 39.0959 86.3134 39.1257 85.9853 39.1342C85.4057 39.1513 84.8837 39.0639 84.4192 38.8722C83.9547 38.6761 83.5861 38.3736 83.3134 37.9645C83.0449 37.5554 82.9128 37.044 82.9171 36.4304V26.8295ZM91.6278 25.9091V39H89.3139V25.9091H91.6278ZM98.3539 39.1918C97.3695 39.1918 96.5194 38.9872 95.8034 38.5781C95.0918 38.1648 94.5442 37.581 94.1607 36.8267C93.7772 36.0682 93.5854 35.1754 93.5854 34.1484C93.5854 33.1385 93.7772 32.2521 94.1607 31.4893C94.5485 30.7223 95.0897 30.1257 95.7843 29.6996C96.4789 29.2692 97.2949 29.054 98.2324 29.054C98.8375 29.054 99.4086 29.152 99.9455 29.348C100.487 29.5398 100.964 29.8381 101.377 30.2429C101.795 30.6477 102.123 31.1634 102.362 31.7898C102.6 32.4119 102.72 33.1534 102.72 34.0142V34.7237H94.6721V33.1641H100.502C100.497 32.7209 100.401 32.3267 100.214 31.9815C100.026 31.6321 99.7644 31.3572 99.4277 31.157C99.0953 30.9567 98.7076 30.8565 98.2644 30.8565C97.7914 30.8565 97.3759 30.9716 97.0179 31.2017C96.66 31.4276 96.3809 31.7259 96.1806 32.0966C95.9846 32.4631 95.8844 32.8658 95.8801 33.3047V34.6662C95.8801 35.2372 95.9846 35.7273 96.1934 36.1364C96.4022 36.5412 96.6941 36.8523 97.0691 37.0696C97.4441 37.2827 97.883 37.3892 98.3858 37.3892C98.7225 37.3892 99.0272 37.3423 99.2999 37.2486C99.5726 37.1506 99.8091 37.0078 100.009 36.8203C100.21 36.6328 100.361 36.4006 100.463 36.1236L102.624 36.3665C102.487 36.9375 102.227 37.4361 101.844 37.8622C101.465 38.2841 100.979 38.6122 100.387 38.8466C99.7942 39.0767 99.1167 39.1918 98.3539 39.1918Z" fill="#1A1B1F"/>
<path d="M247.5 23.5C242.806 23.5 239 27.3056 239 32C239 36.6944 242.806 40.5 247.5 40.5C252.194 40.5 256 36.6944 256 32C256 27.3056 252.194 23.5 247.5 23.5ZM237.5 32C237.5 26.4772 241.977 22 247.5 22C253.023 22 257.5 26.4772 257.5 32C257.5 37.5228 253.023 42 247.5 42C241.977 42 237.5 37.5228 237.5 32Z" fill="#1A1B1F"/>
<path d="M295.5 23.5C290.806 23.5 287 27.3056 287 32C287 36.6944 290.806 40.5 295.5 40.5C300.194 40.5 304 36.6944 304 32C304 27.3056 300.194 23.5 295.5 23.5ZM285.5 32C285.5 26.4772 289.977 22 295.5 22C301.023 22 305.5 26.4772 305.5 32C305.5 37.5228 301.023 42 295.5 42C289.977 42 285.5 37.5228 285.5 32Z" fill="#1A1B1F"/>
<path d="M343.5 23.5C338.806 23.5 335 27.3056 335 32C335 36.6944 338.806 40.5 343.5 40.5C348.194 40.5 352 36.6944 352 32C352 27.3056 348.194 23.5 343.5 23.5ZM333.5 32C333.5 26.4772 337.977 22 343.5 22C349.023 22 353.5 26.4772 353.5 32C353.5 37.5228 349.023 42 343.5 42C337.977 42 333.5 37.5228 333.5 32Z" fill="#1A1B1F"/>
<rect x="16.5" y="64" width="313" height="40" rx="20" fill="#D2DEE9"/>
<rect x="20.5" y="68" width="61" height="32" rx="16" fill="#4D80B3"/>
<path d="M37.1364 80.1307V78.3636H46.4205V80.1307H42.8239V90H40.733V80.1307H37.1364ZM49.4432 90.1761C48.8902 90.1761 48.392 90.0777 47.9489 89.8807C47.5095 89.6799 47.161 89.3845 46.9034 88.9943C46.6496 88.6042 46.5227 88.1231 46.5227 87.5511C46.5227 87.0587 46.6136 86.6515 46.7955 86.3295C46.9773 86.0076 47.2254 85.75 47.5398 85.5568C47.8542 85.3636 48.2083 85.2178 48.6023 85.1193C49 85.017 49.411 84.9432 49.8352 84.8977C50.3466 84.8447 50.7614 84.7973 51.0795 84.7557C51.3977 84.7102 51.6288 84.642 51.7727 84.5511C51.9205 84.4564 51.9943 84.3106 51.9943 84.1136V84.0795C51.9943 83.6515 51.8674 83.3201 51.6136 83.0852C51.3598 82.8504 50.9943 82.733 50.517 82.733C50.0133 82.733 49.6136 82.8428 49.3182 83.0625C49.0265 83.2822 48.8295 83.5417 48.7273 83.8409L46.8068 83.5682C46.9583 83.0379 47.2083 82.5947 47.5568 82.2386C47.9053 81.8788 48.3314 81.6098 48.8352 81.4318C49.339 81.25 49.8958 81.1591 50.5057 81.1591C50.9261 81.1591 51.3447 81.2083 51.7614 81.3068C52.178 81.4053 52.5587 81.5682 52.9034 81.7955C53.2481 82.0189 53.5246 82.3239 53.733 82.7102C53.9451 83.0966 54.0511 83.5795 54.0511 84.1591V90H52.0739V88.8011H52.0057C51.8807 89.0436 51.7045 89.2708 51.4773 89.483C51.2538 89.6913 50.9716 89.8598 50.6307 89.9886C50.2936 90.1136 49.8977 90.1761 49.4432 90.1761ZM49.9773 88.6648C50.3902 88.6648 50.7481 88.5833 51.0511 88.4205C51.3542 88.2538 51.5871 88.0341 51.75 87.7614C51.9167 87.4886 52 87.1913 52 86.8693V85.8409C51.9356 85.8939 51.8258 85.9432 51.6705 85.9886C51.5189 86.0341 51.3485 86.0739 51.1591 86.108C50.9697 86.142 50.7822 86.1723 50.5966 86.1989C50.411 86.2254 50.25 86.2481 50.1136 86.267C49.8068 86.3087 49.5322 86.3769 49.2898 86.4716C49.0473 86.5663 48.8561 86.6989 48.7159 86.8693C48.5758 87.036 48.5057 87.2519 48.5057 87.517C48.5057 87.8958 48.6439 88.1818 48.9205 88.375C49.197 88.5682 49.5492 88.6648 49.9773 88.6648ZM56.2102 90V78.3636H58.267V82.7159H58.3523C58.4583 82.5038 58.608 82.2784 58.8011 82.0398C58.9943 81.7973 59.2557 81.5909 59.5852 81.4205C59.9148 81.2462 60.3352 81.1591 60.8466 81.1591C61.5208 81.1591 62.1288 81.3314 62.6705 81.6761C63.2159 82.017 63.6477 82.5227 63.9659 83.1932C64.2879 83.8598 64.4489 84.678 64.4489 85.6477C64.4489 86.6061 64.2917 87.4205 63.9773 88.0909C63.6629 88.7614 63.2348 89.2727 62.6932 89.625C62.1515 89.9773 61.5379 90.1534 60.8523 90.1534C60.3523 90.1534 59.9375 90.0701 59.608 89.9034C59.2784 89.7367 59.0133 89.536 58.8125 89.3011C58.6155 89.0625 58.4621 88.8371 58.3523 88.625H58.233V90H56.2102ZM58.2273 85.6364C58.2273 86.2008 58.3068 86.6951 58.4659 87.1193C58.6288 87.5436 58.8617 87.875 59.1648 88.1136C59.4716 88.3485 59.8428 88.4659 60.2784 88.4659C60.733 88.4659 61.1136 88.3447 61.4205 88.1023C61.7273 87.8561 61.9583 87.5208 62.1136 87.0966C62.2727 86.6686 62.3523 86.1818 62.3523 85.6364C62.3523 85.0947 62.2746 84.6136 62.1193 84.1932C61.964 83.7727 61.733 83.4432 61.4261 83.2045C61.1193 82.9659 60.7367 82.8466 60.2784 82.8466C59.839 82.8466 59.4659 82.9621 59.1591 83.1932C58.8523 83.4242 58.6193 83.7481 58.4602 84.1648C58.3049 84.5814 58.2273 85.072 58.2273 85.6364Z" fill="#F0F7FF"/>
<path d="M98.1364 80.1307V78.3636H107.42V80.1307H103.824V90H101.733V80.1307H98.1364ZM110.443 90.1761C109.89 90.1761 109.392 90.0777 108.949 89.8807C108.509 89.6799 108.161 89.3845 107.903 88.9943C107.65 88.6042 107.523 88.1231 107.523 87.5511C107.523 87.0587 107.614 86.6515 107.795 86.3295C107.977 86.0076 108.225 85.75 108.54 85.5568C108.854 85.3636 109.208 85.2178 109.602 85.1193C110 85.017 110.411 84.9432 110.835 84.8977C111.347 84.8447 111.761 84.7973 112.08 84.7557C112.398 84.7102 112.629 84.642 112.773 84.5511C112.92 84.4564 112.994 84.3106 112.994 84.1136V84.0795C112.994 83.6515 112.867 83.3201 112.614 83.0852C112.36 82.8504 111.994 82.733 111.517 82.733C111.013 82.733 110.614 82.8428 110.318 83.0625C110.027 83.2822 109.83 83.5417 109.727 83.8409L107.807 83.5682C107.958 83.0379 108.208 82.5947 108.557 82.2386C108.905 81.8788 109.331 81.6098 109.835 81.4318C110.339 81.25 110.896 81.1591 111.506 81.1591C111.926 81.1591 112.345 81.2083 112.761 81.3068C113.178 81.4053 113.559 81.5682 113.903 81.7955C114.248 82.0189 114.525 82.3239 114.733 82.7102C114.945 83.0966 115.051 83.5795 115.051 84.1591V90H113.074V88.8011H113.006C112.881 89.0436 112.705 89.2708 112.477 89.483C112.254 89.6913 111.972 89.8598 111.631 89.9886C111.294 90.1136 110.898 90.1761 110.443 90.1761ZM110.977 88.6648C111.39 88.6648 111.748 88.5833 112.051 88.4205C112.354 88.2538 112.587 88.0341 112.75 87.7614C112.917 87.4886 113 87.1913 113 86.8693V85.8409C112.936 85.8939 112.826 85.9432 112.67 85.9886C112.519 86.0341 112.348 86.0739 112.159 86.108C111.97 86.142 111.782 86.1723 111.597 86.1989C111.411 86.2254 111.25 86.2481 111.114 86.267C110.807 86.3087 110.532 86.3769 110.29 86.4716C110.047 86.5663 109.856 86.6989 109.716 86.8693C109.576 87.036 109.506 87.2519 109.506 87.517C109.506 87.8958 109.644 88.1818 109.92 88.375C110.197 88.5682 110.549 88.6648 110.977 88.6648ZM117.21 90V78.3636H119.267V82.7159H119.352C119.458 82.5038 119.608 82.2784 119.801 82.0398C119.994 81.7973 120.256 81.5909 120.585 81.4205C120.915 81.2462 121.335 81.1591 121.847 81.1591C122.521 81.1591 123.129 81.3314 123.67 81.6761C124.216 82.017 124.648 82.5227 124.966 83.1932C125.288 83.8598 125.449 84.678 125.449 85.6477C125.449 86.6061 125.292 87.4205 124.977 88.0909C124.663 88.7614 124.235 89.2727 123.693 89.625C123.152 89.9773 122.538 90.1534 121.852 90.1534C121.352 90.1534 120.938 90.0701 120.608 89.9034C120.278 89.7367 120.013 89.536 119.812 89.3011C119.616 89.0625 119.462 88.8371 119.352 88.625H119.233V90H117.21ZM119.227 85.6364C119.227 86.2008 119.307 86.6951 119.466 87.1193C119.629 87.5436 119.862 87.875 120.165 88.1136C120.472 88.3485 120.843 88.4659 121.278 88.4659C121.733 88.4659 122.114 88.3447 122.42 88.1023C122.727 87.8561 122.958 87.5208 123.114 87.0966C123.273 86.6686 123.352 86.1818 123.352 85.6364C123.352 85.0947 123.275 84.6136 123.119 84.1932C122.964 83.7727 122.733 83.4432 122.426 83.2045C122.119 82.9659 121.737 82.8466 121.278 82.8466C120.839 82.8466 120.466 82.9621 120.159 83.1932C119.852 83.4242 119.619 83.7481 119.46 84.1648C119.305 84.5814 119.227 85.072 119.227 85.6364Z" fill="#1A1B1F"/>
<path d="M159.136 80.1307V78.3636H168.42V80.1307H164.824V90H162.733V80.1307H159.136ZM171.443 90.1761C170.89 90.1761 170.392 90.0777 169.949 89.8807C169.509 89.6799 169.161 89.3845 168.903 88.9943C168.65 88.6042 168.523 88.1231 168.523 87.5511C168.523 87.0587 168.614 86.6515 168.795 86.3295C168.977 86.0076 169.225 85.75 169.54 85.5568C169.854 85.3636 170.208 85.2178 170.602 85.1193C171 85.017 171.411 84.9432 171.835 84.8977C172.347 84.8447 172.761 84.7973 173.08 84.7557C173.398 84.7102 173.629 84.642 173.773 84.5511C173.92 84.4564 173.994 84.3106 173.994 84.1136V84.0795C173.994 83.6515 173.867 83.3201 173.614 83.0852C173.36 82.8504 172.994 82.733 172.517 82.733C172.013 82.733 171.614 82.8428 171.318 83.0625C171.027 83.2822 170.83 83.5417 170.727 83.8409L168.807 83.5682C168.958 83.0379 169.208 82.5947 169.557 82.2386C169.905 81.8788 170.331 81.6098 170.835 81.4318C171.339 81.25 171.896 81.1591 172.506 81.1591C172.926 81.1591 173.345 81.2083 173.761 81.3068C174.178 81.4053 174.559 81.5682 174.903 81.7955C175.248 82.0189 175.525 82.3239 175.733 82.7102C175.945 83.0966 176.051 83.5795 176.051 84.1591V90H174.074V88.8011H174.006C173.881 89.0436 173.705 89.2708 173.477 89.483C173.254 89.6913 172.972 89.8598 172.631 89.9886C172.294 90.1136 171.898 90.1761 171.443 90.1761ZM171.977 88.6648C172.39 88.6648 172.748 88.5833 173.051 88.4205C173.354 88.2538 173.587 88.0341 173.75 87.7614C173.917 87.4886 174 87.1913 174 86.8693V85.8409C173.936 85.8939 173.826 85.9432 173.67 85.9886C173.519 86.0341 173.348 86.0739 173.159 86.108C172.97 86.142 172.782 86.1723 172.597 86.1989C172.411 86.2254 172.25 86.2481 172.114 86.267C171.807 86.3087 171.532 86.3769 171.29 86.4716C171.047 86.5663 170.856 86.6989 170.716 86.8693C170.576 87.036 170.506 87.2519 170.506 87.517C170.506 87.8958 170.644 88.1818 170.92 88.375C171.197 88.5682 171.549 88.6648 171.977 88.6648ZM178.21 90V78.3636H180.267V82.7159H180.352C180.458 82.5038 180.608 82.2784 180.801 82.0398C180.994 81.7973 181.256 81.5909 181.585 81.4205C181.915 81.2462 182.335 81.1591 182.847 81.1591C183.521 81.1591 184.129 81.3314 184.67 81.6761C185.216 82.017 185.648 82.5227 185.966 83.1932C186.288 83.8598 186.449 84.678 186.449 85.6477C186.449 86.6061 186.292 87.4205 185.977 88.0909C185.663 88.7614 185.235 89.2727 184.693 89.625C184.152 89.9773 183.538 90.1534 182.852 90.1534C182.352 90.1534 181.938 90.0701 181.608 89.9034C181.278 89.7367 181.013 89.536 180.812 89.3011C180.616 89.0625 180.462 88.8371 180.352 88.625H180.233V90H178.21ZM180.227 85.6364C180.227 86.2008 180.307 86.6951 180.466 87.1193C180.629 87.5436 180.862 87.875 181.165 88.1136C181.472 88.3485 181.843 88.4659 182.278 88.4659C182.733 88.4659 183.114 88.3447 183.42 88.1023C183.727 87.8561 183.958 87.5208 184.114 87.0966C184.273 86.6686 184.352 86.1818 184.352 85.6364C184.352 85.0947 184.275 84.6136 184.119 84.1932C183.964 83.7727 183.733 83.4432 183.426 83.2045C183.119 82.9659 182.737 82.8466 182.278 82.8466C181.839 82.8466 181.466 82.9621 181.159 83.1932C180.852 83.4242 180.619 83.7481 180.46 84.1648C180.305 84.5814 180.227 85.072 180.227 85.6364Z" fill="#1A1B1F"/>
<path d="M220.136 80.1307V78.3636H229.42V80.1307H225.824V90H223.733V80.1307H220.136ZM232.443 90.1761C231.89 90.1761 231.392 90.0777 230.949 89.8807C230.509 89.6799 230.161 89.3845 229.903 88.9943C229.65 88.6042 229.523 88.1231 229.523 87.5511C229.523 87.0587 229.614 86.6515 229.795 86.3295C229.977 86.0076 230.225 85.75 230.54 85.5568C230.854 85.3636 231.208 85.2178 231.602 85.1193C232 85.017 232.411 84.9432 232.835 84.8977C233.347 84.8447 233.761 84.7973 234.08 84.7557C234.398 84.7102 234.629 84.642 234.773 84.5511C234.92 84.4564 234.994 84.3106 234.994 84.1136V84.0795C234.994 83.6515 234.867 83.3201 234.614 83.0852C234.36 82.8504 233.994 82.733 233.517 82.733C233.013 82.733 232.614 82.8428 232.318 83.0625C232.027 83.2822 231.83 83.5417 231.727 83.8409L229.807 83.5682C229.958 83.0379 230.208 82.5947 230.557 82.2386C230.905 81.8788 231.331 81.6098 231.835 81.4318C232.339 81.25 232.896 81.1591 233.506 81.1591C233.926 81.1591 234.345 81.2083 234.761 81.3068C235.178 81.4053 235.559 81.5682 235.903 81.7955C236.248 82.0189 236.525 82.3239 236.733 82.7102C236.945 83.0966 237.051 83.5795 237.051 84.1591V90H235.074V88.8011H235.006C234.881 89.0436 234.705 89.2708 234.477 89.483C234.254 89.6913 233.972 89.8598 233.631 89.9886C233.294 90.1136 232.898 90.1761 232.443 90.1761ZM232.977 88.6648C233.39 88.6648 233.748 88.5833 234.051 88.4205C234.354 88.2538 234.587 88.0341 234.75 87.7614C234.917 87.4886 235 87.1913 235 86.8693V85.8409C234.936 85.8939 234.826 85.9432 234.67 85.9886C234.519 86.0341 234.348 86.0739 234.159 86.108C233.97 86.142 233.782 86.1723 233.597 86.1989C233.411 86.2254 233.25 86.2481 233.114 86.267C232.807 86.3087 232.532 86.3769 232.29 86.4716C232.047 86.5663 231.856 86.6989 231.716 86.8693C231.576 87.036 231.506 87.2519 231.506 87.517C231.506 87.8958 231.644 88.1818 231.92 88.375C232.197 88.5682 232.549 88.6648 232.977 88.6648ZM239.21 90V78.3636H241.267V82.7159H241.352C241.458 82.5038 241.608 82.2784 241.801 82.0398C241.994 81.7973 242.256 81.5909 242.585 81.4205C242.915 81.2462 243.335 81.1591 243.847 81.1591C244.521 81.1591 245.129 81.3314 245.67 81.6761C246.216 82.017 246.648 82.5227 246.966 83.1932C247.288 83.8598 247.449 84.678 247.449 85.6477C247.449 86.6061 247.292 87.4205 246.977 88.0909C246.663 88.7614 246.235 89.2727 245.693 89.625C245.152 89.9773 244.538 90.1534 243.852 90.1534C243.352 90.1534 242.938 90.0701 242.608 89.9034C242.278 89.7367 242.013 89.536 241.812 89.3011C241.616 89.0625 241.462 88.8371 241.352 88.625H241.233V90H239.21ZM241.227 85.6364C241.227 86.2008 241.307 86.6951 241.466 87.1193C241.629 87.5436 241.862 87.875 242.165 88.1136C242.472 88.3485 242.843 88.4659 243.278 88.4659C243.733 88.4659 244.114 88.3447 244.42 88.1023C244.727 87.8561 244.958 87.5208 245.114 87.0966C245.273 86.6686 245.352 86.1818 245.352 85.6364C245.352 85.0947 245.275 84.6136 245.119 84.1932C244.964 83.7727 244.733 83.4432 244.426 83.2045C244.119 82.9659 243.737 82.8466 243.278 82.8466C242.839 82.8466 242.466 82.9621 242.159 83.1932C241.852 83.4242 241.619 83.7481 241.46 84.1648C241.305 84.5814 241.227 85.072 241.227 85.6364Z" fill="#1A1B1F"/>
<path d="M281.136 80.1307V78.3636H290.42V80.1307H286.824V90H284.733V80.1307H281.136ZM293.443 90.1761C292.89 90.1761 292.392 90.0777 291.949 89.8807C291.509 89.6799 291.161 89.3845 290.903 88.9943C290.65 88.6042 290.523 88.1231 290.523 87.5511C290.523 87.0587 290.614 86.6515 290.795 86.3295C290.977 86.0076 291.225 85.75 291.54 85.5568C291.854 85.3636 292.208 85.2178 292.602 85.1193C293 85.017 293.411 84.9432 293.835 84.8977C294.347 84.8447 294.761 84.7973 295.08 84.7557C295.398 84.7102 295.629 84.642 295.773 84.5511C295.92 84.4564 295.994 84.3106 295.994 84.1136V84.0795C295.994 83.6515 295.867 83.3201 295.614 83.0852C295.36 82.8504 294.994 82.733 294.517 82.733C294.013 82.733 293.614 82.8428 293.318 83.0625C293.027 83.2822 292.83 83.5417 292.727 83.8409L290.807 83.5682C290.958 83.0379 291.208 82.5947 291.557 82.2386C291.905 81.8788 292.331 81.6098 292.835 81.4318C293.339 81.25 293.896 81.1591 294.506 81.1591C294.926 81.1591 295.345 81.2083 295.761 81.3068C296.178 81.4053 296.559 81.5682 296.903 81.7955C297.248 82.0189 297.525 82.3239 297.733 82.7102C297.945 83.0966 298.051 83.5795 298.051 84.1591V90H296.074V88.8011H296.006C295.881 89.0436 295.705 89.2708 295.477 89.483C295.254 89.6913 294.972 89.8598 294.631 89.9886C294.294 90.1136 293.898 90.1761 293.443 90.1761ZM293.977 88.6648C294.39 88.6648 294.748 88.5833 295.051 88.4205C295.354 88.2538 295.587 88.0341 295.75 87.7614C295.917 87.4886 296 87.1913 296 86.8693V85.8409C295.936 85.8939 295.826 85.9432 295.67 85.9886C295.519 86.0341 295.348 86.0739 295.159 86.108C294.97 86.142 294.782 86.1723 294.597 86.1989C294.411 86.2254 294.25 86.2481 294.114 86.267C293.807 86.3087 293.532 86.3769 293.29 86.4716C293.047 86.5663 292.856 86.6989 292.716 86.8693C292.576 87.036 292.506 87.2519 292.506 87.517C292.506 87.8958 292.644 88.1818 292.92 88.375C293.197 88.5682 293.549 88.6648 293.977 88.6648ZM300.21 90V78.3636H302.267V82.7159H302.352C302.458 82.5038 302.608 82.2784 302.801 82.0398C302.994 81.7973 303.256 81.5909 303.585 81.4205C303.915 81.2462 304.335 81.1591 304.847 81.1591C305.521 81.1591 306.129 81.3314 306.67 81.6761C307.216 82.017 307.648 82.5227 307.966 83.1932C308.288 83.8598 308.449 84.678 308.449 85.6477C308.449 86.6061 308.292 87.4205 307.977 88.0909C307.663 88.7614 307.235 89.2727 306.693 89.625C306.152 89.9773 305.538 90.1534 304.852 90.1534C304.352 90.1534 303.938 90.0701 303.608 89.9034C303.278 89.7367 303.013 89.536 302.812 89.3011C302.616 89.0625 302.462 88.8371 302.352 88.625H302.233V90H300.21ZM302.227 85.6364C302.227 86.2008 302.307 86.6951 302.466 87.1193C302.629 87.5436 302.862 87.875 303.165 88.1136C303.472 88.3485 303.843 88.4659 304.278 88.4659C304.733 88.4659 305.114 88.3447 305.42 88.1023C305.727 87.8561 305.958 87.5208 306.114 87.0966C306.273 86.6686 306.352 86.1818 306.352 85.6364C306.352 85.0947 306.275 84.6136 306.119 84.1932C305.964 83.7727 305.733 83.4432 305.426 83.2045C305.119 82.9659 304.737 82.8466 304.278 82.8466C303.839 82.8466 303.466 82.9621 303.159 83.1932C302.852 83.4242 302.619 83.7481 302.46 84.1648C302.305 84.5814 302.227 85.072 302.227 85.6364Z" fill="#1A1B1F"/>
</svg>
