<svg width="367" height="40" viewBox="0 0 367 40" fill="none" xmlns="http://www.w3.org/2000/svg">
<path d="M13.4091 26V14.3636H14.8182V24.75H20.2273V26H13.4091ZM22.2273 26V17.2727H23.5682V26H22.2273ZM22.9091 15.8182C22.6477 15.8182 22.4223 15.7292 22.233 15.5511C22.0473 15.3731 21.9545 15.1591 21.9545 14.9091C21.9545 14.6591 22.0473 14.4451 22.233 14.267C22.4223 14.089 22.6477 14 22.9091 14C23.1705 14 23.3939 14.089 23.5795 14.267C23.7689 14.4451 23.8636 14.6591 23.8636 14.9091C23.8636 15.1591 23.7689 15.3731 23.5795 15.5511C23.3939 15.7292 23.1705 15.8182 22.9091 15.8182ZM27.3651 20.75V26H26.0241V17.2727H27.3196V18.6364H27.4332C27.6378 18.1932 27.9484 17.8371 28.3651 17.5682C28.7817 17.2955 29.3196 17.1591 29.9787 17.1591C30.5696 17.1591 31.0866 17.2803 31.5298 17.5227C31.973 17.7614 32.3177 18.125 32.5639 18.6136C32.8101 19.0985 32.9332 19.7121 32.9332 20.4545V26H31.5923V20.5455C31.5923 19.8598 31.4143 19.3258 31.0582 18.9432C30.7022 18.5568 30.2135 18.3636 29.5923 18.3636C29.1643 18.3636 28.7817 18.4564 28.4446 18.642C28.1113 18.8277 27.848 19.0985 27.6548 19.4545C27.4616 19.8106 27.3651 20.2424 27.3651 20.75ZM36.6335 22.8182L36.6108 21.1591H36.8835L40.7017 17.2727H42.3608L38.2926 21.3864H38.179L36.6335 22.8182ZM35.3835 26V14.3636H36.7244V26H35.3835ZM40.929 26L37.5199 21.6818L38.4744 20.75L42.6335 26H40.929ZM52.3821 17.2727V18.4091H47.8594V17.2727H52.3821ZM49.1776 15.1818H50.5185V23.5C50.5185 23.8788 50.5734 24.1629 50.6832 24.3523C50.7969 24.5379 50.9408 24.6629 51.1151 24.7273C51.2931 24.7879 51.4806 24.8182 51.6776 24.8182C51.8253 24.8182 51.9465 24.8106 52.0412 24.7955C52.1359 24.7765 52.2116 24.7614 52.2685 24.75L52.5412 25.9545C52.4503 25.9886 52.3234 26.0227 52.1605 26.0568C51.9976 26.0947 51.7912 26.1136 51.5412 26.1136C51.1624 26.1136 50.7912 26.0322 50.4276 25.8693C50.0677 25.7064 49.7685 25.4583 49.5298 25.125C49.295 24.7917 49.1776 24.3712 49.1776 23.8636V15.1818ZM57.9645 26.1818C57.1236 26.1818 56.3982 25.9962 55.7884 25.625C55.1823 25.25 54.7145 24.7273 54.3849 24.0568C54.0592 23.3826 53.8963 22.5985 53.8963 21.7045C53.8963 20.8106 54.0592 20.0227 54.3849 19.3409C54.7145 18.6553 55.1728 18.1212 55.7599 17.7386C56.3509 17.3523 57.0402 17.1591 57.8281 17.1591C58.2827 17.1591 58.7315 17.2348 59.1747 17.3864C59.6179 17.5379 60.0213 17.7841 60.3849 18.125C60.7486 18.4621 61.0384 18.9091 61.2543 19.4659C61.4702 20.0227 61.5781 20.7083 61.5781 21.5227V22.0909H54.8509V20.9318H60.2145C60.2145 20.4394 60.116 20 59.919 19.6136C59.7259 19.2273 59.4493 18.9223 59.0895 18.6989C58.7334 18.4754 58.313 18.3636 57.8281 18.3636C57.294 18.3636 56.8319 18.4962 56.4418 18.7614C56.0554 19.0227 55.758 19.3636 55.5497 19.7841C55.3414 20.2045 55.2372 20.6553 55.2372 21.1364V21.9091C55.2372 22.5682 55.3509 23.1269 55.5781 23.5852C55.8092 24.0398 56.1293 24.3864 56.5384 24.625C56.9474 24.8598 57.4228 24.9773 57.9645 24.9773C58.3168 24.9773 58.6349 24.928 58.919 24.8295C59.2069 24.7273 59.455 24.5758 59.6634 24.375C59.8717 24.1705 60.0327 23.9167 60.1463 23.6136L61.4418 23.9773C61.3054 24.4167 61.0762 24.803 60.7543 25.1364C60.4323 25.4659 60.0346 25.7235 59.5611 25.9091C59.0876 26.0909 58.5554 26.1818 57.9645 26.1818ZM64.3835 17.2727L66.4744 20.8409L68.5653 17.2727H70.1108L67.2926 21.6364L70.1108 26H68.5653L66.4744 22.6136L64.3835 26H62.8381L65.6108 21.6364L62.8381 17.2727H64.3835ZM75.8196 17.2727V18.4091H71.2969V17.2727H75.8196ZM72.6151 15.1818H73.956V23.5C73.956 23.8788 74.0109 24.1629 74.1207 24.3523C74.2344 24.5379 74.3783 24.6629 74.5526 24.7273C74.7306 24.7879 74.9181 24.8182 75.1151 24.8182C75.2628 24.8182 75.384 24.8106 75.4787 24.7955C75.5734 24.7765 75.6491 24.7614 75.706 24.75L75.9787 25.9545C75.8878 25.9886 75.7609 26.0227 75.598 26.0568C75.4351 26.0947 75.2287 26.1136 74.9787 26.1136C74.5999 26.1136 74.2287 26.0322 73.8651 25.8693C73.5052 25.7064 73.206 25.4583 72.9673 25.125C72.7325 24.7917 72.6151 24.3712 72.6151 23.8636V15.1818Z" fill="#1A1B1F" fill-opacity="0.7"/>
<path d="M141 8H143C144.105 8 145 8.89543 145 10V30C145 31.1046 144.105 32 143 32H141V8Z" fill="#1A1B1F" fill-opacity="0.38"/>
<path d="M154.409 26V14.3636H155.818V24.75H161.227V26H154.409ZM163.227 26V17.2727H164.568V26H163.227ZM163.909 15.8182C163.648 15.8182 163.422 15.7292 163.233 15.5511C163.047 15.3731 162.955 15.1591 162.955 14.9091C162.955 14.6591 163.047 14.4451 163.233 14.267C163.422 14.089 163.648 14 163.909 14C164.17 14 164.394 14.089 164.58 14.267C164.769 14.4451 164.864 14.6591 164.864 14.9091C164.864 15.1591 164.769 15.3731 164.58 15.5511C164.394 15.7292 164.17 15.8182 163.909 15.8182ZM168.365 20.75V26H167.024V17.2727H168.32V18.6364H168.433C168.638 18.1932 168.948 17.8371 169.365 17.5682C169.782 17.2955 170.32 17.1591 170.979 17.1591C171.57 17.1591 172.087 17.2803 172.53 17.5227C172.973 17.7614 173.318 18.125 173.564 18.6136C173.81 19.0985 173.933 19.7121 173.933 20.4545V26H172.592V20.5455C172.592 19.8598 172.414 19.3258 172.058 18.9432C171.702 18.5568 171.214 18.3636 170.592 18.3636C170.164 18.3636 169.782 18.4564 169.445 18.642C169.111 18.8277 168.848 19.0985 168.655 19.4545C168.462 19.8106 168.365 20.2424 168.365 20.75ZM177.634 22.8182L177.611 21.1591H177.884L181.702 17.2727H183.361L179.293 21.3864H179.179L177.634 22.8182ZM176.384 26V14.3636H177.724V26H176.384ZM181.929 26L178.52 21.6818L179.474 20.75L183.634 26H181.929ZM193.382 17.2727V18.4091H188.859V17.2727H193.382ZM190.178 15.1818H191.518V23.5C191.518 23.8788 191.573 24.1629 191.683 24.3523C191.797 24.5379 191.941 24.6629 192.115 24.7273C192.293 24.7879 192.481 24.8182 192.678 24.8182C192.825 24.8182 192.946 24.8106 193.041 24.7955C193.136 24.7765 193.212 24.7614 193.268 24.75L193.541 25.9545C193.45 25.9886 193.323 26.0227 193.161 26.0568C192.998 26.0947 192.791 26.1136 192.541 26.1136C192.162 26.1136 191.791 26.0322 191.428 25.8693C191.068 25.7064 190.768 25.4583 190.53 25.125C190.295 24.7917 190.178 24.3712 190.178 23.8636V15.1818ZM198.964 26.1818C198.124 26.1818 197.398 25.9962 196.788 25.625C196.182 25.25 195.714 24.7273 195.385 24.0568C195.059 23.3826 194.896 22.5985 194.896 21.7045C194.896 20.8106 195.059 20.0227 195.385 19.3409C195.714 18.6553 196.173 18.1212 196.76 17.7386C197.351 17.3523 198.04 17.1591 198.828 17.1591C199.283 17.1591 199.732 17.2348 200.175 17.3864C200.618 17.5379 201.021 17.7841 201.385 18.125C201.749 18.4621 202.038 18.9091 202.254 19.4659C202.47 20.0227 202.578 20.7083 202.578 21.5227V22.0909H195.851V20.9318H201.214C201.214 20.4394 201.116 20 200.919 19.6136C200.726 19.2273 200.449 18.9223 200.089 18.6989C199.733 18.4754 199.313 18.3636 198.828 18.3636C198.294 18.3636 197.832 18.4962 197.442 18.7614C197.055 19.0227 196.758 19.3636 196.55 19.7841C196.341 20.2045 196.237 20.6553 196.237 21.1364V21.9091C196.237 22.5682 196.351 23.1269 196.578 23.5852C196.809 24.0398 197.129 24.3864 197.538 24.625C197.947 24.8598 198.423 24.9773 198.964 24.9773C199.317 24.9773 199.635 24.928 199.919 24.8295C200.207 24.7273 200.455 24.5758 200.663 24.375C200.872 24.1705 201.033 23.9167 201.146 23.6136L202.442 23.9773C202.305 24.4167 202.076 24.803 201.754 25.1364C201.432 25.4659 201.035 25.7235 200.561 25.9091C200.088 26.0909 199.555 26.1818 198.964 26.1818ZM205.384 17.2727L207.474 20.8409L209.565 17.2727H211.111L208.293 21.6364L211.111 26H209.565L207.474 22.6136L205.384 26H203.838L206.611 21.6364L203.838 17.2727H205.384ZM216.82 17.2727V18.4091H212.297V17.2727H216.82ZM213.615 15.1818H214.956V23.5C214.956 23.8788 215.011 24.1629 215.121 24.3523C215.234 24.5379 215.378 24.6629 215.553 24.7273C215.731 24.7879 215.918 24.8182 216.115 24.8182C216.263 24.8182 216.384 24.8106 216.479 24.7955C216.573 24.7765 216.649 24.7614 216.706 24.75L216.979 25.9545C216.888 25.9886 216.761 26.0227 216.598 26.0568C216.435 26.0947 216.229 26.1136 215.979 26.1136C215.6 26.1136 215.229 26.0322 214.865 25.8693C214.505 25.7064 214.206 25.4583 213.967 25.125C213.732 24.7917 213.615 24.3712 213.615 23.8636V15.1818Z" fill="#1A1B1F"/>
<path d="M282 8H284C285.105 8 286 8.89543 286 10V30C286 31.1046 285.105 32 284 32H282V8Z" fill="#4D80B3"/>
<path d="M295.409 26V14.3636H296.818V24.75H302.227V26H295.409ZM304.227 26V17.2727H305.568V26H304.227ZM304.909 15.8182C304.648 15.8182 304.422 15.7292 304.233 15.5511C304.047 15.3731 303.955 15.1591 303.955 14.9091C303.955 14.6591 304.047 14.4451 304.233 14.267C304.422 14.089 304.648 14 304.909 14C305.17 14 305.394 14.089 305.58 14.267C305.769 14.4451 305.864 14.6591 305.864 14.9091C305.864 15.1591 305.769 15.3731 305.58 15.5511C305.394 15.7292 305.17 15.8182 304.909 15.8182ZM309.365 20.75V26H308.024V17.2727H309.32V18.6364H309.433C309.638 18.1932 309.948 17.8371 310.365 17.5682C310.782 17.2955 311.32 17.1591 311.979 17.1591C312.57 17.1591 313.087 17.2803 313.53 17.5227C313.973 17.7614 314.318 18.125 314.564 18.6136C314.81 19.0985 314.933 19.7121 314.933 20.4545V26H313.592V20.5455C313.592 19.8598 313.414 19.3258 313.058 18.9432C312.702 18.5568 312.214 18.3636 311.592 18.3636C311.164 18.3636 310.782 18.4564 310.445 18.642C310.111 18.8277 309.848 19.0985 309.655 19.4545C309.462 19.8106 309.365 20.2424 309.365 20.75ZM318.634 22.8182L318.611 21.1591H318.884L322.702 17.2727H324.361L320.293 21.3864H320.179L318.634 22.8182ZM317.384 26V14.3636H318.724V26H317.384ZM322.929 26L319.52 21.6818L320.474 20.75L324.634 26H322.929ZM334.382 17.2727V18.4091H329.859V17.2727H334.382ZM331.178 15.1818H332.518V23.5C332.518 23.8788 332.573 24.1629 332.683 24.3523C332.797 24.5379 332.941 24.6629 333.115 24.7273C333.293 24.7879 333.481 24.8182 333.678 24.8182C333.825 24.8182 333.946 24.8106 334.041 24.7955C334.136 24.7765 334.212 24.7614 334.268 24.75L334.541 25.9545C334.45 25.9886 334.323 26.0227 334.161 26.0568C333.998 26.0947 333.791 26.1136 333.541 26.1136C333.162 26.1136 332.791 26.0322 332.428 25.8693C332.068 25.7064 331.768 25.4583 331.53 25.125C331.295 24.7917 331.178 24.3712 331.178 23.8636V15.1818ZM339.964 26.1818C339.124 26.1818 338.398 25.9962 337.788 25.625C337.182 25.25 336.714 24.7273 336.385 24.0568C336.059 23.3826 335.896 22.5985 335.896 21.7045C335.896 20.8106 336.059 20.0227 336.385 19.3409C336.714 18.6553 337.173 18.1212 337.76 17.7386C338.351 17.3523 339.04 17.1591 339.828 17.1591C340.283 17.1591 340.732 17.2348 341.175 17.3864C341.618 17.5379 342.021 17.7841 342.385 18.125C342.749 18.4621 343.038 18.9091 343.254 19.4659C343.47 20.0227 343.578 20.7083 343.578 21.5227V22.0909H336.851V20.9318H342.214C342.214 20.4394 342.116 20 341.919 19.6136C341.726 19.2273 341.449 18.9223 341.089 18.6989C340.733 18.4754 340.313 18.3636 339.828 18.3636C339.294 18.3636 338.832 18.4962 338.442 18.7614C338.055 19.0227 337.758 19.3636 337.55 19.7841C337.341 20.2045 337.237 20.6553 337.237 21.1364V21.9091C337.237 22.5682 337.351 23.1269 337.578 23.5852C337.809 24.0398 338.129 24.3864 338.538 24.625C338.947 24.8598 339.423 24.9773 339.964 24.9773C340.317 24.9773 340.635 24.928 340.919 24.8295C341.207 24.7273 341.455 24.5758 341.663 24.375C341.872 24.1705 342.033 23.9167 342.146 23.6136L343.442 23.9773C343.305 24.4167 343.076 24.803 342.754 25.1364C342.432 25.4659 342.035 25.7235 341.561 25.9091C341.088 26.0909 340.555 26.1818 339.964 26.1818ZM346.384 17.2727L348.474 20.8409L350.565 17.2727H352.111L349.293 21.6364L352.111 26H350.565L348.474 22.6136L346.384 26H344.838L347.611 21.6364L344.838 17.2727H346.384ZM357.82 17.2727V18.4091H353.297V17.2727H357.82ZM354.615 15.1818H355.956V23.5C355.956 23.8788 356.011 24.1629 356.121 24.3523C356.234 24.5379 356.378 24.6629 356.553 24.7273C356.731 24.7879 356.918 24.8182 357.115 24.8182C357.263 24.8182 357.384 24.8106 357.479 24.7955C357.573 24.7765 357.649 24.7614 357.706 24.75L357.979 25.9545C357.888 25.9886 357.761 26.0227 357.598 26.0568C357.435 26.0947 357.229 26.1136 356.979 26.1136C356.6 26.1136 356.229 26.0322 355.865 25.8693C355.505 25.7064 355.206 25.4583 354.967 25.125C354.732 24.7917 354.615 24.3712 354.615 23.8636V15.1818Z" fill="#1A1B1F"/>
</svg>
