<svg width="456" height="48" viewBox="0 0 456 48" fill="none" xmlns="http://www.w3.org/2000/svg">
<rect width="90" height="48" rx="24" fill="#0052D6"/>
<path d="M25.1555 30V18.3636H27.2635V28.233H32.3885V30H25.1555ZM36.6385 30.1761C36.0855 30.1761 35.5874 30.0777 35.1442 29.8807C34.7048 29.6799 34.3563 29.3845 34.0987 28.9943C33.8449 28.6042 33.718 28.1231 33.718 27.5511C33.718 27.0587 33.8089 26.6515 33.9908 26.3295C34.1726 26.0076 34.4207 25.75 34.7351 25.5568C35.0495 25.3636 35.4036 25.2178 35.7976 25.1193C36.1953 25.017 36.6063 24.9432 37.0305 24.8977C37.5419 24.8447 37.9567 24.7973 38.2749 24.7557C38.593 24.7102 38.8241 24.642 38.968 24.5511C39.1158 24.4564 39.1896 24.3106 39.1896 24.1136V24.0795C39.1896 23.6515 39.0627 23.3201 38.8089 23.0852C38.5552 22.8504 38.1896 22.733 37.7124 22.733C37.2086 22.733 36.8089 22.8428 36.5135 23.0625C36.2218 23.2822 36.0249 23.5417 35.9226 23.8409L34.0021 23.5682C34.1536 23.0379 34.4036 22.5947 34.7521 22.2386C35.1006 21.8788 35.5268 21.6098 36.0305 21.4318C36.5343 21.25 37.0911 21.1591 37.701 21.1591C38.1214 21.1591 38.54 21.2083 38.9567 21.3068C39.3733 21.4053 39.754 21.5682 40.0987 21.7955C40.4434 22.0189 40.7199 22.3239 40.9283 22.7102C41.1404 23.0966 41.2464 23.5795 41.2464 24.1591V30H39.2692V28.8011H39.201C39.076 29.0436 38.8999 29.2708 38.6726 29.483C38.4491 29.6913 38.1669 29.8598 37.826 29.9886C37.4889 30.1136 37.093 30.1761 36.6385 30.1761ZM37.1726 28.6648C37.5855 28.6648 37.9434 28.5833 38.2464 28.4205C38.5495 28.2538 38.7824 28.0341 38.9453 27.7614C39.112 27.4886 39.1953 27.1913 39.1953 26.8693V25.8409C39.1309 25.8939 39.0211 25.9432 38.8658 25.9886C38.7143 26.0341 38.5438 26.0739 38.3544 26.108C38.165 26.142 37.9775 26.1723 37.7919 26.1989C37.6063 26.2254 37.4453 26.2481 37.3089 26.267C37.0021 26.3087 36.7275 26.3769 36.4851 26.4716C36.2427 26.5663 36.0514 26.6989 35.9112 26.8693C35.7711 27.036 35.701 27.2519 35.701 27.517C35.701 27.8958 35.8393 28.1818 36.1158 28.375C36.3923 28.5682 36.7446 28.6648 37.1726 28.6648ZM43.4055 30V18.3636H45.4624V22.7159H45.5476C45.6536 22.5038 45.8033 22.2784 45.9964 22.0398C46.1896 21.7973 46.451 21.5909 46.7805 21.4205C47.1101 21.2462 47.5305 21.1591 48.0419 21.1591C48.7161 21.1591 49.3241 21.3314 49.8658 21.6761C50.4112 22.017 50.843 22.5227 51.1612 23.1932C51.4832 23.8598 51.6442 24.678 51.6442 25.6477C51.6442 26.6061 51.487 27.4205 51.1726 28.0909C50.8582 28.7614 50.4302 29.2727 49.8885 29.625C49.3468 29.9773 48.7332 30.1534 48.0476 30.1534C47.5476 30.1534 47.1328 30.0701 46.8033 29.9034C46.4737 29.7367 46.2086 29.536 46.0078 29.3011C45.8108 29.0625 45.6574 28.8371 45.5476 28.625H45.4283V30H43.4055ZM45.4226 25.6364C45.4226 26.2008 45.5021 26.6951 45.6612 27.1193C45.8241 27.5436 46.0571 27.875 46.3601 28.1136C46.6669 28.3485 47.0381 28.4659 47.4737 28.4659C47.9283 28.4659 48.3089 28.3447 48.6158 28.1023C48.9226 27.8561 49.1536 27.5208 49.3089 27.0966C49.468 26.6686 49.5476 26.1818 49.5476 25.6364C49.5476 25.0947 49.4699 24.6136 49.3146 24.1932C49.1593 23.7727 48.9283 23.4432 48.6214 23.2045C48.3146 22.9659 47.9321 22.8466 47.4737 22.8466C47.0343 22.8466 46.6612 22.9621 46.3544 23.1932C46.0476 23.4242 45.8146 23.7481 45.6555 24.1648C45.5002 24.5814 45.4226 25.072 45.4226 25.6364ZM57.2564 30.1705C56.3814 30.1705 55.6257 29.9886 54.9893 29.625C54.3568 29.2576 53.87 28.7386 53.5291 28.0682C53.1882 27.3939 53.0178 26.6004 53.0178 25.6875C53.0178 24.7898 53.1882 24.0019 53.5291 23.3239C53.8738 22.642 54.3549 22.1117 54.9723 21.733C55.5897 21.3504 56.3151 21.1591 57.1484 21.1591C57.6863 21.1591 58.1939 21.2462 58.6712 21.4205C59.1522 21.5909 59.5765 21.8561 59.9439 22.2159C60.3151 22.5758 60.6068 23.0341 60.8189 23.5909C61.031 24.1439 61.1371 24.803 61.1371 25.5682V26.1989H53.9837V24.8125H59.1655C59.1617 24.4186 59.0765 24.0682 58.9098 23.7614C58.7431 23.4508 58.5102 23.2064 58.2109 23.0284C57.9155 22.8504 57.5708 22.7614 57.1768 22.7614C56.7564 22.7614 56.3871 22.8636 56.0689 23.0682C55.7507 23.2689 55.5026 23.5341 55.3246 23.8636C55.1503 24.1894 55.0613 24.5473 55.0575 24.9375V26.1477C55.0575 26.6553 55.1503 27.0909 55.3359 27.4545C55.5215 27.8144 55.781 28.0909 56.1143 28.2841C56.4477 28.4735 56.8378 28.5682 57.2848 28.5682C57.584 28.5682 57.8549 28.5265 58.0973 28.4432C58.3397 28.3561 58.55 28.2292 58.728 28.0625C58.906 27.8958 59.0405 27.6894 59.1314 27.4432L61.0518 27.6591C60.9306 28.1667 60.6996 28.6098 60.3587 28.9886C60.0215 29.3636 59.5897 29.6553 59.0632 29.8636C58.5367 30.0682 57.9344 30.1705 57.2564 30.1705ZM64.9339 18.3636V30H62.8771V18.3636H64.9339Z" fill="#F5F9FF"/>
<rect x="106" width="114" height="48" rx="24" fill="#0052D6"/>
<path d="M133.997 15.25C134.376 15.25 134.69 15.532 134.74 15.8981L134.747 15.9998L134.748 23.25H142.001C142.415 23.25 142.751 23.5858 142.751 24C142.751 24.3797 142.469 24.6935 142.103 24.7432L142.001 24.75H134.748L134.75 31.9991C134.75 32.4133 134.414 32.7493 134 32.7493C133.62 32.7493 133.307 32.4673 133.257 32.1012L133.25 31.9994L133.248 24.75H125.999C125.585 24.75 125.249 24.4142 125.249 24C125.249 23.6203 125.531 23.3065 125.897 23.2568L125.999 23.25H133.248L133.247 16.0002C133.247 15.5859 133.582 15.25 133.997 15.25Z" fill="#F5F9FF"/>
<path d="M155.156 30V18.3636H157.263V28.233H162.388V30H155.156ZM166.638 30.1761C166.085 30.1761 165.587 30.0777 165.144 29.8807C164.705 29.6799 164.356 29.3845 164.099 28.9943C163.845 28.6042 163.718 28.1231 163.718 27.5511C163.718 27.0587 163.809 26.6515 163.991 26.3295C164.173 26.0076 164.421 25.75 164.735 25.5568C165.049 25.3636 165.404 25.2178 165.798 25.1193C166.195 25.017 166.606 24.9432 167.031 24.8977C167.542 24.8447 167.957 24.7973 168.275 24.7557C168.593 24.7102 168.824 24.642 168.968 24.5511C169.116 24.4564 169.19 24.3106 169.19 24.1136V24.0795C169.19 23.6515 169.063 23.3201 168.809 23.0852C168.555 22.8504 168.19 22.733 167.712 22.733C167.209 22.733 166.809 22.8428 166.513 23.0625C166.222 23.2822 166.025 23.5417 165.923 23.8409L164.002 23.5682C164.154 23.0379 164.404 22.5947 164.752 22.2386C165.101 21.8788 165.527 21.6098 166.031 21.4318C166.534 21.25 167.091 21.1591 167.701 21.1591C168.121 21.1591 168.54 21.2083 168.957 21.3068C169.373 21.4053 169.754 21.5682 170.099 21.7955C170.443 22.0189 170.72 22.3239 170.928 22.7102C171.14 23.0966 171.246 23.5795 171.246 24.1591V30H169.269V28.8011H169.201C169.076 29.0436 168.9 29.2708 168.673 29.483C168.449 29.6913 168.167 29.8598 167.826 29.9886C167.489 30.1136 167.093 30.1761 166.638 30.1761ZM167.173 28.6648C167.585 28.6648 167.943 28.5833 168.246 28.4205C168.549 28.2538 168.782 28.0341 168.945 27.7614C169.112 27.4886 169.195 27.1913 169.195 26.8693V25.8409C169.131 25.8939 169.021 25.9432 168.866 25.9886C168.714 26.0341 168.544 26.0739 168.354 26.108C168.165 26.142 167.978 26.1723 167.792 26.1989C167.606 26.2254 167.445 26.2481 167.309 26.267C167.002 26.3087 166.728 26.3769 166.485 26.4716C166.243 26.5663 166.051 26.6989 165.911 26.8693C165.771 27.036 165.701 27.2519 165.701 27.517C165.701 27.8958 165.839 28.1818 166.116 28.375C166.392 28.5682 166.745 28.6648 167.173 28.6648ZM173.406 30V18.3636H175.462V22.7159H175.548C175.654 22.5038 175.803 22.2784 175.996 22.0398C176.19 21.7973 176.451 21.5909 176.781 21.4205C177.11 21.2462 177.531 21.1591 178.042 21.1591C178.716 21.1591 179.324 21.3314 179.866 21.6761C180.411 22.017 180.843 22.5227 181.161 23.1932C181.483 23.8598 181.644 24.678 181.644 25.6477C181.644 26.6061 181.487 27.4205 181.173 28.0909C180.858 28.7614 180.43 29.2727 179.888 29.625C179.347 29.9773 178.733 30.1534 178.048 30.1534C177.548 30.1534 177.133 30.0701 176.803 29.9034C176.474 29.7367 176.209 29.536 176.008 29.3011C175.811 29.0625 175.657 28.8371 175.548 28.625H175.428V30H173.406ZM175.423 25.6364C175.423 26.2008 175.502 26.6951 175.661 27.1193C175.824 27.5436 176.057 27.875 176.36 28.1136C176.667 28.3485 177.038 28.4659 177.474 28.4659C177.928 28.4659 178.309 28.3447 178.616 28.1023C178.923 27.8561 179.154 27.5208 179.309 27.0966C179.468 26.6686 179.548 26.1818 179.548 25.6364C179.548 25.0947 179.47 24.6136 179.315 24.1932C179.159 23.7727 178.928 23.4432 178.621 23.2045C178.315 22.9659 177.932 22.8466 177.474 22.8466C177.034 22.8466 176.661 22.9621 176.354 23.1932C176.048 23.4242 175.815 23.7481 175.656 24.1648C175.5 24.5814 175.423 25.072 175.423 25.6364ZM187.256 30.1705C186.381 30.1705 185.626 29.9886 184.989 29.625C184.357 29.2576 183.87 28.7386 183.529 28.0682C183.188 27.3939 183.018 26.6004 183.018 25.6875C183.018 24.7898 183.188 24.0019 183.529 23.3239C183.874 22.642 184.355 22.1117 184.972 21.733C185.59 21.3504 186.315 21.1591 187.148 21.1591C187.686 21.1591 188.194 21.2462 188.671 21.4205C189.152 21.5909 189.576 21.8561 189.944 22.2159C190.315 22.5758 190.607 23.0341 190.819 23.5909C191.031 24.1439 191.137 24.803 191.137 25.5682V26.1989H183.984V24.8125H189.165C189.162 24.4186 189.076 24.0682 188.91 23.7614C188.743 23.4508 188.51 23.2064 188.211 23.0284C187.915 22.8504 187.571 22.7614 187.177 22.7614C186.756 22.7614 186.387 22.8636 186.069 23.0682C185.751 23.2689 185.503 23.5341 185.325 23.8636C185.15 24.1894 185.061 24.5473 185.058 24.9375V26.1477C185.058 26.6553 185.15 27.0909 185.336 27.4545C185.522 27.8144 185.781 28.0909 186.114 28.2841C186.448 28.4735 186.838 28.5682 187.285 28.5682C187.584 28.5682 187.855 28.5265 188.097 28.4432C188.34 28.3561 188.55 28.2292 188.728 28.0625C188.906 27.8958 189.04 27.6894 189.131 27.4432L191.052 27.6591C190.931 28.1667 190.7 28.6098 190.359 28.9886C190.022 29.3636 189.59 29.6553 189.063 29.8636C188.537 30.0682 187.934 30.1705 187.256 30.1705ZM194.934 18.3636V30H192.877V18.3636H194.934Z" fill="#F5F9FF"/>
<rect x="236.75" y="0.75" width="88.5" height="46.5" rx="23.25" stroke="#1A1B1F" stroke-width="1.5"/>
<path d="M261.156 30V18.3636H263.263V28.233H268.388V30H261.156ZM272.638 30.1761C272.085 30.1761 271.587 30.0777 271.144 29.8807C270.705 29.6799 270.356 29.3845 270.099 28.9943C269.845 28.6042 269.718 28.1231 269.718 27.5511C269.718 27.0587 269.809 26.6515 269.991 26.3295C270.173 26.0076 270.421 25.75 270.735 25.5568C271.049 25.3636 271.404 25.2178 271.798 25.1193C272.195 25.017 272.606 24.9432 273.031 24.8977C273.542 24.8447 273.957 24.7973 274.275 24.7557C274.593 24.7102 274.824 24.642 274.968 24.5511C275.116 24.4564 275.19 24.3106 275.19 24.1136V24.0795C275.19 23.6515 275.063 23.3201 274.809 23.0852C274.555 22.8504 274.19 22.733 273.712 22.733C273.209 22.733 272.809 22.8428 272.513 23.0625C272.222 23.2822 272.025 23.5417 271.923 23.8409L270.002 23.5682C270.154 23.0379 270.404 22.5947 270.752 22.2386C271.101 21.8788 271.527 21.6098 272.031 21.4318C272.534 21.25 273.091 21.1591 273.701 21.1591C274.121 21.1591 274.54 21.2083 274.957 21.3068C275.373 21.4053 275.754 21.5682 276.099 21.7955C276.443 22.0189 276.72 22.3239 276.928 22.7102C277.14 23.0966 277.246 23.5795 277.246 24.1591V30H275.269V28.8011H275.201C275.076 29.0436 274.9 29.2708 274.673 29.483C274.449 29.6913 274.167 29.8598 273.826 29.9886C273.489 30.1136 273.093 30.1761 272.638 30.1761ZM273.173 28.6648C273.585 28.6648 273.943 28.5833 274.246 28.4205C274.549 28.2538 274.782 28.0341 274.945 27.7614C275.112 27.4886 275.195 27.1913 275.195 26.8693V25.8409C275.131 25.8939 275.021 25.9432 274.866 25.9886C274.714 26.0341 274.544 26.0739 274.354 26.108C274.165 26.142 273.978 26.1723 273.792 26.1989C273.606 26.2254 273.445 26.2481 273.309 26.267C273.002 26.3087 272.728 26.3769 272.485 26.4716C272.243 26.5663 272.051 26.6989 271.911 26.8693C271.771 27.036 271.701 27.2519 271.701 27.517C271.701 27.8958 271.839 28.1818 272.116 28.375C272.392 28.5682 272.745 28.6648 273.173 28.6648ZM279.406 30V18.3636H281.462V22.7159H281.548C281.654 22.5038 281.803 22.2784 281.996 22.0398C282.19 21.7973 282.451 21.5909 282.781 21.4205C283.11 21.2462 283.531 21.1591 284.042 21.1591C284.716 21.1591 285.324 21.3314 285.866 21.6761C286.411 22.017 286.843 22.5227 287.161 23.1932C287.483 23.8598 287.644 24.678 287.644 25.6477C287.644 26.6061 287.487 27.4205 287.173 28.0909C286.858 28.7614 286.43 29.2727 285.888 29.625C285.347 29.9773 284.733 30.1534 284.048 30.1534C283.548 30.1534 283.133 30.0701 282.803 29.9034C282.474 29.7367 282.209 29.536 282.008 29.3011C281.811 29.0625 281.657 28.8371 281.548 28.625H281.428V30H279.406ZM281.423 25.6364C281.423 26.2008 281.502 26.6951 281.661 27.1193C281.824 27.5436 282.057 27.875 282.36 28.1136C282.667 28.3485 283.038 28.4659 283.474 28.4659C283.928 28.4659 284.309 28.3447 284.616 28.1023C284.923 27.8561 285.154 27.5208 285.309 27.0966C285.468 26.6686 285.548 26.1818 285.548 25.6364C285.548 25.0947 285.47 24.6136 285.315 24.1932C285.159 23.7727 284.928 23.4432 284.621 23.2045C284.315 22.9659 283.932 22.8466 283.474 22.8466C283.034 22.8466 282.661 22.9621 282.354 23.1932C282.048 23.4242 281.815 23.7481 281.656 24.1648C281.5 24.5814 281.423 25.072 281.423 25.6364ZM293.256 30.1705C292.381 30.1705 291.626 29.9886 290.989 29.625C290.357 29.2576 289.87 28.7386 289.529 28.0682C289.188 27.3939 289.018 26.6004 289.018 25.6875C289.018 24.7898 289.188 24.0019 289.529 23.3239C289.874 22.642 290.355 22.1117 290.972 21.733C291.59 21.3504 292.315 21.1591 293.148 21.1591C293.686 21.1591 294.194 21.2462 294.671 21.4205C295.152 21.5909 295.576 21.8561 295.944 22.2159C296.315 22.5758 296.607 23.0341 296.819 23.5909C297.031 24.1439 297.137 24.803 297.137 25.5682V26.1989H289.984V24.8125H295.165C295.162 24.4186 295.076 24.0682 294.91 23.7614C294.743 23.4508 294.51 23.2064 294.211 23.0284C293.915 22.8504 293.571 22.7614 293.177 22.7614C292.756 22.7614 292.387 22.8636 292.069 23.0682C291.751 23.2689 291.503 23.5341 291.325 23.8636C291.15 24.1894 291.061 24.5473 291.058 24.9375V26.1477C291.058 26.6553 291.15 27.0909 291.336 27.4545C291.522 27.8144 291.781 28.0909 292.114 28.2841C292.448 28.4735 292.838 28.5682 293.285 28.5682C293.584 28.5682 293.855 28.5265 294.097 28.4432C294.34 28.3561 294.55 28.2292 294.728 28.0625C294.906 27.8958 295.04 27.6894 295.131 27.4432L297.052 27.6591C296.931 28.1667 296.7 28.6098 296.359 28.9886C296.022 29.3636 295.59 29.6553 295.063 29.8636C294.537 30.0682 293.934 30.1705 293.256 30.1705ZM300.934 18.3636V30H298.877V18.3636H300.934Z" fill="#1A1B1F"/>
<rect x="342.75" y="0.75" width="112.5" height="46.5" rx="23.25" stroke="#1A1B1F" stroke-width="1.5"/>
<path d="M369.997 15.25C370.376 15.25 370.69 15.532 370.74 15.8981L370.747 15.9998L370.748 23.25H378.001C378.415 23.25 378.751 23.5858 378.751 24C378.751 24.3797 378.469 24.6935 378.103 24.7432L378.001 24.75H370.748L370.75 31.9991C370.75 32.4133 370.414 32.7493 370 32.7493C369.62 32.7493 369.307 32.4673 369.257 32.1012L369.25 31.9994L369.248 24.75H361.999C361.585 24.75 361.249 24.4142 361.249 24C361.249 23.6203 361.531 23.3065 361.897 23.2568L361.999 23.25H369.248L369.247 16.0002C369.247 15.5859 369.582 15.25 369.997 15.25Z" fill="#1A1B1F"/>
<path d="M391.156 30V18.3636H393.263V28.233H398.388V30H391.156ZM402.638 30.1761C402.085 30.1761 401.587 30.0777 401.144 29.8807C400.705 29.6799 400.356 29.3845 400.099 28.9943C399.845 28.6042 399.718 28.1231 399.718 27.5511C399.718 27.0587 399.809 26.6515 399.991 26.3295C400.173 26.0076 400.421 25.75 400.735 25.5568C401.049 25.3636 401.404 25.2178 401.798 25.1193C402.195 25.017 402.606 24.9432 403.031 24.8977C403.542 24.8447 403.957 24.7973 404.275 24.7557C404.593 24.7102 404.824 24.642 404.968 24.5511C405.116 24.4564 405.19 24.3106 405.19 24.1136V24.0795C405.19 23.6515 405.063 23.3201 404.809 23.0852C404.555 22.8504 404.19 22.733 403.712 22.733C403.209 22.733 402.809 22.8428 402.513 23.0625C402.222 23.2822 402.025 23.5417 401.923 23.8409L400.002 23.5682C400.154 23.0379 400.404 22.5947 400.752 22.2386C401.101 21.8788 401.527 21.6098 402.031 21.4318C402.534 21.25 403.091 21.1591 403.701 21.1591C404.121 21.1591 404.54 21.2083 404.957 21.3068C405.373 21.4053 405.754 21.5682 406.099 21.7955C406.443 22.0189 406.72 22.3239 406.928 22.7102C407.14 23.0966 407.246 23.5795 407.246 24.1591V30H405.269V28.8011H405.201C405.076 29.0436 404.9 29.2708 404.673 29.483C404.449 29.6913 404.167 29.8598 403.826 29.9886C403.489 30.1136 403.093 30.1761 402.638 30.1761ZM403.173 28.6648C403.585 28.6648 403.943 28.5833 404.246 28.4205C404.549 28.2538 404.782 28.0341 404.945 27.7614C405.112 27.4886 405.195 27.1913 405.195 26.8693V25.8409C405.131 25.8939 405.021 25.9432 404.866 25.9886C404.714 26.0341 404.544 26.0739 404.354 26.108C404.165 26.142 403.978 26.1723 403.792 26.1989C403.606 26.2254 403.445 26.2481 403.309 26.267C403.002 26.3087 402.728 26.3769 402.485 26.4716C402.243 26.5663 402.051 26.6989 401.911 26.8693C401.771 27.036 401.701 27.2519 401.701 27.517C401.701 27.8958 401.839 28.1818 402.116 28.375C402.392 28.5682 402.745 28.6648 403.173 28.6648ZM409.406 30V18.3636H411.462V22.7159H411.548C411.654 22.5038 411.803 22.2784 411.996 22.0398C412.19 21.7973 412.451 21.5909 412.781 21.4205C413.11 21.2462 413.531 21.1591 414.042 21.1591C414.716 21.1591 415.324 21.3314 415.866 21.6761C416.411 22.017 416.843 22.5227 417.161 23.1932C417.483 23.8598 417.644 24.678 417.644 25.6477C417.644 26.6061 417.487 27.4205 417.173 28.0909C416.858 28.7614 416.43 29.2727 415.888 29.625C415.347 29.9773 414.733 30.1534 414.048 30.1534C413.548 30.1534 413.133 30.0701 412.803 29.9034C412.474 29.7367 412.209 29.536 412.008 29.3011C411.811 29.0625 411.657 28.8371 411.548 28.625H411.428V30H409.406ZM411.423 25.6364C411.423 26.2008 411.502 26.6951 411.661 27.1193C411.824 27.5436 412.057 27.875 412.36 28.1136C412.667 28.3485 413.038 28.4659 413.474 28.4659C413.928 28.4659 414.309 28.3447 414.616 28.1023C414.923 27.8561 415.154 27.5208 415.309 27.0966C415.468 26.6686 415.548 26.1818 415.548 25.6364C415.548 25.0947 415.47 24.6136 415.315 24.1932C415.159 23.7727 414.928 23.4432 414.621 23.2045C414.315 22.9659 413.932 22.8466 413.474 22.8466C413.034 22.8466 412.661 22.9621 412.354 23.1932C412.048 23.4242 411.815 23.7481 411.656 24.1648C411.5 24.5814 411.423 25.072 411.423 25.6364ZM423.256 30.1705C422.381 30.1705 421.626 29.9886 420.989 29.625C420.357 29.2576 419.87 28.7386 419.529 28.0682C419.188 27.3939 419.018 26.6004 419.018 25.6875C419.018 24.7898 419.188 24.0019 419.529 23.3239C419.874 22.642 420.355 22.1117 420.972 21.733C421.59 21.3504 422.315 21.1591 423.148 21.1591C423.686 21.1591 424.194 21.2462 424.671 21.4205C425.152 21.5909 425.576 21.8561 425.944 22.2159C426.315 22.5758 426.607 23.0341 426.819 23.5909C427.031 24.1439 427.137 24.803 427.137 25.5682V26.1989H419.984V24.8125H425.165C425.162 24.4186 425.076 24.0682 424.91 23.7614C424.743 23.4508 424.51 23.2064 424.211 23.0284C423.915 22.8504 423.571 22.7614 423.177 22.7614C422.756 22.7614 422.387 22.8636 422.069 23.0682C421.751 23.2689 421.503 23.5341 421.325 23.8636C421.15 24.1894 421.061 24.5473 421.058 24.9375V26.1477C421.058 26.6553 421.15 27.0909 421.336 27.4545C421.522 27.8144 421.781 28.0909 422.114 28.2841C422.448 28.4735 422.838 28.5682 423.285 28.5682C423.584 28.5682 423.855 28.5265 424.097 28.4432C424.34 28.3561 424.55 28.2292 424.728 28.0625C424.906 27.8958 425.04 27.6894 425.131 27.4432L427.052 27.6591C426.931 28.1667 426.7 28.6098 426.359 28.9886C426.022 29.3636 425.59 29.6553 425.063 29.8636C424.537 30.0682 423.934 30.1705 423.256 30.1705ZM430.934 18.3636V30H428.877V18.3636H430.934Z" fill="#1A1B1F"/>
</svg>
