<svg width="224" height="24" viewBox="0 0 224 24" fill="none" xmlns="http://www.w3.org/2000/svg">
<rect x="1.75" y="1.75" width="20.5" height="20.5" rx="5.25" fill="#F9FAFB" stroke="#878B92" stroke-width="1.5"/>
<rect x="41" y="1" width="22" height="22" rx="6" fill="#0052D6"/>
<path d="M47 12L57 12" stroke="#F5F9FF" stroke-width="1.5" stroke-linecap="round"/>
<rect x="81" y="1" width="22" height="22" rx="6" fill="#0052D6"/>
<path d="M96.4697 7.96967L90 14.4393L87.5303 11.9697L87.4462 11.8971C87.1526 11.6792 86.7359 11.7034 86.4697 11.9697C86.1768 12.2626 86.1768 12.7374 86.4697 13.0303L89.4697 16.0303L89.5538 16.1029C89.8474 16.3208 90.2641 16.2966 90.5303 16.0303L97.5303 9.03033L97.6029 8.94621C97.8208 8.6526 97.7966 8.23594 97.5303 7.96967C97.2374 7.67678 96.7626 7.67678 96.4697 7.96967Z" fill="#F5F9FF"/>
<rect x="121" y="1" width="22" height="22" rx="6" fill="#1A1B1F" fill-opacity="0.06"/>
<rect x="161" y="1" width="22" height="22" rx="6" fill="#1A1B1F" fill-opacity="0.06"/>
<path d="M167 12L177 12" stroke="#1A1B1F" stroke-opacity="0.38" stroke-width="1.5" stroke-linecap="round"/>
<rect x="201" y="1" width="22" height="22" rx="6" fill="#1A1B1F" fill-opacity="0.06"/>
<path d="M216.47 7.96967L210 14.4393L207.53 11.9697L207.446 11.8971C207.153 11.6792 206.736 11.7034 206.47 11.9697C206.177 12.2626 206.177 12.7374 206.47 13.0303L209.47 16.0303L209.554 16.1029C209.847 16.3208 210.264 16.2966 210.53 16.0303L217.53 9.03033L217.603 8.94621C217.821 8.6526 217.797 8.23594 217.53 7.96967C217.237 7.67678 216.763 7.67678 216.47 7.96967Z" fill="#1A1B1F" fill-opacity="0.38"/>
</svg>
