<svg width="472" height="48" viewBox="0 0 472 48" fill="none" xmlns="http://www.w3.org/2000/svg">
<mask id="path-1-inside-1_4730_20683" fill="white">
<path d="M0 0H472V48H0V0Z"/>
</mask>
<path d="M472 47H0V49H472V47Z" fill="#8B98B1" mask="url(#path-1-inside-1_4730_20683)"/>
<path d="M30.8011 21.3636C30.7415 20.8598 30.4995 20.4688 30.0753 20.1903C29.651 19.9119 29.1307 19.7727 28.5142 19.7727C28.0634 19.7727 27.669 19.8456 27.331 19.9915C26.9962 20.1373 26.7344 20.3378 26.5455 20.593C26.3598 20.8482 26.267 21.1383 26.267 21.4631C26.267 21.7348 26.3317 21.9685 26.4609 22.1641C26.5935 22.3563 26.7625 22.517 26.968 22.6463C27.1735 22.7723 27.389 22.8767 27.6143 22.9595C27.8397 23.0391 28.0469 23.1037 28.2358 23.1534L29.2699 23.4318C29.535 23.5014 29.83 23.5975 30.1548 23.7202C30.483 23.8428 30.7962 24.0102 31.0945 24.2223C31.3961 24.4311 31.6446 24.6996 31.8402 25.0277C32.0357 25.3558 32.1335 25.7585 32.1335 26.2358C32.1335 26.786 31.9893 27.2831 31.701 27.7273C31.416 28.1714 30.9983 28.5244 30.4482 28.7862C29.9013 29.0481 29.2367 29.179 28.4545 29.179C27.7254 29.179 27.094 29.0613 26.5604 28.826C26.0301 28.5907 25.6125 28.2625 25.3075 27.8416C25.0059 27.4207 24.8352 26.9318 24.7955 26.375H26.0682C26.1013 26.7595 26.2306 27.0777 26.456 27.3295C26.6847 27.5781 26.973 27.7637 27.321 27.8864C27.6723 28.0057 28.0502 28.0653 28.4545 28.0653C28.9252 28.0653 29.3478 27.9891 29.7223 27.8366C30.0968 27.6809 30.3935 27.4654 30.6122 27.1903C30.831 26.9119 30.9403 26.5871 30.9403 26.2159C30.9403 25.8778 30.8459 25.6027 30.657 25.3906C30.468 25.1785 30.2195 25.0062 29.9112 24.8736C29.603 24.741 29.2699 24.625 28.9119 24.5256L27.6591 24.1676C26.8636 23.9389 26.2339 23.6125 25.7699 23.1882C25.3059 22.764 25.0739 22.2088 25.0739 21.5227C25.0739 20.9527 25.228 20.4555 25.5362 20.0312C25.8478 19.6037 26.2654 19.2723 26.7891 19.0369C27.3161 18.7983 27.9044 18.679 28.554 18.679C29.2102 18.679 29.7936 18.7966 30.304 19.032C30.8144 19.264 31.2188 19.5821 31.517 19.9865C31.8187 20.3909 31.9777 20.8499 31.9943 21.3636H30.8011ZM38.9541 25.8778V21.3636H40.1274V29H38.9541V27.7074H38.8746C38.6956 28.0952 38.4172 28.425 38.0393 28.6967C37.6615 28.9652 37.1842 29.0994 36.6075 29.0994C36.1302 29.0994 35.706 28.995 35.3348 28.7862C34.9636 28.5741 34.6719 28.2559 34.4598 27.8317C34.2477 27.4041 34.1416 26.8655 34.1416 26.2159V21.3636H35.3149V26.1364C35.3149 26.6932 35.4707 27.1373 35.7822 27.4688C36.0971 27.8002 36.4981 27.9659 36.9853 27.9659C37.277 27.9659 37.5737 27.8913 37.8753 27.7422C38.1802 27.593 38.4354 27.3643 38.6409 27.0561C38.8497 26.7479 38.9541 26.3551 38.9541 25.8778ZM42.5755 29V18.8182H43.7488V22.5767H43.8482C43.9344 22.4441 44.0537 22.2751 44.2061 22.0696C44.3619 21.8608 44.584 21.6752 44.8723 21.5128C45.164 21.3471 45.5584 21.2642 46.0556 21.2642C46.6986 21.2642 47.2653 21.425 47.7559 21.7464C48.2464 22.0679 48.6292 22.5237 48.9043 23.1136C49.1794 23.7036 49.3169 24.3996 49.3169 25.2017C49.3169 26.0104 49.1794 26.7114 48.9043 27.3047C48.6292 27.8946 48.248 28.352 47.7608 28.6768C47.2736 28.9983 46.7118 29.1591 46.0755 29.1591C45.5849 29.1591 45.1922 29.0779 44.8972 28.9155C44.6022 28.7498 44.3752 28.5625 44.2161 28.3537C44.057 28.1416 43.9344 27.9659 43.8482 27.8267H43.709V29H42.5755ZM43.7289 25.1818C43.7289 25.7585 43.8134 26.2673 43.9824 26.7081C44.1514 27.1456 44.3984 27.4886 44.7232 27.7372C45.048 27.9825 45.4457 28.1051 45.9164 28.1051C46.4069 28.1051 46.8162 27.9759 47.1443 27.7173C47.4758 27.4555 47.7244 27.1042 47.8901 26.6634C48.0591 26.2192 48.1436 25.7254 48.1436 25.1818C48.1436 24.6449 48.0608 24.161 47.8951 23.7301C47.7327 23.2959 47.4857 22.9529 47.1543 22.701C46.8262 22.4458 46.4135 22.3182 45.9164 22.3182C45.4391 22.3182 45.038 22.4392 44.7132 22.6811C44.3884 22.9197 44.1432 23.2545 43.9774 23.6854C43.8117 24.1129 43.7289 24.6117 43.7289 25.1818ZM51.2517 21.3636H52.425V29.5568C52.425 30.0275 52.3438 30.4351 52.1814 30.7798C52.0223 31.1245 51.7803 31.3913 51.4555 31.5803C51.134 31.7692 50.728 31.8636 50.2375 31.8636C50.1977 31.8636 50.1579 31.8636 50.1182 31.8636C50.0784 31.8636 50.0386 31.8636 49.9988 31.8636V30.7699C50.0386 30.7699 50.0751 30.7699 50.1082 30.7699C50.1414 30.7699 50.1778 30.7699 50.2176 30.7699C50.5755 30.7699 50.8374 30.6638 51.0031 30.4517C51.1688 30.2429 51.2517 29.9446 51.2517 29.5568V21.3636ZM51.8284 20.0909C51.5997 20.0909 51.4025 20.013 51.2368 19.8572C51.0744 19.7015 50.9932 19.5142 50.9932 19.2955C50.9932 19.0767 51.0744 18.8894 51.2368 18.7337C51.4025 18.5779 51.5997 18.5 51.8284 18.5C52.0571 18.5 52.2526 18.5779 52.415 18.7337C52.5807 18.8894 52.6636 19.0767 52.6636 19.2955C52.6636 19.5142 52.5807 19.7015 52.415 19.8572C52.2526 20.013 52.0571 20.0909 51.8284 20.0909ZM57.9156 29.1591C57.1799 29.1591 56.5451 28.9967 56.0115 28.6719C55.4812 28.3438 55.0719 27.8864 54.7835 27.2997C54.4985 26.7098 54.356 26.0237 54.356 25.2415C54.356 24.4593 54.4985 23.7699 54.7835 23.1733C55.0719 22.5734 55.4729 22.1061 55.9867 21.7713C56.5037 21.4332 57.1069 21.2642 57.7963 21.2642C58.1941 21.2642 58.5868 21.3305 58.9746 21.4631C59.3624 21.5956 59.7154 21.8111 60.0335 22.1094C60.3517 22.4044 60.6053 22.7955 60.7942 23.2827C60.9831 23.7699 61.0776 24.3698 61.0776 25.0824V25.5795H55.1912V24.5653H59.8844C59.8844 24.1345 59.7982 23.75 59.6259 23.4119C59.4568 23.0739 59.2149 22.8071 58.9 22.6115C58.5885 22.416 58.2206 22.3182 57.7963 22.3182C57.329 22.3182 56.9246 22.4342 56.5833 22.6662C56.2452 22.8949 55.985 23.1932 55.8027 23.5611C55.6204 23.929 55.5293 24.3234 55.5293 24.7443V25.4205C55.5293 25.9972 55.6287 26.486 55.8276 26.8871C56.0298 27.2848 56.3098 27.5881 56.6678 27.7969C57.0257 28.0024 57.4417 28.1051 57.9156 28.1051C58.2239 28.1051 58.5023 28.062 58.7509 27.9759C59.0028 27.8864 59.2199 27.7538 59.4022 27.5781C59.5844 27.3991 59.7253 27.1771 59.8247 26.9119L60.9583 27.2301C60.8389 27.6146 60.6384 27.9527 60.3567 28.2443C60.075 28.5327 59.727 28.758 59.3127 28.9205C58.8984 29.0795 58.4327 29.1591 57.9156 29.1591ZM66.1047 29.1591C65.3887 29.1591 64.7723 28.9901 64.2552 28.652C63.7382 28.3139 63.3404 27.8482 63.062 27.255C62.7836 26.6617 62.6444 25.9839 62.6444 25.2216C62.6444 24.446 62.7869 23.7616 63.072 23.1683C63.3603 22.5717 63.7614 22.1061 64.2751 21.7713C64.7922 21.4332 65.3954 21.2642 66.0848 21.2642C66.6217 21.2642 67.1056 21.3636 67.5365 21.5625C67.9673 21.7614 68.3203 22.0398 68.5954 22.3977C68.8705 22.7557 69.0412 23.1733 69.1075 23.6506H67.9342C67.8447 23.3026 67.6458 22.9943 67.3376 22.7259C67.0327 22.4541 66.6217 22.3182 66.1047 22.3182C65.6473 22.3182 65.2462 22.4375 64.9015 22.6761C64.5601 22.9115 64.2933 23.2446 64.1011 23.6754C63.9122 24.103 63.8177 24.6051 63.8177 25.1818C63.8177 25.7718 63.9105 26.2855 64.0961 26.723C64.2851 27.1605 64.5502 27.5002 64.8916 27.7422C65.2363 27.9841 65.6406 28.1051 66.1047 28.1051C66.4096 28.1051 66.6863 28.0521 66.9349 27.946C67.1835 27.84 67.394 27.6875 67.5663 27.4886C67.7386 27.2898 67.8613 27.0511 67.9342 26.7727H69.1075C69.0412 27.2235 68.8771 27.6295 68.6153 27.9908C68.3568 28.3487 68.0137 28.6338 67.5862 28.8459C67.1619 29.0547 66.6681 29.1591 66.1047 29.1591ZM74.2837 21.3636V22.358H70.3263V21.3636H74.2837ZM71.4797 19.5341H72.653V26.8125C72.653 27.1439 72.7011 27.3925 72.7972 27.5582C72.8966 27.7206 73.0226 27.83 73.1751 27.8864C73.3308 27.9394 73.4949 27.9659 73.6672 27.9659C73.7965 27.9659 73.9026 27.9593 73.9854 27.946C74.0683 27.9295 74.1346 27.9162 74.1843 27.9062L74.4229 28.9602C74.3434 28.9901 74.2323 29.0199 74.0898 29.0497C73.9473 29.0829 73.7667 29.0994 73.5479 29.0994C73.2165 29.0994 72.8917 29.0282 72.5735 28.8857C72.2586 28.7431 71.9968 28.526 71.788 28.2344C71.5825 27.9427 71.4797 27.5748 71.4797 27.1307V19.5341Z" fill="#878B92"/>
</svg>
