<svg width="472" height="128" viewBox="0 0 472 128" fill="none" xmlns="http://www.w3.org/2000/svg">
<g clip-path="url(#clip0_2_5325)">
<rect width="472" height="56" rx="8" fill="#F9FAFB"/>
<path d="M17.0568 21V12.2727H18.1136V20.0625H22.1705V21H17.0568ZM25.7166 21.1534C25.3018 21.1534 24.9254 21.0753 24.5873 20.919C24.2493 20.7599 23.9808 20.5312 23.7819 20.233C23.5831 19.9318 23.4836 19.5682 23.4836 19.142C23.4836 18.767 23.5575 18.4631 23.7052 18.2301C23.853 17.9943 24.0504 17.8097 24.2976 17.6761C24.5447 17.5426 24.8174 17.4432 25.1157 17.3778C25.4169 17.3097 25.7194 17.2557 26.0234 17.2159C26.4211 17.1648 26.7436 17.1264 26.9907 17.1009C27.2407 17.0724 27.4226 17.0256 27.5362 16.9602C27.6527 16.8949 27.7109 16.7812 27.7109 16.6193V16.5852C27.7109 16.1648 27.5959 15.8381 27.3657 15.6051C27.1385 15.3722 26.7933 15.2557 26.3302 15.2557C25.8501 15.2557 25.4737 15.3608 25.201 15.571C24.9282 15.7812 24.7365 16.0057 24.6257 16.2443L23.6711 15.9034C23.8416 15.5057 24.0689 15.196 24.353 14.9744C24.6399 14.75 24.9524 14.5937 25.2905 14.5057C25.6314 14.4148 25.9666 14.3693 26.2961 14.3693C26.5064 14.3693 26.7478 14.3949 27.0206 14.446C27.2961 14.4943 27.5618 14.5952 27.8174 14.7486C28.076 14.902 28.2905 15.1335 28.4609 15.4432C28.6314 15.7528 28.7166 16.1676 28.7166 16.6875V21H27.7109V20.1136H27.6598C27.5916 20.2557 27.478 20.4077 27.3189 20.5696C27.1598 20.7315 26.9481 20.8693 26.6839 20.983C26.4197 21.0966 26.0973 21.1534 25.7166 21.1534ZM25.87 20.25C26.2677 20.25 26.603 20.1719 26.8757 20.0156C27.1513 19.8594 27.3586 19.6577 27.4978 19.4105C27.6399 19.1634 27.7109 18.9034 27.7109 18.6307V17.7102C27.6683 17.7614 27.5745 17.8082 27.4297 17.8509C27.2876 17.8906 27.1228 17.9261 26.9353 17.9574C26.7507 17.9858 26.5703 18.0114 26.3941 18.0341C26.2209 18.054 26.0802 18.071 25.9723 18.0852C25.7109 18.1193 25.4666 18.1747 25.2393 18.2514C25.0149 18.3253 24.8331 18.4375 24.6939 18.5881C24.5575 18.7358 24.4893 18.9375 24.4893 19.1932C24.4893 19.5426 24.6186 19.8068 24.8771 19.9858C25.1385 20.1619 25.4694 20.25 25.87 20.25ZM30.8085 21V12.2727H31.8142V15.4943H31.8994C31.9733 15.3807 32.0756 15.2358 32.2063 15.0597C32.3398 14.8807 32.5301 14.7216 32.7773 14.5824C33.0273 14.4403 33.3654 14.3693 33.7915 14.3693C34.3426 14.3693 34.8284 14.5071 35.2489 14.7827C35.6693 15.0582 35.9975 15.4489 36.2333 15.9545C36.469 16.4602 36.5869 17.0568 36.5869 17.7443C36.5869 18.4375 36.469 19.0384 36.2333 19.5469C35.9975 20.0526 35.6708 20.4446 35.2531 20.723C34.8355 20.9986 34.354 21.1364 33.8085 21.1364C33.3881 21.1364 33.0514 21.0668 32.7986 20.9276C32.5458 20.7855 32.3512 20.625 32.2148 20.446C32.0784 20.2642 31.9733 20.1136 31.8994 19.9943H31.7801V21H30.8085ZM31.7972 17.7273C31.7972 18.2216 31.8696 18.6577 32.0145 19.0355C32.1594 19.4105 32.371 19.7045 32.6494 19.9176C32.9279 20.1278 33.2688 20.233 33.6722 20.233C34.0926 20.233 34.4435 20.1222 34.7247 19.9006C35.0088 19.6761 35.2219 19.375 35.3639 18.9972C35.5088 18.6165 35.5813 18.1932 35.5813 17.7273C35.5813 17.267 35.5102 16.8523 35.3682 16.483C35.229 16.1108 35.0173 15.8168 34.7333 15.6009C34.452 15.3821 34.0983 15.2727 33.6722 15.2727C33.2631 15.2727 32.9193 15.3764 32.6409 15.5838C32.3625 15.7884 32.1523 16.0753 32.0102 16.4446C31.8682 16.8111 31.7972 17.2386 31.7972 17.7273ZM40.9896 21.1364C40.3589 21.1364 39.8149 20.9972 39.3575 20.7188C38.903 20.4375 38.5521 20.0455 38.305 19.5426C38.0606 19.0369 37.9385 18.4489 37.9385 17.7784C37.9385 17.108 38.0606 16.517 38.305 16.0057C38.5521 15.4915 38.8959 15.0909 39.3362 14.804C39.7794 14.5142 40.2964 14.3693 40.8873 14.3693C41.2283 14.3693 41.5649 14.4261 41.8973 14.5398C42.2297 14.6534 42.5322 14.8381 42.805 15.0938C43.0777 15.3466 43.295 15.6818 43.4569 16.0994C43.6189 16.517 43.6998 17.0312 43.6998 17.642V18.0682H38.6544V17.1989H42.6771C42.6771 16.8295 42.6033 16.5 42.4555 16.2102C42.3106 15.9205 42.1033 15.6918 41.8334 15.5241C41.5663 15.3565 41.251 15.2727 40.8873 15.2727C40.4868 15.2727 40.1402 15.3722 39.8476 15.571C39.5578 15.767 39.3348 16.0227 39.1785 16.3381C39.0223 16.6534 38.9442 16.9915 38.9442 17.3523V17.9318C38.9442 18.4261 39.0294 18.8452 39.1998 19.1889C39.3731 19.5298 39.6132 19.7898 39.92 19.9688C40.2268 20.1449 40.5834 20.233 40.9896 20.233C41.2538 20.233 41.4925 20.196 41.7055 20.1222C41.9214 20.0455 42.1075 19.9318 42.2638 19.7812C42.42 19.6278 42.5408 19.4375 42.626 19.2102L43.5976 19.483C43.4953 19.8125 43.3234 20.1023 43.0819 20.3523C42.8405 20.5994 42.5422 20.7926 42.1871 20.9318C41.8319 21.0682 41.4328 21.1364 40.9896 21.1364ZM46.3554 12.2727V21H45.3497V12.2727H46.3554Z" fill="#1A1B1F" fill-opacity="0.7"/>
<path d="M18.8182 30.3636V42H17.4091V30.3636H18.8182ZM22.8026 36.75V42H21.4616V33.2727H22.7571V34.6364H22.8707C23.0753 34.1932 23.3859 33.8371 23.8026 33.5682C24.2192 33.2955 24.7571 33.1591 25.4162 33.1591C26.0071 33.1591 26.5241 33.2803 26.9673 33.5227C27.4105 33.7614 27.7552 34.125 28.0014 34.6136C28.2476 35.0985 28.3707 35.7121 28.3707 36.4545V42H27.0298V36.5455C27.0298 35.8598 26.8518 35.3258 26.4957 34.9432C26.1397 34.5568 25.651 34.3636 25.0298 34.3636C24.6018 34.3636 24.2192 34.4564 23.8821 34.642C23.5488 34.8277 23.2855 35.0985 23.0923 35.4545C22.8991 35.8106 22.8026 36.2424 22.8026 36.75ZM30.821 45.2727V33.2727H32.1165V34.6591H32.2756C32.3741 34.5076 32.5104 34.3144 32.6847 34.0795C32.8627 33.8409 33.1165 33.6288 33.446 33.4432C33.7794 33.2538 34.2301 33.1591 34.7983 33.1591C35.5331 33.1591 36.1809 33.3428 36.7415 33.7102C37.3021 34.0777 37.7396 34.5985 38.054 35.2727C38.3684 35.947 38.5256 36.7424 38.5256 37.6591C38.5256 38.5833 38.3684 39.3845 38.054 40.0625C37.7396 40.7367 37.304 41.2595 36.7472 41.6307C36.1903 41.9981 35.5483 42.1818 34.821 42.1818C34.2604 42.1818 33.8116 42.089 33.4744 41.9034C33.1373 41.714 32.8778 41.5 32.696 41.2614C32.5142 41.0189 32.3741 40.8182 32.2756 40.6591H32.1619V45.2727H30.821ZM32.1392 37.6364C32.1392 38.2955 32.2358 38.8769 32.429 39.3807C32.6222 39.8807 32.9044 40.2727 33.2756 40.5568C33.6468 40.8371 34.1013 40.9773 34.6392 40.9773C35.1998 40.9773 35.6676 40.8295 36.0426 40.5341C36.4214 40.2348 36.7055 39.8333 36.8949 39.3295C37.0881 38.822 37.1847 38.2576 37.1847 37.6364C37.1847 37.0227 37.09 36.4697 36.9006 35.9773C36.715 35.4811 36.4328 35.089 36.054 34.8011C35.679 34.5095 35.2074 34.3636 34.6392 34.3636C34.0938 34.3636 33.6354 34.5019 33.2642 34.7784C32.893 35.0511 32.6127 35.4337 32.4233 35.9261C32.2339 36.4148 32.1392 36.9848 32.1392 37.6364ZM46.071 38.4318V33.2727H47.4119V42H46.071V40.5227H45.9801C45.7756 40.9659 45.4574 41.3428 45.0256 41.6534C44.5938 41.9602 44.0483 42.1136 43.3892 42.1136C42.8438 42.1136 42.3589 41.9943 41.9347 41.7557C41.5104 41.5133 41.1771 41.1496 40.9347 40.6648C40.6922 40.1761 40.571 39.5606 40.571 38.8182V33.2727H41.9119V38.7273C41.9119 39.3636 42.09 39.8712 42.446 40.25C42.8059 40.6288 43.2642 40.8182 43.821 40.8182C44.1544 40.8182 44.4934 40.733 44.8381 40.5625C45.1866 40.392 45.4782 40.1307 45.7131 39.7784C45.9517 39.4261 46.071 38.9773 46.071 38.4318ZM53.6634 33.2727V34.4091H49.1406V33.2727H53.6634ZM50.4588 31.1818H51.7997V39.5C51.7997 39.8788 51.8546 40.1629 51.9645 40.3523C52.0781 40.5379 52.2221 40.6629 52.3963 40.7273C52.5743 40.7879 52.7618 40.8182 52.9588 40.8182C53.1065 40.8182 53.2277 40.8106 53.3224 40.7955C53.4171 40.7765 53.4929 40.7614 53.5497 40.75L53.8224 41.9545C53.7315 41.9886 53.6046 42.0227 53.4418 42.0568C53.2789 42.0947 53.0724 42.1136 52.8224 42.1136C52.4437 42.1136 52.0724 42.0322 51.7088 41.8693C51.349 41.7064 51.0497 41.4583 50.8111 41.125C50.5762 40.7917 50.4588 40.3712 50.4588 39.8636V31.1818ZM63.9759 33.2727V34.4091H59.4531V33.2727H63.9759ZM60.7713 31.1818H62.1122V39.5C62.1122 39.8788 62.1671 40.1629 62.277 40.3523C62.3906 40.5379 62.5346 40.6629 62.7088 40.7273C62.8868 40.7879 63.0743 40.8182 63.2713 40.8182C63.419 40.8182 63.5402 40.8106 63.6349 40.7955C63.7296 40.7765 63.8054 40.7614 63.8622 40.75L64.1349 41.9545C64.044 41.9886 63.9171 42.0227 63.7543 42.0568C63.5914 42.0947 63.3849 42.1136 63.1349 42.1136C62.7562 42.1136 62.3849 42.0322 62.0213 41.8693C61.6615 41.7064 61.3622 41.4583 61.1236 41.125C60.8887 40.7917 60.7713 40.3712 60.7713 39.8636V31.1818ZM69.5582 42.1818C68.7173 42.1818 67.992 41.9962 67.3821 41.625C66.776 41.25 66.3082 40.7273 65.9787 40.0568C65.6529 39.3826 65.4901 38.5985 65.4901 37.7045C65.4901 36.8106 65.6529 36.0227 65.9787 35.3409C66.3082 34.6553 66.7666 34.1212 67.3537 33.7386C67.9446 33.3523 68.634 33.1591 69.4219 33.1591C69.8764 33.1591 70.3253 33.2348 70.7685 33.3864C71.2116 33.5379 71.6151 33.7841 71.9787 34.125C72.3423 34.4621 72.6321 34.9091 72.848 35.4659C73.0639 36.0227 73.1719 36.7083 73.1719 37.5227V38.0909H66.4446V36.9318H71.8082C71.8082 36.4394 71.7098 36 71.5128 35.6136C71.3196 35.2273 71.0431 34.9223 70.6832 34.6989C70.3272 34.4754 69.9067 34.3636 69.4219 34.3636C68.8878 34.3636 68.4257 34.4962 68.0355 34.7614C67.6491 35.0227 67.3518 35.3636 67.1435 35.7841C66.9351 36.2045 66.831 36.6553 66.831 37.1364V37.9091C66.831 38.5682 66.9446 39.1269 67.1719 39.5852C67.4029 40.0398 67.723 40.3864 68.1321 40.625C68.5412 40.8598 69.0166 40.9773 69.5582 40.9773C69.9105 40.9773 70.2287 40.928 70.5128 40.8295C70.8007 40.7273 71.0488 40.5758 71.2571 40.375C71.4654 40.1705 71.6264 39.9167 71.7401 39.6136L73.0355 39.9773C72.8991 40.4167 72.67 40.803 72.348 41.1364C72.026 41.4659 71.6283 41.7235 71.1548 41.9091C70.6813 42.0909 70.1491 42.1818 69.5582 42.1818ZM75.9773 33.2727L78.0682 36.8409L80.1591 33.2727H81.7045L78.8864 37.6364L81.7045 42H80.1591L78.0682 38.6136L75.9773 42H74.4318L77.2045 37.6364L74.4318 33.2727H75.9773ZM87.4134 33.2727V34.4091H82.8906V33.2727H87.4134ZM84.2088 31.1818H85.5497V39.5C85.5497 39.8788 85.6046 40.1629 85.7145 40.3523C85.8281 40.5379 85.9721 40.6629 86.1463 40.7273C86.3243 40.7879 86.5118 40.8182 86.7088 40.8182C86.8565 40.8182 86.9777 40.8106 87.0724 40.7955C87.1671 40.7765 87.2429 40.7614 87.2997 40.75L87.5724 41.9545C87.4815 41.9886 87.3546 42.0227 87.1918 42.0568C87.0289 42.0947 86.8224 42.1136 86.5724 42.1136C86.1937 42.1136 85.8224 42.0322 85.4588 41.8693C85.099 41.7064 84.7997 41.4583 84.5611 41.125C84.3262 40.7917 84.2088 40.3712 84.2088 39.8636V31.1818Z" fill="#1A1B1F"/>
<path d="M436.293 24.2929C436.683 23.9024 437.317 23.9024 437.707 24.2929L444 30.5858L450.293 24.2929C450.683 23.9024 451.317 23.9024 451.707 24.2929C452.098 24.6834 452.098 25.3166 451.707 25.7071L444.707 32.7071C444.317 33.0976 443.683 33.0976 443.293 32.7071L436.293 25.7071C435.902 25.3166 435.902 24.6834 436.293 24.2929Z" fill="#1A1B1F"/>
</g>
<g clip-path="url(#clip1_2_5325)">
<rect y="72" width="472" height="56" rx="8" fill="#F9FAFB"/>
<path d="M17.0568 93V84.2727H18.1136V92.0625H22.1705V93H17.0568ZM25.7166 93.1534C25.3018 93.1534 24.9254 93.0753 24.5873 92.919C24.2493 92.7599 23.9808 92.5312 23.7819 92.233C23.5831 91.9318 23.4836 91.5682 23.4836 91.142C23.4836 90.767 23.5575 90.4631 23.7052 90.2301C23.853 89.9943 24.0504 89.8097 24.2976 89.6761C24.5447 89.5426 24.8174 89.4432 25.1157 89.3778C25.4169 89.3097 25.7194 89.2557 26.0234 89.2159C26.4211 89.1648 26.7436 89.1264 26.9907 89.1009C27.2407 89.0724 27.4226 89.0256 27.5362 88.9602C27.6527 88.8949 27.7109 88.7812 27.7109 88.6193V88.5852C27.7109 88.1648 27.5959 87.8381 27.3657 87.6051C27.1385 87.3722 26.7933 87.2557 26.3302 87.2557C25.8501 87.2557 25.4737 87.3608 25.201 87.571C24.9282 87.7812 24.7365 88.0057 24.6257 88.2443L23.6711 87.9034C23.8416 87.5057 24.0689 87.196 24.353 86.9744C24.6399 86.75 24.9524 86.5937 25.2905 86.5057C25.6314 86.4148 25.9666 86.3693 26.2961 86.3693C26.5064 86.3693 26.7478 86.3949 27.0206 86.446C27.2961 86.4943 27.5618 86.5952 27.8174 86.7486C28.076 86.902 28.2905 87.1335 28.4609 87.4432C28.6314 87.7528 28.7166 88.1676 28.7166 88.6875V93H27.7109V92.1136H27.6598C27.5916 92.2557 27.478 92.4077 27.3189 92.5696C27.1598 92.7315 26.9481 92.8693 26.6839 92.983C26.4197 93.0966 26.0973 93.1534 25.7166 93.1534ZM25.87 92.25C26.2677 92.25 26.603 92.1719 26.8757 92.0156C27.1513 91.8594 27.3586 91.6577 27.4978 91.4105C27.6399 91.1634 27.7109 90.9034 27.7109 90.6307V89.7102C27.6683 89.7614 27.5745 89.8082 27.4297 89.8509C27.2876 89.8906 27.1228 89.9261 26.9353 89.9574C26.7507 89.9858 26.5703 90.0114 26.3941 90.0341C26.2209 90.054 26.0802 90.071 25.9723 90.0852C25.7109 90.1193 25.4666 90.1747 25.2393 90.2514C25.0149 90.3253 24.8331 90.4375 24.6939 90.5881C24.5575 90.7358 24.4893 90.9375 24.4893 91.1932C24.4893 91.5426 24.6186 91.8068 24.8771 91.9858C25.1385 92.1619 25.4694 92.25 25.87 92.25ZM30.8085 93V84.2727H31.8142V87.4943H31.8994C31.9733 87.3807 32.0756 87.2358 32.2063 87.0597C32.3398 86.8807 32.5301 86.7216 32.7773 86.5824C33.0273 86.4403 33.3654 86.3693 33.7915 86.3693C34.3426 86.3693 34.8284 86.5071 35.2489 86.7827C35.6693 87.0582 35.9975 87.4489 36.2333 87.9545C36.469 88.4602 36.5869 89.0568 36.5869 89.7443C36.5869 90.4375 36.469 91.0384 36.2333 91.5469C35.9975 92.0526 35.6708 92.4446 35.2531 92.723C34.8355 92.9986 34.354 93.1364 33.8085 93.1364C33.3881 93.1364 33.0514 93.0668 32.7986 92.9276C32.5458 92.7855 32.3512 92.625 32.2148 92.446C32.0784 92.2642 31.9733 92.1136 31.8994 91.9943H31.7801V93H30.8085ZM31.7972 89.7273C31.7972 90.2216 31.8696 90.6577 32.0145 91.0355C32.1594 91.4105 32.371 91.7045 32.6494 91.9176C32.9279 92.1278 33.2688 92.233 33.6722 92.233C34.0926 92.233 34.4435 92.1222 34.7247 91.9006C35.0088 91.6761 35.2219 91.375 35.3639 90.9972C35.5088 90.6165 35.5813 90.1932 35.5813 89.7273C35.5813 89.267 35.5102 88.8523 35.3682 88.483C35.229 88.1108 35.0173 87.8168 34.7333 87.6009C34.452 87.3821 34.0983 87.2727 33.6722 87.2727C33.2631 87.2727 32.9193 87.3764 32.6409 87.5838C32.3625 87.7884 32.1523 88.0753 32.0102 88.4446C31.8682 88.8111 31.7972 89.2386 31.7972 89.7273ZM40.9896 93.1364C40.3589 93.1364 39.8149 92.9972 39.3575 92.7188C38.903 92.4375 38.5521 92.0455 38.305 91.5426C38.0606 91.0369 37.9385 90.4489 37.9385 89.7784C37.9385 89.108 38.0606 88.517 38.305 88.0057C38.5521 87.4915 38.8959 87.0909 39.3362 86.804C39.7794 86.5142 40.2964 86.3693 40.8873 86.3693C41.2283 86.3693 41.5649 86.4261 41.8973 86.5398C42.2297 86.6534 42.5322 86.8381 42.805 87.0938C43.0777 87.3466 43.295 87.6818 43.4569 88.0994C43.6189 88.517 43.6998 89.0312 43.6998 89.642V90.0682H38.6544V89.1989H42.6771C42.6771 88.8295 42.6033 88.5 42.4555 88.2102C42.3106 87.9205 42.1033 87.6918 41.8334 87.5241C41.5663 87.3565 41.251 87.2727 40.8873 87.2727C40.4868 87.2727 40.1402 87.3722 39.8476 87.571C39.5578 87.767 39.3348 88.0227 39.1785 88.3381C39.0223 88.6534 38.9442 88.9915 38.9442 89.3523V89.9318C38.9442 90.4261 39.0294 90.8452 39.1998 91.1889C39.3731 91.5298 39.6132 91.7898 39.92 91.9688C40.2268 92.1449 40.5834 92.233 40.9896 92.233C41.2538 92.233 41.4925 92.196 41.7055 92.1222C41.9214 92.0455 42.1075 91.9318 42.2638 91.7812C42.42 91.6278 42.5408 91.4375 42.626 91.2102L43.5976 91.483C43.4953 91.8125 43.3234 92.1023 43.0819 92.3523C42.8405 92.5994 42.5422 92.7926 42.1871 92.9318C41.8319 93.0682 41.4328 93.1364 40.9896 93.1364ZM46.3554 84.2727V93H45.3497V84.2727H46.3554Z" fill="#1A1B1F" fill-opacity="0.7"/>
<path d="M18.8182 102.364V114H17.4091V102.364H18.8182ZM22.8026 108.75V114H21.4616V105.273H22.7571V106.636H22.8707C23.0753 106.193 23.3859 105.837 23.8026 105.568C24.2192 105.295 24.7571 105.159 25.4162 105.159C26.0071 105.159 26.5241 105.28 26.9673 105.523C27.4105 105.761 27.7552 106.125 28.0014 106.614C28.2476 107.098 28.3707 107.712 28.3707 108.455V114H27.0298V108.545C27.0298 107.86 26.8518 107.326 26.4957 106.943C26.1397 106.557 25.651 106.364 25.0298 106.364C24.6018 106.364 24.2192 106.456 23.8821 106.642C23.5488 106.828 23.2855 107.098 23.0923 107.455C22.8991 107.811 22.8026 108.242 22.8026 108.75ZM30.821 117.273V105.273H32.1165V106.659H32.2756C32.3741 106.508 32.5104 106.314 32.6847 106.08C32.8627 105.841 33.1165 105.629 33.446 105.443C33.7794 105.254 34.2301 105.159 34.7983 105.159C35.5331 105.159 36.1809 105.343 36.7415 105.71C37.3021 106.078 37.7396 106.598 38.054 107.273C38.3684 107.947 38.5256 108.742 38.5256 109.659C38.5256 110.583 38.3684 111.384 38.054 112.062C37.7396 112.737 37.304 113.259 36.7472 113.631C36.1903 113.998 35.5483 114.182 34.821 114.182C34.2604 114.182 33.8116 114.089 33.4744 113.903C33.1373 113.714 32.8778 113.5 32.696 113.261C32.5142 113.019 32.3741 112.818 32.2756 112.659H32.1619V117.273H30.821ZM32.1392 109.636C32.1392 110.295 32.2358 110.877 32.429 111.381C32.6222 111.881 32.9044 112.273 33.2756 112.557C33.6468 112.837 34.1013 112.977 34.6392 112.977C35.1998 112.977 35.6676 112.83 36.0426 112.534C36.4214 112.235 36.7055 111.833 36.8949 111.33C37.0881 110.822 37.1847 110.258 37.1847 109.636C37.1847 109.023 37.09 108.47 36.9006 107.977C36.715 107.481 36.4328 107.089 36.054 106.801C35.679 106.509 35.2074 106.364 34.6392 106.364C34.0938 106.364 33.6354 106.502 33.2642 106.778C32.893 107.051 32.6127 107.434 32.4233 107.926C32.2339 108.415 32.1392 108.985 32.1392 109.636ZM46.071 110.432V105.273H47.4119V114H46.071V112.523H45.9801C45.7756 112.966 45.4574 113.343 45.0256 113.653C44.5938 113.96 44.0483 114.114 43.3892 114.114C42.8438 114.114 42.3589 113.994 41.9347 113.756C41.5104 113.513 41.1771 113.15 40.9347 112.665C40.6922 112.176 40.571 111.561 40.571 110.818V105.273H41.9119V110.727C41.9119 111.364 42.09 111.871 42.446 112.25C42.8059 112.629 43.2642 112.818 43.821 112.818C44.1544 112.818 44.4934 112.733 44.8381 112.562C45.1866 112.392 45.4782 112.131 45.7131 111.778C45.9517 111.426 46.071 110.977 46.071 110.432ZM53.6634 105.273V106.409H49.1406V105.273H53.6634ZM50.4588 103.182H51.7997V111.5C51.7997 111.879 51.8546 112.163 51.9645 112.352C52.0781 112.538 52.2221 112.663 52.3963 112.727C52.5743 112.788 52.7618 112.818 52.9588 112.818C53.1065 112.818 53.2277 112.811 53.3224 112.795C53.4171 112.777 53.4929 112.761 53.5497 112.75L53.8224 113.955C53.7315 113.989 53.6046 114.023 53.4418 114.057C53.2789 114.095 53.0724 114.114 52.8224 114.114C52.4437 114.114 52.0724 114.032 51.7088 113.869C51.349 113.706 51.0497 113.458 50.8111 113.125C50.5762 112.792 50.4588 112.371 50.4588 111.864V103.182ZM63.9759 105.273V106.409H59.4531V105.273H63.9759ZM60.7713 103.182H62.1122V111.5C62.1122 111.879 62.1671 112.163 62.277 112.352C62.3906 112.538 62.5346 112.663 62.7088 112.727C62.8868 112.788 63.0743 112.818 63.2713 112.818C63.419 112.818 63.5402 112.811 63.6349 112.795C63.7296 112.777 63.8054 112.761 63.8622 112.75L64.1349 113.955C64.044 113.989 63.9171 114.023 63.7543 114.057C63.5914 114.095 63.3849 114.114 63.1349 114.114C62.7562 114.114 62.3849 114.032 62.0213 113.869C61.6615 113.706 61.3622 113.458 61.1236 113.125C60.8887 112.792 60.7713 112.371 60.7713 111.864V103.182ZM69.5582 114.182C68.7173 114.182 67.992 113.996 67.3821 113.625C66.776 113.25 66.3082 112.727 65.9787 112.057C65.6529 111.383 65.4901 110.598 65.4901 109.705C65.4901 108.811 65.6529 108.023 65.9787 107.341C66.3082 106.655 66.7666 106.121 67.3537 105.739C67.9446 105.352 68.634 105.159 69.4219 105.159C69.8764 105.159 70.3253 105.235 70.7685 105.386C71.2116 105.538 71.6151 105.784 71.9787 106.125C72.3423 106.462 72.6321 106.909 72.848 107.466C73.0639 108.023 73.1719 108.708 73.1719 109.523V110.091H66.4446V108.932H71.8082C71.8082 108.439 71.7098 108 71.5128 107.614C71.3196 107.227 71.0431 106.922 70.6832 106.699C70.3272 106.475 69.9067 106.364 69.4219 106.364C68.8878 106.364 68.4257 106.496 68.0355 106.761C67.6491 107.023 67.3518 107.364 67.1435 107.784C66.9351 108.205 66.831 108.655 66.831 109.136V109.909C66.831 110.568 66.9446 111.127 67.1719 111.585C67.4029 112.04 67.723 112.386 68.1321 112.625C68.5412 112.86 69.0166 112.977 69.5582 112.977C69.9105 112.977 70.2287 112.928 70.5128 112.83C70.8007 112.727 71.0488 112.576 71.2571 112.375C71.4654 112.17 71.6264 111.917 71.7401 111.614L73.0355 111.977C72.8991 112.417 72.67 112.803 72.348 113.136C72.026 113.466 71.6283 113.723 71.1548 113.909C70.6813 114.091 70.1491 114.182 69.5582 114.182ZM75.9773 105.273L78.0682 108.841L80.1591 105.273H81.7045L78.8864 109.636L81.7045 114H80.1591L78.0682 110.614L75.9773 114H74.4318L77.2045 109.636L74.4318 105.273H75.9773ZM87.4134 105.273V106.409H82.8906V105.273H87.4134ZM84.2088 103.182H85.5497V111.5C85.5497 111.879 85.6046 112.163 85.7145 112.352C85.8281 112.538 85.9721 112.663 86.1463 112.727C86.3243 112.788 86.5118 112.818 86.7088 112.818C86.8565 112.818 86.9777 112.811 87.0724 112.795C87.1671 112.777 87.2429 112.761 87.2997 112.75L87.5724 113.955C87.4815 113.989 87.3546 114.023 87.1918 114.057C87.0289 114.095 86.8224 114.114 86.5724 114.114C86.1937 114.114 85.8224 114.032 85.4588 113.869C85.099 113.706 84.7997 113.458 84.5611 113.125C84.3262 112.792 84.2088 112.371 84.2088 111.864V103.182Z" fill="#1A1B1F"/>
<path d="M436.293 96.2929C436.683 95.9024 437.317 95.9024 437.707 96.2929L444 102.586L450.293 96.2929C450.683 95.9024 451.317 95.9024 451.707 96.2929C452.098 96.6834 452.098 97.3166 451.707 97.7071L444.707 104.707C444.317 105.098 443.683 105.098 443.293 104.707L436.293 97.7071C435.902 97.3166 435.902 96.6834 436.293 96.2929Z" fill="#1A1B1F"/>
<rect y="126" width="472" height="2" fill="#0052D6"/>
</g>
<defs>
<clipPath id="clip0_2_5325">
<rect width="472" height="56" fill="white"/>
</clipPath>
<clipPath id="clip1_2_5325">
<rect width="472" height="56" fill="white" transform="translate(0 72)"/>
</clipPath>
</defs>
</svg>
