<svg width="376" height="64" viewBox="0 0 376 64" fill="none" xmlns="http://www.w3.org/2000/svg">
<g filter="url(#filter0_b_4730_20727)">
<mask id="path-1-inside-1_4730_20727" fill="white">
<path d="M0.5 0H375.5V64H0.5V0Z"/>
</mask>
<path d="M0.5 0H375.5V64H0.5V0Z" fill="#F9FAFB"/>
<path d="M0.5 1H375.5V-1H0.5V1Z" fill="#EBEFF4" mask="url(#path-1-inside-1_4730_20727)"/>
<path d="M52.0303 24.2197C52.3232 24.5126 52.3232 24.9874 52.0303 25.2803L45.3107 32L52.0303 38.7197C52.3232 39.0126 52.3232 39.4874 52.0303 39.7803C51.7374 40.0732 51.2626 40.0732 50.9697 39.7803L43.7197 32.5303C43.4268 32.2374 43.4268 31.7626 43.7197 31.4697L50.9697 24.2197C51.2626 23.9268 51.7374 23.9268 52.0303 24.2197Z" fill="#1A1B1F"/>
<path d="M180.397 24.5538L180.47 24.4697C180.736 24.2034 181.153 24.1792 181.446 24.3971L181.53 24.4697L188 30.939L194.47 24.4697C194.763 24.1768 195.237 24.1768 195.53 24.4697C195.823 24.7626 195.823 25.2374 195.53 25.5303L189.061 32L195.53 38.4697C195.797 38.7359 195.821 39.1526 195.603 39.4462L195.53 39.5303C195.264 39.7966 194.847 39.8208 194.554 39.6029L194.47 39.5303L188 33.061L181.53 39.5303C181.237 39.8232 180.763 39.8232 180.47 39.5303C180.177 39.2374 180.177 38.7626 180.47 38.4697L186.939 32L180.47 25.5303C180.203 25.2641 180.179 24.8474 180.397 24.5538L180.47 24.4697L180.397 24.5538Z" fill="#1A1B1F"/>
<path d="M323.97 24.2197C323.677 24.5126 323.677 24.9874 323.97 25.2803L330.689 32L323.97 38.7197C323.677 39.0126 323.677 39.4874 323.97 39.7803C324.263 40.0732 324.737 40.0732 325.03 39.7803L332.28 32.5303C332.573 32.2374 332.573 31.7626 332.28 31.4697L325.03 24.2197C324.737 23.9268 324.263 23.9268 323.97 24.2197Z" fill="#1A1B1F"/>
</g>
<defs>
<filter id="filter0_b_4730_20727" x="-15.5" y="-16" width="407" height="96" filterUnits="userSpaceOnUse" color-interpolation-filters="sRGB">
<feFlood flood-opacity="0" result="BackgroundImageFix"/>
<feGaussianBlur in="BackgroundImageFix" stdDeviation="8"/>
<feComposite in2="SourceAlpha" operator="in" result="effect1_backgroundBlur_4730_20727"/>
<feBlend mode="normal" in="SourceGraphic" in2="effect1_backgroundBlur_4730_20727" result="shape"/>
</filter>
</defs>
</svg>
