<svg width="375" height="334" viewBox="0 0 375 334" fill="none" xmlns="http://www.w3.org/2000/svg">
<path d="M9.00426 74V63.8182H10.8487V72.4538H15.3331V74H9.00426ZM19.1918 74.1541C18.7079 74.1541 18.2721 74.0679 17.8843 73.8956C17.4998 73.7199 17.1949 73.4614 16.9695 73.12C16.7475 72.7786 16.6364 72.3577 16.6364 71.8572C16.6364 71.4264 16.716 71.0701 16.8751 70.7884C17.0342 70.5066 17.2513 70.2812 17.5264 70.1122C17.8015 69.9432 18.1114 69.8156 18.4561 69.7294C18.8041 69.6399 19.1637 69.5753 19.5349 69.5355C19.9823 69.4891 20.3453 69.4477 20.6237 69.4112C20.9021 69.3714 21.1043 69.3118 21.2302 69.2322C21.3595 69.1494 21.4241 69.0218 21.4241 68.8494V68.8196C21.4241 68.4451 21.3131 68.1551 21.091 67.9496C20.8689 67.7441 20.5491 67.6413 20.1315 67.6413C19.6907 67.6413 19.341 67.7375 19.0825 67.9297C18.8273 68.1219 18.6549 68.349 18.5654 68.6108L16.885 68.3722C17.0176 67.9081 17.2364 67.5204 17.5413 67.2088C17.8462 66.8939 18.2191 66.6586 18.6599 66.5028C19.1007 66.3438 19.5879 66.2642 20.1215 66.2642C20.4894 66.2642 20.8557 66.3073 21.2203 66.3935C21.5848 66.4796 21.9179 66.6222 22.2195 66.821C22.5212 67.0166 22.7631 67.2834 22.9454 67.6214C23.131 67.9595 23.2238 68.3821 23.2238 68.8892V74H21.4937V72.951H21.434C21.3247 73.1631 21.1705 73.362 20.9717 73.5476C20.7761 73.7299 20.5292 73.8774 20.2309 73.9901C19.9359 74.0994 19.5896 74.1541 19.1918 74.1541ZM19.6592 72.8317C20.0204 72.8317 20.3337 72.7604 20.5988 72.6179C20.864 72.4721 21.0678 72.2798 21.2103 72.0412C21.3561 71.8026 21.4291 71.5424 21.4291 71.2607V70.3608C21.3727 70.4072 21.2766 70.4503 21.1407 70.4901C21.0081 70.5298 20.859 70.5646 20.6933 70.5945C20.5275 70.6243 20.3635 70.6508 20.2011 70.674C20.0387 70.6972 19.8978 70.7171 19.7785 70.7337C19.51 70.7701 19.2697 70.8298 19.0576 70.9126C18.8455 70.9955 18.6781 71.1115 18.5555 71.2607C18.4329 71.4065 18.3715 71.5954 18.3715 71.8274C18.3715 72.1589 18.4925 72.4091 18.7345 72.5781C18.9764 72.7472 19.2847 72.8317 19.6592 72.8317ZM25.253 74V63.8182H27.0527V67.6264H27.1273C27.2201 67.4408 27.351 67.2436 27.5201 67.0348C27.6891 66.8227 27.9178 66.642 28.2061 66.4929C28.4945 66.3404 28.8624 66.2642 29.3098 66.2642C29.8998 66.2642 30.4318 66.415 30.9057 66.7166C31.383 67.0149 31.7608 67.4574 32.0392 68.044C32.321 68.6274 32.4618 69.3433 32.4618 70.1918C32.4618 71.0303 32.3243 71.7429 32.0492 72.3295C31.7741 72.9162 31.3996 73.3636 30.9256 73.6719C30.4516 73.9801 29.9147 74.1342 29.3148 74.1342C28.8773 74.1342 28.5144 74.0613 28.226 73.9155C27.9377 73.7696 27.7057 73.594 27.53 73.3885C27.3577 73.1797 27.2234 72.9825 27.1273 72.7969H27.0229V74H25.253ZM27.0179 70.1818C27.0179 70.6757 27.0875 71.1082 27.2267 71.4794C27.3693 71.8506 27.5731 72.1406 27.8382 72.3494C28.1067 72.5549 28.4315 72.6577 28.8127 72.6577C29.2104 72.6577 29.5435 72.5516 29.812 72.3395C30.0804 72.1241 30.2826 71.8307 30.4185 71.4595C30.5577 71.085 30.6273 70.6591 30.6273 70.1818C30.6273 69.7079 30.5594 69.2869 30.4235 68.919C30.2876 68.5511 30.0854 68.2628 29.8169 68.054C29.5485 67.8452 29.2137 67.7408 28.8127 67.7408C28.4282 67.7408 28.1017 67.8419 27.8333 68.044C27.5648 68.2462 27.361 68.5296 27.2218 68.8942C27.0859 69.2588 27.0179 69.688 27.0179 70.1818ZM37.5125 74.1491C36.7469 74.1491 36.0857 73.9901 35.5288 73.6719C34.9753 73.3504 34.5494 72.8963 34.2511 72.3097C33.9528 71.7197 33.8037 71.0253 33.8037 70.2266C33.8037 69.4411 33.9528 68.7517 34.2511 68.1584C34.5528 67.5618 34.9737 67.0978 35.5139 66.7663C36.0542 66.4316 36.6889 66.2642 37.418 66.2642C37.8887 66.2642 38.3328 66.3404 38.7504 66.4929C39.1714 66.642 39.5426 66.8741 39.8641 67.1889C40.1889 67.5038 40.4441 67.9048 40.6297 68.392C40.8153 68.8759 40.9081 69.4527 40.9081 70.1222V70.674H34.6489V69.4609H39.183C39.1796 69.1162 39.1051 68.8097 38.9592 68.5412C38.8134 68.2694 38.6096 68.0556 38.3477 67.8999C38.0892 67.7441 37.7876 67.6662 37.4429 67.6662C37.075 67.6662 36.7519 67.7557 36.4734 67.9347C36.195 68.1103 35.9779 68.3423 35.8222 68.6307C35.6697 68.9157 35.5918 69.2289 35.5885 69.5703V70.6293C35.5885 71.0734 35.6697 71.4545 35.8321 71.7727C35.9945 72.0876 36.2216 72.3295 36.5132 72.4986C36.8049 72.6643 37.1463 72.7472 37.5374 72.7472C37.7992 72.7472 38.0362 72.7107 38.2483 72.6378C38.4604 72.5616 38.6444 72.4505 38.8001 72.3047C38.9559 72.1589 39.0736 71.9782 39.1531 71.7628L40.8335 71.9517C40.7275 72.3958 40.5253 72.7836 40.227 73.1151C39.932 73.4432 39.5542 73.6984 39.0935 73.8807C38.6328 74.0597 38.1058 74.1491 37.5125 74.1491ZM44.3704 63.8182V74H42.5707V63.8182H44.3704Z" fill="#1A1B1F"/>
<path d="M354.733 63.2069C355.033 62.9213 355.507 62.9328 355.793 63.2327L360.794 68.4832C361.07 68.7728 361.07 69.2281 360.794 69.5178L355.793 74.7682C355.507 75.0681 355.033 75.0797 354.733 74.794C354.433 74.5083 354.421 74.0336 354.707 73.7336L359.216 69.0005L354.707 64.2673C354.421 63.9674 354.433 63.4926 354.733 63.2069Z" fill="#878B92"/>
<path d="M25.7543 120C26.9963 120 28.0032 121.007 28.0032 122.249V122.824C28.0032 123.719 27.6836 124.583 27.1021 125.263C25.5327 127.096 23.1455 128.001 20.0001 128.001C16.8543 128.001 14.4682 127.096 12.9019 125.262C12.3222 124.583 12.0037 123.719 12.0037 122.826V122.249C12.0037 121.007 13.0105 120 14.2525 120H25.7543ZM25.7543 121.5H14.2525C13.8389 121.5 13.5037 121.835 13.5037 122.249V122.826C13.5037 123.362 13.6948 123.88 14.0426 124.288C15.2959 125.755 17.2618 126.501 20.0001 126.501C22.7384 126.501 24.706 125.755 25.9625 124.287C26.3114 123.88 26.5032 123.361 26.5032 122.824V122.249C26.5032 121.835 26.1679 121.5 25.7543 121.5ZM20.0001 108.005C22.7615 108.005 25.0001 110.243 25.0001 113.005C25.0001 115.766 22.7615 118.005 20.0001 118.005C17.2387 118.005 15.0001 115.766 15.0001 113.005C15.0001 110.243 17.2387 108.005 20.0001 108.005ZM20.0001 109.505C18.0671 109.505 16.5001 111.072 16.5001 113.005C16.5001 114.938 18.0671 116.505 20.0001 116.505C21.9331 116.505 23.5001 114.938 23.5001 113.005C23.5001 111.072 21.9331 109.505 20.0001 109.505Z" fill="#4D80B3"/>
<path d="M49.0043 123V112.818H50.8487V121.454H55.3331V123H49.0043ZM59.1918 123.154C58.7079 123.154 58.2721 123.068 57.8843 122.896C57.4998 122.72 57.1949 122.461 56.9695 122.12C56.7475 121.779 56.6364 121.358 56.6364 120.857C56.6364 120.426 56.716 120.07 56.8751 119.788C57.0342 119.507 57.2513 119.281 57.5264 119.112C57.8015 118.943 58.1114 118.816 58.4561 118.729C58.8041 118.64 59.1637 118.575 59.5349 118.536C59.9823 118.489 60.3453 118.448 60.6237 118.411C60.9021 118.371 61.1043 118.312 61.2302 118.232C61.3595 118.149 61.4241 118.022 61.4241 117.849V117.82C61.4241 117.445 61.3131 117.155 61.091 116.95C60.8689 116.744 60.5491 116.641 60.1315 116.641C59.6907 116.641 59.341 116.737 59.0825 116.93C58.8273 117.122 58.6549 117.349 58.5654 117.611L56.885 117.372C57.0176 116.908 57.2364 116.52 57.5413 116.209C57.8462 115.894 58.2191 115.659 58.6599 115.503C59.1007 115.344 59.5879 115.264 60.1215 115.264C60.4894 115.264 60.8557 115.307 61.2203 115.393C61.5848 115.48 61.9179 115.622 62.2195 115.821C62.5212 116.017 62.7631 116.283 62.9454 116.621C63.131 116.96 63.2238 117.382 63.2238 117.889V123H61.4937V121.951H61.434C61.3247 122.163 61.1705 122.362 60.9717 122.548C60.7761 122.73 60.5292 122.877 60.2309 122.99C59.9359 123.099 59.5896 123.154 59.1918 123.154ZM59.6592 121.832C60.0204 121.832 60.3337 121.76 60.5988 121.618C60.864 121.472 61.0678 121.28 61.2103 121.041C61.3561 120.803 61.4291 120.542 61.4291 120.261V119.361C61.3727 119.407 61.2766 119.45 61.1407 119.49C61.0081 119.53 60.859 119.565 60.6933 119.594C60.5275 119.624 60.3635 119.651 60.2011 119.674C60.0387 119.697 59.8978 119.717 59.7785 119.734C59.51 119.77 59.2697 119.83 59.0576 119.913C58.8455 119.996 58.6781 120.112 58.5555 120.261C58.4329 120.406 58.3715 120.595 58.3715 120.827C58.3715 121.159 58.4925 121.409 58.7345 121.578C58.9764 121.747 59.2847 121.832 59.6592 121.832ZM65.253 123V112.818H67.0527V116.626H67.1273C67.2201 116.441 67.351 116.244 67.5201 116.035C67.6891 115.823 67.9178 115.642 68.2061 115.493C68.4945 115.34 68.8624 115.264 69.3098 115.264C69.8998 115.264 70.4318 115.415 70.9057 115.717C71.383 116.015 71.7608 116.457 72.0392 117.044C72.321 117.627 72.4618 118.343 72.4618 119.192C72.4618 120.03 72.3243 120.743 72.0492 121.33C71.7741 121.916 71.3996 122.364 70.9256 122.672C70.4516 122.98 69.9147 123.134 69.3148 123.134C68.8773 123.134 68.5144 123.061 68.226 122.915C67.9377 122.77 67.7057 122.594 67.53 122.388C67.3577 122.18 67.2234 121.982 67.1273 121.797H67.0229V123H65.253ZM67.0179 119.182C67.0179 119.676 67.0875 120.108 67.2267 120.479C67.3693 120.851 67.5731 121.141 67.8382 121.349C68.1067 121.555 68.4315 121.658 68.8127 121.658C69.2104 121.658 69.5435 121.552 69.812 121.339C70.0804 121.124 70.2826 120.831 70.4185 120.46C70.5577 120.085 70.6273 119.659 70.6273 119.182C70.6273 118.708 70.5594 118.287 70.4235 117.919C70.2876 117.551 70.0854 117.263 69.8169 117.054C69.5485 116.845 69.2137 116.741 68.8127 116.741C68.4282 116.741 68.1017 116.842 67.8333 117.044C67.5648 117.246 67.361 117.53 67.2218 117.894C67.0859 118.259 67.0179 118.688 67.0179 119.182ZM77.5125 123.149C76.7469 123.149 76.0857 122.99 75.5288 122.672C74.9753 122.35 74.5494 121.896 74.2511 121.31C73.9528 120.72 73.8037 120.025 73.8037 119.227C73.8037 118.441 73.9528 117.752 74.2511 117.158C74.5528 116.562 74.9737 116.098 75.5139 115.766C76.0542 115.432 76.6889 115.264 77.418 115.264C77.8887 115.264 78.3328 115.34 78.7504 115.493C79.1714 115.642 79.5426 115.874 79.8641 116.189C80.1889 116.504 80.4441 116.905 80.6297 117.392C80.8153 117.876 80.9081 118.453 80.9081 119.122V119.674H74.6489V118.461H79.183C79.1796 118.116 79.1051 117.81 78.9592 117.541C78.8134 117.269 78.6096 117.056 78.3477 116.9C78.0892 116.744 77.7876 116.666 77.4429 116.666C77.075 116.666 76.7519 116.756 76.4734 116.935C76.195 117.11 75.9779 117.342 75.8222 117.631C75.6697 117.916 75.5918 118.229 75.5885 118.57V119.629C75.5885 120.073 75.6697 120.455 75.8321 120.773C75.9945 121.088 76.2216 121.33 76.5132 121.499C76.8049 121.664 77.1463 121.747 77.5374 121.747C77.7992 121.747 78.0362 121.711 78.2483 121.638C78.4604 121.562 78.6444 121.451 78.8001 121.305C78.9559 121.159 79.0736 120.978 79.1531 120.763L80.8335 120.952C80.7275 121.396 80.5253 121.784 80.227 122.115C79.932 122.443 79.5542 122.698 79.0935 122.881C78.6328 123.06 78.1058 123.149 77.5125 123.149ZM84.3704 112.818V123H82.5707V112.818H84.3704Z" fill="#1A1B1F"/>
<path d="M354.733 112.207C355.033 111.921 355.507 111.933 355.793 112.233L360.794 117.483C361.07 117.773 361.07 118.228 360.794 118.518L355.793 123.768C355.507 124.068 355.033 124.08 354.733 123.794C354.433 123.508 354.421 123.034 354.707 122.734L359.216 118L354.707 113.267C354.421 112.967 354.433 112.493 354.733 112.207Z" fill="#878B92"/>
<rect y="147" width="375" height="40" rx="8" fill="#F0F2F5"/>
<path d="M25.7543 169C26.9963 169 28.0032 170.007 28.0032 171.249V171.824C28.0032 172.719 27.6836 173.583 27.1021 174.263C25.5327 176.096 23.1455 177.001 20.0001 177.001C16.8543 177.001 14.4682 176.096 12.9019 174.262C12.3222 173.583 12.0037 172.719 12.0037 171.826V171.249C12.0037 170.007 13.0105 169 14.2525 169H25.7543ZM25.7543 170.5H14.2525C13.8389 170.5 13.5037 170.835 13.5037 171.249V171.826C13.5037 172.362 13.6948 172.88 14.0426 173.288C15.2959 174.755 17.2618 175.501 20.0001 175.501C22.7384 175.501 24.706 174.755 25.9625 173.287C26.3114 172.88 26.5032 172.361 26.5032 171.824V171.249C26.5032 170.835 26.1679 170.5 25.7543 170.5ZM20.0001 157.005C22.7615 157.005 25.0001 159.243 25.0001 162.005C25.0001 164.766 22.7615 167.005 20.0001 167.005C17.2387 167.005 15.0001 164.766 15.0001 162.005C15.0001 159.243 17.2387 157.005 20.0001 157.005ZM20.0001 158.505C18.0671 158.505 16.5001 160.072 16.5001 162.005C16.5001 163.938 18.0671 165.505 20.0001 165.505C21.9331 165.505 23.5001 163.938 23.5001 162.005C23.5001 160.072 21.9331 158.505 20.0001 158.505Z" fill="#4D80B3"/>
<path d="M49.0043 172V161.818H50.8487V170.454H55.3331V172H49.0043ZM59.1918 172.154C58.7079 172.154 58.2721 172.068 57.8843 171.896C57.4998 171.72 57.1949 171.461 56.9695 171.12C56.7475 170.779 56.6364 170.358 56.6364 169.857C56.6364 169.426 56.716 169.07 56.8751 168.788C57.0342 168.507 57.2513 168.281 57.5264 168.112C57.8015 167.943 58.1114 167.816 58.4561 167.729C58.8041 167.64 59.1637 167.575 59.5349 167.536C59.9823 167.489 60.3453 167.448 60.6237 167.411C60.9021 167.371 61.1043 167.312 61.2302 167.232C61.3595 167.149 61.4241 167.022 61.4241 166.849V166.82C61.4241 166.445 61.3131 166.155 61.091 165.95C60.8689 165.744 60.5491 165.641 60.1315 165.641C59.6907 165.641 59.341 165.737 59.0825 165.93C58.8273 166.122 58.6549 166.349 58.5654 166.611L56.885 166.372C57.0176 165.908 57.2364 165.52 57.5413 165.209C57.8462 164.894 58.2191 164.659 58.6599 164.503C59.1007 164.344 59.5879 164.264 60.1215 164.264C60.4894 164.264 60.8557 164.307 61.2203 164.393C61.5848 164.48 61.9179 164.622 62.2195 164.821C62.5212 165.017 62.7631 165.283 62.9454 165.621C63.131 165.96 63.2238 166.382 63.2238 166.889V172H61.4937V170.951H61.434C61.3247 171.163 61.1705 171.362 60.9717 171.548C60.7761 171.73 60.5292 171.877 60.2309 171.99C59.9359 172.099 59.5896 172.154 59.1918 172.154ZM59.6592 170.832C60.0204 170.832 60.3337 170.76 60.5988 170.618C60.864 170.472 61.0678 170.28 61.2103 170.041C61.3561 169.803 61.4291 169.542 61.4291 169.261V168.361C61.3727 168.407 61.2766 168.45 61.1407 168.49C61.0081 168.53 60.859 168.565 60.6933 168.594C60.5275 168.624 60.3635 168.651 60.2011 168.674C60.0387 168.697 59.8978 168.717 59.7785 168.734C59.51 168.77 59.2697 168.83 59.0576 168.913C58.8455 168.996 58.6781 169.112 58.5555 169.261C58.4329 169.406 58.3715 169.595 58.3715 169.827C58.3715 170.159 58.4925 170.409 58.7345 170.578C58.9764 170.747 59.2847 170.832 59.6592 170.832ZM65.253 172V161.818H67.0527V165.626H67.1273C67.2201 165.441 67.351 165.244 67.5201 165.035C67.6891 164.823 67.9178 164.642 68.2061 164.493C68.4945 164.34 68.8624 164.264 69.3098 164.264C69.8998 164.264 70.4318 164.415 70.9057 164.717C71.383 165.015 71.7608 165.457 72.0392 166.044C72.321 166.627 72.4618 167.343 72.4618 168.192C72.4618 169.03 72.3243 169.743 72.0492 170.33C71.7741 170.916 71.3996 171.364 70.9256 171.672C70.4516 171.98 69.9147 172.134 69.3148 172.134C68.8773 172.134 68.5144 172.061 68.226 171.915C67.9377 171.77 67.7057 171.594 67.53 171.388C67.3577 171.18 67.2234 170.982 67.1273 170.797H67.0229V172H65.253ZM67.0179 168.182C67.0179 168.676 67.0875 169.108 67.2267 169.479C67.3693 169.851 67.5731 170.141 67.8382 170.349C68.1067 170.555 68.4315 170.658 68.8127 170.658C69.2104 170.658 69.5435 170.552 69.812 170.339C70.0804 170.124 70.2826 169.831 70.4185 169.46C70.5577 169.085 70.6273 168.659 70.6273 168.182C70.6273 167.708 70.5594 167.287 70.4235 166.919C70.2876 166.551 70.0854 166.263 69.8169 166.054C69.5485 165.845 69.2137 165.741 68.8127 165.741C68.4282 165.741 68.1017 165.842 67.8333 166.044C67.5648 166.246 67.361 166.53 67.2218 166.894C67.0859 167.259 67.0179 167.688 67.0179 168.182ZM77.5125 172.149C76.7469 172.149 76.0857 171.99 75.5288 171.672C74.9753 171.35 74.5494 170.896 74.2511 170.31C73.9528 169.72 73.8037 169.025 73.8037 168.227C73.8037 167.441 73.9528 166.752 74.2511 166.158C74.5528 165.562 74.9737 165.098 75.5139 164.766C76.0542 164.432 76.6889 164.264 77.418 164.264C77.8887 164.264 78.3328 164.34 78.7504 164.493C79.1714 164.642 79.5426 164.874 79.8641 165.189C80.1889 165.504 80.4441 165.905 80.6297 166.392C80.8153 166.876 80.9081 167.453 80.9081 168.122V168.674H74.6489V167.461H79.183C79.1796 167.116 79.1051 166.81 78.9592 166.541C78.8134 166.269 78.6096 166.056 78.3477 165.9C78.0892 165.744 77.7876 165.666 77.4429 165.666C77.075 165.666 76.7519 165.756 76.4734 165.935C76.195 166.11 75.9779 166.342 75.8222 166.631C75.6697 166.916 75.5918 167.229 75.5885 167.57V168.629C75.5885 169.073 75.6697 169.455 75.8321 169.773C75.9945 170.088 76.2216 170.33 76.5132 170.499C76.8049 170.664 77.1463 170.747 77.5374 170.747C77.7992 170.747 78.0362 170.711 78.2483 170.638C78.4604 170.562 78.6444 170.451 78.8001 170.305C78.9559 170.159 79.0736 169.978 79.1531 169.763L80.8335 169.952C80.7275 170.396 80.5253 170.784 80.227 171.115C79.932 171.443 79.5542 171.698 79.0935 171.881C78.6328 172.06 78.1058 172.149 77.5125 172.149ZM84.3704 161.818V172H82.5707V161.818H84.3704Z" fill="#1A1B1F"/>
<path d="M354.733 161.207C355.033 160.921 355.507 160.933 355.793 161.233L360.794 166.483C361.07 166.773 361.07 167.228 360.794 167.518L355.793 172.768C355.507 173.068 355.033 173.08 354.733 172.794C354.433 172.508 354.421 172.034 354.707 171.734L359.216 167L354.707 162.267C354.421 161.967 354.433 161.493 354.733 161.207Z" fill="#878B92"/>
<rect y="245" width="375" height="40" rx="8" fill="#D2DEE9"/>
<path d="M9.00426 270V259.818H10.8487V268.454H15.3331V270H9.00426ZM19.1918 270.154C18.7079 270.154 18.2721 270.068 17.8843 269.896C17.4998 269.72 17.1949 269.461 16.9695 269.12C16.7475 268.779 16.6364 268.358 16.6364 267.857C16.6364 267.426 16.716 267.07 16.8751 266.788C17.0342 266.507 17.2513 266.281 17.5264 266.112C17.8015 265.943 18.1114 265.816 18.4561 265.729C18.8041 265.64 19.1637 265.575 19.5349 265.536C19.9823 265.489 20.3453 265.448 20.6237 265.411C20.9021 265.371 21.1043 265.312 21.2302 265.232C21.3595 265.149 21.4241 265.022 21.4241 264.849V264.82C21.4241 264.445 21.3131 264.155 21.091 263.95C20.8689 263.744 20.5491 263.641 20.1315 263.641C19.6907 263.641 19.341 263.737 19.0825 263.93C18.8273 264.122 18.6549 264.349 18.5654 264.611L16.885 264.372C17.0176 263.908 17.2364 263.52 17.5413 263.209C17.8462 262.894 18.2191 262.659 18.6599 262.503C19.1007 262.344 19.5879 262.264 20.1215 262.264C20.4894 262.264 20.8557 262.307 21.2203 262.393C21.5848 262.48 21.9179 262.622 22.2195 262.821C22.5212 263.017 22.7631 263.283 22.9454 263.621C23.131 263.96 23.2238 264.382 23.2238 264.889V270H21.4937V268.951H21.434C21.3247 269.163 21.1705 269.362 20.9717 269.548C20.7761 269.73 20.5292 269.877 20.2309 269.99C19.9359 270.099 19.5896 270.154 19.1918 270.154ZM19.6592 268.832C20.0204 268.832 20.3337 268.76 20.5988 268.618C20.864 268.472 21.0678 268.28 21.2103 268.041C21.3561 267.803 21.4291 267.542 21.4291 267.261V266.361C21.3727 266.407 21.2766 266.45 21.1407 266.49C21.0081 266.53 20.859 266.565 20.6933 266.594C20.5275 266.624 20.3635 266.651 20.2011 266.674C20.0387 266.697 19.8978 266.717 19.7785 266.734C19.51 266.77 19.2697 266.83 19.0576 266.913C18.8455 266.996 18.6781 267.112 18.5555 267.261C18.4329 267.406 18.3715 267.595 18.3715 267.827C18.3715 268.159 18.4925 268.409 18.7345 268.578C18.9764 268.747 19.2847 268.832 19.6592 268.832ZM25.253 270V259.818H27.0527V263.626H27.1273C27.2201 263.441 27.351 263.244 27.5201 263.035C27.6891 262.823 27.9178 262.642 28.2061 262.493C28.4945 262.34 28.8624 262.264 29.3098 262.264C29.8998 262.264 30.4318 262.415 30.9057 262.717C31.383 263.015 31.7608 263.457 32.0392 264.044C32.321 264.627 32.4618 265.343 32.4618 266.192C32.4618 267.03 32.3243 267.743 32.0492 268.33C31.7741 268.916 31.3996 269.364 30.9256 269.672C30.4516 269.98 29.9147 270.134 29.3148 270.134C28.8773 270.134 28.5144 270.061 28.226 269.915C27.9377 269.77 27.7057 269.594 27.53 269.388C27.3577 269.18 27.2234 268.982 27.1273 268.797H27.0229V270H25.253ZM27.0179 266.182C27.0179 266.676 27.0875 267.108 27.2267 267.479C27.3693 267.851 27.5731 268.141 27.8382 268.349C28.1067 268.555 28.4315 268.658 28.8127 268.658C29.2104 268.658 29.5435 268.552 29.812 268.339C30.0804 268.124 30.2826 267.831 30.4185 267.46C30.5577 267.085 30.6273 266.659 30.6273 266.182C30.6273 265.708 30.5594 265.287 30.4235 264.919C30.2876 264.551 30.0854 264.263 29.8169 264.054C29.5485 263.845 29.2137 263.741 28.8127 263.741C28.4282 263.741 28.1017 263.842 27.8333 264.044C27.5648 264.246 27.361 264.53 27.2218 264.894C27.0859 265.259 27.0179 265.688 27.0179 266.182ZM37.5125 270.149C36.7469 270.149 36.0857 269.99 35.5288 269.672C34.9753 269.35 34.5494 268.896 34.2511 268.31C33.9528 267.72 33.8037 267.025 33.8037 266.227C33.8037 265.441 33.9528 264.752 34.2511 264.158C34.5528 263.562 34.9737 263.098 35.5139 262.766C36.0542 262.432 36.6889 262.264 37.418 262.264C37.8887 262.264 38.3328 262.34 38.7504 262.493C39.1714 262.642 39.5426 262.874 39.8641 263.189C40.1889 263.504 40.4441 263.905 40.6297 264.392C40.8153 264.876 40.9081 265.453 40.9081 266.122V266.674H34.6489V265.461H39.183C39.1796 265.116 39.1051 264.81 38.9592 264.541C38.8134 264.269 38.6096 264.056 38.3477 263.9C38.0892 263.744 37.7876 263.666 37.4429 263.666C37.075 263.666 36.7519 263.756 36.4734 263.935C36.195 264.11 35.9779 264.342 35.8222 264.631C35.6697 264.916 35.5918 265.229 35.5885 265.57V266.629C35.5885 267.073 35.6697 267.455 35.8321 267.773C35.9945 268.088 36.2216 268.33 36.5132 268.499C36.8049 268.664 37.1463 268.747 37.5374 268.747C37.7992 268.747 38.0362 268.711 38.2483 268.638C38.4604 268.562 38.6444 268.451 38.8001 268.305C38.9559 268.159 39.0736 267.978 39.1531 267.763L40.8335 267.952C40.7275 268.396 40.5253 268.784 40.227 269.115C39.932 269.443 39.5542 269.698 39.0935 269.881C38.6328 270.06 38.1058 270.149 37.5125 270.149ZM44.3704 259.818V270H42.5707V259.818H44.3704Z" fill="#003366"/>
<rect x="327" y="257" width="16" height="16" rx="8" fill="#924F92"/>
<path d="M331.622 267.381V266.124L335.325 260.273H336.373V262.062H335.734L333.241 266.013V266.081H338.41V267.381H331.622ZM335.785 269V266.997L335.802 266.435V260.273H337.294V269H335.785Z" fill="#FFF5FF"/>
<path d="M354.733 259.207C355.033 258.921 355.507 258.933 355.793 259.233L360.794 264.483C361.07 264.773 361.07 265.228 360.794 265.518L355.793 270.768C355.507 271.068 355.033 271.08 354.733 270.794C354.433 270.508 354.421 270.034 354.707 269.734L359.216 265L354.707 260.267C354.421 259.967 354.433 259.493 354.733 259.207Z" fill="#003366"/>
<path d="M9.00426 25V14.8182H10.8487V23.4538H15.3331V25H9.00426ZM19.1918 25.1541C18.7079 25.1541 18.2721 25.0679 17.8843 24.8956C17.4998 24.7199 17.1949 24.4614 16.9695 24.12C16.7475 23.7786 16.6364 23.3577 16.6364 22.8572C16.6364 22.4264 16.716 22.0701 16.8751 21.7884C17.0342 21.5066 17.2513 21.2812 17.5264 21.1122C17.8015 20.9432 18.1114 20.8156 18.4561 20.7294C18.8041 20.6399 19.1637 20.5753 19.5349 20.5355C19.9823 20.4891 20.3453 20.4477 20.6237 20.4112C20.9021 20.3714 21.1043 20.3118 21.2302 20.2322C21.3595 20.1494 21.4241 20.0218 21.4241 19.8494V19.8196C21.4241 19.4451 21.3131 19.1551 21.091 18.9496C20.8689 18.7441 20.5491 18.6413 20.1315 18.6413C19.6907 18.6413 19.341 18.7375 19.0825 18.9297C18.8273 19.1219 18.6549 19.349 18.5654 19.6108L16.885 19.3722C17.0176 18.9081 17.2364 18.5204 17.5413 18.2088C17.8462 17.8939 18.2191 17.6586 18.6599 17.5028C19.1007 17.3438 19.5879 17.2642 20.1215 17.2642C20.4894 17.2642 20.8557 17.3073 21.2203 17.3935C21.5848 17.4796 21.9179 17.6222 22.2195 17.821C22.5212 18.0166 22.7631 18.2834 22.9454 18.6214C23.131 18.9595 23.2238 19.3821 23.2238 19.8892V25H21.4937V23.951H21.434C21.3247 24.1631 21.1705 24.362 20.9717 24.5476C20.7761 24.7299 20.5292 24.8774 20.2309 24.9901C19.9359 25.0994 19.5896 25.1541 19.1918 25.1541ZM19.6592 23.8317C20.0204 23.8317 20.3337 23.7604 20.5988 23.6179C20.864 23.4721 21.0678 23.2798 21.2103 23.0412C21.3561 22.8026 21.4291 22.5424 21.4291 22.2607V21.3608C21.3727 21.4072 21.2766 21.4503 21.1407 21.4901C21.0081 21.5298 20.859 21.5646 20.6933 21.5945C20.5275 21.6243 20.3635 21.6508 20.2011 21.674C20.0387 21.6972 19.8978 21.7171 19.7785 21.7337C19.51 21.7701 19.2697 21.8298 19.0576 21.9126C18.8455 21.9955 18.6781 22.1115 18.5555 22.2607C18.4329 22.4065 18.3715 22.5954 18.3715 22.8274C18.3715 23.1589 18.4925 23.4091 18.7345 23.5781C18.9764 23.7472 19.2847 23.8317 19.6592 23.8317ZM25.253 25V14.8182H27.0527V18.6264H27.1273C27.2201 18.4408 27.351 18.2436 27.5201 18.0348C27.6891 17.8227 27.9178 17.642 28.2061 17.4929C28.4945 17.3404 28.8624 17.2642 29.3098 17.2642C29.8998 17.2642 30.4318 17.415 30.9057 17.7166C31.383 18.0149 31.7608 18.4574 32.0392 19.044C32.321 19.6274 32.4618 20.3433 32.4618 21.1918C32.4618 22.0303 32.3243 22.7429 32.0492 23.3295C31.7741 23.9162 31.3996 24.3636 30.9256 24.6719C30.4516 24.9801 29.9147 25.1342 29.3148 25.1342C28.8773 25.1342 28.5144 25.0613 28.226 24.9155C27.9377 24.7696 27.7057 24.594 27.53 24.3885C27.3577 24.1797 27.2234 23.9825 27.1273 23.7969H27.0229V25H25.253ZM27.0179 21.1818C27.0179 21.6757 27.0875 22.1082 27.2267 22.4794C27.3693 22.8506 27.5731 23.1406 27.8382 23.3494C28.1067 23.5549 28.4315 23.6577 28.8127 23.6577C29.2104 23.6577 29.5435 23.5516 29.812 23.3395C30.0804 23.1241 30.2826 22.8307 30.4185 22.4595C30.5577 22.085 30.6273 21.6591 30.6273 21.1818C30.6273 20.7079 30.5594 20.2869 30.4235 19.919C30.2876 19.5511 30.0854 19.2628 29.8169 19.054C29.5485 18.8452 29.2137 18.7408 28.8127 18.7408C28.4282 18.7408 28.1017 18.8419 27.8333 19.044C27.5648 19.2462 27.361 19.5296 27.2218 19.8942C27.0859 20.2588 27.0179 20.688 27.0179 21.1818ZM37.5125 25.1491C36.7469 25.1491 36.0857 24.9901 35.5288 24.6719C34.9753 24.3504 34.5494 23.8963 34.2511 23.3097C33.9528 22.7197 33.8037 22.0253 33.8037 21.2266C33.8037 20.4411 33.9528 19.7517 34.2511 19.1584C34.5528 18.5618 34.9737 18.0978 35.5139 17.7663C36.0542 17.4316 36.6889 17.2642 37.418 17.2642C37.8887 17.2642 38.3328 17.3404 38.7504 17.4929C39.1714 17.642 39.5426 17.8741 39.8641 18.1889C40.1889 18.5038 40.4441 18.9048 40.6297 19.392C40.8153 19.8759 40.9081 20.4527 40.9081 21.1222V21.674H34.6489V20.4609H39.183C39.1796 20.1162 39.1051 19.8097 38.9592 19.5412C38.8134 19.2694 38.6096 19.0556 38.3477 18.8999C38.0892 18.7441 37.7876 18.6662 37.4429 18.6662C37.075 18.6662 36.7519 18.7557 36.4734 18.9347C36.195 19.1103 35.9779 19.3423 35.8222 19.6307C35.6697 19.9157 35.5918 20.2289 35.5885 20.5703V21.6293C35.5885 22.0734 35.6697 22.4545 35.8321 22.7727C35.9945 23.0876 36.2216 23.3295 36.5132 23.4986C36.8049 23.6643 37.1463 23.7472 37.5374 23.7472C37.7992 23.7472 38.0362 23.7107 38.2483 23.6378C38.4604 23.5616 38.6444 23.4505 38.8001 23.3047C38.9559 23.1589 39.0736 22.9782 39.1531 22.7628L40.8335 22.9517C40.7275 23.3958 40.5253 23.7836 40.227 24.1151C39.932 24.4432 39.5542 24.6984 39.0935 24.8807C38.6328 25.0597 38.1058 25.1491 37.5125 25.1491ZM44.3704 14.8182V25H42.5707V14.8182H44.3704Z" fill="#1A1B1F"/>
<rect y="294" width="375" height="40" rx="8" fill="#C1D1E1"/>
<path d="M25.7543 316C26.9963 316 28.0032 317.007 28.0032 318.249V318.824C28.0032 319.719 27.6836 320.583 27.1021 321.263C25.5327 323.096 23.1455 324.001 20.0001 324.001C16.8543 324.001 14.4682 323.096 12.9019 321.262C12.3222 320.583 12.0037 319.719 12.0037 318.826V318.249C12.0037 317.007 13.0105 316 14.2525 316H25.7543ZM25.7543 317.5H14.2525C13.8389 317.5 13.5037 317.835 13.5037 318.249V318.826C13.5037 319.362 13.6948 319.88 14.0426 320.288C15.2959 321.755 17.2618 322.501 20.0001 322.501C22.7384 322.501 24.706 321.755 25.9625 320.287C26.3114 319.88 26.5032 319.361 26.5032 318.824V318.249C26.5032 317.835 26.1679 317.5 25.7543 317.5ZM20.0001 304.005C22.7615 304.005 25.0001 306.243 25.0001 309.005C25.0001 311.766 22.7615 314.005 20.0001 314.005C17.2387 314.005 15.0001 311.766 15.0001 309.005C15.0001 306.243 17.2387 304.005 20.0001 304.005ZM20.0001 305.505C18.0671 305.505 16.5001 307.072 16.5001 309.005C16.5001 310.938 18.0671 312.505 20.0001 312.505C21.9331 312.505 23.5001 310.938 23.5001 309.005C23.5001 307.072 21.9331 305.505 20.0001 305.505Z" fill="#003366"/>
<path d="M49.0043 319V308.818H50.8487V317.454H55.3331V319H49.0043ZM59.1918 319.154C58.7079 319.154 58.2721 319.068 57.8843 318.896C57.4998 318.72 57.1949 318.461 56.9695 318.12C56.7475 317.779 56.6364 317.358 56.6364 316.857C56.6364 316.426 56.716 316.07 56.8751 315.788C57.0342 315.507 57.2513 315.281 57.5264 315.112C57.8015 314.943 58.1114 314.816 58.4561 314.729C58.8041 314.64 59.1637 314.575 59.5349 314.536C59.9823 314.489 60.3453 314.448 60.6237 314.411C60.9021 314.371 61.1043 314.312 61.2302 314.232C61.3595 314.149 61.4241 314.022 61.4241 313.849V313.82C61.4241 313.445 61.3131 313.155 61.091 312.95C60.8689 312.744 60.5491 312.641 60.1315 312.641C59.6907 312.641 59.341 312.737 59.0825 312.93C58.8273 313.122 58.6549 313.349 58.5654 313.611L56.885 313.372C57.0176 312.908 57.2364 312.52 57.5413 312.209C57.8462 311.894 58.2191 311.659 58.6599 311.503C59.1007 311.344 59.5879 311.264 60.1215 311.264C60.4894 311.264 60.8557 311.307 61.2203 311.393C61.5848 311.48 61.9179 311.622 62.2195 311.821C62.5212 312.017 62.7631 312.283 62.9454 312.621C63.131 312.96 63.2238 313.382 63.2238 313.889V319H61.4937V317.951H61.434C61.3247 318.163 61.1705 318.362 60.9717 318.548C60.7761 318.73 60.5292 318.877 60.2309 318.99C59.9359 319.099 59.5896 319.154 59.1918 319.154ZM59.6592 317.832C60.0204 317.832 60.3337 317.76 60.5988 317.618C60.864 317.472 61.0678 317.28 61.2103 317.041C61.3561 316.803 61.4291 316.542 61.4291 316.261V315.361C61.3727 315.407 61.2766 315.45 61.1407 315.49C61.0081 315.53 60.859 315.565 60.6933 315.594C60.5275 315.624 60.3635 315.651 60.2011 315.674C60.0387 315.697 59.8978 315.717 59.7785 315.734C59.51 315.77 59.2697 315.83 59.0576 315.913C58.8455 315.996 58.6781 316.112 58.5555 316.261C58.4329 316.406 58.3715 316.595 58.3715 316.827C58.3715 317.159 58.4925 317.409 58.7345 317.578C58.9764 317.747 59.2847 317.832 59.6592 317.832ZM65.253 319V308.818H67.0527V312.626H67.1273C67.2201 312.441 67.351 312.244 67.5201 312.035C67.6891 311.823 67.9178 311.642 68.2061 311.493C68.4945 311.34 68.8624 311.264 69.3098 311.264C69.8998 311.264 70.4318 311.415 70.9057 311.717C71.383 312.015 71.7608 312.457 72.0392 313.044C72.321 313.627 72.4618 314.343 72.4618 315.192C72.4618 316.03 72.3243 316.743 72.0492 317.33C71.7741 317.916 71.3996 318.364 70.9256 318.672C70.4516 318.98 69.9147 319.134 69.3148 319.134C68.8773 319.134 68.5144 319.061 68.226 318.915C67.9377 318.77 67.7057 318.594 67.53 318.388C67.3577 318.18 67.2234 317.982 67.1273 317.797H67.0229V319H65.253ZM67.0179 315.182C67.0179 315.676 67.0875 316.108 67.2267 316.479C67.3693 316.851 67.5731 317.141 67.8382 317.349C68.1067 317.555 68.4315 317.658 68.8127 317.658C69.2104 317.658 69.5435 317.552 69.812 317.339C70.0804 317.124 70.2826 316.831 70.4185 316.46C70.5577 316.085 70.6273 315.659 70.6273 315.182C70.6273 314.708 70.5594 314.287 70.4235 313.919C70.2876 313.551 70.0854 313.263 69.8169 313.054C69.5485 312.845 69.2137 312.741 68.8127 312.741C68.4282 312.741 68.1017 312.842 67.8333 313.044C67.5648 313.246 67.361 313.53 67.2218 313.894C67.0859 314.259 67.0179 314.688 67.0179 315.182ZM77.5125 319.149C76.7469 319.149 76.0857 318.99 75.5288 318.672C74.9753 318.35 74.5494 317.896 74.2511 317.31C73.9528 316.72 73.8037 316.025 73.8037 315.227C73.8037 314.441 73.9528 313.752 74.2511 313.158C74.5528 312.562 74.9737 312.098 75.5139 311.766C76.0542 311.432 76.6889 311.264 77.418 311.264C77.8887 311.264 78.3328 311.34 78.7504 311.493C79.1714 311.642 79.5426 311.874 79.8641 312.189C80.1889 312.504 80.4441 312.905 80.6297 313.392C80.8153 313.876 80.9081 314.453 80.9081 315.122V315.674H74.6489V314.461H79.183C79.1796 314.116 79.1051 313.81 78.9592 313.541C78.8134 313.269 78.6096 313.056 78.3477 312.9C78.0892 312.744 77.7876 312.666 77.4429 312.666C77.075 312.666 76.7519 312.756 76.4734 312.935C76.195 313.11 75.9779 313.342 75.8222 313.631C75.6697 313.916 75.5918 314.229 75.5885 314.57V315.629C75.5885 316.073 75.6697 316.455 75.8321 316.773C75.9945 317.088 76.2216 317.33 76.5132 317.499C76.8049 317.664 77.1463 317.747 77.5374 317.747C77.7992 317.747 78.0362 317.711 78.2483 317.638C78.4604 317.562 78.6444 317.451 78.8001 317.305C78.9559 317.159 79.0736 316.978 79.1531 316.763L80.8335 316.952C80.7275 317.396 80.5253 317.784 80.227 318.115C79.932 318.443 79.5542 318.698 79.0935 318.881C78.6328 319.06 78.1058 319.149 77.5125 319.149ZM84.3704 308.818V319H82.5707V308.818H84.3704Z" fill="#003366"/>
<rect y="196" width="375" height="40" rx="8" fill="#D2DEE9"/>
<path d="M9.00426 221V210.818H10.8487V219.454H15.3331V221H9.00426ZM19.1918 221.154C18.7079 221.154 18.2721 221.068 17.8843 220.896C17.4998 220.72 17.1949 220.461 16.9695 220.12C16.7475 219.779 16.6364 219.358 16.6364 218.857C16.6364 218.426 16.716 218.07 16.8751 217.788C17.0342 217.507 17.2513 217.281 17.5264 217.112C17.8015 216.943 18.1114 216.816 18.4561 216.729C18.8041 216.64 19.1637 216.575 19.5349 216.536C19.9823 216.489 20.3453 216.448 20.6237 216.411C20.9021 216.371 21.1043 216.312 21.2302 216.232C21.3595 216.149 21.4241 216.022 21.4241 215.849V215.82C21.4241 215.445 21.3131 215.155 21.091 214.95C20.8689 214.744 20.5491 214.641 20.1315 214.641C19.6907 214.641 19.341 214.737 19.0825 214.93C18.8273 215.122 18.6549 215.349 18.5654 215.611L16.885 215.372C17.0176 214.908 17.2364 214.52 17.5413 214.209C17.8462 213.894 18.2191 213.659 18.6599 213.503C19.1007 213.344 19.5879 213.264 20.1215 213.264C20.4894 213.264 20.8557 213.307 21.2203 213.393C21.5848 213.48 21.9179 213.622 22.2195 213.821C22.5212 214.017 22.7631 214.283 22.9454 214.621C23.131 214.96 23.2238 215.382 23.2238 215.889V221H21.4937V219.951H21.434C21.3247 220.163 21.1705 220.362 20.9717 220.548C20.7761 220.73 20.5292 220.877 20.2309 220.99C19.9359 221.099 19.5896 221.154 19.1918 221.154ZM19.6592 219.832C20.0204 219.832 20.3337 219.76 20.5988 219.618C20.864 219.472 21.0678 219.28 21.2103 219.041C21.3561 218.803 21.4291 218.542 21.4291 218.261V217.361C21.3727 217.407 21.2766 217.45 21.1407 217.49C21.0081 217.53 20.859 217.565 20.6933 217.594C20.5275 217.624 20.3635 217.651 20.2011 217.674C20.0387 217.697 19.8978 217.717 19.7785 217.734C19.51 217.77 19.2697 217.83 19.0576 217.913C18.8455 217.996 18.6781 218.112 18.5555 218.261C18.4329 218.406 18.3715 218.595 18.3715 218.827C18.3715 219.159 18.4925 219.409 18.7345 219.578C18.9764 219.747 19.2847 219.832 19.6592 219.832ZM25.253 221V210.818H27.0527V214.626H27.1273C27.2201 214.441 27.351 214.244 27.5201 214.035C27.6891 213.823 27.9178 213.642 28.2061 213.493C28.4945 213.34 28.8624 213.264 29.3098 213.264C29.8998 213.264 30.4318 213.415 30.9057 213.717C31.383 214.015 31.7608 214.457 32.0392 215.044C32.321 215.627 32.4618 216.343 32.4618 217.192C32.4618 218.03 32.3243 218.743 32.0492 219.33C31.7741 219.916 31.3996 220.364 30.9256 220.672C30.4516 220.98 29.9147 221.134 29.3148 221.134C28.8773 221.134 28.5144 221.061 28.226 220.915C27.9377 220.77 27.7057 220.594 27.53 220.388C27.3577 220.18 27.2234 219.982 27.1273 219.797H27.0229V221H25.253ZM27.0179 217.182C27.0179 217.676 27.0875 218.108 27.2267 218.479C27.3693 218.851 27.5731 219.141 27.8382 219.349C28.1067 219.555 28.4315 219.658 28.8127 219.658C29.2104 219.658 29.5435 219.552 29.812 219.339C30.0804 219.124 30.2826 218.831 30.4185 218.46C30.5577 218.085 30.6273 217.659 30.6273 217.182C30.6273 216.708 30.5594 216.287 30.4235 215.919C30.2876 215.551 30.0854 215.263 29.8169 215.054C29.5485 214.845 29.2137 214.741 28.8127 214.741C28.4282 214.741 28.1017 214.842 27.8333 215.044C27.5648 215.246 27.361 215.53 27.2218 215.894C27.0859 216.259 27.0179 216.688 27.0179 217.182ZM37.5125 221.149C36.7469 221.149 36.0857 220.99 35.5288 220.672C34.9753 220.35 34.5494 219.896 34.2511 219.31C33.9528 218.72 33.8037 218.025 33.8037 217.227C33.8037 216.441 33.9528 215.752 34.2511 215.158C34.5528 214.562 34.9737 214.098 35.5139 213.766C36.0542 213.432 36.6889 213.264 37.418 213.264C37.8887 213.264 38.3328 213.34 38.7504 213.493C39.1714 213.642 39.5426 213.874 39.8641 214.189C40.1889 214.504 40.4441 214.905 40.6297 215.392C40.8153 215.876 40.9081 216.453 40.9081 217.122V217.674H34.6489V216.461H39.183C39.1796 216.116 39.1051 215.81 38.9592 215.541C38.8134 215.269 38.6096 215.056 38.3477 214.9C38.0892 214.744 37.7876 214.666 37.4429 214.666C37.075 214.666 36.7519 214.756 36.4734 214.935C36.195 215.11 35.9779 215.342 35.8222 215.631C35.6697 215.916 35.5918 216.229 35.5885 216.57V217.629C35.5885 218.073 35.6697 218.455 35.8321 218.773C35.9945 219.088 36.2216 219.33 36.5132 219.499C36.8049 219.664 37.1463 219.747 37.5374 219.747C37.7992 219.747 38.0362 219.711 38.2483 219.638C38.4604 219.562 38.6444 219.451 38.8001 219.305C38.9559 219.159 39.0736 218.978 39.1531 218.763L40.8335 218.952C40.7275 219.396 40.5253 219.784 40.227 220.115C39.932 220.443 39.5542 220.698 39.0935 220.881C38.6328 221.06 38.1058 221.149 37.5125 221.149ZM44.3704 210.818V221H42.5707V210.818H44.3704Z" fill="#003366"/>
<rect x="351" y="208" width="16" height="16" rx="8" fill="#924F92"/>
<path d="M355.622 218.381V217.124L359.325 211.273H360.373V213.062H359.734L357.241 217.013V217.081H362.41V218.381H355.622ZM359.785 220V217.997L359.802 217.435V211.273H361.294V220H359.785Z" fill="#FFF5FF"/>
</svg>
