<svg width="472" height="48" viewBox="0 0 472 48" fill="none" xmlns="http://www.w3.org/2000/svg">
<rect width="472" height="48" rx="24" fill="#F9FAFB"/>
<path d="M27.5303 16.2197C27.8232 16.5126 27.8232 16.9874 27.5303 17.2803L20.8107 24L27.5303 30.7197C27.8232 31.0126 27.8232 31.4874 27.5303 31.7803C27.2374 32.0732 26.7626 32.0732 26.4697 31.7803L19.2197 24.5303C18.9268 24.2374 18.9268 23.7626 19.2197 23.4697L26.4697 16.2197C26.7626 15.9268 27.2374 15.9268 27.5303 16.2197Z" fill="#1A1B1F"/>
<path d="M54.7727 21.2727C54.7045 20.697 54.428 20.25 53.9432 19.9318C53.4583 19.6136 52.8636 19.4545 52.1591 19.4545C51.6439 19.4545 51.1932 19.5379 50.8068 19.7045C50.4242 19.8712 50.125 20.1004 49.9091 20.392C49.697 20.6837 49.5909 21.0152 49.5909 21.3864C49.5909 21.697 49.6648 21.964 49.8125 22.1875C49.964 22.4072 50.1572 22.5909 50.392 22.7386C50.6269 22.8826 50.8731 23.0019 51.1307 23.0966C51.3883 23.1875 51.625 23.2614 51.8409 23.3182L53.0227 23.6364C53.3258 23.7159 53.6629 23.8258 54.0341 23.9659C54.4091 24.1061 54.767 24.2973 55.108 24.5398C55.4527 24.7784 55.7367 25.0852 55.9602 25.4602C56.1837 25.8352 56.2955 26.2955 56.2955 26.8409C56.2955 27.4697 56.1307 28.0379 55.8011 28.5455C55.4754 29.053 54.9981 29.4564 54.3693 29.7557C53.7443 30.0549 52.9848 30.2045 52.0909 30.2045C51.2576 30.2045 50.536 30.0701 49.9261 29.8011C49.3201 29.5322 48.8428 29.1572 48.4943 28.6761C48.1496 28.1951 47.9545 27.6364 47.9091 27H49.3636C49.4015 27.4394 49.5492 27.803 49.8068 28.0909C50.0682 28.375 50.3977 28.5871 50.7955 28.7273C51.197 28.8636 51.6288 28.9318 52.0909 28.9318C52.6288 28.9318 53.1117 28.8447 53.5398 28.6705C53.9678 28.4924 54.3068 28.2462 54.5568 27.9318C54.8068 27.6136 54.9318 27.2424 54.9318 26.8182C54.9318 26.4318 54.8239 26.1174 54.608 25.875C54.392 25.6326 54.108 25.4356 53.7557 25.2841C53.4034 25.1326 53.0227 25 52.6136 24.8864L51.1818 24.4773C50.2727 24.2159 49.553 23.8428 49.0227 23.358C48.4924 22.8731 48.2273 22.2386 48.2273 21.4545C48.2273 20.803 48.4034 20.2348 48.7557 19.75C49.1117 19.2614 49.589 18.8826 50.1875 18.6136C50.7898 18.3409 51.4621 18.2045 52.2045 18.2045C52.9545 18.2045 53.6212 18.339 54.2045 18.608C54.7879 18.8731 55.25 19.2367 55.5909 19.6989C55.9356 20.161 56.1174 20.6856 56.1364 21.2727H54.7727ZM62.0895 30.1818C61.2486 30.1818 60.5232 29.9962 59.9134 29.625C59.3073 29.25 58.8395 28.7273 58.5099 28.0568C58.1842 27.3826 58.0213 26.5985 58.0213 25.7045C58.0213 24.8106 58.1842 24.0227 58.5099 23.3409C58.8395 22.6553 59.2978 22.1212 59.8849 21.7386C60.4759 21.3523 61.1652 21.1591 61.9531 21.1591C62.4077 21.1591 62.8565 21.2348 63.2997 21.3864C63.7429 21.5379 64.1463 21.7841 64.5099 22.125C64.8736 22.4621 65.1634 22.9091 65.3793 23.4659C65.5952 24.0227 65.7031 24.7083 65.7031 25.5227V26.0909H58.9759V24.9318H64.3395C64.3395 24.4394 64.241 24 64.044 23.6136C63.8509 23.2273 63.5743 22.9223 63.2145 22.6989C62.8584 22.4754 62.438 22.3636 61.9531 22.3636C61.419 22.3636 60.9569 22.4962 60.5668 22.7614C60.1804 23.0227 59.883 23.3636 59.6747 23.7841C59.4664 24.2045 59.3622 24.6553 59.3622 25.1364V25.9091C59.3622 26.5682 59.4759 27.1269 59.7031 27.5852C59.9342 28.0398 60.2543 28.3864 60.6634 28.625C61.0724 28.8598 61.5478 28.9773 62.0895 28.9773C62.4418 28.9773 62.7599 28.928 63.044 28.8295C63.3319 28.7273 63.58 28.5758 63.7884 28.375C63.9967 28.1705 64.1577 27.9167 64.2713 27.6136L65.5668 27.9773C65.4304 28.4167 65.2012 28.803 64.8793 29.1364C64.5573 29.4659 64.1596 29.7235 63.6861 29.9091C63.2126 30.0909 62.6804 30.1818 62.0895 30.1818ZM70.3111 30.2045C69.758 30.2045 69.2562 30.1004 68.8054 29.892C68.3546 29.6799 67.9967 29.375 67.7315 28.9773C67.4664 28.5758 67.3338 28.0909 67.3338 27.5227C67.3338 27.0227 67.4323 26.6174 67.6293 26.3068C67.8262 25.9924 68.0895 25.7462 68.419 25.5682C68.7486 25.3902 69.1122 25.2576 69.5099 25.1705C69.9115 25.0795 70.3149 25.0076 70.7202 24.9545C71.2505 24.8864 71.6804 24.8352 72.0099 24.8011C72.3433 24.7633 72.5857 24.7008 72.7372 24.6136C72.8925 24.5265 72.9702 24.375 72.9702 24.1591V24.1136C72.9702 23.553 72.8168 23.1174 72.5099 22.8068C72.2069 22.4962 71.7467 22.3409 71.1293 22.3409C70.4891 22.3409 69.9872 22.4811 69.6236 22.7614C69.2599 23.0417 69.0043 23.3409 68.8565 23.6591L67.5838 23.2045C67.8111 22.6742 68.1141 22.2614 68.4929 21.9659C68.8755 21.6667 69.2921 21.4583 69.7429 21.3409C70.1974 21.2197 70.6444 21.1591 71.0838 21.1591C71.3641 21.1591 71.6861 21.1932 72.0497 21.2614C72.4171 21.3258 72.7713 21.4602 73.1122 21.6648C73.4569 21.8693 73.7429 22.178 73.9702 22.5909C74.1974 23.0038 74.3111 23.5568 74.3111 24.25V30H72.9702V28.8182H72.902C72.8111 29.0076 72.6596 29.2102 72.4474 29.4261C72.2353 29.642 71.9531 29.8258 71.6009 29.9773C71.2486 30.1288 70.8187 30.2045 70.3111 30.2045ZM70.5156 29C71.0459 29 71.4929 28.8958 71.8565 28.6875C72.224 28.4792 72.5005 28.2102 72.6861 27.8807C72.8755 27.5511 72.9702 27.2045 72.9702 26.8409V25.6136C72.9134 25.6818 72.7884 25.7443 72.5952 25.8011C72.4058 25.8542 72.1861 25.9015 71.9361 25.9432C71.6899 25.9811 71.4493 26.0152 71.2145 26.0455C70.9834 26.072 70.7959 26.0947 70.652 26.1136C70.3035 26.1591 69.9777 26.233 69.6747 26.3352C69.3755 26.4337 69.133 26.5833 68.9474 26.7841C68.7656 26.9811 68.6747 27.25 68.6747 27.5909C68.6747 28.0568 68.8471 28.4091 69.1918 28.6477C69.5402 28.8826 69.9815 29 70.5156 29ZM76.7585 30V21.2727H78.054V22.5909H78.1449C78.304 22.1591 78.5919 21.8087 79.0085 21.5398C79.4252 21.2708 79.8949 21.1364 80.4176 21.1364C80.5161 21.1364 80.6392 21.1383 80.7869 21.142C80.9347 21.1458 81.0464 21.1515 81.1222 21.1591V22.5227C81.0767 22.5114 80.9725 22.4943 80.8097 22.4716C80.6506 22.4451 80.482 22.4318 80.304 22.4318C79.8797 22.4318 79.5009 22.5208 79.1676 22.6989C78.8381 22.8731 78.5767 23.1155 78.3835 23.4261C78.1941 23.733 78.0994 24.0833 78.0994 24.4773V30H76.7585ZM85.9915 30.1818C85.1733 30.1818 84.4688 29.9886 83.8778 29.6023C83.2869 29.2159 82.8324 28.6837 82.5142 28.0057C82.196 27.3277 82.0369 26.553 82.0369 25.6818C82.0369 24.7955 82.1998 24.0133 82.5256 23.3352C82.8551 22.6534 83.3134 22.1212 83.9006 21.7386C84.4915 21.3523 85.1809 21.1591 85.9688 21.1591C86.5824 21.1591 87.1354 21.2727 87.6278 21.5C88.1203 21.7273 88.5237 22.0455 88.8381 22.4545C89.1525 22.8636 89.3475 23.3409 89.4233 23.8864H88.0824C87.9801 23.4886 87.7528 23.1364 87.4006 22.8295C87.0521 22.5189 86.5824 22.3636 85.9915 22.3636C85.4688 22.3636 85.0104 22.5 84.6165 22.7727C84.2263 23.0417 83.9214 23.4223 83.7017 23.9148C83.4858 24.4034 83.3778 24.9773 83.3778 25.6364C83.3778 26.3106 83.4839 26.8977 83.696 27.3977C83.9119 27.8977 84.215 28.286 84.6051 28.5625C84.9991 28.839 85.4612 28.9773 85.9915 28.9773C86.34 28.9773 86.6562 28.9167 86.9403 28.7955C87.2244 28.6742 87.465 28.5 87.6619 28.2727C87.8589 28.0455 87.9991 27.7727 88.0824 27.4545H89.4233C89.3475 27.9697 89.16 28.4337 88.8608 28.8466C88.5653 29.2557 88.1733 29.5814 87.6847 29.8239C87.1998 30.0625 86.6354 30.1818 85.9915 30.1818ZM92.7244 24.75V30H91.3835V18.3636H92.7244V22.6364H92.8381C93.0426 22.1856 93.3494 21.8277 93.7585 21.5625C94.1714 21.2936 94.7206 21.1591 95.4062 21.1591C96.0009 21.1591 96.5218 21.2784 96.9688 21.517C97.4157 21.7519 97.7623 22.1136 98.0085 22.6023C98.2585 23.0871 98.3835 23.7045 98.3835 24.4545V30H97.0426V24.5455C97.0426 23.8523 96.8627 23.3163 96.5028 22.9375C96.1468 22.5549 95.6525 22.3636 95.0199 22.3636C94.5805 22.3636 94.1866 22.4564 93.8381 22.642C93.4934 22.8277 93.2206 23.0985 93.0199 23.4545C92.8229 23.8106 92.7244 24.2424 92.7244 24.75Z" fill="#1A1B1F" fill-opacity="0.7"/>
</svg>
