<svg width="436" height="40" viewBox="0 0 436 40" fill="none" xmlns="http://www.w3.org/2000/svg">
<rect x="0.5" width="435" height="40" rx="20" fill="#D2DEE9"/>
<rect x="4.5" y="4" width="61" height="32" rx="16" fill="#4D80B3"/>
<path d="M21.1364 16.1307V14.3636H30.4205V16.1307H26.8239V26H24.733V16.1307H21.1364ZM33.4432 26.1761C32.8902 26.1761 32.392 26.0777 31.9489 25.8807C31.5095 25.6799 31.161 25.3845 30.9034 24.9943C30.6496 24.6042 30.5227 24.1231 30.5227 23.5511C30.5227 23.0587 30.6136 22.6515 30.7955 22.3295C30.9773 22.0076 31.2254 21.75 31.5398 21.5568C31.8542 21.3636 32.2083 21.2178 32.6023 21.1193C33 21.017 33.411 20.9432 33.8352 20.8977C34.3466 20.8447 34.7614 20.7973 35.0795 20.7557C35.3977 20.7102 35.6288 20.642 35.7727 20.5511C35.9205 20.4564 35.9943 20.3106 35.9943 20.1136V20.0795C35.9943 19.6515 35.8674 19.3201 35.6136 19.0852C35.3598 18.8504 34.9943 18.733 34.517 18.733C34.0133 18.733 33.6136 18.8428 33.3182 19.0625C33.0265 19.2822 32.8295 19.5417 32.7273 19.8409L30.8068 19.5682C30.9583 19.0379 31.2083 18.5947 31.5568 18.2386C31.9053 17.8788 32.3314 17.6098 32.8352 17.4318C33.339 17.25 33.8958 17.1591 34.5057 17.1591C34.9261 17.1591 35.3447 17.2083 35.7614 17.3068C36.178 17.4053 36.5587 17.5682 36.9034 17.7955C37.2481 18.0189 37.5246 18.3239 37.733 18.7102C37.9451 19.0966 38.0511 19.5795 38.0511 20.1591V26H36.0739V24.8011H36.0057C35.8807 25.0436 35.7045 25.2708 35.4773 25.483C35.2538 25.6913 34.9716 25.8598 34.6307 25.9886C34.2936 26.1136 33.8977 26.1761 33.4432 26.1761ZM33.9773 24.6648C34.3902 24.6648 34.7481 24.5833 35.0511 24.4205C35.3542 24.2538 35.5871 24.0341 35.75 23.7614C35.9167 23.4886 36 23.1913 36 22.8693V21.8409C35.9356 21.8939 35.8258 21.9432 35.6705 21.9886C35.5189 22.0341 35.3485 22.0739 35.1591 22.108C34.9697 22.142 34.7822 22.1723 34.5966 22.1989C34.411 22.2254 34.25 22.2481 34.1136 22.267C33.8068 22.3087 33.5322 22.3769 33.2898 22.4716C33.0473 22.5663 32.8561 22.6989 32.7159 22.8693C32.5758 23.036 32.5057 23.2519 32.5057 23.517C32.5057 23.8958 32.6439 24.1818 32.9205 24.375C33.197 24.5682 33.5492 24.6648 33.9773 24.6648ZM40.2102 26V14.3636H42.267V18.7159H42.3523C42.4583 18.5038 42.608 18.2784 42.8011 18.0398C42.9943 17.7973 43.2557 17.5909 43.5852 17.4205C43.9148 17.2462 44.3352 17.1591 44.8466 17.1591C45.5208 17.1591 46.1288 17.3314 46.6705 17.6761C47.2159 18.017 47.6477 18.5227 47.9659 19.1932C48.2879 19.8598 48.4489 20.678 48.4489 21.6477C48.4489 22.6061 48.2917 23.4205 47.9773 24.0909C47.6629 24.7614 47.2348 25.2727 46.6932 25.625C46.1515 25.9773 45.5379 26.1534 44.8523 26.1534C44.3523 26.1534 43.9375 26.0701 43.608 25.9034C43.2784 25.7367 43.0133 25.536 42.8125 25.3011C42.6155 25.0625 42.4621 24.8371 42.3523 24.625H42.233V26H40.2102ZM42.2273 21.6364C42.2273 22.2008 42.3068 22.6951 42.4659 23.1193C42.6288 23.5436 42.8617 23.875 43.1648 24.1136C43.4716 24.3485 43.8428 24.4659 44.2784 24.4659C44.733 24.4659 45.1136 24.3447 45.4205 24.1023C45.7273 23.8561 45.9583 23.5208 46.1136 23.0966C46.2727 22.6686 46.3523 22.1818 46.3523 21.6364C46.3523 21.0947 46.2746 20.6136 46.1193 20.1932C45.964 19.7727 45.733 19.4432 45.4261 19.2045C45.1193 18.9659 44.7367 18.8466 44.2784 18.8466C43.839 18.8466 43.4659 18.9621 43.1591 19.1932C42.8523 19.4242 42.6193 19.7481 42.4602 20.1648C42.3049 20.5814 42.2273 21.072 42.2273 21.6364Z" fill="#F0F7FF"/>
<path d="M82.1364 16.1307V14.3636H91.4205V16.1307H87.8239V26H85.733V16.1307H82.1364ZM94.4432 26.1761C93.8902 26.1761 93.392 26.0777 92.9489 25.8807C92.5095 25.6799 92.161 25.3845 91.9034 24.9943C91.6496 24.6042 91.5227 24.1231 91.5227 23.5511C91.5227 23.0587 91.6136 22.6515 91.7955 22.3295C91.9773 22.0076 92.2254 21.75 92.5398 21.5568C92.8542 21.3636 93.2083 21.2178 93.6023 21.1193C94 21.017 94.411 20.9432 94.8352 20.8977C95.3466 20.8447 95.7614 20.7973 96.0795 20.7557C96.3977 20.7102 96.6288 20.642 96.7727 20.5511C96.9205 20.4564 96.9943 20.3106 96.9943 20.1136V20.0795C96.9943 19.6515 96.8674 19.3201 96.6136 19.0852C96.3598 18.8504 95.9943 18.733 95.517 18.733C95.0133 18.733 94.6136 18.8428 94.3182 19.0625C94.0265 19.2822 93.8295 19.5417 93.7273 19.8409L91.8068 19.5682C91.9583 19.0379 92.2083 18.5947 92.5568 18.2386C92.9053 17.8788 93.3314 17.6098 93.8352 17.4318C94.339 17.25 94.8958 17.1591 95.5057 17.1591C95.9261 17.1591 96.3447 17.2083 96.7614 17.3068C97.178 17.4053 97.5587 17.5682 97.9034 17.7955C98.2481 18.0189 98.5246 18.3239 98.733 18.7102C98.9451 19.0966 99.0511 19.5795 99.0511 20.1591V26H97.0739V24.8011H97.0057C96.8807 25.0436 96.7045 25.2708 96.4773 25.483C96.2538 25.6913 95.9716 25.8598 95.6307 25.9886C95.2936 26.1136 94.8977 26.1761 94.4432 26.1761ZM94.9773 24.6648C95.3902 24.6648 95.7481 24.5833 96.0511 24.4205C96.3542 24.2538 96.5871 24.0341 96.75 23.7614C96.9167 23.4886 97 23.1913 97 22.8693V21.8409C96.9356 21.8939 96.8258 21.9432 96.6705 21.9886C96.5189 22.0341 96.3485 22.0739 96.1591 22.108C95.9697 22.142 95.7822 22.1723 95.5966 22.1989C95.411 22.2254 95.25 22.2481 95.1136 22.267C94.8068 22.3087 94.5322 22.3769 94.2898 22.4716C94.0473 22.5663 93.8561 22.6989 93.7159 22.8693C93.5758 23.036 93.5057 23.2519 93.5057 23.517C93.5057 23.8958 93.6439 24.1818 93.9205 24.375C94.197 24.5682 94.5492 24.6648 94.9773 24.6648ZM101.21 26V14.3636H103.267V18.7159H103.352C103.458 18.5038 103.608 18.2784 103.801 18.0398C103.994 17.7973 104.256 17.5909 104.585 17.4205C104.915 17.2462 105.335 17.1591 105.847 17.1591C106.521 17.1591 107.129 17.3314 107.67 17.6761C108.216 18.017 108.648 18.5227 108.966 19.1932C109.288 19.8598 109.449 20.678 109.449 21.6477C109.449 22.6061 109.292 23.4205 108.977 24.0909C108.663 24.7614 108.235 25.2727 107.693 25.625C107.152 25.9773 106.538 26.1534 105.852 26.1534C105.352 26.1534 104.938 26.0701 104.608 25.9034C104.278 25.7367 104.013 25.536 103.812 25.3011C103.616 25.0625 103.462 24.8371 103.352 24.625H103.233V26H101.21ZM103.227 21.6364C103.227 22.2008 103.307 22.6951 103.466 23.1193C103.629 23.5436 103.862 23.875 104.165 24.1136C104.472 24.3485 104.843 24.4659 105.278 24.4659C105.733 24.4659 106.114 24.3447 106.42 24.1023C106.727 23.8561 106.958 23.5208 107.114 23.0966C107.273 22.6686 107.352 22.1818 107.352 21.6364C107.352 21.0947 107.275 20.6136 107.119 20.1932C106.964 19.7727 106.733 19.4432 106.426 19.2045C106.119 18.9659 105.737 18.8466 105.278 18.8466C104.839 18.8466 104.466 18.9621 104.159 19.1932C103.852 19.4242 103.619 19.7481 103.46 20.1648C103.305 20.5814 103.227 21.072 103.227 21.6364Z" fill="#1A1B1F"/>
<path d="M143.136 16.1307V14.3636H152.42V16.1307H148.824V26H146.733V16.1307H143.136ZM155.443 26.1761C154.89 26.1761 154.392 26.0777 153.949 25.8807C153.509 25.6799 153.161 25.3845 152.903 24.9943C152.65 24.6042 152.523 24.1231 152.523 23.5511C152.523 23.0587 152.614 22.6515 152.795 22.3295C152.977 22.0076 153.225 21.75 153.54 21.5568C153.854 21.3636 154.208 21.2178 154.602 21.1193C155 21.017 155.411 20.9432 155.835 20.8977C156.347 20.8447 156.761 20.7973 157.08 20.7557C157.398 20.7102 157.629 20.642 157.773 20.5511C157.92 20.4564 157.994 20.3106 157.994 20.1136V20.0795C157.994 19.6515 157.867 19.3201 157.614 19.0852C157.36 18.8504 156.994 18.733 156.517 18.733C156.013 18.733 155.614 18.8428 155.318 19.0625C155.027 19.2822 154.83 19.5417 154.727 19.8409L152.807 19.5682C152.958 19.0379 153.208 18.5947 153.557 18.2386C153.905 17.8788 154.331 17.6098 154.835 17.4318C155.339 17.25 155.896 17.1591 156.506 17.1591C156.926 17.1591 157.345 17.2083 157.761 17.3068C158.178 17.4053 158.559 17.5682 158.903 17.7955C159.248 18.0189 159.525 18.3239 159.733 18.7102C159.945 19.0966 160.051 19.5795 160.051 20.1591V26H158.074V24.8011H158.006C157.881 25.0436 157.705 25.2708 157.477 25.483C157.254 25.6913 156.972 25.8598 156.631 25.9886C156.294 26.1136 155.898 26.1761 155.443 26.1761ZM155.977 24.6648C156.39 24.6648 156.748 24.5833 157.051 24.4205C157.354 24.2538 157.587 24.0341 157.75 23.7614C157.917 23.4886 158 23.1913 158 22.8693V21.8409C157.936 21.8939 157.826 21.9432 157.67 21.9886C157.519 22.0341 157.348 22.0739 157.159 22.108C156.97 22.142 156.782 22.1723 156.597 22.1989C156.411 22.2254 156.25 22.2481 156.114 22.267C155.807 22.3087 155.532 22.3769 155.29 22.4716C155.047 22.5663 154.856 22.6989 154.716 22.8693C154.576 23.036 154.506 23.2519 154.506 23.517C154.506 23.8958 154.644 24.1818 154.92 24.375C155.197 24.5682 155.549 24.6648 155.977 24.6648ZM162.21 26V14.3636H164.267V18.7159H164.352C164.458 18.5038 164.608 18.2784 164.801 18.0398C164.994 17.7973 165.256 17.5909 165.585 17.4205C165.915 17.2462 166.335 17.1591 166.847 17.1591C167.521 17.1591 168.129 17.3314 168.67 17.6761C169.216 18.017 169.648 18.5227 169.966 19.1932C170.288 19.8598 170.449 20.678 170.449 21.6477C170.449 22.6061 170.292 23.4205 169.977 24.0909C169.663 24.7614 169.235 25.2727 168.693 25.625C168.152 25.9773 167.538 26.1534 166.852 26.1534C166.352 26.1534 165.938 26.0701 165.608 25.9034C165.278 25.7367 165.013 25.536 164.812 25.3011C164.616 25.0625 164.462 24.8371 164.352 24.625H164.233V26H162.21ZM164.227 21.6364C164.227 22.2008 164.307 22.6951 164.466 23.1193C164.629 23.5436 164.862 23.875 165.165 24.1136C165.472 24.3485 165.843 24.4659 166.278 24.4659C166.733 24.4659 167.114 24.3447 167.42 24.1023C167.727 23.8561 167.958 23.5208 168.114 23.0966C168.273 22.6686 168.352 22.1818 168.352 21.6364C168.352 21.0947 168.275 20.6136 168.119 20.1932C167.964 19.7727 167.733 19.4432 167.426 19.2045C167.119 18.9659 166.737 18.8466 166.278 18.8466C165.839 18.8466 165.466 18.9621 165.159 19.1932C164.852 19.4242 164.619 19.7481 164.46 20.1648C164.305 20.5814 164.227 21.072 164.227 21.6364Z" fill="#1A1B1F"/>
<path d="M204.136 16.1307V14.3636H213.42V16.1307H209.824V26H207.733V16.1307H204.136ZM216.443 26.1761C215.89 26.1761 215.392 26.0777 214.949 25.8807C214.509 25.6799 214.161 25.3845 213.903 24.9943C213.65 24.6042 213.523 24.1231 213.523 23.5511C213.523 23.0587 213.614 22.6515 213.795 22.3295C213.977 22.0076 214.225 21.75 214.54 21.5568C214.854 21.3636 215.208 21.2178 215.602 21.1193C216 21.017 216.411 20.9432 216.835 20.8977C217.347 20.8447 217.761 20.7973 218.08 20.7557C218.398 20.7102 218.629 20.642 218.773 20.5511C218.92 20.4564 218.994 20.3106 218.994 20.1136V20.0795C218.994 19.6515 218.867 19.3201 218.614 19.0852C218.36 18.8504 217.994 18.733 217.517 18.733C217.013 18.733 216.614 18.8428 216.318 19.0625C216.027 19.2822 215.83 19.5417 215.727 19.8409L213.807 19.5682C213.958 19.0379 214.208 18.5947 214.557 18.2386C214.905 17.8788 215.331 17.6098 215.835 17.4318C216.339 17.25 216.896 17.1591 217.506 17.1591C217.926 17.1591 218.345 17.2083 218.761 17.3068C219.178 17.4053 219.559 17.5682 219.903 17.7955C220.248 18.0189 220.525 18.3239 220.733 18.7102C220.945 19.0966 221.051 19.5795 221.051 20.1591V26H219.074V24.8011H219.006C218.881 25.0436 218.705 25.2708 218.477 25.483C218.254 25.6913 217.972 25.8598 217.631 25.9886C217.294 26.1136 216.898 26.1761 216.443 26.1761ZM216.977 24.6648C217.39 24.6648 217.748 24.5833 218.051 24.4205C218.354 24.2538 218.587 24.0341 218.75 23.7614C218.917 23.4886 219 23.1913 219 22.8693V21.8409C218.936 21.8939 218.826 21.9432 218.67 21.9886C218.519 22.0341 218.348 22.0739 218.159 22.108C217.97 22.142 217.782 22.1723 217.597 22.1989C217.411 22.2254 217.25 22.2481 217.114 22.267C216.807 22.3087 216.532 22.3769 216.29 22.4716C216.047 22.5663 215.856 22.6989 215.716 22.8693C215.576 23.036 215.506 23.2519 215.506 23.517C215.506 23.8958 215.644 24.1818 215.92 24.375C216.197 24.5682 216.549 24.6648 216.977 24.6648ZM223.21 26V14.3636H225.267V18.7159H225.352C225.458 18.5038 225.608 18.2784 225.801 18.0398C225.994 17.7973 226.256 17.5909 226.585 17.4205C226.915 17.2462 227.335 17.1591 227.847 17.1591C228.521 17.1591 229.129 17.3314 229.67 17.6761C230.216 18.017 230.648 18.5227 230.966 19.1932C231.288 19.8598 231.449 20.678 231.449 21.6477C231.449 22.6061 231.292 23.4205 230.977 24.0909C230.663 24.7614 230.235 25.2727 229.693 25.625C229.152 25.9773 228.538 26.1534 227.852 26.1534C227.352 26.1534 226.938 26.0701 226.608 25.9034C226.278 25.7367 226.013 25.536 225.812 25.3011C225.616 25.0625 225.462 24.8371 225.352 24.625H225.233V26H223.21ZM225.227 21.6364C225.227 22.2008 225.307 22.6951 225.466 23.1193C225.629 23.5436 225.862 23.875 226.165 24.1136C226.472 24.3485 226.843 24.4659 227.278 24.4659C227.733 24.4659 228.114 24.3447 228.42 24.1023C228.727 23.8561 228.958 23.5208 229.114 23.0966C229.273 22.6686 229.352 22.1818 229.352 21.6364C229.352 21.0947 229.275 20.6136 229.119 20.1932C228.964 19.7727 228.733 19.4432 228.426 19.2045C228.119 18.9659 227.737 18.8466 227.278 18.8466C226.839 18.8466 226.466 18.9621 226.159 19.1932C225.852 19.4242 225.619 19.7481 225.46 20.1648C225.305 20.5814 225.227 21.072 225.227 21.6364Z" fill="#1A1B1F"/>
<path d="M265.136 16.1307V14.3636H274.42V16.1307H270.824V26H268.733V16.1307H265.136ZM277.443 26.1761C276.89 26.1761 276.392 26.0777 275.949 25.8807C275.509 25.6799 275.161 25.3845 274.903 24.9943C274.65 24.6042 274.523 24.1231 274.523 23.5511C274.523 23.0587 274.614 22.6515 274.795 22.3295C274.977 22.0076 275.225 21.75 275.54 21.5568C275.854 21.3636 276.208 21.2178 276.602 21.1193C277 21.017 277.411 20.9432 277.835 20.8977C278.347 20.8447 278.761 20.7973 279.08 20.7557C279.398 20.7102 279.629 20.642 279.773 20.5511C279.92 20.4564 279.994 20.3106 279.994 20.1136V20.0795C279.994 19.6515 279.867 19.3201 279.614 19.0852C279.36 18.8504 278.994 18.733 278.517 18.733C278.013 18.733 277.614 18.8428 277.318 19.0625C277.027 19.2822 276.83 19.5417 276.727 19.8409L274.807 19.5682C274.958 19.0379 275.208 18.5947 275.557 18.2386C275.905 17.8788 276.331 17.6098 276.835 17.4318C277.339 17.25 277.896 17.1591 278.506 17.1591C278.926 17.1591 279.345 17.2083 279.761 17.3068C280.178 17.4053 280.559 17.5682 280.903 17.7955C281.248 18.0189 281.525 18.3239 281.733 18.7102C281.945 19.0966 282.051 19.5795 282.051 20.1591V26H280.074V24.8011H280.006C279.881 25.0436 279.705 25.2708 279.477 25.483C279.254 25.6913 278.972 25.8598 278.631 25.9886C278.294 26.1136 277.898 26.1761 277.443 26.1761ZM277.977 24.6648C278.39 24.6648 278.748 24.5833 279.051 24.4205C279.354 24.2538 279.587 24.0341 279.75 23.7614C279.917 23.4886 280 23.1913 280 22.8693V21.8409C279.936 21.8939 279.826 21.9432 279.67 21.9886C279.519 22.0341 279.348 22.0739 279.159 22.108C278.97 22.142 278.782 22.1723 278.597 22.1989C278.411 22.2254 278.25 22.2481 278.114 22.267C277.807 22.3087 277.532 22.3769 277.29 22.4716C277.047 22.5663 276.856 22.6989 276.716 22.8693C276.576 23.036 276.506 23.2519 276.506 23.517C276.506 23.8958 276.644 24.1818 276.92 24.375C277.197 24.5682 277.549 24.6648 277.977 24.6648ZM284.21 26V14.3636H286.267V18.7159H286.352C286.458 18.5038 286.608 18.2784 286.801 18.0398C286.994 17.7973 287.256 17.5909 287.585 17.4205C287.915 17.2462 288.335 17.1591 288.847 17.1591C289.521 17.1591 290.129 17.3314 290.67 17.6761C291.216 18.017 291.648 18.5227 291.966 19.1932C292.288 19.8598 292.449 20.678 292.449 21.6477C292.449 22.6061 292.292 23.4205 291.977 24.0909C291.663 24.7614 291.235 25.2727 290.693 25.625C290.152 25.9773 289.538 26.1534 288.852 26.1534C288.352 26.1534 287.938 26.0701 287.608 25.9034C287.278 25.7367 287.013 25.536 286.812 25.3011C286.616 25.0625 286.462 24.8371 286.352 24.625H286.233V26H284.21ZM286.227 21.6364C286.227 22.2008 286.307 22.6951 286.466 23.1193C286.629 23.5436 286.862 23.875 287.165 24.1136C287.472 24.3485 287.843 24.4659 288.278 24.4659C288.733 24.4659 289.114 24.3447 289.42 24.1023C289.727 23.8561 289.958 23.5208 290.114 23.0966C290.273 22.6686 290.352 22.1818 290.352 21.6364C290.352 21.0947 290.275 20.6136 290.119 20.1932C289.964 19.7727 289.733 19.4432 289.426 19.2045C289.119 18.9659 288.737 18.8466 288.278 18.8466C287.839 18.8466 287.466 18.9621 287.159 19.1932C286.852 19.4242 286.619 19.7481 286.46 20.1648C286.305 20.5814 286.227 21.072 286.227 21.6364Z" fill="#1A1B1F"/>
<path d="M326.136 16.1307V14.3636H335.42V16.1307H331.824V26H329.733V16.1307H326.136ZM338.443 26.1761C337.89 26.1761 337.392 26.0777 336.949 25.8807C336.509 25.6799 336.161 25.3845 335.903 24.9943C335.65 24.6042 335.523 24.1231 335.523 23.5511C335.523 23.0587 335.614 22.6515 335.795 22.3295C335.977 22.0076 336.225 21.75 336.54 21.5568C336.854 21.3636 337.208 21.2178 337.602 21.1193C338 21.017 338.411 20.9432 338.835 20.8977C339.347 20.8447 339.761 20.7973 340.08 20.7557C340.398 20.7102 340.629 20.642 340.773 20.5511C340.92 20.4564 340.994 20.3106 340.994 20.1136V20.0795C340.994 19.6515 340.867 19.3201 340.614 19.0852C340.36 18.8504 339.994 18.733 339.517 18.733C339.013 18.733 338.614 18.8428 338.318 19.0625C338.027 19.2822 337.83 19.5417 337.727 19.8409L335.807 19.5682C335.958 19.0379 336.208 18.5947 336.557 18.2386C336.905 17.8788 337.331 17.6098 337.835 17.4318C338.339 17.25 338.896 17.1591 339.506 17.1591C339.926 17.1591 340.345 17.2083 340.761 17.3068C341.178 17.4053 341.559 17.5682 341.903 17.7955C342.248 18.0189 342.525 18.3239 342.733 18.7102C342.945 19.0966 343.051 19.5795 343.051 20.1591V26H341.074V24.8011H341.006C340.881 25.0436 340.705 25.2708 340.477 25.483C340.254 25.6913 339.972 25.8598 339.631 25.9886C339.294 26.1136 338.898 26.1761 338.443 26.1761ZM338.977 24.6648C339.39 24.6648 339.748 24.5833 340.051 24.4205C340.354 24.2538 340.587 24.0341 340.75 23.7614C340.917 23.4886 341 23.1913 341 22.8693V21.8409C340.936 21.8939 340.826 21.9432 340.67 21.9886C340.519 22.0341 340.348 22.0739 340.159 22.108C339.97 22.142 339.782 22.1723 339.597 22.1989C339.411 22.2254 339.25 22.2481 339.114 22.267C338.807 22.3087 338.532 22.3769 338.29 22.4716C338.047 22.5663 337.856 22.6989 337.716 22.8693C337.576 23.036 337.506 23.2519 337.506 23.517C337.506 23.8958 337.644 24.1818 337.92 24.375C338.197 24.5682 338.549 24.6648 338.977 24.6648ZM345.21 26V14.3636H347.267V18.7159H347.352C347.458 18.5038 347.608 18.2784 347.801 18.0398C347.994 17.7973 348.256 17.5909 348.585 17.4205C348.915 17.2462 349.335 17.1591 349.847 17.1591C350.521 17.1591 351.129 17.3314 351.67 17.6761C352.216 18.017 352.648 18.5227 352.966 19.1932C353.288 19.8598 353.449 20.678 353.449 21.6477C353.449 22.6061 353.292 23.4205 352.977 24.0909C352.663 24.7614 352.235 25.2727 351.693 25.625C351.152 25.9773 350.538 26.1534 349.852 26.1534C349.352 26.1534 348.938 26.0701 348.608 25.9034C348.278 25.7367 348.013 25.536 347.812 25.3011C347.616 25.0625 347.462 24.8371 347.352 24.625H347.233V26H345.21ZM347.227 21.6364C347.227 22.2008 347.307 22.6951 347.466 23.1193C347.629 23.5436 347.862 23.875 348.165 24.1136C348.472 24.3485 348.843 24.4659 349.278 24.4659C349.733 24.4659 350.114 24.3447 350.42 24.1023C350.727 23.8561 350.958 23.5208 351.114 23.0966C351.273 22.6686 351.352 22.1818 351.352 21.6364C351.352 21.0947 351.275 20.6136 351.119 20.1932C350.964 19.7727 350.733 19.4432 350.426 19.2045C350.119 18.9659 349.737 18.8466 349.278 18.8466C348.839 18.8466 348.466 18.9621 348.159 19.1932C347.852 19.4242 347.619 19.7481 347.46 20.1648C347.305 20.5814 347.227 21.072 347.227 21.6364Z" fill="#1A1B1F"/>
<path d="M387.136 16.1307V14.3636H396.42V16.1307H392.824V26H390.733V16.1307H387.136ZM399.443 26.1761C398.89 26.1761 398.392 26.0777 397.949 25.8807C397.509 25.6799 397.161 25.3845 396.903 24.9943C396.65 24.6042 396.523 24.1231 396.523 23.5511C396.523 23.0587 396.614 22.6515 396.795 22.3295C396.977 22.0076 397.225 21.75 397.54 21.5568C397.854 21.3636 398.208 21.2178 398.602 21.1193C399 21.017 399.411 20.9432 399.835 20.8977C400.347 20.8447 400.761 20.7973 401.08 20.7557C401.398 20.7102 401.629 20.642 401.773 20.5511C401.92 20.4564 401.994 20.3106 401.994 20.1136V20.0795C401.994 19.6515 401.867 19.3201 401.614 19.0852C401.36 18.8504 400.994 18.733 400.517 18.733C400.013 18.733 399.614 18.8428 399.318 19.0625C399.027 19.2822 398.83 19.5417 398.727 19.8409L396.807 19.5682C396.958 19.0379 397.208 18.5947 397.557 18.2386C397.905 17.8788 398.331 17.6098 398.835 17.4318C399.339 17.25 399.896 17.1591 400.506 17.1591C400.926 17.1591 401.345 17.2083 401.761 17.3068C402.178 17.4053 402.559 17.5682 402.903 17.7955C403.248 18.0189 403.525 18.3239 403.733 18.7102C403.945 19.0966 404.051 19.5795 404.051 20.1591V26H402.074V24.8011H402.006C401.881 25.0436 401.705 25.2708 401.477 25.483C401.254 25.6913 400.972 25.8598 400.631 25.9886C400.294 26.1136 399.898 26.1761 399.443 26.1761ZM399.977 24.6648C400.39 24.6648 400.748 24.5833 401.051 24.4205C401.354 24.2538 401.587 24.0341 401.75 23.7614C401.917 23.4886 402 23.1913 402 22.8693V21.8409C401.936 21.8939 401.826 21.9432 401.67 21.9886C401.519 22.0341 401.348 22.0739 401.159 22.108C400.97 22.142 400.782 22.1723 400.597 22.1989C400.411 22.2254 400.25 22.2481 400.114 22.267C399.807 22.3087 399.532 22.3769 399.29 22.4716C399.047 22.5663 398.856 22.6989 398.716 22.8693C398.576 23.036 398.506 23.2519 398.506 23.517C398.506 23.8958 398.644 24.1818 398.92 24.375C399.197 24.5682 399.549 24.6648 399.977 24.6648ZM406.21 26V14.3636H408.267V18.7159H408.352C408.458 18.5038 408.608 18.2784 408.801 18.0398C408.994 17.7973 409.256 17.5909 409.585 17.4205C409.915 17.2462 410.335 17.1591 410.847 17.1591C411.521 17.1591 412.129 17.3314 412.67 17.6761C413.216 18.017 413.648 18.5227 413.966 19.1932C414.288 19.8598 414.449 20.678 414.449 21.6477C414.449 22.6061 414.292 23.4205 413.977 24.0909C413.663 24.7614 413.235 25.2727 412.693 25.625C412.152 25.9773 411.538 26.1534 410.852 26.1534C410.352 26.1534 409.938 26.0701 409.608 25.9034C409.278 25.7367 409.013 25.536 408.812 25.3011C408.616 25.0625 408.462 24.8371 408.352 24.625H408.233V26H406.21ZM408.227 21.6364C408.227 22.2008 408.307 22.6951 408.466 23.1193C408.629 23.5436 408.862 23.875 409.165 24.1136C409.472 24.3485 409.843 24.4659 410.278 24.4659C410.733 24.4659 411.114 24.3447 411.42 24.1023C411.727 23.8561 411.958 23.5208 412.114 23.0966C412.273 22.6686 412.352 22.1818 412.352 21.6364C412.352 21.0947 412.275 20.6136 412.119 20.1932C411.964 19.7727 411.733 19.4432 411.426 19.2045C411.119 18.9659 410.737 18.8466 410.278 18.8466C409.839 18.8466 409.466 18.9621 409.159 19.1932C408.852 19.4242 408.619 19.7481 408.46 20.1648C408.305 20.5814 408.227 21.072 408.227 21.6364Z" fill="#1A1B1F"/>
</svg>
