<svg width="472" height="56" viewBox="0 0 472 56" fill="none" xmlns="http://www.w3.org/2000/svg">
<mask id="path-1-inside-1_4730_20764" fill="white">
<path d="M0 0H472V56H0V0Z"/>
</mask>
<path d="M0 1H472V-1H0V1ZM472 55H0V57H472V55Z" fill="#8B98B1" mask="url(#path-1-inside-1_4730_20764)"/>
<path d="M17.233 33V22.8182H18.4659V31.9062H23.1989V33H17.233ZM27.336 33.179C26.8521 33.179 26.413 33.0878 26.0186 32.9055C25.6241 32.7199 25.3109 32.4531 25.0789 32.1051C24.8469 31.7538 24.7309 31.3295 24.7309 30.8324C24.7309 30.3949 24.8171 30.0402 24.9894 29.7685C25.1618 29.4934 25.3921 29.2779 25.6805 29.1222C25.9688 28.9664 26.287 28.8504 26.635 28.7741C26.9864 28.6946 27.3393 28.6316 27.694 28.5852C28.158 28.5256 28.5342 28.4808 28.8225 28.451C29.1142 28.4179 29.3263 28.3632 29.4589 28.2869C29.5948 28.2107 29.6627 28.0781 29.6627 27.8892V27.8494C29.6627 27.3589 29.5285 26.9777 29.26 26.706C28.9949 26.4342 28.5922 26.2983 28.0519 26.2983C27.4918 26.2983 27.0526 26.4209 26.7345 26.6662C26.4163 26.9115 26.1926 27.1733 26.0633 27.4517L24.9497 27.054C25.1485 26.59 25.4137 26.2287 25.7451 25.9702C26.0799 25.7083 26.4445 25.526 26.8389 25.4233C27.2366 25.3172 27.6277 25.2642 28.0122 25.2642C28.2574 25.2642 28.5391 25.294 28.8573 25.3537C29.1788 25.41 29.4887 25.5277 29.787 25.7067C30.0886 25.8857 30.3389 26.1558 30.5377 26.517C30.7366 26.8783 30.836 27.3622 30.836 27.9688V33H29.6627V31.9659H29.6031C29.5235 32.1316 29.3909 32.3089 29.2053 32.4979C29.0197 32.6868 28.7728 32.8475 28.4646 32.9801C28.1563 33.1127 27.7802 33.179 27.336 33.179ZM27.515 32.125C27.979 32.125 28.3701 32.0339 28.6883 31.8516C29.0098 31.6693 29.2517 31.4339 29.4141 31.1456C29.5799 30.8572 29.6627 30.554 29.6627 30.2358V29.1619C29.613 29.2216 29.5036 29.2763 29.3346 29.326C29.1689 29.3724 28.9766 29.4138 28.7579 29.4503C28.5425 29.4834 28.332 29.5133 28.1265 29.5398C27.9243 29.563 27.7603 29.5829 27.6343 29.5994C27.3294 29.6392 27.0444 29.7038 26.7792 29.7933C26.5174 29.8795 26.3052 30.0104 26.1428 30.1861C25.9838 30.3584 25.9042 30.5937 25.9042 30.892C25.9042 31.2997 26.055 31.608 26.3566 31.8168C26.6615 32.0223 27.0477 32.125 27.515 32.125ZM33.2766 33V22.8182H34.4499V26.5767H34.5494C34.6355 26.4441 34.7548 26.2751 34.9073 26.0696C35.0631 25.8608 35.2851 25.6752 35.5735 25.5128C35.8652 25.3471 36.2596 25.2642 36.7567 25.2642C37.3997 25.2642 37.9665 25.425 38.457 25.7464C38.9476 26.0679 39.3304 26.5237 39.6055 27.1136C39.8806 27.7036 40.0181 28.3996 40.0181 29.2017C40.0181 30.0104 39.8806 30.7114 39.6055 31.3047C39.3304 31.8946 38.9492 32.352 38.462 32.6768C37.9748 32.9983 37.413 33.1591 36.7766 33.1591C36.2861 33.1591 35.8933 33.0779 35.5984 32.9155C35.3034 32.7498 35.0763 32.5625 34.9173 32.3537C34.7582 32.1416 34.6355 31.9659 34.5494 31.8267H34.4101V33H33.2766ZM34.43 29.1818C34.43 29.7585 34.5146 30.2673 34.6836 30.7081C34.8526 31.1456 35.0995 31.4886 35.4244 31.7372C35.7492 31.9825 36.1469 32.1051 36.6175 32.1051C37.1081 32.1051 37.5174 31.9759 37.8455 31.7173C38.177 31.4555 38.4255 31.1042 38.5913 30.6634C38.7603 30.2192 38.8448 29.7254 38.8448 29.1818C38.8448 28.6449 38.7619 28.161 38.5962 27.7301C38.4338 27.2959 38.1869 26.9529 37.8555 26.701C37.5273 26.4458 37.1147 26.3182 36.6175 26.3182C36.1403 26.3182 35.7392 26.4392 35.4144 26.6811C35.0896 26.9197 34.8443 27.2545 34.6786 27.6854C34.5129 28.1129 34.43 28.6117 34.43 29.1818ZM45.1546 33.1591C44.4188 33.1591 43.7841 32.9967 43.2504 32.6719C42.7201 32.3438 42.3108 31.8864 42.0225 31.2997C41.7374 30.7098 41.5949 30.0237 41.5949 29.2415C41.5949 28.4593 41.7374 27.7699 42.0225 27.1733C42.3108 26.5734 42.7118 26.1061 43.2256 25.7713C43.7426 25.4332 44.3458 25.2642 45.0352 25.2642C45.433 25.2642 45.8257 25.3305 46.2135 25.4631C46.6013 25.5956 46.9543 25.8111 47.2725 26.1094C47.5906 26.4044 47.8442 26.7955 48.0331 27.2827C48.222 27.7699 48.3165 28.3698 48.3165 29.0824V29.5795H42.4301V28.5653H47.1233C47.1233 28.1345 47.0371 27.75 46.8648 27.4119C46.6957 27.0739 46.4538 26.8071 46.1389 26.6115C45.8274 26.416 45.4595 26.3182 45.0352 26.3182C44.5679 26.3182 44.1635 26.4342 43.8222 26.6662C43.4841 26.8949 43.2239 27.1932 43.0416 27.5611C42.8593 27.929 42.7682 28.3234 42.7682 28.7443V29.4205C42.7682 29.9972 42.8676 30.486 43.0665 30.8871C43.2687 31.2848 43.5487 31.5881 43.9067 31.7969C44.2646 32.0024 44.6806 32.1051 45.1546 32.1051C45.4628 32.1051 45.7412 32.062 45.9898 31.9759C46.2417 31.8864 46.4588 31.7538 46.6411 31.5781C46.8234 31.3991 46.9642 31.1771 47.0636 30.9119L48.1972 31.2301C48.0778 31.6146 47.8773 31.9527 47.5956 32.2443C47.3139 32.5327 46.9659 32.758 46.5516 32.9205C46.1373 33.0795 45.6716 33.1591 45.1546 33.1591ZM51.4146 22.8182V33H50.2413V22.8182H51.4146Z" fill="#1A1B1F"/>
<path d="M119.233 33V22.8182H120.466V31.9062H125.199V33H119.233ZM129.336 33.179C128.852 33.179 128.413 33.0878 128.019 32.9055C127.624 32.7199 127.311 32.4531 127.079 32.1051C126.847 31.7538 126.731 31.3295 126.731 30.8324C126.731 30.3949 126.817 30.0402 126.989 29.7685C127.162 29.4934 127.392 29.2779 127.68 29.1222C127.969 28.9664 128.287 28.8504 128.635 28.7741C128.986 28.6946 129.339 28.6316 129.694 28.5852C130.158 28.5256 130.534 28.4808 130.823 28.451C131.114 28.4179 131.326 28.3632 131.459 28.2869C131.595 28.2107 131.663 28.0781 131.663 27.8892V27.8494C131.663 27.3589 131.528 26.9777 131.26 26.706C130.995 26.4342 130.592 26.2983 130.052 26.2983C129.492 26.2983 129.053 26.4209 128.734 26.6662C128.416 26.9115 128.193 27.1733 128.063 27.4517L126.95 27.054C127.149 26.59 127.414 26.2287 127.745 25.9702C128.08 25.7083 128.444 25.526 128.839 25.4233C129.237 25.3172 129.628 25.2642 130.012 25.2642C130.257 25.2642 130.539 25.294 130.857 25.3537C131.179 25.41 131.489 25.5277 131.787 25.7067C132.089 25.8857 132.339 26.1558 132.538 26.517C132.737 26.8783 132.836 27.3622 132.836 27.9688V33H131.663V31.9659H131.603C131.524 32.1316 131.391 32.3089 131.205 32.4979C131.02 32.6868 130.773 32.8475 130.465 32.9801C130.156 33.1127 129.78 33.179 129.336 33.179ZM129.515 32.125C129.979 32.125 130.37 32.0339 130.688 31.8516C131.01 31.6693 131.252 31.4339 131.414 31.1456C131.58 30.8572 131.663 30.554 131.663 30.2358V29.1619C131.613 29.2216 131.504 29.2763 131.335 29.326C131.169 29.3724 130.977 29.4138 130.758 29.4503C130.542 29.4834 130.332 29.5133 130.127 29.5398C129.924 29.563 129.76 29.5829 129.634 29.5994C129.329 29.6392 129.044 29.7038 128.779 29.7933C128.517 29.8795 128.305 30.0104 128.143 30.1861C127.984 30.3584 127.904 30.5937 127.904 30.892C127.904 31.2997 128.055 31.608 128.357 31.8168C128.662 32.0223 129.048 32.125 129.515 32.125ZM135.277 33V22.8182H136.45V26.5767H136.549C136.636 26.4441 136.755 26.2751 136.907 26.0696C137.063 25.8608 137.285 25.6752 137.574 25.5128C137.865 25.3471 138.26 25.2642 138.757 25.2642C139.4 25.2642 139.966 25.425 140.457 25.7464C140.948 26.0679 141.33 26.5237 141.605 27.1136C141.881 27.7036 142.018 28.3996 142.018 29.2017C142.018 30.0104 141.881 30.7114 141.605 31.3047C141.33 31.8946 140.949 32.352 140.462 32.6768C139.975 32.9983 139.413 33.1591 138.777 33.1591C138.286 33.1591 137.893 33.0779 137.598 32.9155C137.303 32.7498 137.076 32.5625 136.917 32.3537C136.758 32.1416 136.636 31.9659 136.549 31.8267H136.41V33H135.277ZM136.43 29.1818C136.43 29.7585 136.515 30.2673 136.684 30.7081C136.853 31.1456 137.1 31.4886 137.424 31.7372C137.749 31.9825 138.147 32.1051 138.618 32.1051C139.108 32.1051 139.517 31.9759 139.846 31.7173C140.177 31.4555 140.426 31.1042 140.591 30.6634C140.76 30.2192 140.845 29.7254 140.845 29.1818C140.845 28.6449 140.762 28.161 140.596 27.7301C140.434 27.2959 140.187 26.9529 139.855 26.701C139.527 26.4458 139.115 26.3182 138.618 26.3182C138.14 26.3182 137.739 26.4392 137.414 26.6811C137.09 26.9197 136.844 27.2545 136.679 27.6854C136.513 28.1129 136.43 28.6117 136.43 29.1818ZM147.155 33.1591C146.419 33.1591 145.784 32.9967 145.25 32.6719C144.72 32.3438 144.311 31.8864 144.022 31.2997C143.737 30.7098 143.595 30.0237 143.595 29.2415C143.595 28.4593 143.737 27.7699 144.022 27.1733C144.311 26.5734 144.712 26.1061 145.226 25.7713C145.743 25.4332 146.346 25.2642 147.035 25.2642C147.433 25.2642 147.826 25.3305 148.214 25.4631C148.601 25.5956 148.954 25.8111 149.272 26.1094C149.591 26.4044 149.844 26.7955 150.033 27.2827C150.222 27.7699 150.316 28.3698 150.316 29.0824V29.5795H144.43V28.5653H149.123C149.123 28.1345 149.037 27.75 148.865 27.4119C148.696 27.0739 148.454 26.8071 148.139 26.6115C147.827 26.416 147.459 26.3182 147.035 26.3182C146.568 26.3182 146.164 26.4342 145.822 26.6662C145.484 26.8949 145.224 27.1932 145.042 27.5611C144.859 27.929 144.768 28.3234 144.768 28.7443V29.4205C144.768 29.9972 144.868 30.486 145.066 30.8871C145.269 31.2848 145.549 31.5881 145.907 31.7969C146.265 32.0024 146.681 32.1051 147.155 32.1051C147.463 32.1051 147.741 32.062 147.99 31.9759C148.242 31.8864 148.459 31.7538 148.641 31.5781C148.823 31.3991 148.964 31.1771 149.064 30.9119L150.197 31.2301C150.078 31.6146 149.877 31.9527 149.596 32.2443C149.314 32.5327 148.966 32.758 148.552 32.9205C148.137 33.0795 147.672 33.1591 147.155 33.1591ZM153.415 22.8182V33H152.241V22.8182H153.415Z" fill="#1A1B1F"/>
<path d="M237.233 33V22.8182H238.466V31.9062H243.199V33H237.233ZM247.336 33.179C246.852 33.179 246.413 33.0878 246.019 32.9055C245.624 32.7199 245.311 32.4531 245.079 32.1051C244.847 31.7538 244.731 31.3295 244.731 30.8324C244.731 30.3949 244.817 30.0402 244.989 29.7685C245.162 29.4934 245.392 29.2779 245.68 29.1222C245.969 28.9664 246.287 28.8504 246.635 28.7741C246.986 28.6946 247.339 28.6316 247.694 28.5852C248.158 28.5256 248.534 28.4808 248.823 28.451C249.114 28.4179 249.326 28.3632 249.459 28.2869C249.595 28.2107 249.663 28.0781 249.663 27.8892V27.8494C249.663 27.3589 249.528 26.9777 249.26 26.706C248.995 26.4342 248.592 26.2983 248.052 26.2983C247.492 26.2983 247.053 26.4209 246.734 26.6662C246.416 26.9115 246.193 27.1733 246.063 27.4517L244.95 27.054C245.149 26.59 245.414 26.2287 245.745 25.9702C246.08 25.7083 246.444 25.526 246.839 25.4233C247.237 25.3172 247.628 25.2642 248.012 25.2642C248.257 25.2642 248.539 25.294 248.857 25.3537C249.179 25.41 249.489 25.5277 249.787 25.7067C250.089 25.8857 250.339 26.1558 250.538 26.517C250.737 26.8783 250.836 27.3622 250.836 27.9688V33H249.663V31.9659H249.603C249.524 32.1316 249.391 32.3089 249.205 32.4979C249.02 32.6868 248.773 32.8475 248.465 32.9801C248.156 33.1127 247.78 33.179 247.336 33.179ZM247.515 32.125C247.979 32.125 248.37 32.0339 248.688 31.8516C249.01 31.6693 249.252 31.4339 249.414 31.1456C249.58 30.8572 249.663 30.554 249.663 30.2358V29.1619C249.613 29.2216 249.504 29.2763 249.335 29.326C249.169 29.3724 248.977 29.4138 248.758 29.4503C248.542 29.4834 248.332 29.5133 248.127 29.5398C247.924 29.563 247.76 29.5829 247.634 29.5994C247.329 29.6392 247.044 29.7038 246.779 29.7933C246.517 29.8795 246.305 30.0104 246.143 30.1861C245.984 30.3584 245.904 30.5937 245.904 30.892C245.904 31.2997 246.055 31.608 246.357 31.8168C246.662 32.0223 247.048 32.125 247.515 32.125ZM253.277 33V22.8182H254.45V26.5767H254.549C254.636 26.4441 254.755 26.2751 254.907 26.0696C255.063 25.8608 255.285 25.6752 255.574 25.5128C255.865 25.3471 256.26 25.2642 256.757 25.2642C257.4 25.2642 257.966 25.425 258.457 25.7464C258.948 26.0679 259.33 26.5237 259.605 27.1136C259.881 27.7036 260.018 28.3996 260.018 29.2017C260.018 30.0104 259.881 30.7114 259.605 31.3047C259.33 31.8946 258.949 32.352 258.462 32.6768C257.975 32.9983 257.413 33.1591 256.777 33.1591C256.286 33.1591 255.893 33.0779 255.598 32.9155C255.303 32.7498 255.076 32.5625 254.917 32.3537C254.758 32.1416 254.636 31.9659 254.549 31.8267H254.41V33H253.277ZM254.43 29.1818C254.43 29.7585 254.515 30.2673 254.684 30.7081C254.853 31.1456 255.1 31.4886 255.424 31.7372C255.749 31.9825 256.147 32.1051 256.618 32.1051C257.108 32.1051 257.517 31.9759 257.846 31.7173C258.177 31.4555 258.426 31.1042 258.591 30.6634C258.76 30.2192 258.845 29.7254 258.845 29.1818C258.845 28.6449 258.762 28.161 258.596 27.7301C258.434 27.2959 258.187 26.9529 257.855 26.701C257.527 26.4458 257.115 26.3182 256.618 26.3182C256.14 26.3182 255.739 26.4392 255.414 26.6811C255.09 26.9197 254.844 27.2545 254.679 27.6854C254.513 28.1129 254.43 28.6117 254.43 29.1818ZM265.155 33.1591C264.419 33.1591 263.784 32.9967 263.25 32.6719C262.72 32.3438 262.311 31.8864 262.022 31.2997C261.737 30.7098 261.595 30.0237 261.595 29.2415C261.595 28.4593 261.737 27.7699 262.022 27.1733C262.311 26.5734 262.712 26.1061 263.226 25.7713C263.743 25.4332 264.346 25.2642 265.035 25.2642C265.433 25.2642 265.826 25.3305 266.214 25.4631C266.601 25.5956 266.954 25.8111 267.272 26.1094C267.591 26.4044 267.844 26.7955 268.033 27.2827C268.222 27.7699 268.316 28.3698 268.316 29.0824V29.5795H262.43V28.5653H267.123C267.123 28.1345 267.037 27.75 266.865 27.4119C266.696 27.0739 266.454 26.8071 266.139 26.6115C265.827 26.416 265.459 26.3182 265.035 26.3182C264.568 26.3182 264.164 26.4342 263.822 26.6662C263.484 26.8949 263.224 27.1932 263.042 27.5611C262.859 27.929 262.768 28.3234 262.768 28.7443V29.4205C262.768 29.9972 262.868 30.486 263.066 30.8871C263.269 31.2848 263.549 31.5881 263.907 31.7969C264.265 32.0024 264.681 32.1051 265.155 32.1051C265.463 32.1051 265.741 32.062 265.99 31.9759C266.242 31.8864 266.459 31.7538 266.641 31.5781C266.823 31.3991 266.964 31.1771 267.064 30.9119L268.197 31.2301C268.078 31.6146 267.877 31.9527 267.596 32.2443C267.314 32.5327 266.966 32.758 266.552 32.9205C266.137 33.0795 265.672 33.1591 265.155 33.1591ZM271.415 22.8182V33H270.241V22.8182H271.415Z" fill="#1A1B1F"/>
<path d="M355.233 33V22.8182H356.466V31.9062H361.199V33H355.233ZM365.336 33.179C364.852 33.179 364.413 33.0878 364.019 32.9055C363.624 32.7199 363.311 32.4531 363.079 32.1051C362.847 31.7538 362.731 31.3295 362.731 30.8324C362.731 30.3949 362.817 30.0402 362.989 29.7685C363.162 29.4934 363.392 29.2779 363.68 29.1222C363.969 28.9664 364.287 28.8504 364.635 28.7741C364.986 28.6946 365.339 28.6316 365.694 28.5852C366.158 28.5256 366.534 28.4808 366.823 28.451C367.114 28.4179 367.326 28.3632 367.459 28.2869C367.595 28.2107 367.663 28.0781 367.663 27.8892V27.8494C367.663 27.3589 367.528 26.9777 367.26 26.706C366.995 26.4342 366.592 26.2983 366.052 26.2983C365.492 26.2983 365.053 26.4209 364.734 26.6662C364.416 26.9115 364.193 27.1733 364.063 27.4517L362.95 27.054C363.149 26.59 363.414 26.2287 363.745 25.9702C364.08 25.7083 364.444 25.526 364.839 25.4233C365.237 25.3172 365.628 25.2642 366.012 25.2642C366.257 25.2642 366.539 25.294 366.857 25.3537C367.179 25.41 367.489 25.5277 367.787 25.7067C368.089 25.8857 368.339 26.1558 368.538 26.517C368.737 26.8783 368.836 27.3622 368.836 27.9688V33H367.663V31.9659H367.603C367.524 32.1316 367.391 32.3089 367.205 32.4979C367.02 32.6868 366.773 32.8475 366.465 32.9801C366.156 33.1127 365.78 33.179 365.336 33.179ZM365.515 32.125C365.979 32.125 366.37 32.0339 366.688 31.8516C367.01 31.6693 367.252 31.4339 367.414 31.1456C367.58 30.8572 367.663 30.554 367.663 30.2358V29.1619C367.613 29.2216 367.504 29.2763 367.335 29.326C367.169 29.3724 366.977 29.4138 366.758 29.4503C366.542 29.4834 366.332 29.5133 366.127 29.5398C365.924 29.563 365.76 29.5829 365.634 29.5994C365.329 29.6392 365.044 29.7038 364.779 29.7933C364.517 29.8795 364.305 30.0104 364.143 30.1861C363.984 30.3584 363.904 30.5937 363.904 30.892C363.904 31.2997 364.055 31.608 364.357 31.8168C364.662 32.0223 365.048 32.125 365.515 32.125ZM371.277 33V22.8182H372.45V26.5767H372.549C372.636 26.4441 372.755 26.2751 372.907 26.0696C373.063 25.8608 373.285 25.6752 373.574 25.5128C373.865 25.3471 374.26 25.2642 374.757 25.2642C375.4 25.2642 375.966 25.425 376.457 25.7464C376.948 26.0679 377.33 26.5237 377.605 27.1136C377.881 27.7036 378.018 28.3996 378.018 29.2017C378.018 30.0104 377.881 30.7114 377.605 31.3047C377.33 31.8946 376.949 32.352 376.462 32.6768C375.975 32.9983 375.413 33.1591 374.777 33.1591C374.286 33.1591 373.893 33.0779 373.598 32.9155C373.303 32.7498 373.076 32.5625 372.917 32.3537C372.758 32.1416 372.636 31.9659 372.549 31.8267H372.41V33H371.277ZM372.43 29.1818C372.43 29.7585 372.515 30.2673 372.684 30.7081C372.853 31.1456 373.1 31.4886 373.424 31.7372C373.749 31.9825 374.147 32.1051 374.618 32.1051C375.108 32.1051 375.517 31.9759 375.846 31.7173C376.177 31.4555 376.426 31.1042 376.591 30.6634C376.76 30.2192 376.845 29.7254 376.845 29.1818C376.845 28.6449 376.762 28.161 376.596 27.7301C376.434 27.2959 376.187 26.9529 375.855 26.701C375.527 26.4458 375.115 26.3182 374.618 26.3182C374.14 26.3182 373.739 26.4392 373.414 26.6811C373.09 26.9197 372.844 27.2545 372.679 27.6854C372.513 28.1129 372.43 28.6117 372.43 29.1818ZM383.155 33.1591C382.419 33.1591 381.784 32.9967 381.25 32.6719C380.72 32.3438 380.311 31.8864 380.022 31.2997C379.737 30.7098 379.595 30.0237 379.595 29.2415C379.595 28.4593 379.737 27.7699 380.022 27.1733C380.311 26.5734 380.712 26.1061 381.226 25.7713C381.743 25.4332 382.346 25.2642 383.035 25.2642C383.433 25.2642 383.826 25.3305 384.214 25.4631C384.601 25.5956 384.954 25.8111 385.272 26.1094C385.591 26.4044 385.844 26.7955 386.033 27.2827C386.222 27.7699 386.316 28.3698 386.316 29.0824V29.5795H380.43V28.5653H385.123C385.123 28.1345 385.037 27.75 384.865 27.4119C384.696 27.0739 384.454 26.8071 384.139 26.6115C383.827 26.416 383.459 26.3182 383.035 26.3182C382.568 26.3182 382.164 26.4342 381.822 26.6662C381.484 26.8949 381.224 27.1932 381.042 27.5611C380.859 27.929 380.768 28.3234 380.768 28.7443V29.4205C380.768 29.9972 380.868 30.486 381.066 30.8871C381.269 31.2848 381.549 31.5881 381.907 31.7969C382.265 32.0024 382.681 32.1051 383.155 32.1051C383.463 32.1051 383.741 32.062 383.99 31.9759C384.242 31.8864 384.459 31.7538 384.641 31.5781C384.823 31.3991 384.964 31.1771 385.064 30.9119L386.197 31.2301C386.078 31.6146 385.877 31.9527 385.596 32.2443C385.314 32.5327 384.966 32.758 384.552 32.9205C384.137 33.0795 383.672 33.1591 383.155 33.1591ZM389.415 22.8182V33H388.241V22.8182H389.415Z" fill="#1A1B1F"/>
</svg>
