<svg width="186" height="40" viewBox="0 0 186 40" fill="none" xmlns="http://www.w3.org/2000/svg">
<rect width="74" height="40" rx="4" fill="#4D80B3"/>
<path d="M17.1477 26V14.3636H19.2557V24.233H24.3807V26H17.1477ZM28.6307 26.1761C28.0777 26.1761 27.5795 26.0777 27.1364 25.8807C26.697 25.6799 26.3485 25.3845 26.0909 24.9943C25.8371 24.6042 25.7102 24.1231 25.7102 23.5511C25.7102 23.0587 25.8011 22.6515 25.983 22.3295C26.1648 22.0076 26.4129 21.75 26.7273 21.5568C27.0417 21.3636 27.3958 21.2178 27.7898 21.1193C28.1875 21.017 28.5985 20.9432 29.0227 20.8977C29.5341 20.8447 29.9489 20.7973 30.267 20.7557C30.5852 20.7102 30.8163 20.642 30.9602 20.5511C31.108 20.4564 31.1818 20.3106 31.1818 20.1136V20.0795C31.1818 19.6515 31.0549 19.3201 30.8011 19.0852C30.5473 18.8504 30.1818 18.733 29.7045 18.733C29.2008 18.733 28.8011 18.8428 28.5057 19.0625C28.214 19.2822 28.017 19.5417 27.9148 19.8409L25.9943 19.5682C26.1458 19.0379 26.3958 18.5947 26.7443 18.2386C27.0928 17.8788 27.5189 17.6098 28.0227 17.4318C28.5265 17.25 29.0833 17.1591 29.6932 17.1591C30.1136 17.1591 30.5322 17.2083 30.9489 17.3068C31.3655 17.4053 31.7462 17.5682 32.0909 17.7955C32.4356 18.0189 32.7121 18.3239 32.9205 18.7102C33.1326 19.0966 33.2386 19.5795 33.2386 20.1591V26H31.2614V24.8011H31.1932C31.0682 25.0436 30.892 25.2708 30.6648 25.483C30.4413 25.6913 30.1591 25.8598 29.8182 25.9886C29.4811 26.1136 29.0852 26.1761 28.6307 26.1761ZM29.1648 24.6648C29.5777 24.6648 29.9356 24.5833 30.2386 24.4205C30.5417 24.2538 30.7746 24.0341 30.9375 23.7614C31.1042 23.4886 31.1875 23.1913 31.1875 22.8693V21.8409C31.1231 21.8939 31.0133 21.9432 30.858 21.9886C30.7064 22.0341 30.536 22.0739 30.3466 22.108C30.1572 22.142 29.9697 22.1723 29.7841 22.1989C29.5985 22.2254 29.4375 22.2481 29.3011 22.267C28.9943 22.3087 28.7197 22.3769 28.4773 22.4716C28.2348 22.5663 28.0436 22.6989 27.9034 22.8693C27.7633 23.036 27.6932 23.2519 27.6932 23.517C27.6932 23.8958 27.8314 24.1818 28.108 24.375C28.3845 24.5682 28.7367 24.6648 29.1648 24.6648ZM35.3977 26V14.3636H37.4545V18.7159H37.5398C37.6458 18.5038 37.7955 18.2784 37.9886 18.0398C38.1818 17.7973 38.4432 17.5909 38.7727 17.4205C39.1023 17.2462 39.5227 17.1591 40.0341 17.1591C40.7083 17.1591 41.3163 17.3314 41.858 17.6761C42.4034 18.017 42.8352 18.5227 43.1534 19.1932C43.4754 19.8598 43.6364 20.678 43.6364 21.6477C43.6364 22.6061 43.4792 23.4205 43.1648 24.0909C42.8504 24.7614 42.4223 25.2727 41.8807 25.625C41.339 25.9773 40.7254 26.1534 40.0398 26.1534C39.5398 26.1534 39.125 26.0701 38.7955 25.9034C38.4659 25.7367 38.2008 25.536 38 25.3011C37.803 25.0625 37.6496 24.8371 37.5398 24.625H37.4205V26H35.3977ZM37.4148 21.6364C37.4148 22.2008 37.4943 22.6951 37.6534 23.1193C37.8163 23.5436 38.0492 23.875 38.3523 24.1136C38.6591 24.3485 39.0303 24.4659 39.4659 24.4659C39.9205 24.4659 40.3011 24.3447 40.608 24.1023C40.9148 23.8561 41.1458 23.5208 41.3011 23.0966C41.4602 22.6686 41.5398 22.1818 41.5398 21.6364C41.5398 21.0947 41.4621 20.6136 41.3068 20.1932C41.1515 19.7727 40.9205 19.4432 40.6136 19.2045C40.3068 18.9659 39.9242 18.8466 39.4659 18.8466C39.0265 18.8466 38.6534 18.9621 38.3466 19.1932C38.0398 19.4242 37.8068 19.7481 37.6477 20.1648C37.4924 20.5814 37.4148 21.072 37.4148 21.6364ZM49.2486 26.1705C48.3736 26.1705 47.6179 25.9886 46.9815 25.625C46.349 25.2576 45.8622 24.7386 45.5213 24.0682C45.1804 23.3939 45.0099 22.6004 45.0099 21.6875C45.0099 20.7898 45.1804 20.0019 45.5213 19.3239C45.866 18.642 46.3471 18.1117 46.9645 17.733C47.5819 17.3504 48.3073 17.1591 49.1406 17.1591C49.6785 17.1591 50.1861 17.2462 50.6634 17.4205C51.1444 17.5909 51.5687 17.8561 51.9361 18.2159C52.3073 18.5758 52.599 19.0341 52.8111 19.5909C53.0232 20.1439 53.1293 20.803 53.1293 21.5682V22.1989H45.9759V20.8125H51.1577C51.1539 20.4186 51.0687 20.0682 50.902 19.7614C50.7353 19.4508 50.5024 19.2064 50.2031 19.0284C49.9077 18.8504 49.563 18.7614 49.169 18.7614C48.7486 18.7614 48.3793 18.8636 48.0611 19.0682C47.7429 19.2689 47.4948 19.5341 47.3168 19.8636C47.1425 20.1894 47.0535 20.5473 47.0497 20.9375V22.1477C47.0497 22.6553 47.1425 23.0909 47.3281 23.4545C47.5137 23.8144 47.7732 24.0909 48.1065 24.2841C48.4399 24.4735 48.83 24.5682 49.277 24.5682C49.5762 24.5682 49.8471 24.5265 50.0895 24.4432C50.3319 24.3561 50.5421 24.2292 50.7202 24.0625C50.8982 23.8958 51.0327 23.6894 51.1236 23.4432L53.044 23.6591C52.9228 24.1667 52.6918 24.6098 52.3509 24.9886C52.0137 25.3636 51.5819 25.6553 51.0554 25.8636C50.5289 26.0682 49.9266 26.1705 49.2486 26.1705ZM56.9261 14.3636V26H54.8693V14.3636H56.9261Z" fill="#F0F7FF"/>
<rect x="90" width="96" height="40" rx="4" fill="#4D80B3"/>
<path d="M110 13C106.134 13 103 16.134 103 20C103 23.866 106.134 27 110 27C113.866 27 117 23.866 117 20C117 16.134 113.866 13 110 13ZM102 20C102 15.5817 105.582 12 110 12C114.418 12 118 15.5817 118 20C118 24.4183 114.418 28 110 28C105.582 28 102 24.4183 102 20Z" fill="#F0F7FF"/>
<path d="M129.148 26V14.3636H131.256V24.233H136.381V26H129.148ZM140.631 26.1761C140.078 26.1761 139.58 26.0777 139.136 25.8807C138.697 25.6799 138.348 25.3845 138.091 24.9943C137.837 24.6042 137.71 24.1231 137.71 23.5511C137.71 23.0587 137.801 22.6515 137.983 22.3295C138.165 22.0076 138.413 21.75 138.727 21.5568C139.042 21.3636 139.396 21.2178 139.79 21.1193C140.188 21.017 140.598 20.9432 141.023 20.8977C141.534 20.8447 141.949 20.7973 142.267 20.7557C142.585 20.7102 142.816 20.642 142.96 20.5511C143.108 20.4564 143.182 20.3106 143.182 20.1136V20.0795C143.182 19.6515 143.055 19.3201 142.801 19.0852C142.547 18.8504 142.182 18.733 141.705 18.733C141.201 18.733 140.801 18.8428 140.506 19.0625C140.214 19.2822 140.017 19.5417 139.915 19.8409L137.994 19.5682C138.146 19.0379 138.396 18.5947 138.744 18.2386C139.093 17.8788 139.519 17.6098 140.023 17.4318C140.527 17.25 141.083 17.1591 141.693 17.1591C142.114 17.1591 142.532 17.2083 142.949 17.3068C143.366 17.4053 143.746 17.5682 144.091 17.7955C144.436 18.0189 144.712 18.3239 144.92 18.7102C145.133 19.0966 145.239 19.5795 145.239 20.1591V26H143.261V24.8011H143.193C143.068 25.0436 142.892 25.2708 142.665 25.483C142.441 25.6913 142.159 25.8598 141.818 25.9886C141.481 26.1136 141.085 26.1761 140.631 26.1761ZM141.165 24.6648C141.578 24.6648 141.936 24.5833 142.239 24.4205C142.542 24.2538 142.775 24.0341 142.938 23.7614C143.104 23.4886 143.188 23.1913 143.188 22.8693V21.8409C143.123 21.8939 143.013 21.9432 142.858 21.9886C142.706 22.0341 142.536 22.0739 142.347 22.108C142.157 22.142 141.97 22.1723 141.784 22.1989C141.598 22.2254 141.438 22.2481 141.301 22.267C140.994 22.3087 140.72 22.3769 140.477 22.4716C140.235 22.5663 140.044 22.6989 139.903 22.8693C139.763 23.036 139.693 23.2519 139.693 23.517C139.693 23.8958 139.831 24.1818 140.108 24.375C140.384 24.5682 140.737 24.6648 141.165 24.6648ZM147.398 26V14.3636H149.455V18.7159H149.54C149.646 18.5038 149.795 18.2784 149.989 18.0398C150.182 17.7973 150.443 17.5909 150.773 17.4205C151.102 17.2462 151.523 17.1591 152.034 17.1591C152.708 17.1591 153.316 17.3314 153.858 17.6761C154.403 18.017 154.835 18.5227 155.153 19.1932C155.475 19.8598 155.636 20.678 155.636 21.6477C155.636 22.6061 155.479 23.4205 155.165 24.0909C154.85 24.7614 154.422 25.2727 153.881 25.625C153.339 25.9773 152.725 26.1534 152.04 26.1534C151.54 26.1534 151.125 26.0701 150.795 25.9034C150.466 25.7367 150.201 25.536 150 25.3011C149.803 25.0625 149.65 24.8371 149.54 24.625H149.42V26H147.398ZM149.415 21.6364C149.415 22.2008 149.494 22.6951 149.653 23.1193C149.816 23.5436 150.049 23.875 150.352 24.1136C150.659 24.3485 151.03 24.4659 151.466 24.4659C151.92 24.4659 152.301 24.3447 152.608 24.1023C152.915 23.8561 153.146 23.5208 153.301 23.0966C153.46 22.6686 153.54 22.1818 153.54 21.6364C153.54 21.0947 153.462 20.6136 153.307 20.1932C153.152 19.7727 152.92 19.4432 152.614 19.2045C152.307 18.9659 151.924 18.8466 151.466 18.8466C151.027 18.8466 150.653 18.9621 150.347 19.1932C150.04 19.4242 149.807 19.7481 149.648 20.1648C149.492 20.5814 149.415 21.072 149.415 21.6364ZM161.249 26.1705C160.374 26.1705 159.618 25.9886 158.982 25.625C158.349 25.2576 157.862 24.7386 157.521 24.0682C157.18 23.3939 157.01 22.6004 157.01 21.6875C157.01 20.7898 157.18 20.0019 157.521 19.3239C157.866 18.642 158.347 18.1117 158.964 17.733C159.582 17.3504 160.307 17.1591 161.141 17.1591C161.679 17.1591 162.186 17.2462 162.663 17.4205C163.144 17.5909 163.569 17.8561 163.936 18.2159C164.307 18.5758 164.599 19.0341 164.811 19.5909C165.023 20.1439 165.129 20.803 165.129 21.5682V22.1989H157.976V20.8125H163.158C163.154 20.4186 163.069 20.0682 162.902 19.7614C162.735 19.4508 162.502 19.2064 162.203 19.0284C161.908 18.8504 161.563 18.7614 161.169 18.7614C160.749 18.7614 160.379 18.8636 160.061 19.0682C159.743 19.2689 159.495 19.5341 159.317 19.8636C159.143 20.1894 159.054 20.5473 159.05 20.9375V22.1477C159.05 22.6553 159.143 23.0909 159.328 23.4545C159.514 23.8144 159.773 24.0909 160.107 24.2841C160.44 24.4735 160.83 24.5682 161.277 24.5682C161.576 24.5682 161.847 24.5265 162.089 24.4432C162.332 24.3561 162.542 24.2292 162.72 24.0625C162.898 23.8958 163.033 23.6894 163.124 23.4432L165.044 23.6591C164.923 24.1667 164.692 24.6098 164.351 24.9886C164.014 25.3636 163.582 25.6553 163.055 25.8636C162.529 26.0682 161.927 26.1705 161.249 26.1705ZM168.926 14.3636V26H166.869V14.3636H168.926Z" fill="#F0F7FF"/>
</svg>
