<?xml version="1.0" encoding="UTF-8"?>
<svg width="48px" height="48px" viewBox="0 0 48 48" version="1.1" xmlns="http://www.w3.org/2000/svg" xmlns:xlink="http://www.w3.org/1999/xlink">
    <!-- Generator: Sketch 58 (84663) - https://sketch.com -->
    <title>blackboard</title>
    <desc>Created with Sketch.</desc>
    <g id="Page-1" stroke="none" stroke-width="1" fill="none" fill-rule="evenodd">
        <g id="Artboard" transform="translate(-231.000000, -42.000000)">
            <g id="blackboard" transform="translate(231.000000, 42.000000)">
                <rect id="Rectangle" fill="#FFFFFF" x="3.19162105" y="3.98584037" width="41.5157053" height="25.8079112"></rect>
                <path d="M47.1915789,30.1136842 L45.8293895,30.1136842 L45.8293895,3.73894737 C45.8293895,3.34827858 45.5126898,3.03157895 45.1220211,3.03157895 L25.8694737,3.03157895 L25.8694737,0.707368421 C25.8694737,0.31669963 25.5527741,0 25.1621053,0 L22.7368421,0 C22.3461733,0 22.0294737,0.31669963 22.0294737,0.707368421 L22.0294737,3.03157895 L2.77692632,3.03157895 C2.58932055,3.03157895 2.40939862,3.10610505 2.27674131,3.23876236 C2.144084,3.37141967 2.06955789,3.5513416 2.06955789,3.73894737 L2.06955789,30.1136842 L0.707368421,30.1136842 C0.31669963,30.1136842 0,30.4303838 0,30.8210526 L0,34.4589474 C0,34.6465531 0.0745261018,34.8264751 0.207183414,34.9591324 C0.339840726,35.0917897 0.519762651,35.1663158 0.707368421,35.1663158 L16.9368253,35.1663158 L11.9306779,45.1163621 C11.6223615,45.7291681 11.6643934,46.4599091 12.0409408,47.033322 C12.4174881,47.6067348 13.0713443,47.9357046 13.7562081,47.8963114 C14.4410719,47.8569183 15.0528962,47.4551471 15.3612126,46.8423411 L21.2364126,35.1663158 L26.6625347,35.1663158 L32.5381389,46.8431495 C32.8467442,47.4558111 33.4587583,47.8572948 34.1436415,47.8963657 C34.8285246,47.9354365 35.4822268,47.6061586 35.8585047,47.0325677 C36.2347825,46.4589769 36.2764706,45.7282153 35.9678653,45.1155537 L30.9621221,35.1663158 L47.1915789,35.1663158 C47.5822477,35.1663158 47.8989474,34.8496162 47.8989474,34.4589474 L47.8989474,30.8210526 C47.8989474,30.4303838 47.5822477,30.1136842 47.1915789,30.1136842 Z M23.4442105,1.41473684 L24.4547368,1.41473684 L24.4547368,3.03157895 L23.4442105,3.03157895 L23.4442105,1.41473684 Z M3.48429474,4.44631579 L44.4146526,4.44631579 L44.4146526,30.1136842 L3.48429474,30.1136842 L3.48429474,4.44631579 Z M14.0976505,46.2061137 C14.0164196,46.367348 13.8553417,46.4729985 13.6750932,46.4832677 C13.4948447,46.4935368 13.3228097,46.4068645 13.2237921,46.2558992 C13.1247745,46.104934 13.1138175,45.9126112 13.1950484,45.7513768 L18.5205221,35.1663158 L19.6523116,35.1663158 L14.0976505,46.2061137 Z M34.7047074,45.7521853 C34.7836464,45.908857 34.775593,46.0952762 34.6834365,46.2445565 C34.59128,46.3938368 34.4282346,46.4845734 34.2528,46.4842116 C34.0623384,46.4832763 33.8883145,46.3761487 33.8017011,46.2065179 L28.2462316,35.1663158 L29.3780211,35.1663158 L34.7047074,45.7521853 Z M46.4842105,33.7515789 L1.41473684,33.7515789 L1.41473684,31.5284211 L46.4842105,31.5284211 L46.4842105,33.7515789 Z" id="Shape" fill="#FFFFFF" fill-rule="nonzero"></path>
                <path d="M9.90315789,24.8694737 C9.5124891,24.8694737 9.19578947,25.1861733 9.19578947,25.5768421 L9.19578947,30.5959242 C9.19578947,30.986593 9.5124891,31.3032926 9.90315789,31.3032926 C10.2938267,31.3032926 10.6105263,30.986593 10.6105263,30.5959242 L10.6105263,25.5768421 C10.6105263,25.1861733 10.2938267,24.8694737 9.90315789,24.8694737 Z" id="Path" fill="#000000" fill-rule="nonzero" transform="translate(9.903158, 28.086383) rotate(90.000000) translate(-9.903158, -28.086383) "></path>
            </g>
        </g>
    </g>
</svg>